<?xml version="1.0" encoding="UTF-8" standalone="no"?>
<svg
   xmlns:dc="http://purl.org/dc/elements/1.1/"
   xmlns:cc="http://creativecommons.org/ns#"
   xmlns:rdf="http://www.w3.org/1999/02/22-rdf-syntax-ns#"
   xmlns:svg="http://www.w3.org/2000/svg"
   xmlns="http://www.w3.org/2000/svg"
   xmlns:sodipodi="http://sodipodi.sourceforge.net/DTD/sodipodi-0.dtd"
   xmlns:inkscape="http://www.inkscape.org/namespaces/inkscape"
   width="16"
   height="16"
   version="1.1"
   viewBox="0 0 16 16"
   id="svg7"
   sodipodi:docname="align-horizontal-node.svg"
   inkscape:version="0.92.3 (2405546, 2018-03-11)">
  <metadata
     id="metadata11">
    <rdf:RDF>
      <cc:Work
         rdf:about="">
        <dc:format>image/svg+xml</dc:format>
        <dc:type
           rdf:resource="http://purl.org/dc/dcmitype/StillImage" />
        <dc:title></dc:title>
      </cc:Work>
    </rdf:RDF>
  </metadata>
  <sodipodi:namedview
     pagecolor="#ffffff"
     bordercolor="#666666"
     borderopacity="1"
     objecttolerance="10"
     gridtolerance="10"
     guidetolerance="10"
     inkscape:pageopacity="0"
     inkscape:pageshadow="2"
     inkscape:window-width="640"
     inkscape:window-height="480"
     id="namedview9"
     showgrid="false"
     inkscape:zoom="12.166667"
     inkscape:cx="1.2328767"
     inkscape:cy="11.342466"
     inkscape:current-layer="svg7" />
  <defs
     id="defs3">
    <style
       id="current-color-scheme"
       type="text/css">
   .ColorScheme-Text { color:#444444; } .ColorScheme-Highlight { color:#4285f4; }
  </style>
  </defs>
  <path
     style="color:#444444;fill:currentColor"
     class="ColorScheme-Text"
     d="M 0.3258041,1.0493773e-4 V 0.00140494 A 0.33321871,0.33323204 0 0 0 0.0835788,0.55487914 C 0.6880531,1.2603225 1.7838547,1.6011904 3.0697223,1.8767 3.9807312,2.0717978 4.9903368,2.2220168 5.9959605,2.3741738 v 1.630462 H 7.333409 v 2.000313 H 5.9959605 v 0.959785 c -0.00267,4.67e-4 -0.00515,0 -0.00782,0 -1.4064864,0.23097 -2.8191403,0.532613 -3.9381151,1.122571 -1.11904138,0.589959 -1.9546115,1.52233 -2.0458924,2.8910772 -0.035999,0.543485 0.1652545,1.027475 0.522217,1.384331 0.35696902,0.356923 0.8499619,0.604138 1.43512,0.798301 1.0795018,0.35819 2.4981775,0.532861 4.0344842,0.673283 v 1.501537 H 7.333403 V 16 h 0.333389 0.333385 v -0.333386 -0.33078 H 9.32851 v -1.204616 c 2.469786,0.241771 4.830357,0.60066 6.148096,1.479398 a 0.33337303,0.3333797 0 1 0 0.369849,-0.554774 C 14.295014,14.02128 11.834904,13.671184 9.328512,13.446215 V 12.003282 H 8.00018 V 9.3361988 h 1.328332 v -2.226911 c 0.236304,-0.04533 0.4720909,-0.09058 0.690212,-0.143251 0.566215,-0.136888 1.065716,-0.302212 1.46898,-0.54045 0.403296,-0.23817 0.723579,-0.569936 0.833463,-1.009272 0.139455,-0.558287 0.07215,-1.075661 -0.171902,-1.496327 -0.244112,-0.420733 -0.642276,-0.737268 -1.12257,-0.99104 -0.485437,-0.25644 -1.0640171,-0.45516 -1.698183,-0.618586 V 0.67078254 H 8.00018 V 0.33739724 0.00401174 H 7.333409 v 0.3333855 0.3333853 H 5.9959605 V 1.6982868 C 5.0229419,1.5505303 4.0581995,1.4048472 3.2090669,1.2229521 1.9677398,0.95704404 0.98509672,0.58085404 0.5901683,0.11991534 A 0.33321871,0.33323204 0 0 0 0.3258041,1.0493773e-4 Z M 9.328512,3.0109918 c 0.5326369,0.146023 1.01181,0.31103 1.386936,0.509194 0.41063,0.216968 0.699146,0.463883 0.856904,0.735792 0.157784,0.271909 0.207768,0.575157 0.101578,1.000156 -0.05666,0.227103 -0.216313,0.415522 -0.524821,0.59775 -0.308569,0.182228 -0.754576,0.337599 -1.2866591,0.466219 -0.1657989,0.04001 -0.3529229,0.07483 -0.5339379,0.110694 V 6.0049488 H 8.00018 v -2.000313 h 1.328332 z m -3.3325515,4.630931 v 1.695578 H 7.333409 V 12.004584 H 5.9959605 v 1.160338 C 4.4968596,13.0255 3.1316277,12.849425 2.1711444,12.530708 1.6433953,12.355547 1.2412534,12.137292 0.99648182,11.892587 0.7517036,11.647882 0.6448706,11.394887 0.6696078,11.023962 0.7449328,9.8934518 1.3668563,9.2015238 2.3612783,8.6772408 3.3314298,8.1656948 4.6474832,7.8672918 5.9959605,7.6419228 Z"
     id="path5"
     inkscape:connector-curvature="0" />
</svg>
