<?xml version="1.0" encoding="UTF-8" standalone="no"?>
<svg
   xmlns:dc="http://purl.org/dc/elements/1.1/"
   xmlns:cc="http://creativecommons.org/ns#"
   xmlns:rdf="http://www.w3.org/1999/02/22-rdf-syntax-ns#"
   xmlns:svg="http://www.w3.org/2000/svg"
   xmlns="http://www.w3.org/2000/svg"
   xmlns:sodipodi="http://sodipodi.sourceforge.net/DTD/sodipodi-0.dtd"
   xmlns:inkscape="http://www.inkscape.org/namespaces/inkscape"
   viewBox="0 0 16 16"
   version="1.1"
   id="svg7"
   sodipodi:docname="align-vertical-baseline.svg"
   width="16"
   height="16"
   inkscape:version="0.92.3 (2405546, 2018-03-11)">
  <metadata
     id="metadata11">
    <rdf:RDF>
      <cc:Work
         rdf:about="">
        <dc:format>image/svg+xml</dc:format>
        <dc:type
           rdf:resource="http://purl.org/dc/dcmitype/StillImage" />
        <dc:title></dc:title>
      </cc:Work>
    </rdf:RDF>
  </metadata>
  <sodipodi:namedview
     pagecolor="#ffffff"
     bordercolor="#666666"
     borderopacity="1"
     objecttolerance="10"
     gridtolerance="10"
     guidetolerance="10"
     inkscape:pageopacity="0"
     inkscape:pageshadow="2"
     inkscape:window-width="640"
     inkscape:window-height="480"
     id="namedview9"
     showgrid="false"
     inkscape:zoom="12.166667"
     inkscape:cx="1.2328767"
     inkscape:cy="11.342466"
     inkscape:current-layer="svg7" />
  <defs
     id="defs3">
    <style
       id="current-color-scheme"
       type="text/css">
   .ColorScheme-Text { color:#4d4d4d; }
  </style>
  </defs>
  <path
     class="ColorScheme-Text"
     d="M 3.2363281,2.5 C 3.5058681,4.2782 4.2033894,6.148115 5.7871094,7.853516 5.0668772,8.759947 4.1578128,9.640522 2.9824219,10.5 H 0.140625 v 1 h 1.3261719 c -0.4984522,0.299036 -1.026181,0.596455 -1.6074219,0.890625 L 0.4550781,13.5 c 1.2442915,-0.629738 2.3105691,-1.30167 3.2402344,-2 H 16.140625 v -1 H 4.9121094 C 7.730878,7.959983 8.963103,5.1319595 9.859375,2.5 H 8.501953 C 7.990003,4.0034 7.398805,5.4317935 6.515625,6.808594 5.250895,5.3922935 4.6588975,4.0122 4.4296875,2.5 Z m 10.0410159,0 c -1.17273,0.025 -2.072003,0.2175469 -2.726563,0.4980469 l 0.367188,1.2617187 c 0.31364,-0.1021 1.499852,-0.4589844 2.195312,-0.4589844 h 0.0957 c 0.96819,0.038 1.03711,0.3686844 1.03711,1.1464844 v 0.3066406 l -0.50586,0.078125 C 11.394744,5.650831 10.140625,5.918463 10.140625,7.601562 c 0,1.173002 0.913578,1.898438 2.236328,1.898438 0.91364,0 1.513333,-0.357197 2.126953,-0.841797 l 0.191407,0.714844 h 1.445312 V 4.6542969 C 16.140625,3.2134969 15.077776,2.5 13.441406,2.5 Z m 0.96875,3.75 v 1.568359 c -0.50453,0.3188 -0.886466,0.546875 -1.541016,0.546875 -0.58637,0 -0.873047,-0.343625 -0.873047,-0.828125 0,-0.918 0.858173,-1.07259 1.908203,-1.21289 z"
     id="path5"
     inkscape:connector-curvature="0"
     style="color:#4d4d4d;fill:#4d4d4d" />
</svg>
