<?xml version="1.0" encoding="UTF-8" standalone="no"?>
<svg
   xmlns:dc="http://purl.org/dc/elements/1.1/"
   xmlns:cc="http://creativecommons.org/ns#"
   xmlns:rdf="http://www.w3.org/1999/02/22-rdf-syntax-ns#"
   xmlns:svg="http://www.w3.org/2000/svg"
   xmlns="http://www.w3.org/2000/svg"
   xmlns:sodipodi="http://sodipodi.sourceforge.net/DTD/sodipodi-0.dtd"
   xmlns:inkscape="http://www.inkscape.org/namespaces/inkscape"
   width="16"
   height="16"
   version="1.1"
   viewBox="0 0 16 16"
   id="svg7"
   sodipodi:docname="align-vertical-node.svg"
   inkscape:version="0.92.3 (2405546, 2018-03-11)">
  <metadata
     id="metadata11">
    <rdf:RDF>
      <cc:Work
         rdf:about="">
        <dc:format>image/svg+xml</dc:format>
        <dc:type
           rdf:resource="http://purl.org/dc/dcmitype/StillImage" />
        <dc:title></dc:title>
      </cc:Work>
    </rdf:RDF>
  </metadata>
  <sodipodi:namedview
     pagecolor="#ffffff"
     bordercolor="#666666"
     borderopacity="1"
     objecttolerance="10"
     gridtolerance="10"
     guidetolerance="10"
     inkscape:pageopacity="0"
     inkscape:pageshadow="2"
     inkscape:window-width="640"
     inkscape:window-height="480"
     id="namedview9"
     showgrid="false"
     inkscape:zoom="12.166667"
     inkscape:cx="1.2328767"
     inkscape:cy="11.342466"
     inkscape:current-layer="svg7" />
  <defs
     id="defs3">
    <style
       id="current-color-scheme"
       type="text/css">
   .ColorScheme-Text { color:#444444; } .ColorScheme-Highlight { color:#4285f4; }
  </style>
  </defs>
  <path
     style="color:#444444;fill:currentColor"
     class="ColorScheme-Text"
     d="M 0.6407259,0.00166527 A 0.33337874,0.33337207 0 0 0 0.3893845,0.52257997 C 1.2681218,1.8403859 1.6270112,4.2008904 1.8687823,6.6706752 H 0.664167 v 1.328332 H 0.3333862 8.0259636e-7 v 0.333386 0.333385 H 0.664167 v 1.3374488 h 1.5015367 c 0.1404219,1.536307 0.3150929,2.954982 0.6732822,4.034484 0.1941637,0.585225 0.4413793,1.078198 0.7983017,1.435121 0.3568559,0.356989 0.840846,0.558222 1.3843309,0.522216 1.3687473,-0.09121 2.3011183,-0.926917 2.8910763,-2.045892 0.589959,-1.118975 0.891602,-2.531629 1.122571,-3.938116 0,-0.0013 -4.67e-4,-0.0078 0,-0.0078 h 0.959786 V 8.6657912 H 11.995365 V 10.00324 h 1.630462 c 0.152157,1.005624 0.302377,2.015163 0.497474,2.926239 0.27551,1.285867 0.616378,2.381648 1.321821,2.986143 a 0.33323205,0.33321871 0 0 0 0.553472,-0.242226 h 0.0013 A 0.33323205,0.33321871 0 0 0 15.880085,15.40902 c -0.460938,-0.394929 -0.837128,-1.377572 -1.103037,-2.6189 -0.181895,-0.849132 -0.327577,-1.813874 -0.475334,-2.786893 h 1.027505 V 8.6657782 h 0.333385 0.333385 v -0.666771 h -0.333385 -0.333385 v -1.328332 h -1.63958 c -0.163425,-0.634099 -0.362146,-1.2127718 -0.618586,-1.6981818 -0.253773,-0.480275 -0.570307,-0.878466 -0.99104,-1.122571 -0.420666,-0.244038 -0.93804,-0.31139 -1.496328,-0.171902 -0.439335,0.109817 -0.7711012,0.430134 -1.0092722,0.833464 -0.238237,0.403263 -0.403561,0.902758 -0.540449,1.468979 -0.05268,0.2181008 -0.09791,0.4539088 -0.143251,0.6902118 h -2.226911 v 1.328332 H 3.9967189 V 6.6706752 H 2.5537851 C 2.3288167,4.1642844 1.9787203,1.7041062 0.9441587,0.15273057 A 0.33337874,0.33337207 0 0 0 0.6407259,0.00166527 Z M 11.040788,4.2744684 c 0.277331,-0.02335 0.499303,0.03405 0.703235,0.152367 0.271909,0.157758 0.518825,0.446241 0.735792,0.856905 0.198164,0.375059 0.363171,0.8543188 0.509194,1.3869348 h -0.993644 v 1.328332 H 9.9950518 v -1.328332 h -0.425848 c 0.03587,-0.180961 0.07069,-0.368178 0.110694,-0.533937 0.12862,-0.5320828 0.28399,-0.9780778 0.4662192,-1.2866598 0.182229,-0.308514 0.370647,-0.468146 0.597749,-0.524821 0.10625,-0.02655 0.204478,-0.04301 0.296922,-0.050789 z M 3.9954165,8.6657782 h 2.6670833 v 1.3374488 h 1.695577 c -0.225369,1.348477 -0.523771,2.664464 -1.035318,3.634683 -0.524282,0.994422 -1.216211,1.616325 -2.3467203,1.69167 C 4.6051139,15.354317 4.3521181,15.247544 4.1074132,15.002706 3.8627083,14.757935 3.6444534,14.355792 3.4692927,13.828043 3.1505762,12.86756 2.9745009,11.502328 2.835079,10.003227 h 1.1603375 z"
     id="path5"
     inkscape:connector-curvature="0" />
</svg>
