<?xml version="1.0" encoding="UTF-8" standalone="no"?>
<svg
   xmlns:dc="http://purl.org/dc/elements/1.1/"
   xmlns:cc="http://creativecommons.org/ns#"
   xmlns:rdf="http://www.w3.org/1999/02/22-rdf-syntax-ns#"
   xmlns:svg="http://www.w3.org/2000/svg"
   xmlns="http://www.w3.org/2000/svg"
   xmlns:sodipodi="http://sodipodi.sourceforge.net/DTD/sodipodi-0.dtd"
   xmlns:inkscape="http://www.inkscape.org/namespaces/inkscape"
   viewBox="0 0 16 16"
   version="1.1"
   id="svg7"
   sodipodi:docname="align-horizontal-baseline.svg"
   width="16"
   height="16"
   inkscape:version="0.92.3 (2405546, 2018-03-11)">
  <metadata
     id="metadata11">
    <rdf:RDF>
      <cc:Work
         rdf:about="">
        <dc:format>image/svg+xml</dc:format>
        <dc:type
           rdf:resource="http://purl.org/dc/dcmitype/StillImage" />
        <dc:title></dc:title>
      </cc:Work>
    </rdf:RDF>
  </metadata>
  <sodipodi:namedview
     pagecolor="#ffffff"
     bordercolor="#666666"
     borderopacity="1"
     objecttolerance="10"
     gridtolerance="10"
     guidetolerance="10"
     inkscape:pageopacity="0"
     inkscape:pageshadow="2"
     inkscape:window-width="640"
     inkscape:window-height="480"
     id="namedview9"
     showgrid="true"
     inkscape:zoom="12.166667"
     inkscape:cx="8.0589752"
     inkscape:cy="6.7661477"
     inkscape:current-layer="svg7">
    <inkscape:grid
       type="xygrid"
       id="grid13" />
  </sodipodi:namedview>
  <defs
     id="defs3">
    <style
       id="current-color-scheme"
       type="text/css">
   .ColorScheme-Text { color:#4d4d4d; }
  </style>
  </defs>
  <path
     class="ColorScheme-Text"
     d="M 5,-3e-7 V 14.460938 c -0.3287585,0.06879 -0.6271097,0.141073 -1,0.205078 L 4.2773438,16 C 4.5266713,15.95721 4.7620293,15.90354 5,15.851562 V 16 h 1 v -0.402344 c 4.814904,-1.400563 7,-4.744156 7,-7.5976563 h -1.476561 c 0,0.9235 -0.466473,2.7059783 -1.265626,3.3925783 -0.815788,-0.7731 -1.79992,-1.9681943 -2.03711,-3.3710943 L 7.03125,7.9999997 c 0,1.8985 1.341099,3.4706473 2.349609,4.4355473 C 8.518645,13.311362 7.50343,13.838845 6,14.240234 V -3e-7 Z m 5.136719,0 C 8.963981,0.0254797 8.062758,0.2175454 7.408203,0.4980466 L 7.777344,1.7597653 C 8.090981,1.6577064 9.277195,1.3007809 9.972656,1.3007809 h 0.0957 c 0.968194,0.03822 1.037111,0.3687222 1.037111,1.1464844 v 0.3066406 l -0.50586,0.076172 C 8.25412,3.1488406 7,3.41656 7,5.0996091 c 0,1.1730346 0.913577,1.9003906 2.236328,1.9003906 0.913646,0 1.51332,-0.35729 2.126953,-0.841797 l 0.191408,0.714844 H 13 V 2.1542966 C 13,0.713515 11.937171,-3e-7 10.300781,-3e-7 Z m 0.968751,3.7480469 v 1.5683593 c -0.504543,0.3187631 -0.88646,0.5488282 -1.541017,0.5488282 -0.586368,0 -0.873047,-0.3436179 -0.873047,-0.828125 0,-0.9180269 0.858184,-1.07264 1.908204,-1.2128906 z"
     id="path5"
     inkscape:connector-curvature="0"
     style="color:#4d4d4d;fill:#4d4d4d" />
</svg>
