<?xml version="1.0" encoding="UTF-8" standalone="no"?>
<svg
   xmlns:osb="http://www.openswatchbook.org/uri/2009/osb"
   xmlns:dc="http://purl.org/dc/elements/1.1/"
   xmlns:cc="http://creativecommons.org/ns#"
   xmlns:rdf="http://www.w3.org/1999/02/22-rdf-syntax-ns#"
   xmlns:svg="http://www.w3.org/2000/svg"
   xmlns="http://www.w3.org/2000/svg"
   xmlns:sodipodi="http://sodipodi.sourceforge.net/DTD/sodipodi-0.dtd"
   xmlns:inkscape="http://www.inkscape.org/namespaces/inkscape"
   height="16.000004"
   id="svg7384"
   version="1.1"
   width="16"
   sodipodi:docname="atmosphere.svg"
   inkscape:version="0.92.3 (2405546, 2018-03-11)">
  <sodipodi:namedview
     pagecolor="#ffffff"
     bordercolor="#666666"
     borderopacity="1"
     objecttolerance="10"
     gridtolerance="10"
     guidetolerance="10"
     inkscape:pageopacity="0"
     inkscape:pageshadow="2"
     inkscape:window-width="640"
     inkscape:window-height="480"
     id="namedview21"
     showgrid="false"
     inkscape:zoom="18.249996"
     inkscape:cx="-1.5342488"
     inkscape:cy="7.5616456"
     inkscape:current-layer="svg7384" />
  <metadata
     id="metadata20854">
    <rdf:RDF>
      <cc:Work
         rdf:about="">
        <dc:title />
        <dc:format>image/svg+xml</dc:format>
        <dc:type
           rdf:resource="http://purl.org/dc/dcmitype/StillImage" />
      </cc:Work>
    </rdf:RDF>
  </metadata>
  <defs
     id="defs7386">
    <linearGradient
       id="linearGradient5606"
       osb:paint="solid">
      <stop
         id="stop5608"
         offset="0"
         style="stop-color:#000000;stop-opacity:1;" />
    </linearGradient>
    <linearGradient
       id="linearGradient4526"
       osb:paint="solid">
      <stop
         id="stop4528"
         offset="0"
         style="stop-color:#ffffff;stop-opacity:1;" />
    </linearGradient>
    <linearGradient
       id="linearGradient3600-4"
       osb:paint="gradient">
      <stop
         id="stop3602-7"
         offset="0"
         style="stop-color:#f4f4f4;stop-opacity:1" />
      <stop
         id="stop3604-6"
         offset="1"
         style="stop-color:#dbdbdb;stop-opacity:1" />
    </linearGradient>
  </defs>
  <path
     inkscape:connector-curvature="0"
     style="color:#000000;font-style:normal;font-variant:normal;font-weight:normal;font-stretch:normal;font-size:medium;line-height:normal;font-family:sans-serif;font-variant-ligatures:normal;font-variant-position:normal;font-variant-caps:normal;font-variant-numeric:normal;font-variant-alternates:normal;font-feature-settings:normal;text-indent:0;text-align:start;text-decoration:none;text-decoration-line:none;text-decoration-style:solid;text-decoration-color:#000000;letter-spacing:normal;word-spacing:normal;text-transform:none;writing-mode:lr-tb;direction:ltr;baseline-shift:baseline;text-anchor:start;white-space:normal;shape-padding:0;clip-rule:nonzero;display:inline;overflow:visible;visibility:visible;opacity:1;isolation:auto;mix-blend-mode:normal;color-interpolation:sRGB;color-interpolation-filters:linearRGB;solid-color:#000000;solid-opacity:1;fill:#4d4d4d;fill-opacity:1;fill-rule:nonzero;stroke:none;stroke-width:4;stroke-linecap:round;stroke-linejoin:round;stroke-miterlimit:4;stroke-dasharray:none;stroke-dashoffset:0;stroke-opacity:1;marker:none;color-rendering:auto;image-rendering:auto;shape-rendering:auto;text-rendering:auto;enable-background:accumulate"
     id="path4116-6-2"
     d="M 8,0 C 3.58622,0 0,3.58646 0,8 c 0,4.41354 3.58622,8 8,8 4.41378,0 8,-3.58646 8,-8 C 16,3.58646 12.41378,0 8,0 Z M 7.9609,1.00195 7.9394,1.61914 8.85542,1.75586 9.47261,1.1582 c 0.61182,0.13138 1.19118,0.34493 1.73242,0.625 l -0.21485,0.34571 0.60938,0.54101 -0.60938,0.50977 0.23829,0.60937 1.35546,-0.64453 0.84766,0.64453 0.0449,-0.13867 c 0.184,0.23127 0.34988,0.47679 0.50391,0.73047 l -0.85547,0.1543 -0.50781,-0.54297 -1.5586,0.10156 -0.94921,1.49219 0.64453,1.59179 2.10156,0.64454 0.40625,2.47461 0.50781,1.2871 0.35742,-0.20312 C 12.93306,13.53675 10.63581,15 8,15 4.13795,15 1,11.86185 1,8 1,7.1879 1.14531,6.41119 1.40039,5.68555 l 0.0332,0.13672 1.08399,0.30468 1.42383,1.05078 0.0332,1.5254 0.91601,1.2539 0.54102,3.39063 0.98242,0.60937 L 6.14453,12.70313 7.80469,10.39844 8.51562,8.83984 6.85547,7.2793 5.05859,6.43359 4.31445,6.87305 3.43164,5.55078 2.92383,5.78906 2.48438,5.04297 3.26367,4.63672 4.00781,5.07617 5.29688,3.48438 7.16016,2.33203 6.65234,1.38281 5.12695,1.92578 4.9375,1.71484 C 5.85295,1.26713 6.87581,1.00797 7.96094,1.00195 Z" />
</svg>
