<?xml version="1.0" encoding="UTF-8" standalone="no"?>
<svg
   xmlns:dc="http://purl.org/dc/elements/1.1/"
   xmlns:cc="http://creativecommons.org/ns#"
   xmlns:rdf="http://www.w3.org/1999/02/22-rdf-syntax-ns#"
   xmlns:svg="http://www.w3.org/2000/svg"
   xmlns="http://www.w3.org/2000/svg"
   xmlns:sodipodi="http://sodipodi.sourceforge.net/DTD/sodipodi-0.dtd"
   xmlns:inkscape="http://www.inkscape.org/namespaces/inkscape"
   width="16"
   height="16"
   version="1.1"
   id="svg8"
   sodipodi:docname="bookmarks.svg"
   inkscape:version="0.92.3 (2405546, 2018-03-11)">
  <metadata
     id="metadata14">
    <rdf:RDF>
      <cc:Work
         rdf:about="">
        <dc:format>image/svg+xml</dc:format>
        <dc:type
           rdf:resource="http://purl.org/dc/dcmitype/StillImage" />
      </cc:Work>
    </rdf:RDF>
  </metadata>
  <defs
     id="defs12" />
  <sodipodi:namedview
     pagecolor="#ffffff"
     bordercolor="#666666"
     borderopacity="1"
     objecttolerance="10"
     gridtolerance="10"
     guidetolerance="10"
     inkscape:pageopacity="0"
     inkscape:pageshadow="2"
     inkscape:window-width="640"
     inkscape:window-height="480"
     id="namedview10"
     showgrid="false"
     inkscape:zoom="9.125"
     inkscape:cx="3.2810202"
     inkscape:cy="7.93548"
     inkscape:current-layer="svg8" />
  <path
     style="font-weight:400;font-family:sans-serif;overflow:visible;fill:#4d4d4d"
     d="M 0 1 L 0 14 L 6 14 C 6.9443306 14.017743 7.5833625 14.778855 7.6015625 14.800781 C 7.601826 14.801099 7.6074219 14.808594 7.6074219 14.808594 L 7.6074219 14.810547 L 7.9921875 15.318359 L 8 15.308594 L 8.0078125 15.318359 L 8.3925781 14.810547 L 8.3984375 14.800781 C 8.416676 14.778845 9.0556866 14.017743 10 14 L 16 14 L 16 9.2578125 L 16 1 L 14 1 L 14 2 L 15 2 L 15 10 L 15 13 L 10 13 A 2.791 2.791 0 0 0 9.9882812 13 A 2.791 2.791 0 0 0 9.3027344 13.085938 A 2.791 2.791 0 0 0 9.2988281 13.085938 A 2.791 2.791 0 0 0 8.75 13.287109 A 2.791 2.791 0 0 0 8 13.820312 A 2.791 2.791 0 0 0 7.25 13.287109 A 2.791 2.791 0 0 0 6.7011719 13.085938 A 2.791 2.791 0 0 0 6.6992188 13.085938 C 6.6986457 13.085796 6.6978391 13.086079 6.6972656 13.085938 A 2.791 2.791 0 0 0 6.0117188 13 C 6.0102947 12.999977 6.0092382 13.000021 6.0078125 13 L 6 13 L 1 13 L 1 2 L 6 2 C 6.983 2 7.5996094 2.7988281 7.5996094 2.7988281 L 8 3.3339844 L 8.4003906 2.7988281 C 8.4003906 2.7988281 9.017 2 10 2 L 10 9 L 13 8 L 13 1 L 10 1 C 8.964 1 8.365 1.4653125 8 1.8203125 C 7.635 1.4653125 7.036 1 6 1 L 0 1 z M 3 4 L 3 5 L 6 5 L 6 4 L 3 4 z M 3 6 L 3 7 L 6 7 L 6 6 L 3 6 z M 3 8 L 3 9 L 6 9 L 6 8 L 3 8 z M 3 10 L 3 11 L 6 11 L 6 10 L 3 10 z "
     id="path28" />
</svg>
