<?xml version="1.0" encoding="UTF-8" standalone="no"?>
<svg
   xmlns:osb="http://www.openswatchbook.org/uri/2009/osb"
   xmlns:dc="http://purl.org/dc/elements/1.1/"
   xmlns:cc="http://creativecommons.org/ns#"
   xmlns:rdf="http://www.w3.org/1999/02/22-rdf-syntax-ns#"
   xmlns:svg="http://www.w3.org/2000/svg"
   xmlns="http://www.w3.org/2000/svg"
   xmlns:sodipodi="http://sodipodi.sourceforge.net/DTD/sodipodi-0.dtd"
   xmlns:inkscape="http://www.inkscape.org/namespaces/inkscape"
   height="16.000061"
   id="svg7384"
   version="1.1"
   width="15.999999"
   sodipodi:docname="cm_extractfiles.svg"
   inkscape:version="0.92.3 (2405546, 2018-03-11)">
  <sodipodi:namedview
     pagecolor="#ffffff"
     bordercolor="#666666"
     borderopacity="1"
     objecttolerance="10"
     gridtolerance="10"
     guidetolerance="10"
     inkscape:pageopacity="0"
     inkscape:pageshadow="2"
     inkscape:window-width="640"
     inkscape:window-height="480"
     id="namedview23"
     showgrid="false"
     inkscape:zoom="18.24993"
     inkscape:cx="-1.5342834"
     inkscape:cy="7.5616727"
     inkscape:current-layer="svg7384" />
  <metadata
     id="metadata20854">
    <rdf:RDF>
      <cc:Work
         rdf:about="">
        <dc:title />
        <dc:format>image/svg+xml</dc:format>
        <dc:type
           rdf:resource="http://purl.org/dc/dcmitype/StillImage" />
      </cc:Work>
    </rdf:RDF>
  </metadata>
  <defs
     id="defs7386">
    <linearGradient
       id="linearGradient5606"
       osb:paint="solid">
      <stop
         id="stop5608"
         offset="0"
         style="stop-color:#000000;stop-opacity:1;" />
    </linearGradient>
    <linearGradient
       id="linearGradient4526"
       osb:paint="solid">
      <stop
         id="stop4528"
         offset="0"
         style="stop-color:#ffffff;stop-opacity:1;" />
    </linearGradient>
    <linearGradient
       id="linearGradient3600-4"
       osb:paint="gradient">
      <stop
         id="stop3602-7"
         offset="0"
         style="stop-color:#f4f4f4;stop-opacity:1" />
      <stop
         id="stop3604-6"
         offset="1"
         style="stop-color:#dbdbdb;stop-opacity:1" />
    </linearGradient>
  </defs>
  <g
     id="layer9"
     label="status"
     style="display:inline"
     transform="translate(-833.00024,127.00006)" />
  <g
     id="layer2"
     style="display:inline"
     transform="translate(-592.00004,-239.99994)" />
  <g
     id="layer4"
     style="display:inline"
     transform="translate(-592.00004,-239.99994)" />
  <g
     id="g1812"
     style="display:inline"
     transform="translate(-592.00004,-239.99994)" />
  <g
     id="g6217"
     style="display:inline"
     transform="translate(-592.00004,-239.99994)" />
  <g
     id="layer3"
     style="display:inline"
     transform="translate(-592.00004,-239.99994)" />
  <path
     inkscape:connector-curvature="0"
     style="color:#000000;font-style:normal;font-variant:normal;font-weight:normal;font-stretch:normal;font-size:medium;line-height:normal;font-family:sans-serif;font-variant-ligatures:normal;font-variant-position:normal;font-variant-caps:normal;font-variant-numeric:normal;font-variant-alternates:normal;font-feature-settings:normal;text-indent:0;text-align:start;text-decoration:none;text-decoration-line:none;text-decoration-style:solid;text-decoration-color:#000000;letter-spacing:normal;word-spacing:normal;text-transform:none;writing-mode:lr-tb;direction:ltr;text-orientation:mixed;dominant-baseline:auto;baseline-shift:baseline;text-anchor:start;white-space:normal;shape-padding:0;clip-rule:nonzero;display:inline;overflow:visible;visibility:visible;opacity:1;isolation:auto;mix-blend-mode:normal;color-interpolation:sRGB;color-interpolation-filters:linearRGB;solid-color:#000000;solid-opacity:1;vector-effect:none;fill:#4d4d4d;fill-opacity:1;fill-rule:nonzero;stroke:none;stroke-width:1.00000012;stroke-linecap:butt;stroke-linejoin:miter;stroke-miterlimit:4;stroke-dasharray:none;stroke-dashoffset:0;stroke-opacity:1;marker:none;color-rendering:auto;image-rendering:auto;shape-rendering:auto;text-rendering:auto;enable-background:accumulate"
     id="path2420-4"
     d="M 4.9941,6e-5 C 3.7359,0.01456 2.81521,-0.03054 2.06246,0.38483 1.68609,0.59249 1.38923,0.94421 1.22457,1.38287 1.0599,1.82154 0.99996,2.34245 0.99996,3.00006 v 10 c 0,0.65761 0.0599,1.17853 0.22461,1.61719 0.16467,0.43866 0.46152,0.79039 0.83789,0.99804 0.75275,0.41532 1.67345,0.3702 2.93164,0.38477 h 0.004 5.0039 0.004 c 1.25819,-0.0145 2.17889,0.0306 2.93164,-0.38477 0.37637,-0.20766 0.67322,-0.55938 0.83789,-0.99804 0.16449,-0.43867 0.22443,-0.95958 0.22443,-1.61719 v -10 c 0,-0.65761 -0.0599,-1.17852 -0.22461,-1.61719 C 13.61069,0.94421 13.31383,0.59249 12.93746,0.38483 12.18471,-0.03051 11.26402,0.01458 10.00582,6e-5 h -0.004 -5.0039 z m 0.006,1 h 5 c 1.25852,0.0147 2.08717,0.0598 2.45312,0.26172 0.18341,0.1012 0.28916,0.21274 0.38672,0.47266 0.09743,0.25991 0.16002,0.67323 0.16002,1.26562 v 10 c 0,0.59239 -0.0626,1.00572 -0.16016,1.26562 -0.0976,0.25991 -0.20331,0.37147 -0.38672,0.47266 -0.36595,0.20191 -1.1946,0.24701 -2.45312,0.26172 H 5.00582 4.99996 C 3.74143,14.98536 2.91279,14.94026 2.54684,14.73834 2.36343,14.63715 2.25768,14.52559 2.16012,14.26568 2.06255,14.00578 1.99996,13.59245 1.99996,13.00006 v -10 c 0,-0.59239 0.0626,-1.00572 0.16016,-1.26562 C 2.25772,1.47453 2.36343,1.36297 2.54684,1.26178 2.91279,1.05987 3.74143,1.01477 4.99996,1.00006 Z" />
  <path
     inkscape:connector-curvature="0"
     style="opacity:1;fill:#4d4d4d;fill-opacity:1;stroke:none;stroke-width:0.5;stroke-linecap:butt;stroke-linejoin:round;stroke-miterlimit:4;stroke-dasharray:none;stroke-opacity:1"
     id="rect4339"
     d="m 6.25,6.00006 c -0.1385,0 -0.25,0.1115 -0.25,0.25 v 5.50025 c 0,0.1385 0.1115,0.25 0.25,0.25 h 2.5005 c 0.1385,0 0.25,-0.1115 0.25,-0.25 V 6.25006 c 0,-0.1385 -0.1115,-0.25 -0.25,-0.25 z m 0.875,3.99975 h 0.7505 c 0.0693,0 0.125,0.0557 0.125,0.125 v 0.7505 c 0,0.0693 -0.0557,0.125 -0.125,0.125 H 7.125 C 7.0557,11.00031 7,10.94461 7,10.87531 v -0.7505 c 0,-0.0693 0.0557,-0.125 0.125,-0.125 z" />
  <path
     inkscape:connector-curvature="0"
     style="opacity:1;fill:#4d4d4d;fill-opacity:1;stroke:none;stroke-width:0.5;stroke-linecap:butt;stroke-linejoin:round;stroke-miterlimit:4;stroke-dasharray:none;stroke-opacity:1"
     id="rect4362"
     d="m 7,2.00006 v 1 h 1 v -1 z m 0,2 v 1 h 1 v -1 z" />
  <g
     id="layer1"
     style="display:inline"
     transform="translate(-592.00004,-239.99994)" />
</svg>
