<?xml version="1.0" encoding="UTF-8" standalone="no"?>
<svg
   xmlns:osb="http://www.openswatchbook.org/uri/2009/osb"
   xmlns:dc="http://purl.org/dc/elements/1.1/"
   xmlns:cc="http://creativecommons.org/ns#"
   xmlns:rdf="http://www.w3.org/1999/02/22-rdf-syntax-ns#"
   xmlns:svg="http://www.w3.org/2000/svg"
   xmlns="http://www.w3.org/2000/svg"
   xmlns:sodipodi="http://sodipodi.sourceforge.net/DTD/sodipodi-0.dtd"
   xmlns:inkscape="http://www.inkscape.org/namespaces/inkscape"
   height="16"
   id="svg7384"
   version="1.1"
   width="16"
   sodipodi:docname="cm_runtermX.svg"
   inkscape:version="0.92.3 (2405546, 2018-03-11)">
  <sodipodi:namedview
     pagecolor="#ffffff"
     bordercolor="#666666"
     borderopacity="1"
     objecttolerance="10"
     gridtolerance="10"
     guidetolerance="10"
     inkscape:pageopacity="0"
     inkscape:pageshadow="2"
     inkscape:window-width="640"
     inkscape:window-height="480"
     id="namedview21"
     showgrid="true"
     inkscape:zoom="12.904699"
     inkscape:cx="-17.49738"
     inkscape:cy="5.5500998"
     inkscape:current-layer="svg7384">
    <inkscape:grid
       type="xygrid"
       id="grid21" />
  </sodipodi:namedview>
  <metadata
     id="metadata20854">
    <rdf:RDF>
      <cc:Work
         rdf:about="">
        <dc:title></dc:title>
        <dc:format>image/svg+xml</dc:format>
        <dc:type
           rdf:resource="http://purl.org/dc/dcmitype/StillImage" />
      </cc:Work>
    </rdf:RDF>
  </metadata>
  <defs
     id="defs7386">
    <linearGradient
       id="linearGradient5606"
       osb:paint="solid">
      <stop
         id="stop5608"
         offset="0"
         style="stop-color:#000000;stop-opacity:1;" />
    </linearGradient>
    <linearGradient
       id="linearGradient4526"
       osb:paint="solid">
      <stop
         id="stop4528"
         offset="0"
         style="stop-color:#ffffff;stop-opacity:1;" />
    </linearGradient>
    <linearGradient
       id="linearGradient3600-4"
       osb:paint="gradient">
      <stop
         id="stop3602-7"
         offset="0"
         style="stop-color:#f4f4f4;stop-opacity:1" />
      <stop
         id="stop3604-6"
         offset="1"
         style="stop-color:#dbdbdb;stop-opacity:1" />
    </linearGradient>
  </defs>
  <g
     id="layer9"
     label="status"
     style="display:inline"
     transform="translate(-713.00021,207.00006)" />
  <g
     id="layer2"
     style="display:inline"
     transform="translate(-472.00001,-159.99994)" />
  <g
     id="layer4"
     style="display:inline"
     transform="translate(-472.00001,-159.99994)" />
  <g
     id="g1812"
     style="display:inline"
     transform="translate(-472.00001,-159.99994)" />
  <g
     id="g6217"
     style="display:inline"
     transform="translate(-472.00001,-159.99994)" />
  <g
     id="layer3"
     style="display:inline"
     transform="translate(-472.00001,-159.99994)" />
  <path
     inkscape:connector-curvature="0"
     style="color:#000000;font-style:normal;font-variant:normal;font-weight:normal;font-stretch:normal;font-size:medium;line-height:normal;font-family:sans-serif;font-variant-ligatures:normal;font-variant-position:normal;font-variant-caps:normal;font-variant-numeric:normal;font-variant-alternates:normal;font-feature-settings:normal;text-indent:0;text-align:start;text-decoration:none;text-decoration-line:none;text-decoration-style:solid;text-decoration-color:#000000;letter-spacing:normal;word-spacing:normal;text-transform:none;writing-mode:lr-tb;direction:ltr;text-orientation:mixed;dominant-baseline:auto;baseline-shift:baseline;text-anchor:start;white-space:normal;shape-padding:0;clip-rule:nonzero;display:inline;overflow:visible;visibility:visible;opacity:1;isolation:auto;mix-blend-mode:normal;color-interpolation:sRGB;color-interpolation-filters:linearRGB;solid-color:#000000;solid-opacity:1;vector-effect:none;fill:#4d4d4d;fill-opacity:1;fill-rule:nonzero;stroke:none;stroke-width:1.00000012;stroke-linecap:butt;stroke-linejoin:miter;stroke-miterlimit:4;stroke-dasharray:none;stroke-dashoffset:0;stroke-opacity:1;marker:none;color-rendering:auto;image-rendering:auto;shape-rendering:auto;text-rendering:auto;enable-background:accumulate"
     id="path1817"
     d="m 3.99414,2.0000001 c -1.2582,0.0145 -2.17889,-0.0306 -2.93164,0.38477 C 0.68613,2.5924302 0.38927,2.9441502 0.22461,3.3828102 0.05994,3.8214802 0,4.3423902 0,5.0000001 V 12 c 0,0.65761 0.0599,1.17853 0.22461,1.61719 0.16467,0.43866 0.46152,0.79039 0.83789,0.99804 0.75275,0.41532 1.67345,0.3702 2.93164,0.38477 h 0.004 8.0039 0.004 c 1.25819,-0.0145 2.17889,0.0306 2.93164,-0.38477 0.37637,-0.20766 0.67322,-0.55938 0.83789,-0.99804 C 15.9397,13.17852 16,12.65761 16,12 V 5.0000001 c 0,-0.6576099 -0.0599,-1.1785199 -0.22461,-1.6171899 -0.16466,-0.43866 -0.46152,-0.79038 -0.83789,-0.9980401 -0.75275,-0.41534 -1.67344,-0.37025 -2.93164,-0.38477 h -0.004 -8.0039 z m 2.90234,1.0918001 c 1.74896,-0.004 3.49727,-0.001 5.2461,0.0215 0.86117,0.14671 2.16104,-0.34154 2.67383,0.66797 0.25574,2.9239896 0.0694,5.8819697 0.1289,8.8183598 -0.0871,0.38019 -0.18482,1.14361 -0.73047,1.12891 C 10.67843,13.96392 7.12338,13.837 3.58008,13.8633 2.79362,13.75132 1.58017,14.1536 1.17578,13.1719 1.00528,10.7063 1.08698,8.2222599 1.08598,5.7363501 1.20773,4.8953001 0.79,3.6718402 1.77348,3.2246302 c 1.6892,-0.21162 3.40839,-0.0775 5.12304,-0.13281 z M 3.48242,4.9785201 c -0.47384,0.0193 -0.65721,0.62569 -0.27344,0.9042897 l 1.4668,1.0996101 -1.4668,1.09961 c -0.53385,0.40104 0.0677,1.20182 0.60157,0.80078 l 2,-1.5 c 0.26732,-0.2 0.26732,-0.60078 0,-0.80078 l -2,-1.4999997 C 3.71685,5.0098302 3.6006,4.9735202 3.48242,4.9785201 Z m 2.52735,4.0038998 v 1 h 3 v -1 z" />
  <g
     id="layer1"
     style="display:inline"
     transform="translate(-472.00001,-159.99994)" />
</svg>
