<?xml version="1.0" encoding="UTF-8" standalone="no"?>
<svg
   xmlns:dc="http://purl.org/dc/elements/1.1/"
   xmlns:cc="http://creativecommons.org/ns#"
   xmlns:rdf="http://www.w3.org/1999/02/22-rdf-syntax-ns#"
   xmlns:svg="http://www.w3.org/2000/svg"
   xmlns="http://www.w3.org/2000/svg"
   xmlns:sodipodi="http://sodipodi.sourceforge.net/DTD/sodipodi-0.dtd"
   xmlns:inkscape="http://www.inkscape.org/namespaces/inkscape"
   viewBox="0 0 16 16"
   version="1.1"
   id="svg9"
   sodipodi:docname="coordinateX.svg"
   inkscape:version="0.92.3 (2405546, 2018-03-11)"
   width="16"
   height="16">
  <metadata
     id="metadata13">
    <rdf:RDF>
      <cc:Work
         rdf:about="">
        <dc:format>image/svg+xml</dc:format>
        <dc:type
           rdf:resource="http://purl.org/dc/dcmitype/StillImage" />
        <dc:title></dc:title>
      </cc:Work>
    </rdf:RDF>
  </metadata>
  <sodipodi:namedview
     pagecolor="#ffffff"
     bordercolor="#666666"
     borderopacity="1"
     objecttolerance="10"
     gridtolerance="10"
     guidetolerance="10"
     inkscape:pageopacity="0"
     inkscape:pageshadow="2"
     inkscape:window-width="640"
     inkscape:window-height="480"
     id="namedview11"
     showgrid="false"
     inkscape:zoom="12.166667"
     inkscape:cx="-13.068493"
     inkscape:cy="10.684932"
     inkscape:current-layer="svg9" />
  <defs
     id="defs3">
    <style
       id="current-color-scheme"
       type="text/css">
   .ColorScheme-Text { color:#4d4d4d; } .ColorScheme-Highlight { color:#f34f17; }
  </style>
  </defs>
  <g
     id="g17"
     transform="translate(-4,4)">
    <path
       inkscape:connector-curvature="0"
       id="path5"
       d="M 16.78125,-1.4375 12.9375,2.75 l 0.75,0.6875 3.84375,-4.1875 c -0.141664,-0.135392 -0.473397,-0.422808 -0.75,-0.6875 z m -9.5625,0.0625 -0.75,0.6875 3.808594,4.101562 L 11.03125,2.71875 Z M 11.5,6.4375 v 2.125 h 1 v -2.125 c -0.397143,0.0044 -0.704794,6.96e-4 -1,0 z"
       class="ColorScheme-Text"
       style="color:#4d4d4d;fill:currentColor" />
    <path
       inkscape:connector-curvature="0"
       id="path826"
       d="M 5.5,-4 A 1.4999959,1.5 0 0 0 4,-2.5 1.4999959,1.5 0 0 0 5.5,-1 1.4999959,1.5 0 0 0 7,-2.5 1.4999959,1.5 0 0 0 5.5,-4 Z"
       style="fill:#4d4d4d;fill-opacity:1" />
    <path
       inkscape:connector-curvature="0"
       id="path824"
       d="M 18.5,-4 A 1.4999959,1.5 0 0 0 17,-2.5 1.4999959,1.5 0 0 0 18.5,-1 1.4999959,1.5 0 0 0 20,-2.5 1.4999959,1.5 0 0 0 18.5,-4 Z"
       style="fill:#4d4d4d;fill-opacity:1" />
    <path
       inkscape:connector-curvature="0"
       id="path822"
       d="M 12,3 A 1.4999959,1.5 0 0 0 10.5,4.5 1.4999959,1.5 0 0 0 12,6 1.4999959,1.5 0 0 0 13.5,4.5 1.4999959,1.5 0 0 0 12,3 Z"
       style="fill:#4d4d4d;fill-opacity:1" />
    <path
       inkscape:connector-curvature="0"
       id="path7"
       d="M 12,9 A 1.4999959,1.5 0 0 0 10.5,10.5 1.4999959,1.5 0 0 0 12,12 1.4999959,1.5 0 0 0 13.5,10.5 1.4999959,1.5 0 0 0 12,9 Z"
       style="fill:#4d4d4d;fill-opacity:1" />
  </g>
</svg>
