<?xml version="1.0" encoding="UTF-8" standalone="no"?>
<svg
   xmlns:dc="http://purl.org/dc/elements/1.1/"
   xmlns:cc="http://creativecommons.org/ns#"
   xmlns:rdf="http://www.w3.org/1999/02/22-rdf-syntax-ns#"
   xmlns:svg="http://www.w3.org/2000/svg"
   xmlns="http://www.w3.org/2000/svg"
   xmlns:sodipodi="http://sodipodi.sourceforge.net/DTD/sodipodi-0.dtd"
   xmlns:inkscape="http://www.inkscape.org/namespaces/inkscape"
   width="16"
   height="16"
   viewBox="0 0 16 16"
   version="1.1"
   id="svg7"
   sodipodi:docname="debug-step-instruction.svg"
   inkscape:version="0.92.3 (2405546, 2018-03-11)">
  <metadata
     id="metadata11">
    <rdf:RDF>
      <cc:Work
         rdf:about="">
        <dc:format>image/svg+xml</dc:format>
        <dc:type
           rdf:resource="http://purl.org/dc/dcmitype/StillImage" />
      </cc:Work>
    </rdf:RDF>
  </metadata>
  <sodipodi:namedview
     pagecolor="#ffffff"
     bordercolor="#666666"
     borderopacity="1"
     objecttolerance="10"
     gridtolerance="10"
     guidetolerance="10"
     inkscape:pageopacity="0"
     inkscape:pageshadow="2"
     inkscape:window-width="640"
     inkscape:window-height="480"
     id="namedview9"
     showgrid="true"
     inkscape:zoom="25.809398"
     inkscape:cx="0.42372453"
     inkscape:cy="7.1283224"
     inkscape:current-layer="svg7">
    <inkscape:grid
       type="xygrid"
       id="grid13" />
  </sodipodi:namedview>
  <defs
     id="defs3">
    <style
       id="current-color-scheme"
       type="text/css">
   .ColorScheme-Text { color:#444444; } .ColorScheme-Highlight { color:#4285f4; }
  </style>
  </defs>
  <path
     style="fill:#4d4d4d;fill-opacity:1"
     d="M 3.0097656,1 C 0.76106563,1 1.0117188,3 1.0117188,3 V 15 H 15.003906 V 3 c 0,-2 -2,-2 -2,-2 H 11.005859 V 4 H 14 V 14 H 2 V 4 H 5.0097656 V 1 Z"
     id="path25"
     inkscape:connector-curvature="0"
     sodipodi:nodetypes="scccscccccccccs" />
  <path
     style="fill:#4d4d4d;fill-opacity:1"
     d="m 6.0078125,1 2,3 1.9980465,-3 z"
     id="path23" />
  <path
     style="fill:#4d4d4d;fill-opacity:1"
     d="m 6.4355469,6 c -1.0655,0 -1.5117188,0.3522562 -1.5117188,1.2539062 0,0 -0.02445,0.5874338 -0.03125,0.7460938 -0.0462,0.36892 -0.175395,0.6777344 -0.578125,0.6777344 H 4.0097656 v 0.6445312 h 0.3046875 c 0.58855,0 0.609375,0.6442319 0.609375,1.2011724 -0.005,0.17393 0.013578,0.368422 0.017578,0.476562 0.0833,0.71164 0.5369007,1 1.4941407,1 V 11.408203 C 5.9860369,11.408203 5.829155,11.28989 5.765625,11 5.731925,10.88403 5.7284437,10.485582 5.7148438,10.294922 5.7148438,9.8794619 5.5928306,9.2602063 4.9941406,9.0039062 5.4672106,8.8013362 5.6362631,8.37562 5.6894531,8 c 0.0239,-0.10411 0.018591,-0.2223044 0.025391,-0.3027344 0,-0.86631 0.010423,-1.1054687 0.7207031,-1.1054687 z"
     id="path21" />
  <path
     style="fill:#4d4d4d;fill-opacity:1"
     d="M 7.5078125,6 V 7 H 8.5058594 V 6 Z"
     id="path19" />
  <path
     style="fill:#4d4d4d;fill-opacity:1"
     d="m 9.578125,6 v 0.5917969 c 0.71028,0 0.720703,0.2391287 0.720703,1.1054687 0.007,0.0804 0.002,0.1986244 0.02539,0.3027344 0.0532,0.37563 0.224195,0.8013462 0.697265,1.0039062 -0.59869,0.25635 -0.722656,0.8755657 -0.722656,1.2910158 -0.0137,0.19066 -0.01718,0.589108 -0.05078,0.705078 -0.0635,0.28989 -0.220412,0.408203 -0.669922,0.408203 V 12 c 0.95725,0 1.412894,-0.28836 1.496094,-1 0.004,-0.10814 0.02258,-0.302633 0.01758,-0.476562 0,-0.5569105 0.0189,-1.2011724 0.607422,-1.2011724 h 0.304687 V 8.6777344 H 11.699219 C 11.296489,8.6777344 11.169227,8.36892 11.123047,8 11.116047,7.84134 11.091797,7.2539062 11.091797,7.2539062 11.091797,6.3522463 10.643605,6 9.578125,6 Z"
     id="path17" />
  <path
     style="fill:#4d4d4d;fill-opacity:1"
     d="m 7.5078125,8 v 4 H 8.5058594 V 8 Z"
     id="path5" />
</svg>
