<?xml version="1.0" encoding="UTF-8" standalone="no"?>
<svg
   xmlns:dc="http://purl.org/dc/elements/1.1/"
   xmlns:cc="http://creativecommons.org/ns#"
   xmlns:rdf="http://www.w3.org/1999/02/22-rdf-syntax-ns#"
   xmlns:svg="http://www.w3.org/2000/svg"
   xmlns="http://www.w3.org/2000/svg"
   xmlns:sodipodi="http://sodipodi.sourceforge.net/DTD/sodipodi-0.dtd"
   xmlns:inkscape="http://www.inkscape.org/namespaces/inkscape"
   height="16"
   width="16"
   version="1.1"
   id="svg8"
   sodipodi:docname="dialog-input-devices.svg"
   inkscape:version="0.92.3 (2405546, 2018-03-11)">
  <metadata
     id="metadata14">
    <rdf:RDF>
      <cc:Work
         rdf:about="">
        <dc:format>image/svg+xml</dc:format>
        <dc:type
           rdf:resource="http://purl.org/dc/dcmitype/StillImage" />
      </cc:Work>
    </rdf:RDF>
  </metadata>
  <defs
     id="defs12" />
  <sodipodi:namedview
     pagecolor="#ffffff"
     bordercolor="#666666"
     borderopacity="1"
     objecttolerance="10"
     gridtolerance="10"
     guidetolerance="10"
     inkscape:pageopacity="0"
     inkscape:pageshadow="2"
     inkscape:window-width="640"
     inkscape:window-height="480"
     id="namedview10"
     showgrid="false"
     inkscape:zoom="18.25"
     inkscape:cx="-1.5342466"
     inkscape:cy="7.5616438"
     inkscape:current-layer="svg8" />
  <path
     inkscape:connector-curvature="0"
     id="path2"
     overflow="visible"
     font-weight="400"
     style="color:#000000;font-weight:400;line-height:normal;font-family:sans-serif;font-variant-ligatures:normal;font-variant-position:normal;font-variant-caps:normal;font-variant-numeric:normal;font-variant-alternates:normal;font-feature-settings:normal;text-indent:0;text-align:start;text-decoration:none;text-decoration-line:none;text-decoration-style:solid;text-decoration-color:#000000;text-transform:none;text-orientation:mixed;white-space:normal;shape-padding:0;overflow:visible;isolation:auto;mix-blend-mode:normal;fill:#4d4d4d;marker:none;fill-opacity:1"
     d="M 4.994,0 C 3.736,0.015 2.815,-0.03 2.063,0.385 A 1.88,1.88 0 0 0 1.225,1.383 C 1.06,1.822 1,2.343 1,3 v 10 c 0,0.658 0.06,1.179 0.225,1.617 0.164,0.439 0.461,0.79 0.838,0.998 0.752,0.416 1.673,0.37 2.931,0.385 h 5.012 c 1.258,-0.014 2.179,0.03 2.932,-0.385 a 1.88,1.88 0 0 0 0.838,-0.998 C 13.94,14.179 14,13.657 14,13 V 3 C 14,2.342 13.94,1.822 13.775,1.383 A 1.88,1.88 0 0 0 12.938,0.385 C 12.185,-0.03 11.264,0.015 10.006,0 H 4.998 Z M 5,1 h 5 c 1.259,0.015 2.087,0.06 2.453,0.262 0.184,0.101 0.29,0.213 0.387,0.472 C 12.937,1.994 13,2.408 13,3 v 10 c 0,0.592 -0.063,1.006 -0.16,1.266 -0.098,0.26 -0.203,0.371 -0.387,0.472 C 12.087,14.94 11.259,14.985 10,15 H 5 C 3.742,14.985 2.91,14.94 2.545,14.738 2.362,14.638 2.258,14.526 2.16,14.266 2.063,14.006 2,13.592 2,13 V 3 C 2,2.408 2.063,1.994 2.16,1.734 2.258,1.474 2.362,1.363 2.545,1.262 2.91,1.06 3.74,1.015 5,1 Z" />
  <path
     style="fill:#4d4d4d;fill-opacity:1"
     inkscape:connector-curvature="0"
     id="path4"
     d="M 7,3 6,5 H 7 V 9.486 A 8.723,8.723 0 0 0 6.225,9.053 C 5.85,8.865 5.503,8.684 5.289,8.506 5.075,8.328 5,8.208 5,8 A 1,1 0 0 0 6,7 1,1 0 0 0 5,6 1,1 0 0 0 4,7 v 1 c 0,0.542 0.3,0.985 0.648,1.275 0.349,0.29 0.754,0.485 1.13,0.672 0.374,0.188 0.719,0.369 0.933,0.547 C 6.925,10.673 7,10.792 7,11 6.723,11 6.5,11.223 6.5,11.5 v 1 C 6.5,12.777 6.723,13 7,13 h 1 c 0.277,0 0.5,-0.223 0.5,-0.5 v -1 C 8.5,11.223 8.277,11 8,11 V 10 C 8,9.792 8.075,9.673 8.29,9.494 8.503,9.316 8.85,9.134 9.225,8.947 9.6,8.76 10.003,8.566 10.352,8.275 10.7,7.985 11,7.542 11,7 V 5.5 C 11,5.223 10.777,5 10.5,5 h -1 C 9.223,5 9,5.223 9,5.5 v 1 C 9,6.777 9.223,7 9.5,7 H 10 C 10,7.208 9.925,7.328 9.711,7.506 9.497,7.684 9.152,7.866 8.777,8.053 8.521,8.181 8.257,8.323 8,8.486 V 5 H 9 L 8,3 Z" />
</svg>
