<?xml version="1.0" encoding="UTF-8" standalone="no"?>
<svg
   xmlns:dc="http://purl.org/dc/elements/1.1/"
   xmlns:cc="http://creativecommons.org/ns#"
   xmlns:rdf="http://www.w3.org/1999/02/22-rdf-syntax-ns#"
   xmlns:svg="http://www.w3.org/2000/svg"
   xmlns="http://www.w3.org/2000/svg"
   xmlns:sodipodi="http://sodipodi.sourceforge.net/DTD/sodipodi-0.dtd"
   xmlns:inkscape="http://www.inkscape.org/namespaces/inkscape"
   width="16"
   height="16"
   version="1.1"
   viewBox="0 0 16 16"
   id="svg7"
   sodipodi:docname="distribute-vertical-nodeX.svg"
   inkscape:version="0.92.3 (2405546, 2018-03-11)">
  <metadata
     id="metadata11">
    <rdf:RDF>
      <cc:Work
         rdf:about="">
        <dc:format>image/svg+xml</dc:format>
        <dc:type
           rdf:resource="http://purl.org/dc/dcmitype/StillImage" />
        <dc:title></dc:title>
      </cc:Work>
    </rdf:RDF>
  </metadata>
  <sodipodi:namedview
     pagecolor="#ffffff"
     bordercolor="#666666"
     borderopacity="1"
     objecttolerance="10"
     gridtolerance="10"
     guidetolerance="10"
     inkscape:pageopacity="0"
     inkscape:pageshadow="2"
     inkscape:window-width="640"
     inkscape:window-height="480"
     id="namedview9"
     showgrid="false"
     inkscape:zoom="12.166667"
     inkscape:cx="1.2328767"
     inkscape:cy="11.342466"
     inkscape:current-layer="svg7" />
  <defs
     id="defs3">
    <style
       id="current-color-scheme"
       type="text/css">
   .ColorScheme-Text { color:#444444; } .ColorScheme-Highlight { color:#4285f4; }
  </style>
  </defs>
  <path
     style="color:#444444;fill:currentColor"
     class="ColorScheme-Text"
     d="m 0.32590276,-0.00243835 a 0.33332471,0.33333806 0 0 0 -0.2423024,0.5536479 C 0.68826046,1.2568776 1.7843507,1.5979205 3.0706939,1.8734512 3.9819927,2.0686775 4.9919195,2.2189445 5.9978632,2.3710835 v 1.630981 H 7.335737 v 2.000949 H 5.9978632 v 0.96009 c -0.00266,4.38e-4 -0.00515,8e-4 -0.00782,0.0013 -1.4069338,0.23105 -2.8201039,0.532775 -3.939368,1.122928 -1.11939754,0.590154 -1.95523334,1.522814 -2.04654334,2.8919965 -0.036008,0.543617 0.1653071,1.027735 0.5223831,1.384771 0.3570827,0.35699 0.85023244,0.60429 1.43557654,0.798555 1.0798454,0.358323 2.4989725,0.533024 4.0357679,0.673497 v 1.502014 H 7.335733 v 0.664378 h 0.333491 0.333492 v -0.333468 -0.330886 h 1.328756 v -1.198485 c 2.470171,0.241341 4.831293,0.593944 6.150051,1.473354 a 0.33347933,0.333486 0 0 0 0.369966,-0.55495 c -0.726944,-0.484797 -1.66354,-0.811637 -2.700499,-1.053885 h 2.849008 V 13.33722 H 14.332545 9.331476 V 12.004557 H 8.00272 V 9.3366255 h 1.328756 v -1.333966 h 5.001069 1.667457 V 7.3356765 H 14.332545 9.331476 v -0.22667 c 0.236378,-0.0453 0.47224,-0.09056 0.690431,-0.143297 0.566395,-0.136944 1.066055,-0.302341 1.469446,-0.540621 0.403425,-0.238273 0.723811,-0.570051 0.833729,-1.009593 0.140067,-0.558265 0.07216,-1.075937 -0.171957,-1.496804 -0.244782,-0.420866 -0.6427,-0.737502 -1.122928,-0.991355 -0.182086,-0.09638 -0.388569,-0.178133 -0.595334,-0.259238 h 3.897682 1.667457 V 2.0011158 H 9.331476 V 0.66845275 H 8.00272 V 0.33496115 0.00146975 H 7.335737 v 0.3334914 0.3334916 H 5.9978632 V 1.6962838 C 5.0248018,1.5484804 4.0594857,1.4027509 3.210083,1.220798 1.9683608,0.95480515 0.98547176,0.57844875 0.59035106,0.11741015 a 0.33332471,0.33333806 0 0 0 -0.2644483,-0.1198485 z M 14.332545,2.6680985 13.311227,4.0020645 h 0.687826 v 2.000949 H 13.33207 l 1.000475,1.332663 1.000474,-1.332663 h -0.666982 v -2.000949 h 0.646139 z m 0,5.334561 -1.021318,1.333966 h 0.687826 V 12.004557 H 13.33207 l 1.000475,1.332663 1.000474,-1.332663 H 14.666037 V 9.3366255 h 0.646139 z M 9.331476,3.0081035 c 0.532805,0.14607 1.012131,0.311122 1.387376,0.509356 0.410761,0.217037 0.699368,0.464044 0.857177,0.736026 0.157835,0.271989 0.207835,0.5753 0.101611,1.000475 -0.05668,0.227168 -0.216383,0.415633 -0.524989,0.59794 -0.308666,0.1823 -0.754816,0.337673 -1.287068,0.466367 -0.165852,0.0401 -0.353035,0.07482 -0.534107,0.11073 V 6.0030135 H 8.00272 v -2.000949 h 1.328756 z m -3.3336128,4.632405 v 1.696117 H 7.335737 V 12.004557 H 5.9978632 v 1.160707 C 4.4982855,13.025864 3.1326191,12.849666 2.1718303,12.530848 1.6439132,12.355432 1.2416433,12.137307 0.99679386,11.892524 0.75194436,11.647741 0.64504416,11.395133 0.66981586,11.023623 0.74511786,9.8930875 1.3672195,9.2004055 2.3620246,8.6761565 3.3324847,8.1645805 4.6490236,7.8659485 5.9978632,7.6405085 Z"
     id="path5"
     inkscape:connector-curvature="0" />
</svg>
