<?xml version="1.0" encoding="UTF-8" standalone="no"?>
<svg
   xmlns:dc="http://purl.org/dc/elements/1.1/"
   xmlns:cc="http://creativecommons.org/ns#"
   xmlns:rdf="http://www.w3.org/1999/02/22-rdf-syntax-ns#"
   xmlns:svg="http://www.w3.org/2000/svg"
   xmlns="http://www.w3.org/2000/svg"
   xmlns:sodipodi="http://sodipodi.sourceforge.net/DTD/sodipodi-0.dtd"
   xmlns:inkscape="http://www.inkscape.org/namespaces/inkscape"
   viewBox="0 0 16 16"
   version="1.1"
   id="svg9"
   sodipodi:docname="distribute-graph-directedX.svg"
   width="16"
   height="16"
   inkscape:version="0.92.3 (2405546, 2018-03-11)">
  <metadata
     id="metadata13">
    <rdf:RDF>
      <cc:Work
         rdf:about="">
        <dc:format>image/svg+xml</dc:format>
        <dc:type
           rdf:resource="http://purl.org/dc/dcmitype/StillImage" />
        <dc:title></dc:title>
      </cc:Work>
    </rdf:RDF>
  </metadata>
  <sodipodi:namedview
     pagecolor="#ffffff"
     bordercolor="#666666"
     borderopacity="1"
     objecttolerance="10"
     gridtolerance="10"
     guidetolerance="10"
     inkscape:pageopacity="0"
     inkscape:pageshadow="2"
     inkscape:window-width="640"
     inkscape:window-height="480"
     id="namedview11"
     showgrid="false"
     inkscape:zoom="12.166667"
     inkscape:cx="1.2328767"
     inkscape:cy="11.342466"
     inkscape:current-layer="svg9" />
  <defs
     id="defs3">
    <style
       id="current-color-scheme"
       type="text/css">
   .ColorScheme-Text { color:#4d4d4d; } .ColorScheme-Highlight { color:#f34f17; }
  </style>
  </defs>
  <g
     id="g17"
     transform="translate(-4,-4)">
    <path
       id="path5"
       d="m 16.78125,6.5625 -3.84375,4.1875 0.75,0.6875 3.84375,-4.1875 c -0.141664,-0.135392 -0.473397,-0.422808 -0.75,-0.6875 z m -9.5625,0.0625 -0.75,0.6875 3.808594,4.101562 0.753906,-0.695312 z M 11.5,14.4375 v 2.125 h 1 v -2.125 c -0.397143,0.0044 -0.704794,6.96e-4 -1,0 z"
       class="ColorScheme-Text"
       style="color:#4d4d4d;fill:currentColor"
       inkscape:connector-curvature="0" />
    <path
       id="path7"
       d="M 5.5,4 A 1.4999959,1.5 0 0 0 4,5.5 1.4999959,1.5 0 0 0 5.5,7 1.4999959,1.5 0 0 0 7,5.5 1.4999959,1.5 0 0 0 5.5,4 Z m 13,0 A 1.4999959,1.5 0 0 0 17,5.5 1.4999959,1.5 0 0 0 18.5,7 1.4999959,1.5 0 0 0 20,5.5 1.4999959,1.5 0 0 0 18.5,4 Z M 12,11 A 1.4999959,1.5 0 0 0 10.5,12.5 1.4999959,1.5 0 0 0 12,14 1.4999959,1.5 0 0 0 13.5,12.5 1.4999959,1.5 0 0 0 12,11 Z m 0,6 A 1.4999959,1.5 0 0 0 10.5,18.5 1.4999959,1.5 0 0 0 12,20 1.4999959,1.5 0 0 0 13.5,18.5 1.4999959,1.5 0 0 0 12,17 Z"
       class="ColorScheme-Highlight"
       style="color:#f34f17;fill:currentColor"
       inkscape:connector-curvature="0" />
  </g>
</svg>
