<?xml version="1.0" encoding="UTF-8" standalone="no"?>
<svg
   xmlns:dc="http://purl.org/dc/elements/1.1/"
   xmlns:cc="http://creativecommons.org/ns#"
   xmlns:rdf="http://www.w3.org/1999/02/22-rdf-syntax-ns#"
   xmlns:svg="http://www.w3.org/2000/svg"
   xmlns="http://www.w3.org/2000/svg"
   xmlns:sodipodi="http://sodipodi.sourceforge.net/DTD/sodipodi-0.dtd"
   xmlns:inkscape="http://www.inkscape.org/namespaces/inkscape"
   width="16"
   height="16"
   version="1.1"
   viewBox="0 0 16 16"
   id="svg7"
   sodipodi:docname="distribute-horizontal-nodeX.svg"
   inkscape:version="0.92.3 (2405546, 2018-03-11)">
  <metadata
     id="metadata11">
    <rdf:RDF>
      <cc:Work
         rdf:about="">
        <dc:format>image/svg+xml</dc:format>
        <dc:type
           rdf:resource="http://purl.org/dc/dcmitype/StillImage" />
        <dc:title></dc:title>
      </cc:Work>
    </rdf:RDF>
  </metadata>
  <sodipodi:namedview
     pagecolor="#ffffff"
     bordercolor="#666666"
     borderopacity="1"
     objecttolerance="10"
     gridtolerance="10"
     guidetolerance="10"
     inkscape:pageopacity="0"
     inkscape:pageshadow="2"
     inkscape:window-width="640"
     inkscape:window-height="480"
     id="namedview9"
     showgrid="false"
     inkscape:zoom="12.166667"
     inkscape:cx="1.2328767"
     inkscape:cy="11.342466"
     inkscape:current-layer="svg7" />
  <defs
     id="defs3">
    <style
       id="current-color-scheme"
       type="text/css">
   .ColorScheme-Text { color:#444444; } .ColorScheme-Highlight { color:#4285f4; }
  </style>
  </defs>
  <path
     style="color:#444444;fill:currentColor"
     class="ColorScheme-Text"
     d="M 2.0030216,5.9604586e-4 V 6.6683043 H 0.67078209 v 1.329635 h -0.3333854 -0.3333855 v 0.666771 h 0.3333855 0.3333854 V 10.002158 H 1.6982865 c -0.1477097,0.973152 -0.2934663,1.937628 -0.4753347,2.786895 -0.26592831,1.24166 -0.64213831,2.225139 -1.10303701,2.6202 A 0.33323208,0.33330543 0 0 0 1.0439259e-4,15.673617 0.33323208,0.33330543 0 0 0 0.55357629,15.915843 C 1.2590199,15.311082 1.5999545,14.214598 1.8753975,12.928397 2.0705614,12.016921 2.220714,11.008316 2.3728711,10.002158 H 4.0033342 V 8.6647103 H 6.003647 v 1.3374477 h 0.959785 c 4.37e-4,0.0027 8.35e-4,0.0051 0.0013,0.0078 0.230977,1.40682 0.532606,2.818874 1.122571,3.938116 0.589966,1.119241 1.52233,1.955913 2.891078,2.047194 0.543391,0.03601 1.027408,-0.165227 1.384331,-0.522217 0.356876,-0.356989 0.604098,-0.849762 0.798301,-1.43512 0.358723,-1.080169 0.532594,-2.49888 0.673283,-4.035787 h 1.501536 V 8.6646963 h 0.664167 v -0.333371 -0.333386 h -0.333383 -0.330782 v -1.329635 h -1.211126 c 0.06917,-0.7395156 0.145923,-1.4708646 0.250039,-2.1683076 A 0.33323208,0.33330543 0 0 0 14.002293,4.1106137 V 5.9604586e-4 H 13.335522 V 1.6675232 6.6683043 h -1.33224 v 1.329635 H 9.336199 V 6.6683043 H 8.002657 V 1.6675232 5.9604586e-4 H 7.335886 V 1.6675232 6.6683043 H 7.109288 C 7.063948,6.4319343 7.018708,6.1962593 6.966037,5.9780927 6.829349,5.4117377 6.663825,4.9125097 6.425588,4.5091127 6.187417,4.1057167 5.8557175,3.7855337 5.4163155,3.6756497 4.8581616,3.5361607 4.3407203,3.6034497 3.9199879,3.8475517 3.4992554,4.0917227 3.1827206,4.4897147 2.9289476,4.9701227 2.8325996,5.1524847 2.7508718,5.3587687 2.6697925,5.5652677 V 1.6675232 5.9604586e-4 Z M 2.6697925,1.6675232 4.0033342,2.6885157 V 2.0009086 H 6.003647 V 2.6676797 L 7.335886,1.6675232 6.003647,0.66736685 V 1.3341377 H 4.0033342 V 0.68820345 Z m 5.3328645,0 1.333542,1.0209925 V 2.0009086 h 2.667083 v 0.6667711 l 1.33224,-1.0001565 -1.33224,-1.00015635 V 1.3341377 H 9.336199 V 0.68820345 Z M 4.9579106,4.2720967 c 0.092548,0.0078 0.1906648,0.02424 0.2969214,0.05079 0.2270954,0.05668 0.4155011,0.21624 0.5977496,0.524822 0.1822414,0.308648 0.3375654,0.754443 0.4662184,1.2866586 0.04014,0.165826 0.07475,0.352843 0.110695,0.533938 H 6.003647 v 1.329635 H 4.0033342 V 6.6683043 H 3.0109917 C 3.1564144,6.1347543 3.320986,5.6561607 3.5188836,5.2813697 3.7358508,4.8706387 3.9827665,4.5822227 4.2546756,4.4244647 4.4585742,4.3060457 4.6802672,4.2487597 4.9579106,4.2720967 Z M 9.336199,8.6647103 h 2.667083 v 1.3374477 h 1.160338 c -0.139462,1.499435 -0.315517,2.865369 -0.634213,3.826119 -0.175121,0.527883 -0.393417,0.928589 -0.638122,1.173361 -0.244704,0.244838 -0.49768,0.352846 -0.868625,0.328176 C 9.89215,15.254474 9.200222,14.632832 8.67594,13.638143 8.164526,12.667992 7.86599,11.351036 7.640621,10.002158 h 1.695578 z"
     id="path5"
     inkscape:connector-curvature="0" />
</svg>
