<?xml version="1.0" encoding="UTF-8" standalone="no"?>
<svg
   xmlns:dc="http://purl.org/dc/elements/1.1/"
   xmlns:cc="http://creativecommons.org/ns#"
   xmlns:rdf="http://www.w3.org/1999/02/22-rdf-syntax-ns#"
   xmlns:svg="http://www.w3.org/2000/svg"
   xmlns="http://www.w3.org/2000/svg"
   xmlns:sodipodi="http://sodipodi.sourceforge.net/DTD/sodipodi-0.dtd"
   xmlns:inkscape="http://www.inkscape.org/namespaces/inkscape"
   viewBox="0 0 16 16"
   version="1.1"
   id="svg7"
   sodipodi:docname="distribute-horizontal-baselineX.svg"
   width="16"
   height="16"
   inkscape:version="0.92.3 (2405546, 2018-03-11)">
  <metadata
     id="metadata11">
    <rdf:RDF>
      <cc:Work
         rdf:about="">
        <dc:format>image/svg+xml</dc:format>
        <dc:type
           rdf:resource="http://purl.org/dc/dcmitype/StillImage" />
        <dc:title></dc:title>
      </cc:Work>
    </rdf:RDF>
  </metadata>
  <sodipodi:namedview
     pagecolor="#ffffff"
     bordercolor="#666666"
     borderopacity="1"
     objecttolerance="10"
     gridtolerance="10"
     guidetolerance="10"
     inkscape:pageopacity="0"
     inkscape:pageshadow="2"
     inkscape:window-width="640"
     inkscape:window-height="480"
     id="namedview9"
     showgrid="true"
     inkscape:zoom="17.206265"
     inkscape:cx="3.4235575"
     inkscape:cy="10.018428"
     inkscape:current-layer="svg7">
    <inkscape:grid
       type="xygrid"
       id="grid13" />
  </sodipodi:namedview>
  <defs
     id="defs3">
    <style
       id="current-color-scheme"
       type="text/css">
   .ColorScheme-Text { color:#4d4d4d; }
  </style>
  </defs>
  <path
     style="color:#4d4d4d;fill:currentColor"
     class="ColorScheme-Text"
     d="m 3.0214845,0.429688 -3,2 3,2 z m 4,0 v 4 l 2.9999995,-2 z M 3.1367189,5.4589849 C 1.9639815,5.4844647 1.0627583,5.6745774 0.4082033,5.9550786 L 0.77734395,7.21875 C 1.0909812,7.116691 2.2771951,6.759766 2.9726564,6.759766 h 0.095703 C 4.0365519,6.797986 4.1035156,7.12849 4.1035156,7.90625 V 8.212891 L 3.5996095,8.289061 C 1.2541198,8.607823 0,8.875543 0,10.558592 c 0,1.173034 0.91357735,1.900391 2.2363283,1.900391 0.9136461,0 1.5133186,-0.35729 2.1269529,-0.841797 l 0.1914064,0.712891 H 6 V 7.61328 C 6,6.1724983 4.9352161,5.4589829 3.2988282,5.4589829 Z M 9.2636725,7 c 0,1.898501 1.3410985,3.470747 2.3496085,4.435547 -1.19879,1.2178 -2.6769984,1.766469 -5.3808586,2.230469 L 6.5097654,15 C 12.537145,13.9656 15.232422,10.175499 15.232422,7 h -1.476563 c 0,0.923501 -0.466475,2.705979 -1.265625,3.392579 -0.81579,-0.7731 -1.799919,-1.968194 -2.037109,-3.371094 z M 4.1035156,9.207032 v 1.568359 c -0.5045413,0.318763 -0.8864602,0.548828 -1.5410155,0.548828 -0.5863687,0 -0.8730469,-0.345571 -0.8730468,-0.830078 0,-0.918027 0.8601367,-1.070687 1.9101562,-1.210937 z"
     id="path5"
     inkscape:connector-curvature="0" />
</svg>
