<?xml version="1.0" encoding="UTF-8" standalone="no"?>
<svg
   xmlns:dc="http://purl.org/dc/elements/1.1/"
   xmlns:cc="http://creativecommons.org/ns#"
   xmlns:rdf="http://www.w3.org/1999/02/22-rdf-syntax-ns#"
   xmlns:svg="http://www.w3.org/2000/svg"
   xmlns="http://www.w3.org/2000/svg"
   xmlns:sodipodi="http://sodipodi.sourceforge.net/DTD/sodipodi-0.dtd"
   xmlns:inkscape="http://www.inkscape.org/namespaces/inkscape"
   viewBox="0 0 16 16"
   version="1.1"
   id="svg9"
   sodipodi:docname="distribute-graphX.svg"
   width="16"
   height="16"
   inkscape:version="0.92.3 (2405546, 2018-03-11)">
  <metadata
     id="metadata13">
    <rdf:RDF>
      <cc:Work
         rdf:about="">
        <dc:format>image/svg+xml</dc:format>
        <dc:type
           rdf:resource="http://purl.org/dc/dcmitype/StillImage" />
        <dc:title></dc:title>
      </cc:Work>
    </rdf:RDF>
  </metadata>
  <sodipodi:namedview
     pagecolor="#ffffff"
     bordercolor="#666666"
     borderopacity="1"
     objecttolerance="10"
     gridtolerance="10"
     guidetolerance="10"
     inkscape:pageopacity="0"
     inkscape:pageshadow="2"
     inkscape:window-width="640"
     inkscape:window-height="480"
     id="namedview11"
     showgrid="false"
     inkscape:zoom="8.6031325"
     inkscape:cx="10.496513"
     inkscape:cy="6.1278896"
     inkscape:current-layer="svg9" />
  <defs
     id="defs3">
    <style
       id="current-color-scheme"
       type="text/css">
   .ColorScheme-Text { color:#4d4d4d; } .ColorScheme-Highlight { color:#f34f17; }
  </style>
  </defs>
  <path
     style="color:#4d4d4d;fill:currentColor"
     d="m 6.384766,1.6816401 -0.7695316,0.6386719 4.9999996,6 0.769532,-0.638671 z"
     id="path852" />
  <path
     style="color:#4d4d4d;fill:currentColor"
     d="M 14.849609 2.8242188 L 11.583984 7.7226562 L 12.416016 8.2773438 L 15.908203 3.0390625 L 15.429688 3.0390625 C 15.206369 3.0390625 15.012253 2.9512904 14.849609 2.8242188 z "
     id="path850" />
  <path
     style="color:#4d4d4d;fill:currentColor;stroke-width:1"
     d="M 1,5.0220226 V 13.998047 H 2 V 5.0220226 Z"
     id="path848"
     inkscape:connector-curvature="0" />
  <path
     style="color:#4d4d4d;fill:currentColor"
     d="m 0,13.998047 v 1 h 6 v -1 z"
     id="path846" />
  <path
     style="color:#4d4d4d;fill:currentColor"
     d="m 10.609375,8.689453 -4,5 0.78125,0.623047 4,-5 z"
     id="path844" />
  <path
     style="color:#4d4d4d;fill:currentColor"
     d="M 12.390625 8.6894531 L 11.609375 9.3125 L 14.123047 12.455078 C 14.298684 12.246086 14.554007 12.105469 14.849609 12.105469 L 15.123047 12.105469 L 12.390625 8.6894531 z "
     id="path5" />
  <path
     style="color:#4d4d4d;fill:currentColor"
     d="M 4.6875,1.6113281 1.5214844,4.1445312 c 0.4131257,0 0.7853237,0.1657682 1.0566406,0.4335938 L 5.3125,2.390625 Z"
     id="path870"
     inkscape:connector-curvature="0" />
  <path
     style="color:#f34f17;fill:currentColor"
     d="M 5.5,0 A 1.4999959,1.5 0 0 0 4,1.5 1.4999959,1.5 0 0 0 5.5,3 1.4999959,1.5 0 0 0 7,1.5 1.4999959,1.5 0 0 0 5.5,0 Z"
     id="path840" />
  <path
     style="color:#f34f17;fill:currentColor"
     d="M 14.5,2 A 1.4999959,1.5 0 0 0 13,3.5 1.4999959,1.5 0 0 0 14.5,5 1.4999959,1.5 0 0 0 16,3.5 1.4999959,1.5 0 0 0 14.5,2 Z"
     id="path838"
     inkscape:connector-curvature="0" />
  <path
     style="color:#f34f17;fill:currentColor"
     d="M 1.5,3 A 1.4999959,1.5 0 0 0 0,4.5 1.4999959,1.5 0 0 0 1.5,6 1.4999959,1.5 0 0 0 3,4.5 1.4999959,1.5 0 0 0 1.5,3 Z"
     id="path836"
     inkscape:connector-curvature="0" />
  <path
     style="color:#f34f17;fill:currentColor"
     d="M 11.5,7 A 1.4999959,1.5 0 0 0 10,8.5 1.4999959,1.5 0 0 0 11.5,10 1.4999959,1.5 0 0 0 13,8.5 1.4999959,1.5 0 0 0 11.5,7 Z"
     id="path834" />
  <path
     style="color:#f34f17;fill:currentColor"
     d="M 1.5,13 A 1.4999959,1.5 0 0 0 0,14.5 1.4999959,1.5 0 0 0 1.5,16 1.4999959,1.5 0 0 0 3,14.5 1.4999959,1.5 0 0 0 1.5,13 Z"
     id="path832"
     inkscape:connector-curvature="0" />
  <path
     style="color:#f34f17;fill:currentColor"
     d="M 6.5,13 A 1.4999959,1.5 0 0 0 5,14.5 1.4999959,1.5 0 0 0 6.5,16 1.4999959,1.5 0 0 0 8,14.5 1.4999959,1.5 0 0 0 6.5,13 Z"
     id="path830" />
  <path
     style="color:#f34f17;fill:currentColor"
     d="M 14.5,11 A 1.4999959,1.5 0 0 0 13,12.5 1.4999959,1.5 0 0 0 14.5,14 1.4999959,1.5 0 0 0 16,12.5 1.4999959,1.5 0 0 0 14.5,11 Z"
     id="path7"
     inkscape:connector-curvature="0" />
</svg>
