<?xml version="1.0" encoding="UTF-8" standalone="no"?>
<svg
   xmlns:dc="http://purl.org/dc/elements/1.1/"
   xmlns:cc="http://creativecommons.org/ns#"
   xmlns:rdf="http://www.w3.org/1999/02/22-rdf-syntax-ns#"
   xmlns:svg="http://www.w3.org/2000/svg"
   xmlns="http://www.w3.org/2000/svg"
   xmlns:sodipodi="http://sodipodi.sourceforge.net/DTD/sodipodi-0.dtd"
   xmlns:inkscape="http://www.inkscape.org/namespaces/inkscape"
   width="16"
   height="16"
   version="1.1"
   id="svg6"
   sodipodi:docname="document-save-all.svg"
   inkscape:version="0.92.3 (2405546, 2018-03-11)">
  <metadata
     id="metadata12">
    <rdf:RDF>
      <cc:Work
         rdf:about="">
        <dc:format>image/svg+xml</dc:format>
        <dc:type
           rdf:resource="http://purl.org/dc/dcmitype/StillImage" />
      </cc:Work>
    </rdf:RDF>
  </metadata>
  <defs
     id="defs10" />
  <sodipodi:namedview
     pagecolor="#ffffff"
     bordercolor="#666666"
     borderopacity="1"
     objecttolerance="10"
     gridtolerance="10"
     guidetolerance="10"
     inkscape:pageopacity="0"
     inkscape:pageshadow="2"
     inkscape:window-width="640"
     inkscape:window-height="480"
     id="namedview8"
     showgrid="true"
     inkscape:zoom="18.25"
     inkscape:cx="6.4163236"
     inkscape:cy="6.0066575"
     inkscape:current-layer="svg6">
    <inkscape:grid
       type="xygrid"
       id="grid30" />
  </sodipodi:namedview>
  <path
     style="color:#000000;overflow:visible;fill:#4d4d4d"
     d="M 6 0 L 6 5 L 3.84375 5 C 3.84375 5 5.922 10.31225 8 13.15625 C 10.078 10.31225 12.15625 5 12.15625 5 L 10 5 L 10 0 L 6 0 z M 7 1 L 9 1 L 9 6 L 10.587891 6 C 10.117891 6.998 9.4 9.2133125 8 11.320312 C 6.6 9.2133125 5.8196094 6.998 5.3496094 6 L 7 6 L 7 1 z "
     id="path23" />
  <path
     style="color:#000000;overflow:visible;fill:#4d4d4d"
     d="m 12,10 v 1 h 2 v -1 z"
     id="path19" />
  <path
     style="color:#000000;overflow:visible;fill:#4d4d4d"
     d="m 11,12 v 1 h 3 v -1 z"
     id="path17" />
  <path
     style="color:#000000;overflow:visible;fill:#4d4d4d"
     d="m 2,14 v 1 h 12 v -1 z"
     id="path2" />
  <path
     id="path26"
     d="m 13,8 v 1 h 1 V 8 Z"
     style="color:#000000;overflow:visible;fill:#4d4d4d;stroke-width:1"
     inkscape:connector-curvature="0" />
  <path
     inkscape:connector-curvature="0"
     style="color:#000000;overflow:visible;fill:#4d4d4d;stroke-width:1"
     d="m 13,6 v 1 h 1 V 6 Z"
     id="path28" />
</svg>
