<?xml version="1.0" encoding="UTF-8" standalone="no"?>
<svg
   xmlns:dc="http://purl.org/dc/elements/1.1/"
   xmlns:cc="http://creativecommons.org/ns#"
   xmlns:rdf="http://www.w3.org/1999/02/22-rdf-syntax-ns#"
   xmlns:svg="http://www.w3.org/2000/svg"
   xmlns="http://www.w3.org/2000/svg"
   xmlns:sodipodi="http://sodipodi.sourceforge.net/DTD/sodipodi-0.dtd"
   xmlns:inkscape="http://www.inkscape.org/namespaces/inkscape"
   width="16"
   height="16"
   version="1.1"
   id="svg16"
   sodipodi:docname="document-new-from-template.svg"
   inkscape:version="0.92.3 (2405546, 2018-03-11)">
  <metadata
     id="metadata22">
    <rdf:RDF>
      <cc:Work
         rdf:about="">
        <dc:format>image/svg+xml</dc:format>
        <dc:type
           rdf:resource="http://purl.org/dc/dcmitype/StillImage" />
      </cc:Work>
    </rdf:RDF>
  </metadata>
  <defs
     id="defs20" />
  <sodipodi:namedview
     pagecolor="#ffffff"
     bordercolor="#666666"
     borderopacity="1"
     objecttolerance="10"
     gridtolerance="10"
     guidetolerance="10"
     inkscape:pageopacity="0"
     inkscape:pageshadow="2"
     inkscape:window-width="640"
     inkscape:window-height="480"
     id="namedview18"
     showgrid="false"
     inkscape:zoom="18.25"
     inkscape:cx="-1.3150685"
     inkscape:cy="7.5616438"
     inkscape:current-layer="svg16" />
  <path
     inkscape:connector-curvature="0"
     id="path2"
     d="m 4,5 v 1 h 8 V 5 Z"
     style="color:#000000;fill:#4d4d4d" />
  <path
     inkscape:connector-curvature="0"
     id="path4"
     d="m 4,3 v 1 h 8 V 3 Z"
     style="color:#000000;fill:#4d4d4d" />
  <path
     inkscape:connector-curvature="0"
     id="path6"
     d="m 6,9 0.4023339,1 H 7 V 9 Z"
     style="color:#000000;fill:#4d4d4d" />
  <path
     inkscape:connector-curvature="0"
     id="path8"
     d="M 5,7 5.4880003,8 H 12 V 7 Z"
     style="color:#000000;fill:#4d4d4d" />
  <path
     inkscape:connector-curvature="0"
     id="path10"
     d="M 1,0 V 2 H 2 V 1 h 12 v 10 h -4 v 2 2 1 h 0.75 L 15,11.75 V 0 Z M 1,4 V 16 H 1.00391 V 4 Z"
     style="color:#000000;fill:#4d4d4d" />
  <path
     style="fill:#4d4d4d"
     d="m 1.4948988,2.9921871 a 0.50005,0.50005 0 0 0 -0.01758,0.00195 0.50005,0.50005 0 0 0 -0.04883,0.00391 0.50005,0.50005 0 0 0 -0.01758,0.00391 0.50005,0.50005 0 0 0 -0.02148,0.00391 0.50005,0.50005 0 0 0 -0.01172,0.00195 0.50005,0.50005 0 0 0 -0.0293,0.00977 0.50005,0.50005 0 0 0 -0.03516,0.013672 0.50005,0.50005 0 0 0 -0.01563,0.00586 0.50005,0.50005 0 0 0 -0.01367,0.00586 0.50005,0.50005 0 0 0 -0.02734,0.015625 0.50005,0.50005 0 0 0 -0.01563,0.00781 0.50005,0.50005 0 0 0 -0.02734,0.017578 0.50005,0.50005 0 0 0 -0.03906,0.03125 0.50005,0.50005 0 0 0 -0.06836,0.072257 0.50005,0.50005 0 0 0 -0.0293,0.041016 0.50005,0.50005 0 0 0 -0.07422,0.3183594 V 16 h 8.371106 L 1.9577888,3.287109 a 0.50005,0.50005 0 0 0 -0.332031,-0.2773438 0.50005,0.50005 0 0 0 -0.04883,-0.00977 0.50005,0.50005 0 0 0 -0.04883,-0.00586 0.50005,0.50005 0 0 0 -0.0332,-0.00195 z M 2.002711,5.349609 7.6316173,15 H 2.002711 Z"
     id="path14" />
</svg>
