<?xml version="1.0" encoding="UTF-8" standalone="no"?>
<svg
   xmlns:dc="http://purl.org/dc/elements/1.1/"
   xmlns:cc="http://creativecommons.org/ns#"
   xmlns:rdf="http://www.w3.org/1999/02/22-rdf-syntax-ns#"
   xmlns:svg="http://www.w3.org/2000/svg"
   xmlns="http://www.w3.org/2000/svg"
   xmlns:sodipodi="http://sodipodi.sourceforge.net/DTD/sodipodi-0.dtd"
   xmlns:inkscape="http://www.inkscape.org/namespaces/inkscape"
   viewBox="0 0 16 16"
   version="1.1"
   id="svg7"
   sodipodi:docname="draw-spiralX.svg"
   width="16"
   height="16"
   inkscape:version="0.92.3 (2405546, 2018-03-11)">
  <metadata
     id="metadata11">
    <rdf:RDF>
      <cc:Work
         rdf:about="">
        <dc:format>image/svg+xml</dc:format>
        <dc:type
           rdf:resource="http://purl.org/dc/dcmitype/StillImage" />
        <dc:title></dc:title>
      </cc:Work>
    </rdf:RDF>
  </metadata>
  <sodipodi:namedview
     pagecolor="#ffffff"
     bordercolor="#666666"
     borderopacity="1"
     objecttolerance="10"
     gridtolerance="10"
     guidetolerance="10"
     inkscape:pageopacity="0"
     inkscape:pageshadow="2"
     inkscape:window-width="640"
     inkscape:window-height="480"
     id="namedview9"
     showgrid="true"
     inkscape:zoom="12.166667"
     inkscape:cx="1.2328767"
     inkscape:cy="11.342466"
     inkscape:current-layer="svg7">
    <inkscape:grid
       type="xygrid"
       id="grid13" />
  </sodipodi:namedview>
  <defs
     id="defs3">
    <style
       id="current-color-scheme"
       type="text/css">
   .ColorScheme-Text { color:#4d4d4d; }
  </style>
  </defs>
  <path
     class="ColorScheme-Text"
     d="M 8.0371398,0.00208801 C 3.9387437,0.09730101 0.53226524,3.5835442 0.63284334,7.7247439 c 0.0192682,0.793371 0.1732816,1.557646 0.43164056,2.2753911 L 2.1875308,9.6329469 C 1.9660095,9.0313589 1.8313726,8.3906879 1.8105777,7.7247439 1.7011893,4.2216888 4.5756055,1.2660518 8.0371398,1.1641974 11.686785,1.0568035 14.761825,4.0819107 14.861359,7.7247439 14.965948,11.552857 11.82313,14.776843 8.0371398,14.875135 4.8644353,14.957514 2.0965214,12.867227 1.0644839,10.000135 L 3.0835757e-5,10.347791 C 1.1714938,13.736623 4.4592095,16.07335 8.0371398,15.998182 12.437579,15.905682 16.095216,12.168723 15.998078,7.7247439 15.904718,3.4536753 12.310368,-0.09717769 8.0371398,0.00208801 Z M 2.1875308,9.6329469 C 3.0670402,12.021447 5.385586,13.758135 8.0371398,13.668104 11.159898,13.562083 13.748106,10.888547 13.632843,7.7247439 13.524965,4.7634808 11.010777,2.3085511 8.0371398,2.4278693 5.2705713,2.5388782 2.9788732,4.9174473 3.1015933,7.7247439 c 0.023055,0.527344 0.151568,1.026941 0.3339844,1.501953 L 4.832062,8.7716189 C 4.6933357,8.4419779 4.5932642,8.0929359 4.566437,7.7247439 4.4191114,5.7027358 6.0561928,3.9727016 8.0371398,3.8477911 10.256197,3.7078697 12.14742,5.5252831 12.267609,7.7247439 12.400349,10.153801 10.425515,12.218943 8.0371398,12.336073 5.9589726,12.437991 4.1501203,11.08737 3.4355777,9.2266969 Z M 4.832062,8.7716189 C 5.3606409,10.027628 6.6149278,10.924508 8.0371398,10.798963 9.5684488,10.663781 10.830196,9.2982039 10.658234,7.7247439 10.517345,6.4356329 9.3567098,5.3684957 8.0371398,5.5626349 c -1.010114,0.1486156 -1.857236,1.10857 -1.626953,2.162109 0.03568,0.163223 0.106574,0.321844 0.199219,0.466797 l 1.427734,-0.466797 c 0.694606,0 0.433378,0.820433 0,1.011719 -0.55777,0.246187 -1.124078,-0.06982 -1.427734,-0.544922 z"
     id="path5"
     inkscape:connector-curvature="0"
     style="color:#4d4d4d;fill:#4d4d4d" />
</svg>
