<?xml version="1.0" encoding="UTF-8" standalone="no"?>
<svg
   xmlns:dc="http://purl.org/dc/elements/1.1/"
   xmlns:cc="http://creativecommons.org/ns#"
   xmlns:rdf="http://www.w3.org/1999/02/22-rdf-syntax-ns#"
   xmlns:svg="http://www.w3.org/2000/svg"
   xmlns="http://www.w3.org/2000/svg"
   xmlns:sodipodi="http://sodipodi.sourceforge.net/DTD/sodipodi-0.dtd"
   xmlns:inkscape="http://www.inkscape.org/namespaces/inkscape"
   viewBox="0 0 16 16"
   version="1.1"
   id="svg7"
   sodipodi:docname="draw-square-inverted-cornersX.svg"
   width="16"
   height="16"
   inkscape:version="0.92.3 (2405546, 2018-03-11)">
  <metadata
     id="metadata11">
    <rdf:RDF>
      <cc:Work
         rdf:about="">
        <dc:format>image/svg+xml</dc:format>
        <dc:type
           rdf:resource="http://purl.org/dc/dcmitype/StillImage" />
        <dc:title></dc:title>
      </cc:Work>
    </rdf:RDF>
  </metadata>
  <sodipodi:namedview
     pagecolor="#ffffff"
     bordercolor="#666666"
     borderopacity="1"
     objecttolerance="10"
     gridtolerance="10"
     guidetolerance="10"
     inkscape:pageopacity="0"
     inkscape:pageshadow="2"
     inkscape:window-width="640"
     inkscape:window-height="480"
     id="namedview9"
     showgrid="false"
     inkscape:zoom="12.166667"
     inkscape:cx="1.2328767"
     inkscape:cy="11.342466"
     inkscape:current-layer="svg7" />
  <defs
     id="defs3">
    <style
       id="current-color-scheme"
       type="text/css">
   .ColorScheme-Text { color:#4d4d4d; }
  </style>
  </defs>
  <path
     class="ColorScheme-Text"
     d="M 4,0 V 0.5078125 2.5 C 4,3.331 3.331,4 2.5,4 H 0 v 1 6 1 H 2.5 C 3.331,12 4,12.669 4,13.5 V 15.492188 16 h 1 6 1 V 15.492188 13.5 C 12,12.669 12.669,12 13.5,12 H 15.492188 16 V 11 5 4 H 15.492188 13.5 C 12.669,4 12,3.331 12,2.5 V 0 H 11 5 Z m 1,1 h 6 V 2.5 C 11,3.885 12.115,5 13.5,5 H 15 v 6 H 13.5 C 12.115,11 11,12.115 11,13.5 V 15 H 5 V 13.5 C 5,12.115 3.885,11 2.5,11 H 1 V 5 H 2.5 C 3.885,5 5,3.885 5,2.5 Z"
     id="path5"
     inkscape:connector-curvature="0"
     style="color:#4d4d4d;fill:#4d4d4d" />
</svg>
