<?xml version="1.0" encoding="UTF-8" standalone="no"?>
<svg
   xmlns:dc="http://purl.org/dc/elements/1.1/"
   xmlns:cc="http://creativecommons.org/ns#"
   xmlns:rdf="http://www.w3.org/1999/02/22-rdf-syntax-ns#"
   xmlns:svg="http://www.w3.org/2000/svg"
   xmlns="http://www.w3.org/2000/svg"
   xmlns:sodipodi="http://sodipodi.sourceforge.net/DTD/sodipodi-0.dtd"
   xmlns:inkscape="http://www.inkscape.org/namespaces/inkscape"
   viewBox="0 0 16 16"
   version="1.1"
   id="svg7"
   sodipodi:docname="draw-eraserX.svg"
   inkscape:version="0.92.3 (2405546, 2018-03-11)"
   width="16"
   height="16">
  <metadata
     id="metadata11">
    <rdf:RDF>
      <cc:Work
         rdf:about="">
        <dc:format>image/svg+xml</dc:format>
        <dc:type
           rdf:resource="http://purl.org/dc/dcmitype/StillImage" />
        <dc:title></dc:title>
      </cc:Work>
    </rdf:RDF>
  </metadata>
  <sodipodi:namedview
     pagecolor="#ffffff"
     bordercolor="#666666"
     borderopacity="1"
     objecttolerance="10"
     gridtolerance="10"
     guidetolerance="10"
     inkscape:pageopacity="0"
     inkscape:pageshadow="2"
     inkscape:window-width="1920"
     inkscape:window-height="1009"
     id="namedview9"
     showgrid="true"
     inkscape:zoom="17.395834"
     inkscape:cx="-2.850916"
     inkscape:cy="7.3360253"
     inkscape:window-x="0"
     inkscape:window-y="34"
     inkscape:window-maximized="1"
     inkscape:current-layer="svg7">
    <inkscape:grid
       type="xygrid"
       id="grid816" />
  </sodipodi:namedview>
  <defs
     id="defs3">
    <style
       id="current-color-scheme"
       type="text/css">
   .ColorScheme-Text { color:#4d4d4d; }
  </style>
  </defs>
  <path
     style="fill:#4d4d4d;fill-opacity:1;stroke-width:0.03569475"
     d="m 4.0567704,13.897135 c -0.09611,-0.045 -0.722315,-0.64857 -1.915641,-1.84642 -1.53202904,-1.53783 -1.77888004,-1.80019 -1.81715904,-1.931281 -0.0992,-0.3397403 -0.415731,0.004 4.70819404,-5.119489 5.1236256,-5.1236202 4.779572,-4.8072002 5.1194846,-4.7083902 0.132709,0.0386 0.485421,0.37781 2.817133,2.7095299 2.331711,2.3317103 2.670951,2.6844203 2.709527,2.8171303 0.09805,0.337319 0.327497,0.0828 -3.816111,4.233499 -2.6024116,2.606881 -3.8161896,3.799151 -3.9146996,3.845331 -0.133703,0.0627 -0.257355,0.0669 -1.945364,0.0669 -1.687019,0 -1.811739,-0.004 -1.945364,-0.0668 z m 4.283492,-1.93062 0.856237,-0.8568 -2.168292,-2.1682913 -2.168292,-2.16829 -1.597238,1.59724 -1.597238,1.59724 1.427514,1.4278413 1.427514,1.42785 h 1.481779 1.481778 z"
     id="path1425"
     inkscape:connector-curvature="0"
     sodipodi:nodetypes="cccccccccsccccccccccccc" />
  <path
     style="fill:#f34f17;fill-opacity:1;stroke:none;stroke-width:1.06066012px;stroke-linecap:butt;stroke-linejoin:miter;stroke-opacity:1"
     d="m 0,15 v 1 h 16 v -1 z"
     id="path818"
     inkscape:connector-curvature="0" />
</svg>
