<?xml version="1.0" encoding="UTF-8" standalone="no"?>
<svg
   xmlns:dc="http://purl.org/dc/elements/1.1/"
   xmlns:cc="http://creativecommons.org/ns#"
   xmlns:rdf="http://www.w3.org/1999/02/22-rdf-syntax-ns#"
   xmlns:svg="http://www.w3.org/2000/svg"
   xmlns="http://www.w3.org/2000/svg"
   xmlns:sodipodi="http://sodipodi.sourceforge.net/DTD/sodipodi-0.dtd"
   xmlns:inkscape="http://www.inkscape.org/namespaces/inkscape"
   viewBox="0 0 16 16"
   version="1.1"
   id="svg7"
   sodipodi:docname="draw-brushX.svg"
   width="16"
   height="16"
   inkscape:version="0.92.3 (2405546, 2018-03-11)">
  <metadata
     id="metadata11">
    <rdf:RDF>
      <cc:Work
         rdf:about="">
        <dc:format>image/svg+xml</dc:format>
        <dc:type
           rdf:resource="http://purl.org/dc/dcmitype/StillImage" />
        <dc:title></dc:title>
      </cc:Work>
    </rdf:RDF>
  </metadata>
  <sodipodi:namedview
     pagecolor="#ffffff"
     bordercolor="#666666"
     borderopacity="1"
     objecttolerance="10"
     gridtolerance="10"
     guidetolerance="10"
     inkscape:pageopacity="0"
     inkscape:pageshadow="2"
     inkscape:window-width="640"
     inkscape:window-height="480"
     id="namedview9"
     showgrid="false"
     inkscape:zoom="12.166667"
     inkscape:cx="1.2328767"
     inkscape:cy="11.342466"
     inkscape:current-layer="svg7" />
  <defs
     id="defs3">
    <style
       id="current-color-scheme"
       type="text/css">
   .ColorScheme-Text { color:#4d4d4d; }
  </style>
  </defs>
  <path
     class="ColorScheme-Text"
     d="M 15.513275,0.00763896 A 2,9 45 0 0 8.0679623,5.1052953 2,9 45 0 0 4.5249939,9.2185765 c 1.07606,0.34264 1.9151724,1.1817435 2.2578124,2.2578115 A 2,9 45 0 0 10.896087,7.9334205 2,9 45 0 0 15.845306,0.15607646 2,9 45 0 0 15.513275,0.00763896 Z M 3.9996033,10.663888 c -4.00000997826,1.071802 -1,3.603888 -3.99999997826,5.335938 4.00338997826,0 5.99999997826,-2.00082 5.99999997826,-3.335938 0,-0.66488 0.0676,-1.88944 -2,-2 z"
     id="path5"
     inkscape:connector-curvature="0"
     style="color:#4d4d4d;fill:#4d4d4d" />
</svg>
