<?xml version="1.0" encoding="UTF-8" standalone="no"?>
<svg
   xmlns:dc="http://purl.org/dc/elements/1.1/"
   xmlns:cc="http://creativecommons.org/ns#"
   xmlns:rdf="http://www.w3.org/1999/02/22-rdf-syntax-ns#"
   xmlns:svg="http://www.w3.org/2000/svg"
   xmlns="http://www.w3.org/2000/svg"
   xmlns:sodipodi="http://sodipodi.sourceforge.net/DTD/sodipodi-0.dtd"
   xmlns:inkscape="http://www.inkscape.org/namespaces/inkscape"
   width="16"
   height="16"
   version="1.1"
   id="svg8"
   sodipodi:docname="edit-link.svg"
   inkscape:version="0.92.3 (2405546, 2018-03-11)">
  <metadata
     id="metadata14">
    <rdf:RDF>
      <cc:Work
         rdf:about="">
        <dc:format>image/svg+xml</dc:format>
        <dc:type
           rdf:resource="http://purl.org/dc/dcmitype/StillImage" />
      </cc:Work>
    </rdf:RDF>
  </metadata>
  <defs
     id="defs12" />
  <sodipodi:namedview
     pagecolor="#ffffff"
     bordercolor="#666666"
     borderopacity="1"
     objecttolerance="10"
     gridtolerance="10"
     guidetolerance="10"
     inkscape:pageopacity="0"
     inkscape:pageshadow="2"
     inkscape:window-width="640"
     inkscape:window-height="480"
     id="namedview10"
     showgrid="false"
     inkscape:zoom="18.25"
     inkscape:cx="8"
     inkscape:cy="7.5616438"
     inkscape:current-layer="svg8" />
  <path
     style="font-weight:400;font-family:sans-serif;overflow:visible;fill:#4d4d4d"
     inkscape:connector-curvature="0"
     id="path4"
     overflow="visible"
     font-weight="400"
     d="M 2.828,4 C 1.99,4.01 1.361,3.965 0.795,4.277 A 1.44,1.44 0 0 0 0.16,5.029 C 0.04,5.352 0,5.717 0,6.166 V 6.834 C 0,7.284 0.04,7.648 0.16,7.971 0.281,8.293 0.512,8.567 0.795,8.723 1.361,9.035 1.99,8.99 2.828,9 H 4.172 C 5.01,8.99 5.639,9.035 6.205,8.723 6.479,8.572 6.698,8.308 6.822,8 H 2.834 C 1.996,7.99 1.457,7.947 1.277,7.848 1.187,7.798 1.15,7.762 1.096,7.619 1.042,7.476 1,7.218 1,6.834 V 6.166 C 1,5.782 1.042,5.524 1.096,5.381 1.15,5.238 1.187,5.202 1.277,5.152 1.457,5.053 1.997,5.01 2.834,5 H 6.822 A 1.434,1.434 0 0 0 6.205,4.277 C 5.64,3.965 5.01,4.01 4.172,4 h -1.34 z m 9,0 C 10.99,4.01 10.361,3.965 9.795,4.277 9.521,4.428 9.302,4.692 9.178,5 h 3.988 c 0.838,0.01 1.377,0.053 1.557,0.152 0.09,0.05 0.127,0.086 0.181,0.229 C 14.958,5.524 15,5.782 15,6.166 V 6.834 C 15,7.218 14.958,7.476 14.904,7.619 14.85,7.762 14.813,7.798 14.723,7.848 14.543,7.947 14.004,7.99 13.166,8 H 9.178 C 9.302,8.308 9.521,8.572 9.795,8.723 10.361,9.035 10.99,8.99 11.828,9 h 1.344 C 14.01,8.99 14.639,9.035 15.205,8.723 A 1.44,1.44 0 0 0 15.84,7.971 C 15.96,7.648 16,7.283 16,6.834 V 6.166 C 16,5.716 15.961,5.352 15.84,5.029 A 1.44,1.44 0 0 0 15.205,4.277 C 14.64,3.965 14.01,4.01 13.172,4 h -1.34 z M 4,6 v 1 h 8 V 6 Z" />
</svg>
