<?xml version="1.0" encoding="UTF-8" standalone="no"?>
<svg
   xmlns:dc="http://purl.org/dc/elements/1.1/"
   xmlns:cc="http://creativecommons.org/ns#"
   xmlns:rdf="http://www.w3.org/1999/02/22-rdf-syntax-ns#"
   xmlns:svg="http://www.w3.org/2000/svg"
   xmlns="http://www.w3.org/2000/svg"
   xmlns:sodipodi="http://sodipodi.sourceforge.net/DTD/sodipodi-0.dtd"
   xmlns:inkscape="http://www.inkscape.org/namespaces/inkscape"
   viewBox="0 0 16 16"
   version="1.1"
   id="svg9"
   sodipodi:docname="exchange-positions-clockwiseX.svg"
   width="16"
   height="16"
   inkscape:version="0.92.3 (2405546, 2018-03-11)">
  <metadata
     id="metadata13">
    <rdf:RDF>
      <cc:Work
         rdf:about="">
        <dc:format>image/svg+xml</dc:format>
        <dc:type
           rdf:resource="http://purl.org/dc/dcmitype/StillImage" />
        <dc:title></dc:title>
      </cc:Work>
    </rdf:RDF>
  </metadata>
  <sodipodi:namedview
     pagecolor="#ffffff"
     bordercolor="#666666"
     borderopacity="1"
     objecttolerance="10"
     gridtolerance="10"
     guidetolerance="10"
     inkscape:pageopacity="0"
     inkscape:pageshadow="2"
     inkscape:window-width="640"
     inkscape:window-height="480"
     id="namedview11"
     showgrid="false"
     inkscape:zoom="12.166667"
     inkscape:cx="1.2328767"
     inkscape:cy="11.342466"
     inkscape:current-layer="svg9" />
  <defs
     id="defs3">
    <style
       id="current-color-scheme"
       type="text/css">
   .ColorScheme-Text { color:#4d4d4d; } .ColorScheme-Highlight { color:#f34f17; }
  </style>
  </defs>
  <g
     id="g17"
     transform="translate(-4,4)">
    <path
       inkscape:connector-curvature="0"
       id="path5"
       d="m 4,-4 v 7 h 8 v -7 z m 1,1 h 6 V 2 H 5 Z m 8,0.078125 V -1.9101562 1 h 1 V -1.6445312 A 6,6 0 0 1 18,4 h 1 A 7,7 0 0 0 13,-2.921875 Z M 5,4 a 7,7 0 0 0 6,6.921875 V 9.910156 7 H 10 V 9.644531 A 6,6 0 0 1 6,4 Z"
       class="ColorScheme-Text"
       style="color:#4d4d4d;fill:currentColor" />
    <path
       inkscape:connector-curvature="0"
       id="path7"
       d="M 16.5,5 A 3.499991,3.499991 0 0 0 13,8.5 3.499991,3.499991 0 0 0 13.699219,10.59375 L 14.416016,9.876953 A 2.5,2.5 0 0 1 14,8.5 2.5,2.5 0 0 1 16.5,6 2.5,2.5 0 0 1 17.876953,6.416016 L 18.59375,5.699219 A 3.499991,3.499991 0 0 0 16.5,5 Z m 2.800781,1.40625 -0.716797,0.716797 A 2.5,2.5 0 0 1 19,8.5 2.5,2.5 0 0 1 16.5,11 2.5,2.5 0 0 1 15.123047,10.583984 L 14.40625,11.300781 A 3.499991,3.499991 0 0 0 16.5,12 3.499991,3.499991 0 0 0 20,8.5 3.499991,3.499991 0 0 0 19.300781,6.40625 Z"
       class="ColorScheme-Highlight"
       style="color:#f34f17;fill:currentColor" />
  </g>
</svg>
