<?xml version="1.0" encoding="UTF-8" standalone="no"?>
<svg
   xmlns:dc="http://purl.org/dc/elements/1.1/"
   xmlns:cc="http://creativecommons.org/ns#"
   xmlns:rdf="http://www.w3.org/1999/02/22-rdf-syntax-ns#"
   xmlns:svg="http://www.w3.org/2000/svg"
   xmlns="http://www.w3.org/2000/svg"
   xmlns:sodipodi="http://sodipodi.sourceforge.net/DTD/sodipodi-0.dtd"
   xmlns:inkscape="http://www.inkscape.org/namespaces/inkscape"
   viewBox="0 0 16 16"
   version="1.1"
   id="svg9"
   sodipodi:docname="exchange-positions-zorderX.svg"
   width="16"
   height="16"
   inkscape:version="0.92.3 (2405546, 2018-03-11)">
  <metadata
     id="metadata13">
    <rdf:RDF>
      <cc:Work
         rdf:about="">
        <dc:format>image/svg+xml</dc:format>
        <dc:type
           rdf:resource="http://purl.org/dc/dcmitype/StillImage" />
        <dc:title></dc:title>
      </cc:Work>
    </rdf:RDF>
  </metadata>
  <sodipodi:namedview
     pagecolor="#ffffff"
     bordercolor="#666666"
     borderopacity="1"
     objecttolerance="10"
     gridtolerance="10"
     guidetolerance="10"
     inkscape:pageopacity="0"
     inkscape:pageshadow="2"
     inkscape:window-width="640"
     inkscape:window-height="480"
     id="namedview11"
     showgrid="false"
     inkscape:zoom="12.166667"
     inkscape:cx="1.2328767"
     inkscape:cy="11.342466"
     inkscape:current-layer="svg9" />
  <defs
     id="defs3">
    <style
       id="current-color-scheme"
       type="text/css">
   .ColorScheme-Text { color:#4d4d4d; } .ColorScheme-Highlight { color:#f34f17; }
  </style>
  </defs>
  <g
     id="g17"
     transform="translate(-4,-4)">
    <path
       id="path5"
       d="m 4,4 v 7 h 8 V 4 Z m 1,1 h 6 v 5 H 5 Z m 8,0.078125 v 0.9199219 0.091797 2.9082031 h 1 V 6.3554688 A 6,6 0 0 1 18,12 h 1 A 7,7 0 0 0 13,5.078125 Z M 5,12 a 7,7 0 0 0 6,6.921875 v -1.011719 -2.912109 h -1 v 2.646484 A 6,6 0 0 1 6,12 Z"
       class="ColorScheme-Text"
       style="color:#4d4d4d;fill:currentColor"
       inkscape:connector-curvature="0" />
    <path
       id="path7"
       d="M 14,13 13.792969,13.207031 12,15 v 1.414062 l 1.5,-1.5 V 19 h 1 v -4.085938 l 1.5,1.5 V 15 l -1.792969,-1.792969 z m 3.5,1 v 4.085938 l -1.5,-1.5 V 18 L 17.792969,19.792969 18,20 18.207031,19.792969 20,18 v -1.414062 l -1.5,1.5 V 14 Z"
       class="ColorScheme-Highlight"
       style="color:#f34f17;fill:currentColor"
       inkscape:connector-curvature="0" />
  </g>
</svg>
