<?xml version="1.0" encoding="UTF-8" standalone="no"?>
<svg
   xmlns:dc="http://purl.org/dc/elements/1.1/"
   xmlns:cc="http://creativecommons.org/ns#"
   xmlns:rdf="http://www.w3.org/1999/02/22-rdf-syntax-ns#"
   xmlns:svg="http://www.w3.org/2000/svg"
   xmlns="http://www.w3.org/2000/svg"
   xmlns:sodipodi="http://sodipodi.sourceforge.net/DTD/sodipodi-0.dtd"
   xmlns:inkscape="http://www.inkscape.org/namespaces/inkscape"
   width="16"
   height="16"
   version="1.1"
   id="svg7"
   sodipodi:docname="fcitx-rime.svg"
   inkscape:version="0.92.3 (2405546, 2018-03-11)">
  <metadata
     id="metadata11">
    <rdf:RDF>
      <cc:Work
         rdf:about="">
        <dc:format>image/svg+xml</dc:format>
        <dc:type
           rdf:resource="http://purl.org/dc/dcmitype/StillImage" />
      </cc:Work>
    </rdf:RDF>
  </metadata>
  <sodipodi:namedview
     pagecolor="#ffffff"
     bordercolor="#666666"
     borderopacity="1"
     objecttolerance="10"
     gridtolerance="10"
     guidetolerance="10"
     inkscape:pageopacity="0"
     inkscape:pageshadow="2"
     inkscape:window-width="640"
     inkscape:window-height="480"
     id="namedview9"
     showgrid="false"
     inkscape:zoom="9.125"
     inkscape:cx="-9.1349938"
     inkscape:cy="7.0245508"
     inkscape:current-layer="svg7" />
  <defs
     id="defs3">
    <style
       id="current-color-scheme"
       type="text/css">
   .ColorScheme-Text { color:#444444; } .ColorScheme-Highlight { color:#4285f4; }
  </style>
  </defs>
  <path
     style="fill:#4d4d4d;fill-opacity:1"
     d="M 7,2 H 8 V 8.9824 C 9.811,8.9008 10.721,8.3758 11.262,7.4902 11.852,6.525 12,4.9792 12,3 h 1 C 13,5.0208 12.898,6.725 12.113,8.0098 11.387,9.1987 10.05,9.8837 8,9.9805 V 13 h 5 v 1 H 2 V 13 H 7 V 9.9805 C 4.9496,9.8837 3.6133,9.1987 2.8867,8.0098 2.1016,6.725 2,5.0208 2,3 H 3 C 3,4.9792 3.1484,6.525 3.7383,7.4902 4.2795,8.3758 5.189,8.9008 7,8.9824 Z"
     id="path5"
     inkscape:connector-curvature="0" />
</svg>
