<?xml version="1.0" encoding="UTF-8" standalone="no"?>
<svg
   xmlns:dc="http://purl.org/dc/elements/1.1/"
   xmlns:cc="http://creativecommons.org/ns#"
   xmlns:rdf="http://www.w3.org/1999/02/22-rdf-syntax-ns#"
   xmlns:svg="http://www.w3.org/2000/svg"
   xmlns="http://www.w3.org/2000/svg"
   xmlns:sodipodi="http://sodipodi.sourceforge.net/DTD/sodipodi-0.dtd"
   xmlns:inkscape="http://www.inkscape.org/namespaces/inkscape"
   width="16"
   height="16"
   version="1.1"
   id="svg7"
   sodipodi:docname="fcitx-pinyin.svg"
   inkscape:version="0.92.3 (2405546, 2018-03-11)">
  <metadata
     id="metadata11">
    <rdf:RDF>
      <cc:Work
         rdf:about="">
        <dc:format>image/svg+xml</dc:format>
        <dc:type
           rdf:resource="http://purl.org/dc/dcmitype/StillImage" />
      </cc:Work>
    </rdf:RDF>
  </metadata>
  <sodipodi:namedview
     pagecolor="#ffffff"
     bordercolor="#666666"
     borderopacity="1"
     objecttolerance="10"
     gridtolerance="10"
     guidetolerance="10"
     inkscape:pageopacity="0"
     inkscape:pageshadow="2"
     inkscape:window-width="640"
     inkscape:window-height="480"
     id="namedview9"
     showgrid="false"
     inkscape:zoom="18.25"
     inkscape:cx="-1.5342466"
     inkscape:cy="7.5616438"
     inkscape:current-layer="svg7" />
  <defs
     id="defs3">
    <style
       id="current-color-scheme"
       type="text/css">
   .ColorScheme-Text { color:#444444; } .ColorScheme-Highlight { color:#4285f4; }
  </style>
  </defs>
  <path
     style="fill:#4d4d4d;fill-opacity:1"
     d="M 7.9003906 1.6992188 L 7.0996094 2.3007812 L 8.375 4 L 7 4 L 7 5 L 8 5 L 8 8 L 6.1171875 8 L 6.2226562 7.9492188 L 5.7773438 7.0507812 L 5 7.4394531 L 5 5 L 6 5 L 6 4 L 5 4 L 5 2 L 4 2 L 4 4 L 2 4 L 2 5 L 4 5 L 4 7.9394531 L 1.7773438 9.0507812 L 2.2226562 9.9492188 L 4 9.0605469 L 4 13 L 2 13 L 2 14 L 5 14 L 5 8.5605469 L 6 8.0605469 L 6 9 L 7.9609375 9 C 7.8719375 9.9 7.5689687 10.610547 7.1679688 11.310547 C 6.6706687 12.170547 5.6582031 13.136719 5.6582031 13.136719 L 6.3417969 13.865234 C 6.3417969 13.865234 7.4122031 12.880547 8.0332031 11.810547 C 8.4822031 11.030547 8.8629844 10.12 8.9589844 9 L 11 9 L 11 14 L 12 14 L 12 9 L 14 9 L 14 8 L 12 8 L 12 5 L 14 5 L 14 4 L 11.625 4 L 12.900391 2.3007812 L 12.099609 1.6992188 L 10.599609 3.6992188 L 10.998047 4 L 9.0019531 4 L 9.4003906 3.6992188 L 7.9003906 1.6992188 z M 9 5 L 11 5 L 11 8 L 9 8 L 9 5 z "
     id="path15" />
</svg>
