<?xml version="1.0" encoding="UTF-8" standalone="no"?>
<svg
   xmlns:dc="http://purl.org/dc/elements/1.1/"
   xmlns:cc="http://creativecommons.org/ns#"
   xmlns:rdf="http://www.w3.org/1999/02/22-rdf-syntax-ns#"
   xmlns:svg="http://www.w3.org/2000/svg"
   xmlns="http://www.w3.org/2000/svg"
   xmlns:sodipodi="http://sodipodi.sourceforge.net/DTD/sodipodi-0.dtd"
   xmlns:inkscape="http://www.inkscape.org/namespaces/inkscape"
   width="16"
   height="16"
   version="1.1"
   id="svg7"
   sodipodi:docname="fcitx-shuangpin.svg"
   inkscape:version="0.92.3 (2405546, 2018-03-11)">
  <metadata
     id="metadata11">
    <rdf:RDF>
      <cc:Work
         rdf:about="">
        <dc:format>image/svg+xml</dc:format>
        <dc:type
           rdf:resource="http://purl.org/dc/dcmitype/StillImage" />
      </cc:Work>
    </rdf:RDF>
  </metadata>
  <sodipodi:namedview
     pagecolor="#ffffff"
     bordercolor="#666666"
     borderopacity="1"
     objecttolerance="10"
     gridtolerance="10"
     guidetolerance="10"
     inkscape:pageopacity="0"
     inkscape:pageshadow="2"
     inkscape:window-width="640"
     inkscape:window-height="480"
     id="namedview9"
     showgrid="false"
     inkscape:zoom="18.25"
     inkscape:cx="-1.5342466"
     inkscape:cy="7.5616438"
     inkscape:current-layer="svg7" />
  <defs
     id="defs3">
    <style
       id="current-color-scheme"
       type="text/css">
   .ColorScheme-Text { color:#444444; } .ColorScheme-Highlight { color:#4285f4; }
  </style>
  </defs>
  <path
     style="fill:#4d4d4d;fill-opacity:1"
     d="M 2,2 H 7.5488 L 7.498,2.5508 c 0,0 -0.3276,3.5189 -1.2246,6.1289 0.583,0.87 1.1389,1.7693 1.8379,3.0093 L 7.2422,12.18 C 6.7032,11.23 6.2583,10.491 5.8203,9.8105 4.4263,12.931 2.4551,14.293 2.4551,14.293 L 1.8984,13.461 c 0,0 1.9707,-1.31 3.2637,-4.6505 -0.765,-1.11 -1.6347,-2.23 -3.0527,-4 l 0.7812,-0.621 c 1.181,1.47 1.973,2.4911 2.668,3.4511 C 6.1096,5.7406 6.3567,3.64 6.4277,3 H 2 Z"
     id="path17" />
  <path
     style="fill:#4d4d4d;fill-opacity:1"
     d="M 8 2 L 8 3 L 8.5898438 3 C 8.6918438 3.59 9.1423906 6.1398437 9.9003906 8.0898438 C 10.165991 8.7798438 10.449109 9.4396438 10.787109 10.089844 C 9.4992094 12.129844 7.71875 13.228516 7.71875 13.228516 L 8.2363281 14.083984 C 8.2363281 14.083984 9.9466437 13.034781 11.339844 11.050781 C 11.995844 12.070781 12.860578 13.077328 14.142578 14.111328 L 14.769531 13.332031 C 13.385531 12.220031 12.549781 11.189609 11.925781 10.099609 C 12.050781 9.8692094 12.181969 9.6601562 12.292969 9.4101562 C 13.166969 7.4701562 14 4.65 14 2.5 L 14 2 L 8 2 z M 9.6074219 3 L 12.923828 3 C 12.814828 4.85 12.130047 7.3297656 11.373047 9.0097656 C 11.185047 8.5997656 11.006984 8.1804687 10.833984 7.7304688 C 10.175984 6.0304688 9.7474219 3.77 9.6074219 3 z "
     id="path15" />
</svg>
