<?xml version="1.0" encoding="UTF-8" standalone="no"?>
<svg
   xmlns:dc="http://purl.org/dc/elements/1.1/"
   xmlns:cc="http://creativecommons.org/ns#"
   xmlns:rdf="http://www.w3.org/1999/02/22-rdf-syntax-ns#"
   xmlns:svg="http://www.w3.org/2000/svg"
   xmlns="http://www.w3.org/2000/svg"
   xmlns:sodipodi="http://sodipodi.sourceforge.net/DTD/sodipodi-0.dtd"
   xmlns:inkscape="http://www.inkscape.org/namespaces/inkscape"
   width="16"
   height="16"
   version="1.1"
   id="svg8"
   sodipodi:docname="folder-copy.svg"
   inkscape:version="0.92.3 (2405546, 2018-03-11)">
  <metadata
     id="metadata14">
    <rdf:RDF>
      <cc:Work
         rdf:about="">
        <dc:format>image/svg+xml</dc:format>
        <dc:type
           rdf:resource="http://purl.org/dc/dcmitype/StillImage" />
      </cc:Work>
    </rdf:RDF>
  </metadata>
  <defs
     id="defs12" />
  <sodipodi:namedview
     pagecolor="#ffffff"
     bordercolor="#666666"
     borderopacity="1"
     objecttolerance="10"
     gridtolerance="10"
     guidetolerance="10"
     inkscape:pageopacity="0"
     inkscape:pageshadow="2"
     inkscape:window-width="640"
     inkscape:window-height="480"
     id="namedview10"
     showgrid="true"
     inkscape:zoom="12.904699"
     inkscape:cx="-3.5389532"
     inkscape:cy="7.8424401"
     inkscape:current-layer="svg8">
    <inkscape:grid
       type="xygrid"
       id="grid836" />
  </sodipodi:namedview>
  <path
     style="font-weight:400;font-family:sans-serif;overflow:visible;fill:#4d4d4d"
     d="M 2.0957031 5.25 C 2.0575148 5.4807021 2 5.6491388 2 6 C 2 5.6945116 2.0733283 5.500462 2.1035156 5.2480469 C 2.1010981 5.2484638 2.0981366 5.2495968 2.0957031 5.25 z "
     id="path891" />
  <path
     style="font-weight:400;font-family:sans-serif;overflow:visible;fill:#4d4d4d"
     d="M 2.0957031 11.75 C 2.0981368 11.750402 2.101098 11.751537 2.1035156 11.751953 C 2.0735899 11.499767 2 11.305953 2 11 C 2 11.350861 2.0574371 11.519298 2.0957031 11.75 z "
     id="path887" />
  <path
     style="font-weight:400;font-family:sans-serif;overflow:visible;fill:#4d4d4d"
     d="M 3.9941406 1 C 2.7361406 1.015 1.8155 0.9707183 1.0625 1.3867188 A 1.878 1.878 0 0 0 0.22265625 2.3828125 C 0.05965625 2.8198125 -1.2952602e-16 3.343 0 4 L 0 8 L 0 9 C 0 9.658 0.05765595 10.179184 0.22265625 10.617188 C 0.38665625 11.056188 0.6855 11.407234 1.0625 11.615234 C 1.0685395 11.618575 1.0797078 11.616014 1.0859375 11.619141 C 1.0662405 11.404295 1 11.251954 1 11 L 1 10 L 1 9 L 1 8 L 1 6 C 1 5.7484293 1.0659914 5.595865 1.0859375 5.3808594 C 1.0797005 5.3839785 1.0685475 5.3814327 1.0625 5.3847656 C 1.0405 5.3967656 1.022 5.4147344 1 5.4277344 L 1 4 C 1 3.408 1.0621567 2.994375 1.1601562 2.734375 C 1.2581563 2.474375 1.362875 2.3627188 1.546875 2.2617188 C 1.912875 2.0587186 2.7418592 2.015 4.0058594 2 L 5.5664062 2 L 6.5351562 2 L 7.9570312 2 L 6.9453125 1 L 3.9960938 1 L 3.9941406 1 z "
     id="path9" />
  <path
     style="font-weight:400;font-family:sans-serif;overflow:visible;fill:#4d4d4d"
     d="M 5.994141,3 C 4.736141,3.015 3.8155,2.9707185 3.0625,3.3867188 A 1.878,1.878 0 0 0 2.222656,4.3828125 C 2.059656,4.8198125 2,5.343 2,6 v 4 1 c 0,0.658 0.05766,1.179184 0.222656,1.617188 0.164,0.439 0.462844,0.790046 0.839844,0.998046 C 3.8145,14.031234 4.736141,13.985 5.994141,14 H 8.382813 12 v -0.02539 c 0.749663,-0.01777 1.411186,-0.06822 1.9375,-0.359375 0.377,-0.208 0.675844,-0.55905 0.839844,-0.998046 C 14.94234,12.179187 15,11.658 15,11 V 10 8 c 0,-0.658 -0.05766,-1.1791875 -0.222656,-1.6171875 -0.02,-0.055 -0.04822,-0.1042969 -0.07422,-0.1542969 L 14.675781,6.171875 A 1.838,1.838 0 0 0 13.9375,5.3847656 C 13.410753,5.0937607 12.748911,5.0432017 12,5.0253906 V 5 H 10.966797 L 8.945313,3 H 5.996094 Z m 0.01172,1 H 8.535157 L 10.300781,5.7460938 9.033203,7 H 5.994141 C 4.736141,7.014 3.8155,6.9697656 3.0625,7.3847656 3.0405,7.3967656 3.022,7.4147344 3,7.4277344 V 6 C 3,5.408 3.06216,4.994375 3.160156,4.734375 3.258156,4.474375 3.362875,4.3627188 3.546875,4.2617188 3.912875,4.0587186 4.741859,4.015 6.005861,4 Z m 5.458984,2 H 12 v 0.039063 c 0.665112,0.032099 1.201556,0.085639 1.451172,0.2226563 0.183,0.1 0.288719,0.2126562 0.386719,0.4726562 C 13.935891,6.994375 14,7.408 14,8 v 2 1 c 0,0.592 -0.06316,1.005625 -0.160156,1.265625 -0.097,0.26 -0.203719,0.372656 -0.386719,0.472656 C 13.204246,12.87564 12.66644,12.928919 12,12.960938 V 13 H 8.382813 6 C 4.74,12.985 3.912875,12.94028 3.546875,12.738281 c -0.183,-0.1 -0.289718,-0.212656 -0.386719,-0.472656 C 3.063156,12.005625 3,11.592 3,11 V 10 C 3,9.408 3.06411,8.994375 3.162109,8.734375 3.260109,8.474375 3.364828,8.3627187 3.548828,8.2617188 3.915828,8.0587188 4.743813,8.015 6.007813,8 h 3.435546 z"
     id="path893"
     inkscape:connector-curvature="0" />
</svg>
