<?xml version="1.0" encoding="UTF-8" standalone="no"?>
<svg
   xmlns:dc="http://purl.org/dc/elements/1.1/"
   xmlns:cc="http://creativecommons.org/ns#"
   xmlns:rdf="http://www.w3.org/1999/02/22-rdf-syntax-ns#"
   xmlns:svg="http://www.w3.org/2000/svg"
   xmlns="http://www.w3.org/2000/svg"
   xmlns:sodipodi="http://sodipodi.sourceforge.net/DTD/sodipodi-0.dtd"
   xmlns:inkscape="http://www.inkscape.org/namespaces/inkscape"
   width="16"
   height="16"
   version="1.1"
   id="svg8"
   sodipodi:docname="folder-sync.svg"
   inkscape:version="0.92.3 (2405546, 2018-03-11)">
  <metadata
     id="metadata14">
    <rdf:RDF>
      <cc:Work
         rdf:about="">
        <dc:format>image/svg+xml</dc:format>
        <dc:type
           rdf:resource="http://purl.org/dc/dcmitype/StillImage" />
      </cc:Work>
    </rdf:RDF>
  </metadata>
  <defs
     id="defs12" />
  <sodipodi:namedview
     pagecolor="#ffffff"
     bordercolor="#666666"
     borderopacity="1"
     objecttolerance="10"
     gridtolerance="10"
     guidetolerance="10"
     inkscape:pageopacity="0"
     inkscape:pageshadow="2"
     inkscape:window-width="640"
     inkscape:window-height="480"
     id="namedview10"
     showgrid="true"
     inkscape:zoom="9.125"
     inkscape:cx="7.4095569"
     inkscape:cy="3.3586825"
     inkscape:current-layer="svg8">
    <inkscape:grid
       type="xygrid"
       id="grid37" />
  </sodipodi:namedview>
  <path
     style="font-weight:400;font-family:sans-serif;overflow:visible;fill:#4d4d4d"
     d="M 9.6445312 14 L 9.6445312 15 L 10 15 L 10 14 L 9.6445312 14 z "
     id="path35" />
  <path
     style="font-weight:400;font-family:sans-serif;overflow:visible;fill:#4d4d4d"
     d="m 15,8.6582031 h 1 V 12 c 0,0.658 -0.05766,1.179188 -0.222656,1.617188 -0.164,0.439 -0.462844,0.790046 -0.839844,0.998046 C 14.1855,15.031234 13.263859,14.985 12.005859,15 H 6.355469 V 14 H 12 c 1.26,-0.015 2.087125,-0.05972 2.453125,-0.261719 0.183,-0.1 0.289719,-0.212656 0.386719,-0.472656 C 14.936844,13.005625 15,12.592 15,12 Z"
     id="path33"
     inkscape:connector-curvature="0" />
  <path
     style="fill:#4d4d4d;fill-opacity:1"
     d="m 7,7 v 6 H 6 V 10 H 5 Z"
     id="path15"
     inkscape:connector-curvature="0"
     sodipodi:nodetypes="cccccc" />
  <path
     d="M 3.994,1 C 2.736,1.015 1.815,0.971 1.062,1.387 A 1.878,1.878 0 0 0 0.222,2.383 C 0.059,2.82 0,3.343 0,4 v 8 c 0,0.658 0.058,1.179 0.223,1.617 0.164,0.439 0.463,0.79 0.84,0.998 0.752,0.416 1.673,0.37 2.931,0.385 H 10 V 14 H 4 C 2.74,13.985 1.913,13.94 1.547,13.738 1.364,13.638 1.257,13.526 1.16,13.266 1.063,13.006 1,12.592 1,12 V 8 C 1,7.408 1.064,6.994 1.162,6.734 1.26,6.474 1.365,6.363 1.549,6.262 1.916,6.059 2.744,6.015 4.008,6 H 7.443 L 9.465,4 h 2.527 c 1.264,0.015 2.092,0.06 2.46,0.262 0.183,0.1 0.288,0.212 0.386,0.472 C 14.936,4.994 15,5.408 15,6 v 4 h 1 V 6 C 16,5.342 15.942,4.821 15.777,4.383 15.757,4.328 15.729,4.279 15.703,4.229 L 15.676,4.172 A 1.838,1.838 0 0 0 14.938,3.385 C 14.185,2.969 13.264,3.015 12.006,3 H 8.967 L 6.945,1 H 3.996 Z m 0.012,1 h 2.53 L 8.3,3.746 7.033,5 H 3.994 C 2.736,5.014 1.815,4.97 1.062,5.385 1.04,5.397 1.022,5.415 1,5.428 V 4 C 1,3.408 1.062,2.994 1.16,2.734 1.258,2.474 1.363,2.363 1.547,2.262 1.913,2.059 2.742,2.015 4.006,2 Z"
     overflow="visible"
     id="path30"
     inkscape:connector-curvature="0"
     style="font-weight:400;font-family:sans-serif;overflow:visible;fill:#4d4d4d" />
  <path
     sodipodi:nodetypes="cccccc"
     inkscape:connector-curvature="0"
     id="path12"
     d="M 9,13 V 7 h 1 v 3 h 1 z"
     style="fill:#4d4d4d;fill-opacity:1" />
</svg>
