<?xml version="1.0" encoding="UTF-8" standalone="no"?>
<svg
   xmlns:dc="http://purl.org/dc/elements/1.1/"
   xmlns:cc="http://creativecommons.org/ns#"
   xmlns:rdf="http://www.w3.org/1999/02/22-rdf-syntax-ns#"
   xmlns:svg="http://www.w3.org/2000/svg"
   xmlns="http://www.w3.org/2000/svg"
   xmlns:sodipodi="http://sodipodi.sourceforge.net/DTD/sodipodi-0.dtd"
   xmlns:inkscape="http://www.inkscape.org/namespaces/inkscape"
   viewBox="0 0 16 16"
   version="1.1"
   id="svg9"
   sodipodi:docname="format-convert-to-pathX.svg"
   width="16"
   height="16"
   inkscape:version="0.92.3 (2405546, 2018-03-11)">
  <metadata
     id="metadata13">
    <rdf:RDF>
      <cc:Work
         rdf:about="">
        <dc:format>image/svg+xml</dc:format>
        <dc:type
           rdf:resource="http://purl.org/dc/dcmitype/StillImage" />
        <dc:title></dc:title>
      </cc:Work>
    </rdf:RDF>
  </metadata>
  <sodipodi:namedview
     pagecolor="#ffffff"
     bordercolor="#666666"
     borderopacity="1"
     objecttolerance="10"
     gridtolerance="10"
     guidetolerance="10"
     inkscape:pageopacity="0"
     inkscape:pageshadow="2"
     inkscape:window-width="640"
     inkscape:window-height="480"
     id="namedview11"
     showgrid="true"
     inkscape:zoom="12.166667"
     inkscape:cx="14.343784"
     inkscape:cy="1.5292685"
     inkscape:current-layer="svg9">
    <inkscape:grid
       type="xygrid"
       id="grid9" />
  </sodipodi:namedview>
  <defs
     id="defs3">
    <inkscape:path-effect
       effect="spiro"
       id="path-effect36"
       is_visible="true" />
    <style
       id="current-color-scheme"
       type="text/css">
   .ColorScheme-Text { color:#4d4d4d; } .ColorScheme-Highlight { color:#f34f17; }
  </style>
  </defs>
  <path
     style="color:#4d4d4d;fill:currentColor;stroke-width:1"
     class="ColorScheme-Text"
     d="M 4.4709677,0 C 2.4726482,0 1.1893657,3.05944 1,7 H 2 C 2.1556067,3.61217 2.9122746,1 4.4709677,1 6.0296609,1 7.28359,3.61218 7.5,7 h 1 C 8.2561394,3.0594 6.4692954,0 4.4709677,0 Z M 7.5,9 c 0.2469491,3.9976 2.0243912,6.9968 4,7 1.974999,0 3.253125,-3.0036 3.5,-7 h -1 c -0.219714,3.4408 -0.962009,5.9958 -2.5,6 -1.5379894,0 -2.7802859,-2.5592 -3,-6 z"
     id="path5"
     inkscape:connector-curvature="0"
     sodipodi:nodetypes="sccsccsccccccc" />
  <path
     style="color:#f34f17;fill:currentColor"
     d="m 0,6 v 4 H 4 V 6 Z M 1,7 H 3 V 9 H 1 Z"
     id="path27"
     inkscape:connector-curvature="0" />
  <path
     id="path30"
     d="m 6,6 v 4 h 4 V 6 Z M 7,7 H 9 V 9 H 7 Z"
     style="color:#f34f17;fill:currentColor"
     inkscape:connector-curvature="0" />
  <path
     inkscape:connector-curvature="0"
     style="color:#f34f17;fill:currentColor"
     d="m 12,6 v 4 h 4 V 6 Z m 1,1 h 2 v 2 h -2 z"
     id="path32" />
</svg>
