<?xml version="1.0" encoding="UTF-8" standalone="no"?>
<svg
   xmlns:dc="http://purl.org/dc/elements/1.1/"
   xmlns:cc="http://creativecommons.org/ns#"
   xmlns:rdf="http://www.w3.org/1999/02/22-rdf-syntax-ns#"
   xmlns:svg="http://www.w3.org/2000/svg"
   xmlns="http://www.w3.org/2000/svg"
   xmlns:sodipodi="http://sodipodi.sourceforge.net/DTD/sodipodi-0.dtd"
   xmlns:inkscape="http://www.inkscape.org/namespaces/inkscape"
   viewBox="0 0 16 16"
   version="1.1"
   id="svg11"
   sodipodi:docname="format-precision-lessX.svg"
   width="16"
   height="16"
   inkscape:version="0.92.3 (2405546, 2018-03-11)">
  <metadata
     id="metadata15">
    <rdf:RDF>
      <cc:Work
         rdf:about="">
        <dc:format>image/svg+xml</dc:format>
        <dc:type
           rdf:resource="http://purl.org/dc/dcmitype/StillImage" />
        <dc:title />
      </cc:Work>
    </rdf:RDF>
  </metadata>
  <sodipodi:namedview
     pagecolor="#ffffff"
     bordercolor="#666666"
     borderopacity="1"
     objecttolerance="10"
     gridtolerance="10"
     guidetolerance="10"
     inkscape:pageopacity="0"
     inkscape:pageshadow="2"
     inkscape:window-width="640"
     inkscape:window-height="480"
     id="namedview13"
     showgrid="true"
     inkscape:zoom="17.206265"
     inkscape:cx="16.943794"
     inkscape:cy="7.625832"
     inkscape:current-layer="svg11">
    <inkscape:grid
       type="xygrid"
       id="grid11" />
  </sodipodi:namedview>
  <defs
     id="defs3">
    <style
       id="current-color-scheme"
       type="text/css">
   .ColorScheme-Text { color:#4d4d4d; } .ColorScheme-NegativeText { color:#da4453; }
  </style>
  </defs>
  <path
     style="color:#4d4d4d;font-style:normal;font-variant:normal;font-weight:normal;font-stretch:normal;font-size:medium;line-height:normal;font-family:sans-serif;font-variant-ligatures:normal;font-variant-position:normal;font-variant-caps:normal;font-variant-numeric:normal;font-variant-alternates:normal;font-feature-settings:normal;text-indent:0;text-align:start;text-decoration:none;text-decoration-line:none;text-decoration-style:solid;text-decoration-color:#000000;letter-spacing:normal;word-spacing:normal;text-transform:none;writing-mode:lr-tb;direction:ltr;text-orientation:mixed;dominant-baseline:auto;baseline-shift:baseline;text-anchor:start;white-space:normal;shape-padding:0;clip-rule:nonzero;display:inline;overflow:visible;visibility:visible;opacity:1;isolation:auto;mix-blend-mode:normal;color-interpolation:sRGB;color-interpolation-filters:linearRGB;solid-color:#000000;solid-opacity:1;vector-effect:none;fill:#4d4d4d;fill-opacity:1;fill-rule:nonzero;stroke:none;stroke-width:1.00000012;stroke-linecap:butt;stroke-linejoin:miter;stroke-miterlimit:4;stroke-dasharray:none;stroke-dashoffset:0;stroke-opacity:1;color-rendering:auto;image-rendering:auto;shape-rendering:auto;text-rendering:auto;enable-background:accumulate"
     d="M 5,0 C 4.1131153,0 3.3399858,0.52535591 2.8203125,1.28125 2.3006392,2.0371441 2,3.0396928 2,4.1367188 V 5.0449219 6.8632812 C 2,7.9603071 2.3006392,8.9628558 2.8203125,9.71875 3.3399858,10.474644 4.1131152,11 5,11 5.8868848,11 6.6600142,10.474644 7.1796875,9.71875 7.6993608,8.9628558 8,7.9603071 8,6.8632812 V 5.0449219 4.1367188 C 8,3.0396928 7.6993608,2.0371441 7.1796875,1.28125 6.6600142,0.5253559 5.8868848,0 5,0 Z M 5,1 C 5.4938295,1 5.9703207,1.2874367 6.3554688,1.8476562 6.7406168,2.4078758 7,3.225472 7,4.1367188 V 5.0449219 6.8632812 C 7,7.7745279 6.7406168,8.5921241 6.3554688,9.1523438 5.9703207,9.7125634 5.4938295,10 5,10 4.5061706,10 4.0296793,9.7125634 3.6445312,9.1523438 3.2593832,8.5921241 3,7.7745279 3,6.8632812 V 5.0449219 4.1367188 C 3,3.225472 3.2593832,2.4078758 3.6445312,1.8476562 4.0296793,1.2874367 4.5061705,1 5,1 Z"
     id="path32"
     inkscape:connector-curvature="0" />
  <path
     style="color:#4d4d4d;fill:currentColor;stroke-width:1.00000012"
     d="m 0,10 v 1 h 1 v -1 z"
     id="path7"
     inkscape:connector-curvature="0" />
  <path
     style="color:#da4453;fill:currentColor;stroke-width:1.00000012"
     class="ColorScheme-NegativeText"
     d="m 11.375,11.821068 -0.665441,0.696488 1.330882,1.392978 -1.330882,1.392977 L 11.375,16 12.705882,14.607022 14.036764,16 l 0.665442,-0.696489 -1.330883,-1.392977 1.330883,-1.392978 -0.665442,-0.696488 -1.330882,1.392976 z"
     id="path9"
     inkscape:connector-curvature="0" />
  <path
     inkscape:connector-curvature="0"
     id="path843"
     d="M 13,0 C 12.113115,0 11.339986,0.52535591 10.820313,1.28125 10.300639,2.0371441 10,3.0396928 10,4.1367188 V 5.0449219 6.8632812 C 10,7.9603071 10.300639,8.9628558 10.820313,9.71875 11.339986,10.474644 12.113115,11 13,11 13.886885,11 14.660014,10.474644 15.179688,9.71875 15.699361,8.9628558 16,7.9603071 16,6.8632812 V 5.0449219 4.1367188 C 16,3.0396928 15.699361,2.0371441 15.179688,1.28125 14.660014,0.5253559 13.886885,0 13,0 Z m 0,1 c 0.49383,0 0.970321,0.2874367 1.355469,0.8476562 C 14.740617,2.4078758 15,3.225472 15,4.1367188 V 5.0449219 6.8632812 C 15,7.7745279 14.740617,8.5921241 14.355469,9.1523438 13.970321,9.7125634 13.49383,10 13,10 12.506171,10 12.029679,9.7125634 11.644531,9.1523438 11.259383,8.5921241 11,7.7745279 11,6.8632812 V 5.0449219 4.1367188 C 11,3.225472 11.259383,2.4078758 11.644531,1.8476562 12.029679,1.2874367 12.506171,1 13,1 Z"
     style="color:#4d4d4d;font-style:normal;font-variant:normal;font-weight:normal;font-stretch:normal;font-size:medium;line-height:normal;font-family:sans-serif;font-variant-ligatures:normal;font-variant-position:normal;font-variant-caps:normal;font-variant-numeric:normal;font-variant-alternates:normal;font-feature-settings:normal;text-indent:0;text-align:start;text-decoration:none;text-decoration-line:none;text-decoration-style:solid;text-decoration-color:#000000;letter-spacing:normal;word-spacing:normal;text-transform:none;writing-mode:lr-tb;direction:ltr;text-orientation:mixed;dominant-baseline:auto;baseline-shift:baseline;text-anchor:start;white-space:normal;shape-padding:0;clip-rule:nonzero;display:inline;overflow:visible;visibility:visible;opacity:1;isolation:auto;mix-blend-mode:normal;color-interpolation:sRGB;color-interpolation-filters:linearRGB;solid-color:#000000;solid-opacity:1;vector-effect:none;fill:#4c4c4c;fill-opacity:0.50196081;fill-rule:nonzero;stroke:none;stroke-width:1.00000012;stroke-linecap:butt;stroke-linejoin:miter;stroke-miterlimit:4;stroke-dasharray:none;stroke-dashoffset:0;stroke-opacity:1;color-rendering:auto;image-rendering:auto;shape-rendering:auto;text-rendering:auto;enable-background:accumulate" />
</svg>
