<?xml version="1.0" encoding="UTF-8" standalone="no"?>
<svg
   xmlns:dc="http://purl.org/dc/elements/1.1/"
   xmlns:cc="http://creativecommons.org/ns#"
   xmlns:rdf="http://www.w3.org/1999/02/22-rdf-syntax-ns#"
   xmlns:svg="http://www.w3.org/2000/svg"
   xmlns="http://www.w3.org/2000/svg"
   xmlns:sodipodi="http://sodipodi.sourceforge.net/DTD/sodipodi-0.dtd"
   xmlns:inkscape="http://www.inkscape.org/namespaces/inkscape"
   version="1.1"
   viewBox="0 0 16 16"
   id="svg7"
   sodipodi:docname="formulaX.svg"
   inkscape:version="0.92.3 (2405546, 2018-03-11)"
   width="16"
   height="16">
  <metadata
     id="metadata11">
    <rdf:RDF>
      <cc:Work
         rdf:about="">
        <dc:format>image/svg+xml</dc:format>
        <dc:type
           rdf:resource="http://purl.org/dc/dcmitype/StillImage" />
        <dc:title></dc:title>
      </cc:Work>
    </rdf:RDF>
  </metadata>
  <sodipodi:namedview
     pagecolor="#ffffff"
     bordercolor="#666666"
     borderopacity="1"
     objecttolerance="10"
     gridtolerance="10"
     guidetolerance="10"
     inkscape:pageopacity="0"
     inkscape:pageshadow="2"
     inkscape:window-width="640"
     inkscape:window-height="480"
     id="namedview9"
     showgrid="true"
     inkscape:zoom="24.333333"
     inkscape:cx="1.2617178"
     inkscape:cy="8.9044049"
     inkscape:current-layer="svg7">
    <inkscape:grid
       type="xygrid"
       id="grid11" />
  </sodipodi:namedview>
  <defs
     id="defs3">
    <style
       id="current-color-scheme"
       type="text/css">
   .ColorScheme-Text { color:#4d4d4d; }
  </style>
  </defs>
  <path
     style="fill:#4d4d4d;fill-opacity:1;stroke-width:1"
     d="M 3.5 1 C 1.5670034 1 0 2.5670034 0 4.5 C 0 6.4329966 1.5670034 8 3.5 8 C 5.4329966 8 7 6.4329966 7 4.5 C 7 2.5670034 5.4329966 1 3.5 1 z M 3.5 2 C 4.8807118 2 6 3.1192881 6 4.5 C 6 5.8807118 4.8807118 7 3.5 7 C 2.1192881 7 1 5.8807118 1 4.5 C 1 3.1192881 2.1192881 2 3.5 2 z "
     id="path19" />
  <path
     style="fill:#4d4d4d;fill-opacity:1;stroke-width:0.99999994"
     d="M 9 1 L 9 8 L 16 8 L 16 1 L 9 1 z M 10 2 L 15 2 L 15 7 L 10 7 L 10 2 z "
     id="path17" />
  <path
     style="fill:#4d4d4d;fill-opacity:1;stroke-width:1"
     d="M 2 10 L 2 16 L 5 16 L 5 10 L 2 10 z M 3 11 L 4 11 L 4 15 L 3 15 L 3 11 z "
     id="path15" />
  <path
     style="fill:#4d4d4d;fill-opacity:1;stroke-width:1"
     d="M 13 10 L 10 16 L 16 16 L 13 10 z M 13 12 L 14.5 15 L 11.5 15 L 13 12 z "
     id="path5" />
</svg>
