<?xml version="1.0" encoding="UTF-8" standalone="no"?>
<svg
   xmlns:dc="http://purl.org/dc/elements/1.1/"
   xmlns:cc="http://creativecommons.org/ns#"
   xmlns:rdf="http://www.w3.org/1999/02/22-rdf-syntax-ns#"
   xmlns:svg="http://www.w3.org/2000/svg"
   xmlns="http://www.w3.org/2000/svg"
   xmlns:sodipodi="http://sodipodi.sourceforge.net/DTD/sodipodi-0.dtd"
   xmlns:inkscape="http://www.inkscape.org/namespaces/inkscape"
   viewBox="0 0 16 16"
   version="1.1"
   id="svg7"
   sodipodi:docname="format-number-percentX.svg"
   width="16"
   height="16"
   inkscape:version="0.92.3 (2405546, 2018-03-11)">
  <metadata
     id="metadata11">
    <rdf:RDF>
      <cc:Work
         rdf:about="">
        <dc:format>image/svg+xml</dc:format>
        <dc:type
           rdf:resource="http://purl.org/dc/dcmitype/StillImage" />
        <dc:title></dc:title>
      </cc:Work>
    </rdf:RDF>
  </metadata>
  <sodipodi:namedview
     pagecolor="#ffffff"
     bordercolor="#666666"
     borderopacity="1"
     objecttolerance="10"
     gridtolerance="10"
     guidetolerance="10"
     inkscape:pageopacity="0"
     inkscape:pageshadow="2"
     inkscape:window-width="640"
     inkscape:window-height="480"
     id="namedview9"
     showgrid="true"
     inkscape:zoom="12.166667"
     inkscape:cx="-2.3835616"
     inkscape:cy="11.342466"
     inkscape:current-layer="svg7">
    <inkscape:grid
       type="xygrid"
       id="grid831" />
  </sodipodi:namedview>
  <defs
     id="defs3">
    <style
       id="current-color-scheme"
       type="text/css">
   .ColorScheme-Text { color:#4d4d4d; }
  </style>
  </defs>
  <path
     style="color:#4d4d4d;fill:currentColor;stroke-width:1"
     d="M 13.464051,-2.5e-5 1.5,15.256796 l 0.5686039,0.407915 0.3544039,0.260769 0.0039,-0.0037 L 2.5359551,16 14.5,0.7413027 14.032654,0.40602889 13.576992,0.07075508 l -0.0039,0.007449 z"
     id="path21"
     inkscape:connector-curvature="0" />
  <path
     style="color:#4d4d4d;fill:currentColor"
     d="M 3.5 0.99804688 C 1.567 0.99804688 0 2.5650469 0 4.4980469 C 0 6.431047 1.567 7.9980469 3.5 7.9980469 C 5.433 7.9980469 7 6.431047 7 4.4980469 C 7 2.5650469 5.433 0.99804687 3.5 0.99804688 z M 3.5 1.9980469 C 4.88071 1.9980469 6 3.1173369 6 4.4980469 C 6 5.8787569 4.88071 6.9980469 3.5 6.9980469 C 2.11929 6.9980469 1 5.8787569 1 4.4980469 C 1 3.1173369 2.11929 1.9980469 3.5 1.9980469 z "
     id="path19" />
  <path
     style="color:#4d4d4d;fill:currentColor"
     d="M 12.5 8.9980469 C 10.567 8.9980469 9 10.565047 9 12.498047 C 9 14.431047 10.567 15.998047 12.5 15.998047 C 14.433 15.998047 16 14.431047 16 12.498047 C 16 10.565047 14.433 8.9980469 12.5 8.9980469 z M 12.5 9.9980469 C 13.88071 9.9980469 15 11.117337 15 12.498047 C 15 13.878757 13.88071 14.998047 12.5 14.998047 C 11.11929 14.998047 10 13.878757 10 12.498047 C 10 11.117337 11.11929 9.9980469 12.5 9.9980469 z "
     id="path15" />
</svg>
