<?xml version="1.0" encoding="UTF-8" standalone="no"?>
<svg
   xmlns:dc="http://purl.org/dc/elements/1.1/"
   xmlns:cc="http://creativecommons.org/ns#"
   xmlns:rdf="http://www.w3.org/1999/02/22-rdf-syntax-ns#"
   xmlns:svg="http://www.w3.org/2000/svg"
   xmlns="http://www.w3.org/2000/svg"
   xmlns:sodipodi="http://sodipodi.sourceforge.net/DTD/sodipodi-0.dtd"
   xmlns:inkscape="http://www.inkscape.org/namespaces/inkscape"
   viewBox="0 0 16 16"
   version="1.1"
   id="svg7"
   sodipodi:docname="format-text-superscriptX.svg"
   width="16"
   height="16"
   inkscape:version="0.92.3 (2405546, 2018-03-11)">
  <metadata
     id="metadata11">
    <rdf:RDF>
      <cc:Work
         rdf:about="">
        <dc:format>image/svg+xml</dc:format>
        <dc:type
           rdf:resource="http://purl.org/dc/dcmitype/StillImage" />
        <dc:title></dc:title>
      </cc:Work>
    </rdf:RDF>
  </metadata>
  <sodipodi:namedview
     pagecolor="#ffffff"
     bordercolor="#666666"
     borderopacity="1"
     objecttolerance="10"
     gridtolerance="10"
     guidetolerance="10"
     inkscape:pageopacity="0"
     inkscape:pageshadow="2"
     inkscape:window-width="640"
     inkscape:window-height="480"
     id="namedview9"
     showgrid="false"
     inkscape:zoom="12.166667"
     inkscape:cx="1.2328767"
     inkscape:cy="11.342466"
     inkscape:current-layer="svg7" />
  <defs
     id="defs3">
    <style
       id="current-color-scheme"
       type="text/css">
   .ColorScheme-Text { color:#4d4d4d; }
  </style>
  </defs>
  <path
     style="color:#4d4d4d;fill:currentColor"
     class="ColorScheme-Text"
     d="m 11,0 v 2 1 2 1 h 1 2 C 15.108,6 16,5.108 16,4 16,3.1891 15.518727,2.4980937 14.828125,2.1835938 14.934063,1.9776938 15,1.7483 15,1.5 15,0.669 14.330999,0 13.5,0 H 12 Z m 1,1 h 1.5 C 13.777,1 14,1.223 14,1.5 14,1.777 13.777,2 13.5,2 H 12 Z M 5.2167969,2 0,16 H 1.6875 L 3.3554688,11.570312 H 8.917969 L 10.451172,16 h 1.689453 L 7.210938,2 Z M 12,3 h 1.5 0.5 c 0.553999,0 1,0.446 1,1 0,0.554 -0.446001,1 -1,1 H 12 Z M 6.232422,3.6113281 8.361328,10.285156 H 3.8730469 Z"
     id="path5"
     inkscape:connector-curvature="0" />
</svg>
