<?xml version="1.0" encoding="UTF-8" standalone="no"?>
<svg
   xmlns:dc="http://purl.org/dc/elements/1.1/"
   xmlns:cc="http://creativecommons.org/ns#"
   xmlns:rdf="http://www.w3.org/1999/02/22-rdf-syntax-ns#"
   xmlns:svg="http://www.w3.org/2000/svg"
   xmlns="http://www.w3.org/2000/svg"
   xmlns:sodipodi="http://sodipodi.sourceforge.net/DTD/sodipodi-0.dtd"
   xmlns:inkscape="http://www.inkscape.org/namespaces/inkscape"
   viewBox="0 0 16 16"
   version="1.1"
   id="svg9"
   sodipodi:docname="format-node-cornerX.svg"
   width="16"
   height="16"
   inkscape:version="0.92.3 (2405546, 2018-03-11)">
  <metadata
     id="metadata13">
    <rdf:RDF>
      <cc:Work
         rdf:about="">
        <dc:format>image/svg+xml</dc:format>
        <dc:type
           rdf:resource="http://purl.org/dc/dcmitype/StillImage" />
        <dc:title></dc:title>
      </cc:Work>
    </rdf:RDF>
  </metadata>
  <sodipodi:namedview
     pagecolor="#ffffff"
     bordercolor="#666666"
     borderopacity="1"
     objecttolerance="10"
     gridtolerance="10"
     guidetolerance="10"
     inkscape:pageopacity="0"
     inkscape:pageshadow="2"
     inkscape:window-width="640"
     inkscape:window-height="480"
     id="namedview11"
     showgrid="true"
     inkscape:zoom="12.166667"
     inkscape:cx="1.2328767"
     inkscape:cy="11.342466"
     inkscape:current-layer="svg9">
    <inkscape:grid
       type="xygrid"
       id="grid19" />
  </sodipodi:namedview>
  <defs
     id="defs3">
    <style
       id="current-color-scheme"
       type="text/css">
   .ColorScheme-Text { color:#4d4d4d; } .ColorScheme-Highlight { color:#f34f17; }
  </style>
  </defs>
  <g
     id="g17"
     transform="translate(-4,4)">
    <path
       inkscape:connector-curvature="0"
       id="path5"
       d="m 17,-4 v 1 H 6.9121094 C 6.969602,-2.8395376 6.9993244,-2.6704498 7,-2.5 6.9993244,-2.3295502 6.969602,-2.1604624 6.9121094,-2 H 17 v 1 h 3 v -3 z m 1,1 h 1 v 1 H 18 Z M 5,-1.0878906 V 9 H 4 v 3 H 7 V 9 H 6 V -1.0878906 C 5.8395376,-1.030398 5.6704498,-1.0006756 5.5,-1 5.3295502,-1.0006756 5.1604624,-1.030398 5,-1.0878906 Z M 5,10 h 1 v 1 H 5 Z"
       class="ColorScheme-Text"
       style="color:#4d4d4d;fill:currentColor" />
    <path
       inkscape:connector-curvature="0"
       id="path7"
       d="M 5.5,-4 A 1.5,1.5 0 0 0 4,-2.5 1.5,1.5 0 0 0 5.5,-1 1.5,1.5 0 0 0 7,-2.5 1.5,1.5 0 0 0 5.5,-4 Z m 0,1 A 0.5,0.5 0 0 1 6,-2.5 0.5,0.5 0 0 1 5.5,-2 0.5,0.5 0 0 1 5,-2.5 0.5,0.5 0 0 1 5.5,-3 Z"
       class="ColorScheme-Highlight"
       style="color:#f34f17;fill:currentColor" />
  </g>
</svg>
