<?xml version="1.0" encoding="UTF-8" standalone="no"?>
<svg
   xmlns:dc="http://purl.org/dc/elements/1.1/"
   xmlns:cc="http://creativecommons.org/ns#"
   xmlns:rdf="http://www.w3.org/1999/02/22-rdf-syntax-ns#"
   xmlns:svg="http://www.w3.org/2000/svg"
   xmlns="http://www.w3.org/2000/svg"
   xmlns:sodipodi="http://sodipodi.sourceforge.net/DTD/sodipodi-0.dtd"
   xmlns:inkscape="http://www.inkscape.org/namespaces/inkscape"
   viewBox="0 0 16 16"
   version="1.1"
   id="svg9"
   sodipodi:docname="format-connect-nodeX.svg"
   width="16"
   height="16"
   inkscape:version="0.92.3 (2405546, 2018-03-11)">
  <metadata
     id="metadata13">
    <rdf:RDF>
      <cc:Work
         rdf:about="">
        <dc:format>image/svg+xml</dc:format>
        <dc:type
           rdf:resource="http://purl.org/dc/dcmitype/StillImage" />
        <dc:title></dc:title>
      </cc:Work>
    </rdf:RDF>
  </metadata>
  <sodipodi:namedview
     pagecolor="#ffffff"
     bordercolor="#666666"
     borderopacity="1"
     objecttolerance="10"
     gridtolerance="10"
     guidetolerance="10"
     inkscape:pageopacity="0"
     inkscape:pageshadow="2"
     inkscape:window-width="640"
     inkscape:window-height="480"
     id="namedview11"
     showgrid="true"
     inkscape:zoom="12.166667"
     inkscape:cx="1.2328767"
     inkscape:cy="11.342466"
     inkscape:current-layer="svg9">
    <inkscape:grid
       type="xygrid"
       id="grid19" />
  </sodipodi:namedview>
  <defs
     id="defs3">
    <style
       id="current-color-scheme"
       type="text/css">
   .ColorScheme-Text { color:#4d4d4d; } .ColorScheme-Highlight { color:#f34f17; }
  </style>
  </defs>
  <path
     style="color:#4d4d4d;fill:currentColor"
     class="ColorScheme-Text"
     d="M 0,0 V 3 H 3 V 2 H 6 V 1 H 3 V 0 Z m 13,0 v 1 h -3 v 1 h 3 v 1 h 3 V 0 Z M 1,1 H 2 V 2 H 1 Z m 13,0 h 1 V 2 H 14 Z M 0,13 v 3 h 3 v -1 h 3 4 3 v 1 h 3 v -3 h -3 v 1 H 10 6 3 v -1 z m 1,1 h 1 v 1 H 1 Z m 13,0 h 1 v 1 h -1 z"
     id="path5"
     inkscape:connector-curvature="0" />
  <path
     style="color:#f34f17;fill:currentColor"
     class="ColorScheme-Highlight"
     d="m 6,7 2,3 2,-3 z"
     id="path7"
     inkscape:connector-curvature="0" />
</svg>
