<?xml version="1.0" encoding="UTF-8" standalone="no"?>
<svg
   xmlns:dc="http://purl.org/dc/elements/1.1/"
   xmlns:cc="http://creativecommons.org/ns#"
   xmlns:rdf="http://www.w3.org/1999/02/22-rdf-syntax-ns#"
   xmlns:svg="http://www.w3.org/2000/svg"
   xmlns="http://www.w3.org/2000/svg"
   xmlns:sodipodi="http://sodipodi.sourceforge.net/DTD/sodipodi-0.dtd"
   xmlns:inkscape="http://www.inkscape.org/namespaces/inkscape"
   viewBox="0 0 16 16"
   version="1.1"
   id="svg7"
   sodipodi:docname="format-add-nodeX.svg"
   width="16"
   height="16"
   inkscape:version="0.92.3 (2405546, 2018-03-11)">
  <metadata
     id="metadata11">
    <rdf:RDF>
      <cc:Work
         rdf:about="">
        <dc:format>image/svg+xml</dc:format>
        <dc:type
           rdf:resource="http://purl.org/dc/dcmitype/StillImage" />
        <dc:title></dc:title>
      </cc:Work>
    </rdf:RDF>
  </metadata>
  <sodipodi:namedview
     pagecolor="#ffffff"
     bordercolor="#666666"
     borderopacity="1"
     objecttolerance="10"
     gridtolerance="10"
     guidetolerance="10"
     inkscape:pageopacity="0"
     inkscape:pageshadow="2"
     inkscape:window-width="640"
     inkscape:window-height="480"
     id="namedview9"
     showgrid="false"
     inkscape:zoom="12.166667"
     inkscape:cx="1.2328767"
     inkscape:cy="11.342466"
     inkscape:current-layer="svg7" />
  <defs
     id="defs3">
    <style
       id="current-color-scheme"
       type="text/css">
   .ColorScheme-Text { color:#4d4d4d; }
  </style>
  </defs>
  <path
     style="color:#4d4d4d;fill:currentColor"
     class="ColorScheme-Text"
     d="M 1.5,0 C 0.669,0 0,0.669 0,1.5 0,2.1542 0.418077,2.7022031 1,2.9082031 V 13 H 0 v 3 h 3 v -1 h 7 V 14 H 3 V 13 H 2 V 2.9082031 C 2.424456,2.7579031 2.7567461,2.4227 2.9082031,2 H 13 v 1 h 1 v 7 h 1 V 3 h 1 V 0 H 13 V 1 H 2.9082031 C 2.7021971,0.4181 2.15424,0 1.5,0 Z m 0,1 C 1.777,1 2,1.223 2,1.5 2,1.777 1.777,2 1.5,2 1.223,2 1,1.777 1,1.5 1,1.223 1.223,1 1.5,1 Z M 14,1 h 1 v 1 h -1 z m -1,10 v 2 h -2 v 1 h 2 v 2 h 1 v -2 h 2 V 13 H 14 V 11 Z M 1,14 h 1 v 1 H 1 Z"
     id="path5"
     inkscape:connector-curvature="0" />
</svg>
