<?xml version="1.0" encoding="UTF-8" standalone="no"?>
<svg
   xmlns:dc="http://purl.org/dc/elements/1.1/"
   xmlns:cc="http://creativecommons.org/ns#"
   xmlns:rdf="http://www.w3.org/1999/02/22-rdf-syntax-ns#"
   xmlns:svg="http://www.w3.org/2000/svg"
   xmlns="http://www.w3.org/2000/svg"
   xmlns:sodipodi="http://sodipodi.sourceforge.net/DTD/sodipodi-0.dtd"
   xmlns:inkscape="http://www.inkscape.org/namespaces/inkscape"
   width="16"
   height="16"
   version="1.1"
   id="svg12"
   sodipodi:docname="go-home.svg"
   inkscape:version="0.92.3 (2405546, 2018-03-11)">
  <metadata
     id="metadata18">
    <rdf:RDF>
      <cc:Work
         rdf:about="">
        <dc:format>image/svg+xml</dc:format>
        <dc:type
           rdf:resource="http://purl.org/dc/dcmitype/StillImage" />
      </cc:Work>
    </rdf:RDF>
  </metadata>
  <defs
     id="defs16" />
  <sodipodi:namedview
     pagecolor="#ffffff"
     bordercolor="#666666"
     borderopacity="1"
     objecttolerance="10"
     gridtolerance="10"
     guidetolerance="10"
     inkscape:pageopacity="0"
     inkscape:pageshadow="2"
     inkscape:window-width="640"
     inkscape:window-height="480"
     id="namedview14"
     showgrid="false"
     inkscape:zoom="18.25"
     inkscape:cx="-1.3150685"
     inkscape:cy="7.5616438"
     inkscape:current-layer="svg12" />
  <path
     inkscape:connector-curvature="0"
     id="path2"
     style="overflow:visible;fill:#808080;fill-opacity:1"
     overflow="visible"
     d="M 14,5 V 3 h -2.002 z" />
  <path
     inkscape:connector-curvature="0"
     id="path4"
     style="font-weight:400;font-size:15px;font-family:Ubuntu;letter-spacing:0;word-spacing:0;text-anchor:middle;fill:#808080;fill-opacity:1"
     word-spacing="0"
     letter-spacing="0"
     font-weight="400"
     font-size="15"
     d="m 2,7 v 8 h 9 V 14 H 3 V 6.333 Z M 13.002,6 13,15 h 1 V 7 Z" />
  <path
     inkscape:connector-curvature="0"
     id="path6"
     style="font-weight:400;font-family:Ubuntu;letter-spacing:0;word-spacing:0;text-anchor:end;fill:#808080;fill-opacity:1"
     word-spacing="0"
     letter-spacing="0"
     font-weight="400"
     d="M 8,8.986 A 8.47,8.47 0 0 1 8.607,8.864 5.24,5.24 0 0 1 9.479,8.8 c 0.295,0 0.54,0.043 0.735,0.129 0.195,0.08 0.35,0.197 0.465,0.35 0.119,0.147 0.202,0.326 0.25,0.535 0.047,0.21 0.071,0.44 0.071,0.693 V 14.2 H 8 Z" />
  <path
     inkscape:connector-curvature="0"
     id="path8"
     style="font-weight:400;font-family:sans-serif;overflow:visible;fill:#808080;fill-rule:evenodd;fill-opacity:1"
     overflow="visible"
     font-weight="400"
     d="M 8,0.293 0.146,8.146 0.854,8.854 8,1.707 15.146,8.854 15.854,8.146 Z" />
</svg>
