<?xml version="1.0" encoding="UTF-8" standalone="no"?>
<svg
   xmlns:dc="http://purl.org/dc/elements/1.1/"
   xmlns:cc="http://creativecommons.org/ns#"
   xmlns:rdf="http://www.w3.org/1999/02/22-rdf-syntax-ns#"
   xmlns:svg="http://www.w3.org/2000/svg"
   xmlns="http://www.w3.org/2000/svg"
   xmlns:sodipodi="http://sodipodi.sourceforge.net/DTD/sodipodi-0.dtd"
   xmlns:inkscape="http://www.inkscape.org/namespaces/inkscape"
   width="16"
   height="16"
   version="1.1"
   viewBox="0 0 16 16"
   id="svg6"
   sodipodi:docname="im-jabber..svg"
   inkscape:version="0.92.3 (2405546, 2018-03-11)">
  <metadata
     id="metadata12">
    <rdf:RDF>
      <cc:Work
         rdf:about="">
        <dc:format>image/svg+xml</dc:format>
        <dc:type
           rdf:resource="http://purl.org/dc/dcmitype/StillImage" />
      </cc:Work>
    </rdf:RDF>
  </metadata>
  <defs
     id="defs10" />
  <sodipodi:namedview
     pagecolor="#ffffff"
     bordercolor="#666666"
     borderopacity="1"
     objecttolerance="10"
     gridtolerance="10"
     guidetolerance="10"
     inkscape:pageopacity="0"
     inkscape:pageshadow="2"
     inkscape:window-width="640"
     inkscape:window-height="480"
     id="namedview8"
     showgrid="false"
     inkscape:zoom="18.25"
     inkscape:cx="-1.5342466"
     inkscape:cy="7.5616438"
     inkscape:current-layer="svg6" />
  <path
     style="fill:#4d4d4d;fill-opacity:1"
     inkscape:connector-curvature="0"
     id="path2"
     d="M 7.64286,0 C 4.80246,0 2.5,2.30914 2.5,5.15571 2.5,6.8436 3.29443,8.31702 4.54106,9.25714 5.1145,9.6912 5.58893,10.25035 5.58893,11.02178 L 5.64283,12 h 4 l 0.0571,-0.97822 c 0.045,-0.77013 0.4722,-1.33058 1.04461,-1.76464 1.2477,-0.94012 2.0411,-2.41354 2.0411,-4.10143 C 12.78564,2.30914 10.48323,0 7.6427,0 Z m 0,2.06035 c 1.70331,0 3.0857,1.38947 3.0857,3.09536 0,0.97457 -0.4438,1.87149 -1.22142,2.45571 C 8.34692,8.48931 7.9072,9.47005 7.74571,10.28571 H 7.54001 C 7.37954,9.47005 6.93932,8.48931 5.77858,7.61142 5.00304,7.02668 4.55714,6.12977 4.55714,5.15571 c 0,-1.70589 1.38292,-3.09536 3.08572,-3.09536 z M 5.64286,13 v 1 h 4 v -1 z m 1,2 v 1 h 2 v -1 z" />
</svg>
