<?xml version="1.0" encoding="UTF-8" standalone="no"?>
<svg
   xmlns:dc="http://purl.org/dc/elements/1.1/"
   xmlns:cc="http://creativecommons.org/ns#"
   xmlns:rdf="http://www.w3.org/1999/02/22-rdf-syntax-ns#"
   xmlns:svg="http://www.w3.org/2000/svg"
   xmlns="http://www.w3.org/2000/svg"
   xmlns:sodipodi="http://sodipodi.sourceforge.net/DTD/sodipodi-0.dtd"
   xmlns:inkscape="http://www.inkscape.org/namespaces/inkscape"
   width="16"
   height="16"
   version="1.1"
   id="svg10"
   sodipodi:docname="image-adjust-colors.svg"
   inkscape:version="0.92.3 (2405546, 2018-03-11)">
  <metadata
     id="metadata16">
    <rdf:RDF>
      <cc:Work
         rdf:about="">
        <dc:format>image/svg+xml</dc:format>
        <dc:type
           rdf:resource="http://purl.org/dc/dcmitype/StillImage" />
      </cc:Work>
    </rdf:RDF>
  </metadata>
  <defs
     id="defs14" />
  <sodipodi:namedview
     pagecolor="#ffffff"
     bordercolor="#666666"
     borderopacity="1"
     objecttolerance="10"
     gridtolerance="10"
     guidetolerance="10"
     inkscape:pageopacity="0"
     inkscape:pageshadow="2"
     inkscape:window-width="640"
     inkscape:window-height="480"
     id="namedview12"
     showgrid="false"
     inkscape:zoom="18.25"
     inkscape:cx="-1.5342466"
     inkscape:cy="7.5616438"
     inkscape:current-layer="svg10" />
  <path
     style="fill:#4d4d4d;stroke-width:1.04185748"
     inkscape:connector-curvature="0"
     id="path2"
     d="m 13.401973,8.189412 a 3.1255726,3.1255726 0 0 1 1.254291,4.238533 3.1255726,3.1255726 0 0 1 -4.238534,1.25429 A 3.1255726,3.1255726 0 0 1 9.1634401,9.4437021 3.1255726,3.1255726 0 0 1 13.401973,8.189412 Z" />
  <path
     style="opacity:0.5;fill:#4d4d4d;stroke-width:1.04185748"
     inkscape:connector-curvature="0"
     id="path4"
     d="M 5.6846214,8.192032 A 3.1255726,3.1255726 0 0 1 6.9389116,12.430565 3.1255726,3.1255726 0 0 1 2.7003783,13.684855 3.1255726,3.1255726 0 0 1 1.4460881,9.4463221 3.1255726,3.1255726 0 0 1 5.6846214,8.192032 Z" />
  <path
     style="opacity:0.75;fill:#4d4d4d;stroke-width:1.04185748"
     inkscape:connector-curvature="0"
     id="path6"
     d="M 9.6030824,1.367372 A 3.1255726,3.1255726 0 0 1 10.857373,5.6059052 3.1255726,3.1255726 0 0 1 6.6188393,6.8601954 3.1255726,3.1255726 0 0 1 5.3645491,2.6216621 3.1255726,3.1255726 0 0 1 9.6030824,1.367372 Z" />
</svg>
