<?xml version="1.0" encoding="UTF-8" standalone="no"?>
<svg
   xmlns:dc="http://purl.org/dc/elements/1.1/"
   xmlns:cc="http://creativecommons.org/ns#"
   xmlns:rdf="http://www.w3.org/1999/02/22-rdf-syntax-ns#"
   xmlns:svg="http://www.w3.org/2000/svg"
   xmlns="http://www.w3.org/2000/svg"
   xmlns:sodipodi="http://sodipodi.sourceforge.net/DTD/sodipodi-0.dtd"
   xmlns:inkscape="http://www.inkscape.org/namespaces/inkscape"
   width="16"
   height="16.045"
   version="1.1"
   id="svg8"
   sodipodi:docname="mail-open-multiple.svg"
   inkscape:version="0.92.3 (2405546, 2018-03-11)">
  <metadata
     id="metadata14">
    <rdf:RDF>
      <cc:Work
         rdf:about="">
        <dc:format>image/svg+xml</dc:format>
        <dc:type
           rdf:resource="http://purl.org/dc/dcmitype/StillImage" />
      </cc:Work>
    </rdf:RDF>
  </metadata>
  <defs
     id="defs12" />
  <sodipodi:namedview
     pagecolor="#ffffff"
     bordercolor="#666666"
     borderopacity="1"
     objecttolerance="10"
     gridtolerance="10"
     guidetolerance="10"
     inkscape:pageopacity="0"
     inkscape:pageshadow="2"
     inkscape:window-width="640"
     inkscape:window-height="480"
     id="namedview10"
     showgrid="true"
     inkscape:zoom="6.434253"
     inkscape:cx="9.8208395"
     inkscape:cy="4.4593335"
     inkscape:current-layer="svg8">
    <inkscape:grid
       type="xygrid"
       id="grid26" />
  </sodipodi:namedview>
  <path
     style="overflow:visible;fill:#4d4d4d;fill-opacity:1"
     d="m 14.001953,1.6621875 v 0.076172 c 0,-0.027044 0.01263,-0.049955 0.01563,-0.076172 z m -6,0.00781 c -0.03,0 -0.057891,0.00181 -0.087891,0.00781 -0.04001,0.007 -0.07723,0.018156 -0.115234,0.035156 -0.019,0.008 -0.036687,0.017344 -0.054687,0.027344 -0.016,0.01 -0.035782,0.014344 -0.050782,0.027344 L 2.027344,6.1289844 C 1.431588,6.3272508 1,6.8807169 1,7.5450001 V 14.545 c 0,0.831 0.67,1.5 1.5,1.5 H 7 9 13.5 c 0.83,0 1.5,-0.669 1.5,-1.5 v -2.5 -0.0078 -4.4921869 C 15,6.8807299 14.568666,6.3272638 13.972656,6.1289974 L 8.310547,1.7676563 c -0.015,-0.013 -0.033782,-0.017344 -0.050782,-0.027344 -0.018,-0.011 -0.034687,-0.018344 -0.054687,-0.027344 A 0.489,0.489 0 0 0 8.089844,1.6778125 c -0.029,-0.006 -0.057891,-0.00781 -0.087891,-0.00781 z m 0,1.1210937 4.222656,3.2539063 H 3.777344 Z M 2.480469,7.0371875 h 11.042968 c 0.264806,0 0.478516,0.2137097 0.478516,0.4785157 v 7.0429688 c 0,0 -0.002,0.002 -0.002,0.002 a 0.499,0.499 0 0 1 -0.5,0.484375 h -4.5 -2 -4.5 a 0.499,0.499 0 0 1 -0.5,-0.5 V 7.5586719 l 0.00195,0.00195 v -0.044922 c 0,-0.264805 0.21371,-0.4785157 0.478516,-0.4785157 z"
     id="path2"
     inkscape:connector-curvature="0" />
</svg>
