<?xml version="1.0" encoding="UTF-8" standalone="no"?>
<svg
   xmlns:dc="http://purl.org/dc/elements/1.1/"
   xmlns:cc="http://creativecommons.org/ns#"
   xmlns:rdf="http://www.w3.org/1999/02/22-rdf-syntax-ns#"
   xmlns:svg="http://www.w3.org/2000/svg"
   xmlns="http://www.w3.org/2000/svg"
   xmlns:sodipodi="http://sodipodi.sourceforge.net/DTD/sodipodi-0.dtd"
   xmlns:inkscape="http://www.inkscape.org/namespaces/inkscape"
   width="16"
   height="16"
   version="1.1"
   id="svg6"
   sodipodi:docname="mailbox.svg"
   inkscape:version="0.92.3 (2405546, 2018-03-11)">
  <metadata
     id="metadata12">
    <rdf:RDF>
      <cc:Work
         rdf:about="">
        <dc:format>image/svg+xml</dc:format>
        <dc:type
           rdf:resource="http://purl.org/dc/dcmitype/StillImage" />
        <dc:title />
      </cc:Work>
    </rdf:RDF>
  </metadata>
  <defs
     id="defs10" />
  <sodipodi:namedview
     pagecolor="#ffffff"
     bordercolor="#666666"
     borderopacity="1"
     objecttolerance="10"
     gridtolerance="10"
     guidetolerance="10"
     inkscape:pageopacity="0"
     inkscape:pageshadow="2"
     inkscape:window-width="640"
     inkscape:window-height="480"
     id="namedview8"
     showgrid="true"
     inkscape:zoom="18.25"
     inkscape:cx="7.9978671"
     inkscape:cy="2.7412579"
     inkscape:current-layer="svg6">
    <inkscape:grid
       type="xygrid"
       id="grid14" />
  </sodipodi:namedview>
  <path
     style="overflow:visible;fill:#4d4d4d;stroke-width:1.23208356"
     d="M 2.75,0.99999604 C 1.7816667,0.99999604 1,1.8362461 1,2.8749961 V 14.124997 c 0,1.038749 0.7816667,1.874999 1.75,1.874999 h 10.5 c 0.9695,0 1.75,-0.83625 1.75,-1.874999 V 2.8749961 c 0,-1.03875 -0.7805,-1.87500006 -1.75,-1.87500006 h -2.4885 l 0.970667,1.25000006 h 0.9345 c 0.646333,0 1.166667,0.5575 1.166667,1.2500001 v 7.5000008 h -3.5 c 0,1.385 -1.0406672,2.5 -2.3333339,2.5 -1.2926666,0 -2.3333333,-1.115 -2.3333333,-2.5 H 2.1666667 V 3.4999962 c 0,-0.6925001 0.5203333,-1.2500001 1.1666667,-1.2500001 h 0.9345 L 5.2385001,0.99999604 Z"
     id="path2"
     inkscape:connector-curvature="0" />
</svg>
