<?xml version="1.0" encoding="UTF-8" standalone="no"?>
<svg
   xmlns:dc="http://purl.org/dc/elements/1.1/"
   xmlns:cc="http://creativecommons.org/ns#"
   xmlns:rdf="http://www.w3.org/1999/02/22-rdf-syntax-ns#"
   xmlns:svg="http://www.w3.org/2000/svg"
   xmlns="http://www.w3.org/2000/svg"
   xmlns:sodipodi="http://sodipodi.sourceforge.net/DTD/sodipodi-0.dtd"
   xmlns:inkscape="http://www.inkscape.org/namespaces/inkscape"
   width="16"
   height="16"
   version="1.1"
   id="svg12"
   sodipodi:docname="media-album-track.svg"
   inkscape:version="0.92.3 (2405546, 2018-03-11)">
  <metadata
     id="metadata18">
    <rdf:RDF>
      <cc:Work
         rdf:about="">
        <dc:format>image/svg+xml</dc:format>
        <dc:type
           rdf:resource="http://purl.org/dc/dcmitype/StillImage" />
      </cc:Work>
    </rdf:RDF>
  </metadata>
  <defs
     id="defs16" />
  <sodipodi:namedview
     pagecolor="#ffffff"
     bordercolor="#666666"
     borderopacity="1"
     objecttolerance="10"
     gridtolerance="10"
     guidetolerance="10"
     inkscape:pageopacity="0"
     inkscape:pageshadow="2"
     inkscape:window-width="640"
     inkscape:window-height="480"
     id="namedview14"
     showgrid="true"
     inkscape:zoom="18.25"
     inkscape:cx="16.089537"
     inkscape:cy="0.433456"
     inkscape:current-layer="svg12">
    <inkscape:grid
       type="xygrid"
       id="grid20" />
  </sodipodi:namedview>
  <path
     style="fill:#4d4d4d"
     d="m 11.527726,0.50527786 c -0.485058,-0.0565715 -0.552225,0.35293975 -0.501697,0.67875094 -0.0043,3.2421262 0.0096,6.4872204 -0.0064,9.7274832 -0.118468,0.111525 -0.345815,-0.07189 -0.496758,-0.02432 -1.6443346,-0.09032 -3.4409196,0.98398 -3.6053086,2.534329 -0.193736,1.232627 1.251784,2.24681 2.540811,2.055099 1.6242766,-0.155325 2.8932576,-1.632238 2.6814886,-3.090251 0.0043,-2.5671147 -0.0096,-5.1372184 0.0064,-7.7024795 0.110711,-0.1142466 0.27585,0.1290002 0.392486,0.1409252 1.306181,0.6963439 2.461611,1.8446384 2.539611,3.2746336 0.08571,1.1173945 -0.289747,2.2107787 -0.712244,3.2466587 C 15.781808,9.7759879 16.235001,7.4854954 15.251257,5.630946 14.748135,4.5544159 13.613169,3.8909863 12.978239,2.8910634 12.509349,2.2228553 12.152499,1.4768828 12.040845,0.68801027 11.948916,0.5235136 11.706784,0.50347786 11.527726,0.50524572 z"
     id="path2" />
  <path
     style="fill:#4d4d4d;stroke-width:1"
     d="M 1,2 V 14 H 6 V 13 H 3 V 3 h 7 V 2 Z"
     id="path4"
     inkscape:connector-curvature="0"
     sodipodi:nodetypes="ccccccccc" />
</svg>
