<?xml version="1.0" encoding="UTF-8" standalone="no"?>
<svg
   xmlns:dc="http://purl.org/dc/elements/1.1/"
   xmlns:cc="http://creativecommons.org/ns#"
   xmlns:rdf="http://www.w3.org/1999/02/22-rdf-syntax-ns#"
   xmlns:svg="http://www.w3.org/2000/svg"
   xmlns="http://www.w3.org/2000/svg"
   xmlns:sodipodi="http://sodipodi.sourceforge.net/DTD/sodipodi-0.dtd"
   xmlns:inkscape="http://www.inkscape.org/namespaces/inkscape"
   viewBox="0 0 16 16"
   version="1.1"
   id="svg9"
   sodipodi:docname="node-type-auto-smooth.svg"
   width="16"
   height="16"
   inkscape:version="0.92.3 (2405546, 2018-03-11)">
  <metadata
     id="metadata13">
    <rdf:RDF>
      <cc:Work
         rdf:about="">
        <dc:format>image/svg+xml</dc:format>
        <dc:type
           rdf:resource="http://purl.org/dc/dcmitype/StillImage" />
        <dc:title />
      </cc:Work>
    </rdf:RDF>
  </metadata>
  <sodipodi:namedview
     pagecolor="#ffffff"
     bordercolor="#666666"
     borderopacity="1"
     objecttolerance="10"
     gridtolerance="10"
     guidetolerance="10"
     inkscape:pageopacity="0"
     inkscape:pageshadow="2"
     inkscape:window-width="640"
     inkscape:window-height="480"
     id="namedview11"
     showgrid="true"
     inkscape:zoom="12.166667"
     inkscape:cx="2.1159426"
     inkscape:cy="4.7395344"
     inkscape:current-layer="svg9">
    <inkscape:grid
       type="xygrid"
       id="grid19" />
  </sodipodi:namedview>
  <defs
     id="defs3">
    <style
       id="current-color-scheme"
       type="text/css">
   .ColorScheme-Text { color:#4d4d4d; } .ColorScheme-Highlight { color:#f34f17; }
  </style>
  </defs>
  <path
     style="color:#4d4d4d;fill:currentColor"
     d="M 13 13 L 13 14 L 13 15 L 13 16 L 16 16 L 16 13 L 13 13 z M 14 14 L 15 14 L 15 15 L 14 15 L 14 14 z "
     id="path31" />
  <path
     style="color:#4d4d4d;fill:currentColor"
     d="m 11,14 v 1 h 1 v -1 z"
     id="path25"
     inkscape:connector-curvature="0" />
  <path
     style="color:#4d4d4d;fill:currentColor"
     d="M 0,0 A 10,15 0 0 0 6.265625,13.890625 L 6.773438,13.042969 A 9,14 0 0 1 1,0 Z"
     id="path39"
     inkscape:connector-curvature="0" />
  <path
     style="color:#4d4d4d;fill:currentColor"
     d="M 15,0 A 9,14 0 0 1 9.228516,13.048828 l 0.511718,0.853516 A 10,15 0 0 0 16,0 Z"
     id="path41"
     inkscape:connector-curvature="0" />
  <path
     id="path66"
     d="m 0,13 v 1 1 1 h 3 v -3 z m 1,1 h 1 v 1 H 1 Z"
     style="color:#4d4d4d;fill:currentColor"
     inkscape:connector-curvature="0" />
  <path
     inkscape:connector-curvature="0"
     id="path68"
     d="m 4,14 v 1 h 1 v -1 z"
     style="color:#4d4d4d;fill:currentColor" />
  <path
     style="color:#f34f17;fill:currentColor;stroke-width:1"
     d="M 8 12 A 2 2 0 0 0 6 14 A 2 2 0 0 0 8 16 A 2 2 0 0 0 10 14 A 2 2 0 0 0 8 12 z M 8 13 A 1 1 0 0 1 9 14 A 1 1 0 0 1 8 15 A 1 1 0 0 1 7 14 A 1 1 0 0 1 8 13 z "
     id="path23" />
</svg>
