<?xml version="1.0" encoding="UTF-8" standalone="no"?>
<svg
   xmlns:dc="http://purl.org/dc/elements/1.1/"
   xmlns:cc="http://creativecommons.org/ns#"
   xmlns:rdf="http://www.w3.org/1999/02/22-rdf-syntax-ns#"
   xmlns:svg="http://www.w3.org/2000/svg"
   xmlns="http://www.w3.org/2000/svg"
   xmlns:sodipodi="http://sodipodi.sourceforge.net/DTD/sodipodi-0.dtd"
   xmlns:inkscape="http://www.inkscape.org/namespaces/inkscape"
   viewBox="0 0 16 16"
   version="1.1"
   id="svg9"
   sodipodi:docname="node-transformX.svg"
   width="16"
   height="16"
   inkscape:version="0.92.3 (2405546, 2018-03-11)">
  <metadata
     id="metadata13">
    <rdf:RDF>
      <cc:Work
         rdf:about="">
        <dc:format>image/svg+xml</dc:format>
        <dc:type
           rdf:resource="http://purl.org/dc/dcmitype/StillImage" />
        <dc:title></dc:title>
      </cc:Work>
    </rdf:RDF>
  </metadata>
  <sodipodi:namedview
     pagecolor="#ffffff"
     bordercolor="#666666"
     borderopacity="1"
     objecttolerance="10"
     gridtolerance="10"
     guidetolerance="10"
     inkscape:pageopacity="0"
     inkscape:pageshadow="2"
     inkscape:window-width="640"
     inkscape:window-height="480"
     id="namedview11"
     showgrid="true"
     inkscape:zoom="12.166667"
     inkscape:cx="1.2328767"
     inkscape:cy="11.342466"
     inkscape:current-layer="svg9">
    <inkscape:grid
       type="xygrid"
       id="grid19" />
  </sodipodi:namedview>
  <defs
     id="defs3">
    <style
       id="current-color-scheme"
       type="text/css">
   .ColorScheme-Text { color:#4d4d4d; } .ColorScheme-Highlight { color:#f34f17; }
  </style>
  </defs>
  <g
     id="g17"
     transform="translate(-4,4)">
    <path
       inkscape:connector-curvature="0"
       id="path5"
       d="m 4,-4 v 1 1 1 H 7 V -4 H 6 Z m 13,0 v 3 h 1 2 V -3 -4 H 18 Z M 5,-3 h 1 v 1 H 5 Z m 13,0 h 1 v 1 H 18 Z M 8,-2 v 1 h 2 v -1 z m 3,0 v 1 h 2 v -1 z m 3,0 v 1 h 2 V -2 Z M 6,0 V 2 H 7 V 0 Z m 11,0 v 2 h 1 V 0 Z M 6,3 V 5 H 7 V 3 Z m 11,0 v 2 h 1 V 3 Z M 6,6 V 8 H 7 V 6 Z M 4,9 v 1 1 1 H 5 6 7 V 10 9 H 6 5 Z m 4,0 v 1 h 2 V 9 Z m 3,0 v 1 h 2 V 9 Z m -6,1 h 1 v 1 H 5 Z"
       class="ColorScheme-Text"
       style="color:#4d4d4d;fill:currentColor" />
    <path
       inkscape:connector-curvature="0"
       id="path7"
       d="m 14,6 v 1 1 h 1 V 7 h 1 V 6 Z m 4,0 v 1 h 1 v 1 h 1 V 6 h -1 z m -4,4 v 2 h 1 1 v -1 h -1 v -1 z m 5,0 v 1 h -1 v 1 h 2 v -1 -1 z"
       class="ColorScheme-Highlight"
       style="color:#f34f17;fill:currentColor" />
  </g>
</svg>
