<?xml version="1.0" encoding="UTF-8" standalone="no"?>
<svg
   xmlns:dc="http://purl.org/dc/elements/1.1/"
   xmlns:cc="http://creativecommons.org/ns#"
   xmlns:rdf="http://www.w3.org/1999/02/22-rdf-syntax-ns#"
   xmlns:svg="http://www.w3.org/2000/svg"
   xmlns="http://www.w3.org/2000/svg"
   xmlns:sodipodi="http://sodipodi.sourceforge.net/DTD/sodipodi-0.dtd"
   xmlns:inkscape="http://www.inkscape.org/namespaces/inkscape"
   viewBox="0 0 16 16"
   version="1.1"
   id="svg9"
   sodipodi:docname="node-type-cuspX.svg"
   width="16"
   height="16"
   inkscape:version="0.92.3 (2405546, 2018-03-11)">
  <metadata
     id="metadata13">
    <rdf:RDF>
      <cc:Work
         rdf:about="">
        <dc:format>image/svg+xml</dc:format>
        <dc:type
           rdf:resource="http://purl.org/dc/dcmitype/StillImage" />
        <dc:title />
      </cc:Work>
    </rdf:RDF>
  </metadata>
  <sodipodi:namedview
     pagecolor="#ffffff"
     bordercolor="#666666"
     borderopacity="1"
     objecttolerance="10"
     gridtolerance="10"
     guidetolerance="10"
     inkscape:pageopacity="0"
     inkscape:pageshadow="2"
     inkscape:window-width="640"
     inkscape:window-height="480"
     id="namedview11"
     showgrid="true"
     inkscape:zoom="17.206265"
     inkscape:cx="4.0454609"
     inkscape:cy="9.8668211"
     inkscape:current-layer="svg9">
    <inkscape:grid
       type="xygrid"
       id="grid12" />
  </sodipodi:namedview>
  <defs
     id="defs3">
    <style
       id="current-color-scheme"
       type="text/css">
   .ColorScheme-Text { color:#4d4d4d; } .ColorScheme-Highlight { color:#f34f17; }
  </style>
  </defs>
  <path
     style="color:#4d4d4d;fill:currentColor"
     d="M 7,0 V 3 H 8 V 4 H 9 V 3 h 1 V 0 Z M 8,1 H 9 V 2 H 8 Z"
     id="path30"
     inkscape:connector-curvature="0" />
  <path
     style="color:#4d4d4d;fill:currentColor"
     d="M 8,5 V 6 H 9 V 5 Z"
     id="path24"
     inkscape:connector-curvature="0" />
  <path
     style="color:#4d4d4d;fill:currentColor"
     d="M 8,7 V 8 H 9 V 7 Z"
     id="path22"
     inkscape:connector-curvature="0" />
  <path
     style="color:#4d4d4d;fill:currentColor"
     d="M 13 12.5 L 13 13.5 L 13 14.5 L 13 15.5 L 16 15.5 L 16 12.5 L 13 12.5 z M 14 13.5 L 15 13.5 L 15 14.5 L 14 14.5 L 14 13.5 z "
     id="path20" />
  <path
     style="color:#4d4d4d;fill:currentColor"
     d="m 11,13.5 v 1 h 1 v -1 z"
     id="path18"
     inkscape:connector-curvature="0" />
  <path
     style="color:#4d4d4d;fill:currentColor"
     d="m 6.990234,14.076172 c 0.002,0.11193 0.0098,0.221474 0.0098,0.333984 h 0.324219 z"
     id="path5" />
  <path
     style="color:#f34f17;fill:currentColor"
     class="ColorScheme-Highlight"
     d="M 8,10.34375 5.171875,13.171875 8,16 10.828125,13.171875 Z M 8,11.757812 9.414062,13.171875 8,14.585938 6.585938,13.171875 Z"
     id="path7"
     inkscape:connector-curvature="0" />
  <path
     style="color:#4d4d4d;fill:currentColor"
     d="m 15,0 c -0.0038,5.3870057 -1.977243,10.10916 -4.90625,12.4375 l 0.708984,0.708984 C 13.91735,10.583374 16.000241,5.6316245 16,0 Z"
     id="path43"
     inkscape:connector-curvature="0" />
  <path
     style="color:#4d4d4d;fill:currentColor;stroke-width:0.99999994"
     d="M 0 0.24023438 L 0 1.296875 C 3.3153679 2.4880305 5.8903287 6.5253916 6.7128906 11.630859 L 7.5644531 10.779297 C 6.5239254 5.4871138 3.6472323 1.3716277 0 0.24023438 z "
     id="path52" />
</svg>
