<?xml version="1.0" encoding="UTF-8" standalone="no"?>
<svg
   xmlns:dc="http://purl.org/dc/elements/1.1/"
   xmlns:cc="http://creativecommons.org/ns#"
   xmlns:rdf="http://www.w3.org/1999/02/22-rdf-syntax-ns#"
   xmlns:svg="http://www.w3.org/2000/svg"
   xmlns="http://www.w3.org/2000/svg"
   xmlns:sodipodi="http://sodipodi.sourceforge.net/DTD/sodipodi-0.dtd"
   xmlns:inkscape="http://www.inkscape.org/namespaces/inkscape"
   viewBox="0 0 16 16"
   version="1.1"
   id="svg7"
   sodipodi:docname="nodeX.svg"
   width="16"
   height="16"
   inkscape:version="0.92.3 (2405546, 2018-03-11)">
  <metadata
     id="metadata11">
    <rdf:RDF>
      <cc:Work
         rdf:about="">
        <dc:format>image/svg+xml</dc:format>
        <dc:type
           rdf:resource="http://purl.org/dc/dcmitype/StillImage" />
        <dc:title></dc:title>
      </cc:Work>
    </rdf:RDF>
  </metadata>
  <sodipodi:namedview
     pagecolor="#ffffff"
     bordercolor="#666666"
     borderopacity="1"
     objecttolerance="10"
     gridtolerance="10"
     guidetolerance="10"
     inkscape:pageopacity="0"
     inkscape:pageshadow="2"
     inkscape:window-width="640"
     inkscape:window-height="480"
     id="namedview9"
     showgrid="true"
     inkscape:zoom="12.166667"
     inkscape:cx="1.2356401"
     inkscape:cy="11.306882"
     inkscape:current-layer="svg7">
    <inkscape:grid
       type="xygrid"
       id="grid13" />
  </sodipodi:namedview>
  <defs
     id="defs3">
    <style
       id="current-color-scheme"
       type="text/css">
   .ColorScheme-Text { color:#4d4d4d; }
  </style>
  </defs>
  <path
     style="color:#4d4d4d;fill:currentColor"
     class="ColorScheme-Text"
     d="M 3,0 2.90625,0.09375 0,3 V 3.90625 15.3125 16 H 0.6875 12.125 12.96875 L 13,15.96875 15.90625,13.0625 15.96875,13 16,12.96875 V 12.4375 0.6875 0 H 15.3125 3.53125 Z M 4,1 H 14.3125 L 12.375,2.9375 12.3125,3 H 4 Z M 3,1.375 V 3 H 1.375 Z M 15,1.6875 V 12 H 13 V 3.6875 L 13.0625,3.625 Z M 1,4 h 2 v 8.28125 L 2.65625,12.65625 1,14.3125 Z m 3,0 h 8 v 8 H 4 Z M 3.71875,13 H 12 v 2 H 1.6875 L 3.34375,13.34375 Z M 13,13 h 1.59375 L 13,14.59375 Z"
     id="path5"
     inkscape:connector-curvature="0" />
</svg>
