<?xml version="1.0" encoding="UTF-8" standalone="no"?>
<svg
   xmlns:osb="http://www.openswatchbook.org/uri/2009/osb"
   xmlns:dc="http://purl.org/dc/elements/1.1/"
   xmlns:cc="http://creativecommons.org/ns#"
   xmlns:rdf="http://www.w3.org/1999/02/22-rdf-syntax-ns#"
   xmlns:svg="http://www.w3.org/2000/svg"
   xmlns="http://www.w3.org/2000/svg"
   xmlns:sodipodi="http://sodipodi.sourceforge.net/DTD/sodipodi-0.dtd"
   xmlns:inkscape="http://www.inkscape.org/namespaces/inkscape"
   height="16"
   id="svg7384"
   version="1.1"
   width="16"
   sodipodi:docname="notification-alert-symbolic.svg"
   inkscape:version="0.92.3 (2405546, 2018-03-11)">
  <sodipodi:namedview
     pagecolor="#ffffff"
     bordercolor="#666666"
     borderopacity="1"
     objecttolerance="10"
     gridtolerance="10"
     guidetolerance="10"
     inkscape:pageopacity="0"
     inkscape:pageshadow="2"
     inkscape:window-width="640"
     inkscape:window-height="480"
     id="namedview23"
     showgrid="false"
     inkscape:zoom="18.25"
     inkscape:cx="-6.3013699"
     inkscape:cy="7.1232876"
     inkscape:current-layer="g1833" />
  <metadata
     id="metadata20854">
    <rdf:RDF>
      <cc:Work
         rdf:about="">
        <dc:title></dc:title>
        <dc:format>image/svg+xml</dc:format>
        <dc:type
           rdf:resource="http://purl.org/dc/dcmitype/StillImage" />
      </cc:Work>
    </rdf:RDF>
  </metadata>
  <defs
     id="defs7386">
    <linearGradient
       id="linearGradient5606"
       osb:paint="solid">
      <stop
         id="stop5608"
         offset="0"
         style="stop-color:#000000;stop-opacity:1;" />
    </linearGradient>
    <linearGradient
       id="linearGradient4526"
       osb:paint="solid">
      <stop
         id="stop4528"
         offset="0"
         style="stop-color:#ffffff;stop-opacity:1;" />
    </linearGradient>
    <linearGradient
       id="linearGradient3600-4"
       osb:paint="gradient">
      <stop
         id="stop3602-7"
         offset="0"
         style="stop-color:#f4f4f4;stop-opacity:1" />
      <stop
         id="stop3604-6"
         offset="1"
         style="stop-color:#dbdbdb;stop-opacity:1" />
    </linearGradient>
  </defs>
  <g
     id="layer9"
     label="status"
     style="display:inline"
     transform="translate(-813.00024,207)" />
  <g
     id="layer2"
     style="display:inline"
     transform="translate(-572.00004,-160)" />
  <g
     id="layer4"
     style="display:inline"
     transform="translate(-572.00004,-160)" />
  <g
     id="g1812"
     style="display:inline"
     transform="translate(-572.00004,-160)" />
  <g
     id="g6217"
     style="display:inline"
     transform="translate(-572.00004,-160)" />
  <g
     id="layer3"
     style="display:inline"
     transform="translate(-572.00004,-160)" />
  <g
     id="g1833"
     style="display:inline"
     transform="translate(-572.00004,-160)">
    <path
       style="font-style:normal;font-variant:normal;font-weight:normal;font-stretch:normal;font-size:15px;line-height:125%;font-family:Ubuntu;-inkscape-font-specification:Ubuntu;text-align:center;letter-spacing:0px;word-spacing:0px;writing-mode:lr-tb;text-anchor:middle;fill:#808080;fill-opacity:1;stroke:none;stroke-width:0.25"
       d="M 8 1 A 1 1 0 0 0 7 2 A 1 1 0 0 0 7.0097656 2.1386719 C 5.2818356 2.5811819 4 4.13457 4 6 C 4.00066 6.11019 4.006025 6.2203181 4.015625 6.3300781 L 4.015625 9.5664062 C 4.015625 9.9261063 3.9819225 10.256207 3.9140625 10.554688 C 3.8461625 10.853307 3.7263206 11.106026 3.5566406 11.316406 C 3.3937606 11.533586 3.1728212 11.701026 2.8945312 11.816406 C 2.6233312 11.935466 2.2835331 11.993344 1.8769531 11.996094 L 1.8769531 12 L 4.015625 12 L 8 12 L 11.984375 12 L 14.121094 12 L 14.121094 11.996094 C 13.714514 11.993094 13.374716 11.935486 13.103516 11.816406 C 12.825226 11.701026 12.604286 11.533576 12.441406 11.316406 C 12.271726 11.106016 12.153797 10.853307 12.085938 10.554688 C 12.018037 10.256207 11.984325 9.9260963 11.984375 9.5664062 L 11.984375 6.3183594 L 11.984375 6.3164062 C 11.993375 6.2111862 11.999 6.10563 12 6 C 12 4.13392 10.716671 2.5805419 8.9882812 2.1386719 A 1 1 0 0 0 9 2 A 1 1 0 0 0 8 1 z M 8 3 C 9.65685 3 11 4.34315 11 6 L 11 11 L 5 11 L 5 6 C 5 4.34315 6.34315 3 8 3 z "
       transform="translate(572.00004,160)"
       id="path837" />
    <path
       style="font-style:normal;font-variant:normal;font-weight:normal;font-stretch:normal;font-size:15px;line-height:125%;font-family:Ubuntu;-inkscape-font-specification:Ubuntu;text-align:center;letter-spacing:0px;word-spacing:0px;writing-mode:lr-tb;text-anchor:middle;fill:#808080;fill-opacity:1;stroke:none;stroke-width:0.25"
       d="m 576.09184,171.7168 -0.0156,0.0195 c 0.003,-0.003 0.004,-0.008 0.006,-0.0117 0.002,-0.003 0.008,-0.004 0.01,-0.008 z"
       id="path833" />
    <path
       style="font-style:normal;font-variant:normal;font-weight:normal;font-stretch:normal;font-size:15px;line-height:125%;font-family:Ubuntu;-inkscape-font-specification:Ubuntu;text-align:center;letter-spacing:0px;word-spacing:0px;writing-mode:lr-tb;text-anchor:middle;fill:#808080;fill-opacity:1;stroke:none;stroke-width:0.25"
       d="m 583.90824,171.7168 c 0.002,0.003 0.008,0.004 0.01,0.008 0.003,0.003 0.004,0.008 0.006,0.0117 z"
       id="path831" />
    <path
       style="font-style:normal;font-variant:normal;font-weight:normal;font-stretch:normal;font-size:15px;line-height:125%;font-family:Ubuntu;-inkscape-font-specification:Ubuntu;text-align:center;letter-spacing:0px;word-spacing:0px;writing-mode:lr-tb;text-anchor:middle;fill:#808080;fill-opacity:1;stroke:none;stroke-width:0.25"
       d="m 578.00004,173 c 0.0125,1.10862 0.91475,2 2.02344,2 1.10868,0 2.01094,-0.89138 2.02344,-2 z"
       id="path1381" />
    <path
       style="font-style:normal;font-variant:normal;font-weight:normal;font-stretch:normal;font-size:15px;line-height:125%;font-family:Ubuntu;-inkscape-font-specification:Ubuntu;text-align:center;letter-spacing:0px;word-spacing:0px;writing-mode:lr-tb;text-anchor:middle;fill:#808080;fill-opacity:1;stroke:none;stroke-width:0.24995056"
       d="m 584.06612,172.3138 c 0.003,0.004 0.007,0.006 0.009,0.009 0.003,0.004 0.005,0.01 0.008,0.0137 z"
       id="path1383" />
    <path
       style="font-style:normal;font-variant:normal;font-weight:normal;font-stretch:normal;font-size:15px;line-height:125%;font-family:Ubuntu;-inkscape-font-specification:Ubuntu;text-align:center;letter-spacing:0px;word-spacing:0px;writing-mode:lr-tb;text-anchor:middle;fill:#808080;fill-opacity:1;stroke:none;stroke-width:0.24995056"
       d="m 575.9268,172.31607 -0.0179,0.0231 c 0.003,-0.004 0.005,-0.009 0.008,-0.0137 0.003,-0.004 0.007,-0.006 0.009,-0.009 z"
       id="path1385" />
  </g>
  <g
     id="layer1"
     style="display:inline"
     transform="translate(-572.00004,-160)" />
</svg>
