<?xml version="1.0" encoding="UTF-8" standalone="no"?>
<svg
   xmlns:dc="http://purl.org/dc/elements/1.1/"
   xmlns:cc="http://creativecommons.org/ns#"
   xmlns:rdf="http://www.w3.org/1999/02/22-rdf-syntax-ns#"
   xmlns:svg="http://www.w3.org/2000/svg"
   xmlns="http://www.w3.org/2000/svg"
   xmlns:sodipodi="http://sodipodi.sourceforge.net/DTD/sodipodi-0.dtd"
   xmlns:inkscape="http://www.inkscape.org/namespaces/inkscape"
   viewBox="0 0 16 16"
   version="1.1"
   id="svg9"
   sodipodi:docname="object-to-pathX.svg"
   width="16"
   height="16"
   inkscape:version="0.92.3 (2405546, 2018-03-11)">
  <metadata
     id="metadata13">
    <rdf:RDF>
      <cc:Work
         rdf:about="">
        <dc:format>image/svg+xml</dc:format>
        <dc:type
           rdf:resource="http://purl.org/dc/dcmitype/StillImage" />
        <dc:title></dc:title>
      </cc:Work>
    </rdf:RDF>
  </metadata>
  <sodipodi:namedview
     pagecolor="#ffffff"
     bordercolor="#666666"
     borderopacity="1"
     objecttolerance="10"
     gridtolerance="10"
     guidetolerance="10"
     inkscape:pageopacity="0"
     inkscape:pageshadow="2"
     inkscape:window-width="640"
     inkscape:window-height="480"
     id="namedview11"
     showgrid="true"
     inkscape:zoom="12.166667"
     inkscape:cx="1.2328767"
     inkscape:cy="11.342466"
     inkscape:current-layer="svg9">
    <inkscape:grid
       type="xygrid"
       id="grid19" />
  </sodipodi:namedview>
  <defs
     id="defs3">
    <style
       id="current-color-scheme"
       type="text/css">
   .ColorScheme-Text { color:#4d4d4d; } .ColorScheme-Highlight { color:#f34f17; }
  </style>
  </defs>
  <g
     id="g17"
     transform="translate(-4,4)">
    <path
       inkscape:connector-curvature="0"
       id="path5"
       d="M 16,-2.5 A 10.5,10.5 0 0 0 5.5,8 h 1 A 9.5,9.5 0 0 1 16,-1.5 Z M 17.5,7 a 2.4999914,2.4999914 0 0 0 -2.5,2.5 2.4999914,2.4999914 0 0 0 0.416016,1.376953 l 0.732422,-0.732422 A 1.5,1.5 0 0 1 16,9.5 1.5,1.5 0 0 1 17.5,8 1.5,1.5 0 0 1 18.144531,8.148438 L 18.876953,7.416016 A 2.4999914,2.4999914 0 0 0 17.5,7 Z m 2.083984,1.123047 -0.732422,0.732422 A 1.5,1.5 0 0 1 19,9.5 1.5,1.5 0 0 1 17.5,11 1.5,1.5 0 0 1 16.855469,10.851562 l -0.732422,0.732422 A 2.4999914,2.4999914 0 0 0 17.5,12 2.4999914,2.4999914 0 0 0 20,9.5 2.4999914,2.4999914 0 0 0 19.583984,8.123047 Z"
       class="ColorScheme-Text"
       style="color:#4d4d4d;fill:currentColor" />
    <path
       inkscape:connector-curvature="0"
       id="path7"
       d="m 16,-4 v 4 h 4 v -4 z m 1,1 h 2 v 2 H 17 Z M 4,8 v 4 H 8 V 8 Z m 1,1 h 2 v 2 H 5 Z"
       class="ColorScheme-Highlight"
       style="color:#f34f17;fill:currentColor" />
  </g>
</svg>
