<?xml version="1.0" encoding="UTF-8" standalone="no"?>
<svg
   xmlns:dc="http://purl.org/dc/elements/1.1/"
   xmlns:cc="http://creativecommons.org/ns#"
   xmlns:rdf="http://www.w3.org/1999/02/22-rdf-syntax-ns#"
   xmlns:svg="http://www.w3.org/2000/svg"
   xmlns="http://www.w3.org/2000/svg"
   xmlns:sodipodi="http://sodipodi.sourceforge.net/DTD/sodipodi-0.dtd"
   xmlns:inkscape="http://www.inkscape.org/namespaces/inkscape"
   version="1.1"
   viewBox="0 0 16 16"
   id="svg9"
   sodipodi:docname="offlineX.svg"
   width="16"
   height="16"
   inkscape:version="0.92.3 (2405546, 2018-03-11)">
  <metadata
     id="metadata13">
    <rdf:RDF>
      <cc:Work
         rdf:about="">
        <dc:format>image/svg+xml</dc:format>
        <dc:type
           rdf:resource="http://purl.org/dc/dcmitype/StillImage" />
        <dc:title></dc:title>
      </cc:Work>
    </rdf:RDF>
  </metadata>
  <sodipodi:namedview
     pagecolor="#ffffff"
     bordercolor="#666666"
     borderopacity="1"
     objecttolerance="10"
     gridtolerance="10"
     guidetolerance="10"
     inkscape:pageopacity="0"
     inkscape:pageshadow="2"
     inkscape:window-width="640"
     inkscape:window-height="480"
     id="namedview11"
     showgrid="true"
     inkscape:zoom="26.545455"
     inkscape:cx="10.87927"
     inkscape:cy="8.0853582"
     inkscape:current-layer="svg9">
    <inkscape:grid
       type="xygrid"
       id="grid15" />
  </sodipodi:namedview>
  <defs
     id="defs3">
    <style
       id="current-color-scheme"
       type="text/css">
   .ColorScheme-Text { color:#4d4d4d; } .ColorScheme-NegativeText { color:#da4453; }
  </style>
  </defs>
  <path
     class="ColorScheme-NegativeText"
     d="M 8.833984,11 8,11.833984 9.666016,13.5 8,15.166016 8.833984,16 10.5,14.333984 12.166016,16 13,15.166016 11.333984,13.5 13,11.833984 12.166016,11 10.5,12.666016 Z"
     style="color:#da4453;fill:currentColor"
     id="path5"
     inkscape:connector-curvature="0" />
  <path
     style="fill:#4d4d4d"
     d="M 3 3 L 3 6 L 0 6 L 0 7 L 3 7 L 3 10 L 6 10 L 6 3 L 3 3 z M 8 3 L 8 10 L 13 10 L 13 7 L 16 7 L 16 6 L 13 6 L 13 3 L 8 3 z "
     id="path7" />
</svg>
