<?xml version="1.0" encoding="UTF-8" standalone="no"?>
<svg
   xmlns:dc="http://purl.org/dc/elements/1.1/"
   xmlns:cc="http://creativecommons.org/ns#"
   xmlns:rdf="http://www.w3.org/1999/02/22-rdf-syntax-ns#"
   xmlns:svg="http://www.w3.org/2000/svg"
   xmlns="http://www.w3.org/2000/svg"
   xmlns:sodipodi="http://sodipodi.sourceforge.net/DTD/sodipodi-0.dtd"
   xmlns:inkscape="http://www.inkscape.org/namespaces/inkscape"
   version="1.1"
   viewBox="0 0 16 16"
   id="svg7"
   sodipodi:docname="path-mode-spiroX.svg"
   width="16"
   height="16"
   inkscape:version="0.92.3 (2405546, 2018-03-11)">
  <metadata
     id="metadata11">
    <rdf:RDF>
      <cc:Work
         rdf:about="">
        <dc:format>image/svg+xml</dc:format>
        <dc:type
           rdf:resource="http://purl.org/dc/dcmitype/StillImage" />
        <dc:title></dc:title>
      </cc:Work>
    </rdf:RDF>
  </metadata>
  <sodipodi:namedview
     pagecolor="#ffffff"
     bordercolor="#666666"
     borderopacity="1"
     objecttolerance="10"
     gridtolerance="10"
     guidetolerance="10"
     inkscape:pageopacity="0"
     inkscape:pageshadow="2"
     inkscape:window-width="640"
     inkscape:window-height="480"
     id="namedview9"
     showgrid="true"
     inkscape:zoom="12.166667"
     inkscape:cx="1.2328767"
     inkscape:cy="11.342466"
     inkscape:current-layer="svg7">
    <inkscape:grid
       type="xygrid"
       id="grid13" />
  </sodipodi:namedview>
  <defs
     id="defs3">
    <style
       id="current-color-scheme"
       type="text/css">
   .ColorScheme-Text { color:#4d4d4d; }
  </style>
  </defs>
  <path
     style="color:#4d4d4d;fill:currentColor"
     class="ColorScheme-Text"
     d="M 14.5,0 C 13.84576,0 13.297803,0.418077 13.091797,1 H 0 v 1 c 3.601,0 6.5,2.899 6.5,6.5 0,1.905514 -0.8221148,3.601777 -2.1210938,4.787109 C 4.1331792,13.10687 3.83013,13 3.5,13 2.669,13 2,13.669 2,14.5 2,15.331 2.669,16 3.5,16 4.15424,16 4.7021971,15.581923 4.9082031,15 H 9 v 1 h 3 V 13 H 9 v 1 H 5.0878906 C 6.567038,12.632069 7.5,10.682903 7.5,8.5 7.5,5.711333 5.9893325,3.292531 3.7421875,2 H 13.091797 C 13.297803,2.581923 13.84576,3 14.5,3 15.331,3 16,2.331 16,1.5 16,0.669 15.331,0 14.5,0 Z m 0,1 C 14.777,1 15,1.223 15,1.5 15,1.777 14.777,2 14.5,2 14.43075,2 14.364547,1.986172 14.304688,1.960937 14.125108,1.8852345 14,1.70775 14,1.5 14,1.43075 14.01383,1.3645475 14.03906,1.3046875 14.114763,1.1251095 14.29225,1 14.5,1 Z M 3.5,14 C 3.777,14 4,14.223 4,14.5 4,14.777 3.777,15 3.5,15 3.223,15 3,14.777 3,14.5 3,14.223 3.223,14 3.5,14 Z m 6.5,0 h 1 v 1 h -1 z"
     id="path5"
     inkscape:connector-curvature="0" />
</svg>
