<?xml version="1.0" encoding="UTF-8" standalone="no"?>
<svg
   xmlns:osb="http://www.openswatchbook.org/uri/2009/osb"
   xmlns:dc="http://purl.org/dc/elements/1.1/"
   xmlns:cc="http://creativecommons.org/ns#"
   xmlns:rdf="http://www.w3.org/1999/02/22-rdf-syntax-ns#"
   xmlns:svg="http://www.w3.org/2000/svg"
   xmlns="http://www.w3.org/2000/svg"
   xmlns:sodipodi="http://sodipodi.sourceforge.net/DTD/sodipodi-0.dtd"
   xmlns:inkscape="http://www.inkscape.org/namespaces/inkscape"
   height="16.000015"
   id="svg7384"
   version="1.1"
   width="16"
   sodipodi:docname="extensions-symbolic.svg"
   inkscape:version="0.92.3 (2405546, 2018-03-11)">
  <sodipodi:namedview
     pagecolor="#ffffff"
     bordercolor="#666666"
     borderopacity="1"
     objecttolerance="10"
     gridtolerance="10"
     guidetolerance="10"
     inkscape:pageopacity="0"
     inkscape:pageshadow="2"
     inkscape:window-width="640"
     inkscape:window-height="480"
     id="namedview21"
     showgrid="false"
     inkscape:zoom="18.249983"
     inkscape:cx="-1.5342557"
     inkscape:cy="7.561651"
     inkscape:current-layer="svg7384" />
  <metadata
     id="metadata20854">
    <rdf:RDF>
      <cc:Work
         rdf:about="">
        <dc:title />
        <dc:format>image/svg+xml</dc:format>
        <dc:type
           rdf:resource="http://purl.org/dc/dcmitype/StillImage" />
      </cc:Work>
    </rdf:RDF>
  </metadata>
  <defs
     id="defs7386">
    <linearGradient
       id="linearGradient5606"
       osb:paint="solid">
      <stop
         id="stop5608"
         offset="0"
         style="stop-color:#000000;stop-opacity:1;" />
    </linearGradient>
    <linearGradient
       id="linearGradient4526"
       osb:paint="solid">
      <stop
         id="stop4528"
         offset="0"
         style="stop-color:#ffffff;stop-opacity:1;" />
    </linearGradient>
    <linearGradient
       id="linearGradient3600-4"
       osb:paint="gradient">
      <stop
         id="stop3602-7"
         offset="0"
         style="stop-color:#f4f4f4;stop-opacity:1" />
      <stop
         id="stop3604-6"
         offset="1"
         style="stop-color:#dbdbdb;stop-opacity:1" />
    </linearGradient>
  </defs>
  <g
     id="layer9"
     label="status"
     style="display:inline"
     transform="translate(-813.0002,27)" />
  <g
     id="layer2"
     style="display:inline"
     transform="translate(-572,-340)" />
  <g
     id="layer4"
     style="display:inline"
     transform="translate(-572,-340)" />
  <g
     id="g1812"
     style="display:inline"
     transform="translate(-572,-340)" />
  <g
     id="g6217"
     style="display:inline"
     transform="translate(-572,-340)" />
  <g
     id="layer3"
     style="display:inline"
     transform="translate(-572,-340)" />
  <path
     inkscape:connector-curvature="0"
     style="opacity:1;vector-effect:none;fill:#4d4d4d;fill-opacity:1;stroke:none;stroke-width:0.99999994;stroke-linecap:round;stroke-linejoin:round;stroke-miterlimit:4;stroke-dasharray:none;stroke-dashoffset:0;stroke-opacity:0.88059698"
     id="rect9178-3"
     d="M 7,0 C 5.23718,0 5,1 5,1.5 5,2 5,2.5 5.25,3 H 5 1 V 7 8 8.5 C 1,8.5 2,8 3,8 3.5,8 4,8.5 4,9 4,9.5 3.5,10 3,10 2,10 1,9.5 1,9.5 v 0.5 1 4 H 5 6 6.5 C 6.5,15 6,14 6,13 c 0,-0.5 0.5,-1 1,-1 0.5,0 1,0.5 1,1 0,1 -0.5,2 -0.5,2 H 8 9 13 V 10.75 C 13.5,11 14,11 14.5,11 15.04612,11 16,10.76731 16,9 16,7.23718 15,7 14.5,7 14,7 13.5,7 13,7.25 V 3 H 9 8.75 C 9,2.5 9,2 9,1.5 9,0.95388 8.76731,0 7,0 Z M 7,1 C 7.5,1 8,1.5 8,2 8,3 7.5,4 7.5,4 H 8 v 0.0312 l 4,-0.002 V 8.5 c 0,0 1,-0.5 2,-0.5 0.5,0 1,0.5 1,1 0,0.5 -0.5,1 -1,1 -1,0 -2,-0.5 -2,-0.5 v 4.46484 H 8.76367 C 8.99648,13.47658 9,12.98827 9,12.5 9,11.95388 8.76731,11 7,11 c -1.76282,0 -2,1 -2,1.5 0,0.48827 0.004,0.97658 0.23633,1.46484 H 2.02344 V 10.75977 C 2.51554,10.99811 3.00789,11 3.5,11 4.04612,11 5,10.76731 5,9 5,7.23718 4,7 3.5,7 3.00789,7 2.51554,7.002 2.02344,7.24023 V 4.0332 L 6,4.03125 V 4 H 6.5 C 6.5,4 6,3 6,2 6,1.5 6.5,1 7,1 Z" />
  <g
     id="layer1"
     style="display:inline"
     transform="translate(-572,-340)" />
</svg>
