<?xml version="1.0" encoding="UTF-8" standalone="no"?>
<svg
   xmlns:dc="http://purl.org/dc/elements/1.1/"
   xmlns:cc="http://creativecommons.org/ns#"
   xmlns:rdf="http://www.w3.org/1999/02/22-rdf-syntax-ns#"
   xmlns:svg="http://www.w3.org/2000/svg"
   xmlns="http://www.w3.org/2000/svg"
   xmlns:sodipodi="http://sodipodi.sourceforge.net/DTD/sodipodi-0.dtd"
   xmlns:inkscape="http://www.inkscape.org/namespaces/inkscape"
   height="16"
   width="16"
   version="1.1"
   id="svg4"
   sodipodi:docname="run-build-install-root.svg"
   inkscape:version="0.92.3 (2405546, 2018-03-11)">
  <metadata
     id="metadata10">
    <rdf:RDF>
      <cc:Work
         rdf:about="">
        <dc:format>image/svg+xml</dc:format>
        <dc:type
           rdf:resource="http://purl.org/dc/dcmitype/StillImage" />
      </cc:Work>
    </rdf:RDF>
  </metadata>
  <defs
     id="defs8" />
  <sodipodi:namedview
     pagecolor="#ffffff"
     bordercolor="#666666"
     borderopacity="1"
     objecttolerance="10"
     gridtolerance="10"
     guidetolerance="10"
     inkscape:pageopacity="0"
     inkscape:pageshadow="2"
     inkscape:window-width="640"
     inkscape:window-height="480"
     id="namedview6"
     showgrid="true"
     inkscape:zoom="18.25"
     inkscape:cx="3.8136991"
     inkscape:cy="5.7202452"
     inkscape:current-layer="svg4">
    <inkscape:grid
       type="xygrid"
       id="grid821" />
  </sodipodi:namedview>
  <path
     style="line-height:normal;font-variant-ligatures:normal;font-variant-position:normal;font-variant-caps:normal;font-variant-numeric:normal;font-variant-alternates:normal;font-feature-settings:normal;text-indent:0;text-align:start;text-decoration-line:none;text-decoration-style:solid;text-decoration-color:#000;text-transform:none;text-orientation:mixed;shape-padding:0;isolation:auto;mix-blend-mode:normal;marker:none;fill:#f76363;fill-opacity:1;opacity:1"
     d="M 8 0 L 5.6894531 1.6503906 L 2.8574219 1.8710938 L 2.1484375 4.6210938 L 0.12109375 6.6113281 L 1.3457031 9.1738281 L 1.0722656 12 L 3.6582031 13.175781 L 5.2636719 15.517578 L 8 14.757812 L 10.736328 15.517578 L 12.341797 13.175781 L 14.927734 12 L 14.654297 9.1738281 L 15.880859 6.609375 L 13.853516 4.6191406 L 13.142578 1.8691406 L 10.3125 1.6503906 L 8 0 z M 7.5 4.9980469 L 8.5 4.9980469 L 8.5 9.0917969 L 10.78125 6.8105469 L 11.5 7.5 L 8.21875 10.8125 L 8 11 L 7.78125 10.8125 L 4.5 7.5 L 5.21875 6.8105469 L 7.5 9.0917969 L 7.5 4.9980469 z "
     id="path11" />
</svg>
