<?xml version="1.0" encoding="UTF-8" standalone="no"?>
<svg
   xmlns:dc="http://purl.org/dc/elements/1.1/"
   xmlns:cc="http://creativecommons.org/ns#"
   xmlns:rdf="http://www.w3.org/1999/02/22-rdf-syntax-ns#"
   xmlns:svg="http://www.w3.org/2000/svg"
   xmlns="http://www.w3.org/2000/svg"
   xmlns:sodipodi="http://sodipodi.sourceforge.net/DTD/sodipodi-0.dtd"
   xmlns:inkscape="http://www.inkscape.org/namespaces/inkscape"
   viewBox="0 0 16 16"
   version="1.1"
   id="svg9"
   sodipodi:docname="show-node-handlesX.svg"
   width="16"
   height="16"
   inkscape:version="0.92.3 (2405546, 2018-03-11)">
  <metadata
     id="metadata13">
    <rdf:RDF>
      <cc:Work
         rdf:about="">
        <dc:format>image/svg+xml</dc:format>
        <dc:type
           rdf:resource="http://purl.org/dc/dcmitype/StillImage" />
        <dc:title></dc:title>
      </cc:Work>
    </rdf:RDF>
  </metadata>
  <sodipodi:namedview
     pagecolor="#ffffff"
     bordercolor="#666666"
     borderopacity="1"
     objecttolerance="10"
     gridtolerance="10"
     guidetolerance="10"
     inkscape:pageopacity="0"
     inkscape:pageshadow="2"
     inkscape:window-width="640"
     inkscape:window-height="480"
     id="namedview11"
     showgrid="false"
     inkscape:zoom="12.166667"
     inkscape:cx="1.2328767"
     inkscape:cy="11.342466"
     inkscape:current-layer="svg9" />
  <defs
     id="defs3">
    <style
       id="current-color-scheme"
       type="text/css">
   .ColorScheme-Text { color:#4d4d4d; } .ColorScheme-Highlight { color:#f34f17; }
  </style>
  </defs>
  <g
     id="g17"
     transform="translate(-3.9999763,4.0000485)">
    <path
       inkscape:connector-curvature="0"
       id="path5"
       d="m 17,-3 v 0.9980469 a 11.559518,11 0 0 0 -0.113281,0 V -2 A 11.559518,11 0 0 0 5.5,8 H 6.546875 A 10.508653,10 0 0 1 16.896484,-1 10.508653,10 0 0 1 17,-1 v 1 h 3 v -3 z m 1,1 h 1 v 1 h -1 z"
       class="ColorScheme-Text"
       style="color:#4d4d4d;fill:currentColor" />
    <path
       inkscape:connector-curvature="0"
       id="path7"
       d="M 5.9804688,-4 A 2,2 0 0 0 4,-1.9863281 2,2 0 0 0 5.5,-0.0644531 V 2 h 1 V -0.0664062 A 2,2 0 0 0 8,-2 V -2.025391 A 2,2 0 0 0 5.9804688,-4 Z m 0.00977,1 A 1,1 0 0 1 7,-2.0136719 V -2 A 1,1 0 0 1 6.0039062,-1 1,1 0 0 1 5,-1.9941406 1,1 0 0 1 5.9902344,-3 Z M 5.5,3 v 1 h 1 V 3 Z M 4,8 v 4 H 8 V 8 Z m 1,1 h 2 v 2 H 5 Z"
       class="ColorScheme-Highlight"
       style="color:#f34f17;fill:currentColor" />
  </g>
</svg>
