<?xml version="1.0" encoding="UTF-8" standalone="no"?>
<svg
   xmlns:dc="http://purl.org/dc/elements/1.1/"
   xmlns:cc="http://creativecommons.org/ns#"
   xmlns:rdf="http://www.w3.org/1999/02/22-rdf-syntax-ns#"
   xmlns:svg="http://www.w3.org/2000/svg"
   xmlns="http://www.w3.org/2000/svg"
   xmlns:sodipodi="http://sodipodi.sourceforge.net/DTD/sodipodi-0.dtd"
   xmlns:inkscape="http://www.inkscape.org/namespaces/inkscape"
   viewBox="0 0 16 16"
   version="1.1"
   id="svg9"
   sodipodi:docname="standard-connectorX.svg"
   width="16"
   height="16"
   inkscape:version="0.92.3 (2405546, 2018-03-11)">
  <metadata
     id="metadata13">
    <rdf:RDF>
      <cc:Work
         rdf:about="">
        <dc:format>image/svg+xml</dc:format>
        <dc:type
           rdf:resource="http://purl.org/dc/dcmitype/StillImage" />
        <dc:title></dc:title>
      </cc:Work>
    </rdf:RDF>
  </metadata>
  <sodipodi:namedview
     pagecolor="#ffffff"
     bordercolor="#666666"
     borderopacity="1"
     objecttolerance="10"
     gridtolerance="10"
     guidetolerance="10"
     inkscape:pageopacity="0"
     inkscape:pageshadow="2"
     inkscape:window-width="640"
     inkscape:window-height="480"
     id="namedview11"
     showgrid="true"
     inkscape:zoom="13.272727"
     inkscape:cx="1.130137"
     inkscape:cy="10.39726"
     inkscape:current-layer="svg9">
    <inkscape:grid
       type="xygrid"
       id="grid19" />
  </sodipodi:namedview>
  <defs
     id="defs3">
    <style
       id="current-color-scheme"
       type="text/css">
   .ColorScheme-Text { color:#4d4d4d; } .ColorScheme-Highlight { color:#f34f17; }
  </style>
  </defs>
  <g
     id="g17"
     transform="translate(-3,3)">
    <path
       style="color:#4d4d4d;fill:#4d4d4d"
       inkscape:connector-curvature="0"
       id="path5"
       d="m 5,-2 v 1 h 6 v 12 1 h 6 V 11 H 12 V -2 h -1 z"
       class="ColorScheme-Text" />
    <path
       style="color:#f34f17;fill:#4d4d4d"
       inkscape:connector-curvature="0"
       id="path7"
       d="M 4.5,-3 A 1.4999979,1.5 0 0 0 3,-1.5 1.4999979,1.5 0 0 0 4.5,0 1.4999979,1.5 0 0 0 6,-1.5 1.4999979,1.5 0 0 0 4.5,-3 Z m 0,1 A 0.5,0.5 0 0 1 5,-1.5 0.5,0.5 0 0 1 4.5,-1 0.5,0.5 0 0 1 4,-1.5 0.5,0.5 0 0 1 4.5,-2 Z m 13,12 A 1.4999979,1.5 0 0 0 16,11.5 1.4999979,1.5 0 0 0 17.5,13 1.4999979,1.5 0 0 0 19,11.5 1.4999979,1.5 0 0 0 17.5,10 Z m 0,1 A 0.5,0.5 0 0 1 18,11.5 0.5,0.5 0 0 1 17.5,12 0.5,0.5 0 0 1 17,11.5 0.5,0.5 0 0 1 17.5,11 Z"
       class="ColorScheme-Highlight" />
  </g>
</svg>
