<?xml version="1.0" encoding="UTF-8" standalone="no"?>
<svg
   xmlns:dc="http://purl.org/dc/elements/1.1/"
   xmlns:cc="http://creativecommons.org/ns#"
   xmlns:rdf="http://www.w3.org/1999/02/22-rdf-syntax-ns#"
   xmlns:svg="http://www.w3.org/2000/svg"
   xmlns="http://www.w3.org/2000/svg"
   xmlns:sodipodi="http://sodipodi.sourceforge.net/DTD/sodipodi-0.dtd"
   xmlns:inkscape="http://www.inkscape.org/namespaces/inkscape"
   viewBox="0 0 16 16"
   version="1.1"
   id="svg7"
   sodipodi:docname="stroke-cap-roundX.svg"
   width="16"
   height="16"
   inkscape:version="0.92.3 (2405546, 2018-03-11)">
  <metadata
     id="metadata11">
    <rdf:RDF>
      <cc:Work
         rdf:about="">
        <dc:format>image/svg+xml</dc:format>
        <dc:type
           rdf:resource="http://purl.org/dc/dcmitype/StillImage" />
        <dc:title></dc:title>
      </cc:Work>
    </rdf:RDF>
  </metadata>
  <sodipodi:namedview
     pagecolor="#ffffff"
     bordercolor="#666666"
     borderopacity="1"
     objecttolerance="10"
     gridtolerance="10"
     guidetolerance="10"
     inkscape:pageopacity="0"
     inkscape:pageshadow="2"
     inkscape:window-width="640"
     inkscape:window-height="480"
     id="namedview9"
     showgrid="true"
     inkscape:zoom="12.166667"
     inkscape:cx="1.2328767"
     inkscape:cy="11.342466"
     inkscape:current-layer="svg7">
    <inkscape:grid
       type="xygrid"
       id="grid13" />
  </sodipodi:namedview>
  <defs
     id="defs3">
    <style
       id="current-color-scheme"
       type="text/css">
   .ColorScheme-Text { color:#4d4d4d; }
  </style>
  </defs>
  <path
     style="color:#4d4d4d;fill:currentColor"
     class="ColorScheme-Text"
     d="M 8,0 C 5.230001,0 3,2.230001 3,5 v 6 5 H 4 7 V 15.900391 15.724609 14 6 5 C 7,4.446 7.446,4 8,4 8.554,4 9,4.446 9,5 v 9 1 0.724609 0.175782 V 16 h 1 2 1 V 15 6 5 C 13,2.23 10.769999,0 8,0 Z m 0,1 c 2.215999,0 4,1.784001 4,4 V 11 13.982422 15 H 10.978516 10 V 14.441406 6 5 C 10,3.892001 9.107999,3 8,3 6.892001,3 6,3.892001 6,5 v 9 1 H 4 V 13.982422 11 6 5 C 4,2.784001 5.784001,1 8,1 Z"
     id="path5"
     inkscape:connector-curvature="0" />
</svg>
