<?xml version="1.0" encoding="UTF-8" standalone="no"?>
<svg
   xmlns:dc="http://purl.org/dc/elements/1.1/"
   xmlns:cc="http://creativecommons.org/ns#"
   xmlns:rdf="http://www.w3.org/1999/02/22-rdf-syntax-ns#"
   xmlns:svg="http://www.w3.org/2000/svg"
   xmlns="http://www.w3.org/2000/svg"
   xmlns:sodipodi="http://sodipodi.sourceforge.net/DTD/sodipodi-0.dtd"
   xmlns:inkscape="http://www.inkscape.org/namespaces/inkscape"
   width="16"
   height="16"
   version="1.1"
   viewBox="0 0 16 16"
   id="svg13"
   sodipodi:docname="svn-commit.svg"
   inkscape:version="0.92.3 (2405546, 2018-03-11)">
  <metadata
     id="metadata17">
    <rdf:RDF>
      <cc:Work
         rdf:about="">
        <dc:format>image/svg+xml</dc:format>
        <dc:type
           rdf:resource="http://purl.org/dc/dcmitype/StillImage" />
      </cc:Work>
    </rdf:RDF>
  </metadata>
  <sodipodi:namedview
     pagecolor="#ffffff"
     bordercolor="#666666"
     borderopacity="1"
     objecttolerance="10"
     gridtolerance="10"
     guidetolerance="10"
     inkscape:pageopacity="0"
     inkscape:pageshadow="2"
     inkscape:window-width="640"
     inkscape:window-height="480"
     id="namedview15"
     showgrid="true"
     inkscape:zoom="12.904699"
     inkscape:cx="-12.168451"
     inkscape:cy="11.487312"
     inkscape:current-layer="svg13">
    <inkscape:grid
       type="xygrid"
       id="grid19" />
  </sodipodi:namedview>
  <defs
     id="defs3">
    <style
       id="current-color-scheme"
       type="text/css">
   .ColorScheme-Text { color:#444444; } .ColorScheme-Highlight { color:#4285f4; }
  </style>
  </defs>
  <g
     id="g22"
     transform="translate(-1,-1)">
    <path
       id="circle5"
       d="M 4.5,10 A 2.5,2.5 0 0 0 2,12.5 2.5,2.5 0 0 0 4.5,15 2.5,2.5 0 0 0 7,12.5 2.5,2.5 0 0 0 4.5,10 Z m 0,1 A 1.5,1.5 0 0 1 6,12.5 1.5,1.5 0 0 1 4.5,14 1.5,1.5 0 0 1 3,12.5 1.5,1.5 0 0 1 4.5,11 Z"
       style="fill:#4d4d4d;fill-opacity:1"
       inkscape:connector-curvature="0" />
    <path
       id="circle7"
       d="M 4.5,1 A 2.5,2.5 0 0 0 2,3.5 2.5,2.5 0 0 0 4.5,6 2.5,2.5 0 0 0 7,3.5 2.5,2.5 0 0 0 4.5,1 Z m 0,1 A 1.5,1.5 0 0 1 6,3.5 1.5,1.5 0 0 1 4.5,5 1.5,1.5 0 0 1 3,3.5 1.5,1.5 0 0 1 4.5,2 Z"
       style="fill:#4d4d4d;fill-opacity:1"
       inkscape:connector-curvature="0" />
    <path
       id="circle9"
       d="M 11.5,8 A 2.5,2.5 0 0 0 9,10.5 2.5,2.5 0 0 0 11.5,13 2.5,2.5 0 0 0 14,10.5 2.5,2.5 0 0 0 11.5,8 Z m 0,1 A 1.5,1.5 0 0 1 13,10.5 1.5,1.5 0 0 1 11.5,12 1.5,1.5 0 0 1 10,10.5 1.5,1.5 0 0 1 11.5,9 Z"
       style="fill:#4d4d4d;fill-opacity:1"
       inkscape:connector-curvature="0" />
    <path
       id="path11"
       d="M 5.8515625,4.1445312 A 1.5,1.5 0 0 1 4.5,5 1.5,1.5 0 0 1 4,4.9121094 V 11.087891 A 1.5,1.5 0 0 1 4.5,11 1.5,1.5 0 0 1 5,11.087891 V 5.2929688 c 0.1467652,-0.041974 0.280623,-0.097742 0.4140625,-0.171875 l 4.7343755,4.734375 A 1.5,1.5 0 0 1 10.855469,9.1484375 Z M 10.003906,10.408203 5.7207031,11.632812 A 1.5,1.5 0 0 1 6,12.5 1.5,1.5 0 0 1 5.99609,12.5918 l 4.283207,-1.222659 A 1.5,1.5 0 0 1 10,10.5 1.5,1.5 0 0 1 10.0039,10.4082 Z"
       style="color:#444444;font-style:normal;font-variant:normal;font-weight:normal;font-stretch:normal;font-size:medium;line-height:normal;font-family:sans-serif;font-variant-ligatures:normal;font-variant-position:normal;font-variant-caps:normal;font-variant-numeric:normal;font-variant-alternates:normal;font-feature-settings:normal;text-indent:0;text-align:start;text-decoration:none;text-decoration-line:none;text-decoration-style:solid;text-decoration-color:#000000;letter-spacing:normal;word-spacing:normal;text-transform:none;writing-mode:lr-tb;direction:ltr;text-orientation:mixed;dominant-baseline:auto;baseline-shift:baseline;text-anchor:start;white-space:normal;shape-padding:0;clip-rule:nonzero;display:inline;overflow:visible;visibility:visible;opacity:1;isolation:auto;mix-blend-mode:normal;color-interpolation:sRGB;color-interpolation-filters:linearRGB;solid-color:#000000;solid-opacity:1;vector-effect:none;fill:#4d4d4d;fill-opacity:1;fill-rule:nonzero;stroke:none;stroke-width:1px;stroke-linecap:butt;stroke-linejoin:miter;stroke-miterlimit:4;stroke-dasharray:none;stroke-dashoffset:0;stroke-opacity:1;color-rendering:auto;image-rendering:auto;shape-rendering:auto;text-rendering:auto;enable-background:accumulate"
       inkscape:connector-curvature="0" />
  </g>
  <path
     inkscape:connector-curvature="0"
     style="color:#444444;fill:#4d4d4d"
     class="ColorScheme-Text"
     d="m 10.171875,14.828017 0.707031,0.707031 0.949219,-0.949219 L 13,13.413954 l 1.171875,1.171875 0.949219,0.949219 0.707031,-0.707031 L 14.878906,13.878798 13,11.999892 11.121094,13.878798 Z"
     id="path2" />
</svg>
