<?xml version="1.0" encoding="UTF-8" standalone="no"?>
<svg
   xmlns:dc="http://purl.org/dc/elements/1.1/"
   xmlns:cc="http://creativecommons.org/ns#"
   xmlns:rdf="http://www.w3.org/1999/02/22-rdf-syntax-ns#"
   xmlns:svg="http://www.w3.org/2000/svg"
   xmlns="http://www.w3.org/2000/svg"
   xmlns:sodipodi="http://sodipodi.sourceforge.net/DTD/sodipodi-0.dtd"
   xmlns:inkscape="http://www.inkscape.org/namespaces/inkscape"
   width="16"
   height="16"
   version="1.1"
   id="svg8"
   sodipodi:docname="tab-close.svg"
   inkscape:version="0.92.3 (2405546, 2018-03-11)">
  <metadata
     id="metadata14">
    <rdf:RDF>
      <cc:Work
         rdf:about="">
        <dc:format>image/svg+xml</dc:format>
        <dc:type
           rdf:resource="http://purl.org/dc/dcmitype/StillImage" />
      </cc:Work>
    </rdf:RDF>
  </metadata>
  <defs
     id="defs12" />
  <sodipodi:namedview
     pagecolor="#ffffff"
     bordercolor="#666666"
     borderopacity="1"
     objecttolerance="10"
     gridtolerance="10"
     guidetolerance="10"
     inkscape:pageopacity="0"
     inkscape:pageshadow="2"
     inkscape:window-width="640"
     inkscape:window-height="480"
     id="namedview10"
     showgrid="true"
     inkscape:zoom="18.25"
     inkscape:cx="-1.8630137"
     inkscape:cy="7.5616438"
     inkscape:current-layer="svg8">
    <inkscape:grid
       type="xygrid"
       id="grid18" />
  </sodipodi:namedview>
  <path
     inkscape:connector-curvature="0"
     id="path2"
     style="font-weight:400;font-family:sans-serif;overflow:visible;fill:#4d4d4d"
     overflow="visible"
     d="M 5.994,3 C 4.736,3.015 3.815,2.97 3.062,3.385 A 1.88,1.88 0 0 0 2.225,4.383 C 2.06,4.82 2,5.343 2,6 v 7 H 1 v 1 H 3 V 6 C 3,5.408 3.063,4.994 3.16,4.734 3.258,4.474 3.362,4.363 3.545,4.262 3.91,4.06 4.74,4.015 6,4 h 5 c 1.259,0.015 2.087,0.06 2.453,0.262 0.184,0.1 0.29,0.212 0.387,0.472 C 13.937,4.994 14,5.408 14,6 v 8 h 2 V 13 H 15 V 6 C 15,5.342 14.94,4.821 14.775,4.383 A 1.88,1.88 0 0 0 13.937,3.385 C 13.185,2.969 12.264,3.015 11.006,3 H 5.998 Z" />
  <path
     inkscape:connector-curvature="0"
     id="path4"
     style="font-weight:400;font-family:sans-serif;overflow:visible;fill:#4d4d4d"
     overflow="visible"
     d="M 9.9142136,7.7573597 8.5,9.1715732 7.0857864,7.7573597 6.3786797,8.4644664 7.7928932,9.87868 6.3786797,11.292894 7.0857864,12 8.5,10.585787 9.9142136,12 10.62132,11.292894 9.2071068,9.87868 10.62132,8.4644664 Z" />
</svg>
