<?xml version="1.0" encoding="UTF-8" standalone="no"?>
<svg
   xmlns:dc="http://purl.org/dc/elements/1.1/"
   xmlns:cc="http://creativecommons.org/ns#"
   xmlns:rdf="http://www.w3.org/1999/02/22-rdf-syntax-ns#"
   xmlns:svg="http://www.w3.org/2000/svg"
   xmlns="http://www.w3.org/2000/svg"
   xmlns:sodipodi="http://sodipodi.sourceforge.net/DTD/sodipodi-0.dtd"
   xmlns:inkscape="http://www.inkscape.org/namespaces/inkscape"
   width="16"
   height="16"
   version="1.1"
   id="svg8"
   sodipodi:docname="tab-duplicate.svg"
   inkscape:version="0.92.3 (2405546, 2018-03-11)">
  <metadata
     id="metadata14">
    <rdf:RDF>
      <cc:Work
         rdf:about="">
        <dc:format>image/svg+xml</dc:format>
        <dc:type
           rdf:resource="http://purl.org/dc/dcmitype/StillImage" />
      </cc:Work>
    </rdf:RDF>
  </metadata>
  <defs
     id="defs12" />
  <sodipodi:namedview
     pagecolor="#ffffff"
     bordercolor="#666666"
     borderopacity="1"
     objecttolerance="10"
     gridtolerance="10"
     guidetolerance="10"
     inkscape:pageopacity="0"
     inkscape:pageshadow="2"
     inkscape:window-width="640"
     inkscape:window-height="480"
     id="namedview10"
     showgrid="true"
     inkscape:zoom="12.904699"
     inkscape:cx="-15.204855"
     inkscape:cy="8.5001562"
     inkscape:current-layer="svg8">
    <inkscape:grid
       type="xygrid"
       id="grid18" />
  </sodipodi:namedview>
  <path
     inkscape:connector-curvature="0"
     id="path2"
     style="font-weight:400;font-family:sans-serif;overflow:visible;fill:#4d4d4d"
     overflow="visible"
     d="M 5.994,5 C 4.736,5.015 3.815,4.97 3.062,5.385 A 1.88,1.88 0 0 0 2.225,6.383 C 2.06,6.82 2,7.343 2,8 v 7 H 1 v 1 H 3 V 8 C 3,7.408 3.063,6.994 3.16,6.734 3.258,6.474 3.362,6.363 3.545,6.262 3.91,6.06 4.74,6.015 6,6 h 5 c 1.259,0.015 2.087,0.06 2.453,0.262 0.184,0.1 0.29,0.212 0.387,0.472 C 13.937,6.994 14,7.408 14,8 v 8 h 2 V 15 H 15 V 8 C 15,7.342 14.94,6.821 14.775,6.383 A 1.88,1.88 0 0 0 13.937,5.385 C 13.185,4.969 12.264,5.015 11.006,5 H 5.998 Z" />
  <path
     d="M 5,2 C 3.742,2.015 2.821,1.97 2.068,2.385 A 1.88,1.88 0 0 0 1.231,3.383 C 1.066,3.82 1.006,4.343 1.006,5 v 7 h -1 v 1 h 2 V 5 C 2.006,4.408 2.069,3.994 2.166,3.734 2.264,3.474 2.368,3.363 2.551,3.262 2.916,3.06 3.746,3.015 5.006,3 h 5 c 1.259,0.015 2.087,0.06 2.453,0.262 0.184,0.1 0.29,0.212 0.387,0.472 0.097,0.26 0.16,0.674 0.16,1.266 v 8 h 2 v -1 h -1 V 5 c 0,-0.658 -0.06,-1.179 -0.225,-1.617 A 1.88,1.88 0 0 0 12.943,2.385 C 12.191,1.969 11.27,2.015 10.012,2 H 5.004 Z"
     overflow="visible"
     style="font-weight:400;font-family:sans-serif;overflow:visible;fill:#4d4d4d"
     id="path9"
     inkscape:connector-curvature="0" />
</svg>
