<?xml version="1.0" encoding="UTF-8" standalone="no"?>
<svg
   xmlns:dc="http://purl.org/dc/elements/1.1/"
   xmlns:cc="http://creativecommons.org/ns#"
   xmlns:rdf="http://www.w3.org/1999/02/22-rdf-syntax-ns#"
   xmlns:svg="http://www.w3.org/2000/svg"
   xmlns="http://www.w3.org/2000/svg"
   xmlns:sodipodi="http://sodipodi.sourceforge.net/DTD/sodipodi-0.dtd"
   xmlns:inkscape="http://www.inkscape.org/namespaces/inkscape"
   style="isolation:isolate"
   width="16"
   height="16"
   viewBox="0 0 16 16"
   version="1.1"
   id="svg60"
   sodipodi:docname="taxes-finances.svg"
   inkscape:version="0.92.3 (2405546, 2018-03-11)">
  <metadata
     id="metadata64">
    <rdf:RDF>
      <cc:Work
         rdf:about="">
        <dc:format>image/svg+xml</dc:format>
        <dc:type
           rdf:resource="http://purl.org/dc/dcmitype/StillImage" />
      </cc:Work>
    </rdf:RDF>
  </metadata>
  <sodipodi:namedview
     pagecolor="#ffffff"
     bordercolor="#666666"
     borderopacity="1"
     objecttolerance="10"
     gridtolerance="10"
     guidetolerance="10"
     inkscape:pageopacity="0"
     inkscape:pageshadow="2"
     inkscape:window-width="640"
     inkscape:window-height="480"
     id="namedview62"
     showgrid="true"
     inkscape:zoom="18.25"
     inkscape:cx="7.8042721"
     inkscape:cy="7.5616438"
     inkscape:current-layer="svg60">
    <inkscape:grid
       type="xygrid"
       id="grid892" />
  </sodipodi:namedview>
  <defs
     id="defs56">
    <style
       id="current-color-scheme"
       type="text/css">
   .ColorScheme-Text { color:#808080; } .ColorScheme-Highlight { color:#5294e2; }
  </style>
    <linearGradient
       id="arrongin"
       x1="0%"
       x2="0%"
       y1="0%"
       y2="100%">
      <stop
         offset="0%"
         style="stop-color:#dd9b44; stop-opacity:1"
         id="stop3" />
      <stop
         offset="100%"
         style="stop-color:#ad6c16; stop-opacity:1"
         id="stop5" />
    </linearGradient>
    <linearGradient
       id="aurora"
       x1="0%"
       x2="0%"
       y1="0%"
       y2="100%">
      <stop
         offset="0%"
         style="stop-color:#09D4DF; stop-opacity:1"
         id="stop8" />
      <stop
         offset="100%"
         style="stop-color:#9269F4; stop-opacity:1"
         id="stop10" />
    </linearGradient>
    <linearGradient
       id="fitdance"
       x1="0%"
       x2="0%"
       y1="0%"
       y2="100%">
      <stop
         offset="0%"
         style="stop-color:#1AD6AB; stop-opacity:1"
         id="stop13" />
      <stop
         offset="100%"
         style="stop-color:#329DB6; stop-opacity:1"
         id="stop15" />
    </linearGradient>
    <linearGradient
       id="oomox"
       x1="0%"
       x2="0%"
       y1="0%"
       y2="100%">
      <stop
         offset="0%"
         style="stop-color:#efefe7; stop-opacity:1"
         id="stop18" />
      <stop
         offset="100%"
         style="stop-color:#8f8f8b; stop-opacity:1"
         id="stop20" />
    </linearGradient>
    <linearGradient
       id="rainblue"
       x1="0%"
       x2="0%"
       y1="0%"
       y2="100%">
      <stop
         offset="0%"
         style="stop-color:#00F260; stop-opacity:1"
         id="stop23" />
      <stop
         offset="100%"
         style="stop-color:#0575E6; stop-opacity:1"
         id="stop25" />
    </linearGradient>
    <linearGradient
       id="sunrise"
       x1="0%"
       x2="0%"
       y1="0%"
       y2="100%">
      <stop
         offset="0%"
         style="stop-color: #FF8501; stop-opacity:1"
         id="stop28" />
      <stop
         offset="100%"
         style="stop-color: #FFCB01; stop-opacity:1"
         id="stop30" />
    </linearGradient>
    <linearGradient
       id="telinkrin"
       x1="0%"
       x2="0%"
       y1="0%"
       y2="100%">
      <stop
         offset="0%"
         style="stop-color: #b2ced6; stop-opacity:1"
         id="stop33" />
      <stop
         offset="100%"
         style="stop-color: #6da5b7; stop-opacity:1"
         id="stop35" />
    </linearGradient>
    <linearGradient
       id="60spsycho"
       x1="0%"
       x2="0%"
       y1="0%"
       y2="100%">
      <stop
         offset="0%"
         style="stop-color: #df5940; stop-opacity:1"
         id="stop38" />
      <stop
         offset="25%"
         style="stop-color: #d8d15f; stop-opacity:1"
         id="stop40" />
      <stop
         offset="50%"
         style="stop-color: #e9882a; stop-opacity:1"
         id="stop42" />
      <stop
         offset="100%"
         style="stop-color: #279362; stop-opacity:1"
         id="stop44" />
    </linearGradient>
    <linearGradient
       id="90ssummer"
       x1="0%"
       x2="0%"
       y1="0%"
       y2="100%">
      <stop
         offset="0%"
         style="stop-color: #f618c7; stop-opacity:1"
         id="stop47" />
      <stop
         offset="20%"
         style="stop-color: #94ffab; stop-opacity:1"
         id="stop49" />
      <stop
         offset="50%"
         style="stop-color: #fbfd54; stop-opacity:1"
         id="stop51" />
      <stop
         offset="100%"
         style="stop-color: #0f83ae; stop-opacity:1"
         id="stop53" />
    </linearGradient>
  </defs>
  <path
     style="fill:none;fill-opacity:1;stroke:#4d4d4d;stroke-width:1;stroke-opacity:1"
     d="M 6,2.5 C 2.94475,2.5 0.5,4.94475 0.5,8.0000001 0.5,11.05525 2.94475,13.5 6,13.5 9.05525,13.5 11.5,11.05525 11.5,8.0000001 11.5,4.94475 9.05525,2.5 6,2.5 Z"
     id="path82"
     inkscape:connector-curvature="0" />
  <path
     style="fill:#4d4d4d;fill-opacity:1"
     d="m 9.604,2.209 c 1.921,1.3 3.07,3.471 3.063,5.791 0.007,2.32 -1.141,4.492 -3.063,5.792 C 12.138,13.057 14,10.799 14,8 14,5.2 12.138,2.943 9.604,2.208 Z"
     id="path80" />
  <path
     style="fill:#4d4d4d;fill-opacity:1"
     d="m 11.604,2.209 c 1.921,1.3 3.07,3.471 3.063,5.791 0.007,2.32 -1.141,4.492 -3.063,5.792 C 14.138,13.057 16,10.799 16,8 16,5.2 14.138,2.943 11.604,2.208 Z"
     id="path78" />
  <path
     style="fill:#4d4d4d;fill-opacity:1;stroke-width:1"
     d="M 5.7692662,3.333 H 6.4605445 V 4.396 C 6.8943239,4.45 7.2884171,4.691 7.5569912,5.063 7.8024919,5.396 8,5.943 8,6.541 H 6.6912782 c 0,-0.333 -0.049838,-0.674 -0.1716659,-0.874 C 6.3959391,5.467 6.2639594,5.458 6.0193816,5.458 5.8338717,5.458 5.6585141,5.529 5.5957545,5.729 5.5080757,5.939 5.4619289,6.166 5.461006,6.396 c 0,0.2 0.072912,0.409 0.1356714,0.541 0.1218274,0.134 0.3073373,0.32 0.6146747,0.521 C 6.8269497,7.724 7.2542685,8 7.4997692,8.333 7.8071066,8.667 7.9224734,9.13 7.9224734,9.729 c 0,0.534 -0.1153668,1 -0.4227042,1.334 -0.3082602,0.333 -0.680203,0.536 -1.1730503,0.604 v 1 H 5.7111213 v -1 C 5.2182741,11.599 4.7881864,11.401 4.4808491,11 4.1735118,10.667 4,10.13 4,9.396 h 1.2302722 c 0,0.401 0.046147,0.737 0.2307338,0.937 0.1227503,0.2 0.3128749,0.334 0.5583756,0.334 0.2445778,0 0.3765575,-0.07 0.4993078,-0.271 0.1227504,-0.133 0.1725888,-0.401 0.1725888,-0.667 0,-0.266 -0.049838,-0.466 -0.1716659,-0.666 C 6.3959391,8.929 6.2058145,8.737 5.9612367,8.604 5.3456391,8.339 4.9229349,8.063 4.6146746,7.729 4.3073373,7.396 4.1735118,6.932 4.1735118,6.333 4.1735118,5.8 4.3073373,5.333 4.6146746,5 4.9229349,4.667 5.276419,4.396 5.7683433,4.396 Z"
     id="path58"
     inkscape:connector-curvature="0" />
</svg>
