<?xml version="1.0" encoding="UTF-8" standalone="no"?>
<svg
   xmlns:dc="http://purl.org/dc/elements/1.1/"
   xmlns:cc="http://creativecommons.org/ns#"
   xmlns:rdf="http://www.w3.org/1999/02/22-rdf-syntax-ns#"
   xmlns:svg="http://www.w3.org/2000/svg"
   xmlns="http://www.w3.org/2000/svg"
   xmlns:sodipodi="http://sodipodi.sourceforge.net/DTD/sodipodi-0.dtd"
   xmlns:inkscape="http://www.inkscape.org/namespaces/inkscape"
   viewBox="0 0 16 16"
   version="1.1"
   id="svg7"
   sodipodi:docname="text_letter_spacingX.svg"
   width="16"
   height="16"
   inkscape:version="0.92.3 (2405546, 2018-03-11)">
  <metadata
     id="metadata11">
    <rdf:RDF>
      <cc:Work
         rdf:about="">
        <dc:format>image/svg+xml</dc:format>
        <dc:type
           rdf:resource="http://purl.org/dc/dcmitype/StillImage" />
        <dc:title></dc:title>
      </cc:Work>
    </rdf:RDF>
  </metadata>
  <sodipodi:namedview
     pagecolor="#ffffff"
     bordercolor="#666666"
     borderopacity="1"
     objecttolerance="10"
     gridtolerance="10"
     guidetolerance="10"
     inkscape:pageopacity="0"
     inkscape:pageshadow="2"
     inkscape:window-width="640"
     inkscape:window-height="480"
     id="namedview9"
     showgrid="true"
     inkscape:zoom="12.166667"
     inkscape:cx="1.2328767"
     inkscape:cy="11.342466"
     inkscape:current-layer="svg7">
    <inkscape:grid
       type="xygrid"
       id="grid13" />
  </sodipodi:namedview>
  <defs
     id="defs3">
    <style
       id="current-color-scheme"
       type="text/css">
   .ColorScheme-Text { color:#4d4d4d; }
  </style>
  </defs>
  <path
     style="color:#4d4d4d;fill:currentColor"
     class="ColorScheme-Text"
     d="M 0,0 V 2 3 5 6 H 1 3 C 4.108,6 5,5.108 5,4 5,3.18906 4.518735,2.4981037 3.828125,2.1835938 3.934075,1.9777437 4,1.74831 4,1.5 4,0.669 3.331,0 2.5,0 H 1 Z m 11,0 v 6 h 2 1 c 1.10801,0 2,-0.89199 2,-2 V 2 C 16,0.89199 15.10801,0 14,0 H 13 Z M 1,1 H 2.5 C 2.777,1 3,1.223 3,1.5 3,1.777 2.777,2 2.5,2 H 1 Z m 11,0 h 1 1 c 0.55401,0 1,0.44599 1,1 v 2 c 0,0.55401 -0.44599,1 -1,1 H 13 12 Z M 1,3 H 2.5 3 C 3.554,3 4,3.446 4,4 4,4.554 3.554,5 3,5 H 1 Z M 7,3 V 4 H 9 V 3 Z M 1,9 v 1 H 3 V 9 Z m 4,0 v 1 H 7 V 9 Z m 4,0 v 1 h 2 V 9 Z m 4,0 v 1 h 2 V 9 Z m -11,3 -2,2 2,2 z m 12,0 v 4 l 2,-2 z m -6,1 c -0.554,0 -1,0.446 -1,1 0,0.554 0.446,1 1,1 0.554,0 1,-0.446 1,-1 0,-0.554 -0.446,-1 -1,-1 z"
     id="path5"
     inkscape:connector-curvature="0" />
</svg>
