<?xml version="1.0" encoding="UTF-8" standalone="no"?>
<svg
   xmlns:dc="http://purl.org/dc/elements/1.1/"
   xmlns:cc="http://creativecommons.org/ns#"
   xmlns:rdf="http://www.w3.org/1999/02/22-rdf-syntax-ns#"
   xmlns:svg="http://www.w3.org/2000/svg"
   xmlns="http://www.w3.org/2000/svg"
   xmlns:sodipodi="http://sodipodi.sourceforge.net/DTD/sodipodi-0.dtd"
   xmlns:inkscape="http://www.inkscape.org/namespaces/inkscape"
   viewBox="0 0 16 16"
   version="1.1"
   id="svg9"
   sodipodi:docname="text_remove_kernsX.svg"
   width="16"
   height="16"
   inkscape:version="0.92.3 (2405546, 2018-03-11)">
  <metadata
     id="metadata13">
    <rdf:RDF>
      <cc:Work
         rdf:about="">
        <dc:format>image/svg+xml</dc:format>
        <dc:type
           rdf:resource="http://purl.org/dc/dcmitype/StillImage" />
        <dc:title></dc:title>
      </cc:Work>
    </rdf:RDF>
  </metadata>
  <sodipodi:namedview
     pagecolor="#ffffff"
     bordercolor="#666666"
     borderopacity="1"
     objecttolerance="10"
     gridtolerance="10"
     guidetolerance="10"
     inkscape:pageopacity="0"
     inkscape:pageshadow="2"
     inkscape:window-width="640"
     inkscape:window-height="480"
     id="namedview11"
     showgrid="true"
     inkscape:zoom="34.41253"
     inkscape:cx="4.9246162"
     inkscape:cy="7.9481529"
     inkscape:current-layer="svg9">
    <inkscape:grid
       type="xygrid"
       id="grid19" />
  </sodipodi:namedview>
  <defs
     id="defs3">
    <style
       id="current-color-scheme"
       type="text/css">
   .ColorScheme-Text { color:#4d4d4d; } .ColorScheme-NegativeText { color:#da4453; }
  </style>
  </defs>
  <path
     style="color:#4d4d4d;fill:currentColor;stroke-width:0.99999994"
     class="ColorScheme-Text"
     d="m -2.9448569e-8,1.000036 c 0,0 3.606967129448569,12.010633 3.611198929448569,11.995801 0.00948,0.0058 0.3082464,0.0018 0.5317103,0 0.1418136,-0.0012 0.1734824,0.0012 0.3374315,0 0.3194438,0.0026 0.7113621,0.0079 0.7242849,0 0.00436,0.01482 3.6111993,-11.995801 3.6111993,-11.995801 H 7.8529518 L 4.6064515,11.282151 H 4.2025561 c 0,0 -3.2402377,-10.28246007 -3.23968337,-10.282115 z M 9.9286665,1.000036 6.145344,12.87869 6.1078513,12.995837 H 7.0996957 L 8.4647595,8.7116223 H 12.706512 12.986 14 L 10.930737,1.000036 Z m 0.4447965,1.7136858 h 0.224954 l 2.046745,5.1410577 H 8.7357274 Z"
     id="path5"
     inkscape:connector-curvature="0" />
  <path
     style="color:#da4453;fill:currentColor;stroke-width:1"
     class="ColorScheme-NegativeText"
     d="m 11.546875,9.6666666 -0.880208,0.8802084 1.786458,1.786458 -1.786458,1.786459 L 11.546875,15 13.333333,13.213541 15.119792,15 16,14.119792 14.213541,12.333333 16,10.546875 15.119792,9.6666666 13.333333,11.453125 Z"
     id="path7"
     inkscape:connector-curvature="0" />
</svg>
