<?xml version="1.0" encoding="UTF-8" standalone="no"?>
<svg
   xmlns:dc="http://purl.org/dc/elements/1.1/"
   xmlns:cc="http://creativecommons.org/ns#"
   xmlns:rdf="http://www.w3.org/1999/02/22-rdf-syntax-ns#"
   xmlns:svg="http://www.w3.org/2000/svg"
   xmlns="http://www.w3.org/2000/svg"
   xmlns:sodipodi="http://sodipodi.sourceforge.net/DTD/sodipodi-0.dtd"
   xmlns:inkscape="http://www.inkscape.org/namespaces/inkscape"
   viewBox="0 0 16 16"
   version="1.1"
   id="svg7"
   sodipodi:docname="tool-sprayX.svg"
   inkscape:version="0.92.3 (2405546, 2018-03-11)"
   width="16"
   height="16">
  <metadata
     id="metadata11">
    <rdf:RDF>
      <cc:Work
         rdf:about="">
        <dc:format>image/svg+xml</dc:format>
        <dc:type
           rdf:resource="http://purl.org/dc/dcmitype/StillImage" />
        <dc:title></dc:title>
      </cc:Work>
    </rdf:RDF>
  </metadata>
  <sodipodi:namedview
     pagecolor="#ffffff"
     bordercolor="#666666"
     borderopacity="1"
     objecttolerance="10"
     gridtolerance="10"
     guidetolerance="10"
     inkscape:pageopacity="0"
     inkscape:pageshadow="2"
     inkscape:window-width="1920"
     inkscape:window-height="1009"
     id="namedview9"
     showgrid="true"
     inkscape:zoom="13.906433"
     inkscape:cx="2.3416135"
     inkscape:cy="9.6077959"
     inkscape:window-x="0"
     inkscape:window-y="34"
     inkscape:window-maximized="1"
     inkscape:current-layer="svg7">
    <inkscape:grid
       type="xygrid"
       id="grid13" />
  </sodipodi:namedview>
  <defs
     id="defs3">
    <style
       id="current-color-scheme"
       type="text/css">
   .ColorScheme-Text { color:#4d4d4d; }
  </style>
  </defs>
  <g
     id="g11"
     transform="translate(-4,4)">
    <path
       style="color:#4d4d4d;fill:#4d4d4d"
       inkscape:connector-curvature="0"
       id="path5"
       d="m 5,-4 a 1,0.99999851 0 0 0 -1,1 1,0.99999851 0 0 0 1,1 1,0.99999851 0 0 0 1,-1 1,0.99999851 0 0 0 -1,-1 z m 4,0 a 1,1 0 0 0 -1,1 1,1 0 0 0 1,1 1,1 0 0 0 1,-1 1,1 0 0 0 -1,-1 z m 4,1 a 1,1 0 0 0 -1,1 1,1 0 0 0 1,1 1,1 0 0 0 1,-1 1,1 0 0 0 -1,-1 z m 3.5,0 A 1.5,1.5 0 0 0 15,-1.5 V 0 h -1 v 2 h -1 v 10 h 7 V 2 H 19 V 0 H 18 V -1.5 A 1.5,1.5 0 0 0 16.5,-3 Z M 5,-1 A 0.99999791,1 0 0 0 4,0 0.99999791,1 0 0 0 5,1 0.99999791,1 0 0 0 6,0 0.99999791,1 0 0 0 5,-1 Z m 4,0 A 1,1 0 0 0 8,0 1,1 0 0 0 9,1 1,1 0 0 0 10,0 1,1 0 0 0 9,-1 Z M 5,2 A 0.99999791,1 0 0 0 4,3 0.99999791,1 0 0 0 5,4 0.99999791,1 0 0 0 6,3 0.99999791,1 0 0 0 5,2 Z"
       class="ColorScheme-Text" />
    <path
       sodipodi:nodetypes="scscssssssssssscscscssssscscsc"
       style="color:#4d4d4d;fill:#f34f17;fill-opacity:1"
       inkscape:connector-curvature="0"
       class="ColorScheme-Text"
       d="m 5,-4 c -0.5522853,0 -1.0000008,0.4477155 -1,1 -8e-7,0.5522845 0.4477147,1 1,1 0.5522853,0 1.0000008,-0.4477155 1,-1 8e-7,-0.5522845 -0.4477147,-1 -1,-1 z m 4,0 c -0.5522847,0 -1,0.4477153 -1,1 0,0.5522847 0.4477153,1 1,1 0.5522847,0 1,-0.4477153 1,-1 0,-0.5522847 -0.4477153,-1 -1,-1 z m 4,1 c -0.552285,0 -1,0.4477153 -1,1 0,0.5522847 0.447715,1 1,1 0.552285,0 1,-0.4477153 1,-1 0,-0.5522847 -0.447715,-1 -1,-1 z m -8,2 c -0.5522844,-1.2e-6 -1,0.4477144 -1,1 0,0.5522856 0.4477156,1.0000012 1,1 0.5522844,1.2e-6 1,-0.4477144 1,-1 0,-0.5522856 -0.4477156,-1.0000012 -1,-1 z m 4,0 C 8.4477153,-1 8,-0.5522847 8,0 8,0.5522847 8.4477153,1 9,1 9.5522847,1 10,0.5522847 10,0 10,-0.5522847 9.5522847,-1 9,-1 Z M 5,2 C 4.4477156,1.9999988 4,2.447714 4,3 4,3.552286 4.4477156,4.000001 5,4 5.5522844,4.000001 6,3.552286 6,3 6,2.447714 5.5522844,1.9999988 5,2 Z"
       id="path824" />
  </g>
</svg>
