<?xml version="1.0" encoding="UTF-8" standalone="no"?>
<svg
   xmlns:dc="http://purl.org/dc/elements/1.1/"
   xmlns:cc="http://creativecommons.org/ns#"
   xmlns:rdf="http://www.w3.org/1999/02/22-rdf-syntax-ns#"
   xmlns:svg="http://www.w3.org/2000/svg"
   xmlns="http://www.w3.org/2000/svg"
   xmlns:sodipodi="http://sodipodi.sourceforge.net/DTD/sodipodi-0.dtd"
   xmlns:inkscape="http://www.inkscape.org/namespaces/inkscape"
   viewBox="0 0 16 16"
   version="1.1"
   id="svg7"
   sodipodi:docname="tool-measureX.svg"
   width="16"
   height="16"
   inkscape:version="0.92.3 (2405546, 2018-03-11)">
  <metadata
     id="metadata11">
    <rdf:RDF>
      <cc:Work
         rdf:about="">
        <dc:format>image/svg+xml</dc:format>
        <dc:type
           rdf:resource="http://purl.org/dc/dcmitype/StillImage" />
        <dc:title></dc:title>
      </cc:Work>
    </rdf:RDF>
  </metadata>
  <sodipodi:namedview
     pagecolor="#ffffff"
     bordercolor="#666666"
     borderopacity="1"
     objecttolerance="10"
     gridtolerance="10"
     guidetolerance="10"
     inkscape:pageopacity="0"
     inkscape:pageshadow="2"
     inkscape:window-width="640"
     inkscape:window-height="480"
     id="namedview9"
     showgrid="true"
     inkscape:zoom="17.206265"
     inkscape:cx="3.4558056"
     inkscape:cy="8.8208059"
     inkscape:current-layer="svg7">
    <inkscape:grid
       type="xygrid"
       id="grid13" />
  </sodipodi:namedview>
  <defs
     id="defs3">
    <style
       id="current-color-scheme"
       type="text/css">
   .ColorScheme-Text { color:#4d4d4d; }
  </style>
  </defs>
  <path
     style="color:#4d4d4d;fill:#4d4d4d"
     d="M 0 0 L 0 7 L 1 7 L 16 7 L 16 6 L 16 1 L 16 0 L 1 0 L 0 0 z M 1 1 L 2 1 L 3 1 L 3 3 L 4 3 L 4 1 L 5 1 L 5 4 L 6 4 L 6 1 L 7 1 L 7 3 L 8 3 L 8 1 L 9 1 L 9 3 L 10 3 L 10 1 L 11 1 L 11 4 L 12 4 L 12 1 L 14 1 L 15 1 L 15 6 L 1 6 L 1 4 L 1 1 z "
     id="path21" />
  <path
     style="color:#4d4d4d;fill:#4d4d4d"
     d="m 3,10 -3,3 3,3 z"
     id="path17"
     inkscape:connector-curvature="0" />
  <path
     style="color:#4d4d4d;fill:#4d4d4d"
     d="m 13,10 v 6 l 3,-3 z"
     id="path5" />
</svg>
