<?xml version="1.0" encoding="UTF-8" standalone="no"?>
<svg
   xmlns:dc="http://purl.org/dc/elements/1.1/"
   xmlns:cc="http://creativecommons.org/ns#"
   xmlns:rdf="http://www.w3.org/1999/02/22-rdf-syntax-ns#"
   xmlns:svg="http://www.w3.org/2000/svg"
   xmlns="http://www.w3.org/2000/svg"
   xmlns:sodipodi="http://sodipodi.sourceforge.net/DTD/sodipodi-0.dtd"
   xmlns:inkscape="http://www.inkscape.org/namespaces/inkscape"
   width="16"
   height="16"
   version="1.1"
   id="svg8"
   sodipodi:docname="tools-media-optical-burn-image.svg"
   inkscape:version="0.92.3 (2405546, 2018-03-11)">
  <metadata
     id="metadata14">
    <rdf:RDF>
      <cc:Work
         rdf:about="">
        <dc:format>image/svg+xml</dc:format>
        <dc:type
           rdf:resource="http://purl.org/dc/dcmitype/StillImage" />
      </cc:Work>
    </rdf:RDF>
  </metadata>
  <defs
     id="defs12" />
  <sodipodi:namedview
     pagecolor="#ffffff"
     bordercolor="#666666"
     borderopacity="1"
     objecttolerance="10"
     gridtolerance="10"
     guidetolerance="10"
     inkscape:pageopacity="0"
     inkscape:pageshadow="2"
     inkscape:window-width="640"
     inkscape:window-height="480"
     id="namedview10"
     showgrid="true"
     inkscape:zoom="18.25"
     inkscape:cx="4.3445451"
     inkscape:cy="10.305331"
     inkscape:current-layer="svg8">
    <inkscape:grid
       type="xygrid"
       id="grid823" />
  </sodipodi:namedview>
  <path
     inkscape:connector-curvature="0"
     id="path2"
     style="fill:#4d4d4d"
     d="M 6,5 A 3,3 0 0 0 3,8 3,3 0 0 0 6,11 3,3 0 0 0 9,8 3,3 0 0 0 6,5 Z M 6,6.5 A 1.5,1.5 0 0 1 7.5,8 1.5,1.5 0 0 1 6,9.5 1.5,1.5 0 0 1 4.5,8 1.5,1.5 0 0 1 6,6.5 Z" />
  <circle
     style="opacity:1;fill:none;fill-opacity:1;fill-rule:nonzero;stroke:#4d4d4d;stroke-width:1;stroke-linejoin:miter;stroke-miterlimit:4;stroke-dasharray:none;stroke-opacity:1;paint-order:stroke fill markers"
     id="path825"
     cx="5.9452057"
     cy="8.0136986"
     r="5.5" />
  <path
     style="opacity:1;fill:#4d4d4d;fill-opacity:1;fill-rule:nonzero;stroke:none;stroke-width:1;stroke-linejoin:miter;stroke-miterlimit:4;stroke-dasharray:none;stroke-opacity:1;paint-order:stroke fill markers"
     d="M 8 1 L 8 2 L 14 2 L 14 14 L 8 14 L 8 15 L 15 15 L 15 14 L 15 2 L 15 1 L 8 1 z "
     id="rect827" />
</svg>
