<?xml version="1.0" encoding="UTF-8" standalone="no"?>
<svg
   xmlns:dc="http://purl.org/dc/elements/1.1/"
   xmlns:cc="http://creativecommons.org/ns#"
   xmlns:rdf="http://www.w3.org/1999/02/22-rdf-syntax-ns#"
   xmlns:svg="http://www.w3.org/2000/svg"
   xmlns="http://www.w3.org/2000/svg"
   xmlns:sodipodi="http://sodipodi.sourceforge.net/DTD/sodipodi-0.dtd"
   xmlns:inkscape="http://www.inkscape.org/namespaces/inkscape"
   width="16"
   height="16"
   version="1.1"
   id="svg8"
   sodipodi:docname="tools-media-optical-copy.svg"
   inkscape:version="0.92.3 (2405546, 2018-03-11)">
  <metadata
     id="metadata14">
    <rdf:RDF>
      <cc:Work
         rdf:about="">
        <dc:format>image/svg+xml</dc:format>
        <dc:type
           rdf:resource="http://purl.org/dc/dcmitype/StillImage" />
      </cc:Work>
    </rdf:RDF>
  </metadata>
  <defs
     id="defs12" />
  <sodipodi:namedview
     pagecolor="#ffffff"
     bordercolor="#666666"
     borderopacity="1"
     objecttolerance="10"
     gridtolerance="10"
     guidetolerance="10"
     inkscape:pageopacity="0"
     inkscape:pageshadow="2"
     inkscape:window-width="640"
     inkscape:window-height="480"
     id="namedview10"
     showgrid="true"
     inkscape:zoom="12.904699"
     inkscape:cx="4.2346491"
     inkscape:cy="6.1713733"
     inkscape:current-layer="svg8">
    <inkscape:grid
       type="xygrid"
       id="grid823" />
  </sodipodi:namedview>
  <g
     id="g871"
     transform="translate(-16.054794,-1.9863014)">
    <g
       id="g24"
       transform="translate(18.054794,1.9863014)">
      <path
         d="M 6,5 A 3,3 0 0 0 3,8 3,3 0 0 0 6,11 3,3 0 0 0 9,8 3,3 0 0 0 6,5 Z M 6,6.5 A 1.5,1.5 0 0 1 7.5,8 1.5,1.5 0 0 1 6,9.5 1.5,1.5 0 0 1 4.5,8 1.5,1.5 0 0 1 6,6.5 Z"
         style="fill:#4d4d4d"
         id="path20"
         inkscape:connector-curvature="0" />
      <circle
         r="5.5"
         cy="8.0136986"
         cx="5.9452057"
         id="circle22"
         style="opacity:1;fill:none;fill-opacity:1;fill-rule:nonzero;stroke:#4d4d4d;stroke-width:1;stroke-linejoin:miter;stroke-miterlimit:4;stroke-dasharray:none;stroke-opacity:1;paint-order:stroke fill markers" />
    </g>
    <path
       d="m 24.054794,6.9863014 a 3,3 0 0 0 -3,3 3,3 0 0 0 3,2.9999996 3,3 0 0 0 3,-2.9999996 3,3 0 0 0 -3,-3 z m 0,1.5 a 1.5,1.5 0 0 1 1.5,1.5 1.5,1.5 0 0 1 -1.5,1.4999996 1.5,1.5 0 0 1 -1.5,-1.4999996 1.5,1.5 0 0 1 1.5,-1.5 z"
       style="fill:#4d4d4d"
       id="path850"
       inkscape:connector-curvature="0" />
  </g>
  <path
     style="color:#000000;font-style:normal;font-variant:normal;font-weight:normal;font-stretch:normal;font-size:medium;line-height:normal;font-family:sans-serif;font-variant-ligatures:normal;font-variant-position:normal;font-variant-caps:normal;font-variant-numeric:normal;font-variant-alternates:normal;font-feature-settings:normal;text-indent:0;text-align:start;text-decoration:none;text-decoration-line:none;text-decoration-style:solid;text-decoration-color:#000000;letter-spacing:normal;word-spacing:normal;text-transform:none;writing-mode:lr-tb;direction:ltr;text-orientation:mixed;dominant-baseline:auto;baseline-shift:baseline;text-anchor:start;white-space:normal;shape-padding:0;clip-rule:nonzero;display:inline;overflow:visible;visibility:visible;opacity:1;isolation:auto;mix-blend-mode:normal;color-interpolation:sRGB;color-interpolation-filters:linearRGB;solid-color:#000000;solid-opacity:1;vector-effect:none;fill:#4d4d4d;fill-opacity:1;fill-rule:nonzero;stroke:none;stroke-width:1;stroke-linecap:butt;stroke-linejoin:miter;stroke-miterlimit:4;stroke-dasharray:none;stroke-dashoffset:0;stroke-opacity:1;paint-order:stroke fill markers;color-rendering:auto;image-rendering:auto;shape-rendering:auto;text-rendering:auto;enable-background:accumulate"
     d="M 8,0 C 3.5876441,0 0,3.5876441 0,8 c 0,4.072924 3.0592939,7.437218 7,7.931641 V 14.921875 C 3.6047496,14.436878 1,11.531397 1,8 1,4.1280842 4.1280842,1 8,1 Z"
     id="path883"
     inkscape:connector-curvature="0"
     sodipodi:nodetypes="csccscc" />
</svg>
