<?xml version="1.0" encoding="UTF-8" standalone="no"?>
<svg
   xmlns:dc="http://purl.org/dc/elements/1.1/"
   xmlns:cc="http://creativecommons.org/ns#"
   xmlns:rdf="http://www.w3.org/1999/02/22-rdf-syntax-ns#"
   xmlns:svg="http://www.w3.org/2000/svg"
   xmlns="http://www.w3.org/2000/svg"
   xmlns:sodipodi="http://sodipodi.sourceforge.net/DTD/sodipodi-0.dtd"
   xmlns:inkscape="http://www.inkscape.org/namespaces/inkscape"
   viewBox="0 0 16 16"
   version="1.1"
   id="svg7"
   sodipodi:docname="tool-tweakX.svg"
   width="16"
   height="16"
   inkscape:version="0.92.3 (2405546, 2018-03-11)">
  <metadata
     id="metadata11">
    <rdf:RDF>
      <cc:Work
         rdf:about="">
        <dc:format>image/svg+xml</dc:format>
        <dc:type
           rdf:resource="http://purl.org/dc/dcmitype/StillImage" />
        <dc:title></dc:title>
      </cc:Work>
    </rdf:RDF>
  </metadata>
  <sodipodi:namedview
     pagecolor="#ffffff"
     bordercolor="#666666"
     borderopacity="1"
     objecttolerance="10"
     gridtolerance="10"
     guidetolerance="10"
     inkscape:pageopacity="0"
     inkscape:pageshadow="2"
     inkscape:window-width="640"
     inkscape:window-height="480"
     id="namedview9"
     showgrid="true"
     inkscape:zoom="12.166667"
     inkscape:cx="1.2328767"
     inkscape:cy="11.342466"
     inkscape:current-layer="svg7">
    <inkscape:grid
       type="xygrid"
       id="grid13" />
  </sodipodi:namedview>
  <defs
     id="defs3">
    <style
       id="current-color-scheme"
       type="text/css">
   .ColorScheme-Text { color:#4d4d4d; }
  </style>
  </defs>
  <path
     class="ColorScheme-Text"
     d="M 10.006837,0.99733174 C 8.3124965,0.95723174 7.0662615,1.8929679 6.2353515,3.1887379 5.4040917,4.485038 4.9039949,6.1498397 4.4873049,7.7961597 c -0.41669,1.64632 -0.7454331,3.2798213 -1.1582032,4.4570313 -0.2063899,0.5886 -0.4374818,1.058827 -0.6699218,1.347657 -0.23244,0.28882 -0.418945,0.391564 -0.671875,0.396484 -0.86069,1.7e-4 -1.9902344,0 -1.9902344,0 v 1 c 0,0 1.13743,1.7e-4 2,0 h 0.00391 0.00586 c 0.58045,-0.0113 1.0788307,-0.331121 1.4316406,-0.769531 0.3528201,-0.43841 0.6079544,-0.999902 0.8339844,-1.644531 0.45206,-1.289271 0.7770669,-2.9290793 1.1855469,-4.5429693 0.40848,-1.61389 0.9026501,-3.1951703 1.6191401,-4.3125002 0.716496,-1.11733 1.571029,-1.7627788 2.908199,-1.7304688 h 0.0039 0.0039 c 2.7125205,0.0218 3.8640385,1.1389731 4.4550785,2.2519531 0.38885,0.73226 0.328188,1.0493438 0.361328,1.4648438 -1.69952,-0.75477 -3.135651,-0.9514288 -4.144531,-0.4179688 -1.2018805,0.63551 -1.7475785,1.9798659 -1.8359385,3.3847659 -0.0884,1.4049103 0.256328,2.9272143 0.955078,4.1464843 0.6987535,1.21926 1.8093835,2.170522 3.2129045,2.169922 1.548359,0.0148 3.005858,0 3.005858,0 l -0.01172,-1 c 0,0 -1.450955,0.0148 -2.990236,0 h -0.002 -0.0019 c -0.951833,4e-4 -1.758336,-0.643049 -2.345706,-1.667969 -0.58736,-1.02492 -0.8991085,-2.3950873 -0.8242185,-3.5859373 0.0749,-1.19084 0.5138385,-2.146273 1.3046885,-2.564453 0.79085,-0.4181804 2.0969,-0.3923541 4.11914,0.753906 l 0.710937,0.402344 0.03516,-0.816407 c 0,0 0.0644,-1.3627609 -0.666016,-2.7382809 -0.729743,-1.37418 -2.326279,-2.7564531 -5.322269,-2.78320306 z"
     id="path5"
     inkscape:connector-curvature="0"
     style="color:#4d4d4d;fill:#4d4d4d" />
</svg>
