<?xml version="1.0" encoding="UTF-8" standalone="no"?>
<svg
   xmlns:dc="http://purl.org/dc/elements/1.1/"
   xmlns:cc="http://creativecommons.org/ns#"
   xmlns:rdf="http://www.w3.org/1999/02/22-rdf-syntax-ns#"
   xmlns:svg="http://www.w3.org/2000/svg"
   xmlns="http://www.w3.org/2000/svg"
   xmlns:sodipodi="http://sodipodi.sourceforge.net/DTD/sodipodi-0.dtd"
   xmlns:inkscape="http://www.inkscape.org/namespaces/inkscape"
   width="16"
   height="16"
   version="1.1"
   id="svg4"
   sodipodi:docname="view-calendar.svg"
   inkscape:version="0.92.3 (2405546, 2018-03-11)">
  <metadata
     id="metadata10">
    <rdf:RDF>
      <cc:Work
         rdf:about="">
        <dc:format>image/svg+xml</dc:format>
        <dc:type
           rdf:resource="http://purl.org/dc/dcmitype/StillImage" />
      </cc:Work>
    </rdf:RDF>
  </metadata>
  <defs
     id="defs8" />
  <sodipodi:namedview
     pagecolor="#ffffff"
     bordercolor="#666666"
     borderopacity="1"
     objecttolerance="10"
     gridtolerance="10"
     guidetolerance="10"
     inkscape:pageopacity="0"
     inkscape:pageshadow="2"
     inkscape:window-width="640"
     inkscape:window-height="480"
     id="namedview6"
     showgrid="false"
     inkscape:zoom="12.904699"
     inkscape:cx="10.664342"
     inkscape:cy="6.4808239"
     inkscape:current-layer="svg4" />
  <path
     style="fill:#4d4d4d;fill-opacity:1"
     d="M 6,0 5,0.25 V 1 H 6 Z M 6,1 V 2 H 5 V 1 H 4.9941 C 3.7361,1.015 2.815459,0.9697656 2.062459,1.3847656 1.686459,1.5917656 1.387615,1.9448125 1.222615,2.3828125 1.058656,2.8208125 1,3.343 1,4 v 8 c 0,0.658 0.05766,1.179188 0.222656,1.617188 0.164,0.439 0.462844,0.789093 0.839844,0.996093 C 2.8145,15.029281 3.736141,14.985 4.994141,15 H 8.4375 10 11.005859 c 1.258,-0.015 2.179641,0.02928 2.931641,-0.386719 0.377,-0.207 0.675844,-0.557093 0.839844,-0.996093 C 14.94234,13.179187 15,12.658 15,12 V 10 7.78125 4 C 15,3.342 14.940391,2.8208125 14.775391,2.3828125 A 1.88,1.88 0 0 0 13.9375,1.3847656 C 13.1845,0.96876562 12.263859,1.015 11.005859,1 H 11 V 2 H 10 V 1 Z m 4,0 h 1 V 0 L 10,0.25 Z M 5.005859,5 H 11 c 1.26,0.015 2.087125,0.059719 2.453125,0.2617188 0.184,0.1 0.289719,0.2126562 0.386719,0.4726562 C 13.936844,5.994375 14,7 14,7 V 7.78125 10 12 c 0,0.592 -0.06316,1.005625 -0.160156,1.265625 -0.097,0.26 -0.202719,0.372656 -0.386719,0.472656 C 13.087125,13.94028 12.26,13.985 11,14 H 10 8.4375 5 C 3.74,13.985 2.912875,13.94028 2.546875,13.738281 c -0.184,-0.1 -0.289719,-0.212656 -0.386719,-0.472656 C 2.063156,13.005625 2,12.592 2,12 V 7 C 2,6.408 2.06316,5.994375 2.160156,5.734375 2.258156,5.474375 2.362875,5.3627188 2.546875,5.2617188 2.913875,5.0587188 3.741859,5.015 5.005859,5 Z"
     id="path836"
     inkscape:connector-curvature="0" />
</svg>
