<?xml version="1.0" encoding="UTF-8" standalone="no"?>
<svg
   xmlns:dc="http://purl.org/dc/elements/1.1/"
   xmlns:cc="http://creativecommons.org/ns#"
   xmlns:rdf="http://www.w3.org/1999/02/22-rdf-syntax-ns#"
   xmlns:svg="http://www.w3.org/2000/svg"
   xmlns="http://www.w3.org/2000/svg"
   xmlns:sodipodi="http://sodipodi.sourceforge.net/DTD/sodipodi-0.dtd"
   xmlns:inkscape="http://www.inkscape.org/namespaces/inkscape"
   width="16"
   height="16"
   version="1.1"
   id="svg4"
   sodipodi:docname="view-time-schedule-baselined-add.svg"
   inkscape:version="0.92.3 (2405546, 2018-03-11)">
  <metadata
     id="metadata10">
    <rdf:RDF>
      <cc:Work
         rdf:about="">
        <dc:format>image/svg+xml</dc:format>
        <dc:type
           rdf:resource="http://purl.org/dc/dcmitype/StillImage" />
      </cc:Work>
    </rdf:RDF>
  </metadata>
  <defs
     id="defs8" />
  <sodipodi:namedview
     pagecolor="#ffffff"
     bordercolor="#666666"
     borderopacity="1"
     objecttolerance="10"
     gridtolerance="10"
     guidetolerance="10"
     inkscape:pageopacity="0"
     inkscape:pageshadow="2"
     inkscape:window-width="640"
     inkscape:window-height="480"
     id="namedview6"
     showgrid="true"
     inkscape:zoom="25.809398"
     inkscape:cx="9.7183202"
     inkscape:cy="4.7450612"
     inkscape:current-layer="svg4">
    <inkscape:grid
       type="xygrid"
       id="grid7" />
  </sodipodi:namedview>
  <path
     style="fill:#4d4d4d;fill-opacity:1"
     d="M 6 0 L 5 0.25 L 5 1 L 6 1 L 6 0 z M 6 1 L 6 2 L 5 2 L 5 1 L 4.9941406 1 C 3.7361406 1.015 2.8155 0.96976562 2.0625 1.3847656 C 1.6865 1.5917656 1.3876562 1.9448125 1.2226562 2.3828125 C 1.0586973 2.8208125 1 3.343 1 4 L 1 12 C 1 12.658 1.0576602 13.179187 1.2226562 13.617188 C 1.3866562 14.056188 1.6855 14.406281 2.0625 14.613281 C 2.8145 15.029281 3.7361406 14.985 4.9941406 15 L 8.4375 15 L 10 15 L 10 14 L 8.4375 14 L 5 14 C 3.74 13.985 2.912875 13.94028 2.546875 13.738281 C 2.362875 13.638281 2.2571562 13.525625 2.1601562 13.265625 C 2.0631563 13.005625 2 12.592 2 12 L 2 7 C 2 6.408 2.0631602 5.994375 2.1601562 5.734375 C 2.2581562 5.474375 2.362875 5.3627187 2.546875 5.2617188 C 2.913875 5.0587188 3.7418594 5.015 5.0058594 5 L 11 5 C 12.26 5.015 13.087125 5.059719 13.453125 5.2617188 C 13.637125 5.3617187 13.742844 5.474375 13.839844 5.734375 C 13.936844 5.994375 14 7 14 7 L 14 7.78125 L 14 10 L 15 10 L 15 7.78125 L 15 4 C 15 3.342 14.940391 2.8208125 14.775391 2.3828125 A 1.88 1.88 0 0 0 13.9375 1.3847656 C 13.1845 0.96876565 12.263859 1.015 11.005859 1 L 11 1 L 11 2 L 10 2 L 10 1 L 6 1 z M 10 1 L 11 1 L 11 0 L 10 0.25 L 10 1 z "
     id="path836" />
  <rect
     style="opacity:0.98999999;fill:#4d4d4d;fill-opacity:1;fill-rule:nonzero;stroke:none;stroke-width:1;stroke-linejoin:miter;stroke-miterlimit:4;stroke-dasharray:none;stroke-opacity:1;paint-order:stroke fill markers"
     id="rect11"
     width="5"
     height="1"
     x="3"
     y="7" />
  <rect
     y="9"
     x="8"
     height="1"
     width="5"
     id="rect818"
     style="opacity:0.98999999;fill:#4d4d4d;fill-opacity:1;fill-rule:nonzero;stroke:none;stroke-width:1;stroke-linejoin:miter;stroke-miterlimit:4;stroke-dasharray:none;stroke-opacity:1;paint-order:stroke fill markers" />
  <rect
     style="opacity:0.98999999;fill:#4d4d4d;fill-opacity:1;fill-rule:nonzero;stroke:none;stroke-width:1;stroke-linejoin:miter;stroke-miterlimit:4;stroke-dasharray:none;stroke-opacity:1;paint-order:stroke fill markers"
     id="rect820"
     width="5"
     height="1"
     x="3"
     y="11" />
  <path
     d="m 13,11 v 2 h -2 v 1 h 2 v 2 h 1 v -2 h 2 v -1 h -2 v -2 z"
     overflow="visible"
     style="font-weight:400;font-family:sans-serif;overflow:visible;fill:#4d4d4d"
     id="path17"
     inkscape:connector-curvature="0" />
</svg>
