<?xml version="1.0" encoding="UTF-8" standalone="no"?>
<svg
   xmlns:dc="http://purl.org/dc/elements/1.1/"
   xmlns:cc="http://creativecommons.org/ns#"
   xmlns:rdf="http://www.w3.org/1999/02/22-rdf-syntax-ns#"
   xmlns:svg="http://www.w3.org/2000/svg"
   xmlns="http://www.w3.org/2000/svg"
   xmlns:sodipodi="http://sodipodi.sourceforge.net/DTD/sodipodi-0.dtd"
   xmlns:inkscape="http://www.inkscape.org/namespaces/inkscape"
   width="16"
   height="16"
   version="1.1"
   id="svg10"
   sodipodi:docname="window.svg"
   inkscape:version="0.92.3 (2405546, 2018-03-11)">
  <metadata
     id="metadata16">
    <rdf:RDF>
      <cc:Work
         rdf:about="">
        <dc:format>image/svg+xml</dc:format>
        <dc:type
           rdf:resource="http://purl.org/dc/dcmitype/StillImage" />
      </cc:Work>
    </rdf:RDF>
  </metadata>
  <defs
     id="defs14" />
  <sodipodi:namedview
     pagecolor="#ffffff"
     bordercolor="#666666"
     borderopacity="1"
     objecttolerance="10"
     gridtolerance="10"
     guidetolerance="10"
     inkscape:pageopacity="0"
     inkscape:pageshadow="2"
     inkscape:window-width="640"
     inkscape:window-height="480"
     id="namedview12"
     showgrid="false"
     inkscape:zoom="18.25"
     inkscape:cx="12.033128"
     inkscape:cy="7.5616438"
     inkscape:current-layer="svg10" />
  <path
     style="fill:#4d4d4d"
     d="m 1.591797,0.96875 c -0.870883,0 -1.585938,0.7013906 -1.585938,1.5566406 V 14.443359 c 0,0.85525 0.715055,1.558594 1.585938,1.558594 h 5.707031 3.103516 4.017578 c 0.870883,0 1.585937,-0.703344 1.585937,-1.558594 V 10.423828 8.109375 2.5253906 c 0,-0.85525 -0.717009,-1.5566406 -1.58789,-1.5566406 z M 0.990234,4 C 4.58512,4.0147 11.992117,4.00904 15.001953,4 l 0.0039,6.419922 h 0.0098 l -0.0039,4.023437 c -3.78e-4,0.36624 -0.207144,0.5625 -0.580078,0.5625 H 10.406284 7.298862 1.580112 c -0.372934,0 -0.5797,-0.19626 -0.580078,-0.5625 z"
     id="path28"
     inkscape:connector-curvature="0" />
</svg>
