<?xml version="1.0" encoding="UTF-8" standalone="no"?>
<svg
   xmlns:dc="http://purl.org/dc/elements/1.1/"
   xmlns:cc="http://creativecommons.org/ns#"
   xmlns:rdf="http://www.w3.org/1999/02/22-rdf-syntax-ns#"
   xmlns:svg="http://www.w3.org/2000/svg"
   xmlns="http://www.w3.org/2000/svg"
   xmlns:sodipodi="http://sodipodi.sourceforge.net/DTD/sodipodi-0.dtd"
   xmlns:inkscape="http://www.inkscape.org/namespaces/inkscape"
   viewBox="0 0 16 16"
   version="1.1"
   id="svg7"
   sodipodi:docname="zoom-in-x.svg"
   inkscape:version="0.92.3 (2405546, 2018-03-11)">
  <metadata
     id="metadata11">
    <rdf:RDF>
      <cc:Work
         rdf:about="">
        <dc:format>image/svg+xml</dc:format>
        <dc:type
           rdf:resource="http://purl.org/dc/dcmitype/StillImage" />
      </cc:Work>
    </rdf:RDF>
  </metadata>
  <sodipodi:namedview
     pagecolor="#ffffff"
     bordercolor="#666666"
     borderopacity="1"
     objecttolerance="10"
     gridtolerance="10"
     guidetolerance="10"
     inkscape:pageopacity="0"
     inkscape:pageshadow="2"
     inkscape:window-width="640"
     inkscape:window-height="480"
     id="namedview9"
     showgrid="true"
     inkscape:zoom="18.25"
     inkscape:cx="-1.5342466"
     inkscape:cy="7.5616438"
     inkscape:current-layer="svg7">
    <inkscape:grid
       type="xygrid"
       id="grid833" />
  </sodipodi:namedview>
  <defs
     id="defs3">
    <style
       id="current-color-scheme"
       type="text/css">
   .ColorScheme-Text { color:#4d4d4d; }
  </style>
  </defs>
  <path
     d="M 2,2 V 3 4 H 3 V 3 H 4 V 2 H 3 Z"
     id="path25"
     style="fill:#4d4d4d;fill-opacity:1" />
  <path
     d="M 13.57031,4.5 12.863279,3.7929689 10.742185,1.6718751 10.035154,2.3789062 11.656248,4 H 7 v 1 h 4.656248 l -1.621094,1.621094 0.707031,0.7070311 z"
     id="path23"
     style="fill:#4d4d4d;fill-opacity:1"
     inkscape:connector-curvature="0" />
  <path
     d="M 2,7 V 9 H 3 V 7 Z"
     id="path21"
     style="fill:#4d4d4d;fill-opacity:1" />
  <path
     style="fill:#4d4d4d;fill-opacity:1"
     d="M 2 10 L 2 14 L 6 14 L 6 10 L 2 10 z M 3 11 L 5 11 L 5 13 L 3 13 L 3 11 z "
     id="path19" />
  <path
     d="m 13,12 v 1 h -1 v 1 h 1 1 v -2 z"
     id="path15"
     style="fill:#4d4d4d;fill-opacity:1" />
  <path
     d="m 7,13 v 1 h 2 v -1 z"
     id="path5"
     style="fill:#4d4d4d;fill-opacity:1" />
</svg>
