<?xml version="1.0" encoding="UTF-8" standalone="no"?>
<svg
   xmlns:dc="http://purl.org/dc/elements/1.1/"
   xmlns:cc="http://creativecommons.org/ns#"
   xmlns:rdf="http://www.w3.org/1999/02/22-rdf-syntax-ns#"
   xmlns:svg="http://www.w3.org/2000/svg"
   xmlns="http://www.w3.org/2000/svg"
   xmlns:sodipodi="http://sodipodi.sourceforge.net/DTD/sodipodi-0.dtd"
   xmlns:inkscape="http://www.inkscape.org/namespaces/inkscape"
   width="16"
   height="16"
   version="1.1"
   id="svg6"
   sodipodi:docname="zoom-fit-width.svg"
   inkscape:version="0.92.3 (2405546, 2018-03-11)">
  <metadata
     id="metadata12">
    <rdf:RDF>
      <cc:Work
         rdf:about="">
        <dc:format>image/svg+xml</dc:format>
        <dc:type
           rdf:resource="http://purl.org/dc/dcmitype/StillImage" />
      </cc:Work>
    </rdf:RDF>
  </metadata>
  <defs
     id="defs10" />
  <sodipodi:namedview
     pagecolor="#ffffff"
     bordercolor="#666666"
     borderopacity="1"
     objecttolerance="10"
     gridtolerance="10"
     guidetolerance="10"
     inkscape:pageopacity="0"
     inkscape:pageshadow="2"
     inkscape:window-width="640"
     inkscape:window-height="480"
     id="namedview8"
     showgrid="false"
     inkscape:zoom="18.25"
     inkscape:cx="8"
     inkscape:cy="7.5616438"
     inkscape:current-layer="svg6" />
  <path
     fill="#4d4d4d"
     d="M5.994 2c-1.258.015-2.179-.03-2.932.385a1.88 1.88 0 0 0-.837.998C2.06 3.82 2 4.343 2 5v2h1V5c0-.592.063-1.006.16-1.266.098-.26.201-.371.385-.472C3.91 3.06 4.74 3.015 6 3h1V2H5.998zM9 2v1h1c1.258.015 2.087.06 2.453.262.183.1.29.212.387.472.097.26.16.674.16 1.266v2h1V5c0-.658-.06-1.179-.225-1.617a1.88 1.88 0 0 0-.838-.998c-.752-.416-1.673-.37-2.931-.385h-.004zM2 9v2c0 .658.06 1.179.225 1.617.164.439.461.79.837.998.753.416 1.674.37 2.932.385H7v-1H6c-1.259-.015-2.09-.06-2.455-.262-.184-.1-.287-.212-.385-.472C3.063 12.006 3 11.592 3 11V9zm11 0v2c0 .592-.063 1.006-.16 1.266-.098.26-.202.371-.385.472-.366.202-1.197.247-2.455.262H9v1h1.006c1.258-.015 2.179.03 2.932-.385a1.88 1.88 0 0 0 .837-.998c.165-.438.225-.96.225-1.617V9z"
     color="#000"
     font-family="sans-serif"
     font-weight="400"
     overflow="visible"
     id="path2" />
  <path
     class="ColorScheme-Text"
     d="M 4.4444439,6.6666665 H 11.555556 V 9.3333334 H 4.4444439 Z"
     style="fill:#4d4d4d"
     id="path4"
     inkscape:connector-curvature="0" />
</svg>
