<svg width="22" height="22" version="1.1" xmlns="http://www.w3.org/2000/svg">
<g transform="translate(1.994,-5)">
<path d="m6 8-1 0.25v0.75h1zm0 1v1h-1v-1c-1.258 0.015-2.179-0.03-2.931 0.385-0.377 0.208-0.676 0.56-0.84 0.998-0.165 0.439-0.223 0.96-0.223 1.617v8c0 0.658 0.058 1.179 0.223 1.617 0.164 0.44 0.463 0.789 0.84 0.997 0.752 0.415 1.673 0.372 2.931 0.386h3.004v-1h-3.004c-1.26-0.014-2.087-0.06-2.453-0.261-0.183-0.102-0.29-0.213-0.387-0.473-0.098-0.26-0.16-0.673-0.16-1.266v-5c0-0.592 0.063-1.005 0.16-1.265 0.098-0.26 0.204-0.372 0.387-0.473 0.367-0.202 1.195-0.247 2.459-0.262h5.994c1.26 0.015 2.087 0.06 2.453 0.262 0.184 0.101 0.29 0.213 0.387 0.473 0.098 0.26 0.16 1.265 0.16 1.265v1h1v-4c0-0.657-0.06-1.178-0.225-1.617a1.88 1.88 0 0 0-0.837-0.998c-0.753-0.415-1.674-0.37-2.932-0.385v1h-1v-1zm4 0h1v-1l-1 0.25z" color="#000000" fill="#dfdfdf" font-weight="400" overflow="visible" style="isolation:auto;mix-blend-mode:normal;text-decoration-color:#000000;text-decoration-line:none;text-decoration-style:solid;text-indent:0;text-transform:none;white-space:normal"/>
<path class="error" d="m12.5 17a3.5 3.5 0 0 0-3.5 3.5 3.5 3.5 0 0 0 3.5 3.5 3.5 3.5 0 0 0 3.5-3.5 3.5 3.5 0 0 0-3.5-3.5zm-0.5 1h1v1.168c0 0.349-0.016 0.668-0.047 0.957-0.03 0.29-0.069 0.581-0.115 0.875h-0.666a12.898 12.898 0 0 1-0.125-0.875 9.146 9.146 0 0 1-0.047-0.957zm0.5 4a0.5 0.5 0 0 1 0.5 0.5 0.5 0.5 0 0 1-0.5 0.5 0.5 0.5 0 0 1-0.5-0.5 0.5 0.5 0 0 1 0.5-0.5z" color="#000000" fill="#f22c42" overflow="visible"/>
</g>
</svg>
