<svg width="22" height="22" version="1.1" xmlns="http://www.w3.org/2000/svg" xmlns:osb="http://www.openswatchbook.org/uri/2009/osb">
<path d="m10 4.3334-3.5 3.6666h-2.6296s-0.87037 0.89308-0.87037 3.0014c0 2.1084 0.87037 2.9986 0.87037 2.9986h2.6296l3.5 3.6667z" fill="#dfdfdf"/>
<g fill="#dfdfdf" shape-rendering="auto">
<path d="m15.146 3.1465-4 4 0.70704 0.70704 4-4z" color="#000000" color-rendering="auto" dominant-baseline="auto" fill-rule="evenodd" image-rendering="auto" solid-color="#000000" style="font-feature-settings:normal;font-variant-alternates:normal;font-variant-caps:normal;font-variant-ligatures:normal;font-variant-numeric:normal;font-variant-position:normal;isolation:auto;mix-blend-mode:normal;shape-padding:0;text-decoration-color:#000000;text-decoration-line:none;text-decoration-style:solid;text-indent:0;text-orientation:mixed;text-transform:none;white-space:normal"/>
<path d="m11.853 14.146-0.70704 0.70704 4 4 0.70704-0.70704z" color="#000000" color-rendering="auto" dominant-baseline="auto" fill-rule="evenodd" image-rendering="auto" solid-color="#000000" style="font-feature-settings:normal;font-variant-alternates:normal;font-variant-caps:normal;font-variant-ligatures:normal;font-variant-numeric:normal;font-variant-position:normal;isolation:auto;mix-blend-mode:normal;shape-padding:0;text-decoration-color:#000000;text-decoration-line:none;text-decoration-style:solid;text-indent:0;text-orientation:mixed;text-transform:none;white-space:normal"/>
<path d="m13.524 7.926-0.70703 0.70703 0.35351 0.35352c0.56275 0.56274 0.87891 1.3252 0.87891 2.1211s-0.31616 1.5584-0.87891 2.1211l-0.35351 0.35352 0.70703 0.70703 0.35351-0.35352c0.75001-0.75 1.1719-1.7674 1.1719-2.8281s-0.42187-2.0781-1.1719-2.8281z" color="#000000" color-rendering="auto" dominant-baseline="auto" image-rendering="auto" solid-color="#000000" style="font-feature-settings:normal;font-variant-alternates:normal;font-variant-caps:normal;font-variant-ligatures:normal;font-variant-numeric:normal;font-variant-position:normal;isolation:auto;mix-blend-mode:normal;shape-padding:0;text-decoration-color:#000000;text-decoration-line:none;text-decoration-style:solid;text-indent:0;text-orientation:mixed;text-transform:none;white-space:normal"/>
<path d="m15.645 5.8049-0.70703 0.70703 0.35352 0.35351c1.1254 1.1254 1.7578 2.6507 1.7578 4.2422s-0.63246 3.1168-1.7578 4.2422l-0.35352 0.35351 0.70703 0.70703 0.35352-0.35351c1.3126-1.3126 2.0508-3.0929 2.0508-4.9492s-0.73816-3.6366-2.0508-4.9492z" color="#000000" color-rendering="auto" dominant-baseline="auto" image-rendering="auto" solid-color="#000000" style="font-feature-settings:normal;font-variant-alternates:normal;font-variant-caps:normal;font-variant-ligatures:normal;font-variant-numeric:normal;font-variant-position:normal;isolation:auto;mix-blend-mode:normal;shape-padding:0;text-decoration-color:#000000;text-decoration-line:none;text-decoration-style:solid;text-indent:0;text-orientation:mixed;text-transform:none;white-space:normal"/>
</g>
</svg>
