<svg width="22" height="22" version="1.1" xmlns="http://www.w3.org/2000/svg">
<path d="m17.269 4.264-13 13 0.47 0.472 3.239-3.238 3.025 3.168v-6.193l2.312-2.313c0.467 0.542 0.737 1.227 0.737 1.947 0 0.796-0.316 1.559-0.88 2.122l-0.353 0.353 0.707 0.707 0.354-0.353a4 4 0 0 0 1.172-2.829c0-0.985-0.377-1.923-1.03-2.654l1.422-1.422a5.994 5.994 0 0 1 1.608 4.076 5.999 5.999 0 0 1-1.758 4.243l-0.354 0.353 0.707 0.707 0.354-0.353a7 7 0 0 0 2.05-4.95 6.994 6.994 0 0 0-1.9-4.783l1.588-1.588zm-6.266 0.07-3.5 3.666h-2.629s-0.871 0.894-0.871 3.002 0.871 2.998 0.871 2.998h1.422l4.707-4.707z" fill="#808080" opacity=".5"/>
</svg>
