<svg width="22" height="22" version="1.1" xmlns="http://www.w3.org/2000/svg">
<path d="m10.5 5.0001a2.5321 2.8404 0 0 0-0.99857 0.22103c-0.3076 0.14102-0.58042 0.34805-0.80777 0.61509v3e-3l-8.916e-4 2e-3c-0.22111 0.26904-0.39229 0.59209-0.51177 0.96015-0.12215 0.36706-0.18099 0.76912-0.18099 1.2002 0 0.43507 0.057952 0.84113 0.18099 1.2092 0.12036 0.36105 0.29155 0.6801 0.51177 0.95014l8.916e-4 2e-3c0.22646 0.26704 0.4975 0.47707 0.80331 0.6241v3e-3c0.30849 0.14102 0.64461 0.21003 0.99857 0.21003 0.35217 0 0.68652-0.06901 0.99589-0.21003v-2e-3c0.30581-0.14702 0.57418-0.35705 0.79529-0.6251 0.22735-0.26804 0.40121-0.59009 0.52247-0.95214 0.12304-0.36806 0.18188-0.77412 0.18188-1.2102h0.0089c0-0.43007-0.05795-0.83113-0.18099-1.1982a2.4706 2.7714 0 0 0-0.52156-0.96315 2.2289 2.5004 0 0 0-0.79974-0.61809 2.5276 2.8354 0 0 0-0.99857-0.22103z" color="#000000" fill="#dfdfdf" style="font-feature-settings:normal;font-variant-alternates:normal;font-variant-caps:normal;font-variant-ligatures:normal;font-variant-numeric:normal;font-variant-position:normal;isolation:auto;mix-blend-mode:normal;shape-padding:0;text-decoration-color:#000000;text-decoration-line:none;text-decoration-style:solid;text-indent:0;text-orientation:mixed;text-transform:none;white-space:normal"/>
<path d="m10.523 13c-2.2639 0-3.4794 0.213-4.3832 0.91-0.45141 0.35-0.74942 0.825-0.91748 1.378-0.16806 0.553-0.22082 0.975-0.22277 1.71l5.5 0.002001h5.5c-9.77e-4 -0.736-0.05081-1.159-0.21984-1.712-0.16806-0.553-0.46607-1.027-0.91846-1.376-0.90185-0.697-2.0753-0.912-4.3382-0.912z" color="#000000" fill="#dfdfdf" style="font-feature-settings:normal;font-variant-alternates:normal;font-variant-caps:normal;font-variant-ligatures:normal;font-variant-numeric:normal;font-variant-position:normal;isolation:auto;mix-blend-mode:normal;shape-padding:0;text-decoration-color:#000000;text-decoration-line:none;text-decoration-style:solid;text-indent:0;text-orientation:mixed;text-transform:none;white-space:normal"/>
</svg>
