<svg width="22" height="22" version="1.1" xmlns="http://www.w3.org/2000/svg">
<g fill="#dfdfdf">
<path d="m11.001 4a1 1 0 0 0-1 1 1 1 0 0 0 0.01 0.139 3.99 3.99 0 0 0-2.994 4.191v3.236c0 0.36-0.034 0.69-0.102 0.989a1.843 1.843 0 0 1-0.357 0.761 1.549 1.549 0 0 1-0.662 0.5c-0.272 0.12-0.611 0.177-1.018 0.18v4e-3h12.244v-4e-3c-0.407-3e-3 -0.746-0.06-1.018-0.18a1.549 1.549 0 0 1-0.662-0.5 1.84 1.84 0 0 1-0.355-0.761 4.461 4.461 0 0 1-0.102-0.989v-3.25c0.01-0.105 0.015-0.21 0.016-0.316a3.99 3.99 0 0 0-3.012-3.861 1 1 0 0 0 0.012-0.139 1 1 0 0 0-1-1zm0 2a3 3 0 0 1 3 3v5h-6v-5a3 3 0 0 1 3-3zm-3.908 8.717-0.016 0.02 6e-3 -0.012c2e-3 -3e-3 8e-3 -4e-3 0.01-8e-3zm7.816 0c2e-3 3e-3 8e-3 4e-3 0.01 8e-3 3e-3 3e-3 4e-3 8e-3 6e-3 0.011zm-5.908 1.283a2.0235 2.0235 0 0 0 4.047 0z"/>
<path d="m10.991 10.989 0.01 9e-3c2e-3 4e-3 4e-3 0.01 7e-3 0.013z"/>
<path d="m11.009 10.988-0.018 0.024 8e-3 -0.014z"/>
</g>
</svg>
