<svg width="22" height="22" version="1.1" xmlns="http://www.w3.org/2000/svg">
<path d="m7.9141 3c-0.74645 0.0091818-1.3953-0.048053-2.0176 0.30664-0.3379 0.19237-0.59299 0.50904-0.73047 0.88672-0.13085 0.35823-0.16602 0.74224-0.16602 1.1816v11.25c0 0.4394 0.035167 0.82341 0.16602 1.1816 0.13723 0.37699 0.39076 0.69528 0.73047 0.88867 0.62233 0.35416 1.2715 0.29551 2.0176 0.30469h2e-3 5.166 0.0039c0.74695-0.0092 1.3935 0.04934 2.0156-0.30469l0.0039-2e-3 2e-3 -2e-3c0.34077-0.19943 0.59628-0.51716 0.72656-0.89062 2.4e-4 -6.61e-4 0.0017-0.0013 2e-3 -2e-3 0.12826-0.35514 0.16394-0.7365 0.16394-1.1737v-11.25c0-0.43871-0.036535-0.8214-0.16602-1.1777-0.13102-0.37206-0.38675-0.68782-0.72656-0.88672l-2e-3 -0.00195-0.0039-0.00195c-0.62114-0.35351-1.2678-0.29745-2.0156-0.30665h-0.0039-5.1602-0.0059zm0.0059 1h0.0059 5.1543c0.76856 0.00941 1.2333 0.011985 1.5234 0.17578 0.1307 0.077265 0.23555 0.20074 0.28906 0.35352v0.00391l2e-3 0.00195c0.069341 0.19019 0.10534 0.45873 0.10534 0.83984v11.25c0 0.38111-0.036 0.64965-0.10547 0.83984l-2e-3 0.0039-2e-3 0.0039c-0.05309 0.15301-0.1564 0.27624-0.28711 0.35352-0.28914 0.16329-0.75396 0.16441-1.5233 0.17384h-5.1543-0.0059c-0.77215-0.009461-1.2381-0.009238-1.5273-0.17383-0.1148-0.065357-0.22436-0.18894-0.28711-0.36133-0.069134-0.18927-0.10547-0.458-0.10547-0.83984v-11.25c0-0.38185 0.036335-0.65057 0.10547-0.83984 0.062501-0.1717 0.17051-0.29299 0.28711-0.35938 0.2911-0.16593 0.75558-0.16633 1.5273-0.17578z" color="#000000" color-rendering="auto" dominant-baseline="auto" fill="#dfdfdf" image-rendering="auto" shape-rendering="auto" solid-color="#000000" style="font-feature-settings:normal;font-variant-alternates:normal;font-variant-caps:normal;font-variant-ligatures:normal;font-variant-numeric:normal;font-variant-position:normal;isolation:auto;mix-blend-mode:normal;shape-padding:0;text-decoration-color:#000000;text-decoration-line:none;text-decoration-style:solid;text-indent:0;text-orientation:mixed;text-transform:none;white-space:normal"/>
<path d="m10.031 4.293v5.6133l-2.4277-2.0391-0.64453 0.76562 2.8184 2.3672-2.8184 2.3672 0.64453 0.76562 2.4277-2.0391v5.6133l4.2402-4.2383-2.9395-2.4688 2.9395-2.4687zm0.92773 2.4141 1.7598 1.7598-1.7598 1.4805zm0 5.3457 1.7598 1.4805-1.7598 1.7598z" color="#000000" fill="#dfdfdf" style="isolation:auto;mix-blend-mode:normal;shape-padding:0;text-decoration-color:#000000;text-decoration-line:none;text-decoration-style:solid;text-indent:0;text-transform:none;white-space:normal"/>
</svg>
