<svg width="22" height="22" version="1.1" xmlns="http://www.w3.org/2000/svg">
<path d="m7.998 4c-1.258 0.015-2.178-0.03-2.931 0.385a1.88 1.88 0 0 0-0.838 0.998c-0.165 0.438-0.225 0.96-0.225 1.617v8c0 0.658 0.06 1.179 0.225 1.617 0.165 0.439 0.461 0.789 0.838 0.996 0.753 0.416 1.673 0.372 2.931 0.387h6.004c1.258-0.015 2.18 0.029 2.932-0.387 0.376-0.207 0.673-0.557 0.838-0.996 0.164-0.438 0.224-0.96 0.224-1.617v-8c0-0.658-0.06-1.179-0.224-1.617a1.88 1.88 0 0 0-0.838-0.998c-0.753-0.416-1.674-0.37-2.932-0.385zm3.006 2c1.654 0 3 1.347 3 3v2h1v5h-8v-5h1v-2c0-1.653 1.347-3 3-3zm0 1c-1.116 0-2 0.883-2 2v2h4v-2c0-1.117-0.883-2-2-2zm1 5-2 0.5v2.5h2z" color="#000000" fill="#dfdfdf" font-weight="400" overflow="visible" style="font-feature-settings:normal;font-variant-alternates:normal;font-variant-caps:normal;font-variant-ligatures:normal;font-variant-numeric:normal;font-variant-position:normal;isolation:auto;mix-blend-mode:normal;shape-padding:0;text-decoration-color:#000000;text-decoration-line:none;text-decoration-style:solid;text-indent:0;text-orientation:mixed;text-transform:none;white-space:normal"/>
</svg>
