<svg width="22" height="22" version="1.1" xmlns="http://www.w3.org/2000/svg">
<path d="m7.994 4c-1.258 0.015-2.178-0.03-2.931 0.385a1.88 1.88 0 0 0-0.838 0.998c-0.165 0.438-0.225 0.96-0.225 1.617v8c0 0.658 0.06 1.179 0.225 1.617 0.165 0.439 0.461 0.789 0.838 0.996 0.753 0.416 1.673 0.372 2.931 0.387h3.002v-2h-4v-5h1v-2c0-1.653 1.347-3 3-3 1.654 0 3 1.347 3 3v2h4v-4c0-0.658-0.06-1.179-0.224-1.617a1.88 1.88 0 0 0-0.838-0.998c-0.753-0.416-1.674-0.37-2.932-0.385h-6.004zm3.006 3c-1.116 0-2 0.883-2 2v2h4v-2c0-1.117-0.883-2-2-2zm0 5.25-1 0.25v2.5h1z" color="#000000" fill="#dfdfdf" font-weight="400" opacity=".5" overflow="visible" style="font-feature-settings:normal;font-variant-alternates:normal;font-variant-caps:normal;font-variant-ligatures:normal;font-variant-numeric:normal;font-variant-position:normal;isolation:auto;mix-blend-mode:normal;shape-padding:0;text-decoration-color:#000000;text-decoration-line:none;text-decoration-style:solid;text-indent:0;text-orientation:mixed;text-transform:none;white-space:normal"/>
<path class="warning" d="m15.48 12.729a0.443 0.443 0 0 0-0.36 0.22l-3.061 5.397a0.437 0.437 0 0 0 0.379 0.654h6.125a0.437 0.437 0 0 0 0.379-0.654l-3.059-5.397a0.442 0.442 0 0 0-0.402-0.22zm-0.48 1.271h1v0.168c0 0.348-0.016 0.667-0.047 0.957-0.03 0.29-0.069 0.581-0.115 0.875h-0.666a12.898 12.898 0 0 1-0.125-0.875 9.146 9.146 0 0 1-0.047-0.957zm0.5 3a0.5 0.5 0 1 1 0 1 0.5 0.5 0 0 1 0-1z" color="#000000" fill="#fdc92b" fill-rule="evenodd" font-weight="400" overflow="visible" style="isolation:auto;mix-blend-mode:normal;text-decoration-color:#000000;text-decoration-line:none;text-decoration-style:solid;text-indent:0;text-transform:none;white-space:normal"/>
</svg>
