<svg width="22" height="22" version="1.1" xmlns="http://www.w3.org/2000/svg">
<path d="m6.445 6c-0.52 0-0.94 0.048-1.304 0.191-0.364 0.144-0.662 0.41-0.832 0.735-0.34 0.648-0.299 1.402-0.309 2.431v3.286c0.012 1.029-0.031 1.784 0.309 2.431 0.17 0.324 0.468 0.591 0.832 0.735 0.364 0.143 0.784 0.191 1.304 0.191h3.112c0.52 0 0.94-0.048 1.304-0.191 0.364-0.144 0.66-0.41 0.83-0.735 0.296-0.563 0.297-1.241 0.301-2.076l1.946-4e-3 0.562-0.494 0.5 0.5 0.5-0.5 0.5 0.5 0.5-0.5 1 1 2.5-2.5-2-2-6.008 2e-3c0-0.835-0.01-1.513-0.3-2.076a1.607 1.607 0 0 0-0.833-0.734c-0.363-0.144-0.782-0.192-1.302-0.192zm0 1h3.112c0.451 0 0.756 0.052 0.935 0.123 0.18 0.07 0.244 0.134 0.315 0.268 0.14 0.268 0.182 0.944 0.193 1.978v0.633l6.586-2e-3 1 1-1.086 1.086-1-1-0.5 0.5-0.5-0.5-0.5 0.5-0.455-0.455-0.984 0.863-2.561 6e-3v0.63c-0.011 1.035-0.053 1.711-0.193 1.98-0.07 0.133-0.135 0.196-0.315 0.267-0.18 0.07-0.484 0.123-0.935 0.123h-3.112c-0.451 0-0.758-0.052-0.937-0.123-0.18-0.071-0.242-0.134-0.313-0.268-0.14-0.267-0.183-0.943-0.195-1.972v-3.274c0.012-1.029 0.055-1.705 0.195-1.973 0.07-0.134 0.133-0.196 0.313-0.267s0.486-0.123 0.937-0.123zm0.555 3a1 1 0 0 0-1 1 1 1 0 0 0 1 1 1 1 0 0 0 1-1 1 1 0 0 0-1-1z" color="#000000" fill="#dfdfdf" font-weight="400" overflow="visible" style="font-feature-settings:normal;font-variant-alternates:normal;font-variant-caps:normal;font-variant-ligatures:normal;font-variant-numeric:normal;font-variant-position:normal;isolation:auto;mix-blend-mode:normal;shape-padding:0;text-decoration-color:#000000;text-decoration-line:none;text-decoration-style:solid;text-indent:0;text-orientation:mixed;text-transform:none;white-space:normal"/>
</svg>
