<svg width="22" height="22" version="1.1" xmlns="http://www.w3.org/2000/svg">
<path d="m6.992 4c-1.257 0.014-2.177-0.028-2.93 0.387a1.878 1.878 0 0 0-0.84 0.996c-0.163 0.437-0.222 0.96-0.222 1.617v8c0 0.658 0.058 1.179 0.223 1.617 0.164 0.439 0.463 0.79 0.84 0.998 0.752 0.416 1.673 0.37 2.931 0.385h8.02c1.258-0.015 2.179 0.03 2.932-0.385 0.376-0.207 0.675-0.56 0.84-0.998 0.155-0.438 0.214-0.96 0.214-1.617v-6c0-0.658-0.058-1.179-0.223-1.617-0.02-0.055-0.048-0.104-0.074-0.154l-0.027-0.057a1.838 1.838 0 0 0-0.738-0.787c-0.753-0.416-1.673-0.37-2.932-0.385h-3.043l-2.021-2h-2.948zm0 1h2.54l2.021 2h3.447c1.282 0.015 2.032 0.026 2.455 0.26a0.847 0.847 0 0 1 0.33 0.367c-0.016-0.03 0 0.01 0.031 0.064 0.01 0.017 0 2e-3 0.01 0.012v2e-3c0.011 0.022 0.025 0.053 0.018 0.03 0.1 0.266 0.158 0.666 0.158 1.265v3h-14.002v-5c0-0.599 0.058-0.998 0.158-1.266a0.877 0.877 0 0 1 0.387-0.472c0.423-0.234 1.173-0.247 2.45-0.262z" color="#000000" fill="#dfdfdf" font-weight="400" overflow="visible" style="font-feature-settings:normal;font-variant-alternates:normal;font-variant-caps:normal;font-variant-ligatures:none;font-variant-numeric:normal;font-variant-position:normal;isolation:auto;mix-blend-mode:normal;shape-padding:0;text-decoration-color:#000000;text-decoration-line:none;text-decoration-style:solid;text-indent:0;text-transform:none;white-space:normal"/>
</svg>
