<svg width="22" height="22" version="1.1" xmlns="http://www.w3.org/2000/svg">
<path d="m11 6.934c-1.565 0-3.03 0.209-4.396 0.623-1.356 0.423-2.557 0.99-3.604 1.678v5.344c0.489 0.425 1.05 0.775 1.682 1.037 0.637 0.256 1.32 0.384 2.05 0.384s1.413-0.128 2.045-0.384a6.062 6.062 0 0 0 1.69-1.037 0.81 0.81 0 0 1 0.533-0.193c0.104 0 0.2 0.017 0.291 0.052a0.877 0.877 0 0 1 0.242 0.14c0.489 0.426 1.05 0.776 1.682 1.038 0.638 0.256 1.32 0.384 2.05 0.384s1.413-0.128 2.046-0.384a6.062 6.062 0 0 0 1.689-1.037v-5.345c-1.047-0.688-2.253-1.255-3.62-1.678-1.354-0.413-2.814-0.622-4.38-0.622zm-2e-3 1h2e-3c1.475 0 2.833 0.196 4.084 0.578 1.112 0.345 2.046 0.827 2.916 1.35v4.174c-0.33 0.243-0.658 0.487-1.064 0.654h-2e-3a4.365 4.365 0 0 1-1.666 0.31 4.43 4.43 0 0 1-1.674-0.312 5.088 5.088 0 0 1-1.405-0.863l-8e-3 -8e-3 -0.01-8e-3a1.89 1.89 0 0 0-0.515-0.303h-2e-3a1.83 1.83 0 0 0-1.305-2e-3l-6e-3 2e-3 -4e-3 2e-3a1.89 1.89 0 0 0-0.512 0.3l-0.011 9e-3 -8e-3 8e-3a5.05 5.05 0 0 1-1.409 0.865h-2e-3a4.364 4.364 0 0 1-1.666 0.31 4.43 4.43 0 0 1-1.673-0.312c-0.402-0.167-0.732-0.409-1.06-0.652v-4.174c0.866-0.522 1.795-1.004 2.894-1.348 1.266-0.384 2.63-0.58 4.106-0.58zm-3.73 2.517c-0.522 0-1.012 0.088-1.467 0.264-0.452 0.18-0.852 0.416-1.201 0.707 0.349 0.291 0.749 0.526 1.2 0.705 0.456 0.176 0.946 0.264 1.468 0.264 0.521 0 1.007-0.088 1.459-0.264 0.455-0.18 0.858-0.414 1.207-0.705a4.358 4.358 0 0 0-1.207-0.707 3.989 3.989 0 0 0-1.46-0.264zm7.464 0c-0.521 0-1.009 0.088-1.464 0.264-0.452 0.18-0.853 0.416-1.202 0.707 0.35 0.291 0.75 0.526 1.202 0.705 0.455 0.176 0.943 0.264 1.464 0.264 0.522 0 1.01-0.088 1.461-0.264 0.456-0.18 0.858-0.414 1.207-0.705a4.358 4.358 0 0 0-1.207-0.707 4 4 0 0 0-1.46-0.264z" fill="#dfdfdf" font-size="14.463" font-weight="400" letter-spacing="0" word-spacing="0"/>
</svg>
