<svg width="22" height="22" version="1.1" xmlns="http://www.w3.org/2000/svg">
<path d="m4.99 12.06a3.492 3.492 0 0 0 0 4.95 3.492 3.492 0 0 0 4.95 0l0.353-0.353-0.707-0.707-0.354 0.353c-0.98 0.98-2.556 0.98-3.535 0a2.495 2.495 0 0 1 0-3.535l7.07-7.071c0.98-0.98 2.557-0.98 3.536 0 0.98 0.979 0.98 2.556 0 3.535l-0.712 0.713-2.47 2.47-0.207 0.206-0.853 0.854a1.497 1.497 0 0 1-2.122 0 1.497 1.497 0 0 1 0-2.121l1.061-1.061 0.707-0.707-0.707-0.707-1.768 1.767c-0.98 0.98-0.98 2.557 0 3.536 0.98 0.98 2.556 0.98 3.536 0l0.853-0.854 1.268-1.267 2.121-2.122a3.492 3.492 0 0 0 0-4.95 3.492 3.492 0 0 0-4.95 0z" color="#000000" fill="#dfdfdf" overflow="visible" style="isolation:auto;mix-blend-mode:normal"/>
</svg>
