<svg width="22" height="22" version="1.1" xmlns="http://www.w3.org/2000/svg">
<path d="m11 3.1221-0.29102 0.20898-2.0547 1.4668-2.877 0.22461-0.71875 2.791-2.0586 2.0215 1.2441 2.6016-0.2793 2.8691 2.627 1.1953 1.6289 2.377 2.7793-0.77148 2.7773 0.77148 1.6309-2.377 2.625-1.1953-0.27734-2.8691 1.2441-2.6035-2.0586-2.0195-0.7207-2.793-2.875-0.22266zm0 1.2285 1.9922 1.4219 2.4395 0.18945 0.61133 2.3711 1.7461 1.7148-1.0566 2.209 0.23633 2.4355-2.2285 1.0137-1.3828 2.0176-2.3574-0.6543-2.3574 0.6543-1.3848-2.0176-2.2285-1.0137 0.23633-2.4355-1.0547-2.209 1.7461-1.7148 0.61133-2.3691 2.4414-0.19141z" color="#000000" color-rendering="auto" dominant-baseline="auto" fill="#dfdfdf" image-rendering="auto" shape-rendering="auto" solid-color="#000000" style="font-feature-settings:normal;font-variant-alternates:normal;font-variant-caps:normal;font-variant-ligatures:normal;font-variant-numeric:normal;font-variant-position:normal;isolation:auto;mix-blend-mode:normal;shape-padding:0;text-decoration-color:#000000;text-decoration-line:none;text-decoration-style:solid;text-indent:0;text-orientation:mixed;text-transform:none;white-space:normal"/>
<path d="m11.036 15.878c1.6037-2.025 2.4261-4.1558 2.9645-5.1154h-1.819v-2.8846h-2.291v2.8846h-1.89c0.53837 0.95962 1.4318 3.0904 3.0355 5.1154z" color="#000000" fill="#dfdfdf" style="font-feature-settings:normal;font-variant-alternates:normal;font-variant-caps:normal;font-variant-ligatures:normal;font-variant-numeric:normal;font-variant-position:normal;isolation:auto;mix-blend-mode:normal;shape-padding:0;text-decoration-color:#000000;text-decoration-line:none;text-decoration-style:solid;text-indent:0;text-orientation:mixed;text-transform:none;white-space:normal"/>
</svg>
