<svg width="22" height="22" version="1.1" xmlns="http://www.w3.org/2000/svg">
<g fill="#dfdfdf">
<path d="m11 3.1221-0.29102 0.20898-2.0547 1.4668-2.877 0.22461-0.71875 2.791-2.0586 2.0215 1.2441 2.6016-0.2793 2.8691 2.627 1.1953 1.6289 2.377 2.7793-0.77148 2.7773 0.77148 1.6309-2.377 2.625-1.1953-0.27734-2.8691 1.2441-2.6035-2.0586-2.0195-0.7207-2.793-2.875-0.22266zm0 1.2285 1.9922 1.4219 2.4395 0.18945 0.61133 2.3711 1.7461 1.7148-1.0566 2.209 0.23633 2.4355-2.2285 1.0137-1.3828 2.0176-2.3574-0.6543-2.3574 0.6543-1.3848-2.0176-2.2285-1.0137 0.23633-2.4355-1.0547-2.209 1.7461-1.7148 0.61133-2.3691 2.4414-0.19141z" color="#000000" color-rendering="auto" dominant-baseline="auto" image-rendering="auto" shape-rendering="auto" solid-color="#000000" style="font-feature-settings:normal;font-variant-alternates:normal;font-variant-caps:normal;font-variant-ligatures:normal;font-variant-numeric:normal;font-variant-position:normal;isolation:auto;mix-blend-mode:normal;shape-padding:0;text-decoration-color:#000000;text-decoration-line:none;text-decoration-style:solid;text-indent:0;text-orientation:mixed;text-transform:none;white-space:normal"/>
<path d="m11.002 7.8779c0.8403 0.0011 1.6417 0.35471 2.209 0.97461l0.78711-0.45703-0.17774 1.4746 0.0039 0.00781h-0.0039l-0.12109 1-2.2969-0.98242 0.9082-0.52539c-0.3628-0.3162-0.82739-0.49089-1.3086-0.49219-0.714 6.001e-4 -1.3754 0.3817-1.7324 1h-1.0957c0.4235-1.1979 1.5576-1.999 2.8281-2z" color="#000000" stroke-width=".76147" style="font-feature-settings:normal;font-variant-alternates:normal;font-variant-caps:normal;font-variant-ligatures:normal;font-variant-numeric:normal;font-variant-position:normal;isolation:auto;mix-blend-mode:normal;shape-padding:0;text-decoration-color:#000000;text-decoration-line:none;text-decoration-style:solid;text-indent:0;text-orientation:mixed;text-transform:none;white-space:normal"/>
<path d="m8.2988 10.896 2.2988 0.98242-0.89648 0.51758c0.3616 0.3104 0.82223 0.48152 1.2988 0.48242 0.714-6e-4 1.3735-0.3817 1.7305-1h1.0957c-0.423 1.198-1.5557 1.999-2.8262 2-0.8345-1e-3 -1.6306-0.34989-2.1973-0.96289l-0.80273 0.46289 0.17969-1.4902-0.00391-0.0098h0.00391z" color="#000000" stroke-width=".76147" style="font-feature-settings:normal;font-variant-alternates:normal;font-variant-caps:normal;font-variant-ligatures:normal;font-variant-numeric:normal;font-variant-position:normal;isolation:auto;mix-blend-mode:normal;shape-padding:0;text-decoration-color:#000000;text-decoration-line:none;text-decoration-style:solid;text-indent:0;text-orientation:mixed;text-transform:none;white-space:normal"/>
</g>
</svg>
