<svg width="22" height="22" version="1.1" xmlns="http://www.w3.org/2000/svg">
<g transform="translate(-1 .98829)" fill="#dfdfdf">
<path d="m12.001 4.0064a12.1 12.1 0 0 0-7.4 2.518l-0.266 0.205 0.205 0.263 0.46 0.596v-0.582h0.814l-0.041-0.053c1.883-1.278 4.047-1.948 6.228-1.947 2.181 0 4.344 0.672 6.227 1.951l-0.229 0.297v1.637l1.666-2.158-0.264-0.206a12.105 12.105 0 0 0-7.4-2.521zm-3.596 8 3.592 4.658 3.596-4.658h-1.262l-2.332 3.021-2.33-3.021z" color="#000000" font-weight="400" opacity=".5" overflow="visible" style="font-feature-settings:normal;font-variant-alternates:normal;font-variant-caps:normal;font-variant-ligatures:none;font-variant-numeric:normal;font-variant-position:normal;isolation:auto;mix-blend-mode:normal;shape-padding:0;text-decoration-color:#000000;text-decoration-line:none;text-decoration-style:solid;text-indent:0;text-transform:none;white-space:normal"/>
<path d="m7.499 8.0064c-0.829 0-1.496 0.667-1.496 1.496v0.016c0 0.829 0.667 1.496 1.496 1.496h0.016c0.83 0 1.496-0.667 1.496-1.496v-0.016c0-0.829-0.667-1.496-1.496-1.496zm4 0c-0.829 0-1.496 0.667-1.496 1.496v0.016c0 0.829 0.667 1.496 1.496 1.496h0.016c0.83 0 1.496-0.667 1.496-1.496v-0.016c0-0.829-0.667-1.496-1.496-1.496zm4 0c-0.829 0-1.496 0.667-1.496 1.496v0.016c0 0.829 0.667 1.496 1.496 1.496h0.016c0.83 0 1.496-0.667 1.496-1.496v-0.016c0-0.829-0.667-1.496-1.496-1.496z" color="#000000" display="block" overflow="visible" style="isolation:auto;mix-blend-mode:normal"/>
</g>
</svg>
