<svg width="22" height="22" version="1.1" xmlns="http://www.w3.org/2000/svg">
<path d="m5.713 5.0003c-1.058-0.013-1.768 0.224-2.133 0.662-0.383 0.456-0.58 1.204-0.58 2.244v6.188c0 1.04 0.197 1.788 0.58 2.244 0.365 0.438 1.075 0.662 2.133 0.662h10.574c1.058 0 1.77-0.224 2.135-0.662 0.383-0.456 0.578-1.204 0.578-2.244v-6.188c0-1.04-0.195-1.788-0.578-2.244-0.365-0.438-1.077-0.662-2.135-0.662zm5.787 2.63c0.305 0 0.578 0.022 0.82 0.065 0.25 0.038 0.46 0.085 0.635 0.14 0.18 0.05 0.328 0.103 0.44 0.16 0.118 0.055 0.202 0.099 0.251 0.13l-0.42 1.168a3.56 3.56 0 0 0-0.69-0.272 2.766 2.766 0 0 0-0.84-0.12c-0.679 0-1.17 0.188-1.475 0.568-0.299 0.373-0.448 0.887-0.448 1.54 0 0.318 0.037 0.607 0.112 0.868 0.074 0.255 0.186 0.475 0.336 0.662s0.336 0.334 0.56 0.44c0.224 0.099 0.485 0.15 0.783 0.15 0.162 0 0.299-4e-3 0.41-0.01 0.119-6e-3 0.222-0.018 0.31-0.037v-2.25h1.456v3.201c-0.174 0.068-0.456 0.14-0.842 0.215-0.385 0.08-0.861 0.12-1.427 0.12-0.486 0-0.926-0.074-1.325-0.224a2.766 2.766 0 0 1-1.007-0.652 2.97 2.97 0 0 1-0.655-1.055 4.218 4.218 0 0 1-0.224-1.427c0-0.542 0.084-1.021 0.252-1.438s0.399-0.768 0.691-1.055a2.89 2.89 0 0 1 1.027-0.662c0.399-0.15 0.822-0.224 1.27-0.224z" fill="#dfdfdf" font-size="15" font-weight="400" letter-spacing="0" word-spacing="0"/>
</svg>
