<svg width="22" height="22" version="1.1" xmlns="http://www.w3.org/2000/svg">
<path d="m9.428 5c-0.45 5e-3 -0.778-0.012-1.047 0.137a0.676 0.676 0 0 0-0.301 0.357c-0.037 0.1-0.055 0.218-0.066 0.346l0.07-0.035 0.062-0.032a6.885 6.885 0 0 1 1.365-0.521c0.485-0.124 1-0.169 1.52-0.186l0.1-0.029h0.144c0.315 0 0.608 0.028 0.89 0.07 0.19 0.028 0.376 0.06 0.552 0.11-0.032-0.027-0.06-0.06-0.096-0.08-0.271-0.15-0.598-0.132-1.047-0.137zm1.646 3.123c-0.133 0-0.267 0.01-0.4 0.027-0.4 0.054-0.805 0.187-1.223 0.395l-0.586 0.435c0.167 0.014 0.347 0.018 0.563 0.02h0.572v2h-3.5c-0.667 0-1.138 0.408-1.322 0.777-0.185 0.37-0.178 0.723-0.178 0.723v1.5h-0.572c-0.45 5e-3 -0.778-0.012-1.047 0.137a0.676 0.676 0 0 0-0.301 0.357c-0.059 0.157-0.08 0.343-0.08 0.578v1.858c0 0.234 0.022 0.42 0.08 0.576a0.677 0.677 0 0 0 0.3 0.357c0.27 0.148 0.598 0.132 1.048 0.137h2.144c0.45-5e-3 0.778 0.012 1.047-0.137 0.134-0.074 0.24-0.2 0.299-0.357s0.08-0.342 0.08-0.576v-1.858c0-0.235-0.021-0.421-0.08-0.578a0.673 0.673 0 0 0-0.299-0.357c-0.269-0.15-0.597-0.132-1.047-0.137h-0.572v-1.5s0.01-0.145 0.072-0.275c0.065-0.131 0.094-0.225 0.428-0.225h3.195c0.012-0.023 0.027-0.045 0.039-0.068v-4e-3c0.055-0.101 0.11-0.201 0.172-0.297 0.02-0.032 0.043-0.061 0.064-0.092a4.74 4.74 0 0 1 0.164-0.233l0.01-8e-3 0.019-0.037 0.01-0.011c0.01-0.01 0.012-0.02 0.02-0.03 0-4e-3 0.01-7e-3 0.01-0.01l-0.02 0.028 0.022-0.024v-8e-3c0.128-0.163 0.271-0.306 0.412-0.453l0.187-0.207 0.014-0.014c0.01-7e-3 0.01-0.013 0.016-0.02l0.037-0.044a0.8 0.8 0 0 1 0.037-0.04c0.033-0.032 0.06-0.064 0.092-0.097v-1.331h0.573c0.151-2e-3 0.272-6e-3 0.398-0.01a0.607 0.607 0 0 0 0.016-0.139c0-0.278-0.059-0.391-0.187-0.515 0-5e-3 -0.01-0.01-0.012-0.014-0.104-0.103-0.284-0.2-0.715-0.2zm3.461 2.883c-0.034 0.044-0.064 0.091-0.1 0.135a8.24 8.24 0 0 1-0.797 0.836c-0.01 7e-3 -0.013 0.016-0.022 0.023h0.883c0.333 0 0.362 0.094 0.428 0.225a0.78 0.78 0 0 1 0.072 0.275v1.5h-0.573c-0.449 5e-3 -0.778-0.012-1.046 0.137a0.676 0.676 0 0 0-0.301 0.357c-0.06 0.157-0.08 0.343-0.08 0.578v1.69c0.012 0.085 0.025 0.171 0.025 0.256 0 0.02 0 0.041-0.01 0.062 0.013 0.152 0.032 0.35 0.06 0.426a0.676 0.676 0 0 0 0.3 0.357c0.27 0.148 0.598 0.132 1.047 0.137h2.145c0.45-5e-3 0.778 0.012 1.047-0.137 0.134-0.074 0.24-0.2 0.299-0.357s0.08-0.341 0.08-0.576v-1.858c0-0.235-0.021-0.421-0.08-0.578a0.673 0.673 0 0 0-0.3-0.357c-0.268-0.15-0.597-0.132-1.046-0.137h-0.572v-1.5s0.01-0.353-0.178-0.723c-0.181-0.362-0.64-0.756-1.287-0.771zm-1.515 6.074v-0.016c0 0.054-0.012 0.107-0.018 0.16v0.05c0.01-0.065 0.015-0.13 0.02-0.194zm-9.018-2.08h3v2h-3zm10 0h3v2h-3z" color="#000000" fill="#dfdfdf" font-weight="400" opacity=".5" overflow="visible" style="font-feature-settings:normal;font-variant-alternates:normal;font-variant-caps:normal;font-variant-ligatures:normal;font-variant-numeric:normal;font-variant-position:normal;isolation:auto;mix-blend-mode:normal;shape-padding:0;text-decoration-color:#000000;text-decoration-line:none;text-decoration-style:solid;text-indent:0;text-orientation:mixed;text-transform:none;white-space:normal"/>
<path d="m11.273 6.001c-0.533 0-1.037 0.061-1.513 0.183a5.853 5.853 0 0 0-1.167 0.446l-0.657 0.458 0.566 0.876 0.452-0.336c0.688-0.35 1.394-0.54 2.116-0.54 0.607 0 1.089 0.16 1.42 0.491 0.328 0.316 0.494 0.737 0.494 1.236 0 0.311-0.073 0.603-0.218 0.868a3.339 3.339 0 0 1-0.507 0.736c-0.205 0.227-0.421 0.455-0.648 0.682l-1e-3 1e-3a6.385 6.385 0 0 0-0.632 0.7l-1e-3 2e-3a3.66 3.66 0 0 0-0.492 0.786 2.378 2.378 0 0 0-0.177 0.935c0 0.208 0.024 0.403 0.056 0.594h1.087c0-0.023-0.01-0.044-0.01-0.068v-0.187c0-0.387 0.077-0.74 0.232-1.05 0.151-0.314 0.337-0.599 0.558-0.855l2e-3 -2e-3c0.217-0.264 0.458-0.515 0.72-0.755a7.23 7.23 0 0 0 0.701-0.734 4.27 4.27 0 0 0 0.527-0.807c0.138-0.288 0.208-0.613 0.208-0.982a3.06 3.06 0 0 0-0.147-0.914v-2e-3l-1e-3 -2e-3a2.04 2.04 0 0 0-0.481-0.867c-0.235-0.255-0.552-0.466-0.957-0.63v-2e-3c-0.386-0.172-0.895-0.261-1.528-0.261zm-0.271 9.963c-0.325 0-0.562 0.1-0.743 0.3a1.025 1.025 0 0 0-0.274 0.718c0 0.279 0.089 0.512 0.274 0.718 0.181 0.2 0.418 0.3 0.743 0.3s0.562-0.099 0.743-0.3c0.186-0.206 0.275-0.44 0.275-0.718 0-0.28-0.09-0.512-0.275-0.718-0.181-0.2-0.418-0.3-0.743-0.3z" fill="#dfdfdf" font-size="72.036" font-weight="500" letter-spacing="0" word-spacing="0"/>
</svg>
