<svg width="22" height="22" version="1.1" xmlns="http://www.w3.org/2000/svg">
<g transform="translate(-1.3288 -1.0053)" fill="#dfdfdf">
<path d="m12.33 6.0003a12.1 12.1 0 0 0-7.4 2.518l-0.266 0.205 0.205 0.263 7.457 9.672 7.668-9.931-0.264-0.206a12.105 12.105 0 0 0-7.4-2.521zm0 1c2.181 0 4.344 0.672 6.227 1.951l-6.229 8.07-6.226-8.074c1.883-1.278 4.047-1.948 6.228-1.947z" color="#000000" font-weight="400" overflow="visible" style="font-feature-settings:normal;font-variant-alternates:normal;font-variant-caps:normal;font-variant-ligatures:none;font-variant-numeric:normal;font-variant-position:normal;isolation:auto;mix-blend-mode:normal;shape-padding:0;text-decoration-color:#000000;text-decoration-line:none;text-decoration-style:solid;text-indent:0;text-transform:none;white-space:normal"/>
<path d="m8.6638 13.248a6.003 6 0 0 1 7.332 2e-3l-3.667 4.75z" color="#000000" overflow="visible"/>
</g>
</svg>
