<svg width="22" height="22" version="1.1" xmlns="http://www.w3.org/2000/svg">
<path d="m11 6.0005a5 5 0 1 0 0 10 5 5 0 0 0 0-10zm-1.049 1a3.589 3.589 0 0 0-0.691 3.195 3.596 3.596 0 0 0 4.402 2.543c0.49-0.133 0.946-0.37 1.338-0.691a4.084 4.084 0 0 1-2.861 2.814 4.081 4.081 0 0 1-2.188-7.861zm1.549-4h-1v2h1zm4.803 1.99-1.414 1.414 0.707 0.707 1.415-1.414zm-10.606 0-0.707 0.707 1.414 1.414 0.707-0.707zm13.303 5.51h-2v1h2zm-14 0h-2v1h2zm10.596 4.389-0.707 0.707 1.414 1.414 0.707-0.707zm-9.192 0-1.414 1.414 0.707 0.707 1.414-1.414zm5.096 2.11h-1v2h1z" fill="#dfdfdf"/>
</svg>
