<svg width="22" height="22" version="1.1" xmlns="http://www.w3.org/2000/svg">
<path d="m6 3v4.025c-0.75 0.018-1.41 0.07-1.938 0.36a1.88 1.88 0 0 0-0.837 0.998c-0.165 0.439-0.225 0.96-0.225 1.617v3c0 0.658 0.06 1.179 0.225 1.617 0.164 0.439 0.461 0.79 0.838 0.998 0.282 0.156 0.599 0.234 0.937 0.287v-1.025a1.627 1.627 0 0 1-0.455-0.139c-0.183-0.1-0.287-0.212-0.385-0.472-0.097-0.26-0.16-0.674-0.16-1.266v-3c0-0.592 0.063-1.006 0.16-1.266 0.098-0.26 0.202-0.371 0.385-0.472 0.365-0.202 1.195-0.247 2.455-0.262h8c1.259 0.015 2.087 0.06 2.453 0.262 0.184 0.101 0.29 0.213 0.387 0.472 0.097 0.26 0.16 0.674 0.16 1.266v3c0 0.592-0.063 1.006-0.16 1.266-0.098 0.26-0.203 0.371-0.387 0.472-0.107 0.06-0.267 0.104-0.453 0.139v1.025c0.338-0.053 0.655-0.13 0.938-0.287a1.88 1.88 0 0 0 0.837-0.998c0.165-0.438 0.225-0.96 0.225-1.617v-3c0-0.658-0.06-1.178-0.225-1.617a1.88 1.88 0 0 0-0.838-0.998c-0.526-0.29-1.187-0.342-1.937-0.36v-4.025zm1 1h8v3h-8zm9.5 5a0.5 0.5 0 1 0 0 1 0.5 0.5 0 0 0 0-1zm-6.5 3v2h-1l2 3 2-3h-1v-2zm-4 1v6h10v-6h-1v5h-8v-5z" color="#000000" fill="#dfdfdf" font-weight="400" overflow="visible" style="font-feature-settings:normal;font-variant-alternates:normal;font-variant-caps:normal;font-variant-ligatures:normal;font-variant-numeric:normal;font-variant-position:normal;isolation:auto;mix-blend-mode:normal;shape-padding:0;text-decoration-color:#000000;text-decoration-line:none;text-decoration-style:solid;text-indent:0;text-orientation:mixed;text-transform:none;white-space:normal"/>
</svg>
