<svg width="22" height="22" version="1.1" xmlns="http://www.w3.org/2000/svg">
<g transform="translate(-1,-1)" font-weight="400">
<path class="warning" d="m16.48 13.729a0.442 0.442 0 0 0-0.36 0.22l-3.061 5.397a0.437 0.437 0 0 0 0.379 0.654h6.125a0.437 0.437 0 0 0 0.378-0.654l-3.058-5.397a0.442 0.442 0 0 0-0.403-0.22zm-0.48 1.271h1v0.168c0 0.349-0.016 0.667-0.047 0.957-0.03 0.29-0.069 0.581-0.115 0.875h-0.666a13.156 13.156 0 0 1-0.125-0.875 9.148 9.148 0 0 1-0.047-0.957zm0.5 3a0.5 0.5 0 1 1 0 1 0.5 0.5 0 0 1 0-1z" color="#000000" fill="#fdc92b" fill-rule="evenodd" overflow="visible" style="isolation:auto;mix-blend-mode:normal;text-decoration-color:#000000;text-decoration-line:none;text-decoration-style:solid;text-indent:0;text-transform:none;white-space:normal"/>
<path d="m7 4v4.025c-0.75 0.018-1.41 0.07-1.937 0.36a1.88 1.88 0 0 0-0.838 0.998c-0.165 0.439-0.225 0.96-0.225 1.617v3c0 0.658 0.06 1.179 0.225 1.617 0.164 0.439 0.461 0.79 0.838 0.998 0.282 0.156 0.599 0.234 0.937 0.287v-1.025a1.627 1.627 0 0 1-0.455-0.139c-0.183-0.1-0.287-0.212-0.385-0.472-0.097-0.26-0.16-0.674-0.16-1.266v-3c0-0.592 0.063-1.006 0.16-1.266 0.098-0.26 0.202-0.371 0.385-0.472 0.365-0.202 1.195-0.247 2.455-0.262h8c1.259 0.015 2.087 0.06 2.453 0.262 0.184 0.101 0.29 0.213 0.387 0.472 0.097 0.26 0.16 0.674 0.16 1.266v2h1v-2c0-0.658-0.06-1.178-0.225-1.617a1.88 1.88 0 0 0-0.837-0.998c-0.527-0.29-1.188-0.342-1.938-0.36v-4.025zm1 1h8v3h-8zm9.5 5a0.5 0.5 0 1 0 0 1 0.5 0.5 0 0 0 0-1zm-10.5 4v6h5v-1h-4v-5zm2 1v1h3v-1zm0 2v1h3v-1z" color="#000000" fill="#dfdfdf" overflow="visible" style="font-feature-settings:normal;font-variant-alternates:normal;font-variant-caps:normal;font-variant-ligatures:normal;font-variant-numeric:normal;font-variant-position:normal;isolation:auto;mix-blend-mode:normal;shape-padding:0;text-decoration-color:#000000;text-decoration-line:none;text-decoration-style:solid;text-indent:0;text-orientation:mixed;text-transform:none;white-space:normal"/>
</g>
</svg>
