<svg width="22" height="22" version="1.1" xmlns="http://www.w3.org/2000/svg">
<g transform="translate(-1,1)" fill="#dfdfdf">
<path d="m9.545 3.451a6.996 6.996 0 0 0-4.545 6.549 7 7 0 0 0 3.969 6.303l-0.769 1.199c0.662 0.094 1.352 0.168 2.069 0.219 0.711 0.047 1.41 0.073 2.095 0.078a34.483 34.483 0 0 0-2.004-3.664l-0.845 1.318a6 6 0 0 1-3.515-5.453c0-2.572 1.62-4.76 3.895-5.613zm2.09-1.25a34.483 34.483 0 0 0 2.004 3.664h2e-3l0.845-1.318a6 6 0 0 1 3.514 5.453c0 2.572-1.62 4.76-3.894 5.613l0.35 0.936a6.996 6.996 0 0 0 4.544-6.549 7 7 0 0 0-3.969-6.303l0.769-1.199a29.564 29.564 0 0 0-2.07-0.218 35.233 35.233 0 0 0-2.095-0.079z"/>
<path d="m12 6c-1.108 0-2 0.892-2 2v1h-1v4h6v-4h-1v-1c0-1.108-0.892-2-2-2zm0 1c0.554 0 1 0.446 1 1v1h-2v-1c0-0.554 0.446-1 1-1z" opacity=".5"/>
</g>
</svg>
