<svg width="22" height="22" version="1.1" xmlns="http://www.w3.org/2000/svg">
<path d="m11 3.276s-1.636 2.738-6 2.738c0 9.31 6 12.594 6 12.594s6-3.284 6-12.594c-4.364 0-6-2.738-6-2.738zm0 1.386c0.272 0.312 0.257 0.42 0.781 0.795 0.912 0.654 2.362 1.19 4.153 1.391-0.174 3.943-1.439 6.642-2.73 8.352-0.982 1.298-1.74 1.878-2.204 2.193-0.463-0.315-1.222-0.895-2.203-2.193-1.292-1.71-2.557-4.409-2.73-8.352 1.79-0.2 3.24-0.737 4.152-1.39 0.524-0.377 0.51-0.483 0.781-0.796zm0 1.409c-0.092 0.08-0.073 0.108-0.2 0.199-0.888 0.637-2.15 1.066-3.581 1.346 0.305 3.23 1.302 5.558 2.377 6.98 0.656 0.868 1.015 1.097 1.404 1.408 0.39-0.31 0.75-0.54 1.406-1.408 1.075-1.422 2.072-3.749 2.377-6.978-1.432-0.28-2.695-0.71-3.584-1.348-0.126-0.09-0.107-0.12-0.199-0.2z" color="#000000" fill="#dfdfdf" overflow="visible"/>
</svg>
