<svg width="22" height="22" version="1.1" xmlns="http://www.w3.org/2000/svg">
<path d="m10.998 4.669 2e-3 2e-3 2e-3 2e-3c0.842 1.81 1.495 3.654 1.865 4.784 1.22 1e-3 3.227 0.047 5.14 0.295l-1e-3 2e-3v2e-3l-2e-3 2e-3v2e-3c-1.461 1.361-3.014 2.55-3.975 3.252 0.376 1.16 0.954 3.084 1.309 4.98h-8e-3c-1.747-0.968-3.358-2.078-4.323-2.775-0.986 0.716-2.64 1.86-4.333 2.783v-6e-3l-2e-3 -2e-3c0.381-1.96 0.94-3.836 1.304-4.968-0.986-0.717-2.582-1.934-3.984-3.259l2e-3 -2e-3h2e-3l2e-3 -2e-3v-2e-3c1.982-0.243 3.936-0.292 5.126-0.295 0.378-1.16 1.045-3.053 1.87-4.795zm-2e-3 2.742-2e-3 6e-3v6.574l0.012-8e-3 0.586 0.424c0.476 0.344 1.396 0.887 2.13 1.367-0.232-0.854-0.458-1.879-0.644-2.453l-0.223-0.687 0.584-0.428c0.475-0.347 1.276-1.054 1.96-1.604-0.885-0.042-1.93-0.144-2.534-0.144l-0.723-2e-3 -0.226-0.688c-0.183-0.558-0.608-1.537-0.92-2.357z" color="#000000" fill="#dfdfdf" overflow="visible"/>
</svg>
