<svg width="22" height="22" version="1.1" xmlns="http://www.w3.org/2000/svg">
<path d="m12.002 3.669-2e-3 2e-3 -2e-3 2e-3c-0.842 1.81-1.495 3.654-1.865 4.784-1.22 1e-3 -3.227 0.047-5.14 0.295l1e-3 2e-3v2e-3l2e-3 2e-3v2e-3c1.461 1.361 3.014 2.55 3.975 3.252-0.376 1.16-0.954 3.084-1.309 4.98h8e-3c1.747-0.968 3.358-2.078 4.323-2.775 0.986 0.716 2.64 1.86 4.333 2.783v-6e-3l2e-3 -2e-3c-0.381-1.96-0.94-3.836-1.304-4.968 0.986-0.718 2.582-1.935 3.984-3.26l-2e-3 -1e-3h-2e-3l-2e-3 -2e-3v-2e-3c-1.982-0.243-3.937-0.292-5.127-0.295-0.377-1.16-1.044-3.053-1.869-4.795zm2e-3 2.742 2e-3 6e-3v6.574l-0.012-8e-3 -0.586 0.424c-0.476 0.344-1.396 0.887-2.13 1.367 0.232-0.854 0.458-1.879 0.644-2.453l0.223-0.687-0.584-0.428c-0.475-0.347-1.276-1.054-1.96-1.604 0.885-0.042 1.93-0.144 2.534-0.144l0.723-2e-3 0.226-0.688c0.183-0.558 0.608-1.537 0.92-2.357z" color="#000000" fill="#dfdfdf" overflow="visible"/>
</svg>
