<svg width="22" height="22" version="1.1" xmlns="http://www.w3.org/2000/svg">
<g transform="translate(-1,2)" fill="#dfdfdf">
<path d="m12 2c-3.8601 2e-7 -7 3.1399-7 7 2e-7 3.8601 3.1399 7 7 7 3.8601 0 7-3.1399 7-7 0-3.8601-3.1399-7-7-7zm0 1c3.3196 2e-7 6 2.6804 6 6 0 3.3196-2.6804 6-6 6-3.3196 0-6-2.6804-6-6 2e-7 -3.3196 2.6804-6 6-6z" color="#000000" color-rendering="auto" dominant-baseline="auto" image-rendering="auto" shape-rendering="auto" solid-color="#000000" style="font-feature-settings:normal;font-variant-alternates:normal;font-variant-caps:normal;font-variant-ligatures:normal;font-variant-numeric:normal;font-variant-position:normal;isolation:auto;mix-blend-mode:normal;shape-padding:0;text-decoration-color:#000000;text-decoration-line:none;text-decoration-style:solid;text-indent:0;text-orientation:mixed;text-transform:none;white-space:normal"/>
<path d="m15.157 6 0.84333 0.83849-5.1923 5.1615-2.8077-2.7896 0.84434-0.8405 1.9634 1.9521z"/>
</g>
</svg>
