<svg width="22" height="22" version="1.1" xmlns="http://www.w3.org/2000/svg">
<path d="m11.005 4.667-2e-3 1e-3 -1e-3 2e-3 -2e-3 1e-3 -2e-3 2e-3c-0.843 1.81-1.495 3.654-1.866 4.784-1.219 0-3.226 0.047-5.14 0.295v2e-3l1e-3 2e-3 1e-3 2e-3 1e-3 1e-3c1.46 1.362 3.014 2.551 3.975 3.253-0.376 1.16-0.953 3.084-1.308 4.98h8e-3c1.746-0.969 3.358-2.078 4.322-2.775 0.987 0.716 2.639 1.859 4.333 2.783v-2e-3 -2e-3 -2e-3l1e-3 -2e-3c-0.381-1.96-0.938-3.836-1.303-4.968 0.986-0.717 2.583-1.935 3.985-3.26l-3e-3 -1e-3h-2e-3l-2e-3 -2e-3 -1e-3 -2e-3c-1.983-0.242-3.938-0.292-5.128-0.295-0.376-1.16-1.041-3.054-1.869-4.797z" color="#000000" fill="#dfdfdf" overflow="visible"/>
</svg>
