<svg width="22" height="22" version="1.1" xmlns="http://www.w3.org/2000/svg">
<g transform="translate(3,3)" fill="#dfdfdf">
<path d="m8 16a8 8 0 0 1-8-8 8 8 0 0 1 8-8 8 8 0 0 1 8 8 8 8 0 0 1-8 8zm0-1a7 7 0 0 0 7-7 7 7 0 0 0-7-7 7 7 0 0 0-7 7 7 7 0 0 0 7 7z"/>
<path d="m8 3.75c-0.386 0-0.69 0.124-0.914 0.373a1.27 1.27 0 0 0-0.336 0.877c0 0.336 0.112 0.628 0.336 0.877s0.528 0.373 0.914 0.373 0.69-0.124 0.914-0.373a1.27 1.27 0 0 0 0.336-0.877 1.27 1.27 0 0 0-0.336-0.877c-0.224-0.249-0.528-0.373-0.914-0.373zm-1 3.25v5h2v-5z" font-weight="400" letter-spacing="0" word-spacing="0"/>
</g>
</svg>
