<svg width="22" height="22" version="1.1" xmlns="http://www.w3.org/2000/svg">
<g transform="translate(-1.0194 -.99336)" fill="#dfdfdf">
<path d="m8.0134 5.0061c-1.258 0.015-2.178-0.03-2.931 0.385a1.88 1.88 0 0 0-0.838 0.998c-0.165 0.438-0.225 0.96-0.225 1.617v8c0 0.658 0.06 1.179 0.225 1.617 0.165 0.439 0.461 0.79 0.838 0.998 0.753 0.416 1.673 0.37 2.931 0.385h5.002v-1h-1v-2h1v-1h-8v-7c0-0.592 0.063-1.006 0.16-1.266 0.098-0.26 0.202-0.371 0.385-0.472 0.366-0.202 1.197-0.247 2.455-0.262h7c1.259 0.015 2.087 0.06 2.453 0.262 0.184 0.1 0.29 0.212 0.387 0.472 0.098 0.26 0.16 0.674 0.16 1.266v5h1v-5c0-0.658-0.06-1.179-0.224-1.617a1.88 1.88 0 0 0-0.838-0.998c-0.753-0.416-1.674-0.37-2.932-0.385h-7.004zm-2.994 11h6v2h-3.004c-1.258-0.015-2.089-0.06-2.455-0.262-0.183-0.1-0.287-0.212-0.385-0.472s-0.16-0.674-0.16-1.266z" color="#000000" opacity=".5" overflow="visible" style="font-feature-settings:normal;font-variant-alternates:normal;font-variant-caps:normal;font-variant-ligatures:normal;font-variant-numeric:normal;font-variant-position:normal;isolation:auto;mix-blend-mode:normal;shape-padding:0;text-decoration-color:#000000;text-decoration-line:none;text-decoration-style:solid;text-indent:0;text-orientation:mixed;text-transform:none;white-space:normal"/>
<path d="m14.519 13.799-0.707 0.707 2 2-2 2 0.707 0.707 0.354-0.353 1.646-1.647 2 2 0.707-0.707-0.353-0.354-1.647-1.646 1.647-1.646 0.353-0.354-0.707-0.707-2 2-1.646-1.647z" color="#000000" fill-rule="evenodd" overflow="visible" style="font-feature-settings:normal;font-variant-alternates:normal;font-variant-caps:normal;font-variant-ligatures:normal;font-variant-numeric:normal;font-variant-position:normal;isolation:auto;mix-blend-mode:normal;shape-padding:0;text-decoration-color:#000000;text-decoration-line:none;text-decoration-style:solid;text-indent:0;text-orientation:mixed;text-transform:none;white-space:normal"/>
</g>
</svg>
