<svg width="22" height="22" version="1.1" xmlns="http://www.w3.org/2000/svg">
<g transform="translate(2.998 2.9995)" fill="#dfdfdf" font-weight="400">
<path d="m7.5 0c-1.1 0-2.144 0.32-2.144 0.32l-0.356 0.108v1.683c-1.023 0.186-2.03 0.474-2.998 0.889v1h-1v1h1v9c0 0.439 0.04 0.788 0.15 1.082 0.111 0.294 0.311 0.528 0.563 0.668 0.503 0.28 1.12 0.25 1.953 0.25h3.33v-1h-3.33c-0.857 0-1.295-0.028-1.469-0.125a0.266 0.266 0 0 1-0.113-0.146v-2e-3c-0.046-0.122-0.084-0.348-0.084-0.727v-9h11v-1h-1.002v-1a13.856 13.856 0 0 0-3-0.889v-1.662l-0.33-0.119s-0.913-0.33-2.17-0.33zm0 1c0.89 0 1.291 0.155 1.5 0.22v0.739a14.048 14.048 0 0 0-1.498-0.084c-0.501 0-1.003 0.032-1.502 0.086v-0.734c0.266-0.07 0.773-0.227 1.5-0.227zm-2.5 5v6h1v-6zm2 0v6h1v-6zm2 0v4h1v-4zm2.998 0v2h1v-2z" font-size="15" letter-spacing="0" word-spacing="0"/>
<path d="m11.5 9a0.5 0.5 0 0 0-0.353 0.854l0.556 0.556c-0.298 0.165-0.498 0.249-1.002 0.627-0.396 0.297-0.801 0.647-1.123 1.049s-0.578 0.872-0.578 1.414c0 0.861 0.345 1.586 0.984 1.986 0.64 0.4 1.474 0.514 2.516 0.514s1.876-0.114 2.516-0.514 0.984-1.125 0.984-1.986c0-0.542-0.256-1.012-0.578-1.414s-0.725-0.752-1.121-1.049c-0.505-0.379-0.707-0.462-1.004-0.627l0.557-0.556a0.5 0.5 0 0 0-0.354-0.854zm1 2.088c0.174 0.091 0.605 0.303 1.201 0.75 0.354 0.265 0.699 0.572 0.94 0.873 0.24 0.3 0.359 0.58 0.359 0.789 0 0.639-0.155 0.914-0.516 1.139-0.36 0.225-1.026 0.361-1.984 0.361s-1.624-0.136-1.984-0.361-0.516-0.5-0.516-1.139c0-0.208 0.119-0.488 0.36-0.79 0.24-0.3 0.587-0.607 0.94-0.872 0.597-0.447 1.025-0.658 1.2-0.75z" color="#000000" fill-rule="evenodd" overflow="visible" style="font-feature-settings:normal;font-variant-alternates:normal;font-variant-caps:normal;font-variant-ligatures:normal;font-variant-numeric:normal;font-variant-position:normal;isolation:auto;mix-blend-mode:normal;shape-padding:0;text-decoration-color:#000000;text-decoration-line:none;text-decoration-style:solid;text-indent:0;text-orientation:mixed;text-transform:none;white-space:normal"/>
</g>
</svg>
