<?xml version="1.0" encoding="UTF-8" standalone="no"?>
<svg
   xmlns:dc="http://purl.org/dc/elements/1.1/"
   xmlns:cc="http://creativecommons.org/ns#"
   xmlns:rdf="http://www.w3.org/1999/02/22-rdf-syntax-ns#"
   xmlns:svg="http://www.w3.org/2000/svg"
   xmlns="http://www.w3.org/2000/svg"
   xmlns:sodipodi="http://sodipodi.sourceforge.net/DTD/sodipodi-0.dtd"
   xmlns:inkscape="http://www.inkscape.org/namespaces/inkscape"
   width="24"
   height="24"
   version="1.1"
   id="svg4"
   sodipodi:docname="appointment-new.svg"
   inkscape:version="0.92.3 (2405546, 2018-03-11)">
  <metadata
     id="metadata10">
    <rdf:RDF>
      <cc:Work
         rdf:about="">
        <dc:format>image/svg+xml</dc:format>
        <dc:type
           rdf:resource="http://purl.org/dc/dcmitype/StillImage" />
        <dc:title></dc:title>
      </cc:Work>
    </rdf:RDF>
  </metadata>
  <defs
     id="defs8" />
  <sodipodi:namedview
     pagecolor="#ffffff"
     bordercolor="#666666"
     borderopacity="1"
     objecttolerance="10"
     gridtolerance="10"
     guidetolerance="10"
     inkscape:pageopacity="0"
     inkscape:pageshadow="2"
     inkscape:window-width="640"
     inkscape:window-height="480"
     id="namedview6"
     showgrid="true"
     inkscape:zoom="12.904699"
     inkscape:cx="-3.4005958"
     inkscape:cy="6.6537785"
     inkscape:current-layer="svg4">
    <inkscape:grid
       type="xygrid"
       id="grid817" />
  </sodipodi:namedview>
  <path
     d="M 9,4 8,4.25 V 5 H 9 Z M 9,5 V 6 H 8 V 5 H 7.994 C 6.736,5.015 5.815,4.97 5.062,5.385 4.686,5.592 4.387,5.945 4.222,6.383 4.058,6.821 4,7.343 4,8 v 8 c 0,0.658 0.058,1.179 0.223,1.617 0.164,0.439 0.463,0.789 0.84,0.996 0.752,0.416 1.673,0.372 2.931,0.387 H 13 V 18 H 8 C 6.74,17.985 5.913,17.94 5.547,17.738 5.363,17.638 5.257,17.526 5.16,17.266 5.063,17.006 5,16.592 5,16 V 11 C 5,10.408 5.063,9.994 5.16,9.734 5.258,9.474 5.363,9.363 5.547,9.262 5.914,9.059 6.742,9.015 8.006,9 H 14 c 1.26,0.015 2.087,0.06 2.453,0.262 0.184,0.1 0.29,0.212 0.387,0.472 C 16.937,9.994 17,11 17,11 v 3 h 1 V 8 C 18,7.342 17.94,6.821 17.775,6.383 A 1.88,1.88 0 0 0 16.938,5.385 C 16.185,4.969 15.264,5.015 14.006,5 H 14 V 6 H 13 V 5 Z m 4,0 h 1 V 4 l -1,0.25 z m 3,10 v 2 h -2 v 1 h 2 v 2 h 1 v -2 h 2 v -1 h -2 v -2 z"
     font-weight="400"
     overflow="visible"
     id="path2"
     inkscape:connector-curvature="0"
     style="font-weight:400;font-family:sans-serif;overflow:visible;fill:#4d4d4d" />
</svg>
