<?xml version="1.0" encoding="UTF-8" standalone="no"?>
<svg
   xmlns:dc="http://purl.org/dc/elements/1.1/"
   xmlns:cc="http://creativecommons.org/ns#"
   xmlns:rdf="http://www.w3.org/1999/02/22-rdf-syntax-ns#"
   xmlns:svg="http://www.w3.org/2000/svg"
   xmlns="http://www.w3.org/2000/svg"
   xmlns:sodipodi="http://sodipodi.sourceforge.net/DTD/sodipodi-0.dtd"
   xmlns:inkscape="http://www.inkscape.org/namespaces/inkscape"
   width="24"
   height="24"
   version="1.1"
   id="svg4"
   sodipodi:docname="configure-toolbars.svg"
   inkscape:version="0.92.3 (2405546, 2018-03-11)">
  <metadata
     id="metadata10">
    <rdf:RDF>
      <cc:Work
         rdf:about="">
        <dc:format>image/svg+xml</dc:format>
        <dc:type
           rdf:resource="http://purl.org/dc/dcmitype/StillImage" />
        <dc:title></dc:title>
      </cc:Work>
    </rdf:RDF>
  </metadata>
  <defs
     id="defs8" />
  <sodipodi:namedview
     pagecolor="#ffffff"
     bordercolor="#666666"
     borderopacity="1"
     objecttolerance="10"
     gridtolerance="10"
     guidetolerance="10"
     inkscape:pageopacity="0"
     inkscape:pageshadow="2"
     inkscape:window-width="1818"
     inkscape:window-height="977"
     id="namedview6"
     showgrid="true"
     inkscape:zoom="20.757161"
     inkscape:cx="4.7389897"
     inkscape:cy="8.2128371"
     inkscape:window-x="0"
     inkscape:window-y="34"
     inkscape:window-maximized="0"
     inkscape:current-layer="svg4">
    <inkscape:grid
       type="xygrid"
       id="grid7" />
  </sodipodi:namedview>
  <path
     style="fill:#4d4d4d;stroke-width:0.93333334"
     d="m 16.604351,18.918308 c -0.169172,-0.0455 -0.422336,-0.15679 -0.562589,-0.247388 -0.140263,-0.09061 -1.83624,-1.747942 -3.768859,-3.682968 L 8.7590724,11.469727 H 8.2716628 c -0.8913269,0 -1.7193737,-0.366738 -2.3498632,-1.040732 C 5.4973637,9.9752806 5.2115889,9.4025586 5.1214815,8.8251206 c -0.070437,-0.451176 -0.039987,-1.169699 0.060637,-1.4345 l 0.061513,-0.161814 0.967758,0.961143 c 0.5322703,0.528631 1.0230575,0.98917 1.0906424,1.023417 0.1700299,0.08619 0.4997558,0.07788 0.6815982,-0.01706 0.083562,-0.04366 0.3838797,-0.316461 0.667397,-0.606261 0.3963484,-0.405133 0.5243783,-0.574314 0.553962,-0.732006 0.0798,-0.425267 0.019775,-0.516346 -1.0574716,-1.604565 C 7.4850034,5.5841933 7.1604311,5.2188197 7.2122748,5.2006635 7.4355746,5.1224386 8.0847892,4.9999999 8.2760028,4.9999999 c 0.3821647,0 1.0285091,0.1635899 1.4384638,0.3640785 0.7485974,0.3660909 1.3278994,1.0265752 1.6425054,1.8726732 0.118798,0.319471 0.142056,0.483464 0.147559,1.040147 l 0.0061,0.660878 3.553189,3.5585174 c 2.289865,2.293296 3.592564,3.638519 3.663937,3.78355 0.360832,0.733154 0.221454,1.565751 -0.359336,2.14654 -0.282336,0.282336 -0.563727,0.43323 -0.967469,0.518804 -0.366905,0.07778 -0.413551,0.07622 -0.797064,-0.02686 z m 0.850552,-0.755247 c 0.247187,-0.06868 0.569415,-0.407416 0.666049,-0.700218 0.210989,-0.639301 -0.301962,-1.323655 -0.992126,-1.323655 -0.898029,0 -1.39187,1.016583 -0.822535,1.693203 0.277472,0.329752 0.70686,0.453372 1.148612,0.33067 z M 5.2717014,18.676205 C 5.0856328,18.487293 5.0145566,18.376421 5.0462928,18.324587 c 0.025463,-0.04165 0.4052647,-0.622248 0.8439281,-1.290239 l 0.7975794,-1.214543 0.4425921,-0.07332 0.4426009,-0.07332 1.0836516,-1.073799 1.0836429,-1.073799 0.3503852,0.350376 0.350376,0.350385 -1.0402171,1.040357 -1.0402167,1.040347 -0.1142662,0.490263 -0.1142574,0.490252 -1.2359453,0.828494 C 6.2163768,18.5717 5.6339336,18.946217 5.6018298,18.948282 5.5697176,18.950056 5.4211687,18.827891 5.2717014,18.67614 Z m 9.4461336,-7.656551 -0.222048,-0.227395 1.897234,-1.8978554 c 1.881231,-1.881844 2.016638,-2.044226 1.826911,-2.191034 -0.238384,-0.18445 -0.221567,-0.198047 -2.205882,1.783196 l -1.918498,1.9155314 -0.249706,-0.254432 -0.249717,-0.2544334 1.896999,-1.900017 c 1.043341,-1.045011 1.89699,-1.94346 1.89699,-1.9965555 0,-0.1249936 -0.19719,-0.3215622 -0.322569,-0.3215622 -0.05364,0 -0.952637,0.8551107 -1.997772,1.9002447 l -1.900244,1.900245 -0.224674,-0.228918 -0.224665,-0.228926 1.898959,-1.888616 c 1.75195,-1.7424032 1.924158,-1.8979256 2.224554,-2.0088755 0.410489,-0.1516199 0.682779,-0.1518562 1.086111,-8.75e-4 0.423875,0.1585936 0.704951,0.4239459 0.893041,0.843053 0.128136,0.2855295 0.150946,0.4041975 0.13258,0.6898325 -0.01286,0.199543 -0.0742,0.451718 -0.145547,0.598149 -0.0861,0.176715 -0.689053,0.818378 -1.996696,2.124945 l -1.873312,1.8717724 z"
     id="path2"
     inkscape:connector-curvature="0" />
</svg>
