<?xml version="1.0" encoding="UTF-8" standalone="no"?>
<svg
   xmlns:dc="http://purl.org/dc/elements/1.1/"
   xmlns:cc="http://creativecommons.org/ns#"
   xmlns:rdf="http://www.w3.org/1999/02/22-rdf-syntax-ns#"
   xmlns:svg="http://www.w3.org/2000/svg"
   xmlns="http://www.w3.org/2000/svg"
   xmlns:sodipodi="http://sodipodi.sourceforge.net/DTD/sodipodi-0.dtd"
   xmlns:inkscape="http://www.inkscape.org/namespaces/inkscape"
   viewBox="0 0 24 24"
   version="1.1"
   id="svg9"
   sodipodi:docname="coordinate.svg"
   inkscape:version="0.92.3 (2405546, 2018-03-11)">
  <metadata
     id="metadata13">
    <rdf:RDF>
      <cc:Work
         rdf:about="">
        <dc:format>image/svg+xml</dc:format>
        <dc:type
           rdf:resource="http://purl.org/dc/dcmitype/StillImage" />
      </cc:Work>
    </rdf:RDF>
  </metadata>
  <sodipodi:namedview
     pagecolor="#ffffff"
     bordercolor="#666666"
     borderopacity="1"
     objecttolerance="10"
     gridtolerance="10"
     guidetolerance="10"
     inkscape:pageopacity="0"
     inkscape:pageshadow="2"
     inkscape:window-width="640"
     inkscape:window-height="480"
     id="namedview11"
     showgrid="false"
     inkscape:zoom="12.166667"
     inkscape:cx="-2.3013699"
     inkscape:cy="11.342466"
     inkscape:current-layer="svg9" />
  <defs
     id="defs3">
    <style
       id="current-color-scheme"
       type="text/css">
   .ColorScheme-Text { color:#4d4d4d; } .ColorScheme-Highlight { color:#f34f17; }
  </style>
  </defs>
  <path
     style="fill:currentColor"
     class="ColorScheme-Text"
     d="M 16.78125 6.5625 L 12.9375 10.75 L 13.6875 11.4375 L 17.53125 7.25 C 17.389586 7.114608 17.057853 6.827192 16.78125 6.5625 z M 7.21875 6.625 L 6.46875 7.3125 L 10.277344 11.414062 L 11.03125 10.71875 L 7.21875 6.625 z M 11.5 14.4375 L 11.5 16.5625 L 12.5 16.5625 L 12.5 14.4375 C 12.102857 14.4419 11.795206 14.438196 11.5 14.4375 z"
     id="path5" />
  <path
     style="fill:#4d4d4d;fill-opacity:1"
     d="M 5.5,4 A 1.4999959,1.5 0 0 0 4,5.5 1.4999959,1.5 0 0 0 5.5,7 1.4999959,1.5 0 0 0 7,5.5 1.4999959,1.5 0 0 0 5.5,4 Z"
     id="path826" />
  <path
     style="fill:#4d4d4d;fill-opacity:1"
     d="M 18.5,4 A 1.4999959,1.5 0 0 0 17,5.5 1.4999959,1.5 0 0 0 18.5,7 1.4999959,1.5 0 0 0 20,5.5 1.4999959,1.5 0 0 0 18.5,4 Z"
     id="path824" />
  <path
     style="fill:#4d4d4d;fill-opacity:1"
     d="M 12,11 A 1.4999959,1.5 0 0 0 10.5,12.5 1.4999959,1.5 0 0 0 12,14 1.4999959,1.5 0 0 0 13.5,12.5 1.4999959,1.5 0 0 0 12,11 Z"
     id="path822" />
  <path
     style="fill:#4d4d4d;fill-opacity:1"
     d="M 12,17 A 1.4999959,1.5 0 0 0 10.5,18.5 1.4999959,1.5 0 0 0 12,20 1.4999959,1.5 0 0 0 13.5,18.5 1.4999959,1.5 0 0 0 12,17 Z"
     id="path7" />
</svg>
