<?xml version="1.0" encoding="UTF-8" standalone="no"?>
<svg
   xmlns:dc="http://purl.org/dc/elements/1.1/"
   xmlns:cc="http://creativecommons.org/ns#"
   xmlns:rdf="http://www.w3.org/1999/02/22-rdf-syntax-ns#"
   xmlns:svg="http://www.w3.org/2000/svg"
   xmlns="http://www.w3.org/2000/svg"
   xmlns:sodipodi="http://sodipodi.sourceforge.net/DTD/sodipodi-0.dtd"
   xmlns:inkscape="http://www.inkscape.org/namespaces/inkscape"
   height="24"
   width="24"
   version="1.1"
   id="svg4"
   sodipodi:docname="dialog-warning.svg"
   inkscape:version="0.92.3 (2405546, 2018-03-11)">
  <metadata
     id="metadata10">
    <rdf:RDF>
      <cc:Work
         rdf:about="">
        <dc:format>image/svg+xml</dc:format>
        <dc:type
           rdf:resource="http://purl.org/dc/dcmitype/StillImage" />
        <dc:title></dc:title>
      </cc:Work>
    </rdf:RDF>
  </metadata>
  <defs
     id="defs8" />
  <sodipodi:namedview
     pagecolor="#ffffff"
     bordercolor="#666666"
     borderopacity="1"
     objecttolerance="10"
     gridtolerance="10"
     guidetolerance="10"
     inkscape:pageopacity="0"
     inkscape:pageshadow="2"
     inkscape:window-width="640"
     inkscape:window-height="480"
     id="namedview6"
     showgrid="true"
     inkscape:zoom="12.903085"
     inkscape:cx="-3.7920629"
     inkscape:cy="3.0856769"
     inkscape:current-layer="svg4">
    <inkscape:grid
       type="xygrid"
       id="grid814" />
  </sodipodi:namedview>
  <g
     id="g819"
     transform="translate(4.0000001,-3.999952)">
    <path
       inkscape:connector-curvature="0"
       id="path13"
       d="M 7.9628906,7.9979992 A 1.499,1.499 0 0 0 6.6855469,8.7831554 L 0.18359375,20.783155 A 1.5,1.5 0 0 0 1.5,22.999952 h 13 a 1.5,1.5 0 0 0 1.316406,-2.216797 L 9.3183594,8.7831554 A 1.496,1.496 0 0 0 7.9628906,7.9979992 Z m 0.025391,1 A 0.494,0.494 0 0 1 8.4394531,9.259718 l 6.4980469,12 c 0.203,0.374 -0.0165,0.740234 -0.4375,0.740234 h -13 c -0.422,0 -0.6395,-0.366234 -0.4375,-0.740234 l 6.5019531,-12 A 0.493,0.493 0 0 1 7.9882816,8.9979992 Z"
       style="line-height:normal;font-variant-ligatures:normal;font-variant-position:normal;font-variant-caps:normal;font-variant-numeric:normal;font-variant-alternates:normal;font-feature-settings:normal;text-indent:0;text-align:start;text-decoration:none;text-decoration-line:none;text-decoration-style:solid;text-decoration-color:#000000;text-transform:none;text-orientation:mixed;shape-padding:0;isolation:auto;mix-blend-mode:normal;fill:#4d4d4d;fill-opacity:1" />
    <path
       inkscape:connector-curvature="0"
       id="path9"
       d="m 7.293,10.999999 v 2.662 c 0,0.793 0.03,1.517 0.086,2.168 0.057,0.642 0.128,1.284 0.213,1.926 h 0.82 c 0.085,-0.642 0.157,-1.284 0.213,-1.926 0.057,-0.651 0.086,-1.375 0.086,-2.168 v -2.662 z"
       style="line-height:normal;font-variant-ligatures:normal;font-variant-position:normal;font-variant-caps:normal;font-variant-numeric:normal;font-variant-alternates:normal;font-feature-settings:normal;text-indent:0;text-align:start;text-decoration:none;text-decoration-line:none;text-decoration-style:solid;text-decoration-color:#000000;text-transform:none;text-orientation:mixed;shape-padding:0;isolation:auto;mix-blend-mode:normal;fill:#4d4d4d;fill-opacity:1" />
    <path
       inkscape:connector-curvature="0"
       id="path2"
       d="m 8.003,18.999999 a 1,1 0 0 0 -1,1 c 0,0.282 0.118,0.535 0.306,0.717 0.17,0.189 0.4,0.283 0.693,0.283 0.293,0 0.524,-0.094 0.694,-0.283 a 0.994,0.994 0 0 0 0.306,-0.717 1,1 0 0 0 -1,-1 z"
       style="line-height:normal;font-variant-ligatures:normal;font-variant-position:normal;font-variant-caps:normal;font-variant-numeric:normal;font-variant-alternates:normal;font-feature-settings:normal;text-indent:0;text-align:start;text-decoration:none;text-decoration-line:none;text-decoration-style:solid;text-decoration-color:#000000;text-transform:none;text-orientation:mixed;shape-padding:0;isolation:auto;mix-blend-mode:normal;fill:#4d4d4d;fill-opacity:1" />
  </g>
</svg>
