<?xml version="1.0" encoding="UTF-8" standalone="no"?>
<svg
   xmlns:dc="http://purl.org/dc/elements/1.1/"
   xmlns:cc="http://creativecommons.org/ns#"
   xmlns:rdf="http://www.w3.org/1999/02/22-rdf-syntax-ns#"
   xmlns:svg="http://www.w3.org/2000/svg"
   xmlns="http://www.w3.org/2000/svg"
   xmlns:sodipodi="http://sodipodi.sourceforge.net/DTD/sodipodi-0.dtd"
   xmlns:inkscape="http://www.inkscape.org/namespaces/inkscape"
   width="24"
   height="24"
   version="1.1"
   id="svg8"
   sodipodi:docname="dialog-messages.svg"
   inkscape:version="0.92.3 (2405546, 2018-03-11)">
  <metadata
     id="metadata14">
    <rdf:RDF>
      <cc:Work
         rdf:about="">
        <dc:format>image/svg+xml</dc:format>
        <dc:type
           rdf:resource="http://purl.org/dc/dcmitype/StillImage" />
        <dc:title></dc:title>
      </cc:Work>
    </rdf:RDF>
  </metadata>
  <defs
     id="defs12" />
  <sodipodi:namedview
     pagecolor="#ffffff"
     bordercolor="#666666"
     borderopacity="1"
     objecttolerance="10"
     gridtolerance="10"
     guidetolerance="10"
     inkscape:pageopacity="0"
     inkscape:pageshadow="2"
     inkscape:window-width="640"
     inkscape:window-height="480"
     id="namedview10"
     showgrid="true"
     inkscape:zoom="18.25"
     inkscape:cx="-1.3150685"
     inkscape:cy="7.5616438"
     inkscape:current-layer="svg8">
    <inkscape:grid
       type="xygrid"
       id="grid821" />
  </sodipodi:namedview>
  <g
     transform="translate(-1268.996,331)"
     style="fill:#4d4d4d"
     id="g6">
    <path
       d="m 1276.994,-326 c -1.258,0.015 -2.178,-0.03 -2.931,0.385 a 1.88,1.88 0 0 0 -0.838,0.998 c -0.165,0.438 -0.225,0.96 -0.225,1.617 v 6 c 0,0.658 0.06,1.179 0.225,1.617 0.165,0.439 0.461,0.79 0.838,0.998 0.753,0.416 1.673,0.37 2.931,0.385 h 8.004 c 1.258,-0.015 2.18,0.03 2.932,-0.385 a 1.88,1.88 0 0 0 0.838,-0.998 c 0.164,-0.438 0.224,-0.96 0.224,-1.617 v -6 c 0,-0.658 -0.06,-1.179 -0.224,-1.617 a 1.88,1.88 0 0 0 -0.838,-0.998 c -0.753,-0.416 -1.674,-0.37 -2.932,-0.385 z m 0.01,1 h 8 c 1.259,0.015 2.088,0.06 2.454,0.262 0.183,0.1 0.289,0.212 0.386,0.472 0.097,0.26 0.16,0.674 0.16,1.266 v 6 c 0,0.592 -0.063,1.006 -0.16,1.266 -0.098,0.26 -0.203,0.371 -0.387,0.472 -0.366,0.202 -1.194,0.247 -2.453,0.262 H 1277 c -1.258,-0.015 -2.089,-0.06 -2.455,-0.262 -0.183,-0.1 -0.287,-0.212 -0.385,-0.472 -0.098,-0.26 -0.16,-0.674 -0.16,-1.266 v -6 c 0,-0.592 0.063,-1.006 0.16,-1.266 0.098,-0.26 0.202,-0.371 0.385,-0.472 0.366,-0.202 1.197,-0.247 2.455,-0.262 z"
       font-weight="400"
       overflow="visible"
       style="color:#000000;font-weight:400;font-family:sans-serif;overflow:visible;fill:#4d4d4d"
       id="path2"
       inkscape:connector-curvature="0" />
    <path
       d="m 1280,-312 3.5,-2.5 -0.5,-0.5 h -6 l -0.5,0.5 z"
       font-size="15"
       font-weight="400"
       letter-spacing="0"
       word-spacing="0"
       style="font-weight:400;font-size:15px;font-family:Ubuntu;letter-spacing:0;word-spacing:0;text-anchor:middle;fill:#4d4d4d"
       id="path4"
       inkscape:connector-curvature="0" />
  </g>
</svg>
