<?xml version="1.0" encoding="UTF-8" standalone="no"?>
<svg
   xmlns:dc="http://purl.org/dc/elements/1.1/"
   xmlns:cc="http://creativecommons.org/ns#"
   xmlns:rdf="http://www.w3.org/1999/02/22-rdf-syntax-ns#"
   xmlns:svg="http://www.w3.org/2000/svg"
   xmlns="http://www.w3.org/2000/svg"
   xmlns:sodipodi="http://sodipodi.sourceforge.net/DTD/sodipodi-0.dtd"
   xmlns:inkscape="http://www.inkscape.org/namespaces/inkscape"
   viewBox="0 0 24 24"
   version="1.1"
   id="svg7"
   sodipodi:docname="distribute-vertical-baseline.svg"
   width="24"
   height="24"
   inkscape:version="0.92.3 (2405546, 2018-03-11)">
  <metadata
     id="metadata11">
    <rdf:RDF>
      <cc:Work
         rdf:about="">
        <dc:format>image/svg+xml</dc:format>
        <dc:type
           rdf:resource="http://purl.org/dc/dcmitype/StillImage" />
        <dc:title></dc:title>
      </cc:Work>
    </rdf:RDF>
  </metadata>
  <sodipodi:namedview
     pagecolor="#ffffff"
     bordercolor="#666666"
     borderopacity="1"
     objecttolerance="10"
     gridtolerance="10"
     guidetolerance="10"
     inkscape:pageopacity="0"
     inkscape:pageshadow="2"
     inkscape:window-width="640"
     inkscape:window-height="480"
     id="namedview9"
     showgrid="true"
     inkscape:zoom="12.166667"
     inkscape:cx="2.4931507"
     inkscape:cy="9.8878464"
     inkscape:current-layer="svg7">
    <inkscape:grid
       type="xygrid"
       id="grid13" />
  </sodipodi:namedview>
  <defs
     id="defs3">
    <style
       id="current-color-scheme"
       type="text/css">
   .ColorScheme-Text { color:#4d4d4d; }
  </style>
  </defs>
  <g
     id="g823"
     transform="translate(4,4)">
    <g
       transform="rotate(90,6.725586,9.704102)"
       id="g827">
      <path
         inkscape:connector-curvature="0"
         style="color:#4d4d4d;fill:currentColor"
         d="m 3.0214845,0.429688 -3,2 3,2 z"
         id="path822" />
      <path
         inkscape:connector-curvature="0"
         style="color:#4d4d4d;fill:currentColor"
         d="m 7.0214845,0.429688 v 4 l 2.9999995,-2 z"
         id="path820" />
    </g>
    <path
       inkscape:connector-curvature="0"
       id="path818"
       d="M 6.1367188,0 C 4.9639814,0.0254798 4.0627581,0.2155925 3.4082031,0.4960937 L 3.7773438,1.7597656 C 4.090981,1.6577066 5.277195,1.3007812 5.9726562,1.3007812 h 0.095703 c 0.9681927,0.03822 1.0351564,0.3687244 1.0351564,1.1464844 V 2.7539062 L 6.5996094,2.8300782 C 4.2541197,3.1488402 3,3.4165604 3,5.0996097 c 0,1.173034 0.9135772,1.90039 2.2363281,1.90039 0.9136461,0 1.5133189,-0.35729 2.1269531,-0.841796 l 0.1914063,0.71289 H 9 V 2.1542968 C 9,0.7135152 7.935216,0 6.2988281,0 Z M 7.1035156,3.7480468 V 5.3164066 C 6.5989743,5.6351696 6.2170553,5.8652346 5.5625,5.8652346 c -0.5863687,0 -0.873047,-0.345571 -0.8730469,-0.830078 0,-0.9180274 0.8601368,-1.0706879 1.9101563,-1.2109379 z"
       style="color:#4d4d4d;fill:currentColor" />
    <path
       inkscape:connector-curvature="0"
       id="path816"
       d="m 3.0312501,8 c 0,1.898501 1.3410985,3.470747 2.3496085,4.435547 C 4.1820686,13.653347 2.7038602,14.202016 0,14.666016 L 0.277343,16 C 6.3047226,14.9656 8.9999996,11.175499 8.9999996,8 h -1.476563 c 0,0.923501 -0.466475,2.705979 -1.265625,3.392579 -0.81579,-0.7731 -1.799919,-1.968194 -2.037109,-3.371094 z"
       style="color:#4d4d4d;fill:currentColor" />
  </g>
</svg>
