<?xml version="1.0" encoding="UTF-8" standalone="no"?>
<svg
   xmlns:dc="http://purl.org/dc/elements/1.1/"
   xmlns:cc="http://creativecommons.org/ns#"
   xmlns:rdf="http://www.w3.org/1999/02/22-rdf-syntax-ns#"
   xmlns:svg="http://www.w3.org/2000/svg"
   xmlns="http://www.w3.org/2000/svg"
   xmlns:sodipodi="http://sodipodi.sourceforge.net/DTD/sodipodi-0.dtd"
   xmlns:inkscape="http://www.inkscape.org/namespaces/inkscape"
   width="24"
   height="24"
   version="1.1"
   id="svg6"
   sodipodi:docname="document-print-preview.svg"
   inkscape:version="0.92.3 (2405546, 2018-03-11)">
  <metadata
     id="metadata12">
    <rdf:RDF>
      <cc:Work
         rdf:about="">
        <dc:format>image/svg+xml</dc:format>
        <dc:type
           rdf:resource="http://purl.org/dc/dcmitype/StillImage" />
        <dc:title></dc:title>
      </cc:Work>
    </rdf:RDF>
  </metadata>
  <defs
     id="defs10" />
  <sodipodi:namedview
     pagecolor="#ffffff"
     bordercolor="#666666"
     borderopacity="1"
     objecttolerance="10"
     gridtolerance="10"
     guidetolerance="10"
     inkscape:pageopacity="0"
     inkscape:pageshadow="2"
     inkscape:window-width="640"
     inkscape:window-height="480"
     id="namedview8"
     showgrid="true"
     inkscape:zoom="9.125"
     inkscape:cx="-16.427275"
     inkscape:cy="4.4025934"
     inkscape:current-layer="svg6">
    <inkscape:grid
       type="xygrid"
       id="grid14" />
  </sodipodi:namedview>
  <g
     transform="translate(-168,-156)"
     style="fill:#4d4d4d"
     id="g4">
    <path
       d="m 1,0 v 16 h 9 V 15 H 2 V 1 h 12 v 9 h 1 V 0 Z m 7.0859375,4 c -2.20322,0 -4,1.79678 -4,4 0,2.20322 1.79678,4 4,4 0.9790738,0 1.8659582,-0.369393 2.5625005,-0.957031 L 12.640625,13 13.339844,12.287109 11.333984,10.314453 C 11.802326,9.6594974 12.085938,8.8635498 12.085938,8 c 0,-2.20322 -1.79679,-4 -4.0000005,-4 z m 0,1 c 1.66277,0 3.0000005,1.33722 3.0000005,3 0,1.66278 -1.3372305,3 -3.0000005,3 -1.66278,0 -3,-1.33722 -3,-3 0,-1.66278 1.33722,-3 3,-3 z"
       transform="translate(172,160)"
       style="fill:#4d4d4d"
       id="path2"
       inkscape:connector-curvature="0" />
  </g>
</svg>
