<?xml version="1.0" encoding="UTF-8" standalone="no"?>
<svg
   xmlns:dc="http://purl.org/dc/elements/1.1/"
   xmlns:cc="http://creativecommons.org/ns#"
   xmlns:rdf="http://www.w3.org/1999/02/22-rdf-syntax-ns#"
   xmlns:svg="http://www.w3.org/2000/svg"
   xmlns="http://www.w3.org/2000/svg"
   xmlns:sodipodi="http://sodipodi.sourceforge.net/DTD/sodipodi-0.dtd"
   xmlns:inkscape="http://www.inkscape.org/namespaces/inkscape"
   width="24"
   height="24"
   version="1.1"
   id="svg8"
   sodipodi:docname="document-revert.svg"
   inkscape:version="0.92.3 (2405546, 2018-03-11)">
  <metadata
     id="metadata14">
    <rdf:RDF>
      <cc:Work
         rdf:about="">
        <dc:format>image/svg+xml</dc:format>
        <dc:type
           rdf:resource="http://purl.org/dc/dcmitype/StillImage" />
        <dc:title></dc:title>
      </cc:Work>
    </rdf:RDF>
  </metadata>
  <defs
     id="defs12" />
  <sodipodi:namedview
     pagecolor="#ffffff"
     bordercolor="#666666"
     borderopacity="1"
     objecttolerance="10"
     gridtolerance="10"
     guidetolerance="10"
     inkscape:pageopacity="0"
     inkscape:pageshadow="2"
     inkscape:window-width="640"
     inkscape:window-height="480"
     id="namedview10"
     showgrid="true"
     inkscape:zoom="18.25"
     inkscape:cx="0.82191781"
     inkscape:cy="7.5616438"
     inkscape:current-layer="svg8">
    <inkscape:grid
       type="xygrid"
       id="grid16" />
  </sodipodi:namedview>
  <g
     id="g6"
     style="color:#000000;fill:#4d4d4d"
     transform="translate(4,5)">
    <path
       d="M 8,3 V 8 A 36.973,36.973 0 0 1 5.676,6.834 44.09,44.09 0 0 1 3.417,5.5 52.149,52.149 0 0 1 5.677,4.18 43.18,43.18 0 0 1 8,3 Z"
       overflow="visible"
       id="path2"
       inkscape:connector-curvature="0"
       style="overflow:visible" />
    <path
       d="m 7,5 v 1 h 4.5 C 12.894,6 14,7.106 14,8.5 14,9.894 12.894,11 11.5,11 H 1 v 1 H 11.5 C 13.43,12 15,10.43 15,8.5 15,6.57 13.43,5 11.5,5 h -4 z"
       font-weight="400"
       overflow="visible"
       id="path4"
       inkscape:connector-curvature="0"
       style="font-weight:400;font-family:sans-serif;overflow:visible" />
  </g>
</svg>
