<?xml version="1.0" encoding="UTF-8" standalone="no"?>
<svg
   xmlns:dc="http://purl.org/dc/elements/1.1/"
   xmlns:cc="http://creativecommons.org/ns#"
   xmlns:rdf="http://www.w3.org/1999/02/22-rdf-syntax-ns#"
   xmlns:svg="http://www.w3.org/2000/svg"
   xmlns="http://www.w3.org/2000/svg"
   xmlns:sodipodi="http://sodipodi.sourceforge.net/DTD/sodipodi-0.dtd"
   xmlns:inkscape="http://www.inkscape.org/namespaces/inkscape"
   width="24"
   height="24"
   version="1.1"
   id="svg4"
   sodipodi:docname="document-open-recent.svg"
   inkscape:version="0.92.3 (2405546, 2018-03-11)">
  <metadata
     id="metadata10">
    <rdf:RDF>
      <cc:Work
         rdf:about="">
        <dc:format>image/svg+xml</dc:format>
        <dc:type
           rdf:resource="http://purl.org/dc/dcmitype/StillImage" />
        <dc:title></dc:title>
      </cc:Work>
    </rdf:RDF>
  </metadata>
  <defs
     id="defs8" />
  <sodipodi:namedview
     pagecolor="#ffffff"
     bordercolor="#666666"
     borderopacity="1"
     objecttolerance="10"
     gridtolerance="10"
     guidetolerance="10"
     inkscape:pageopacity="0"
     inkscape:pageshadow="2"
     inkscape:window-width="640"
     inkscape:window-height="480"
     id="namedview6"
     showgrid="true"
     inkscape:zoom="12.904699"
     inkscape:cx="-2.7641503"
     inkscape:cy="10.719587"
     inkscape:current-layer="svg4">
    <inkscape:grid
       type="xygrid"
       id="grid12" />
  </sodipodi:namedview>
  <path
     d="m 12.475,4.9999991 c -1.978,0 -3.77,0.769 -5.11,2.018 l -1.025,-1.026 a 34.471,34.471 0 0 0 -0.646,1.983 41.553,41.553 0 0 0 -0.531,2.025 c 0.669,-0.15 1.345,-0.325 2.03,-0.523 0.69,-0.203 1.349,-0.421 1.975,-0.655 l -1.093,-1.095 a 6.466,6.466 0 0 1 4.4,-1.727 c 3.594,0 6.5,2.906 6.5,6.4999999 0,3.594 -2.906,6.5 -6.5,6.5 a 6.49,6.49 0 0 1 -6.475,-6 H 5 a 7.488,7.488 0 0 0 7.475,7 c 4.147,0 7.5,-3.353 7.5,-7.5 0,-4.1469999 -3.353,-7.4999999 -7.5,-7.4999999 z m -0.5,3 v 5.2069999 l 2.396,2.397 0.708,-0.708 -2.104,-2.103 V 7.9999991 Z m 6.1,10.9699999 0.027,0.036 -0.014,-0.022 -0.013,-0.013 z m -12.21,0.005 c -0.003,0.005 -0.01,0.009 -0.013,0.013 l -0.014,0.022 z"
     font-size="15"
     font-weight="400"
     letter-spacing="0"
     word-spacing="0"
     id="path2"
     inkscape:connector-curvature="0"
     style="font-weight:400;font-size:15px;font-family:Ubuntu;letter-spacing:0;word-spacing:0;text-anchor:middle;fill:#4d4d4d" />
</svg>
