<?xml version="1.0" encoding="UTF-8" standalone="no"?>
<svg
   xmlns:dc="http://purl.org/dc/elements/1.1/"
   xmlns:cc="http://creativecommons.org/ns#"
   xmlns:rdf="http://www.w3.org/1999/02/22-rdf-syntax-ns#"
   xmlns:svg="http://www.w3.org/2000/svg"
   xmlns="http://www.w3.org/2000/svg"
   xmlns:sodipodi="http://sodipodi.sourceforge.net/DTD/sodipodi-0.dtd"
   xmlns:inkscape="http://www.inkscape.org/namespaces/inkscape"
   width="24"
   height="24"
   version="1.1"
   id="svg16"
   sodipodi:docname="document-new-from-template.svg"
   inkscape:version="0.92.3 (2405546, 2018-03-11)">
  <metadata
     id="metadata22">
    <rdf:RDF>
      <cc:Work
         rdf:about="">
        <dc:format>image/svg+xml</dc:format>
        <dc:type
           rdf:resource="http://purl.org/dc/dcmitype/StillImage" />
        <dc:title></dc:title>
      </cc:Work>
    </rdf:RDF>
  </metadata>
  <defs
     id="defs20" />
  <sodipodi:namedview
     pagecolor="#ffffff"
     bordercolor="#666666"
     borderopacity="1"
     objecttolerance="10"
     gridtolerance="10"
     guidetolerance="10"
     inkscape:pageopacity="0"
     inkscape:pageshadow="2"
     inkscape:window-width="640"
     inkscape:window-height="480"
     id="namedview18"
     showgrid="true"
     inkscape:zoom="12.904699"
     inkscape:cx="4.1806757"
     inkscape:cy="8.3262092"
     inkscape:current-layer="svg16">
    <inkscape:grid
       type="xygrid"
       id="grid825" />
  </sodipodi:namedview>
  <g
     id="g823"
     transform="translate(4,4)">
    <path
       style="color:#000000;fill:#4d4d4d"
       d="m 4,5 v 1 h 8 V 5 Z"
       id="path2"
       inkscape:connector-curvature="0" />
    <path
       style="color:#000000;fill:#4d4d4d"
       d="m 4,3 v 1 h 8 V 3 Z"
       id="path4"
       inkscape:connector-curvature="0" />
    <path
       style="color:#000000;fill:#4d4d4d"
       d="m 6,9 0.4023339,1 H 7 V 9 Z"
       id="path6"
       inkscape:connector-curvature="0" />
    <path
       style="color:#000000;fill:#4d4d4d"
       d="M 5,7 5.4880003,8 H 12 V 7 Z"
       id="path8"
       inkscape:connector-curvature="0" />
    <path
       style="color:#000000;fill:#4d4d4d"
       d="M 1,0 V 2 H 2 V 1 h 12 v 10 h -4 v 2 2 1 h 0.75 L 15,11.75 V 0 Z M 1,4 V 16 H 1.00391 V 4 Z"
       id="path10"
       inkscape:connector-curvature="0" />
    <path
       id="path14"
       d="m 1.4948988,2.9921871 a 0.50005,0.50005 0 0 0 -0.01758,0.00195 0.50005,0.50005 0 0 0 -0.04883,0.00391 0.50005,0.50005 0 0 0 -0.01758,0.00391 0.50005,0.50005 0 0 0 -0.02148,0.00391 0.50005,0.50005 0 0 0 -0.01172,0.00195 0.50005,0.50005 0 0 0 -0.0293,0.00977 0.50005,0.50005 0 0 0 -0.03516,0.013672 0.50005,0.50005 0 0 0 -0.01563,0.00586 0.50005,0.50005 0 0 0 -0.01367,0.00586 0.50005,0.50005 0 0 0 -0.02734,0.015625 0.50005,0.50005 0 0 0 -0.01563,0.00781 0.50005,0.50005 0 0 0 -0.02734,0.017578 0.50005,0.50005 0 0 0 -0.03906,0.03125 0.50005,0.50005 0 0 0 -0.06836,0.072257 0.50005,0.50005 0 0 0 -0.0293,0.041016 0.50005,0.50005 0 0 0 -0.07422,0.3183594 V 16 h 8.371106 L 1.9577888,3.287109 a 0.50005,0.50005 0 0 0 -0.332031,-0.2773438 0.50005,0.50005 0 0 0 -0.04883,-0.00977 0.50005,0.50005 0 0 0 -0.04883,-0.00586 0.50005,0.50005 0 0 0 -0.0332,-0.00195 z M 2.002711,5.349609 7.6316173,15 H 2.002711 Z"
       style="fill:#4d4d4d"
       inkscape:connector-curvature="0" />
  </g>
</svg>
