<?xml version="1.0" encoding="UTF-8" standalone="no"?>
<svg
   xmlns:dc="http://purl.org/dc/elements/1.1/"
   xmlns:cc="http://creativecommons.org/ns#"
   xmlns:rdf="http://www.w3.org/1999/02/22-rdf-syntax-ns#"
   xmlns:svg="http://www.w3.org/2000/svg"
   xmlns="http://www.w3.org/2000/svg"
   xmlns:sodipodi="http://sodipodi.sourceforge.net/DTD/sodipodi-0.dtd"
   xmlns:inkscape="http://www.inkscape.org/namespaces/inkscape"
   width="24"
   height="24"
   version="1.1"
   id="svg4"
   sodipodi:docname="document-share.svg"
   inkscape:version="0.92.3 (2405546, 2018-03-11)">
  <metadata
     id="metadata10">
    <rdf:RDF>
      <cc:Work
         rdf:about="">
        <dc:format>image/svg+xml</dc:format>
        <dc:type
           rdf:resource="http://purl.org/dc/dcmitype/StillImage" />
        <dc:title></dc:title>
      </cc:Work>
    </rdf:RDF>
  </metadata>
  <defs
     id="defs8" />
  <sodipodi:namedview
     pagecolor="#ffffff"
     bordercolor="#666666"
     borderopacity="1"
     objecttolerance="10"
     gridtolerance="10"
     guidetolerance="10"
     inkscape:pageopacity="0"
     inkscape:pageshadow="2"
     inkscape:window-width="640"
     inkscape:window-height="480"
     id="namedview6"
     showgrid="true"
     inkscape:zoom="18.25"
     inkscape:cx="0.82191781"
     inkscape:cy="7.5616438"
     inkscape:current-layer="svg4">
    <inkscape:grid
       type="xygrid"
       id="grid12" />
  </sodipodi:namedview>
  <path
     d="M 19,7.5 C 19,6.125 17.875,5 16.5,5 A 2.508,2.508 0 0 0 14,7.5 C 14,8.875 15.125,10 16.5,10 17.875,10 19,8.875 19,7.5 Z m 0,10 C 19,16.125 17.875,15 16.5,15 A 2.508,2.508 0 0 0 14,17.5 c 0,1.375 1.125,2.5 2.5,2.5 1.375,0 2.5,-1.125 2.5,-2.5 z M 18,7.5 C 18,8.334 17.334,9 16.5,9 15.666,9 15,8.334 15,7.5 15,6.666 15.666,6 16.5,6 17.334,6 18,6.666 18,7.5 Z m 0,10 C 18,18.334 17.334,19 16.5,19 15.666,19 15,18.334 15,17.5 15,16.666 15.666,16 16.5,16 17.334,16 18,16.666 18,17.5 Z M 13.734,9.61 A 3.495,3.495 0 0 1 13.24,8.738 L 9.387,10.881 A 2.487,2.487 0 0 0 7.5,10 2.508,2.508 0 0 0 5,12.5 c 0,1.375 1.125,2.5 2.5,2.5 0.755,0 1.427,-0.347 1.887,-0.88 l 3.853,2.142 c 0.122,-0.316 0.29,-0.606 0.494,-0.871 L 9.874,13.246 C 9.947,13.01 10,12.761 10,12.5 10,12.239 9.948,11.991 9.873,11.754 Z M 9,12.5 C 9,13.334 8.334,14 7.5,14 6.666,14 6,13.334 6,12.5 6,11.666 6.666,11 7.5,11 8.334,11 9,11.666 9,12.5 Z"
     font-weight="400"
     overflow="visible"
     id="path2"
     inkscape:connector-curvature="0"
     style="color:#000000;font-weight:400;font-family:sans-serif;overflow:visible;fill:#4d4d4d" />
</svg>
