<?xml version="1.0" encoding="UTF-8" standalone="no"?>
<svg
   xmlns:dc="http://purl.org/dc/elements/1.1/"
   xmlns:cc="http://creativecommons.org/ns#"
   xmlns:rdf="http://www.w3.org/1999/02/22-rdf-syntax-ns#"
   xmlns:svg="http://www.w3.org/2000/svg"
   xmlns="http://www.w3.org/2000/svg"
   xmlns:sodipodi="http://sodipodi.sourceforge.net/DTD/sodipodi-0.dtd"
   xmlns:inkscape="http://www.inkscape.org/namespaces/inkscape"
   width="24"
   height="24"
   version="1.1"
   id="svg4"
   sodipodi:docname="document-open.svg"
   inkscape:version="0.92.3 (2405546, 2018-03-11)">
  <metadata
     id="metadata10">
    <rdf:RDF>
      <cc:Work
         rdf:about="">
        <dc:format>image/svg+xml</dc:format>
        <dc:type
           rdf:resource="http://purl.org/dc/dcmitype/StillImage" />
        <dc:title></dc:title>
      </cc:Work>
    </rdf:RDF>
  </metadata>
  <defs
     id="defs8" />
  <sodipodi:namedview
     pagecolor="#ffffff"
     bordercolor="#666666"
     borderopacity="1"
     objecttolerance="10"
     gridtolerance="10"
     guidetolerance="10"
     inkscape:pageopacity="0"
     inkscape:pageshadow="2"
     inkscape:window-width="640"
     inkscape:window-height="480"
     id="namedview6"
     showgrid="true"
     inkscape:zoom="12.904699"
     inkscape:cx="-5.7147126"
     inkscape:cy="5.9274862"
     inkscape:current-layer="svg4">
    <inkscape:grid
       type="xygrid"
       id="grid12" />
  </sodipodi:namedview>
  <path
     d="M 7.994,5 C 6.736,5.015 5.815,4.971 5.062,5.387 A 1.878,1.878 0 0 0 4.222,6.383 C 4.058,6.821 4,7.343 4,8 v 8 c 0,0.658 0.058,1.179 0.223,1.617 0.164,0.439 0.463,0.79 0.84,0.998 0.526,0.29 1.188,0.342 1.937,0.36 V 17.961 C 6.334,17.929 5.796,17.876 5.547,17.738 5.363,17.638 5.257,17.526 5.16,17.266 5.063,17.006 5,16.592 5,16 V 8 C 5,7.408 5.063,6.994 5.16,6.734 5.258,6.474 5.363,6.363 5.547,6.262 5.914,6.059 6.742,6.015 8.006,6 h 2.53 l 2.02,2 h 3.436 c 1.264,0.015 2.092,0.06 2.46,0.262 0.183,0.1 0.288,0.212 0.386,0.472 C 18.936,8.994 19,9.408 19,10 v 6 c 0,0.592 -0.063,1.006 -0.16,1.266 -0.098,0.26 -0.203,0.371 -0.387,0.472 C 18.349,17.795 18.18,17.831 18,17.865 V 9 H 8 v 11 h 10 v -1.088 c 0.34,-0.053 0.654,-0.14 0.937,-0.297 a 1.88,1.88 0 0 0 0.838,-0.998 C 19.94,17.179 20,16.657 20,16 V 10 C 20,9.342 19.94,8.821 19.775,8.383 A 1.88,1.88 0 0 0 18.938,7.385 C 18.185,6.969 17.264,7.015 16.006,7 H 12.967 L 10.945,5 H 7.996 Z M 9,10 h 8 v 9 H 9 Z m 1.008,1 v 1 h 6.012 v -1 z m 0,2 v 1 H 16.02 V 13 Z M 10,15 v 1 h 3 v -1 z"
     font-weight="400"
     overflow="visible"
     style="color:#000000;font-weight:400;font-family:sans-serif;overflow:visible;fill:#4d4d4d"
     id="path2"
     inkscape:connector-curvature="0" />
</svg>
