<?xml version="1.0" encoding="UTF-8" standalone="no"?>
<svg
   xmlns:dc="http://purl.org/dc/elements/1.1/"
   xmlns:cc="http://creativecommons.org/ns#"
   xmlns:rdf="http://www.w3.org/1999/02/22-rdf-syntax-ns#"
   xmlns:svg="http://www.w3.org/2000/svg"
   xmlns="http://www.w3.org/2000/svg"
   xmlns:sodipodi="http://sodipodi.sourceforge.net/DTD/sodipodi-0.dtd"
   xmlns:inkscape="http://www.inkscape.org/namespaces/inkscape"
   width="24"
   height="24"
   version="1.1"
   id="svg6"
   sodipodi:docname="document-import--rtl.svg"
   inkscape:version="0.92.3 (2405546, 2018-03-11)">
  <metadata
     id="metadata12">
    <rdf:RDF>
      <cc:Work
         rdf:about="">
        <dc:format>image/svg+xml</dc:format>
        <dc:type
           rdf:resource="http://purl.org/dc/dcmitype/StillImage" />
        <dc:title></dc:title>
      </cc:Work>
    </rdf:RDF>
  </metadata>
  <defs
     id="defs10" />
  <sodipodi:namedview
     pagecolor="#ffffff"
     bordercolor="#666666"
     borderopacity="1"
     objecttolerance="10"
     gridtolerance="10"
     guidetolerance="10"
     inkscape:pageopacity="0"
     inkscape:pageshadow="2"
     inkscape:window-width="640"
     inkscape:window-height="480"
     id="namedview8"
     showgrid="true"
     inkscape:zoom="12.904699"
     inkscape:cx="-0.1342501"
     inkscape:cy="12.467505"
     inkscape:current-layer="svg6">
    <inkscape:grid
       type="xygrid"
       id="grid822" />
  </sodipodi:namedview>
  <g
     transform="translate(-548.99974,59)"
     id="g4"
     style="color:#4d4d4d">
    <path
       d="m 556,-53 c 0,0 -1,0 -1,1 v 3 h 1 v -2.5 c 0,0 0,-0.5 0.5,-0.5 h 9 c 0,0 0.5,0 0.5,0.5 v 9 c 0,0.5 -0.5,0.5 -0.5,0.5 h -9 c 0,0 -0.5,0 -0.5,-0.5 V -45 h -1 v 3 c 0,1 1,1 1,1 h 10 c 0,0 1,0 1,-1 v -10 c 0,-1 -1,-1 -1,-1 z m 2.569,3.035 c -0.267,-0.013 -0.559,0.188 -0.567,0.465 v 1.5 h -3.5 a 0.52,0.52 0 0 0 -0.5,0.5 v 1 a 0.489,0.489 0 0 0 0,0.094 c 0.044,0.229 0.267,0.41 0.5,0.406 h 3.5 v 1.5 c 0.011,0.369 0.524,0.606 0.813,0.375 l 3,-2.5 a 0.522,0.522 0 0 0 0,-0.75 l -3,-2.5 a 0.418,0.418 0 0 0 -0.246,-0.09 z"
       overflow="visible"
       style="overflow:visible;fill:#4d4d4d"
       id="path2"
       inkscape:connector-curvature="0" />
  </g>
</svg>
