<?xml version="1.0" encoding="UTF-8" standalone="no"?>
<!-- Created with Inkscape (http://www.inkscape.org/) -->

<svg
   xmlns:dc="http://purl.org/dc/elements/1.1/"
   xmlns:cc="http://creativecommons.org/ns#"
   xmlns:rdf="http://www.w3.org/1999/02/22-rdf-syntax-ns#"
   xmlns:svg="http://www.w3.org/2000/svg"
   xmlns="http://www.w3.org/2000/svg"
   xmlns:sodipodi="http://sodipodi.sourceforge.net/DTD/sodipodi-0.dtd"
   xmlns:inkscape="http://www.inkscape.org/namespaces/inkscape"
   width="24"
   height="24"
   viewBox="0 0 6.3499999 6.3500002"
   version="1.1"
   id="svg3971"
   inkscape:version="0.92.3 (2405546, 2018-03-11)"
   sodipodi:docname="draw-calligraphic.svg">
  <defs
     id="defs3965" />
  <sodipodi:namedview
     id="base"
     pagecolor="#ffffff"
     bordercolor="#666666"
     borderopacity="1.0"
     inkscape:pageopacity="0.0"
     inkscape:pageshadow="2"
     inkscape:zoom="16.000001"
     inkscape:cx="4.3125027"
     inkscape:cy="4.86364"
     inkscape:document-units="px"
     inkscape:current-layer="layer1"
     showgrid="true"
     units="px"
     inkscape:window-width="1294"
     inkscape:window-height="704"
     inkscape:window-x="72"
     inkscape:window-y="27"
     inkscape:window-maximized="1"
     inkscape:snap-global="false">
    <inkscape:grid
       type="xygrid"
       id="grid4605" />
  </sodipodi:namedview>
  <metadata
     id="metadata3968">
    <rdf:RDF>
      <cc:Work
         rdf:about="">
        <dc:format>image/svg+xml</dc:format>
        <dc:type
           rdf:resource="http://purl.org/dc/dcmitype/StillImage" />
        <dc:title />
      </cc:Work>
    </rdf:RDF>
  </metadata>
  <g
     inkscape:label="Layer 1"
     inkscape:groupmode="layer"
     id="layer1"
     transform="translate(0,-290.64998)">
    <path
       style="color:#000000;font-style:normal;font-variant:normal;font-weight:normal;font-stretch:normal;font-size:medium;line-height:normal;font-family:sans-serif;font-variant-ligatures:normal;font-variant-position:normal;font-variant-caps:normal;font-variant-numeric:normal;font-variant-alternates:normal;font-feature-settings:normal;text-indent:0;text-align:start;text-decoration:none;text-decoration-line:none;text-decoration-style:solid;text-decoration-color:#000000;letter-spacing:normal;word-spacing:normal;text-transform:none;writing-mode:lr-tb;direction:ltr;text-orientation:mixed;dominant-baseline:auto;baseline-shift:baseline;text-anchor:start;white-space:normal;shape-padding:0;clip-rule:nonzero;display:inline;overflow:visible;visibility:visible;opacity:1;isolation:auto;mix-blend-mode:normal;color-interpolation:sRGB;color-interpolation-filters:linearRGB;solid-color:#000000;solid-opacity:1;vector-effect:none;fill:#4d4d4d;fill-opacity:1;fill-rule:nonzero;stroke:none;stroke-width:0.27004641px;stroke-linecap:butt;stroke-linejoin:miter;stroke-miterlimit:4;stroke-dasharray:none;stroke-dashoffset:0;stroke-opacity:1;color-rendering:auto;image-rendering:auto;shape-rendering:auto;text-rendering:auto;enable-background:accumulate"
       d="m 2.9837908,291.70831 c -0.7814451,0.20445 -1.1757747,0.4531 -1.5009489,0.70927 -0.3251741,0.25618 -0.4264851,0.49445 -0.4185618,0.77089 -0.00793,0.21296 -0.00793,0.21282 0,0.63407 0.043763,0.24052 0.2684671,0.40192 0.5517405,0.43607 0.6387763,0.025 2.1897359,-0.83498 3.2499331,-0.44382 0.1504049,0.0599 0.268914,0.13618 0.3552812,0.21866 -0.053975,0.0632 -0.122893,0.12959 -0.2130033,0.20046 l -0.0029,0.003 -0.00331,0.002 c -0.615988,0.56063 -2.5452112,1.01726 -2.9794411,0.85149 0.050476,0.47549 0.075533,0.57922 0.1240796,0.85023 1.0615101,0.0212 2.0251535,-0.29155 2.7012116,-0.90522 0.3568051,-0.28197 0.4437912,-0.57536 0.4437912,-0.78699 0,-0.21163 -0.00156,-0.43342 0,-0.63488 -0.068422,-0.26498 -0.3324986,-0.51109 -0.6423185,-0.63448 -1.2951582,-0.51549 -2.0797274,0.55068 -3.3031122,0.42987 -0.070292,-0.008 -0.1268468,-0.0269 -0.1770201,-0.0492 0.042346,-0.0446 0.090853,-0.0898 0.1505497,-0.13682 0.290118,-0.22855 1.4472827,-0.53713 1.8455912,-0.67042 -0.05851,-0.29835 -0.100466,-0.46505 -0.1815697,-0.84363 z"
       id="path882"
       inkscape:connector-curvature="0"
       sodipodi:nodetypes="cccccccccccccscccccccc" />
  </g>
</svg>
