<?xml version="1.0" encoding="UTF-8" standalone="no"?>
<svg
   xmlns:dc="http://purl.org/dc/elements/1.1/"
   xmlns:cc="http://creativecommons.org/ns#"
   xmlns:rdf="http://www.w3.org/1999/02/22-rdf-syntax-ns#"
   xmlns:svg="http://www.w3.org/2000/svg"
   xmlns="http://www.w3.org/2000/svg"
   xmlns:sodipodi="http://sodipodi.sourceforge.net/DTD/sodipodi-0.dtd"
   xmlns:inkscape="http://www.inkscape.org/namespaces/inkscape"
   width="24"
   height="24"
   version="1.1"
   id="svg4"
   sodipodi:docname="edit.svg"
   inkscape:version="0.92.3 (2405546, 2018-03-11)">
  <metadata
     id="metadata10">
    <rdf:RDF>
      <cc:Work
         rdf:about="">
        <dc:format>image/svg+xml</dc:format>
        <dc:type
           rdf:resource="http://purl.org/dc/dcmitype/StillImage" />
        <dc:title></dc:title>
      </cc:Work>
    </rdf:RDF>
  </metadata>
  <defs
     id="defs8" />
  <sodipodi:namedview
     pagecolor="#ffffff"
     bordercolor="#666666"
     borderopacity="1"
     objecttolerance="10"
     gridtolerance="10"
     guidetolerance="10"
     inkscape:pageopacity="0"
     inkscape:pageshadow="2"
     inkscape:window-width="640"
     inkscape:window-height="480"
     id="namedview6"
     showgrid="true"
     inkscape:zoom="12.904699"
     inkscape:cx="-5.4686196"
     inkscape:cy="7.1419755"
     inkscape:current-layer="svg4">
    <inkscape:grid
       type="xygrid"
       id="grid12" />
  </sodipodi:namedview>
  <path
     d="M 16.238,5 15.885,5.36 6.916,14.455 6.886,14.5 c -0.061,0.099 -0.27,0.45 -0.583,1.088 -0.314,0.638 -0.7,1.51 -1.012,2.492 L 5,19 5.92,18.709 A 18.163,18.163 0 0 0 8.412,17.697 C 9.05,17.383 9.399,17.177 9.5,17.113 L 9.545,17.084 19,7.762 Z M 16,13 v 1 h 3 v -1 z m -8.11,1.89 1.22,1.22 -0.178,0.175 C 8.939,16.28 8.553,16.512 7.971,16.799 7.757,16.904 7.435,17.021 7.137,17.137 L 6.863,16.863 c 0.116,-0.298 0.233,-0.62 0.338,-0.834 0.287,-0.582 0.518,-0.966 0.514,-0.96 z M 14,15 v 1 h 5 v -1 z m -2,2 v 1 h 7 v -1 z"
     font-size="15"
     font-weight="400"
     letter-spacing="0"
     word-spacing="0"
     id="path2"
     inkscape:connector-curvature="0"
     style="font-weight:400;font-size:15px;font-family:Ubuntu;letter-spacing:0;word-spacing:0;text-anchor:middle;fill:#4d4d4d" />
</svg>
