<?xml version="1.0" encoding="UTF-8" standalone="no"?>
<svg
   xmlns:dc="http://purl.org/dc/elements/1.1/"
   xmlns:cc="http://creativecommons.org/ns#"
   xmlns:rdf="http://www.w3.org/1999/02/22-rdf-syntax-ns#"
   xmlns:svg="http://www.w3.org/2000/svg"
   xmlns="http://www.w3.org/2000/svg"
   xmlns:sodipodi="http://sodipodi.sourceforge.net/DTD/sodipodi-0.dtd"
   xmlns:inkscape="http://www.inkscape.org/namespaces/inkscape"
   width="24"
   height="24"
   version="1.1"
   id="svg4"
   sodipodi:docname="edit-paste.svg"
   inkscape:version="0.92.3 (2405546, 2018-03-11)">
  <metadata
     id="metadata10">
    <rdf:RDF>
      <cc:Work
         rdf:about="">
        <dc:format>image/svg+xml</dc:format>
        <dc:type
           rdf:resource="http://purl.org/dc/dcmitype/StillImage" />
        <dc:title></dc:title>
      </cc:Work>
    </rdf:RDF>
  </metadata>
  <defs
     id="defs8" />
  <sodipodi:namedview
     pagecolor="#ffffff"
     bordercolor="#666666"
     borderopacity="1"
     objecttolerance="10"
     gridtolerance="10"
     guidetolerance="10"
     inkscape:pageopacity="0"
     inkscape:pageshadow="2"
     inkscape:window-width="640"
     inkscape:window-height="480"
     id="namedview6"
     showgrid="true"
     inkscape:zoom="12.904699"
     inkscape:cx="-3.5812291"
     inkscape:cy="7.8793967"
     inkscape:current-layer="svg4">
    <inkscape:grid
       type="xygrid"
       id="grid12" />
  </sodipodi:namedview>
  <path
     d="M 11,4 C 9.901,4 9,4.902 9,6 H 8 V 6.025 C 7.25,6.044 6.59,6.096 6.062,6.387 A 1.878,1.878 0 0 0 5.222,7.383 C 5.058,7.821 5,8.343 5,9 v 7 c 0,0.658 0.058,1.179 0.223,1.617 0.164,0.439 0.463,0.79 0.84,0.998 0.527,0.291 1.182,0.342 1.937,0.36 V 20 H 18 V 9 H 17 C 17,8.342 16.94,7.821 16.775,7.383 A 1.875,1.875 0 0 0 15.938,6.387 C 15.411,6.096 14.749,6.044 14,6.025 V 6 H 13 C 13,4.902 12.099,4 11,4 Z m 0,1 c 0.558,0 1,0.442 1,1 A 0.99,0.99 0 0 1 11,7 0.982,0.982 0 0 1 10.078,6.39 1.007,1.007 0 0 1 10,6 C 10,5.442 10.442,5 11,5 Z M 8,7.04 V 8 h 6 V 7.04 c 0.666,0.031 1.204,0.084 1.453,0.222 0.184,0.1 0.29,0.212 0.387,0.472 C 15.937,7.994 16,8.408 16,9 H 8 v 8.96 C 7.328,17.93 6.796,17.876 6.547,17.738 6.363,17.638 6.257,17.526 6.16,17.266 6.063,17.006 6,16.592 6,16 V 9 C 6,8.408 6.063,7.994 6.16,7.734 6.258,7.474 6.362,7.363 6.545,7.262 6.794,7.124 7.333,7.071 8,7.039 Z M 9,10 h 8 v 9 H 9 Z m 1.008,1 v 1 h 6.012 v -1 z m 0,2 v 1 H 16.02 V 13 Z M 10,15 v 1 h 3 v -1 z"
     font-weight="400"
     overflow="visible"
     id="path2"
     inkscape:connector-curvature="0"
     style="color:#000000;font-weight:400;font-family:sans-serif;overflow:visible;fill:#4d4d4d" />
</svg>
