<?xml version="1.0" encoding="UTF-8" standalone="no"?>
<svg
   xmlns:dc="http://purl.org/dc/elements/1.1/"
   xmlns:cc="http://creativecommons.org/ns#"
   xmlns:rdf="http://www.w3.org/1999/02/22-rdf-syntax-ns#"
   xmlns:svg="http://www.w3.org/2000/svg"
   xmlns="http://www.w3.org/2000/svg"
   xmlns:sodipodi="http://sodipodi.sourceforge.net/DTD/sodipodi-0.dtd"
   xmlns:inkscape="http://www.inkscape.org/namespaces/inkscape"
   width="24"
   height="24"
   version="1.1"
   id="svg14"
   sodipodi:docname="edit-select-all-layers.svg"
   inkscape:version="0.92.3 (2405546, 2018-03-11)">
  <metadata
     id="metadata20">
    <rdf:RDF>
      <cc:Work
         rdf:about="">
        <dc:format>image/svg+xml</dc:format>
        <dc:type
           rdf:resource="http://purl.org/dc/dcmitype/StillImage" />
        <dc:title></dc:title>
      </cc:Work>
    </rdf:RDF>
  </metadata>
  <defs
     id="defs18" />
  <sodipodi:namedview
     pagecolor="#ffffff"
     bordercolor="#666666"
     borderopacity="1"
     objecttolerance="10"
     gridtolerance="10"
     guidetolerance="10"
     inkscape:pageopacity="0"
     inkscape:pageshadow="2"
     inkscape:window-width="640"
     inkscape:window-height="480"
     id="namedview16"
     showgrid="true"
     inkscape:zoom="18.25"
     inkscape:cx="0.49009628"
     inkscape:cy="8.6036371"
     inkscape:current-layer="svg14">
    <inkscape:grid
       type="xygrid"
       id="grid835" />
  </sodipodi:namedview>
  <g
     id="g833"
     transform="translate(4.5,4.5)">
    <g
       id="g10"
       transform="translate(-52,-140)">
      <path
         id="path2"
         style="fill:#4d4d4d"
         d="m 56,140 v 1 h 1 v -1 z m 2,0 v 1 h 1 v -1 z m -3,0.0254 c -0.736131,0.0186 -1.387638,0.0697 -1.908203,0.34766 l 0.777344,0.77734 C 54.137824,141.0857 54.536506,141.0532 55,141.03126 Z m -2.626953,1.04297 c -0.05745,0.0986 -0.106937,0.2039 -0.148438,0.31445 C 52.059945,141.82148 52,142.34239 52,143 h 1 c 0,-0.53531 0.05488,-0.90618 0.136719,-1.16797 z M 52,144 v 1 h 1 v -1 z m 0,2 v 1 h 1 v -1 z"
         inkscape:connector-curvature="0" />
      <path
         id="path4"
         style="fill:#4d4d4d"
         d="m 63,140 v 1 h -1 v -1 z m -2,0 v 1 h -1 v -1 z m 3,0.0254 c 0.736131,0.0186 1.387638,0.0697 1.908203,0.34766 l -0.777344,0.77734 C 64.862176,141.0857 64.463494,141.0532 64,141.03126 Z m 2.626953,1.04297 c 0.05745,0.0986 0.106937,0.2039 0.148438,0.31445 C 66.940055,141.82148 67,142.34239 67,143 h -1 c 0,-0.53531 -0.05488,-0.90618 -0.136719,-1.16797 z M 67,144 v 1 h -1 v -1 z m 0,2 v 1 h -1 v -1 z"
         inkscape:connector-curvature="0" />
      <path
         id="path6"
         style="fill:#4d4d4d"
         d="m 56,155 v -1 h 1 v 1 z m 2,0 v -1 h 1 v 1 z m -3,-0.0254 c -0.736131,-0.0186 -1.387638,-0.0697 -1.908203,-0.34766 l 0.777344,-0.77734 c 0.268683,0.0647 0.667365,0.0972 1.130859,0.11914 z m -2.626953,-1.04297 c -0.05745,-0.0986 -0.106937,-0.2039 -0.148438,-0.31445 C 52.059945,153.17852 52,152.65761 52,152 h 1 c 0,0.53531 0.05488,0.90618 0.136719,1.16797 z M 52,151 v -1 h 1 v 1 z m 0,-2 v -1 h 1 v 1 z"
         inkscape:connector-curvature="0" />
      <path
         id="path8"
         style="fill:#4d4d4d"
         d="m 63,155 v -1 h -1 v 1 z m -2,0 v -1 h -1 v 1 z m 3,-0.0254 c 0.736131,-0.0186 1.387638,-0.0697 1.908203,-0.34766 L 65.130859,153.8496 C 64.862176,153.9143 64.463494,153.9468 64,153.96874 Z m 2.626953,-1.04297 c 0.05745,-0.0986 0.106937,-0.2039 0.148438,-0.31445 C 66.940055,153.17852 67,152.65761 67,152 h -1 c 0,0.53531 -0.05488,0.90618 -0.136719,1.16797 z M 67,151 v -1 h -1 v 1 z m 0,-2 v -1 h -1 v 1 z"
         inkscape:connector-curvature="0" />
    </g>
    <path
       id="path12"
       d="M 5.9999999,2.4265537 1.5000001,6.7752215 H 8.9999995 L 13.5,2.4265537 Z m 0,5.7982241 -4.4999998,4.3486682 H 8.9999995 L 13.5,8.2247778 Z"
       class="ColorScheme-Text"
       style="fill:#4d4d4d"
       inkscape:connector-curvature="0" />
  </g>
</svg>
