<?xml version="1.0" encoding="UTF-8" standalone="no"?>
<svg
   xmlns:dc="http://purl.org/dc/elements/1.1/"
   xmlns:cc="http://creativecommons.org/ns#"
   xmlns:rdf="http://www.w3.org/1999/02/22-rdf-syntax-ns#"
   xmlns:svg="http://www.w3.org/2000/svg"
   xmlns="http://www.w3.org/2000/svg"
   xmlns:sodipodi="http://sodipodi.sourceforge.net/DTD/sodipodi-0.dtd"
   xmlns:inkscape="http://www.inkscape.org/namespaces/inkscape"
   width="24"
   height="24"
   version="1.1"
   id="svg8"
   sodipodi:docname="edit-find-replace.svg"
   inkscape:version="0.92.3 (2405546, 2018-03-11)">
  <metadata
     id="metadata14">
    <rdf:RDF>
      <cc:Work
         rdf:about="">
        <dc:format>image/svg+xml</dc:format>
        <dc:type
           rdf:resource="http://purl.org/dc/dcmitype/StillImage" />
        <dc:title></dc:title>
      </cc:Work>
    </rdf:RDF>
  </metadata>
  <defs
     id="defs12" />
  <sodipodi:namedview
     pagecolor="#ffffff"
     bordercolor="#666666"
     borderopacity="1"
     objecttolerance="10"
     gridtolerance="10"
     guidetolerance="10"
     inkscape:pageopacity="0"
     inkscape:pageshadow="2"
     inkscape:window-width="640"
     inkscape:window-height="480"
     id="namedview10"
     showgrid="true"
     inkscape:zoom="12.904699"
     inkscape:cx="-5.0792069"
     inkscape:cy="7.5162506"
     inkscape:current-layer="svg8">
    <inkscape:grid
       type="xygrid"
       id="grid16" />
  </sodipodi:namedview>
  <g
     font-weight="400"
     id="g6"
     style="font-weight:400;fill:#4d4d4d"
     transform="translate(4,4)">
    <path
       d="M 7,1 C 3.69,1 1,3.69 1,7 1,8.171 1.342,9.261 1.924,10.186 1.949,10.143 2.022,9.996 2.039,9.969 L 2.045,9.961 2.133,9.824 2.596,9.355 A 4.998,4.998 0 0 1 2,7 5,5 0 0 1 7,2 5,5 0 0 1 9.295,2.563 L 10.021,1.824 A 5.955,5.955 0 0 0 7,1 Z m 5.986,6.152 -1.164,1.149 a 5,5 0 0 1 -3.593,3.54 L 7.06,12.995 a 5.951,5.951 0 0 0 3.603,-1.267 l 2.863,2.863 1.063,-1.063 -2.863,-2.863 a 5.956,5.956 0 0 0 1.26,-3.512 z"
       overflow="visible"
       id="path2"
       inkscape:connector-curvature="0"
       style="color:#000000;font-family:sans-serif;overflow:visible" />
    <path
       d="M 12.238,1 11.885,1.36 2.916,10.455 2.886,10.5 c -0.061,0.099 -0.27,0.45 -0.583,1.088 -0.314,0.638 -0.7,1.51 -1.012,2.492 L 1,15 1.92,14.709 A 18.163,18.163 0 0 0 4.412,13.697 C 5.05,13.384 5.399,13.177 5.5,13.113 L 5.545,13.084 15,3.762 Z m -8.347,9.89 1.218,1.22 -0.177,0.175 C 4.939,12.28 4.553,12.512 3.971,12.799 3.757,12.904 3.435,13.021 3.137,13.137 L 2.863,12.863 c 0.116,-0.298 0.233,-0.62 0.338,-0.834 0.287,-0.582 0.518,-0.966 0.514,-0.96 z"
       font-size="15"
       letter-spacing="0"
       word-spacing="0"
       id="path4"
       inkscape:connector-curvature="0"
       style="font-size:15px;font-family:Ubuntu;letter-spacing:0;word-spacing:0;text-anchor:middle" />
  </g>
</svg>
