<?xml version="1.0" encoding="UTF-8" standalone="no"?>
<svg
   xmlns:dc="http://purl.org/dc/elements/1.1/"
   xmlns:cc="http://creativecommons.org/ns#"
   xmlns:rdf="http://www.w3.org/1999/02/22-rdf-syntax-ns#"
   xmlns:svg="http://www.w3.org/2000/svg"
   xmlns="http://www.w3.org/2000/svg"
   xmlns:sodipodi="http://sodipodi.sourceforge.net/DTD/sodipodi-0.dtd"
   xmlns:inkscape="http://www.inkscape.org/namespaces/inkscape"
   width="24"
   height="24"
   version="1.1"
   id="svg4"
   sodipodi:docname="go-down.svg"
   inkscape:version="0.92.3 (2405546, 2018-03-11)">
  <metadata
     id="metadata10">
    <rdf:RDF>
      <cc:Work
         rdf:about="">
        <dc:format>image/svg+xml</dc:format>
        <dc:type
           rdf:resource="http://purl.org/dc/dcmitype/StillImage" />
        <dc:title></dc:title>
      </cc:Work>
    </rdf:RDF>
  </metadata>
  <defs
     id="defs8" />
  <sodipodi:namedview
     pagecolor="#ffffff"
     bordercolor="#666666"
     borderopacity="1"
     objecttolerance="10"
     gridtolerance="10"
     guidetolerance="10"
     inkscape:pageopacity="0"
     inkscape:pageshadow="2"
     inkscape:window-width="640"
     inkscape:window-height="480"
     id="namedview6"
     showgrid="false"
     inkscape:zoom="18.25"
     inkscape:cx="0.82191781"
     inkscape:cy="7.5616438"
     inkscape:current-layer="svg4" />
  <path
     d="m 20,9 c -0.874,0.69 -1.757,1.397 -2.656,2.008 -1,0.679 -1.972,1.287 -2.912,1.825 C 13.564,13.33 12.658,13.703 12,14 11.342,13.703 10.436,13.33 9.568,12.833 A 44.819,44.819 0 0 1 6.656,11.008 C 5.756,10.398 4.874,9.691 4,9 h 1.49 c 0.524,0.4 1.062,0.837 1.625,1.222 0.71,0.486 1.437,0.942 2.18,1.37 0.755,0.433 1.792,0.95 2.5,1.285 h 10e-4 L 12,12.973 12.203,12.877 c 0.71,-0.334 1.747,-0.852 2.501,-1.285 a 33.18,33.18 0 0 0 2.181,-1.37 C 17.447,9.837 17.985,9.4 18.51,9 Z"
     id="path2"
     inkscape:connector-curvature="0"
     style="fill:#4d4d4d" />
</svg>
