<?xml version="1.0" encoding="UTF-8" standalone="no"?>
<svg
   xmlns:dc="http://purl.org/dc/elements/1.1/"
   xmlns:cc="http://creativecommons.org/ns#"
   xmlns:rdf="http://www.w3.org/1999/02/22-rdf-syntax-ns#"
   xmlns:svg="http://www.w3.org/2000/svg"
   xmlns="http://www.w3.org/2000/svg"
   xmlns:sodipodi="http://sodipodi.sourceforge.net/DTD/sodipodi-0.dtd"
   xmlns:inkscape="http://www.inkscape.org/namespaces/inkscape"
   width="24"
   height="24"
   version="1.1"
   id="svg4"
   sodipodi:docname="go-first.svg"
   inkscape:version="0.92.3 (2405546, 2018-03-11)">
  <metadata
     id="metadata10">
    <rdf:RDF>
      <cc:Work
         rdf:about="">
        <dc:format>image/svg+xml</dc:format>
        <dc:type
           rdf:resource="http://purl.org/dc/dcmitype/StillImage" />
        <dc:title></dc:title>
      </cc:Work>
    </rdf:RDF>
  </metadata>
  <defs
     id="defs8" />
  <sodipodi:namedview
     pagecolor="#ffffff"
     bordercolor="#666666"
     borderopacity="1"
     objecttolerance="10"
     gridtolerance="10"
     guidetolerance="10"
     inkscape:pageopacity="0"
     inkscape:pageshadow="2"
     inkscape:window-width="640"
     inkscape:window-height="480"
     id="namedview6"
     showgrid="false"
     inkscape:zoom="18.25"
     inkscape:cx="0.82191781"
     inkscape:cy="7.5616438"
     inkscape:current-layer="svg4" />
  <path
     d="m 16,4 c -0.69,0.874 -1.397,1.757 -2.008,2.656 -0.68,1 -1.288,1.972 -1.826,2.912 C 11.67,10.436 11.296,11.342 11,12 c 0.297,0.658 0.67,1.564 1.166,2.432 a 45.22,45.22 0 0 0 1.826,2.912 c 0.61,0.9 1.317,1.782 2.008,2.656 v -1.49 c -0.4,-0.525 -0.836,-1.063 -1.22,-1.625 a 32.84,32.84 0 0 1 -1.372,-2.18 39.206,39.206 0 0 1 -1.285,-2.502 L 12.027,12 12.123,11.797 A 39.31,39.31 0 0 1 13.408,9.295 C 13.835,8.552 14.293,7.825 14.779,7.115 15.164,6.553 15.6,6.015 16,5.49 Z m -8,7 a 1,1 0 0 0 -1,1 1,1 0 0 0 1,1 1,1 0 0 0 1,-1 1,1 0 0 0 -1,-1 z"
     id="path2"
     inkscape:connector-curvature="0"
     style="fill:#4d4d4d" />
</svg>
