<?xml version="1.0" encoding="UTF-8" standalone="no"?>
<svg
   xmlns:dc="http://purl.org/dc/elements/1.1/"
   xmlns:cc="http://creativecommons.org/ns#"
   xmlns:rdf="http://www.w3.org/1999/02/22-rdf-syntax-ns#"
   xmlns:svg="http://www.w3.org/2000/svg"
   xmlns="http://www.w3.org/2000/svg"
   xmlns:sodipodi="http://sodipodi.sourceforge.net/DTD/sodipodi-0.dtd"
   xmlns:inkscape="http://www.inkscape.org/namespaces/inkscape"
   width="24"
   height="24"
   version="1.1"
   id="svg12"
   sodipodi:docname="go-home.svg"
   inkscape:version="0.92.3 (2405546, 2018-03-11)">
  <metadata
     id="metadata18">
    <rdf:RDF>
      <cc:Work
         rdf:about="">
        <dc:format>image/svg+xml</dc:format>
        <dc:type
           rdf:resource="http://purl.org/dc/dcmitype/StillImage" />
        <dc:title></dc:title>
      </cc:Work>
    </rdf:RDF>
  </metadata>
  <defs
     id="defs16" />
  <sodipodi:namedview
     pagecolor="#ffffff"
     bordercolor="#666666"
     borderopacity="1"
     objecttolerance="10"
     gridtolerance="10"
     guidetolerance="10"
     inkscape:pageopacity="0"
     inkscape:pageshadow="2"
     inkscape:window-width="640"
     inkscape:window-height="480"
     id="namedview14"
     showgrid="true"
     inkscape:zoom="25.809398"
     inkscape:cx="5.7192315"
     inkscape:cy="9.2591571"
     inkscape:current-layer="svg12">
    <inkscape:grid
       type="xygrid"
       id="grid20" />
  </sodipodi:namedview>
  <g
     style="fill:#4d4d4d"
     id="g10"
     transform="translate(4,4)">
    <path
       d="M 14,5 V 3 h -2.002 z"
       overflow="visible"
       style="overflow:visible;fill:#4d4d4d"
       id="path2"
       inkscape:connector-curvature="0" />
    <path
       d="m 2,7 v 8 h 9 V 14 H 3 V 6.333 Z M 13.002,6 13,15 h 1 V 7 Z"
       font-size="15"
       font-weight="400"
       letter-spacing="0"
       word-spacing="0"
       style="font-weight:400;font-size:15px;font-family:Ubuntu;letter-spacing:0;word-spacing:0;text-anchor:middle;fill:#4d4d4d"
       id="path4"
       inkscape:connector-curvature="0" />
    <path
       d="M 8,8.986 A 8.47,8.47 0 0 1 8.607,8.864 5.24,5.24 0 0 1 9.479,8.8 c 0.295,0 0.54,0.043 0.735,0.129 0.195,0.08 0.35,0.197 0.465,0.35 0.119,0.147 0.202,0.326 0.25,0.535 0.047,0.21 0.071,0.44 0.071,0.693 V 14.2 H 8 Z"
       font-weight="400"
       letter-spacing="0"
       word-spacing="0"
       style="font-weight:400;font-family:Ubuntu;letter-spacing:0;word-spacing:0;text-anchor:end;fill:#4d4d4d"
       id="path6"
       inkscape:connector-curvature="0" />
    <path
       d="M 8,0.293 0.146,8.146 0.854,8.854 8,1.707 15.146,8.854 15.854,8.146 Z"
       font-weight="400"
       overflow="visible"
       style="font-weight:400;font-family:sans-serif;overflow:visible;fill:#4d4d4d;fill-rule:evenodd"
       id="path8"
       inkscape:connector-curvature="0" />
  </g>
</svg>
