<?xml version="1.0" encoding="UTF-8" standalone="no"?>
<svg
   xmlns:dc="http://purl.org/dc/elements/1.1/"
   xmlns:cc="http://creativecommons.org/ns#"
   xmlns:rdf="http://www.w3.org/1999/02/22-rdf-syntax-ns#"
   xmlns:svg="http://www.w3.org/2000/svg"
   xmlns="http://www.w3.org/2000/svg"
   xmlns:sodipodi="http://sodipodi.sourceforge.net/DTD/sodipodi-0.dtd"
   xmlns:inkscape="http://www.inkscape.org/namespaces/inkscape"
   width="24"
   height="24"
   version="1.1"
   id="svg4"
   sodipodi:docname="go-last.svg"
   inkscape:version="0.92.3 (2405546, 2018-03-11)">
  <metadata
     id="metadata10">
    <rdf:RDF>
      <cc:Work
         rdf:about="">
        <dc:format>image/svg+xml</dc:format>
        <dc:type
           rdf:resource="http://purl.org/dc/dcmitype/StillImage" />
        <dc:title></dc:title>
      </cc:Work>
    </rdf:RDF>
  </metadata>
  <defs
     id="defs8" />
  <sodipodi:namedview
     pagecolor="#ffffff"
     bordercolor="#666666"
     borderopacity="1"
     objecttolerance="10"
     gridtolerance="10"
     guidetolerance="10"
     inkscape:pageopacity="0"
     inkscape:pageshadow="2"
     inkscape:window-width="640"
     inkscape:window-height="480"
     id="namedview6"
     showgrid="false"
     inkscape:zoom="18.25"
     inkscape:cx="0.82191781"
     inkscape:cy="7.5616438"
     inkscape:current-layer="svg4" />
  <path
     d="m 7,4 v 1.49 c 0.4,0.525 0.836,1.063 1.22,1.625 0.487,0.71 0.945,1.437 1.372,2.18 0.433,0.754 0.95,1.792 1.285,2.502 L 10.973,12 10.877,12.203 a 39.31,39.31 0 0 1 -1.285,2.502 32.84,32.84 0 0 1 -1.371,2.18 C 7.836,17.447 7.4,17.985 7,18.51 V 20 c 0.69,-0.874 1.397,-1.757 2.008,-2.656 0.68,-1 1.288,-1.972 1.826,-2.912 C 11.33,13.564 11.704,12.658 12,12 11.703,11.342 11.33,10.436 10.834,9.568 A 44.796,44.796 0 0 0 9.008,6.656 C 8.398,5.756 7.691,4.874 7,4 Z m 8,7 a 1,1 0 0 0 -1,1 1,1 0 0 0 1,1 1,1 0 0 0 1,-1 1,1 0 0 0 -1,-1 z"
     id="path2"
     inkscape:connector-curvature="0"
     style="fill:#4d4d4d" />
</svg>
