<?xml version="1.0" encoding="UTF-8" standalone="no"?>
<svg
   xmlns:dc="http://purl.org/dc/elements/1.1/"
   xmlns:cc="http://creativecommons.org/ns#"
   xmlns:rdf="http://www.w3.org/1999/02/22-rdf-syntax-ns#"
   xmlns:svg="http://www.w3.org/2000/svg"
   xmlns="http://www.w3.org/2000/svg"
   xmlns:sodipodi="http://sodipodi.sourceforge.net/DTD/sodipodi-0.dtd"
   xmlns:inkscape="http://www.inkscape.org/namespaces/inkscape"
   width="24"
   height="24"
   version="1.1"
   id="svg4"
   sodipodi:docname="go-next.svg"
   inkscape:version="0.92.3 (2405546, 2018-03-11)">
  <metadata
     id="metadata10">
    <rdf:RDF>
      <cc:Work
         rdf:about="">
        <dc:format>image/svg+xml</dc:format>
        <dc:type
           rdf:resource="http://purl.org/dc/dcmitype/StillImage" />
        <dc:title></dc:title>
      </cc:Work>
    </rdf:RDF>
  </metadata>
  <defs
     id="defs8" />
  <sodipodi:namedview
     pagecolor="#ffffff"
     bordercolor="#666666"
     borderopacity="1"
     objecttolerance="10"
     gridtolerance="10"
     guidetolerance="10"
     inkscape:pageopacity="0"
     inkscape:pageshadow="2"
     inkscape:window-width="640"
     inkscape:window-height="480"
     id="namedview6"
     showgrid="true"
     inkscape:zoom="9.125"
     inkscape:cx="-21.145664"
     inkscape:cy="2.9260906"
     inkscape:current-layer="svg4">
    <inkscape:grid
       type="xygrid"
       id="grid12" />
  </sodipodi:namedview>
  <path
     d="m 9,4 c 0.69,0.874 1.397,1.757 2.008,2.656 0.679,1 1.287,1.972 1.825,2.912 0.497,0.868 0.87,1.774 1.167,2.432 -0.297,0.658 -0.67,1.564 -1.167,2.432 a 44.816,44.816 0 0 1 -1.825,2.912 C 10.398,18.244 9.691,19.126 9,20 v -1.49 c 0.4,-0.524 0.837,-1.062 1.222,-1.625 0.486,-0.71 0.942,-1.437 1.37,-2.18 0.433,-0.755 0.95,-1.792 1.285,-2.5 V 12.204 L 12.973,12 12.877,11.797 A 39.108,39.108 0 0 0 11.592,9.296 32.873,32.873 0 0 0 10.222,7.115 C 9.837,6.553 9.4,6.015 9,5.49 Z"
     id="path2"
     inkscape:connector-curvature="0"
     style="fill:#4d4d4d" />
</svg>
