<?xml version="1.0" encoding="UTF-8" standalone="no"?>
<svg
   xmlns:dc="http://purl.org/dc/elements/1.1/"
   xmlns:cc="http://creativecommons.org/ns#"
   xmlns:rdf="http://www.w3.org/1999/02/22-rdf-syntax-ns#"
   xmlns:svg="http://www.w3.org/2000/svg"
   xmlns="http://www.w3.org/2000/svg"
   xmlns:sodipodi="http://sodipodi.sourceforge.net/DTD/sodipodi-0.dtd"
   xmlns:inkscape="http://www.inkscape.org/namespaces/inkscape"
   width="24"
   height="24"
   version="1.1"
   id="svg4"
   sodipodi:docname="go-previous.svg"
   inkscape:version="0.92.3 (2405546, 2018-03-11)">
  <metadata
     id="metadata10">
    <rdf:RDF>
      <cc:Work
         rdf:about="">
        <dc:format>image/svg+xml</dc:format>
        <dc:type
           rdf:resource="http://purl.org/dc/dcmitype/StillImage" />
        <dc:title></dc:title>
      </cc:Work>
    </rdf:RDF>
  </metadata>
  <defs
     id="defs8" />
  <sodipodi:namedview
     pagecolor="#ffffff"
     bordercolor="#666666"
     borderopacity="1"
     objecttolerance="10"
     gridtolerance="10"
     guidetolerance="10"
     inkscape:pageopacity="0"
     inkscape:pageshadow="2"
     inkscape:window-width="640"
     inkscape:window-height="480"
     id="namedview6"
     showgrid="true"
     inkscape:zoom="18.25"
     inkscape:cx="0.82191781"
     inkscape:cy="11.945205"
     inkscape:current-layer="svg4">
    <inkscape:grid
       type="xygrid"
       id="grid12" />
  </sodipodi:namedview>
  <path
     d="m 14,4 c -0.69,0.874 -1.397,1.757 -2.008,2.656 -0.679,1 -1.287,1.972 -1.825,2.912 C 9.67,10.436 9.297,11.342 9,12 c 0.297,0.658 0.67,1.564 1.167,2.432 a 45.19,45.19 0 0 0 1.825,2.912 c 0.61,0.9 1.317,1.782 2.008,2.656 v -1.49 c -0.4,-0.524 -0.837,-1.062 -1.222,-1.625 a 32.845,32.845 0 0 1 -1.37,-2.18 39.196,39.196 0 0 1 -1.285,-2.5 V 12.204 L 10.027,12 10.123,11.797 c 0.334,-0.71 0.852,-1.747 1.285,-2.501 a 33.18,33.18 0 0 1 1.37,-2.181 C 13.163,6.553 13.6,6.015 14,5.49 Z"
     id="path2"
     inkscape:connector-curvature="0"
     style="fill:#4d4d4d" />
</svg>
