<?xml version="1.0" encoding="UTF-8" standalone="no"?>
<svg
   xmlns:dc="http://purl.org/dc/elements/1.1/"
   xmlns:cc="http://creativecommons.org/ns#"
   xmlns:rdf="http://www.w3.org/1999/02/22-rdf-syntax-ns#"
   xmlns:svg="http://www.w3.org/2000/svg"
   xmlns="http://www.w3.org/2000/svg"
   xmlns:sodipodi="http://sodipodi.sourceforge.net/DTD/sodipodi-0.dtd"
   xmlns:inkscape="http://www.inkscape.org/namespaces/inkscape"
   width="24"
   height="24"
   version="1.1"
   id="svg4"
   sodipodi:docname="help-contents.svg"
   inkscape:version="0.92.3 (2405546, 2018-03-11)">
  <metadata
     id="metadata10">
    <rdf:RDF>
      <cc:Work
         rdf:about="">
        <dc:format>image/svg+xml</dc:format>
        <dc:type
           rdf:resource="http://purl.org/dc/dcmitype/StillImage" />
        <dc:title></dc:title>
      </cc:Work>
    </rdf:RDF>
  </metadata>
  <defs
     id="defs8" />
  <sodipodi:namedview
     pagecolor="#ffffff"
     bordercolor="#666666"
     borderopacity="1"
     objecttolerance="10"
     gridtolerance="10"
     guidetolerance="10"
     inkscape:pageopacity="0"
     inkscape:pageshadow="2"
     inkscape:window-width="640"
     inkscape:window-height="480"
     id="namedview6"
     showgrid="false"
     inkscape:zoom="12.904699"
     inkscape:cx="-6.0097689"
     inkscape:cy="7.1304078"
     inkscape:current-layer="svg4" />
  <path
     d="m 12,4 c -4.424,0 -8,3.576 -8,8 0,4.424 3.576,8 8,8 4.424,0 8,-3.576 8,-8 0,-4.424 -3.576,-8 -8,-8 z m 0,1 c 3.87,0 7,3.13 7,7 0,3.87 -3.13,7 -7,7 C 8.13,19 5,15.87 5,12 5,8.13 8.13,5 12,5 Z m 0.063,2 c -1.252,-0.024 -2.564,0.47 -2.97,1.438 -0.234,0.538 -0.006,1.5 0.782,1.5 0.46,0 0.653,-0.315 0.688,-0.594 0.026,-0.212 -0.044,-0.388 -0.094,-0.563 -0.057,-0.199 0.173,-0.593 0.437,-0.75 0.221,-0.131 0.466,-0.179 0.5,-0.187 0.795,-0.196 1.576,0.255 1.907,0.781 0.33,0.526 -0.04,1.317 -0.563,2.094 -0.523,0.776 -1.065,1.657 -1.062,2.593 0,0.357 -0.054,0.481 -0.032,0.626 0.018,0.115 0.403,0.116 0.688,0.062 -0.025,-0.907 0.164,-1.814 1,-2.438 C 14.227,10.857 15.09,9.978 15,8.937 14.98,7.934 13.822,7.144 12.594,7.031 A 4.39,4.39 0 0 0 12.063,7 Z m -0.344,8.219 c -0.603,0.148 -0.962,0.914 -0.563,1.406 0.408,0.621 1.554,0.453 1.75,-0.25 0.204,-0.547 -0.307,-1.165 -0.937,-1.156 -0.095,-0.005 -0.164,-0.021 -0.25,0 z"
     overflow="visible"
     id="path2"
     inkscape:connector-curvature="0"
     style="color:#4d4d4d;overflow:visible;fill:#4d4d4d" />
</svg>
