<?xml version="1.0" encoding="UTF-8" standalone="no"?>
<svg
   xmlns:dc="http://purl.org/dc/elements/1.1/"
   xmlns:cc="http://creativecommons.org/ns#"
   xmlns:rdf="http://www.w3.org/1999/02/22-rdf-syntax-ns#"
   xmlns:svg="http://www.w3.org/2000/svg"
   xmlns="http://www.w3.org/2000/svg"
   xmlns:sodipodi="http://sodipodi.sourceforge.net/DTD/sodipodi-0.dtd"
   xmlns:inkscape="http://www.inkscape.org/namespaces/inkscape"
   width="24"
   height="24"
   version="1.1"
   id="svg12"
   sodipodi:docname="image-rotate-left.svg"
   inkscape:version="0.92.3 (2405546, 2018-03-11)">
  <metadata
     id="metadata18">
    <rdf:RDF>
      <cc:Work
         rdf:about="">
        <dc:format>image/svg+xml</dc:format>
        <dc:type
           rdf:resource="http://purl.org/dc/dcmitype/StillImage" />
        <dc:title></dc:title>
      </cc:Work>
    </rdf:RDF>
  </metadata>
  <defs
     id="defs16" />
  <sodipodi:namedview
     pagecolor="#ffffff"
     bordercolor="#666666"
     borderopacity="1"
     objecttolerance="10"
     gridtolerance="10"
     guidetolerance="10"
     inkscape:pageopacity="0"
     inkscape:pageshadow="2"
     inkscape:window-width="640"
     inkscape:window-height="480"
     id="namedview14"
     showgrid="true"
     inkscape:zoom="12.904699"
     inkscape:cx="-5.0792069"
     inkscape:cy="7.2892842"
     inkscape:current-layer="svg12">
    <inkscape:grid
       type="xygrid"
       id="grid20" />
  </sodipodi:namedview>
  <g
     transform="translate(-27.996971,-215.37)"
     id="g10">
    <path
       d="m 31.996971,235.37 h 10 v -5 l -10,4 z"
       id="path2"
       inkscape:connector-curvature="0"
       style="fill:#4d4d4d" />
    <path
       d="m 42.022097,220.37909 v 10 h 5 l -4,-10 z"
       id="path4"
       inkscape:connector-curvature="0"
       style="opacity:0.5;fill:#4d4d4d" />
    <path
       d="m 40.00684,221.36218 c -1.487955,0 -2.570868,-0.0195 -3.40625,0.0312 -0.835382,0.0507 -1.484412,0.16931 -1.9375,0.625 -0.453088,0.45569 -0.574871,1.09872 -0.625,1.9375 -0.05013,0.83878 -0.03125,1.94285 -0.03125,3.4375 h 1 c 0,-1.50817 -0.01412,-2.61584 0.03125,-3.375 0.04537,-0.75916 0.171261,-1.10777 0.34375,-1.28125 0.172489,-0.17348 0.526402,-0.29793 1.28125,-0.34375 0.754848,-0.0458 1.842243,-0.0312 3.34375,-0.0312 z"
       id="path6"
       inkscape:connector-curvature="0"
       style="fill:#4d4d4d" />
    <path
       d="M 34.491767,229.3622 37,226.3622 H 32"
       id="path8"
       inkscape:connector-curvature="0"
       style="fill:#4d4d4d" />
  </g>
</svg>
