<?xml version="1.0" encoding="UTF-8" standalone="no"?>
<svg
   xmlns:dc="http://purl.org/dc/elements/1.1/"
   xmlns:cc="http://creativecommons.org/ns#"
   xmlns:rdf="http://www.w3.org/1999/02/22-rdf-syntax-ns#"
   xmlns:svg="http://www.w3.org/2000/svg"
   xmlns="http://www.w3.org/2000/svg"
   xmlns:sodipodi="http://sodipodi.sourceforge.net/DTD/sodipodi-0.dtd"
   xmlns:inkscape="http://www.inkscape.org/namespaces/inkscape"
   width="24"
   height="24"
   version="1.1"
   id="svg12"
   sodipodi:docname="image-rotate.svg"
   inkscape:version="0.92.3 (2405546, 2018-03-11)">
  <metadata
     id="metadata18">
    <rdf:RDF>
      <cc:Work
         rdf:about="">
        <dc:format>image/svg+xml</dc:format>
        <dc:type
           rdf:resource="http://purl.org/dc/dcmitype/StillImage" />
        <dc:title></dc:title>
      </cc:Work>
    </rdf:RDF>
  </metadata>
  <defs
     id="defs16" />
  <sodipodi:namedview
     pagecolor="#ffffff"
     bordercolor="#666666"
     borderopacity="1"
     objecttolerance="10"
     gridtolerance="10"
     guidetolerance="10"
     inkscape:pageopacity="0"
     inkscape:pageshadow="2"
     inkscape:window-width="640"
     inkscape:window-height="480"
     id="namedview14"
     showgrid="true"
     inkscape:zoom="12.904699"
     inkscape:cx="-8.1659491"
     inkscape:cy="7.7659135"
     inkscape:current-layer="svg12">
    <inkscape:grid
       type="xygrid"
       id="grid20" />
  </sodipodi:namedview>
  <g
     style="fill:#4d4d4d"
     id="g10"
     transform="translate(3.9991465,3.9994093)">
    <path
       d="m 13.909,1.307 -3.304,3.307 c 0.732,0.273 1.5,0.527 2.306,0.764 0.8,0.231 1.592,0.436 2.375,0.612 A 48.514,48.514 0 0 0 14.665,3.624 40.298,40.298 0 0 0 13.909,1.308 Z"
       overflow="visible"
       style="color:#000000;overflow:visible;fill:#4d4d4d"
       id="path2"
       inkscape:connector-curvature="0" />
    <path
       d="m 12.756,11.656 -0.072,0.084 0.75,0.66 0.091,-0.103 0.04,-0.05 0.48,-0.72 -0.832,-0.554 z m -1.11,1.108 -0.34,0.226 0.555,0.832 0.368,-0.244 0.05,-0.039 0.422,-0.37 -0.658,-0.751 z m -1.353,0.779 -0.676,0.23 0.322,0.948 0.717,-0.246 0.06,-0.024 0.218,-0.11 -0.442,-0.896 z m -2.326,0.459 0.066,0.996 0.801,-0.053 -0.066,-0.998 z"
       font-weight="400"
       overflow="visible"
       style="color:#000000;font-weight:400;font-family:sans-serif;overflow:visible;fill:#4d4d4d"
       id="path4"
       inkscape:connector-curvature="0" />
    <path
       d="M 8,6 A 2,2 0 0 1 10,8 2,2 0 0 1 8,10 2,2 0 0 1 6,8 2,2 0 0 1 8,6 Z M 8,7 A 1,1 0 0 0 7,8 1,1 0 0 0 8,9 1,1 0 0 0 9,8 1,1 0 0 0 8,7 Z"
       style="fill:#4d4d4d"
       id="path6"
       inkscape:connector-curvature="0" />
    <path
       d="M 7.574,1.014 A 6.981,6.981 0 0 0 5.227,1.572 7.005,7.005 0 0 0 1.145,9.416 7.005,7.005 0 0 0 8,15 H 8.5 V 14 H 8 A 5.996,5.996 0 0 1 2.123,9.213 5.995,5.995 0 0 1 5.623,2.49 5.995,5.995 0 0 1 12.914,4.559 l 0.287,0.41 0.82,-0.574 -0.287,-0.41 A 7.006,7.006 0 0 0 7.574,1.014 Z"
       font-weight="400"
       overflow="visible"
       style="color:#000000;font-weight:400;font-family:sans-serif;overflow:visible;fill:#4d4d4d"
       id="path8"
       inkscape:connector-curvature="0" />
  </g>
</svg>
