<?xml version="1.0" encoding="UTF-8" standalone="no"?>
<svg
   xmlns:dc="http://purl.org/dc/elements/1.1/"
   xmlns:cc="http://creativecommons.org/ns#"
   xmlns:rdf="http://www.w3.org/1999/02/22-rdf-syntax-ns#"
   xmlns:svg="http://www.w3.org/2000/svg"
   xmlns="http://www.w3.org/2000/svg"
   xmlns:sodipodi="http://sodipodi.sourceforge.net/DTD/sodipodi-0.dtd"
   xmlns:inkscape="http://www.inkscape.org/namespaces/inkscape"
   viewBox="0 0 24 24"
   version="1.1"
   id="svg9"
   sodipodi:docname="kr_combine.svg"
   inkscape:version="0.92.3 (2405546, 2018-03-11)">
  <metadata
     id="metadata13">
    <rdf:RDF>
      <cc:Work
         rdf:about="">
        <dc:format>image/svg+xml</dc:format>
        <dc:type
           rdf:resource="http://purl.org/dc/dcmitype/StillImage" />
      </cc:Work>
    </rdf:RDF>
  </metadata>
  <sodipodi:namedview
     pagecolor="#ffffff"
     bordercolor="#666666"
     borderopacity="1"
     objecttolerance="10"
     gridtolerance="10"
     guidetolerance="10"
     inkscape:pageopacity="0"
     inkscape:pageshadow="2"
     inkscape:window-width="640"
     inkscape:window-height="480"
     id="namedview11"
     showgrid="false"
     inkscape:zoom="12.166667"
     inkscape:cx="-2.3013699"
     inkscape:cy="11.342466"
     inkscape:current-layer="svg9" />
  <defs
     id="defs3">
    <style
       id="current-color-scheme"
       type="text/css">
   .ColorScheme-Text { color:#4d4d4d; } .ColorScheme-Highlight { color:#f34f17; }
  </style>
  </defs>
  <path
     style="fill:#4d4d4d;fill-opacity:1"
     class="ColorScheme-Text"
     d="M 4 4 L 4 7 L 7 7 L 7 6 L 10 6 L 14 6 L 17 6 L 17 7 L 20 7 L 20 4 L 17 4 L 17 5 L 14 5 L 10 5 L 7 5 L 7 4 L 4 4 z M 5 5 L 6 5 L 6 6 L 5 6 L 5 5 z M 18 5 L 19 5 L 19 6 L 18 6 L 18 5 z M 10 16 L 10 18 L 4 18 L 4 19 L 10 19 L 10 20 L 14 20 L 14 19 L 20 19 L 20 18 L 14 18 L 14 16 L 10 16 z M 11 17 L 13 17 L 13 18 L 13 19 L 11 19 L 11 17 z"
     id="path5" />
  <path
     style="fill:#4d4d4d;fill-opacity:1"
     class="ColorScheme-Highlight"
     d="M 10 10.5 L 12 13.5 L 14 10.5 L 10 10.5 z"
     id="path7" />
</svg>
