<?xml version="1.0" encoding="UTF-8" standalone="no"?>
<svg
   xmlns:dc="http://purl.org/dc/elements/1.1/"
   xmlns:cc="http://creativecommons.org/ns#"
   xmlns:rdf="http://www.w3.org/1999/02/22-rdf-syntax-ns#"
   xmlns:svg="http://www.w3.org/2000/svg"
   xmlns="http://www.w3.org/2000/svg"
   xmlns:sodipodi="http://sodipodi.sourceforge.net/DTD/sodipodi-0.dtd"
   xmlns:inkscape="http://www.inkscape.org/namespaces/inkscape"
   width="24"
   height="24"
   version="1.1"
   id="svg8"
   sodipodi:docname="location.svg"
   inkscape:version="0.92.3 (2405546, 2018-03-11)">
  <metadata
     id="metadata14">
    <rdf:RDF>
      <cc:Work
         rdf:about="">
        <dc:format>image/svg+xml</dc:format>
        <dc:type
           rdf:resource="http://purl.org/dc/dcmitype/StillImage" />
        <dc:title></dc:title>
      </cc:Work>
    </rdf:RDF>
  </metadata>
  <defs
     id="defs12" />
  <sodipodi:namedview
     pagecolor="#ffffff"
     bordercolor="#666666"
     borderopacity="1"
     objecttolerance="10"
     gridtolerance="10"
     guidetolerance="10"
     inkscape:pageopacity="0"
     inkscape:pageshadow="2"
     inkscape:window-width="640"
     inkscape:window-height="480"
     id="namedview10"
     showgrid="true"
     inkscape:zoom="18.25"
     inkscape:cx="0.82832232"
     inkscape:cy="7.56927"
     inkscape:current-layer="svg8">
    <inkscape:grid
       type="xygrid"
       id="grid16" />
  </sodipodi:namedview>
  <g
     transform="translate(-47.98923,-477)"
     id="g6">
    <path
       d="m 68.00049,488.50037 c 0,1.50007 -0.64063,2.49247 -1.55811,2.97392 -0.91747,0.48145 -2.01885,0.52616 -3.07129,0.52616 h -8.54004 v -1.00009 h 8.54004 c 1.01205,0 1.97556,-0.0804 2.60644,-0.41146 C 66.60843,490.25784 67,489.75036 67,488.50037 V 484 h 1.00049 z"
       style="fill:#4d4d4d"
       id="path2"
       inkscape:connector-curvature="0" />
    <path
       d="m 57,489 -0.002,5 c -0.76042,-0.34766 -1.53457,-0.73665 -2.32275,-1.1664 -0.78078,-0.43079 -1.53392,-0.87511 -2.25892,-1.33339 0.725,-0.44911 1.47814,-0.88918 2.25892,-1.31996 0.78862,-0.42999 1.5632,-0.82332 2.32404,-1.18025 z"
       style="fill:#4d4d4d"
       id="path4"
       inkscape:connector-curvature="0" />
  </g>
</svg>
