<?xml version="1.0" encoding="UTF-8" standalone="no"?>
<svg
   xmlns:dc="http://purl.org/dc/elements/1.1/"
   xmlns:cc="http://creativecommons.org/ns#"
   xmlns:rdf="http://www.w3.org/1999/02/22-rdf-syntax-ns#"
   xmlns:svg="http://www.w3.org/2000/svg"
   xmlns="http://www.w3.org/2000/svg"
   xmlns:sodipodi="http://sodipodi.sourceforge.net/DTD/sodipodi-0.dtd"
   xmlns:inkscape="http://www.inkscape.org/namespaces/inkscape"
   version="1.1"
   viewBox="0 0 24 24"
   id="svg9"
   sodipodi:docname="mesh-gradient.svg"
   width="24"
   height="24"
   inkscape:version="0.92.3 (2405546, 2018-03-11)">
  <metadata
     id="metadata13">
    <rdf:RDF>
      <cc:Work
         rdf:about="">
        <dc:format>image/svg+xml</dc:format>
        <dc:type
           rdf:resource="http://purl.org/dc/dcmitype/StillImage" />
        <dc:title></dc:title>
      </cc:Work>
    </rdf:RDF>
  </metadata>
  <sodipodi:namedview
     pagecolor="#ffffff"
     bordercolor="#666666"
     borderopacity="1"
     objecttolerance="10"
     gridtolerance="10"
     guidetolerance="10"
     inkscape:pageopacity="0"
     inkscape:pageshadow="2"
     inkscape:window-width="640"
     inkscape:window-height="480"
     id="namedview11"
     showgrid="true"
     inkscape:zoom="13.272727"
     inkscape:cx="-1.8082192"
     inkscape:cy="10.39726"
     inkscape:current-layer="svg9">
    <inkscape:grid
       type="xygrid"
       id="grid824" />
  </sodipodi:namedview>
  <defs
     id="defs3">
    <style
       id="current-color-scheme"
       type="text/css">
   .ColorScheme-Text { color:#4d4d4d; }
  </style>
  </defs>
  <g
     id="g822"
     transform="translate(0.9999999,0.9999998)">
    <path
       id="path5"
       style="color:#4d4d4d;opacity:0.3;fill:currentColor"
       d="m 7.7988302,3.7694615 c -0.84051,0.0524 -1.80826,0.31526 -2.966801,0.89453 l -0.335939,0.16797 0.16797,0.3359399 c 0.72764,1.45528 0.89251,2.49874 0.80664,3.3574195 -0.0859,0.85869 -0.43164,1.5566401 -0.80664,2.3066401 -0.375,0.75 -0.77923,1.55205 -0.88086,2.56836 -0.10163,1.01631 0.1085,2.22286 0.88086,3.76758 l 0.16797,0.33594 0.33594,-0.16797 c 1.45528,-0.72764 2.49874,-0.89251 3.35742,-0.80664 0.85869,0.0859 1.5566388,0.43164 2.3066388,0.80664 0.75,0.375 1.55205,0.77923 2.568361,0.88086 1.01631,0.10163 2.22286,-0.1085 3.76758,-0.88086 l 0.33594,-0.16797 -0.16797,-0.33594 c -0.72764,-1.45527 -0.89251,-2.49874 -0.80664,-3.35742 0.0859,-0.85868 0.43164,-1.55664 0.80664,-2.30664 0.375,-0.75 0.77922,-1.5520501 0.88086,-2.5683601 0.10163,-1.0163195 -0.1085,-2.2228595 -0.88086,-3.7675794 l -0.16797,-0.33594 -0.33594,0.16797 c -1.45528,0.7276399 -2.49873,0.8925099 -3.35742,0.8066399 -0.858691,-0.0859 -1.556641,-0.4316399 -2.306641,-0.8066399 -0.75,-0.375 -1.5520488,-0.77923 -2.5683588,-0.88086 -0.25408,-0.0254 -0.52061,-0.0311 -0.80078,-0.0137 z"
       class="ColorScheme-Text"
       inkscape:connector-curvature="0" />
    <path
       id="path7"
       d="m 3.0000002,3.0000004 v 3 h 3 v -3 z m 12.9999998,0 v 3 h 3 v -3 z M 3.0000002,16 v 3 h 3 V 16 Z M 16,16 v 3 h 3 v -3 z"
       class="ColorScheme-Text"
       style="color:#4d4d4d;fill:currentColor"
       inkscape:connector-curvature="0" />
  </g>
</svg>
