<?xml version="1.0" encoding="UTF-8" standalone="no"?>
<svg
   xmlns:osb="http://www.openswatchbook.org/uri/2009/osb"
   xmlns:dc="http://purl.org/dc/elements/1.1/"
   xmlns:cc="http://creativecommons.org/ns#"
   xmlns:rdf="http://www.w3.org/1999/02/22-rdf-syntax-ns#"
   xmlns:svg="http://www.w3.org/2000/svg"
   xmlns="http://www.w3.org/2000/svg"
   xmlns:sodipodi="http://sodipodi.sourceforge.net/DTD/sodipodi-0.dtd"
   xmlns:inkscape="http://www.inkscape.org/namespaces/inkscape"
   height="24"
   id="svg7384"
   version="1.1"
   width="24"
   sodipodi:docname="plugins.svg"
   inkscape:version="0.92.3 (2405546, 2018-03-11)">
  <sodipodi:namedview
     pagecolor="#ffffff"
     bordercolor="#666666"
     borderopacity="1"
     objecttolerance="10"
     gridtolerance="10"
     guidetolerance="10"
     inkscape:pageopacity="0"
     inkscape:pageshadow="2"
     inkscape:window-width="640"
     inkscape:window-height="480"
     id="namedview21"
     showgrid="true"
     inkscape:zoom="12.904686"
     inkscape:cx="-2.7075647"
     inkscape:cy="5.9884619"
     inkscape:current-layer="svg7384">
    <inkscape:grid
       type="xygrid"
       id="grid21" />
  </sodipodi:namedview>
  <metadata
     id="metadata20854">
    <rdf:RDF>
      <cc:Work
         rdf:about="">
        <dc:title></dc:title>
        <dc:format>image/svg+xml</dc:format>
        <dc:type
           rdf:resource="http://purl.org/dc/dcmitype/StillImage" />
      </cc:Work>
    </rdf:RDF>
  </metadata>
  <defs
     id="defs7386">
    <linearGradient
       id="linearGradient5606"
       osb:paint="solid">
      <stop
         id="stop5608"
         offset="0"
         style="stop-color:#000000;stop-opacity:1;" />
    </linearGradient>
    <linearGradient
       id="linearGradient4526"
       osb:paint="solid">
      <stop
         id="stop4528"
         offset="0"
         style="stop-color:#ffffff;stop-opacity:1;" />
    </linearGradient>
    <linearGradient
       id="linearGradient3600-4"
       osb:paint="gradient">
      <stop
         id="stop3602-7"
         offset="0"
         style="stop-color:#f4f4f4;stop-opacity:1" />
      <stop
         id="stop3604-6"
         offset="1"
         style="stop-color:#dbdbdb;stop-opacity:1" />
    </linearGradient>
  </defs>
  <g
     id="layer9"
     label="status"
     style="display:inline"
     transform="translate(-812.5002,34.499985)" />
  <g
     id="layer2"
     style="display:inline"
     transform="translate(-571.5,-332.50002)" />
  <g
     id="layer4"
     style="display:inline"
     transform="translate(-571.5,-332.50002)" />
  <g
     id="g1812"
     style="display:inline"
     transform="translate(-571.5,-332.50002)" />
  <g
     id="g6217"
     style="display:inline"
     transform="translate(-571.5,-332.50002)" />
  <g
     id="layer3"
     style="display:inline"
     transform="translate(-571.5,-332.50002)" />
  <path
     inkscape:connector-curvature="0"
     style="opacity:1;vector-effect:none;fill:#4d4d4d;fill-opacity:1;stroke:none;stroke-width:0.99999994;stroke-linecap:round;stroke-linejoin:round;stroke-miterlimit:4;stroke-dasharray:none;stroke-dashoffset:0;stroke-opacity:0.88059698"
     id="rect9178-3"
     d="m 11,3.9999999 c -1.76282,0 -2,1 -2,1.5 0,0.5 0,1.0000003 0.25,1.5000003 H 9 5 V 11 v 1 0.5 c 0,0 1,-0.5 2,-0.5 0.5,0 1,0.5 1,1 0,0.5 -0.5,1 -1,1 -1,0 -2,-0.5 -2,-0.5 v 0.5 1 4 h 4 1 0.5 c 0,0 -0.5,-1 -0.5,-2 0,-0.5 0.5,-1 1,-1 0.5,0 1,0.5 1,1 0,1 -0.5,2 -0.5,2 h 0.5 1 4 V 14.75 C 17.5,15 18,15 18.5,15 19.04612,15 20,14.76731 20,13 20,11.23718 19,11 18.5,11 18,11 17.5,11 17,11.25 V 7.0000002 H 13 12.75 C 13,6.5000002 13,5.9999999 13,5.4999999 c 0,-0.54612 -0.23269,-1.5 -2,-1.5 z m 0,1 c 0.5,0 1,0.5 1,1 0,1.0000003 -0.5,2.0000003 -0.5,2.0000003 H 12 v 0.0312 l 4,-0.002 V 12.5 c 0,0 1,-0.5 2,-0.5 0.5,0 1,0.5 1,1 0,0.5 -0.5,1 -1,1 -1,0 -2,-0.5 -2,-0.5 v 4.46484 H 12.76367 C 12.99648,17.47658 13,16.98827 13,16.5 13,15.95388 12.76731,15 11,15 c -1.76282,0 -2,1 -2,1.5 0,0.48827 0.004,0.97658 0.23633,1.46484 H 6.02344 V 14.75977 C 6.51554,14.99811 7.00789,15 7.5,15 8.04612,15 9,14.76731 9,13 9,11.23718 8,11 7.5,11 7.00789,11 6.51554,11.002 6.02344,11.24023 V 8.0332002 L 10,8.0312502 v -0.03125 h 0.5 c 0,0 -0.5,-1 -0.5,-2.0000003 0,-0.5 0.5,-1 1,-1 z" />
  <g
     id="layer1"
     style="display:inline"
     transform="translate(-571.5,-332.50002)" />
</svg>
