<?xml version="1.0" encoding="UTF-8" standalone="no"?>
<svg
   xmlns:dc="http://purl.org/dc/elements/1.1/"
   xmlns:cc="http://creativecommons.org/ns#"
   xmlns:rdf="http://www.w3.org/1999/02/22-rdf-syntax-ns#"
   xmlns:svg="http://www.w3.org/2000/svg"
   xmlns="http://www.w3.org/2000/svg"
   xmlns:sodipodi="http://sodipodi.sourceforge.net/DTD/sodipodi-0.dtd"
   xmlns:inkscape="http://www.inkscape.org/namespaces/inkscape"
   width="24"
   height="24"
   version="1.1"
   id="svg8"
   sodipodi:docname="tab-close.svg"
   inkscape:version="0.92.3 (2405546, 2018-03-11)">
  <metadata
     id="metadata14">
    <rdf:RDF>
      <cc:Work
         rdf:about="">
        <dc:format>image/svg+xml</dc:format>
        <dc:type
           rdf:resource="http://purl.org/dc/dcmitype/StillImage" />
        <dc:title></dc:title>
      </cc:Work>
    </rdf:RDF>
  </metadata>
  <defs
     id="defs12" />
  <sodipodi:namedview
     pagecolor="#ffffff"
     bordercolor="#666666"
     borderopacity="1"
     objecttolerance="10"
     gridtolerance="10"
     guidetolerance="10"
     inkscape:pageopacity="0"
     inkscape:pageshadow="2"
     inkscape:window-width="640"
     inkscape:window-height="480"
     id="namedview10"
     showgrid="true"
     inkscape:zoom="12.904699"
     inkscape:cx="-5.9432418"
     inkscape:cy="7.8005692"
     inkscape:current-layer="svg8">
    <inkscape:grid
       type="xygrid"
       id="grid18" />
  </sodipodi:namedview>
  <g
     id="g11"
     transform="translate(3,-4)">
    <path
       d="M 5.994,11 C 4.736,11.015 3.815,10.97 3.062,11.385 A 1.88,1.88 0 0 0 2.225,12.383 C 2.06,12.82 2,13.343 2,14 v 7 H 1 v 1 H 3 V 14 C 3,13.408 3.063,12.994 3.16,12.734 3.258,12.474 3.362,12.363 3.545,12.262 3.91,12.06 4.74,12.015 6,12 h 5 c 1.259,0.015 2.087,0.06 2.453,0.262 0.184,0.1 0.29,0.212 0.387,0.472 C 13.937,12.994 14,13.408 14,14 v 8 h 2 v -1 h -1 v -7 c 0,-0.658 -0.06,-1.179 -0.225,-1.617 A 1.88,1.88 0 0 0 13.937,11.385 C 13.185,10.969 12.264,11.015 11.006,11 H 5.998 Z"
       overflow="visible"
       style="font-weight:400;font-family:sans-serif;overflow:visible;fill:#4d4d4d"
       id="path2"
       inkscape:connector-curvature="0" />
    <path
       d="M 9.9142136,15.75736 8.5,17.171573 7.0857864,15.75736 6.3786797,16.464466 7.7928932,17.87868 6.3786797,19.292894 7.0857864,20 8.5,18.585787 9.9142136,20 10.62132,19.292894 9.2071068,17.87868 10.62132,16.464466 Z"
       overflow="visible"
       style="font-weight:400;font-family:sans-serif;overflow:visible;fill:#4d4d4d"
       id="path4"
       inkscape:connector-curvature="0" />
  </g>
</svg>
