<?xml version="1.0" encoding="UTF-8" standalone="no"?>
<svg
   xmlns:dc="http://purl.org/dc/elements/1.1/"
   xmlns:cc="http://creativecommons.org/ns#"
   xmlns:rdf="http://www.w3.org/1999/02/22-rdf-syntax-ns#"
   xmlns:svg="http://www.w3.org/2000/svg"
   xmlns="http://www.w3.org/2000/svg"
   xmlns:sodipodi="http://sodipodi.sourceforge.net/DTD/sodipodi-0.dtd"
   xmlns:inkscape="http://www.inkscape.org/namespaces/inkscape"
   width="24"
   height="24"
   version="1.1"
   id="svg6"
   sodipodi:docname="tag-new.svg"
   inkscape:version="0.92.3 (2405546, 2018-03-11)">
  <metadata
     id="metadata12">
    <rdf:RDF>
      <cc:Work
         rdf:about="">
        <dc:format>image/svg+xml</dc:format>
        <dc:type
           rdf:resource="http://purl.org/dc/dcmitype/StillImage" />
        <dc:title></dc:title>
      </cc:Work>
    </rdf:RDF>
  </metadata>
  <defs
     id="defs10" />
  <sodipodi:namedview
     pagecolor="#ffffff"
     bordercolor="#666666"
     borderopacity="1"
     objecttolerance="10"
     gridtolerance="10"
     guidetolerance="10"
     inkscape:pageopacity="0"
     inkscape:pageshadow="2"
     inkscape:window-width="640"
     inkscape:window-height="480"
     id="namedview8"
     showgrid="true"
     inkscape:zoom="12.904699"
     inkscape:cx="-7.9651821"
     inkscape:cy="9.1504082"
     inkscape:current-layer="svg6">
    <inkscape:grid
       type="xygrid"
       id="grid822" />
  </sodipodi:namedview>
  <g
     transform="matrix(1.0672359,0,0,1.0672359,-865.29601,36.516947)"
     style="fill:#4d4d4d"
     id="g4">
    <path
       d="M 4.6367188,0.5 C 0.3359075,0.5 0.5,0.33590855 0.5,4.6367188 0.5,6.9378981 0.53692294,7.6109194 0.66992188,7.8613281 0.8588333,8.2170048 7.8143513,15.172641 8.1796875,15.371094 8.5976491,15.59813 9.1171013,15.522992 9.5976562,15.166016 10.134732,14.767066 15.033941,9.8359632 15.314453,9.4121094 15.536406,9.0766782 15.562855,8.5685806 15.376953,8.2011719 15.192449,7.8365283 8.2445513,0.8704704 7.8632812,0.6679687 7.6128757,0.53497617 6.9378928,0.49999995 4.6367188,0.5 Z m -1.5625,1.5292969 C 3.801184,1.9784179 4.4805978,2.7134415 4.1289062,3.5625 4.0492905,3.7547081 3.8373919,3.98836 3.65625,4.0820312 2.4971358,4.6814326 1.4481693,3.2862025 2.3671875,2.3671875 2.5832201,2.1511544 2.831897,2.0462565 3.0742188,2.0292969 Z m 5.5097656,4.3515625 h 1 v 2 h 1.9999996 v 1 H 9.5839844 v 1.9999996 h -1 V 9.3808594 h -2 v -1 h 2 z"
       transform="matrix(0.93699996,0,0,0.93699996,814.0626,-29.999999)"
       style="fill:#4d4d4d"
       id="path2"
       inkscape:connector-curvature="0" />
  </g>
</svg>
