<?xml version="1.0" encoding="UTF-8" standalone="no"?>
<svg
   xmlns:dc="http://purl.org/dc/elements/1.1/"
   xmlns:cc="http://creativecommons.org/ns#"
   xmlns:rdf="http://www.w3.org/1999/02/22-rdf-syntax-ns#"
   xmlns:svg="http://www.w3.org/2000/svg"
   xmlns="http://www.w3.org/2000/svg"
   xmlns:sodipodi="http://sodipodi.sourceforge.net/DTD/sodipodi-0.dtd"
   xmlns:inkscape="http://www.inkscape.org/namespaces/inkscape"
   width="24"
   height="24"
   version="1.1"
   id="svg6"
   sodipodi:docname="tools.svg"
   inkscape:version="0.92.3 (2405546, 2018-03-11)">
  <metadata
     id="metadata12">
    <rdf:RDF>
      <cc:Work
         rdf:about="">
        <dc:format>image/svg+xml</dc:format>
        <dc:type
           rdf:resource="http://purl.org/dc/dcmitype/StillImage" />
        <dc:title></dc:title>
      </cc:Work>
    </rdf:RDF>
  </metadata>
  <defs
     id="defs10" />
  <sodipodi:namedview
     pagecolor="#ffffff"
     bordercolor="#666666"
     borderopacity="1"
     objecttolerance="10"
     gridtolerance="10"
     guidetolerance="10"
     inkscape:pageopacity="0"
     inkscape:pageshadow="2"
     inkscape:window-width="640"
     inkscape:window-height="480"
     id="namedview8"
     showgrid="true"
     inkscape:zoom="12.904699"
     inkscape:cx="-6.8530471"
     inkscape:cy="7.6297337"
     inkscape:current-layer="svg6">
    <inkscape:grid
       type="xygrid"
       id="grid822" />
  </sodipodi:namedview>
  <g
     transform="translate(-28,-216.3622)"
     id="g4">
    <path
       style="fill:#4d4d4d"
       d="m 41.704857,221.43837 c -1.215679,-0.0398 -2.383249,0.43997 -3.23231,1.52265 -0.478053,0.60959 -0.727773,1.2483 -0.828113,1.89665 -0.03775,0.24395 -0.06462,0.47822 -0.05343,0.72126 0.0029,0.0635 -0.0062,0.1237 0,0.18699 0.305846,1.43499 0.400134,2.97278 -0.329052,4.10991 -1.434995,1.81732 -2.786009,3.70175 -4.261952,5.48637 h 4.259953 l 2.815388,-3.71935 c 0.443803,-0.85573 1.656167,-1.14787 3.045317,-1.28224 1.104211,-0.0295 2.137477,-0.50863 2.911751,-1.49595 0.872755,-1.11289 1.057797,-2.36795 0.721259,-3.55287 l -3.045317,2.21721 c -2.014627,-0.28705 -3.352658,-1.11945 -2.617904,-3.84672 l 2.804897,-1.65622 c -0.704348,-0.35757 -1.461083,-0.5638 -2.190487,-0.58769 z"
       id="path2"
       inkscape:connector-curvature="0" />
  </g>
</svg>
