<?xml version="1.0" encoding="UTF-8" standalone="no"?>
<svg
   xmlns:dc="http://purl.org/dc/elements/1.1/"
   xmlns:cc="http://creativecommons.org/ns#"
   xmlns:rdf="http://www.w3.org/1999/02/22-rdf-syntax-ns#"
   xmlns:svg="http://www.w3.org/2000/svg"
   xmlns="http://www.w3.org/2000/svg"
   xmlns:sodipodi="http://sodipodi.sourceforge.net/DTD/sodipodi-0.dtd"
   xmlns:inkscape="http://www.inkscape.org/namespaces/inkscape"
   width="24"
   height="24"
   version="1.1"
   id="svg8"
   sodipodi:docname="view-refresh.svg"
   inkscape:version="0.92.3 (2405546, 2018-03-11)">
  <metadata
     id="metadata14">
    <rdf:RDF>
      <cc:Work
         rdf:about="">
        <dc:format>image/svg+xml</dc:format>
        <dc:type
           rdf:resource="http://purl.org/dc/dcmitype/StillImage" />
        <dc:title></dc:title>
      </cc:Work>
    </rdf:RDF>
  </metadata>
  <defs
     id="defs12" />
  <sodipodi:namedview
     pagecolor="#ffffff"
     bordercolor="#666666"
     borderopacity="1"
     objecttolerance="10"
     gridtolerance="10"
     guidetolerance="10"
     inkscape:pageopacity="0"
     inkscape:pageshadow="2"
     inkscape:window-width="640"
     inkscape:window-height="480"
     id="namedview10"
     showgrid="true"
     inkscape:zoom="12.904699"
     inkscape:cx="-6.0097689"
     inkscape:cy="6.4949021"
     inkscape:current-layer="svg8">
    <inkscape:grid
       type="xygrid"
       id="grid16" />
  </sodipodi:namedview>
  <g
     style="fill:#4d4d4d"
     id="g6"
     transform="translate(4,4.0005769)">
    <path
       d="m 13.909,1.307 -3.304,3.307 c 0.732,0.273 1.5,0.527 2.306,0.764 0.8,0.231 1.592,0.436 2.375,0.612 A 48.514,48.514 0 0 0 14.665,3.624 40.298,40.298 0 0 0 13.909,1.308 Z"
       overflow="visible"
       style="overflow:visible;fill:#4d4d4d"
       id="path2"
       inkscape:connector-curvature="0" />
    <path
       d="M 8.102,1 A 7.003,7.003 0 0 0 1,8 a 7.003,7.003 0 0 0 4.895,6.676 7.005,7.005 0 0 0 7.84,-2.66 l 0.287,-0.41 -0.82,-0.575 -0.288,0.41 A 5.996,5.996 0 0 1 6.195,13.723 5.996,5.996 0 0 1 2,8 5.996,5.996 0 0 1 6.195,2.277 a 5.996,5.996 0 0 1 6.72,2.282 l 0.286,0.41 0.82,-0.574 -0.287,-0.41 A 7.006,7.006 0 0 0 8.102,1 Z"
       font-weight="400"
       overflow="visible"
       style="font-weight:400;font-family:sans-serif;overflow:visible;fill:#4d4d4d"
       id="path4"
       inkscape:connector-curvature="0" />
  </g>
</svg>
