<?xml version="1.0" encoding="UTF-8" standalone="no"?>
<svg
   xmlns:dc="http://purl.org/dc/elements/1.1/"
   xmlns:cc="http://creativecommons.org/ns#"
   xmlns:rdf="http://www.w3.org/1999/02/22-rdf-syntax-ns#"
   xmlns:svg="http://www.w3.org/2000/svg"
   xmlns="http://www.w3.org/2000/svg"
   xmlns:sodipodi="http://sodipodi.sourceforge.net/DTD/sodipodi-0.dtd"
   xmlns:inkscape="http://www.inkscape.org/namespaces/inkscape"
   width="24"
   height="24"
   version="1.1"
   id="svg8"
   sodipodi:docname="view-fullscreen.svg"
   inkscape:version="0.92.3 (2405546, 2018-03-11)">
  <metadata
     id="metadata14">
    <rdf:RDF>
      <cc:Work
         rdf:about="">
        <dc:format>image/svg+xml</dc:format>
        <dc:type
           rdf:resource="http://purl.org/dc/dcmitype/StillImage" />
        <dc:title></dc:title>
      </cc:Work>
    </rdf:RDF>
  </metadata>
  <defs
     id="defs12" />
  <sodipodi:namedview
     pagecolor="#ffffff"
     bordercolor="#666666"
     borderopacity="1"
     objecttolerance="10"
     gridtolerance="10"
     guidetolerance="10"
     inkscape:pageopacity="0"
     inkscape:pageshadow="2"
     inkscape:window-width="640"
     inkscape:window-height="480"
     id="namedview10"
     showgrid="true"
     inkscape:zoom="18.25"
     inkscape:cx="0.82191781"
     inkscape:cy="7.5616438"
     inkscape:current-layer="svg8">
    <inkscape:grid
       type="xygrid"
       id="grid16" />
  </sodipodi:namedview>
  <g
     font-weight="400"
     id="g6"
     style="color:#000000;font-weight:400;font-family:sans-serif;fill:#4d4d4d"
     transform="translate(4,4)">
    <path
       d="M 3.994,7 C 2.736,7.015 1.815,6.97 1.062,7.385 A 1.88,1.88 0 0 0 0.225,8.383 C 0.06,8.82 0,9.343 0,10 v 2 c 0,0.658 0.06,1.179 0.225,1.617 0.164,0.439 0.461,0.79 0.837,0.998 0.753,0.416 1.674,0.37 2.932,0.385 h 2.012 c 1.258,-0.015 2.179,0.03 2.932,-0.385 A 1.88,1.88 0 0 0 9.776,13.617 C 9.94,13.18 10,12.657 10,12 V 10 C 10,9.342 9.94,8.821 9.775,8.383 A 1.88,1.88 0 0 0 8.938,7.385 C 8.185,6.969 7.264,7.015 6.006,7 H 3.998 Z M 4,8 H 6 C 7.259,8.015 8.087,8.06 8.453,8.262 8.637,8.362 8.743,8.474 8.84,8.734 8.937,8.994 9,9.408 9,10 v 2 C 9,12.592 8.937,13.006 8.84,13.266 8.742,13.526 8.638,13.637 8.455,13.738 8.09,13.94 7.26,13.985 6,14 H 4 C 2.741,13.985 1.91,13.94 1.545,13.738 1.362,13.638 1.258,13.526 1.16,13.266 1.063,13.006 1,12.592 1,12 V 10 C 1,9.408 1.063,8.994 1.16,8.734 1.258,8.474 1.362,8.363 1.545,8.262 1.91,8.06 2.74,8.015 4,8 Z"
       overflow="visible"
       id="path2"
       inkscape:connector-curvature="0"
       style="overflow:visible;opacity:0.5" />
    <path
       d="M 6.994,2 C 5.736,2.015 4.815,1.97 4.062,2.385 A 1.88,1.88 0 0 0 3.225,3.383 C 3.06,3.82 3,4.343 3,5 V 6 H 4 V 5 C 4,4.408 4.063,3.994 4.16,3.734 4.258,3.474 4.362,3.363 4.545,3.262 4.91,3.06 5.74,3.015 7,3 h 5 c 1.259,0.015 2.087,0.06 2.453,0.262 0.184,0.1 0.29,0.212 0.387,0.472 C 14.937,3.994 15,4.408 15,5 v 4 c 0,0.592 -0.063,1.006 -0.16,1.266 -0.098,0.26 -0.202,0.371 -0.385,0.472 -0.367,0.203 -1.197,0.247 -2.46,0.262 H 11 v 1 h 1.006 c 1.258,-0.015 2.179,0.03 2.932,-0.385 a 1.88,1.88 0 0 0 0.837,-0.998 C 15.94,10.18 16,9.657 16,9 V 5 C 16,4.342 15.94,3.821 15.775,3.383 A 1.88,1.88 0 0 0 14.937,2.385 C 14.185,1.969 13.264,2.015 12.006,2 H 6.998 Z"
       overflow="visible"
       id="path4"
       inkscape:connector-curvature="0"
       style="overflow:visible" />
  </g>
</svg>
