<?xml version="1.0" encoding="UTF-8" standalone="no"?>
<svg
   xmlns:dc="http://purl.org/dc/elements/1.1/"
   xmlns:cc="http://creativecommons.org/ns#"
   xmlns:rdf="http://www.w3.org/1999/02/22-rdf-syntax-ns#"
   xmlns:svg="http://www.w3.org/2000/svg"
   xmlns="http://www.w3.org/2000/svg"
   xmlns:sodipodi="http://sodipodi.sourceforge.net/DTD/sodipodi-0.dtd"
   xmlns:inkscape="http://www.inkscape.org/namespaces/inkscape"
   width="24"
   height="24"
   version="1.1"
   id="svg10"
   sodipodi:docname="view-more-horizontal.svg"
   inkscape:version="0.92.3 (2405546, 2018-03-11)">
  <metadata
     id="metadata16">
    <rdf:RDF>
      <cc:Work
         rdf:about="">
        <dc:format>image/svg+xml</dc:format>
        <dc:type
           rdf:resource="http://purl.org/dc/dcmitype/StillImage" />
        <dc:title></dc:title>
      </cc:Work>
    </rdf:RDF>
  </metadata>
  <defs
     id="defs14" />
  <sodipodi:namedview
     pagecolor="#ffffff"
     bordercolor="#666666"
     borderopacity="1"
     objecttolerance="10"
     gridtolerance="10"
     guidetolerance="10"
     inkscape:pageopacity="0"
     inkscape:pageshadow="2"
     inkscape:window-width="640"
     inkscape:window-height="480"
     id="namedview12"
     showgrid="true"
     inkscape:zoom="18.25"
     inkscape:cx="0.82191781"
     inkscape:cy="7.5616438"
     inkscape:current-layer="svg10">
    <inkscape:grid
       type="xygrid"
       id="grid18" />
  </sodipodi:namedview>
  <g
     transform="translate(-28,-276)"
     id="g8">
    <path
       d="M 35.80469,287 C 35.26826,287 35,287.00015 35,287.625 v 0.75 c 0,0.62485 0.26826,0.625 0.80469,0.625 h 0.39062 C 36.73174,289 37,288.99985 37,288.375 v -0.75 C 37,287.02247 36.73174,287 36.19531,287 Z"
       style="fill:#4d4d4d"
       id="path2"
       inkscape:connector-curvature="0" />
    <path
       d="M 39.80469,287 C 39.26826,287 39,287.00015 39,287.625 v 0.75 c 0,0.62485 0.26826,0.625 0.80469,0.625 h 0.39062 C 40.73174,289 41,288.99985 41,288.375 v -0.75 C 41,287.02247 40.73174,287 40.19531,287 Z"
       style="fill:#4d4d4d"
       id="path4"
       inkscape:connector-curvature="0" />
    <path
       d="M 43.80469,287 C 43.26826,287 43,287.00015 43,287.625 v 0.75 c 0,0.62485 0.26826,0.625 0.80469,0.625 h 0.39062 C 44.73174,289 45,288.99985 45,288.375 v -0.75 C 45,287.02247 44.73174,287 44.19531,287 Z"
       style="fill:#4d4d4d"
       id="path6"
       inkscape:connector-curvature="0" />
  </g>
</svg>
