<?xml version="1.0" encoding="UTF-8" standalone="no"?>
<svg
   xmlns:dc="http://purl.org/dc/elements/1.1/"
   xmlns:cc="http://creativecommons.org/ns#"
   xmlns:rdf="http://www.w3.org/1999/02/22-rdf-syntax-ns#"
   xmlns:svg="http://www.w3.org/2000/svg"
   xmlns="http://www.w3.org/2000/svg"
   xmlns:sodipodi="http://sodipodi.sourceforge.net/DTD/sodipodi-0.dtd"
   xmlns:inkscape="http://www.inkscape.org/namespaces/inkscape"
   width="24"
   height="24"
   version="1.1"
   id="svg10"
   sodipodi:docname="view-more.svg"
   inkscape:version="0.92.3 (2405546, 2018-03-11)">
  <metadata
     id="metadata16">
    <rdf:RDF>
      <cc:Work
         rdf:about="">
        <dc:format>image/svg+xml</dc:format>
        <dc:type
           rdf:resource="http://purl.org/dc/dcmitype/StillImage" />
        <dc:title></dc:title>
      </cc:Work>
    </rdf:RDF>
  </metadata>
  <defs
     id="defs14" />
  <sodipodi:namedview
     pagecolor="#ffffff"
     bordercolor="#666666"
     borderopacity="1"
     objecttolerance="10"
     gridtolerance="10"
     guidetolerance="10"
     inkscape:pageopacity="0"
     inkscape:pageshadow="2"
     inkscape:window-width="640"
     inkscape:window-height="480"
     id="namedview12"
     showgrid="false"
     inkscape:zoom="18.25"
     inkscape:cx="0.82191781"
     inkscape:cy="7.5616438"
     inkscape:current-layer="svg10" />
  <g
     transform="translate(-48,-276)"
     id="g8">
    <path
       d="M 59.80469,283 C 59.26826,283 59,283.00015 59,283.625 v 0.75 c 0,0.62485 0.26826,0.625 0.80469,0.625 h 0.39062 C 60.73174,285 61,284.99985 61,284.375 v -0.75 C 61,283.02247 60.73174,283 60.19531,283 Z"
       style="fill:#4d4d4d"
       id="path2"
       inkscape:connector-curvature="0" />
    <path
       d="M 59.80469,287 C 59.26826,287 59,287.00015 59,287.625 v 0.75 c 0,0.62485 0.26826,0.625 0.80469,0.625 h 0.39062 C 60.73174,289 61,288.99985 61,288.375 v -0.75 C 61,287.02247 60.73174,287 60.19531,287 Z"
       style="fill:#4d4d4d"
       id="path4"
       inkscape:connector-curvature="0" />
    <path
       d="M 59.80469,291 C 59.26826,291 59,291.00015 59,291.625 v 0.75 c 0,0.62485 0.26826,0.625 0.80469,0.625 h 0.39062 C 60.73174,293 61,292.99985 61,292.375 v -0.75 C 61,291.02247 60.73174,291 60.19531,291 Z"
       style="fill:#4d4d4d"
       id="path6"
       inkscape:connector-curvature="0" />
  </g>
</svg>
