<?xml version="1.0" encoding="UTF-8" standalone="no"?>
<svg
   xmlns:dc="http://purl.org/dc/elements/1.1/"
   xmlns:cc="http://creativecommons.org/ns#"
   xmlns:rdf="http://www.w3.org/1999/02/22-rdf-syntax-ns#"
   xmlns:svg="http://www.w3.org/2000/svg"
   xmlns="http://www.w3.org/2000/svg"
   xmlns:sodipodi="http://sodipodi.sourceforge.net/DTD/sodipodi-0.dtd"
   xmlns:inkscape="http://www.inkscape.org/namespaces/inkscape"
   width="24"
   height="24"
   version="1.1"
   id="svg10"
   sodipodi:docname="window.svg"
   inkscape:version="0.92.3 (2405546, 2018-03-11)">
  <metadata
     id="metadata16">
    <rdf:RDF>
      <cc:Work
         rdf:about="">
        <dc:format>image/svg+xml</dc:format>
        <dc:type
           rdf:resource="http://purl.org/dc/dcmitype/StillImage" />
        <dc:title></dc:title>
      </cc:Work>
    </rdf:RDF>
  </metadata>
  <defs
     id="defs14" />
  <sodipodi:namedview
     pagecolor="#ffffff"
     bordercolor="#666666"
     borderopacity="1"
     objecttolerance="10"
     gridtolerance="10"
     guidetolerance="10"
     inkscape:pageopacity="0"
     inkscape:pageshadow="2"
     inkscape:window-width="640"
     inkscape:window-height="480"
     id="namedview12"
     showgrid="false"
     inkscape:zoom="12.904699"
     inkscape:cx="0.66989067"
     inkscape:cy="7.78149"
     inkscape:current-layer="svg10" />
  <path
     style="fill:#4d4d4d"
     d="M 5.585938,4.9667975 C 4.715055,4.9667975 4,5.6681881 4,6.5234385 V 18.441406 C 4,19.296657 4.715055,20 5.585938,20 h 5.707031 3.103516 4.017578 C 19.284946,20 20,19.296656 20,18.441406 v -4.01953 -2.314453 -5.5839845 c 0,-0.8552504 -0.717009,-1.556641 -1.58789,-1.556641 z m -0.601563,3.03125 c 3.594886,0.0147 11.001883,0.009 14.011719,0 l 0.0039,6.4199225 h 0.0098 l -0.0039,4.023436 c -3.78e-4,0.366241 -0.207144,0.5625 -0.580078,0.5625 h -4.025391 -3.107422 -5.71875 c -0.372934,0 -0.5797,-0.196259 -0.580078,-0.5625 z"
     id="path28"
     inkscape:connector-curvature="0" />
</svg>
