<?xml version="1.0" encoding="UTF-8" standalone="no"?>
<svg
   xmlns:dc="http://purl.org/dc/elements/1.1/"
   xmlns:cc="http://creativecommons.org/ns#"
   xmlns:rdf="http://www.w3.org/1999/02/22-rdf-syntax-ns#"
   xmlns:svg="http://www.w3.org/2000/svg"
   xmlns="http://www.w3.org/2000/svg"
   xmlns:sodipodi="http://sodipodi.sourceforge.net/DTD/sodipodi-0.dtd"
   xmlns:inkscape="http://www.inkscape.org/namespaces/inkscape"
   width="24"
   height="24"
   version="1.1"
   id="svg10"
   sodipodi:docname="window-previous.svg"
   inkscape:version="0.92.3 (2405546, 2018-03-11)">
  <metadata
     id="metadata16">
    <rdf:RDF>
      <cc:Work
         rdf:about="">
        <dc:format>image/svg+xml</dc:format>
        <dc:type
           rdf:resource="http://purl.org/dc/dcmitype/StillImage" />
        <dc:title></dc:title>
      </cc:Work>
    </rdf:RDF>
  </metadata>
  <defs
     id="defs14" />
  <sodipodi:namedview
     pagecolor="#ffffff"
     bordercolor="#666666"
     borderopacity="1"
     objecttolerance="10"
     gridtolerance="10"
     guidetolerance="10"
     inkscape:pageopacity="0"
     inkscape:pageshadow="2"
     inkscape:window-width="640"
     inkscape:window-height="480"
     id="namedview12"
     showgrid="true"
     inkscape:zoom="12.904699"
     inkscape:cx="-0.86002043"
     inkscape:cy="9.4877242"
     inkscape:current-layer="svg10">
    <inkscape:grid
       type="xygrid"
       id="grid822" />
  </sodipodi:namedview>
  <g
     id="g816"
     transform="translate(3.994141,2.998047)">
    <path
       inkscape:connector-curvature="0"
       id="path28"
       d="m 1.591797,0.96875 c -0.870883,0 -1.585938,0.7013906 -1.585938,1.5566406 V 14.443359 c 0,0.85525 0.715055,1.558594 1.585938,1.558594 h 5.707031 3.103516 4.017578 c 0.870883,0 1.585937,-0.703344 1.585937,-1.558594 V 10.423828 8.109375 2.5253906 c 0,-0.85525 -0.717009,-1.5566406 -1.58789,-1.5566406 z M 0.990234,4 C 4.58512,4.0147 11.992117,4.00904 15.001953,4 l 0.0039,6.419922 h 0.0098 l -0.0039,4.023437 c -3.78e-4,0.36624 -0.207144,0.5625 -0.580078,0.5625 H 10.406284 7.298862 1.580112 c -0.372934,0 -0.5797,-0.19626 -0.580078,-0.5625 z"
       style="fill:#4d4d4d" />
    <path
       inkscape:connector-curvature="0"
       id="path2"
       d="m 7.0047356,7 v 2 h 6.0019484 v 1 H 7.0066887 v 2 C 6.2458487,11.64307 5.4710897,11.250303 4.6824697,10.820312 3.9016897,10.389532 3.1496577,9.94911 2.4246577,9.5 3.1496577,9.04172 3.9016897,8.5968056 4.6824697,8.1660156 5.4706497,7.7362656 6.2443156,7.34766 7.0047356,7 Z"
       style="fill:#4d4d4d" />
  </g>
</svg>
