<?xml version="1.0" encoding="UTF-8" standalone="no"?>
<svg
   xmlns:dc="http://purl.org/dc/elements/1.1/"
   xmlns:cc="http://creativecommons.org/ns#"
   xmlns:rdf="http://www.w3.org/1999/02/22-rdf-syntax-ns#"
   xmlns:svg="http://www.w3.org/2000/svg"
   xmlns="http://www.w3.org/2000/svg"
   xmlns:sodipodi="http://sodipodi.sourceforge.net/DTD/sodipodi-0.dtd"
   xmlns:inkscape="http://www.inkscape.org/namespaces/inkscape"
   width="24"
   height="24"
   version="1.1"
   id="svg8"
   sodipodi:docname="zoom-out.svg"
   inkscape:version="0.92.3 (2405546, 2018-03-11)">
  <metadata
     id="metadata14">
    <rdf:RDF>
      <cc:Work
         rdf:about="">
        <dc:format>image/svg+xml</dc:format>
        <dc:type
           rdf:resource="http://purl.org/dc/dcmitype/StillImage" />
        <dc:title></dc:title>
      </cc:Work>
    </rdf:RDF>
  </metadata>
  <defs
     id="defs12" />
  <sodipodi:namedview
     pagecolor="#ffffff"
     bordercolor="#666666"
     borderopacity="1"
     objecttolerance="10"
     gridtolerance="10"
     guidetolerance="10"
     inkscape:pageopacity="0"
     inkscape:pageshadow="2"
     inkscape:window-width="640"
     inkscape:window-height="480"
     id="namedview10"
     showgrid="true"
     inkscape:zoom="18.25"
     inkscape:cx="1.3248947"
     inkscape:cy="8.0042044"
     inkscape:current-layer="svg8">
    <inkscape:grid
       type="xygrid"
       id="grid16" />
  </sodipodi:namedview>
  <g
     font-weight="400"
     id="g6"
     style="color:#000000;font-weight:400;font-family:sans-serif;fill:#4d4d4d"
     transform="translate(4,3.9873835)">
    <path
       d="M 7.5,1 A 6.508,6.508 0 0 0 1,7.5 C 1,11.084 3.916,14 7.5,14 11.084,14 14,11.084 14,7.5 14,3.916 11.084,1 7.5,1 Z m 0,1.04 c 3.022,0 5.46,2.438 5.46,5.46 0,3.022 -2.438,5.46 -5.46,5.46 A 5.454,5.454 0 0 1 2.039,7.5 c 0,-3.022 2.44,-5.46 5.461,-5.46 z"
       overflow="visible"
       id="path2"
       inkscape:connector-curvature="0"
       style="overflow:visible" />
    <path
       d="m 11.853,11.146 -0.707,0.708 3.5,3.5 0.707,-0.708 z M 5,7 v 1 h 5 V 7 Z"
       overflow="visible"
       id="path4"
       inkscape:connector-curvature="0"
       style="overflow:visible;fill-rule:evenodd" />
  </g>
</svg>
