<?xml version="1.0" encoding="UTF-8" standalone="no"?>
<svg
   xmlns:dc="http://purl.org/dc/elements/1.1/"
   xmlns:cc="http://creativecommons.org/ns#"
   xmlns:rdf="http://www.w3.org/1999/02/22-rdf-syntax-ns#"
   xmlns:svg="http://www.w3.org/2000/svg"
   xmlns="http://www.w3.org/2000/svg"
   xmlns:sodipodi="http://sodipodi.sourceforge.net/DTD/sodipodi-0.dtd"
   xmlns:inkscape="http://www.inkscape.org/namespaces/inkscape"
   width="24"
   height="24"
   version="1.1"
   id="svg4"
   sodipodi:docname="zoom-fit-best.svg"
   inkscape:version="0.92.3 (2405546, 2018-03-11)">
  <metadata
     id="metadata10">
    <rdf:RDF>
      <cc:Work
         rdf:about="">
        <dc:format>image/svg+xml</dc:format>
        <dc:type
           rdf:resource="http://purl.org/dc/dcmitype/StillImage" />
        <dc:title></dc:title>
      </cc:Work>
    </rdf:RDF>
  </metadata>
  <defs
     id="defs8" />
  <sodipodi:namedview
     pagecolor="#ffffff"
     bordercolor="#666666"
     borderopacity="1"
     objecttolerance="10"
     gridtolerance="10"
     guidetolerance="10"
     inkscape:pageopacity="0"
     inkscape:pageshadow="2"
     inkscape:window-width="640"
     inkscape:window-height="480"
     id="namedview6"
     showgrid="false"
     inkscape:zoom="12.904699"
     inkscape:cx="-4.6252742"
     inkscape:cy="6.8807448"
     inkscape:current-layer="svg4" />
  <path
     d="M 9.994,6 C 8.736,6.015 7.815,5.97 7.062,6.385 A 1.88,1.88 0 0 0 6.225,7.383 C 6.06,7.82 6,8.343 6,9 v 2 H 7 V 9 C 7,8.408 7.063,7.994 7.16,7.734 7.258,7.474 7.361,7.363 7.545,7.262 7.91,7.06 8.74,7.015 10,7 h 1 V 6 H 9.998 Z M 13,6 v 1 h 1 c 1.258,0.015 2.087,0.06 2.453,0.262 0.183,0.1 0.29,0.212 0.387,0.472 C 16.937,7.994 17,8.408 17,9 v 2 h 1 V 9 C 18,8.342 17.94,7.821 17.775,7.383 A 1.88,1.88 0 0 0 16.937,6.385 C 16.185,5.969 15.264,6.015 14.006,6 h -0.004 z m -7,7 v 2 c 0,0.658 0.06,1.179 0.225,1.617 0.164,0.439 0.461,0.79 0.837,0.998 0.753,0.416 1.674,0.37 2.932,0.385 H 11 V 17 H 10 C 8.741,16.985 7.91,16.94 7.545,16.738 7.361,16.638 7.258,16.526 7.16,16.266 7.063,16.006 7,15.592 7,15 v -2 z m 11,0 v 2 c 0,0.592 -0.063,1.006 -0.16,1.266 -0.098,0.26 -0.202,0.371 -0.385,0.472 C 16.089,16.94 15.258,16.985 14,17 h -1 v 1 h 1.006 c 1.258,-0.015 2.179,0.03 2.932,-0.385 a 1.88,1.88 0 0 0 0.837,-0.998 C 17.94,16.179 18,15.657 18,15 v -2 z"
     font-weight="400"
     overflow="visible"
     id="path2"
     inkscape:connector-curvature="0"
     style="color:#000000;font-weight:400;font-family:sans-serif;overflow:visible;fill:#4d4d4d" />
</svg>
