<?xml version="1.0" encoding="UTF-8" standalone="no"?>
<svg
   xmlns:dc="http://purl.org/dc/elements/1.1/"
   xmlns:cc="http://creativecommons.org/ns#"
   xmlns:rdf="http://www.w3.org/1999/02/22-rdf-syntax-ns#"
   xmlns:svg="http://www.w3.org/2000/svg"
   xmlns="http://www.w3.org/2000/svg"
   xmlns:sodipodi="http://sodipodi.sourceforge.net/DTD/sodipodi-0.dtd"
   xmlns:inkscape="http://www.inkscape.org/namespaces/inkscape"
   width="24"
   height="24"
   version="1.1"
   id="svg6"
   sodipodi:docname="zoom-fit-selection.svg"
   inkscape:version="0.92.3 (2405546, 2018-03-11)">
  <metadata
     id="metadata12">
    <rdf:RDF>
      <cc:Work
         rdf:about="">
        <dc:format>image/svg+xml</dc:format>
        <dc:type
           rdf:resource="http://purl.org/dc/dcmitype/StillImage" />
        <dc:title></dc:title>
      </cc:Work>
    </rdf:RDF>
  </metadata>
  <defs
     id="defs10" />
  <sodipodi:namedview
     pagecolor="#ffffff"
     bordercolor="#666666"
     borderopacity="1"
     objecttolerance="10"
     gridtolerance="10"
     guidetolerance="10"
     inkscape:pageopacity="0"
     inkscape:pageshadow="2"
     inkscape:window-width="640"
     inkscape:window-height="480"
     id="namedview8"
     showgrid="true"
     inkscape:zoom="9.125"
     inkscape:cx="-19.770409"
     inkscape:cy="8.3506335"
     inkscape:current-layer="svg6">
    <inkscape:grid
       type="xygrid"
       id="grid826" />
  </sodipodi:namedview>
  <g
     id="g824"
     transform="translate(4,-4)">
    <path
       style="color:#000000;font-weight:400;font-family:sans-serif;overflow:visible;fill:#4d4d4d"
       inkscape:connector-curvature="0"
       id="path2"
       overflow="visible"
       font-weight="400"
       d="M 5.994,10 C 4.736,10.015 3.815,9.97 3.062,10.385 A 1.88,1.88 0 0 0 2.225,11.383 C 2.06,11.82 2,12.343 2,13 v 2 H 3 V 13 C 3,12.408 3.063,11.994 3.16,11.734 3.258,11.474 3.361,11.363 3.545,11.262 3.91,11.06 4.74,11.015 6,11 H 7 V 10 H 5.998 Z M 9,10 v 1 h 1 c 1.258,0.015 2.087,0.06 2.453,0.262 0.183,0.1 0.29,0.212 0.387,0.472 C 12.937,11.994 13,12.408 13,13 v 2 h 1 v -2 c 0,-0.658 -0.06,-1.179 -0.225,-1.617 A 1.88,1.88 0 0 0 12.937,10.385 C 12.185,9.969 11.264,10.015 10.006,10 h -0.004 z m -7,7 v 2 c 0,0.658 0.06,1.179 0.225,1.617 0.164,0.439 0.461,0.79 0.837,0.998 0.753,0.416 1.674,0.37 2.932,0.385 H 7 V 21 H 6 C 4.741,20.985 3.91,20.94 3.545,20.738 3.361,20.638 3.258,20.526 3.16,20.266 3.063,20.006 3,19.592 3,19 v -2 z m 11,0 v 2 c 0,0.592 -0.063,1.006 -0.16,1.266 -0.098,0.26 -0.202,0.371 -0.385,0.472 C 12.089,20.94 11.258,20.985 10,21 H 9 v 1 h 1.006 c 1.258,-0.015 2.179,0.03 2.932,-0.385 a 1.88,1.88 0 0 0 0.837,-0.998 C 13.94,20.179 14,19.657 14,19 v -2 z" />
    <path
       inkscape:connector-curvature="0"
       id="path4"
       style="fill:#4d4d4d"
       d="m 11.5,12.5 v 7 H 4.4999999 v -7 z"
       class="ColorScheme-Text" />
  </g>
</svg>
