<?xml version="1.0" encoding="UTF-8" standalone="no"?>
<svg
   xmlns:dc="http://purl.org/dc/elements/1.1/"
   xmlns:cc="http://creativecommons.org/ns#"
   xmlns:rdf="http://www.w3.org/1999/02/22-rdf-syntax-ns#"
   xmlns:svg="http://www.w3.org/2000/svg"
   xmlns="http://www.w3.org/2000/svg"
   xmlns:sodipodi="http://sodipodi.sourceforge.net/DTD/sodipodi-0.dtd"
   xmlns:inkscape="http://www.inkscape.org/namespaces/inkscape"
   width="24"
   height="24"
   version="1.1"
   id="svg8"
   sodipodi:docname="zoom-original.svg"
   inkscape:version="0.92.3 (2405546, 2018-03-11)">
  <metadata
     id="metadata14">
    <rdf:RDF>
      <cc:Work
         rdf:about="">
        <dc:format>image/svg+xml</dc:format>
        <dc:type
           rdf:resource="http://purl.org/dc/dcmitype/StillImage" />
        <dc:title></dc:title>
      </cc:Work>
    </rdf:RDF>
  </metadata>
  <defs
     id="defs12" />
  <sodipodi:namedview
     pagecolor="#ffffff"
     bordercolor="#666666"
     borderopacity="1"
     objecttolerance="10"
     gridtolerance="10"
     guidetolerance="10"
     inkscape:pageopacity="0"
     inkscape:pageshadow="2"
     inkscape:window-width="640"
     inkscape:window-height="480"
     id="namedview10"
     showgrid="true"
     inkscape:zoom="12.904699"
     inkscape:cx="-7.3488703"
     inkscape:cy="6.562992"
     inkscape:current-layer="svg8">
    <inkscape:grid
       type="xygrid"
       id="grid16" />
  </sodipodi:namedview>
  <g
     style="fill:#4d4d4d"
     id="g6"
     transform="translate(4,4)">
    <path
       d="M 5.994,2 C 4.736,2.015 3.815,1.97 3.062,2.385 A 1.88,1.88 0 0 0 2.225,3.383 C 2.06,3.82 2,4.343 2,5 v 6 c 0,0.658 0.06,1.179 0.225,1.617 0.164,0.439 0.461,0.79 0.837,0.998 0.753,0.416 1.674,0.37 2.932,0.385 h 4.012 c 1.258,-0.015 2.179,0.03 2.932,-0.385 a 1.88,1.88 0 0 0 0.838,-0.998 C 13.94,12.179 14,11.657 14,11 V 5 C 14,4.342 13.94,3.821 13.775,3.383 A 1.88,1.88 0 0 0 12.937,2.385 C 12.185,1.969 11.264,2.015 10.006,2 H 5.998 Z M 6,3 h 4 c 1.259,0.015 2.087,0.06 2.453,0.262 0.184,0.1 0.29,0.212 0.387,0.472 C 12.937,3.994 13,4.408 13,5 v 6 c 0,0.592 -0.063,1.006 -0.16,1.266 -0.098,0.26 -0.202,0.371 -0.385,0.472 C 12.089,12.94 11.258,12.985 10,13 H 6 C 4.741,12.985 3.91,12.94 3.545,12.738 3.361,12.638 3.258,12.526 3.16,12.266 3.063,12.006 3,11.592 3,11 V 5 C 3,4.408 3.063,3.994 3.16,3.734 3.258,3.474 3.361,3.363 3.545,3.262 3.91,3.06 4.74,3.015 6,3 Z"
       font-weight="400"
       overflow="visible"
       style="color:#000000;font-weight:400;font-family:sans-serif;overflow:visible;fill:#4d4d4d"
       id="path2"
       inkscape:connector-curvature="0" />
    <path
       d="M 6.117,6.247 C 6.284,6.177 6.457,6.1 6.637,6.013 6.821,5.921 7,5.823 7.173,5.719 A 8.2,8.2 0 0 0 7.667,5.381 C 7.828,5.26 7.973,5.133 8.1,5 H 9 v 6 H 8 V 6.348 C 7.552,6.695 6.988,6.914 6.506,7.11 Z"
       font-weight="700"
       letter-spacing="0"
       word-spacing="0"
       style="font-weight:700;font-family:Ubuntu;letter-spacing:0;word-spacing:0;text-anchor:middle;fill:#4d4d4d"
       id="path4"
       inkscape:connector-curvature="0" />
  </g>
</svg>
