<svg width="16" height="16.018" version="1.1" xmlns="http://www.w3.org/2000/svg">
<path d="m8.018 1.04c-1.235-1e-3 -2.23 0.23-3.04 0.6a5.32 5.32 0 0 0-0.48 0.239c-0.042 0.025-0.08 0.053-0.121 0.078-0.102 0.062-0.206 0.124-0.303 0.193-0.08 0.058-0.152 0.121-0.226 0.182a4.601 4.601 0 0 0-1.2 1.512c-0.014 0.028-0.033 0.055-0.046 0.084-0.015 0.029-0.024 0.06-0.038 0.09-0.175 0.381-0.32 0.775-0.406 1.185-0.016 0.077-0.018 0.155-0.031 0.233-0.039 0.21-0.07 0.42-0.088 0.625l-4e-3 0.054c-0.02 0.247-0.014 0.472-0.012 0.703 2e-3 0.086-2e-3 0.172 2e-3 0.258 0.012 0.248 0.03 0.469 0.06 0.684 0.02 0.15 0.044 0.297 0.07 0.445 3e-3 0.02 5e-3 0.05 0.01 0.069v2e-3l0.017 0.084c0.026 0.146 0.048 0.294 0.08 0.437l0.094 0.42 6e-3 -2e-3 0.906 4.305 1.01-0.178c0.567-0.1 0.972-0.19 1.16-0.34a0.453 0.453 0 0 0 0.176-0.3c0.028-0.146 0.022-0.358-0.04-0.647l-0.68-3.217c-0.06-0.29-0.141-0.488-0.228-0.615a0.52 0.52 0 0 0-0.295-0.227c-0.242-0.077-0.651-0.02-1.222 0.08l-0.14 0.026c-0.158-0.919-0.188-1.867-9e-3 -2.725 0.212-1.016 0.69-1.897 1.572-2.527 0.87-0.621 2.163-0.935 3.448-0.932 1.284-3e-3 2.576 0.31 3.445 0.932 0.883 0.63 1.362 1.51 1.574 2.527 0.179 0.858 0.148 1.806-0.01 2.725l-0.138-0.026c-0.572-0.1-0.982-0.157-1.225-0.08a0.52 0.52 0 0 0-0.295 0.227c-0.087 0.127-0.165 0.326-0.227 0.615l-0.68 3.217c-0.06 0.29-0.068 0.501-0.04 0.646a0.453 0.453 0 0 0 0.176 0.301c0.187 0.15 0.592 0.24 1.16 0.34l0.015 2e-3 -0.377 1.674-2.398-0.018v-1h-2v1.5s0 0.5 0.5 0.5h1.5l2.799 0.018a0.5 0.5 0 0 0 0.486-0.391l0.477-2.11 8e-3 3e-3 0.906-4.305 8e-3 2e-3 0.094-0.42c0.032-0.143 0.051-0.291 0.078-0.438l0.02-0.084v-2e-3c3e-3 -0.019 5e-3 -0.048 0.01-0.068a9.965 9.965 0 0 0 0.126-1.129c4e-3 -0.086 3e-3 -0.172 4e-3 -0.258 3e-3 -0.231 0.01-0.456-0.011-0.703l-6e-3 -0.054a7.017 7.017 0 0 0-0.088-0.625c-0.014-0.078-0.016-0.156-0.032-0.233a5.555 5.555 0 0 0-0.406-1.185c-0.013-0.03-0.023-0.061-0.037-0.09s-0.033-0.056-0.047-0.084a4.601 4.601 0 0 0-1.199-1.512c-0.075-0.061-0.147-0.125-0.227-0.182a4.755 4.755 0 0 0-0.3-0.193c-0.041-0.025-0.08-0.054-0.121-0.078a5.346 5.346 0 0 0-0.483-0.238c-0.808-0.371-1.804-0.602-3.039-0.602z" fill="#808080" style="isolation:auto;text-decoration-color:#000;text-decoration-line:none;text-decoration-style:solid;text-indent:0;text-transform:none"/>
</svg>
