<svg width="16" height="16" version="1.1" xmlns="http://www.w3.org/2000/svg">
<path d="m8 0c-1.437 0-2.595 0.268-3.537 0.7-0.193 0.084-0.38 0.176-0.56 0.279-0.05 0.028-0.094 0.06-0.141 0.09-0.12 0.072-0.24 0.143-0.352 0.224-0.093 0.066-0.177 0.14-0.264 0.21a5.355 5.355 0 0 0-1.394 1.76c-0.017 0.034-0.039 0.065-0.055 0.098-0.016 0.034-0.027 0.07-0.043 0.104a6.461 6.461 0 0 0-0.472 1.379c-0.019 0.089-0.022 0.181-0.038 0.271-0.045 0.246-0.08 0.488-0.101 0.727l-6e-3 0.064c-0.024 0.288-0.017 0.55-0.014 0.819 2e-3 0.1 0 0.199 4e-3 0.298 0.013 0.288 0.035 0.545 0.07 0.795 0.022 0.175 0.05 0.347 0.079 0.52 5e-3 0.023 7e-3 0.056 0.011 0.078v2e-3l0.022 0.098c0.03 0.17 0.054 0.343 0.092 0.51l0.109 0.488 8e-3 -2e-3 1.055 5.007 1.174-0.207c0.66-0.117 1.13-0.22 1.35-0.394a0.531 0.531 0 0 0 0.204-0.352c0.033-0.169 0.024-0.415-0.047-0.752l-0.79-3.74c-0.072-0.336-0.164-0.568-0.264-0.717a0.605 0.605 0 0 0-0.344-0.263c-0.283-0.09-0.76-0.024-1.424 0.093l-0.162 0.03c-0.182-1.069-0.218-2.172-0.01-3.17 0.247-1.183 0.803-2.206 1.83-2.94 1.011-0.722 2.515-1.087 4.01-1.084 1.494-3e-3 2.998 0.362 4.01 1.084 1.027 0.734 1.583 1.757 1.83 2.94 0.208 0.998 0.172 2.101-0.01 3.17l-0.162-0.03c-0.665-0.117-1.142-0.184-1.424-0.093a0.606 0.606 0 0 0-0.344 0.263c-0.1 0.149-0.193 0.38-0.264 0.717l-0.79 3.74c-0.072 0.337-0.08 0.583-0.048 0.752a0.532 0.532 0 0 0 0.205 0.352c0.219 0.175 0.69 0.277 1.35 0.394l1.174 0.207 1.055-5.007 8e-3 2e-3 0.109-0.489c0.038-0.166 0.06-0.34 0.092-0.51l0.021-0.097v-2e-3c5e-3 -0.022 7e-3 -0.055 0.012-0.078 0.029-0.173 0.057-0.345 0.078-0.52 0.036-0.25 0.057-0.507 0.07-0.795 5e-3 -0.1 2e-3 -0.198 4e-3 -0.298 3e-3 -0.27 0.01-0.531-0.013-0.819l-6e-3 -0.064a8.142 8.142 0 0 0-0.102-0.727c-0.015-0.09-0.018-0.182-0.037-0.271a6.462 6.462 0 0 0-0.473-1.38c-0.015-0.033-0.026-0.069-0.043-0.103-0.016-0.033-0.038-0.064-0.054-0.097a5.355 5.355 0 0 0-1.395-1.76c-0.087-0.07-0.17-0.145-0.264-0.211-0.112-0.08-0.232-0.152-0.351-0.225l-0.14-0.09a6.228 6.228 0 0 0-0.562-0.278c-0.941-0.432-2.099-0.7-3.536-0.7z" fill="#808080" style="isolation:auto;text-decoration-color:#000;text-decoration-line:none;text-decoration-style:solid;text-indent:0;text-transform:none"/>
</svg>
