<svg width="16" height="16.021" version="1.1" xmlns="http://www.w3.org/2000/svg">
<g fill="#808080">
<path d="m7.5 0c-1.412 0-2.5 0.844-2.5 2.542v5.934c0 1.699 1.088 2.545 2.5 2.545s2.5-0.849 2.5-2.545v-5.933c0-1.696-1.088-2.543-2.5-2.543zm0 1c0.506 0 0.86 0.141 1.092 0.36 0.232 0.22 0.408 0.548 0.408 1.182v5.934c0 0.634-0.176 0.962-0.408 1.182-0.233 0.22-0.586 0.363-1.092 0.363s-0.86-0.142-1.092-0.361c-0.232-0.22-0.408-0.548-0.408-1.184v-5.933c0-0.636 0.176-0.963 0.408-1.182 0.232-0.22 0.586-0.361 1.092-0.361z" color="#000000" overflow="visible"/>
<rect x="7" y="11.521" width="1" height="4" color="#000000" overflow="visible"/>
<path d="m7.5 15.021c-0.833 0-1.668 0.159-2.5 0.458v0.542h5v-0.542c-0.833-0.293-1.667-0.458-2.5-0.458z" font-size="15" font-weight="400" letter-spacing="0" word-spacing="0"/>
<path d="m3 7.021v1.5a4.49 4.49 0 0 0 4.5 4.5 4.49 4.49 0 0 0 4.5-4.5v-1.5h-1v1.5c0 1.939-1.561 3.5-3.5 3.5a3.492 3.492 0 0 1-3.5-3.5v-1.5z"/>
</g>
</svg>
