<svg width="16" height="16" version="1.1" xmlns="http://www.w3.org/2000/svg">
<path d="m10.793 4.02a1.379 1.379 0 0 0-0.205 7e-3l-3.604 0.563c-0.407 0.041-0.451 0.231-0.448 0.468v4.76a1.257 1.257 0 0 0-0.722-0.233c-0.38 0-0.607 0.146-0.744 0.337a1.09 1.09 0 0 0-0.182 0.62c0 0.224 0.077 0.464 0.244 0.647 0.167 0.182 0.423 0.311 0.791 0.311 0.416 0 0.708-0.116 0.873-0.343 0.13-0.178 0.203-0.417 0.229-0.712 4e-3 -0.035 6e-3 -0.072 8e-3 -0.11 2e-3 -0.03 2e-3 -0.05 2e-3 -0.086h2e-3v-3.851c0.01-0.31 0.292-0.356 0.292-0.356l2.926-0.457c0.281-0.086 0.282 0.262 0.282 0.262v3.47a1.257 1.257 0 0 0-0.723-0.232c-0.38 0-0.606 0.146-0.743 0.337a1.09 1.09 0 0 0-0.183 0.62c0 0.224 0.078 0.464 0.244 0.647 0.167 0.183 0.423 0.311 0.791 0.311 0.416 0 0.708-0.116 0.873-0.343 0.13-0.178 0.203-0.417 0.229-0.712 4e-3 -0.035 6e-3 -0.072 8e-3 -0.11 2e-3 -0.03 2e-3 -0.05 2e-3 -0.086h2e-3v-5.284c6e-3 -0.343-0.07-0.433-0.243-0.445z" color="#000000" fill="#808080" fill-rule="evenodd" overflow="visible" style="font-feature-settings:normal;font-variant-alternates:normal;font-variant-caps:normal;font-variant-ligatures:normal;font-variant-numeric:normal;font-variant-position:normal;isolation:auto;mix-blend-mode:normal;shape-padding:0;text-decoration-color:#000000;text-decoration-line:none;text-decoration-style:solid;text-indent:0;text-orientation:mixed;text-transform:none;white-space:normal"/>
<path d="m4.994 1c-1.258 0.015-2.179-0.03-2.931 0.385a1.88 1.88 0 0 0-0.84 0.998c-0.163 0.439-0.223 0.96-0.223 1.617v8c0 0.657 0.06 1.178 0.224 1.617s0.462 0.79 0.839 0.997c0.752 0.415 1.673 0.371 2.931 0.386h6.012c1.258-0.015 2.178 0.03 2.931-0.386 0.377-0.208 0.675-0.558 0.84-0.997 0.164-0.439 0.223-0.96 0.223-1.617v-8c0-0.658-0.06-1.178-0.224-1.617a1.88 1.88 0 0 0-0.839-0.998c-0.753-0.415-1.673-0.37-2.931-0.385h-6.009zm0.011 1h5.995c1.26 0.014 2.088 0.059 2.454 0.261 0.183 0.101 0.288 0.213 0.385 0.473 0.098 0.26 0.16 0.673 0.16 1.266v8c0 0.592-0.062 1.005-0.16 1.265-0.097 0.26-0.202 0.372-0.385 0.474-0.366 0.202-1.195 0.246-2.454 0.26h-6c-1.26-0.014-2.088-0.058-2.454-0.26-0.183-0.102-0.288-0.214-0.385-0.474-0.098-0.26-0.161-0.673-0.161-1.265v-8c0-0.593 0.062-1.006 0.16-1.266 0.097-0.26 0.202-0.372 0.385-0.473 0.367-0.202 1.196-0.247 2.46-0.261z" color="#000000" fill="#808080" overflow="visible" style="font-feature-settings:normal;font-variant-alternates:normal;font-variant-caps:normal;font-variant-ligatures:normal;font-variant-numeric:normal;font-variant-position:normal;isolation:auto;mix-blend-mode:normal;shape-padding:0;text-decoration-color:#000000;text-decoration-line:none;text-decoration-style:solid;text-indent:0;text-orientation:mixed;text-transform:none;white-space:normal"/>
</svg>
