<svg width="16" height="16" version="1.1" xmlns="http://www.w3.org/2000/svg">
<path d="m3 3c-0.658 0-1.1782 0.059609-1.6172 0.22461a1.88 1.88 0 0 0-0.99805 0.83789c-0.415 0.752-0.36977 1.6736-0.38477 2.9316v2.0117c0.015 1.258-0.030234 2.1786 0.38477 2.9316 0.208 0.376 0.56005 0.67289 0.99805 0.83789 0.439 0.164 0.96019 0.22461 1.6172 0.22461h6c0.658 0 1.1792-0.059609 1.6172-0.22461a1.88 1.88 0 0 0 0.99805-0.83789c0.416-0.753 0.36977-1.6736 0.38477-2.9316v-2.0117c-0.014-1.258 0.030234-2.1786-0.38477-2.9316a1.88 1.88 0 0 0-0.99805-0.83789c-0.437-0.164-0.96019-0.22461-1.6172-0.22461h-6zm0 1h6c0.592 0 1.0056 0.063156 1.2656 0.16016 0.26 0.098 0.37166 0.20177 0.47266 0.38477 0.202 0.366 0.24672 1.1971 0.26172 2.4551v1.9941c-0.015 1.264-0.059719 2.091-0.26172 2.459-0.1 0.183-0.21266 0.28872-0.47266 0.38672-0.26 0.097-0.67362 0.16016-1.2656 0.16016h-6c-0.592 0-1.0056-0.063156-1.2656-0.16016-0.26-0.098-0.37166-0.20272-0.47266-0.38672-0.202-0.366-0.24672-1.1931-0.26172-2.4531v-2c0.015-1.258 0.059719-2.0901 0.26172-2.4551 0.101-0.183 0.21366-0.28677 0.47266-0.38477 0.26-0.097 0.67362-0.16016 1.2656-0.16016z" color="#000000" fill="#808080" style="font-feature-settings:normal;font-variant-alternates:normal;font-variant-caps:normal;font-variant-ligatures:normal;font-variant-numeric:normal;font-variant-position:normal;isolation:auto;mix-blend-mode:normal;shape-padding:0;text-decoration-color:#000000;text-decoration-line:none;text-decoration-style:solid;text-indent:0;text-orientation:mixed;text-transform:none;white-space:normal"/>
<path d="m16 4.719c-1.24 0.587-2.981 1.541-5 2.71v1.143c1.993 1.158 3.733 2.11 5 2.71z" color="#000000" fill="#808080"/>
</svg>
