<svg width="16" height="16" version="1.1" xmlns="http://www.w3.org/2000/svg">
<path d="m4.9941 0c-1.258 0.015-2.1796-0.030234-2.9316 0.38477a1.88 1.88 0 0 0-0.83789 0.99805c-0.165 0.439-0.22461 0.96019-0.22461 1.6172v10c0 0.658 0.059609 1.1792 0.22461 1.6172 0.164 0.439 0.46089 0.79005 0.83789 0.99805 0.752 0.416 1.6736 0.36977 2.9316 0.38477h5.0117c1.258-0.014 2.1786 0.030234 2.9316-0.38477a1.88 1.88 0 0 0 0.83789-0.99805c0.164-0.438 0.22461-0.96019 0.22461-1.6172v-10c0-0.658-0.059609-1.1782-0.22461-1.6172a1.88 1.88 0 0 0-0.83789-0.99805c-0.753-0.415-1.6736-0.36977-2.9316-0.38477h-5.0078-0.0039063zm0.0058594 1h5c1.259 0.015 2.0871 0.059719 2.4531 0.26172 0.184 0.101 0.28972 0.21366 0.38672 0.47266 0.097 0.26 0.16016 0.67362 0.16016 1.2656v10c0 0.592-0.063156 1.0056-0.16016 1.2656-0.098 0.26-0.20272 0.37166-0.38672 0.47266-0.366 0.202-1.1941 0.24672-2.4531 0.26172h-5c-1.258-0.015-2.0901-0.059719-2.4551-0.26172-0.183-0.1-0.28677-0.21266-0.38477-0.47266-0.097-0.26-0.16016-0.67362-0.16016-1.2656v-10c0-0.592 0.063156-1.0056 0.16016-1.2656 0.098-0.26 0.20177-0.37166 0.38477-0.47266 0.365-0.202 1.1951-0.24672 2.4551-0.26172z" color="#000000" fill="#808080" style="font-feature-settings:normal;font-variant-alternates:normal;font-variant-caps:normal;font-variant-ligatures:normal;font-variant-numeric:normal;font-variant-position:normal;isolation:auto;mix-blend-mode:normal;shape-padding:0;text-decoration-color:#000000;text-decoration-line:none;text-decoration-style:solid;text-indent:0;text-orientation:mixed;text-transform:none;white-space:normal"/>
<path d="m7 3-1 2h1v4.486a8.723 8.723 0 0 0-0.775-0.433c-0.375-0.188-0.722-0.369-0.936-0.547s-0.289-0.298-0.289-0.506a1 1 0 0 0 1-1 1 1 0 0 0-1-1 1 1 0 0 0-1 1v1c0 0.542 0.3 0.985 0.648 1.275 0.349 0.29 0.754 0.485 1.13 0.672 0.374 0.188 0.719 0.369 0.933 0.547 0.214 0.179 0.289 0.298 0.289 0.506-0.277 0-0.5 0.223-0.5 0.5v1c0 0.277 0.223 0.5 0.5 0.5h1c0.277 0 0.5-0.223 0.5-0.5v-1c0-0.277-0.223-0.5-0.5-0.5v-1c0-0.208 0.075-0.327 0.29-0.506 0.213-0.178 0.56-0.36 0.935-0.547s0.778-0.381 1.127-0.672c0.348-0.29 0.648-0.733 0.648-1.275v-1.5c0-0.277-0.223-0.5-0.5-0.5h-1c-0.277 0-0.5 0.223-0.5 0.5v1c0 0.277 0.223 0.5 0.5 0.5h0.5c0 0.208-0.075 0.328-0.289 0.506s-0.559 0.36-0.934 0.547c-0.256 0.128-0.52 0.27-0.777 0.433v-3.486h1l-1-2z" fill="#808080"/>
</svg>
