<svg width="16" height="16" version="1.1" xmlns="http://www.w3.org/2000/svg">
<g fill="#808080">
<path d="m6.9941 2c-1.258 0.015-2.1796-0.030234-2.9316 0.38477a1.88 1.88 0 0 0-0.83789 0.99805c-0.165 0.439-0.22461 0.96019-0.22461 1.6172v8c0 0.658 0.059609 1.1792 0.22461 1.6172 0.164 0.439 0.46089 0.79005 0.83789 0.99805 0.752 0.416 1.6736 0.36977 2.9316 0.38477h5.0117c1.258-0.014 2.1786 0.030234 2.9316-0.38477a1.88 1.88 0 0 0 0.83789-0.99805c0.164-0.438 0.22461-0.96019 0.22461-1.6172v-8c0-0.658-0.059609-1.1782-0.22461-1.6172a1.88 1.88 0 0 0-0.83789-0.99805c-0.753-0.416-1.6736-0.36977-2.9316-0.38477h-5.0078-0.0039063zm0.0058594 1h5c1.259 0.015 2.0871 0.059719 2.4531 0.26172 0.184 0.101 0.28972 0.21366 0.38672 0.47266 0.097 0.26 0.16016 0.67362 0.16016 1.2656v8c0 0.592-0.063156 1.0056-0.16016 1.2656-0.098 0.26-0.20272 0.37166-0.38672 0.47266-0.366 0.202-1.1941 0.24672-2.4531 0.26172h-5c-1.258-0.015-2.0901-0.059719-2.4551-0.26172-0.183-0.1-0.28677-0.21266-0.38477-0.47266-0.097-0.26-0.16016-0.67362-0.16016-1.2656v-8c0-0.592 0.063156-1.0056 0.16016-1.2656 0.098-0.26 0.20177-0.37166 0.38477-0.47266 0.365-0.202 1.1951-0.24672 2.4551-0.26172z" color="#000000" style="font-feature-settings:normal;font-variant-alternates:normal;font-variant-caps:normal;font-variant-ligatures:normal;font-variant-numeric:normal;font-variant-position:normal;isolation:auto;mix-blend-mode:normal;shape-padding:0;text-decoration-color:#000000;text-decoration-line:none;text-decoration-style:solid;text-indent:0;text-orientation:mixed;text-transform:none;white-space:normal"/>
<path d="m9.795 5.012a4.487 4.487 0 0 0-3.033 0.918 4.506 4.506 0 0 0-1.16 5.82 4.508 4.508 0 0 0 5.62 1.908 4.51 4.51 0 0 0 2.628-5.324l-0.131-0.482-0.967 0.26 0.13 0.482a3.494 3.494 0 0 1-2.042 4.138 3.494 3.494 0 0 1-4.371-1.482 3.494 3.494 0 0 1 5.12-4.547l-0.644 0.645 0.707 0.707 0.676-0.676h2e-3l0.354-0.355 0.353-0.352-0.353-0.354a4.494 4.494 0 0 0-2.889-1.306z" color="#000000" style="font-feature-settings:normal;font-variant-alternates:normal;font-variant-caps:normal;font-variant-ligatures:normal;font-variant-numeric:normal;font-variant-position:normal;isolation:auto;mix-blend-mode:normal;shape-padding:0;text-decoration-color:#000000;text-decoration-line:none;text-decoration-style:solid;text-indent:0;text-orientation:mixed;text-transform:none;white-space:normal"/>
<path d="m9.5 8a1.5 1.5 0 0 0-1.5 1.5 1.5 1.5 0 0 0 1.5 1.5 1.5 1.5 0 0 0 1.5-1.5 1.5 1.5 0 0 0-1.5-1.5zm0 1a0.5 0.5 0 0 1 0.5 0.5 0.5 0.5 0 0 1-0.5 0.5 0.5 0.5 0 0 1-0.5-0.5 0.5 0.5 0 0 1 0.5-0.5z"/>
<path d="M 4.994,0 C 3.736,0.015 2.815,-0.03 2.063,0.385 A 1.88,1.88 0 0 0 1.225,1.383 C 1.06,1.822 1,2.343 1,3 v 9 H 2 V 3 C 2,2.408 2.063,1.994 2.16,1.734 2.258,1.474 2.362,1.363 2.545,1.262 2.911,1.06 3.741,1.015 5,1 h 7 V 0 H 4.998 Z" color="#000000" style="font-feature-settings:normal;font-variant-alternates:normal;font-variant-caps:normal;font-variant-ligatures:normal;font-variant-numeric:normal;font-variant-position:normal;isolation:auto;mix-blend-mode:normal;shape-padding:0;text-decoration-color:#000000;text-decoration-line:none;text-decoration-style:solid;text-indent:0;text-orientation:mixed;text-transform:none;white-space:normal"/>
</g>
</svg>
