<svg width="16" height="16" version="1.1" xmlns="http://www.w3.org/2000/svg">
<g fill="#808080">
<path d="m7 2v0.5h1v-0.5z" style="font-feature-settings:normal;font-variant-alternates:normal;font-variant-caps:normal;font-variant-ligatures:normal;font-variant-numeric:normal;font-variant-position:normal;isolation:auto;mix-blend-mode:normal;shape-padding:0;text-decoration-color:#000;text-decoration-line:none;text-decoration-style:solid;text-indent:0;text-orientation:mixed;text-transform:none"/>
<path d="m7 3v0.5h1v-0.5z" style="font-feature-settings:normal;font-variant-alternates:normal;font-variant-caps:normal;font-variant-ligatures:normal;font-variant-numeric:normal;font-variant-position:normal;isolation:auto;mix-blend-mode:normal;shape-padding:0;text-decoration-color:#000;text-decoration-line:none;text-decoration-style:solid;text-indent:0;text-orientation:mixed;text-transform:none"/>
<path d="m7 4v3h-3.5a0.494 0.494 0 0 0-0.099609 0.0078125 3.5 3.5 0 0 0-3.2812 2.5859 3.505 3.505 0 0 0 1.6309 3.9375 3.502 3.502 0 0 0 4.1953-0.5293h3.1094a3.502 3.502 0 0 0 4.1953 0.5293 3.505 3.505 0 0 0 1.6309-3.9375 3.5 3.5 0 0 0-3.2871-2.5859 0.477 0.477 0 0 0-0.09375-0.0078125h-3.5v-3h-1zm-3.5312 4a2.495 2.495 0 0 1 0.03125 0h8c1.134 0 2.123 0.75752 2.416 1.8535a2.497 2.497 0 0 1-1.166 2.8125 2.489 2.489 0 0 1-2.877-0.2793c-0.13-0.129-0.25914-0.39072-0.49414-0.38672h-3.7598c-0.234-3e-3 -0.39223 0.26777-0.49023 0.38477-0.8 0.693-1.9519 0.81725-2.8809 0.28125a2.496 2.496 0 0 1-1.1621-2.8125 2.495 2.495 0 0 1 2.3828-1.8535z" style="font-feature-settings:normal;font-variant-alternates:normal;font-variant-caps:normal;font-variant-ligatures:normal;font-variant-numeric:normal;font-variant-position:normal;isolation:auto;mix-blend-mode:normal;shape-padding:0;text-decoration-color:#000;text-decoration-line:none;text-decoration-style:solid;text-indent:0;text-orientation:mixed;text-transform:none"/>
<path d="m3 9v1h-1v1h1v1h1v-1h1v-1h-1v-1z" style="font-feature-settings:normal;font-variant-alternates:normal;font-variant-caps:normal;font-variant-ligatures:normal;font-variant-numeric:normal;font-variant-position:normal;isolation:auto;mix-blend-mode:normal;shape-padding:0;text-decoration-color:#000;text-decoration-line:none;text-decoration-style:solid;text-indent:0;text-orientation:mixed;text-transform:none"/>
<path d="m11.5 9a0.5 0.5 0 1 0 0 1 0.5 0.5 0 0 0 0-1z" style="font-feature-settings:normal;font-variant-alternates:normal;font-variant-caps:normal;font-variant-ligatures:normal;font-variant-numeric:normal;font-variant-position:normal;isolation:auto;mix-blend-mode:normal;shape-padding:0;text-decoration-color:#000;text-decoration-line:none;text-decoration-style:solid;text-indent:0;text-orientation:mixed;text-transform:none"/>
<path d="m10.5 10a0.5 0.5 0 1 0 0 1 0.5 0.5 0 0 0 0-1z" style="font-feature-settings:normal;font-variant-alternates:normal;font-variant-caps:normal;font-variant-ligatures:normal;font-variant-numeric:normal;font-variant-position:normal;isolation:auto;mix-blend-mode:normal;shape-padding:0;text-decoration-color:#000;text-decoration-line:none;text-decoration-style:solid;text-indent:0;text-orientation:mixed;text-transform:none"/>
<path d="m12.5 10a0.5 0.5 0 1 0 0 1 0.5 0.5 0 0 0 0-1z" style="font-feature-settings:normal;font-variant-alternates:normal;font-variant-caps:normal;font-variant-ligatures:normal;font-variant-numeric:normal;font-variant-position:normal;isolation:auto;mix-blend-mode:normal;shape-padding:0;text-decoration-color:#000;text-decoration-line:none;text-decoration-style:solid;text-indent:0;text-orientation:mixed;text-transform:none"/>
<path d="m11.5 11a0.5 0.5 0 1 0 0 1 0.5 0.5 0 0 0 0-1z" style="font-feature-settings:normal;font-variant-alternates:normal;font-variant-caps:normal;font-variant-ligatures:normal;font-variant-numeric:normal;font-variant-position:normal;isolation:auto;mix-blend-mode:normal;shape-padding:0;text-decoration-color:#000;text-decoration-line:none;text-decoration-style:solid;text-indent:0;text-orientation:mixed;text-transform:none"/>
</g>
</svg>
