<svg width="16" height="16" version="1.1" xmlns="http://www.w3.org/2000/svg">
<path d="m3.994 1c-1.258 0.015-2.179-0.03-2.931 0.385a1.88 1.88 0 0 0-0.838 0.998c-0.165 0.439-0.225 0.96-0.225 1.617v8c0 0.658 0.06 1.179 0.225 1.617 0.164 0.439 0.461 0.79 0.838 0.998 0.752 0.416 1.673 0.37 2.931 0.385h8.012c1.258-0.014 2.179 0.03 2.932-0.385a1.88 1.88 0 0 0 0.838-0.998c0.164-0.438 0.224-0.96 0.224-1.617v-8c0-0.658-0.06-1.178-0.225-1.617-5e-3 -0.013-0.012-0.023-0.017-0.035l-0.82 0.806c0.037 0.23 0.062 0.499 0.062 0.846v8c0 0.592-0.063 1.006-0.16 1.266-0.098 0.26-0.203 0.371-0.387 0.472-0.366 0.202-1.194 0.247-2.453 0.262h-8c-1.259-0.015-2.09-0.06-2.455-0.262-0.183-0.1-0.287-0.212-0.385-0.472-0.097-0.26-0.16-0.674-0.16-1.266v-8c0-0.592 0.063-1.006 0.16-1.266 0.098-0.26 0.202-0.371 0.385-0.472 0.365-0.202 1.195-0.247 2.455-0.262h3.852l0.982-1h-4.836z" color="#000000" fill="#808080" overflow="visible" style="font-feature-settings:normal;font-variant-alternates:normal;font-variant-caps:normal;font-variant-ligatures:normal;font-variant-numeric:normal;font-variant-position:normal;isolation:auto;mix-blend-mode:normal;shape-padding:0;text-decoration-color:#000000;text-decoration-line:none;text-decoration-style:solid;text-indent:0;text-orientation:mixed;text-transform:none;white-space:normal"/>
<path d="m11.238 0-0.353 0.36-6.969 7.095-0.03 0.045c-0.061 0.099-0.27 0.45-0.583 1.088-0.314 0.638-0.7 1.51-1.012 2.492l-0.291 0.92 0.92-0.291a18.163 18.163 0 0 0 2.492-1.012c0.638-0.313 0.987-0.52 1.088-0.584l0.045-0.029 7.455-7.322zm-6.347 7.89 1.218 1.22-0.177 0.175c7e-3 -5e-3 -0.379 0.227-0.961 0.514-0.214 0.105-0.536 0.222-0.834 0.338l-0.274-0.274c0.116-0.298 0.233-0.62 0.338-0.834 0.287-0.582 0.518-0.966 0.514-0.96zm-0.891 4.11v1h10v-6h-1v5z" fill="#808080" font-size="15" letter-spacing="0" word-spacing="0"/>
</svg>
