<svg width="16" height="16" version="1.1" xmlns="http://www.w3.org/2000/svg">
<path d="m7.4395 1c-1.295 0-2.5897 0.22788-3.8047 0.67188l-0.17188 0.0625-1.0898 5.4473c-0.186 0.927-0.37005 1.8832-0.37305 2.8672-3e-3 0.985 0.17928 1.9847 0.61328 2.8887a5.455 5.455 0 0 0 1.9668 2.2324 5.344 5.344 0 0 0 5.7187 0 5.45 5.45 0 0 0 1.9648-2.2324c0.434-0.904 0.61628-1.9027 0.61328-2.8887-3e-3 -0.983-0.18509-1.9402-0.37109-2.8672l-1.0918-5.4473-0.17187-0.0625a11.12 11.12 0 0 0-3.8027-0.67188zm-0.43945 1.0215v2.9785h1v-2.9727c0.87 0.062 1.7276 0.25244 2.5586 0.52344l0.9668 4.8281c0.185 0.922 0.34956 1.8099 0.35156 2.6719 3e-3 0.86-0.15667 1.7111-0.51367 2.4531a4.47 4.47 0 0 1-1.6035 1.8223 4.353 4.353 0 0 1-2.3203 0.67383 4.36 4.36 0 0 1-2.3223-0.67383 4.47 4.47 0 0 1-1.6035-1.8223c-0.357-0.742-0.51667-1.5931-0.51367-2.4531 3e-3 -0.862 0.16852-1.7499 0.35352-2.6719l0.9668-4.8281c0.87-0.283 1.7697-0.4773 2.6797-0.5293z" fill="#808080" style="font-feature-settings:normal;font-variant-alternates:normal;font-variant-caps:normal;font-variant-ligatures:normal;font-variant-numeric:normal;font-variant-position:normal;isolation:auto;mix-blend-mode:normal;shape-padding:0;text-decoration-color:#000;text-decoration-line:none;text-decoration-style:solid;text-indent:0;text-orientation:mixed;text-transform:none"/>
</svg>
