<svg width="16" height="16" version="1.1" xmlns="http://www.w3.org/2000/svg">
<g fill="#808080">
<path d="m1.873 1.0098c-0.12025 0.006625-0.24177 0.027484-0.38477 0.083984a0.801 0.801 0 0 0-0.39062 0.3457 0.93 0.93 0 0 0-0.097656 0.45312v2.2246a0.93 0.93 0 0 0 0.097656 0.45312c0.083 0.16 0.24863 0.2897 0.39062 0.3457 0.286 0.113 0.48981 0.081984 0.75781 0.083984h1.5078c0.268-2e-3 0.47181 0.029016 0.75781-0.083984a0.801 0.801 0 0 0 0.39062-0.3457 0.93 0.93 0 0 0 0.097656-0.45312v-2.2246a0.93 0.93 0 0 0-0.097656-0.45312 0.801 0.801 0 0 0-0.39062-0.3457c-0.286-0.113-0.48981-0.081984-0.75781-0.083984h-1.5059-0.0019531c-0.134 1e-3 -0.2528-0.006625-0.37305 0zm0.37695 1h1.5c0.17 2e-3 0.19 0.0028125 0.25 0.0078125v1.9746c-0.06 4e-3 -0.08 0.0058125-0.25 0.0078125h-1.5a2.88 2.88 0 0 1-0.25-0.0078125v-1.9746c0.06-4e-3 0.08-0.0058125 0.25-0.0078125z" color="#000000" style="font-feature-settings:normal;font-variant-alternates:normal;font-variant-caps:normal;font-variant-ligatures:normal;font-variant-numeric:normal;font-variant-position:normal;isolation:auto;mix-blend-mode:normal;shape-padding:0;text-decoration-color:#000000;text-decoration-line:none;text-decoration-style:solid;text-indent:0;text-orientation:mixed;text-transform:none;white-space:normal"/>
<path d="m6.8738 1.0098c-0.12025 0.006625-0.24177 0.027484-0.38477 0.083984a0.801 0.801 0 0 0-0.39062 0.3457 0.93 0.93 0 0 0-0.097656 0.45312v2.2246a0.93 0.93 0 0 0 0.097656 0.45312c0.083 0.16 0.24863 0.2897 0.39062 0.3457 0.286 0.113 0.48981 0.081984 0.75781 0.083984h1.5078c0.268-2e-3 0.47181 0.029016 0.75781-0.083984a0.801 0.801 0 0 0 0.39062-0.3457 0.93 0.93 0 0 0 0.097656-0.45312v-2.2246a0.93 0.93 0 0 0-0.097656-0.45312 0.801 0.801 0 0 0-0.39062-0.3457c-0.286-0.113-0.48981-0.081984-0.75781-0.083984h-1.5059-0.00195c-0.134 1e-3 -0.2528-0.00662-0.37305 0zm0.37695 1h1.5c0.17 2e-3 0.19 0.00281 0.25 0.00781v1.9746c-0.06 4e-3 -0.08 0.00581-0.25 0.00781h-1.5a2.88 2.88 0 0 1-0.25-0.00781v-1.9746c0.06-4e-3 0.08-0.00581 0.25-0.00781z" color="#000000" style="font-feature-settings:normal;font-variant-alternates:normal;font-variant-caps:normal;font-variant-ligatures:normal;font-variant-numeric:normal;font-variant-position:normal;isolation:auto;mix-blend-mode:normal;shape-padding:0;text-decoration-color:#000000;text-decoration-line:none;text-decoration-style:solid;text-indent:0;text-orientation:mixed;text-transform:none;white-space:normal"/>
<path d="m11.873 1.0098c-0.12025 0.00663-0.24177 0.027484-0.38477 0.083984a0.801 0.801 0 0 0-0.39062 0.3457 0.93 0.93 0 0 0-0.097656 0.45312v2.2246a0.93 0.93 0 0 0 0.09766 0.45312c0.083 0.16 0.24862 0.2897 0.39062 0.3457 0.286 0.113 0.48981 0.081984 0.75781 0.083984h1.5078c0.268-2e-3 0.47181 0.029016 0.75781-0.083984a0.801 0.801 0 0 0 0.39062-0.3457 0.93 0.93 0 0 0 0.097656-0.45312v-2.2246a0.93 0.93 0 0 0-0.097656-0.45312 0.801 0.801 0 0 0-0.39062-0.3457c-0.286-0.113-0.48981-0.081984-0.75781-0.083984h-1.5059-0.0019c-0.134 1e-3 -0.2528-0.00662-0.37305 0zm0.37695 1h1.5c0.17 2e-3 0.19 0.00281 0.25 0.00781v1.9746c-0.06 4e-3 -0.08 0.0058125-0.25 0.0078125h-1.5a2.88 2.88 0 0 1-0.25-0.0078125v-1.9746c0.06-4e-3 0.08-0.00581 0.25-0.00781z" color="#000000" style="font-feature-settings:normal;font-variant-alternates:normal;font-variant-caps:normal;font-variant-ligatures:normal;font-variant-numeric:normal;font-variant-position:normal;isolation:auto;mix-blend-mode:normal;shape-padding:0;text-decoration-color:#000000;text-decoration-line:none;text-decoration-style:solid;text-indent:0;text-orientation:mixed;text-transform:none;white-space:normal"/>
<path d="m1.873 6.0073c-0.12025 0.00662-0.24177 0.027484-0.38477 0.083984a0.801 0.801 0 0 0-0.39062 0.3457 0.93 0.93 0 0 0-0.097656 0.45312v2.2246a0.93 0.93 0 0 0 0.097656 0.45312c0.083 0.16 0.24863 0.2897 0.39062 0.3457 0.286 0.113 0.48981 0.081984 0.75781 0.083984h1.5078c0.268-2e-3 0.47181 0.029016 0.75781-0.083984a0.801 0.801 0 0 0 0.39062-0.3457 0.93 0.93 0 0 0 0.097656-0.45312v-2.2246a0.93 0.93 0 0 0-0.097656-0.45312 0.801 0.801 0 0 0-0.39062-0.3457c-0.286-0.113-0.48981-0.081984-0.75781-0.083984h-1.5059-0.00195c-0.134 1e-3 -0.2528-0.00663-0.37305 0zm0.37695 1h1.5c0.17 2e-3 0.19 0.00281 0.25 0.00781v1.9746c-0.06 4e-3 -0.08 0.00581-0.25 0.00781h-1.5a2.88 2.88 0 0 1-0.25-0.00781v-1.9746c0.06-4e-3 0.08-0.00581 0.25-0.00781z" color="#000000" style="font-feature-settings:normal;font-variant-alternates:normal;font-variant-caps:normal;font-variant-ligatures:normal;font-variant-numeric:normal;font-variant-position:normal;isolation:auto;mix-blend-mode:normal;shape-padding:0;text-decoration-color:#000000;text-decoration-line:none;text-decoration-style:solid;text-indent:0;text-orientation:mixed;text-transform:none;white-space:normal"/>
<path d="m6.8738 6.0073c-0.12025 0.00662-0.24177 0.027484-0.38477 0.083984a0.801 0.801 0 0 0-0.39062 0.3457 0.93 0.93 0 0 0-0.097656 0.45312v2.2246a0.93 0.93 0 0 0 0.097656 0.45312c0.083 0.16 0.24863 0.2897 0.39062 0.3457 0.286 0.113 0.48981 0.081984 0.75781 0.083984h1.5078c0.268-2e-3 0.47181 0.029016 0.75781-0.083984a0.801 0.801 0 0 0 0.39062-0.3457 0.93 0.93 0 0 0 0.097656-0.45312v-2.2246a0.93 0.93 0 0 0-0.097656-0.45312 0.801 0.801 0 0 0-0.39062-0.3457c-0.286-0.113-0.48981-0.081984-0.75781-0.083984h-1.5059-0.00195c-0.134 1e-3 -0.2528-0.00662-0.37305 0zm0.37695 1h1.5c0.17 2e-3 0.19 0.00281 0.25 0.00781v1.9746c-0.06 4e-3 -0.08 0.00581-0.25 0.00781h-1.5a2.88 2.88 0 0 1-0.25-0.00781v-1.9746c0.06-4e-3 0.08-0.00581 0.25-0.00781z" color="#000000" style="font-feature-settings:normal;font-variant-alternates:normal;font-variant-caps:normal;font-variant-ligatures:normal;font-variant-numeric:normal;font-variant-position:normal;isolation:auto;mix-blend-mode:normal;shape-padding:0;text-decoration-color:#000000;text-decoration-line:none;text-decoration-style:solid;text-indent:0;text-orientation:mixed;text-transform:none;white-space:normal"/>
<path d="m11.873 6.0073c-0.12025 0.00663-0.24177 0.027484-0.38477 0.083984a0.801 0.801 0 0 0-0.39062 0.3457 0.93 0.93 0 0 0-0.097656 0.45312v2.2246a0.93 0.93 0 0 0 0.09766 0.45312c0.083 0.16 0.24862 0.2897 0.39062 0.3457 0.286 0.113 0.48981 0.081984 0.75781 0.083984h1.5078c0.268-2e-3 0.47181 0.029016 0.75781-0.083984a0.801 0.801 0 0 0 0.39062-0.3457 0.93 0.93 0 0 0 0.097656-0.45312v-2.2246a0.93 0.93 0 0 0-0.09766-0.45312 0.801 0.801 0 0 0-0.39062-0.3457c-0.286-0.113-0.48981-0.081984-0.75781-0.083984h-1.5059-0.0019c-0.134 1e-3 -0.2528-0.00662-0.37305 0zm0.37695 1h1.5c0.17 2e-3 0.19 0.00281 0.25 0.00781v1.9746c-0.06 4e-3 -0.08 0.00581-0.25 0.00781h-1.5a2.88 2.88 0 0 1-0.25-0.00781v-1.9746c0.06-4e-3 0.08-0.00581 0.25-0.00781z" color="#000000" style="font-feature-settings:normal;font-variant-alternates:normal;font-variant-caps:normal;font-variant-ligatures:normal;font-variant-numeric:normal;font-variant-position:normal;isolation:auto;mix-blend-mode:normal;shape-padding:0;text-decoration-color:#000000;text-decoration-line:none;text-decoration-style:solid;text-indent:0;text-orientation:mixed;text-transform:none;white-space:normal"/>
<path d="m1.873 11.007c-0.12025 0.0066-0.24177 0.02748-0.38477 0.08398a0.801 0.801 0 0 0-0.39062 0.34571 0.93 0.93 0 0 0-0.097656 0.45312v2.2246a0.93 0.93 0 0 0 0.097656 0.45312c0.083 0.16 0.24863 0.2897 0.39062 0.3457 0.286 0.113 0.48981 0.08198 0.75781 0.08398h1.5078c0.268-2e-3 0.47181 0.02902 0.75781-0.08398a0.801 0.801 0 0 0 0.39062-0.3457 0.93 0.93 0 0 0 0.097656-0.45312v-2.2246a0.93 0.93 0 0 0-0.097656-0.45312 0.801 0.801 0 0 0-0.39062-0.3457c-0.286-0.113-0.48981-0.08198-0.75781-0.08398h-1.5059-0.00195c-0.134 1e-3 -0.2528-0.0066-0.37305 0zm0.37695 1h1.5c0.17 2e-3 0.19 0.0028 0.25 0.0078v1.9746c-0.06 4e-3 -0.08 0.0058-0.25 0.0078h-1.5a2.88 2.88 0 0 1-0.25-0.00779v-1.9746c0.06-4e-3 0.08-0.0058 0.25-0.0078z" color="#000000" style="font-feature-settings:normal;font-variant-alternates:normal;font-variant-caps:normal;font-variant-ligatures:normal;font-variant-numeric:normal;font-variant-position:normal;isolation:auto;mix-blend-mode:normal;shape-padding:0;text-decoration-color:#000000;text-decoration-line:none;text-decoration-style:solid;text-indent:0;text-orientation:mixed;text-transform:none;white-space:normal"/>
<path d="m6.8738 11.007c-0.12025 0.0066-0.24177 0.02748-0.38477 0.08398a0.801 0.801 0 0 0-0.39062 0.3457 0.93 0.93 0 0 0-0.097656 0.45312v2.2246a0.93 0.93 0 0 0 0.097656 0.45312c0.083 0.16 0.24863 0.2897 0.39062 0.3457 0.286 0.113 0.48981 0.08198 0.75781 0.08398h1.5078c0.268-2e-3 0.47181 0.02902 0.75781-0.08398a0.801 0.801 0 0 0 0.39062-0.3457 0.93 0.93 0 0 0 0.097656-0.45312v-2.2246a0.93 0.93 0 0 0-0.097656-0.45312 0.801 0.801 0 0 0-0.39062-0.3457c-0.286-0.113-0.48981-0.08198-0.75781-0.08398h-1.5059-0.00195c-0.134 1e-3 -0.2528-0.0066-0.37305 0zm0.37695 1h1.5c0.17 2e-3 0.19 0.0028 0.25 0.0078v1.9746c-0.06 4e-3 -0.08 0.0058-0.25 0.0078h-1.5a2.88 2.88 0 0 1-0.25-0.0078v-1.9746c0.06-4e-3 0.08-0.0058 0.25-0.0078z" color="#000000" style="font-feature-settings:normal;font-variant-alternates:normal;font-variant-caps:normal;font-variant-ligatures:normal;font-variant-numeric:normal;font-variant-position:normal;isolation:auto;mix-blend-mode:normal;shape-padding:0;text-decoration-color:#000000;text-decoration-line:none;text-decoration-style:solid;text-indent:0;text-orientation:mixed;text-transform:none;white-space:normal"/>
<path d="m11.873 11.007c-0.12025 0.0066-0.24177 0.02748-0.38477 0.08398a0.801 0.801 0 0 0-0.39062 0.34571 0.93 0.93 0 0 0-0.097656 0.45312v2.2246a0.93 0.93 0 0 0 0.09766 0.45312c0.083 0.16 0.24862 0.2897 0.39062 0.3457 0.286 0.113 0.48981 0.08198 0.75781 0.08398h1.5078c0.268-2e-3 0.47181 0.02902 0.75781-0.08398a0.801 0.801 0 0 0 0.39062-0.3457 0.93 0.93 0 0 0 0.097656-0.45312v-2.2246a0.93 0.93 0 0 0-0.09766-0.45312 0.801 0.801 0 0 0-0.39062-0.3457c-0.286-0.113-0.48981-0.08198-0.75781-0.08398h-1.5059-0.0019c-0.134 1e-3 -0.2528-0.0066-0.37305 0zm0.37695 1h1.5c0.17 2e-3 0.19 0.0028 0.25 0.0078v1.9746c-0.06 4e-3 -0.08 0.0058-0.25 0.0078h-1.5a2.88 2.88 0 0 1-0.25-0.00779v-1.9746c0.06-4e-3 0.08-0.0058 0.25-0.0078z" color="#000000" style="font-feature-settings:normal;font-variant-alternates:normal;font-variant-caps:normal;font-variant-ligatures:normal;font-variant-numeric:normal;font-variant-position:normal;isolation:auto;mix-blend-mode:normal;shape-padding:0;text-decoration-color:#000000;text-decoration-line:none;text-decoration-style:solid;text-indent:0;text-orientation:mixed;text-transform:none;white-space:normal"/>
</g>
</svg>
