<svg width="16" height="16" version="1.1" xmlns="http://www.w3.org/2000/svg">
<path d="m4.994 1c-1.258 0.015-2.179-0.03-2.931 0.385a1.88 1.88 0 0 0-0.838 0.998c-0.165 0.439-0.225 0.96-0.225 1.617v8.207l0.147 0.147 2.646 2.646h7.213c1.258-0.015 2.179 0.03 2.932-0.385a1.88 1.88 0 0 0 0.838-0.998c0.164-0.438 0.224-0.96 0.224-1.617v-8c0-0.658-0.06-1.178-0.225-1.617a1.88 1.88 0 0 0-0.837-0.998c-0.753-0.416-1.674-0.37-2.932-0.385h-6.008zm6e-3 1h6c1.259 0.015 2.09 0.06 2.455 0.262 0.184 0.101 0.287 0.213 0.385 0.472 0.097 0.26 0.16 0.674 0.16 1.266v8c0 0.592-0.063 1.006-0.16 1.266-0.098 0.26-0.201 0.371-0.385 0.472-0.367 0.203-1.197 0.247-2.46 0.262h-6.789l-2.206-2.207v-7.793c0-0.592 0.063-1.006 0.16-1.266 0.098-0.26 0.204-0.371 0.387-0.472 0.366-0.202 1.195-0.247 2.453-0.262z" color="#000000" fill="#808080" font-weight="400" overflow="visible" style="font-feature-settings:normal;font-variant-alternates:normal;font-variant-caps:normal;font-variant-ligatures:normal;font-variant-numeric:normal;font-variant-position:normal;isolation:auto;mix-blend-mode:normal;shape-padding:0;text-decoration-color:#000000;text-decoration-line:none;text-decoration-style:solid;text-indent:0;text-orientation:mixed;text-transform:none;white-space:normal"/>
<path d="m4 9v5h2v-4h2v4h4v-5z" fill="#808080"/>
</svg>
