<svg width="16" height="16" version="1.1" xmlns="http://www.w3.org/2000/svg">
<path d="m3.994 3c-1.258 0.015-2.179-0.03-2.931 0.385a1.88 1.88 0 0 0-0.838 0.998c-0.165 0.439-0.225 0.96-0.225 1.617v5c0 0.658 0.06 1.179 0.225 1.617 0.164 0.439 0.461 0.79 0.838 0.998 0.752 0.416 1.673 0.37 2.931 0.385h8.012c1.258-0.014 2.179 0.03 2.932-0.385a1.88 1.88 0 0 0 0.838-0.998c0.164-0.438 0.224-0.96 0.224-1.617v-5c0-0.658-0.06-1.178-0.225-1.617a1.88 1.88 0 0 0-0.837-0.998c-0.753-0.416-1.674-0.37-2.932-0.385h-8.008zm6e-3 1h8c1.259 0.015 2.087 0.06 2.453 0.262 0.184 0.101 0.29 0.213 0.387 0.472 0.097 0.26 0.16 0.674 0.16 1.266v5c0 0.592-0.063 1.006-0.16 1.266-0.098 0.26-0.203 0.371-0.387 0.472-0.366 0.202-1.194 0.247-2.453 0.262h-8c-1.258-0.015-2.09-0.06-2.455-0.262-0.183-0.1-0.287-0.212-0.385-0.472-0.097-0.26-0.16-0.674-0.16-1.266v-5c0-0.592 0.063-1.006 0.16-1.266 0.098-0.26 0.202-0.371 0.385-0.472 0.365-0.202 1.195-0.247 2.455-0.262z" color="#000000" fill="#808080" font-weight="400" overflow="visible" style="font-feature-settings:normal;font-variant-alternates:normal;font-variant-caps:normal;font-variant-ligatures:normal;font-variant-numeric:normal;font-variant-position:normal;isolation:auto;mix-blend-mode:normal;shape-padding:0;text-decoration-color:#000000;text-decoration-line:none;text-decoration-style:solid;text-indent:0;text-orientation:mixed;text-transform:none;white-space:normal"/>
<path d="m4.5 6c1.375 0 2.5 1.125 2.5 2.5 0 0.565-0.212 1.08-0.531 1.5h3.061c-0.318-0.42-0.53-0.935-0.53-1.5 0-1.375 1.125-2.5 2.5-2.5s2.5 1.125 2.5 2.5-1.125 2.5-2.5 2.5h-7a2.508 2.508 0 0 1-2.5-2.5c0-1.375 1.125-2.5 2.5-2.5zm0 1c-0.834 0-1.5 0.666-1.5 1.5s0.666 1.5 1.5 1.5 1.5-0.666 1.5-1.5-0.666-1.5-1.5-1.5zm7 0c-0.834 0-1.5 0.666-1.5 1.5s0.666 1.5 1.5 1.5 1.5-0.666 1.5-1.5-0.666-1.5-1.5-1.5z" fill="#808080"/>
</svg>
