<svg width="16" height="16" version="1.1" xmlns="http://www.w3.org/2000/svg">
<path d="m5 2c-0.658 0-1.178 0.06-1.617 0.225a1.88 1.88 0 0 0-0.998 0.838c-0.416 0.752-0.37 1.673-0.385 2.931v5.012c0.015 1.258-0.03 2.179 0.385 2.932 0.207 0.376 0.56 0.673 0.998 0.838 0.438 0.164 0.96 0.224 1.617 0.224h4c0.658 0 1.179-0.06 1.617-0.225 0.439-0.164 0.789-0.461 0.996-0.837 0.416-0.753 0.372-1.674 0.387-2.932v-3.658l-1.023-1.536c-0.01-1.141 0.028-2.043-0.362-2.75a1.88 1.88 0 0 0-0.998-0.837c-0.437-0.165-0.96-0.225-1.617-0.225zm0 1h3c0.592 0 1.006 0.063 1.266 0.16 0.26 0.098 0.371 0.204 0.472 0.387 0.203 0.367 0.247 1.195 0.262 2.459l2e-3 0.148 0.998 1.498v3.342c-0.015 1.264-0.06 2.092-0.262 2.46-0.1 0.183-0.212 0.288-0.472 0.386-0.26 0.097-0.674 0.16-1.266 0.16h-4c-0.592 0-1.006-0.063-1.266-0.16-0.26-0.098-0.371-0.203-0.472-0.387-0.202-0.366-0.247-1.193-0.262-2.453v-5c0.015-1.258 0.06-2.087 0.262-2.453 0.1-0.183 0.213-0.29 0.472-0.387 0.26-0.097 0.674-0.16 1.266-0.16z" color="#000000" fill="#808080" font-weight="400" overflow="visible" style="font-feature-settings:normal;font-variant-alternates:normal;font-variant-caps:normal;font-variant-ligatures:normal;font-variant-numeric:normal;font-variant-position:normal;isolation:auto;mix-blend-mode:normal;shape-padding:0;text-decoration-color:#000000;text-decoration-line:none;text-decoration-style:solid;text-indent:0;text-orientation:mixed;text-transform:none;white-space:normal"/>
<path d="m4 4v2h1v-2zm2 0v2h1v-2zm2 0v2h1v-2z" fill="#808080"/>
</svg>
