<svg width="16" height="16" version="1.1" xmlns="http://www.w3.org/2000/svg">
<g fill="#808080">
<path d="m4.5 1c-0.542 0-0.984 0.064-1.36 0.23a1.72 1.72 0 0 0-0.837 0.797c-0.34 0.68-0.303 1.473-0.303 2.473v8c0 1-0.037 1.794 0.303 2.473 0.17 0.34 0.462 0.63 0.838 0.797 0.375 0.166 0.817 0.23 1.359 0.23h5c0.542 0 0.984-0.064 1.36-0.23a1.72 1.72 0 0 0 0.837-0.797c0.34-0.68 0.303-1.473 0.303-2.473v-8c0-1 0.037-1.794-0.303-2.473a1.72 1.72 0 0 0-0.838-0.796c-0.375-0.167-0.817-0.231-1.359-0.231zm0 1h5c0.458 0 0.766 0.061 0.953 0.145 0.187 0.083 0.27 0.167 0.35 0.328 0.16 0.32 0.197 1.027 0.197 2.027v8c0 1-0.037 1.706-0.197 2.027a0.615 0.615 0 0 1-0.35 0.329c-0.187 0.083-0.495 0.144-0.953 0.144h-5c-0.458 0-0.766-0.061-0.953-0.144a0.615 0.615 0 0 1-0.35-0.329c-0.16-0.32-0.197-1.027-0.197-2.027v-8c0-1 0.037-1.706 0.197-2.027a0.615 0.615 0 0 1 0.35-0.328c0.187-0.085 0.495-0.145 0.953-0.145z" color="#000000" overflow="visible" style="font-feature-settings:normal;font-variant-alternates:normal;font-variant-caps:normal;font-variant-ligatures:normal;font-variant-numeric:normal;font-variant-position:normal;isolation:auto;mix-blend-mode:normal;shape-padding:0;text-decoration-color:#000000;text-decoration-line:none;text-decoration-style:solid;text-indent:0;text-orientation:mixed;text-transform:none;white-space:normal"/>
<path d="m4 3v4h6v-4z" color="#000000" fill-rule="evenodd" overflow="visible" style="font-feature-settings:normal;font-variant-alternates:normal;font-variant-caps:normal;font-variant-ligatures:normal;font-variant-numeric:normal;font-variant-position:normal;isolation:auto;mix-blend-mode:normal;shape-padding:0;text-decoration-color:#000000;text-decoration-line:none;text-decoration-style:solid;text-indent:0;text-orientation:mixed;text-transform:none;white-space:normal"/>
<path d="m7 8c-1.65 0-3 1.35-3 3 0 1.651 1.35 3 3 3 1.651 0 3-1.349 3-3 0-1.65-1.349-3-3-3zm0 1c1.11 0 2 0.89 2 2s-0.89 2-2 2-2-0.89-2-2 0.89-2 2-2z" color="#000000" overflow="visible" style="font-feature-settings:normal;font-variant-alternates:normal;font-variant-caps:normal;font-variant-ligatures:normal;font-variant-numeric:normal;font-variant-position:normal;isolation:auto;mix-blend-mode:normal;shape-padding:0;text-decoration-color:#000000;text-decoration-line:none;text-decoration-style:solid;text-indent:0;text-orientation:mixed;text-transform:none;white-space:normal"/>
</g>
</svg>
