<svg width="16" height="16" version="1.1" xmlns="http://www.w3.org/2000/svg">
<g fill="#808080">
<path d="m8.003 2a10.382 10.382 0 0 0-7.365 3.047l0.736 0.738a9.367 9.367 0 0 1 13.258 0l0.736-0.738a10.382 10.382 0 0 0-7.365-3.047z"/>
<path d="m8.003 4.983c-1.92 0-3.84 0.73-5.303 2.193l0.736 0.736a6.45 6.45 0 0 1 9.133 0l0.737-0.736a7.475 7.475 0 0 0-5.303-2.193z"/>
<path d="m8.003 7.981a4.566 4.566 0 0 0-3.24 1.338l0.736 0.738a3.533 3.533 0 0 1 5.008 0l0.736-0.738a4.566 4.566 0 0 0-3.24-1.338z"/>
<path d="m8.003 11.001a2 2 0 0 0-2 2 2 2 0 0 0 2 2 2 2 0 0 0 2-2 2 2 0 0 0-2-2z"/>
</g>
</svg>
