<svg width="16" height="16" version="1.1" xmlns="http://www.w3.org/2000/svg">
<path d="m5.5 0c-0.542 0-0.98338 0.064469-1.3594 0.23047a1.72 1.72 0 0 0-0.83789 0.79688c-0.34 0.68-0.30273 1.4727-0.30273 2.4727v9c0 1-0.037266 1.7956 0.30273 2.4746 0.17 0.34 0.46189 0.62792 0.83789 0.79492 0.375 0.166 0.81738 0.23047 1.3594 0.23047h5c0.542 0 0.98338-0.064469 1.3594-0.23047 0.375-0.167 0.66889-0.45592 0.83789-0.79492 0.34-0.68 0.30273-1.4746 0.30273-2.4746v-9c0-1 0.037266-1.7937-0.30273-2.4727a1.72 1.72 0 0 0-0.83789-0.79688c-0.375-0.167-0.81738-0.23047-1.3594-0.23047h-5zm-1.4297 2h7.8594c0.05 0.373 0.070312 0.87 0.070312 1.5v9c0 0.63-0.020312 1.126-0.070312 1.5h-7.8594c-0.05-0.374-0.070312-0.87-0.070312-1.5v-9c0-0.63 0.020312-1.127 0.070312-1.5z" fill="#808080" style="font-feature-settings:normal;font-variant-alternates:normal;font-variant-caps:normal;font-variant-ligatures:normal;font-variant-numeric:normal;font-variant-position:normal;isolation:auto;mix-blend-mode:normal;shape-padding:0;text-decoration-color:#000;text-decoration-line:none;text-decoration-style:solid;text-indent:0;text-orientation:mixed;text-transform:none"/>
</svg>
