<svg width="16" height="16" version="1.1" xmlns="http://www.w3.org/2000/svg">
<g fill="#808080">
<path d="m3 0v4.0254c-0.75 0.018-1.4105 0.069375-1.9375 0.35938a1.88 1.88 0 0 0-0.83789 0.99805c-0.165 0.439-0.22461 0.96019-0.22461 1.6172v3c0 0.658 0.059609 1.1792 0.22461 1.6172 0.164 0.439 0.46089 0.79005 0.83789 0.99805 0.282 0.156 0.5995 0.23411 0.9375 0.28711v-1.0254a1.627 1.627 0 0 1-0.45508-0.13867c-0.183-0.1-0.28677-0.21266-0.38477-0.47266-0.097-0.26-0.16016-0.67362-0.16016-1.2656v-3c0-0.592 0.063156-1.0056 0.16016-1.2656 0.098-0.26 0.20177-0.37166 0.38477-0.47266 0.365-0.202 1.1951-0.24672 2.4551-0.26172h8c1.259 0.015 2.0871 0.059719 2.4531 0.26172 0.184 0.101 0.28972 0.21366 0.38672 0.47266 0.097 0.26 0.16016 0.67362 0.16016 1.2656v3c0 0.592-0.063156 1.0056-0.16016 1.2656-0.098 0.26-0.20272 0.37166-0.38672 0.47266-0.107 0.06-0.26712 0.10367-0.45312 0.13867v1.0254c0.338-0.053 0.6545-0.13011 0.9375-0.28711a1.88 1.88 0 0 0 0.83789-0.99805c0.165-0.438 0.22461-0.96019 0.22461-1.6172v-3c0-0.658-0.059609-1.1782-0.22461-1.6172a1.88 1.88 0 0 0-0.83789-0.99805c-0.527-0.29-1.1875-0.34138-1.9375-0.35938v-4.0254h-10zm1 1h8v3h-8v-3z" style="font-feature-settings:normal;font-variant-alternates:normal;font-variant-caps:normal;font-variant-ligatures:normal;font-variant-numeric:normal;font-variant-position:normal;isolation:auto;mix-blend-mode:normal;shape-padding:0;text-decoration-color:#000;text-decoration-line:none;text-decoration-style:solid;text-indent:0;text-orientation:mixed;text-transform:none"/>
<path d="m13.5 6a0.5 0.5 0 0 0-0.5 0.5 0.5 0.5 0 0 0 0.5 0.5 0.5 0.5 0 0 0 0.5-0.5 0.5 0.5 0 0 0-0.5-0.5z" style="font-feature-settings:normal;font-variant-alternates:normal;font-variant-caps:normal;font-variant-ligatures:normal;font-variant-numeric:normal;font-variant-position:normal;isolation:auto;mix-blend-mode:normal;shape-padding:0;text-decoration-color:#000;text-decoration-line:none;text-decoration-style:solid;text-indent:0;text-orientation:mixed;text-transform:none"/>
<path d="m3 10v6h10v-6h-1v5h-8v-5z" style="font-feature-settings:normal;font-variant-alternates:normal;font-variant-caps:normal;font-variant-ligatures:normal;font-variant-numeric:normal;font-variant-position:normal;isolation:auto;mix-blend-mode:normal;shape-padding:0;text-decoration-color:#000;text-decoration-line:none;text-decoration-style:solid;text-indent:0;text-orientation:mixed;text-transform:none"/>
<path d="m5 11v1h6v-1z" style="font-feature-settings:normal;font-variant-alternates:normal;font-variant-caps:normal;font-variant-ligatures:normal;font-variant-numeric:normal;font-variant-position:normal;isolation:auto;mix-blend-mode:normal;shape-padding:0;text-decoration-color:#000;text-decoration-line:none;text-decoration-style:solid;text-indent:0;text-orientation:mixed;text-transform:none"/>
<path d="m5 13v1h6v-1z" style="font-feature-settings:normal;font-variant-alternates:normal;font-variant-caps:normal;font-variant-ligatures:normal;font-variant-numeric:normal;font-variant-position:normal;isolation:auto;mix-blend-mode:normal;shape-padding:0;text-decoration-color:#000;text-decoration-line:none;text-decoration-style:solid;text-indent:0;text-orientation:mixed;text-transform:none"/>
</g>
</svg>
