<svg width="16" height="16" version="1.1" xmlns="http://www.w3.org/2000/svg" xmlns:osb="http://www.openswatchbook.org/uri/2009/osb">
<g fill="#808080">
<path d="m5 2h1l-2 5h-1z"/>
<path d="m6 2h-1l2 5h1z"/>
<rect transform="scale(1,-1)" x="4.5" y="-5.5" width="2" height=".5"/>
<rect x="3" y="6.5" width="1.5" height=".5"/>
<rect x="6.5" y="6.5" width="1.5" height=".5"/>
<rect x="3" y="10" width="9" height="1" opacity=".5"/>
<rect x="3" y="12" width="9" height="1" opacity=".5"/>
<path d="m4.9941 0c-1.2582 0.0145-2.1789-0.0306-2.9316 0.38477-0.37637 0.20766-0.67323 0.55938-0.83789 0.99804-0.16467 0.43867-0.22461 0.95958-0.22461 1.6172v10c0 0.65761 0.0599 1.1786 0.22461 1.6172 0.16468 0.43861 0.46153 0.78852 0.83789 0.99609 0.75272 0.41513 1.6735 0.37165 2.9316 0.38672h5.0119c1.2582-0.0145 2.1789 0.0306 2.9316-0.38477 0.37637-0.20766 0.67322-0.55938 0.83789-0.99804 0.16439-0.43867 0.22447-0.95958 0.22447-1.6172v-10c0-0.65761-0.0599-1.1786-0.22461-1.6172-0.16468-0.43861-0.46153-0.78852-0.83789-0.99609-0.75272-0.41513-1.6736-0.37165-2.9316-0.38672h-5.0079zm6e-3 1h5c1.2586 0.0152 2.0891 0.0599 2.4551 0.26172 0.18342 0.10116 0.28722 0.21286 0.38476 0.47266 0.0973 0.25978 0.16002 0.67323 0.16002 1.2656v5h-11v-5c0-0.59239 0.0626-1.0057 0.16016-1.2656 0.0976-0.25991 0.20135-0.37147 0.38476-0.47266 0.36596-0.20192 1.1966-0.24702 2.4551-0.26172zm-3 8h11v4c0 0.59239-0.0626 1.0057-0.16016 1.2656-0.0976 0.25991-0.20135 0.37147-0.38476 0.47266-0.3661 0.20192-1.1967 0.24701-2.4552 0.26172h-5.0001c-1.2586-0.0152-2.0891-0.0599-2.4551-0.26172-0.18342-0.10116-0.28722-0.21286-0.38476-0.47266-0.0976-0.25978-0.16016-0.67323-0.16016-1.2656z"/>
</g>
</svg>
