<svg width="20" height="20" version="1.1" xmlns="http://www.w3.org/2000/svg">
<path d="m18 13c-0.874-0.69-1.757-1.397-2.656-2.008-1-0.679-1.972-1.287-2.912-1.825-0.868-0.497-1.774-0.87-2.432-1.167-0.658 0.297-1.564 0.67-2.432 1.167a44.819 44.819 0 0 0-2.912 1.825c-0.9 0.61-1.782 1.317-2.656 2.008h1.49c0.524-0.4 1.062-0.837 1.625-1.222 0.71-0.486 1.437-0.942 2.18-1.37a39.201 39.201 0 0 1 2.5-1.285h1e-3l0.204-0.096 0.203 0.096c0.71 0.334 1.747 0.852 2.501 1.285 0.744 0.428 1.47 0.884 2.181 1.37 0.562 0.385 1.1 0.822 1.625 1.222z"/>
</svg>
