<svg width="20" height="20" version="1.1" xmlns="http://www.w3.org/2000/svg">
<path d="m12 2c-0.69 0.874-1.397 1.757-2.008 2.656-0.679 1-1.287 1.972-1.825 2.912-0.497 0.868-0.87 1.774-1.167 2.432 0.297 0.658 0.67 1.564 1.167 2.432a45.19 45.19 0 0 0 1.825 2.912c0.61 0.9 1.317 1.782 2.008 2.656v-1.49c-0.4-0.524-0.837-1.062-1.222-1.625a32.845 32.845 0 0 1-1.37-2.18 39.196 39.196 0 0 1-1.285-2.5v-1e-3l-0.096-0.204 0.096-0.203c0.334-0.71 0.852-1.747 1.285-2.501a33.18 33.18 0 0 1 1.37-2.181c0.385-0.562 0.822-1.1 1.222-1.625z"/>
</svg>
