<svg width="20" height="20" version="1.1" xmlns="http://www.w3.org/2000/svg">
<path class="warning" d="m7 16v-4h6v4z" color="#000000" fill="#fdc92b" overflow="visible"/>
<path d="m5 15.338c0.01 0.839-0.015 1.451 0.262 1.953 0.138 0.251 0.374 0.45 0.666 0.56s0.64 0.149 1.078 0.149h5.994c0.439 0 0.786-0.039 1.078-0.148 0.293-0.11 0.526-0.31 0.664-0.56 0.277-0.503 0.249-1.115 0.258-1.954v-8.707c-0.01-0.839 0.02-1.453-0.258-1.955a1.25 1.25 0 0 0-0.664-0.559c-0.292-0.11-0.64-0.117-1.078-0.117h-1v-1h-4v1h-0.994c-0.438 0-0.786 7e-3 -1.078 0.117s-0.528 0.308-0.666 0.559c-0.277 0.502-0.252 1.116-0.262 1.955v8.705zm1-0.014v-8.691c0.01-0.853 0.04-1.298 0.137-1.475 0.016-0.028 0.057-0.073 0.143-0.105 0.06-0.023 0.298-0.053 0.726-0.053h5.994c0.428 0 0.664 0.03 0.727 0.053 0.086 0.032 0.125 0.077 0.14 0.105 0.095 0.173 0.123 0.618 0.133 1.475v8.705c-0.01 0.854-0.038 1.298-0.133 1.47-0.016 0.03-0.055 0.074-0.14 0.106-0.123 0.046-0.349 0.086-0.727 0.086h-5.994c-0.378 0-0.604-0.04-0.726-0.086-0.086-0.032-0.127-0.077-0.143-0.105-0.098-0.178-0.126-0.62-0.137-1.485z" color="#000000" font-weight="400" overflow="visible" style="font-feature-settings:normal;font-variant-alternates:normal;font-variant-caps:normal;font-variant-ligatures:none;font-variant-numeric:normal;font-variant-position:normal;isolation:auto;mix-blend-mode:normal;shape-padding:0;text-decoration-color:#000000;text-decoration-line:none;text-decoration-style:solid;text-indent:0;text-transform:none;white-space:normal"/>
</svg>
