<svg width="20" height="20" version="1.1" xmlns="http://www.w3.org/2000/svg">
<g fill="#fff">
<path d="m5.9141 2c-0.74645 0.0091818-1.3953-0.048053-2.0176 0.30664-0.3379 0.19237-0.59299 0.50904-0.73047 0.88672-0.13085 0.35823-0.16602 0.74224-0.16602 1.1816v11.25c0 0.4394 0.035167 0.82341 0.16602 1.1816 0.13723 0.37699 0.39076 0.69528 0.73047 0.88867 0.62233 0.35416 1.2715 0.29551 2.0176 0.30469h5.086v-1h-5.0801c-0.77211-0.0095-1.2381-0.0092-1.5273-0.17383-0.1148-0.06536-0.22436-0.18894-0.28711-0.36133-0.069134-0.18927-0.10547-0.458-0.10547-0.83984v-11.25c0-0.38185 0.036334-0.65057 0.10547-0.83984 0.0625-0.1717 0.17051-0.29299 0.28711-0.35938 0.2911-0.16593 0.75558-0.16633 1.5273-0.17578h5.1602c0.76856 0.00941 1.2333 0.011985 1.5234 0.17578 0.1307 0.077265 0.23555 0.20074 0.28906 0.35352v0.00391l2e-3 0.00195c0.06921 0.19019 0.10542 0.45873 0.10542 0.83984v6.9062c0.05483-0.03238 0.11805-0.04869 0.17578-0.07617 0.17146-0.39054 0.4625-0.71024 0.82422-0.92383v-5.9062c0-0.43871-0.03653-0.8214-0.16602-1.1777-0.13102-0.37206-0.38675-0.68782-0.72656-0.88672l-2e-3 -0.00195-0.0039-0.00195c-0.62106-0.35353-1.2678-0.29745-2.0156-0.30665h-5.17z" color="#000000" color-rendering="auto" dominant-baseline="auto" image-rendering="auto" shape-rendering="auto" solid-color="#000000" style="font-feature-settings:normal;font-variant-alternates:normal;font-variant-caps:normal;font-variant-ligatures:normal;font-variant-numeric:normal;font-variant-position:normal;isolation:auto;mix-blend-mode:normal;shape-padding:0;text-decoration-color:#000000;text-decoration-line:none;text-decoration-style:solid;text-indent:0;text-orientation:mixed;text-transform:none;white-space:normal"/>
<path d="m8.0313 3.293v5.6133l-2.4277-2.0391-0.64453 0.76562 2.8184 2.3672-2.8184 2.3672 0.64453 0.76562 2.4277-2.0391v5.6133l4.2402-4.2383-2.9395-2.4688 2.9395-2.4687zm0.92773 2.4141 1.7598 1.7598-1.7598 1.4805zm0 5.3457 1.7598 1.4805-1.7598 1.7598z" color="#000000" style="isolation:auto;mix-blend-mode:normal;shape-padding:0;text-decoration-color:#000000;text-decoration-line:none;text-decoration-style:solid;text-indent:0;text-transform:none;white-space:normal"/>
<path d="m15 11c-1.108 0-2 0.91025-2 2.0312v0.96875h-1v4h6v-4h-1v-0.96875c0-1.12-0.892-2.0312-2-2.0312zm0 1c0.554 0 1 0.442 1 1v1h-2v-1c0-0.558 0.446-1 1-1z" color="#000000" style="font-feature-settings:normal;font-variant-alternates:normal;font-variant-caps:normal;font-variant-ligatures:none;font-variant-numeric:normal;font-variant-position:normal;isolation:auto;mix-blend-mode:normal;shape-padding:0;text-decoration-color:#000000;text-decoration-line:none;text-decoration-style:solid;text-indent:0;text-transform:none;white-space:normal"/>
</g>
</svg>
