<svg width="20" height="20" version="1.1" xmlns="http://www.w3.org/2000/svg">
<path d="m15.511 3.039a2.748 2.748 0 0 0-0.41 0.016l-7.21 1.125c-0.813 0.082-0.901 0.462-0.894 0.935v9.52c-0.413-0.272-0.856-0.465-1.445-0.465-0.76 0-1.213 0.29-1.487 0.674-0.274 0.383-0.365 0.865-0.365 1.238 0 0.45 0.155 0.93 0.488 1.295 0.334 0.366 0.846 0.623 1.582 0.623 0.832 0 1.416-0.232 1.747-0.686 0.26-0.357 0.405-0.835 0.457-1.423 7e-3 -0.072 0.01-0.146 0.015-0.221 4e-3 -0.06 3e-3 -0.102 4e-3 -0.172h4e-3v-7.703c0.022-0.62 0.584-0.711 0.584-0.711l5.854-0.914c0.561-0.172 0.562 0.523 0.562 0.523v6.942c-0.413-0.272-0.856-0.465-1.445-0.465-0.76 0-1.213 0.29-1.487 0.674-0.274 0.383-0.365 0.865-0.365 1.238 0 0.45 0.155 0.93 0.488 1.295 0.334 0.366 0.846 0.623 1.582 0.623 0.832 0 1.416-0.232 1.747-0.686 0.26-0.357 0.405-0.835 0.457-1.423 7e-3 -0.072 0.01-0.146 0.015-0.221 4e-3 -0.06 3e-3 -0.102 4e-3 -0.172h4e-3v-10.568c0.012-0.686-0.14-0.867-0.486-0.891z" color="#000000" fill="#fff" fill-rule="evenodd" font-weight="400" overflow="visible" style="font-feature-settings:normal;font-variant-alternates:normal;font-variant-caps:normal;font-variant-ligatures:normal;font-variant-numeric:normal;font-variant-position:normal;isolation:auto;mix-blend-mode:normal;shape-padding:0;text-decoration-color:#000000;text-decoration-line:none;text-decoration-style:solid;text-indent:0;text-orientation:mixed;text-transform:none;white-space:normal"/>
</svg>
