<svg width="20" height="20" version="1.1" xmlns="http://www.w3.org/2000/svg">
<path d="m6.994 2c-1.258 0.015-2.179-0.03-2.931 0.385a1.88 1.88 0 0 0-0.838 0.998c-0.165 0.439-0.225 0.96-0.225 1.617v10c0 0.658 0.06 1.179 0.225 1.617 0.164 0.439 0.461 0.79 0.838 0.998 0.752 0.416 1.673 0.37 2.931 0.385h5.012c1.258-0.014 2.179 0.03 2.932-0.385a1.88 1.88 0 0 0 0.838-0.998c0.164-0.438 0.224-0.96 0.224-1.617v-10c0-0.658-0.06-1.178-0.225-1.617a1.88 1.88 0 0 0-0.837-0.998c-0.753-0.415-1.674-0.37-2.932-0.385h-5.008zm6e-3 1h5c1.259 0.015 2.087 0.06 2.453 0.262 0.184 0.101 0.29 0.213 0.387 0.472 0.097 0.26 0.16 0.674 0.16 1.266v10c0 0.592-0.063 1.006-0.16 1.266-0.098 0.26-0.203 0.371-0.387 0.472-0.366 0.202-1.194 0.247-2.453 0.262h-5c-1.258-0.015-2.09-0.06-2.455-0.262-0.183-0.1-0.287-0.212-0.385-0.472-0.097-0.26-0.16-0.674-0.16-1.266v-10c0-0.592 0.063-1.006 0.16-1.266 0.098-0.26 0.202-0.371 0.385-0.472 0.365-0.202 1.195-0.247 2.455-0.262z" color="#000000" font-weight="400" overflow="visible" style="font-feature-settings:normal;font-variant-alternates:normal;font-variant-caps:normal;font-variant-ligatures:normal;font-variant-numeric:normal;font-variant-position:normal;isolation:auto;mix-blend-mode:normal;shape-padding:0;text-decoration-color:#000000;text-decoration-line:none;text-decoration-style:solid;text-indent:0;text-orientation:mixed;text-transform:none;white-space:normal"/>
<path d="m9 5-1 2h1v4.486a8.723 8.723 0 0 0-0.775-0.433c-0.375-0.188-0.722-0.369-0.936-0.547s-0.289-0.298-0.289-0.506a1 1 0 0 0 1-1 1 1 0 0 0-1-1 1 1 0 0 0-1 1v1c0 0.542 0.3 0.985 0.648 1.275 0.349 0.29 0.754 0.485 1.13 0.672 0.374 0.188 0.719 0.369 0.933 0.547 0.214 0.179 0.289 0.298 0.289 0.506-0.277 0-0.5 0.223-0.5 0.5v1c0 0.277 0.223 0.5 0.5 0.5h1c0.277 0 0.5-0.223 0.5-0.5v-1c0-0.277-0.223-0.5-0.5-0.5v-1c0-0.208 0.075-0.327 0.29-0.506 0.213-0.178 0.56-0.36 0.935-0.547s0.778-0.381 1.127-0.672c0.348-0.29 0.648-0.733 0.648-1.275v-1.5c0-0.277-0.223-0.5-0.5-0.5h-1c-0.277 0-0.5 0.223-0.5 0.5v1c0 0.277 0.223 0.5 0.5 0.5h0.5c0 0.208-0.075 0.328-0.289 0.506s-0.559 0.36-0.934 0.547c-0.256 0.128-0.52 0.27-0.777 0.433v-3.486h1l-1-2z"/>
</svg>
