<svg width="20" height="20" version="1.1" xmlns="http://www.w3.org/2000/svg">
<path d="m10.002 4.002c-2.61 0-5.2204 0.83758-7.4004 2.5176l-0.26562 0.20508 0.20312 0.26367 7.457 9.6719 2.4531-3.1777c-0.022522-0.21748-0.052957-0.43487-0.072266-0.65234-0.056-0.651-0.087888-1.375-0.087891-2.168v-1-1.6621-1h1 0.41797 0.58203 0.41797 1v2.2637l1.957-2.5352-0.26367-0.20508a12.105 12.105 0 0 0-7.3984-2.5215z" style="font-feature-settings:normal;font-variant-alternates:normal;font-variant-caps:normal;font-variant-ligatures:none;font-variant-numeric:normal;font-variant-position:normal;isolation:auto;mix-blend-mode:normal;shape-padding:0;text-decoration-color:#000000;text-decoration-line:none;text-decoration-style:solid;text-indent:0;text-transform:none;white-space:normal"/>
<path d="m13.29 8v2.662c0 0.793 0.03 1.517 0.086 2.168 0.057 0.642 0.128 1.284 0.213 1.926h0.82c0.085-0.642 0.157-1.284 0.213-1.926 0.057-0.651 0.086-1.375 0.086-2.168v-2.662z" style="font-feature-settings:normal;font-variant-alternates:normal;font-variant-caps:normal;font-variant-ligatures:normal;font-variant-numeric:normal;font-variant-position:normal;isolation:auto;mix-blend-mode:normal;shape-padding:0;text-decoration-color:#000000;text-decoration-line:none;text-decoration-style:solid;text-indent:0;text-orientation:mixed;text-transform:none"/>
<path d="m14 16a1 1 0 0 0-1 1c0 0.282 0.118 0.535 0.306 0.717 0.17 0.189 0.4 0.283 0.693 0.283s0.524-0.094 0.694-0.283a0.994 0.994 0 0 0 0.306-0.717 1 1 0 0 0-1-1z" style="font-feature-settings:normal;font-variant-alternates:normal;font-variant-caps:normal;font-variant-ligatures:normal;font-variant-numeric:normal;font-variant-position:normal;isolation:auto;mix-blend-mode:normal;shape-padding:0;text-decoration-color:#000000;text-decoration-line:none;text-decoration-style:solid;text-indent:0;text-orientation:mixed;text-transform:none"/>
</svg>
