<svg width="20" height="20" version="1.1" xmlns="http://www.w3.org/2000/svg">
<path d="m4.713 4.0003c-1.058-0.013-1.768 0.224-2.133 0.662-0.383 0.456-0.58 1.204-0.58 2.244v6.188c0 1.04 0.197 1.788 0.58 2.244 0.365 0.438 1.075 0.662 2.133 0.662h10.574c1.058 0 1.77-0.224 2.135-0.662 0.383-0.456 0.578-1.204 0.578-2.244v-6.188c0-1.04-0.195-1.788-0.578-2.244-0.365-0.438-1.077-0.662-2.135-0.662zm1.795 2.621c0.38 0 0.707 0.047 0.98 0.14 0.28 0.088 0.511 0.216 0.692 0.384 0.18 0.161 0.313 0.354 0.4 0.578 0.087 0.217 0.131 0.457 0.131 0.718 0 0.256-0.072 0.504-0.215 0.747a1.423 1.423 0 0 1-0.578 0.54c0.336 0.137 0.593 0.344 0.773 0.618 0.187 0.267 0.282 0.59 0.282 0.97 0 0.3-0.051 0.575-0.15 0.83-0.1 0.25-0.256 0.468-0.468 0.655-0.211 0.18-0.48 0.322-0.81 0.428-0.324 0.1-0.71 0.15-1.158 0.15-0.168 0-0.345-0.012-0.532-0.037a4.904 4.904 0 0 1-0.54-0.084 5.85 5.85 0 0 1-0.477-0.121 2.726 2.726 0 0 1-0.336-0.121l0.27-1.159c0.161 0.069 0.368 0.144 0.617 0.225 0.255 0.075 0.568 0.111 0.941 0.111 0.43 0 0.744-0.08 0.943-0.242a0.8 0.8 0 0 0 0.3-0.654 0.741 0.741 0 0 0-0.112-0.42 0.735 0.735 0 0 0-0.29-0.28 1.196 1.196 0 0 0-0.448-0.15 2.97 2.97 0 0 0-0.541-0.047h-0.542v-1.119h0.615a2 2 0 0 0 0.392-0.037c0.131-0.025 0.247-0.065 0.346-0.12a0.666 0.666 0 0 0 0.233-0.243 0.764 0.764 0 0 0 0.093-0.393 0.612 0.612 0 0 0-0.271-0.523 0.715 0.715 0 0 0-0.27-0.121 1.031 1.031 0 0 0-0.308-0.047c-0.268 0-0.516 0.04-0.746 0.121-0.224 0.08-0.43 0.18-0.618 0.299l-0.494-1.018a3.724 3.724 0 0 1 1.307-0.521c0.187-0.038 0.382-0.057 0.588-0.057zm6.762 0c0.304 0 0.577 0.023 0.82 0.067 0.249 0.037 0.46 0.082 0.635 0.138 0.18 0.05 0.327 0.104 0.44 0.16 0.117 0.056 0.201 0.1 0.251 0.131l-0.42 1.166a3.56 3.56 0 0 0-0.691-0.271 2.766 2.766 0 0 0-0.84-0.121c-0.678 0-1.17 0.19-1.475 0.57-0.298 0.373-0.447 0.886-0.447 1.539 0 0.317 0.037 0.606 0.111 0.867 0.075 0.255 0.187 0.478 0.336 0.664 0.15 0.187 0.337 0.332 0.56 0.438 0.225 0.1 0.485 0.15 0.784 0.15 0.162 0 0.298-4e-3 0.41-0.01 0.118-6e-3 0.222-0.018 0.309-0.037v-2.25h1.457v3.201a5.24 5.24 0 0 1-0.84 0.215c-0.386 0.081-0.864 0.123-1.43 0.123-0.485 0-0.926-0.075-1.324-0.224a2.77 2.77 0 0 1-1.008-0.655 2.97 2.97 0 0 1-0.654-1.054 4.22 4.22 0 0 1-0.224-1.428c0-0.542 0.084-1.02 0.252-1.438 0.168-0.417 0.397-0.768 0.69-1.054a2.89 2.89 0 0 1 1.028-0.662c0.398-0.15 0.822-0.225 1.27-0.225z" fill="#fff" font-size="15" font-weight="400" letter-spacing="0" word-spacing="0"/>
</svg>
