<svg width="20" height="20" version="1.1" xmlns="http://www.w3.org/2000/svg">
<g>
<path d="m8.425 4c-0.45 5e-3 -0.778-0.012-1.047 0.137a0.676 0.676 0 0 0-0.3 0.357c-0.06 0.157-0.08 0.343-0.08 0.578v1.858c0 0.235 0.021 0.42 0.08 0.576a0.677 0.677 0 0 0 0.3 0.357c0.269 0.148 0.597 0.132 1.047 0.137h2.146c0.45-5e-3 0.778 0.012 1.047-0.137 0.135-0.074 0.24-0.2 0.3-0.357 0.058-0.157 0.08-0.341 0.08-0.576v-1.858c0-0.235-0.022-0.421-0.08-0.578a0.673 0.673 0 0 0-0.3-0.357c-0.269-0.15-0.597-0.132-1.046-0.137zm-0.426 1h3v2h-3zm-4 6.479v1.521h-0.572c-0.45 5e-3 -0.778-0.012-1.047 0.137a0.676 0.676 0 0 0-0.3 0.357c-0.06 0.157-0.08 0.343-0.08 0.578v1.858c0 0.235 0.021 0.42 0.08 0.576a0.677 0.677 0 0 0 0.3 0.357c0.269 0.148 0.597 0.132 1.047 0.137h2.144c0.45-5e-3 0.778 0.012 1.047-0.137 0.135-0.074 0.24-0.2 0.3-0.357 0.058-0.157 0.08-0.341 0.08-0.576v-1.858c0-0.235-0.022-0.421-0.08-0.578a0.673 0.673 0 0 0-0.3-0.357c-0.269-0.15-0.597-0.132-1.046-0.137h-1.573zm9.426 1.521c-0.45 5e-3 -0.778-0.012-1.047 0.137a0.676 0.676 0 0 0-0.3 0.357c-0.06 0.157-0.08 0.343-0.08 0.578v1.858c0 0.235 0.021 0.42 0.08 0.576a0.677 0.677 0 0 0 0.3 0.357c0.269 0.148 0.597 0.132 1.047 0.137h2.144c0.45-5e-3 0.779 0.012 1.047-0.137 0.135-0.074 0.24-0.2 0.3-0.357 0.058-0.157 0.08-0.341 0.08-0.576v-1.858c0-0.235-0.022-0.421-0.08-0.578a0.673 0.673 0 0 0-0.3-0.357c-0.268-0.15-0.597-0.132-1.046-0.137h-0.57zm-10.426 1h3v2h-3zm10 0h3v2h-3z" color="#000000" font-weight="400" overflow="visible" style="font-feature-settings:normal;font-variant-alternates:normal;font-variant-caps:normal;font-variant-ligatures:normal;font-variant-numeric:normal;font-variant-position:normal;isolation:auto;mix-blend-mode:normal;shape-padding:0;text-decoration-color:#000000;text-decoration-line:none;text-decoration-style:solid;text-indent:0;text-orientation:mixed;text-transform:none;white-space:normal"/>
<path d="m5.499 9c-0.829 0-1.496 0.667-1.496 1.496v0.016c0 0.829 0.667 1.496 1.496 1.496h0.016c0.83 0 1.496-0.667 1.496-1.496v-0.016c0-0.829-0.667-1.496-1.496-1.496z" color="#000000" display="block" style="isolation:auto;mix-blend-mode:normal"/>
<path d="m9.499 9c-0.829 0-1.496 0.667-1.496 1.496v0.016c0 0.829 0.667 1.496 1.496 1.496h0.016c0.83 0 1.496-0.667 1.496-1.496v-0.016c0-0.829-0.667-1.496-1.496-1.496z" color="#000000" display="block" style="isolation:auto;mix-blend-mode:normal"/>
<path d="m5.499 9c-0.829 0-1.496 0.667-1.496 1.496v0.016c0 0.829 0.667 1.496 1.496 1.496h0.016c0.83 0 1.496-0.667 1.496-1.496v-0.016c0-0.829-0.667-1.496-1.496-1.496z" color="#000000" display="block" style="isolation:auto;mix-blend-mode:normal"/>
</g>
</svg>
