<svg width="20" height="20" version="1.1" xmlns="http://www.w3.org/2000/svg">
<path d="m4.713 4.0003c-1.058-0.013-1.768 0.224-2.133 0.662-0.383 0.456-0.58 1.204-0.58 2.244v6.188c0 1.04 0.197 1.788 0.58 2.244 0.365 0.438 1.075 0.662 2.133 0.662h10.574c1.058 0 1.77-0.224 2.135-0.662 0.383-0.456 0.578-1.204 0.578-2.244v-6.188c0-1.04-0.195-1.788-0.578-2.244-0.365-0.438-1.077-0.662-2.135-0.662zm-1.713 3h1v5c1.11 0 2-0.89 2-2v-3h1v3c0 1.651-1.35 3-3 3h-1zm5 0h2c1.099 0 2 0.901 2 2 0 1.099-0.901 2-2 2h-1v2h-1v-5zm5 0h2c1.099 0 2 0.901 2 2v4h-1v-4c0-0.558-0.442-1-1-1h-1v5h-1v-5zm-4 1v2h1c0.558 0 1-0.442 1-1s-0.442-1-1-1z" fill="#fff" font-size="15" font-weight="400" letter-spacing="0" word-spacing="0"/>
</svg>
