<svg width="20" height="20" version="1.1" xmlns="http://www.w3.org/2000/svg">
<path d="m13.494 8c0.829 0 1.496 0.667 1.496 1.496v0.016c0 0.829-0.667 1.496-1.496 1.496h-0.016a1.493 1.493 0 0 1-1.496-1.496v-0.016c0-0.829 0.667-1.496 1.496-1.496zm-4 0c0.829 0 1.496 0.667 1.496 1.496v0.016c0 0.829-0.667 1.496-1.496 1.496h-0.016a1.493 1.493 0 0 1-1.496-1.496v-0.016c0-0.829 0.667-1.496 1.496-1.496zm-4 0c0.829 0 1.496 0.667 1.496 1.496v0.016c0 0.829-0.667 1.496-1.496 1.496h-0.016a1.493 1.493 0 0 1-1.496-1.496v-0.016c0-0.829 0.667-1.496 1.496-1.496z" color="#000000" display="block" fill="#fff" overflow="visible" style="isolation:auto;mix-blend-mode:normal"/>
<path d="m4.713 4.0003c-1.058-0.013-1.768 0.224-2.133 0.662-0.383 0.456-0.58 1.204-0.58 2.244v6.188c0 1.04 0.197 1.788 0.58 2.244 0.365 0.438 1.075 0.662 2.133 0.662h10.574c1.058 0 1.77-0.224 2.135-0.662 0.383-0.456 0.578-1.204 0.578-2.244v-6.188c0-1.04-0.195-1.788-0.578-2.244-0.365-0.438-1.077-0.662-2.135-0.662zm-1.713 3h1v0.508a2.483 2.483 0 0 1 1.5-0.508h9.5c1.099 0 2 0.901 2 2v4h-1v-3.5a2.492 2.492 0 0 1-2 2.45v1.05h-1v-1h-4v1h-1v-1h-1.783c-0.55 0.609-1.337 1-2.217 1h-1v-3.5zm13 2.5v-0.5c0-0.3-0.134-0.56-0.34-0.742 0.21 0.367 0.34 0.787 0.34 1.242zm-12 1.992v0.508c0.254 0 0.494-0.052 0.717-0.137a2.474 2.474 0 0 1-0.717-0.37z" fill="#fff" font-size="15" font-weight="400" letter-spacing="0" word-spacing="0"/>
</svg>
