<svg width="20" height="20" version="1.1" xmlns="http://www.w3.org/2000/svg">
<path d="m4.713 4.0003c-1.058-0.013-1.768 0.224-2.133 0.662-0.383 0.456-0.58 1.204-0.58 2.244v6.188c0 1.04 0.197 1.788 0.58 2.244 0.365 0.438 1.075 0.662 2.133 0.662h10.574c1.058 0 1.77-0.224 2.135-0.662 0.383-0.456 0.578-1.204 0.578-2.244v-6.188c0-1.04-0.195-1.788-0.578-2.244-0.365-0.438-1.077-0.662-2.135-0.662zm2.996 2.766h4.367v1.222h-2.912v1.27h2.586v1.195h-2.586v1.559h3.127v1.222h-4.582z" fill="#fff" font-size="15" font-weight="400" letter-spacing="0" word-spacing="0"/>
</svg>
