<svg width="20" height="20" version="1.1" xmlns="http://www.w3.org/2000/svg">
<path d="m13.738 4.5575c0.2 0.289 0.368 0.6 0.46 0.937 0.036 0.12 0.056 0.24 0.083 0.362 0.674 0.287 1.326 0.636 1.948 1.058l-4.74 6.143v0.06h-0.05l-0.21 0.274c0.095 0.055 0.183 0.12 0.257 0.203 0.157 0.174 0.282 0.387 0.373 0.613l5.805-7.517-0.264-0.205a12.076 12.076 0 0 0-3.664-1.928zm-8.125 0.236c-1.059 0.411-2.076 0.967-3.011 1.688l-0.266 0.205 0.205 0.263 5.598 7.262c0.09-0.228 0.219-0.442 0.377-0.617 0.074-0.083 0.16-0.148 0.256-0.203l-0.211-0.274h-0.043l-0.012-0.07-4.733-6.137a11.46 11.46 0 0 1 2.36-1.224l-0.559-0.866zm6.573 0.066v0.01c0 2e-3 0.01 0 0.01 2e-3zm-2.2 10.108v0.014c0 0.066-0.024 3e-3 0.018 0.048v-4e-3c0.03-0.027 0.017 0.016 0.017-0.044v-0.012l-0.012 0.016z" color="#000000" fill="#fff" font-weight="400" opacity=".5" overflow="visible" style="font-feature-settings:normal;font-variant-alternates:normal;font-variant-caps:normal;font-variant-ligatures:none;font-variant-numeric:normal;font-variant-position:normal;isolation:auto;mix-blend-mode:normal;shape-padding:0;text-decoration-color:#000000;text-decoration-line:none;text-decoration-style:solid;text-indent:0;text-transform:none;white-space:normal"/>
<path d="m10.271 4.0005c-0.533 0-1.037 0.061-1.512 0.183a5.853 5.853 0 0 0-1.167 0.446l-0.658 0.458 0.566 0.876 0.452-0.336c0.688-0.35 1.394-0.54 2.116-0.54 0.607 0 1.09 0.16 1.421 0.491 0.327 0.316 0.493 0.737 0.493 1.236 0 0.311-0.073 0.603-0.217 0.868-0.13 0.258-0.299 0.503-0.508 0.736-0.205 0.227-0.42 0.455-0.648 0.682v1e-3c-0.222 0.211-0.433 0.444-0.633 0.7v2e-3a3.66 3.66 0 0 0-0.492 0.786 2.378 2.378 0 0 0-0.177 0.935c0 0.208 0.024 0.403 0.056 0.594h1.088c-1e-3 -0.023-0.01-0.044-0.01-0.068v-0.187c0-0.387 0.077-0.74 0.232-1.05 0.15-0.314 0.336-0.599 0.557-0.855v-2e-3c0.218-0.264 0.458-0.515 0.721-0.755a7.23 7.23 0 0 0 0.7-0.734c0.21-0.253 0.384-0.522 0.527-0.807 0.138-0.288 0.209-0.613 0.209-0.982 0-0.292-0.048-0.597-0.147-0.914l-1e-3 -2e-3v-2e-3a2.04 2.04 0 0 0-0.482-0.867c-0.234-0.255-0.552-0.466-0.957-0.63v-2e-3c-0.385-0.172-0.895-0.261-1.528-0.261zm-0.27 9.963c-0.326 0-0.562 0.1-0.743 0.3a1.025 1.025 0 0 0-0.275 0.718c0 0.279 0.089 0.512 0.275 0.718 0.18 0.2 0.417 0.3 0.742 0.3s0.562-0.099 0.743-0.3c0.186-0.206 0.275-0.44 0.275-0.718 0-0.28-0.089-0.512-0.275-0.718-0.18-0.2-0.418-0.3-0.743-0.3z" fill="#fff" font-size="72.036" font-weight="500" letter-spacing="0" word-spacing="0"/>
</svg>
