<svg width="20" height="20" version="1.1" xmlns="http://www.w3.org/2000/svg">
<path d="m16.996 2.293-2.924 2.924c0.041 0.103 0.096 0.2 0.125 0.306 0.015 0.048 0.015 0.097 0.027 0.145 0.057 0.207 0.096 0.413 0.121 0.62 0 0.019 0.01 0.038 0.013 0.058l1.638-1.639v11.293h-4.24a2.011 2.011 0 0 1-0.272 0.404c-0.01 0.012-0.024 0.022-0.035 0.034a1.664 1.664 0 0 1-0.242 0.207c-0.043 0.03-0.089 0.056-0.135 0.084a2.014 2.014 0 0 1-0.148 0.078 2.21 2.21 0 0 1-0.578 0.193h6.652zm-8.637 8.637-6.07 6.07h7.362a2.187 2.187 0 0 1-0.74-0.28c-0.04-0.023-0.079-0.044-0.116-0.07a1.666 1.666 0 0 1-0.283-0.246c-0.01-9e-3 -0.012-0.022-0.02-0.03a2.017 2.017 0 0 1-0.247-0.368v-6e-3h-3.535l3.67-3.67v-8e-3a4.453 4.453 0 0 1-0.07-0.762c0-0.214 0.022-0.424 0.059-0.63z" color="#000000" font-weight="400" opacity=".5" overflow="visible" style="font-feature-settings:normal;font-variant-alternates:normal;font-variant-caps:normal;font-variant-ligatures:normal;font-variant-numeric:normal;font-variant-position:normal;isolation:auto;mix-blend-mode:normal;shape-padding:0;text-decoration-color:#000000;text-decoration-line:none;text-decoration-style:solid;text-indent:0;text-orientation:mixed;text-transform:none;white-space:normal"/>
<path d="m10.267 4.037c-0.533 0-1.037 0.061-1.512 0.183a5.853 5.853 0 0 0-1.167 0.446l-0.658 0.458 0.566 0.876 0.452-0.336c0.688-0.35 1.394-0.54 2.116-0.54 0.607 0 1.09 0.16 1.421 0.491 0.327 0.316 0.493 0.737 0.493 1.236 0 0.311-0.073 0.603-0.217 0.868-0.13 0.258-0.299 0.503-0.508 0.736-0.205 0.227-0.42 0.455-0.648 0.682v1e-3a6.392 6.392 0 0 0-0.633 0.7l-1e-3 2e-3a3.66 3.66 0 0 0-0.492 0.786 2.378 2.378 0 0 0-0.177 0.935c0 0.208 0.024 0.403 0.056 0.594h1.088c-1e-3 -0.023-0.01-0.044-0.01-0.068v-0.187c0-0.387 0.077-0.74 0.232-1.05 0.15-0.314 0.336-0.599 0.557-0.855l2e-3 -2e-3c0.218-0.264 0.458-0.515 0.721-0.755a7.23 7.23 0 0 0 0.7-0.734c0.21-0.253 0.384-0.522 0.527-0.807 0.138-0.288 0.209-0.613 0.209-0.982a3.06 3.06 0 0 0-0.147-0.914l-1e-3 -2e-3v-2e-3a2.04 2.04 0 0 0-0.482-0.867c-0.234-0.255-0.552-0.466-0.957-0.63v-2e-3c-0.385-0.172-0.895-0.261-1.528-0.261zm-0.27 9.963c-0.326 0-0.562 0.1-0.743 0.3a1.025 1.025 0 0 0-0.275 0.718c0 0.279 0.089 0.512 0.275 0.718 0.18 0.2 0.417 0.3 0.742 0.3 0.325 0 0.562-0.099 0.743-0.3 0.186-0.206 0.275-0.44 0.275-0.718 0-0.28-0.089-0.512-0.275-0.718-0.18-0.2-0.418-0.3-0.743-0.3z" font-size="72.036" font-weight="500" letter-spacing="0" opacity=".5" word-spacing="0"/>
</svg>
