<svg width="20" height="20" version="1.1" xmlns="http://www.w3.org/2000/svg">
<path d="m13.738 4.5566c0.0033 0.00484 0.0045 0.010776 0.0078 0.015625 0.19559 0.28489 0.36071 0.59051 0.45117 0.92188 0.036 0.12 0.05698 0.24128 0.08398 0.36328 0.674 0.287 1.3253 0.63464 1.9473 1.0566l-2.6484 3.4336a2.898 2.898 0 0 1 0.25586-0.13086 2.898 2.898 0 0 1 0.26953-0.10547 2.898 2.898 0 0 1 0.2793-0.07813 2.898 2.898 0 0 1 0.28516-0.048828 2.898 2.898 0 0 1 0.28906-0.021484 2.898 2.898 0 0 1 0.04297 0c0.04235 0 0.08271 0.011418 0.125 0.013672l2.5371-3.2852-0.26367-0.20508a12.076 12.076 0 0 0-0.99414-0.69141 12.076 12.076 0 0 0-2.2832-1.1035 12.076 12.076 0 0 0-0.38477-0.13477zm-8.125 0.23633c-1.059 0.411-2.0767 0.96845-3.0117 1.6895l-0.26562 0.20312 0.20508 0.26367 5.5254 7.168 0.07227 0.09375c0.09-0.228 0.21895-0.44219 0.37695-0.61719 0.074-0.083 0.15986-0.14812 0.25586-0.20312l-0.21094-0.27344h-0.04302l-0.01172-0.06836v-2e-3l-4.7324-6.1367a11.46 11.46 0 0 1 2.3594-1.2246l-0.52339-0.8105-0.03516-0.054687zm6.5098 7.4414-0.5625 0.72852h0.45508c0-0.253 0.04738-0.49352 0.10938-0.72852zm-2.1367 2.7324v0.01563c0 0.066-0.02442 0.0019 0.017578 0.04687v-0.0039c0.03-0.027 0.01758 0.01703 0.01758-0.04297v-0.01367l-0.01172 0.01758z" color="#000000" opacity=".5" style="font-feature-settings:normal;font-variant-alternates:normal;font-variant-caps:normal;font-variant-ligatures:none;font-variant-numeric:normal;font-variant-position:normal;isolation:auto;mix-blend-mode:normal;shape-padding:0;text-decoration-color:#000000;text-decoration-line:none;text-decoration-style:solid;text-indent:0;text-transform:none;white-space:normal"/>
<path d="m15.002 10.963c-1.108 0-2 0.91025-2 2.0312v0.96875h-1v4h6v-4h-1v-0.96875c0-1.12-0.892-2.0312-2-2.0312zm0 1c0.554 0 1 0.442 1 1v1h-2v-1c0-0.558 0.446-1 1-1z" color="#000000" opacity=".5" style="font-feature-settings:normal;font-variant-alternates:normal;font-variant-caps:normal;font-variant-ligatures:none;font-variant-numeric:normal;font-variant-position:normal;isolation:auto;mix-blend-mode:normal;shape-padding:0;text-decoration-color:#000000;text-decoration-line:none;text-decoration-style:solid;text-indent:0;text-transform:none;white-space:normal"/>
<path d="m10.271 4.0005c-0.533 0-1.037 0.061-1.512 0.183a5.853 5.853 0 0 0-1.167 0.446l-0.658 0.458 0.566 0.876 0.452-0.336c0.688-0.35 1.394-0.54 2.116-0.54 0.607 0 1.09 0.16 1.421 0.491 0.327 0.316 0.493 0.737 0.493 1.236 0 0.311-0.073 0.603-0.217 0.868-0.13 0.258-0.299 0.503-0.508 0.736-0.205 0.227-0.42 0.455-0.648 0.682v1e-3c-0.222 0.211-0.433 0.444-0.633 0.7v2e-3a3.66 3.66 0 0 0-0.492 0.786 2.378 2.378 0 0 0-0.177 0.935c0 0.208 0.024 0.403 0.056 0.594h1.088c-1e-3 -0.023-0.01-0.044-0.01-0.068v-0.187c0-0.387 0.077-0.74 0.232-1.05 0.15-0.314 0.336-0.599 0.557-0.855v-2e-3c0.218-0.264 0.458-0.515 0.721-0.755a7.23 7.23 0 0 0 0.7-0.734c0.21-0.253 0.384-0.522 0.527-0.807 0.138-0.288 0.209-0.613 0.209-0.982 0-0.292-0.048-0.597-0.147-0.914l-1e-3 -2e-3v-2e-3a2.04 2.04 0 0 0-0.482-0.867c-0.234-0.255-0.552-0.466-0.957-0.63v-2e-3c-0.385-0.172-0.895-0.261-1.528-0.261zm-0.27 9.963c-0.326 0-0.562 0.1-0.743 0.3a1.025 1.025 0 0 0-0.275 0.718c0 0.279 0.089 0.512 0.275 0.718 0.18 0.2 0.417 0.3 0.742 0.3s0.562-0.099 0.743-0.3c0.186-0.206 0.275-0.44 0.275-0.718 0-0.28-0.089-0.512-0.275-0.718-0.18-0.2-0.418-0.3-0.743-0.3z" font-size="72.036" font-weight="500" letter-spacing="0" word-spacing="0"/>
</svg>
