<svg width="20" height="20" version="1.1" xmlns="http://www.w3.org/2000/svg">
<path d="m4.713 4.0003c-1.058-0.013-1.768 0.224-2.133 0.662-0.383 0.456-0.58 1.204-0.58 2.244v6.188c0 1.04 0.197 1.788 0.58 2.244 0.365 0.438 1.075 0.662 2.133 0.662h10.574c1.058 0 1.77-0.224 2.135-0.662 0.383-0.456 0.578-1.204 0.578-2.244v-6.188c0-1.04-0.195-1.788-0.578-2.244-0.365-0.438-1.077-0.662-2.135-0.662zm8.578 2.63c0.305 0 0.58 0.024 0.822 0.067 0.25 0.038 0.46 0.083 0.635 0.139a2.752 2.752 0 0 1 0.69 0.29l-0.42 1.167a3.539 3.539 0 0 0-0.69-0.271 2.766 2.766 0 0 0-0.84-0.122c-0.678 0-1.17 0.19-1.474 0.569-0.299 0.373-0.45 0.887-0.45 1.54 0 0.318 0.04 0.607 0.114 0.868a1.9 1.9 0 0 0 0.336 0.662c0.149 0.187 0.334 0.334 0.558 0.44 0.224 0.1 0.487 0.15 0.785 0.15 0.162 0 0.299-4e-3 0.41-0.01 0.119-6e-3 0.222-0.018 0.31-0.037v-2.25h1.454v3.201c-0.174 0.069-0.454 0.14-0.84 0.215-0.385 0.08-0.861 0.121-1.427 0.121-0.486 0-0.928-0.073-1.326-0.223a2.77 2.77 0 0 1-1.008-0.654 2.967 2.967 0 0 1-0.653-1.055 4.219 4.219 0 0 1-0.224-1.427c0-0.542 0.084-1.021 0.252-1.438s0.399-0.768 0.691-1.055a2.883 2.883 0 0 1 1.025-0.662c0.399-0.149 0.822-0.224 1.27-0.224zm-5.984 0.15h1.313v3.882h0.692v1.139h-0.692v1.447h-1.36v-1.447h-2.791v-1.018c0.137-0.274 0.308-0.581 0.513-0.924a17.682 17.682 0 0 1 1.483-2.136c0.28-0.349 0.562-0.664 0.842-0.944zm-0.047 1.698c-0.243 0.317-0.502 0.663-0.776 1.037a7.107 7.107 0 0 0-0.691 1.146h1.467z" font-size="15" font-weight="400" letter-spacing="0" word-spacing="0"/>
</svg>
