<svg width="20" height="20" version="1.1" xmlns="http://www.w3.org/2000/svg">
<path d="m15.909 3.3076-3.304 3.307c0.732 0.273 1.5 0.527 2.306 0.764 0.8 0.231 1.592 0.436 2.375 0.612a48.514 48.514 0 0 0-0.621-2.366 40.298 40.298 0 0 0-0.756-2.316z" color="#000000" fill="#fff" overflow="visible"/>
<path d="m10.102 3.0006a7.003 7.003 0 0 0-7.102 7 7.003 7.003 0 0 0 4.895 6.676 7.005 7.005 0 0 0 7.84-2.66l0.287-0.41-0.82-0.575-0.288 0.41a5.996 5.996 0 0 1-6.719 2.282 5.996 5.996 0 0 1-4.195-5.723 5.996 5.996 0 0 1 4.195-5.723 5.996 5.996 0 0 1 6.72 2.282l0.286 0.41 0.82-0.574-0.287-0.41a7.006 7.006 0 0 0-5.632-2.985z" color="#000000" fill="#fff" font-weight="400" overflow="visible" style="font-feature-settings:normal;font-variant-alternates:normal;font-variant-caps:normal;font-variant-ligatures:normal;font-variant-numeric:normal;font-variant-position:normal;isolation:auto;mix-blend-mode:normal;shape-padding:0;text-decoration-color:#000000;text-decoration-line:none;text-decoration-style:solid;text-indent:0;text-orientation:mixed;text-transform:none;white-space:normal"/>
</svg>
