<svg width="20" height="20" version="1.1" xmlns="http://www.w3.org/2000/svg">
<path d="m10.002 4.002c-2.61 0-5.2204 0.83758-7.4004 2.5176l-0.26562 0.20508 0.20312 0.26367 7.457 9.6719 1.7246-2.2324-0.71289-0.71289-1.0098 1.3086-6.2246-8.0742c1.883-1.278 4.0475-1.9483 6.2285-1.9473 2.181 0 4.3436 0.67217 6.2266 1.9512l-3.7324 4.8359 0.71094 0.71094 4.457-5.7715-0.26367-0.20508a12.105 12.105 0 0 0-7.3984-2.5215z" fill="#fff" opacity=".5" style="font-feature-settings:normal;font-variant-alternates:normal;font-variant-caps:normal;font-variant-ligatures:none;font-variant-numeric:normal;font-variant-position:normal;isolation:auto;mix-blend-mode:normal;shape-padding:0;text-decoration-color:#000000;text-decoration-line:none;text-decoration-style:solid;text-indent:0;text-transform:none;white-space:normal"/>
<g transform="translate(-.208 .78)" fill="#fff" fill-rule="evenodd">
<path d="m12.501 11.806-0.707 0.707 0.353 0.354 4 4 0.354 0.353 0.707-0.707-4.354-4.354z" color="#000000" overflow="visible" style="font-feature-settings:normal;font-variant-alternates:normal;font-variant-caps:normal;font-variant-ligatures:normal;font-variant-numeric:normal;font-variant-position:normal;isolation:auto;mix-blend-mode:normal;shape-padding:0;text-decoration-color:#000000;text-decoration-line:none;text-decoration-style:solid;text-indent:0;text-orientation:mixed;text-transform:none;white-space:normal"/>
<path d="m16.501 11.806-4.707 4.707 0.707 0.707 0.354-0.353 4-4 0.353-0.354z" color="#000000" overflow="visible" style="font-feature-settings:normal;font-variant-alternates:normal;font-variant-caps:normal;font-variant-ligatures:normal;font-variant-numeric:normal;font-variant-position:normal;isolation:auto;mix-blend-mode:normal;shape-padding:0;text-decoration-color:#000000;text-decoration-line:none;text-decoration-style:solid;text-indent:0;text-orientation:mixed;text-transform:none;white-space:normal"/>
</g>
</svg>
