<?xml version="1.0" encoding="UTF-8" standalone="no"?>
<svg
   width="48"
   height="48"
   version="1"
   id="svg65"
   sodipodi:docname="audio-card.svg"
   inkscape:version="1.1.2 (0a00cf5339, 2022-02-04)"
   xmlns:inkscape="http://www.inkscape.org/namespaces/inkscape"
   xmlns:sodipodi="http://sodipodi.sourceforge.net/DTD/sodipodi-0.dtd"
   xmlns="http://www.w3.org/2000/svg"
   xmlns:svg="http://www.w3.org/2000/svg">
  <sodipodi:namedview
     id="namedview67"
     pagecolor="#ffffff"
     bordercolor="#666666"
     borderopacity="1.0"
     inkscape:pageshadow="2"
     inkscape:pageopacity="0.0"
     inkscape:pagecheckerboard="0"
     showgrid="false"
     inkscape:zoom="17.333333"
     inkscape:cx="24"
     inkscape:cy="24.028847"
     inkscape:window-width="1920"
     inkscape:window-height="1003"
     inkscape:window-x="0"
     inkscape:window-y="0"
     inkscape:window-maximized="1"
     inkscape:current-layer="svg65" />
  <defs
     id="defs27">
    <linearGradient
       id="linearGradient4884"
       x1="325.5"
       x2="362.5"
       y1="96.752"
       y2="71.248"
       gradientTransform="rotate(90 214 -106)"
       gradientUnits="userSpaceOnUse">
      <stop
         stop-color="#216c4d"
         offset="0"
         id="stop2" />
      <stop
         stop-color="#2d976b"
         offset="1"
         id="stop4" />
    </linearGradient>
    <linearGradient
       id="linearGradient2453"
       x1="341"
       x2="347"
       y1="76"
       y2="92"
       gradientTransform="translate(-320,-60)"
       gradientUnits="userSpaceOnUse">
      <stop
         stop-color="#313131"
         offset="0"
         id="stop7" />
      <stop
         stop-color="#535353"
         offset="1"
         id="stop9" />
    </linearGradient>
    <filter
       id="filter4459"
       x="-0.1584"
       y="-0.1584"
       width="1.3168"
       height="1.3168"
       color-interpolation-filters="sRGB">
      <feGaussianBlur
         stdDeviation="0.132"
         id="feGaussianBlur12" />
    </filter>
    <linearGradient
       id="linearGradient1004"
       x1="344"
       x2="344"
       y1="66.001"
       y2="102"
       gradientTransform="rotate(-90,344,84)"
       gradientUnits="userSpaceOnUse">
      <stop
         stop-color="#fff"
         offset="0"
         id="stop15" />
      <stop
         stop-color="#fff"
         stop-opacity=".098039"
         offset=".125"
         id="stop17" />
      <stop
         stop-color="#fff"
         stop-opacity=".098039"
         offset=".925"
         id="stop19" />
      <stop
         stop-color="#fff"
         stop-opacity=".49804"
         offset="1"
         id="stop21" />
    </linearGradient>
    <clipPath
       id="clipPath994-3">
      <path
         d="m335.73 62c-8.8242 0-9.7736 0.90635-9.7304 9.7484v12.252 12.252c-0.0433 8.842 0.90622 9.7484 9.7304 9.7484h16.539c8.8242 0 9.7304-0.90625 9.7304-9.7484v-12.252-12.252c0-8.8421-0.90622-9.7484-9.7304-9.7484z"
         color="#000000"
         fill="#cdcdcd"
         id="path24" />
    </clipPath>
  </defs>
  <path
     d="m47.5 16.231c0-2.2232-0.0512-3.9737-0.29297-5.4141-0.24178-1.4404-0.69529-2.6191-1.5566-3.4824-0.86134-0.86337-2.0395-1.3191-3.4805-1.5586-1.441-0.23953-3.1954-0.28629-5.4238-0.27539h-12.746-12.752c-2.2251-0.0108-3.9785 0.0361-5.418 0.27539-1.441 0.23953-2.6191 0.69522-3.4805 1.5586-0.86134 0.86338-1.3149 2.042-1.5566 3.4824-0.24179 1.4404-0.29297 3.1909-0.29297 5.4141v17.539c0 2.2232 0.0511 3.9728 0.29297 5.4102 0.24189 1.4374 0.69694 2.6125 1.5586 3.4727 0.86165 0.8602 2.0389 1.3132 3.4785 1.5547 1.4396 0.24149 3.1904 0.29297 5.418 0.29297h12.752 12.752c2.2276 0 3.9784-0.0515 5.418-0.29297 1.4396-0.24149 2.6169-0.69449 3.4785-1.5547 0.86165-0.86019 1.3167-2.0352 1.5586-3.4727 0.24189-1.4374 0.29297-3.187 0.29297-5.4102z"
     color="#000000"
     color-rendering="auto"
     dominant-baseline="auto"
     image-rendering="auto"
     opacity=".1"
     shape-rendering="auto"
     solid-color="#000000"
     style="font-feature-settings:normal;font-variant-alternates:normal;font-variant-caps:normal;font-variant-ligatures:normal;font-variant-numeric:normal;font-variant-position:normal;isolation:auto;mix-blend-mode:normal;shape-padding:0;text-decoration-color:#000000;text-decoration-line:none;text-decoration-style:solid;text-indent:0;text-orientation:mixed;text-transform:none;white-space:normal"
     id="path29" />
  <path
     d="m46.501 15.231c0-8.2315-0.90635-9.7737-9.7484-9.7304h-12.752-12.752c-8.842-0.0433-9.7484 1.4989-9.7484 9.7304v17.539c0 8.2295 0.90625 9.7304 9.7484 9.7304h12.752 12.752c8.8421 0 9.7484-1.5009 9.7484-9.7304z"
     color="#000000"
     fill="url(#linearGradient4884)"
     id="path31" />
  <path
     d="m19 7v9c0 0.554 0.446 1 1 1s1-0.446 1-1v-9zm4 0v9c0 0.554 0.446 1 1 1s1-0.446 1-1v-9h-1zm4 0v9c0 0.554 0.446 1 1 1s1-0.446 1-1v-9zm14 5c-0.554 0-1 0.42509-1 0.95312v6.0469h-8c-0.554 0-1 0.42509-1 0.95312v0.09375c0 0.52803 0.446 0.95312 1 0.95312h9c0.1385 0 0.27093-0.02612 0.39062-0.07422 0.35916-0.14431 0.60938-0.48288 0.60938-0.8789v-7.0938c0-0.52803-0.446-0.95312-1-0.95312zm-34 1c-0.554 0-1 0.446-1 1s0.446 1 1 1h2v5c0 0.554 0.446 1 1 1h6c0.554 0 1-0.446 1-1s-0.446-1-1-1h-5v-5c0-0.554-0.446-1-1-1zm0 10c-0.554 0-1 0.42509-1 0.95312v0.09375c0 0.52803 0.446 0.95312 1 0.95312h9c0.554 0 1-0.42509 1-0.95312v-0.09375c0-0.52803-0.446-0.95312-1-0.95312zm25 0c-0.554 0-1 0.42509-1 0.95312v0.09375c0 0.52803 0.446 0.95312 1 0.95312h9c0.554 0 1-0.42509 1-0.95312v-0.09375c0-0.52803-0.446-0.95312-1-0.95312zm-25 4c-0.554 0-1 0.42509-1 0.95312v7.0938c0 0.52803 0.446 0.95312 1 0.95312s1-0.42509 1-0.95312v-6.0469h8c0.554 0 1-0.42509 1-0.95312v-0.09375c0-0.52803-0.446-0.95312-1-0.95312zm25 0c-0.554 0-1 0.446-1 1s0.446 1 1 1h5v5c0 0.554 0.446 1 1 1h3c0.554 0 1-0.446 1-1s-0.446-1-1-1h-2v-5c0-0.554-0.446-1-1-1zm-12 4c-0.554 0-1 0.446-1 1v9h2v-9c0-0.554-0.446-1-1-1zm4 0c-0.554 0-1 0.446-1 1v9h2v-9c0-0.554-0.446-1-1-1zm4 0c-0.554 0-1 0.446-1 1v9h2v-9c0-0.554-0.446-1-1-1z"
     enable-background="new"
     fill="#5ca487"
     id="path33" />
  <rect
     x="15"
     y="16"
     width="18"
     height="18"
     rx="2"
     ry="2"
     enable-background="new"
     opacity=".1"
     id="rect35" />
  <rect
     x="15"
     y="15"
     width="18"
     height="18"
     rx="2"
     ry="2"
     enable-background="new"
     fill="#7ea193"
     id="rect37" />
  <path
     d="m19 13v6h-6v2h6v2h-6v2h6v2h-6v2h6v6h2v-6h2v6h2v-6h2v6h2v-6h6v-2h-6v-2h6v-2h-6v-2h6v-2h-6v-6h-2v6h-2v-6h-2v6h-2v-6zm2 8h2v2h-2zm4 0h2v2h-2zm-4 4h2v2h-2zm4 0h2v2h-2z"
     enable-background="new"
     fill="#eab305"
     opacity=".8"
     id="path39" />
  <rect
     x="17"
     y="17"
     width="14"
     height="14"
     enable-background="new"
     fill="url(#linearGradient2453)"
     id="rect41" />
  <path
     d="m1.5078 24v8.752c-0.0317 9.6511 1.8228 9.748 11.834 9.748h21.33c10.009 0 11.834-0.15592 11.834-9.748v-8.752z"
     color="#000000"
     fill="#fff"
     opacity=".06"
     id="path43" />
  <rect
     x="17"
     y="17"
     width="14"
     height="1"
     enable-background="new"
     fill="#fff"
     opacity=".6"
     id="rect45" />
  <rect
     x="17"
     y="30"
     width="14"
     height="1"
     enable-background="new"
     opacity=".2"
     id="rect47" />
  <circle
     cx="41"
     cy="13"
     r="1"
     enable-background="new"
     fill="#fff"
     opacity=".8"
     id="circle49" />
  <circle
     cx="41"
     cy="34"
     r="1"
     enable-background="new"
     fill="#fff"
     opacity=".8"
     id="circle51" />
  <circle
     cx="7"
     cy="24"
     r="1"
     enable-background="new"
     fill="#81e9c0"
     opacity=".8"
     id="circle53" />
  <circle
     cx="41"
     cy="24"
     r="1"
     enable-background="new"
     fill="#fec589"
     opacity=".8"
     id="circle55" />
  <circle
     cx="7"
     cy="14"
     r="1"
     enable-background="new"
     fill="#e97cc8"
     filter="url(#filter4459)"
     opacity=".8"
     id="circle57" />
  <circle
     cx="7"
     cy="35"
     r="1"
     enable-background="new"
     fill="#c5c9f5"
     opacity=".8"
     id="circle59" />
  <path
     d="m46.501 15.231c0-8.2315-0.90635-9.7737-9.7484-9.7304h-12.752-12.752c-8.842-0.0433-9.7484 1.4989-9.7484 9.7304v17.539c0 8.2295 0.90625 9.7304 9.7484 9.7304h12.752 12.752c8.8421 0 9.7484-1.5009 9.7484-9.7304z"
     color="#000000"
     fill="none"
     opacity=".4"
     stroke="#000"
     id="path61" />
  <path
     transform="rotate(90,214,-106)"
     d="m335.73 62c-8.8242 0-9.7736 0.90635-9.7304 9.7484v12.252 12.252c-0.0433 8.842 0.90622 9.7484 9.7304 9.7484h16.539c8.8242 0 9.7304-0.90625 9.7304-9.7484v-12.252-12.252c0-8.8421-0.90622-9.7484-9.7304-9.7484z"
     clip-path="url(#clipPath994-3)"
     color="#000000"
     fill="none"
     opacity=".6"
     stroke="url(#linearGradient1004)"
     stroke-width="2"
     id="path63" />
</svg>
