<?xml version="1.0" encoding="UTF-8" standalone="no"?>
<svg
   xmlns:dc="http://purl.org/dc/elements/1.1/"
   xmlns:cc="http://creativecommons.org/ns#"
   xmlns:rdf="http://www.w3.org/1999/02/22-rdf-syntax-ns#"
   xmlns:svg="http://www.w3.org/2000/svg"
   xmlns="http://www.w3.org/2000/svg"
   xmlns:sodipodi="http://sodipodi.sourceforge.net/DTD/sodipodi-0.dtd"
   xmlns:inkscape="http://www.inkscape.org/namespaces/inkscape"
   width="16"
   height="16"
   version="1.1"
   id="svg4"
   sodipodi:docname="emblem-dialog-question-symbolic.svg"
   inkscape:version="0.92.3 (2405546, 2018-03-11)">
  <metadata
     id="metadata10">
    <rdf:RDF>
      <cc:Work
         rdf:about="">
        <dc:format>image/svg+xml</dc:format>
        <dc:type
           rdf:resource="http://purl.org/dc/dcmitype/StillImage" />
      </cc:Work>
    </rdf:RDF>
  </metadata>
  <defs
     id="defs8" />
  <sodipodi:namedview
     pagecolor="#ffffff"
     bordercolor="#666666"
     borderopacity="1"
     objecttolerance="10"
     gridtolerance="10"
     guidetolerance="10"
     inkscape:pageopacity="0"
     inkscape:pageshadow="2"
     inkscape:window-width="640"
     inkscape:window-height="480"
     id="namedview6"
     showgrid="false"
     inkscape:zoom="18.25"
     inkscape:cx="-1.260274"
     inkscape:cy="7.5616438"
     inkscape:current-layer="svg4" />
  <path
     style="fill:#808080;fill-opacity:1"
     d="M 8 0 C 3.576 0 0 3.576 0 8 C 0 12.424 3.576 16 8 16 C 12.424 16 16 12.424 16 8 C 16 3.576 12.424 0 8 0 z M 8 1 C 11.87 1 15 4.13 15 8 C 15 11.87 11.87 15 8 15 C 4.13 15 1 11.87 1 8 C 1 4.13 4.13 1 8 1 z "
     id="path823" />
  <path
     d="M 8.063,3 C 6.811,2.976 5.499,3.47 5.093,4.438 c -0.234,0.538 -0.006,1.5 0.782,1.5 0.46,0 0.653,-0.315 0.688,-0.594 C 6.589,5.132 6.519,4.956 6.469,4.781 6.412,4.582 6.642,4.188 6.906,4.031 7.127,3.9 7.372,3.852 7.406,3.844 8.201,3.648 8.982,4.099 9.313,4.625 9.643,5.151 9.273,5.942 8.75,6.719 8.227,7.495 7.685,8.376 7.688,9.312 7.688,9.669 7.634,9.793 7.656,9.938 7.674,10.053 8.059,10.054 8.344,10 8.319,9.093 8.508,8.186 9.344,7.562 10.227,6.857 11.09,5.978 11,4.937 10.98,3.934 9.822,3.144 8.594,3.031 A 4.39,4.39 0 0 0 8.063,3 Z"
     id="path819"
     style="fill:#808080;fill-opacity:1" />
  <path
     d="m 7.719,11.219 c -0.603,0.148 -0.962,0.914 -0.563,1.406 0.408,0.621 1.554,0.453 1.75,-0.25 0.204,-0.547 -0.307,-1.165 -0.937,-1.156 -0.095,-0.005 -0.164,-0.021 -0.25,0 z"
     id="path2"
     style="fill:#808080;fill-opacity:1" />
</svg>
