<?xml version="1.0" encoding="UTF-8" standalone="no"?>
<svg
   xmlns:dc="http://purl.org/dc/elements/1.1/"
   xmlns:cc="http://creativecommons.org/ns#"
   xmlns:rdf="http://www.w3.org/1999/02/22-rdf-syntax-ns#"
   xmlns:svg="http://www.w3.org/2000/svg"
   xmlns="http://www.w3.org/2000/svg"
   xmlns:sodipodi="http://sodipodi.sourceforge.net/DTD/sodipodi-0.dtd"
   xmlns:inkscape="http://www.inkscape.org/namespaces/inkscape"
   width="16"
   height="16"
   version="1.1"
   id="svg6"
   sodipodi:docname="emblem-people.svg"
   inkscape:version="0.92.3 (2405546, 2018-03-11)">
  <metadata
     id="metadata12">
    <rdf:RDF>
      <cc:Work
         rdf:about="">
        <dc:format>image/svg+xml</dc:format>
        <dc:type
           rdf:resource="http://purl.org/dc/dcmitype/StillImage" />
      </cc:Work>
    </rdf:RDF>
  </metadata>
  <defs
     id="defs10" />
  <sodipodi:namedview
     pagecolor="#ffffff"
     bordercolor="#666666"
     borderopacity="1"
     objecttolerance="10"
     gridtolerance="10"
     guidetolerance="10"
     inkscape:pageopacity="0"
     inkscape:pageshadow="2"
     inkscape:window-width="640"
     inkscape:window-height="480"
     id="namedview8"
     showgrid="false"
     inkscape:zoom="18.25"
     inkscape:cx="-1.260274"
     inkscape:cy="7.5616438"
     inkscape:current-layer="svg6" />
  <path
     style="color:#000000;font-weight:400;font-family:Ubuntu;letter-spacing:0;word-spacing:0;overflow:visible;fill:#808080;fill-opacity:1"
     d="M 8 1 C 7.471 1 6.9678594 1.0979219 6.5058594 1.2949219 C 6.0458594 1.4829219 5.6378281 1.7582344 5.2988281 2.1152344 L 5.296875 2.1191406 L 5.2949219 2.1210938 C 4.9649219 2.4800937 4.7092969 2.9103906 4.5292969 3.4003906 A 4.551 4.551 0 0 0 4.2597656 5.0019531 C 4.2597656 5.5819531 4.3462969 6.1232812 4.5292969 6.6132812 C 4.7092969 7.0952813 4.9649219 7.5209063 5.2949219 7.8789062 L 5.296875 7.8808594 L 5.2988281 7.8828125 C 5.6368281 8.2388125 6.042 8.5188437 6.5 8.7148438 L 6.5039062 8.7167969 L 6.5078125 8.71875 C 6.9698125 8.90675 7.472 9 8 9 C 8.528 9 9.0282344 8.90675 9.4902344 8.71875 L 9.4902344 8.7167969 A 3.47 3.47 0 0 0 10.679688 7.8828125 C 11.019687 7.5248125 11.280937 7.0972812 11.460938 6.6132812 C 11.645937 6.1232812 11.732422 5.582 11.732422 5 L 11.740234 5 C 11.740234 4.427 11.653703 3.8913438 11.470703 3.4023438 A 3.692 3.692 0 0 0 10.689453 2.1191406 A 3.332 3.332 0 0 0 9.4941406 1.2949219 A 3.78 3.78 0 0 0 8 1 z M 8 2 C 8.406 2 8.7695625 2.0728438 9.1015625 2.2148438 L 9.1113281 2.21875 L 9.1210938 2.2207031 C 9.4510938 2.3557031 9.7289844 2.546875 9.9589844 2.796875 L 9.9589844 2.8066406 C 10.198984 3.0596406 10.389344 3.3700938 10.527344 3.7460938 L 10.527344 3.7519531 C 10.657344 4.1029531 10.721563 4.504125 10.726562 4.953125 L 10.726562 5 C 10.726562 5.482 10.654531 5.8997187 10.519531 6.2617188 L 10.519531 6.2636719 A 2.708 2.708 0 0 1 9.9492188 7.1953125 L 9.9394531 7.1992188 L 9.9394531 7.203125 C 9.7054531 7.456125 9.4257969 7.652875 9.0917969 7.796875 A 2.889 2.889 0 0 1 8 8 C 7.59 8 7.223625 7.9279688 6.890625 7.7929688 L 6.8867188 7.7929688 C 6.5617188 7.6529687 6.2868281 7.4559375 6.0488281 7.2109375 L 5.9980469 7.140625 L 5.9902344 7.1347656 A 2.798 2.798 0 0 1 5.4667969 6.2636719 A 3.595 3.595 0 0 1 5.2597656 5 C 5.2597656 4.529 5.3307969 4.114 5.4667969 3.75 L 5.46875 3.7480469 L 5.46875 3.7441406 C 5.60675 3.3681406 5.7934375 3.0605938 6.0234375 2.8085938 L 6.0351562 2.7988281 C 6.2751563 2.5488281 6.5547656 2.3557031 6.8847656 2.2207031 L 6.890625 2.2167969 L 6.8984375 2.2148438 C 7.2284375 2.0748437 7.594 2 8 2 z "
     id="path827" />
  <path
     style="color:#000000;font-weight:400;font-family:Ubuntu;letter-spacing:0;word-spacing:0;overflow:visible;fill:#808080;fill-opacity:1"
     d="m 15,16 h -1 c 0,-0.865 -0.07,-1.3 -0.235,-1.833 -0.165,-0.533 -0.41,-0.904 -0.814,-1.21 -0.81,-0.61 -2.11,-0.933 -4.922,-0.933 -2.813,0 -4.165,0.322 -4.975,0.933 -0.405,0.305 -0.65,0.676 -0.816,1.21 C 2.072,14.701 2.002,15.135 2,16 L 1,15.998 c 0.002,-0.914 0.069,-1.44 0.283,-2.128 0.214,-0.688 0.594,-1.277 1.169,-1.711 1.15,-0.867 2.695,-1.134 5.577,-1.134 2.881,0 4.376,0.267 5.525,1.135 0.574,0.434 0.953,1.024 1.166,1.712 C 14.934,14.56 15,15.085 15,16 Z"
     id="path2" />
</svg>
