<?xml version="1.0" encoding="UTF-8" standalone="no"?>
<svg
   xmlns:osb="http://www.openswatchbook.org/uri/2009/osb"
   xmlns:dc="http://purl.org/dc/elements/1.1/"
   xmlns:cc="http://creativecommons.org/ns#"
   xmlns:rdf="http://www.w3.org/1999/02/22-rdf-syntax-ns#"
   xmlns:svg="http://www.w3.org/2000/svg"
   xmlns="http://www.w3.org/2000/svg"
   xmlns:sodipodi="http://sodipodi.sourceforge.net/DTD/sodipodi-0.dtd"
   xmlns:inkscape="http://www.inkscape.org/namespaces/inkscape"
   height="16.000017"
   id="svg7384"
   version="1.1"
   width="16.000444"
   sodipodi:docname="emblem-dropbox-infinite.svg"
   inkscape:version="0.92.3 (2405546, 2018-03-11)">
  <sodipodi:namedview
     pagecolor="#ffffff"
     bordercolor="#666666"
     borderopacity="1"
     objecttolerance="10"
     gridtolerance="10"
     guidetolerance="10"
     inkscape:pageopacity="0"
     inkscape:pageshadow="2"
     inkscape:window-width="640"
     inkscape:window-height="480"
     id="namedview21"
     showgrid="false"
     inkscape:zoom="18.24998"
     inkscape:cx="-1.2600617"
     inkscape:cy="7.5616519"
     inkscape:current-layer="svg7384" />
  <metadata
     id="metadata20854">
    <rdf:RDF>
      <cc:Work
         rdf:about="">
        <dc:title />
        <dc:format>image/svg+xml</dc:format>
        <dc:type
           rdf:resource="http://purl.org/dc/dcmitype/StillImage" />
      </cc:Work>
    </rdf:RDF>
  </metadata>
  <defs
     id="defs7386">
    <linearGradient
       id="linearGradient5606"
       osb:paint="solid">
      <stop
         id="stop5608"
         offset="0"
         style="stop-color:#000000;stop-opacity:1;" />
    </linearGradient>
    <linearGradient
       id="linearGradient4526"
       osb:paint="solid">
      <stop
         id="stop4528"
         offset="0"
         style="stop-color:#ffffff;stop-opacity:1;" />
    </linearGradient>
    <linearGradient
       id="linearGradient3600-4"
       osb:paint="gradient">
      <stop
         id="stop3602-7"
         offset="0"
         style="stop-color:#f4f4f4;stop-opacity:1" />
      <stop
         id="stop3604-6"
         offset="1"
         style="stop-color:#dbdbdb;stop-opacity:1" />
    </linearGradient>
  </defs>
  <path
     style="color:#000000;font-style:normal;font-variant:normal;font-weight:normal;font-stretch:normal;line-height:normal;font-family:sans-serif;-inkscape-font-specification:sans-serif;text-indent:0;text-align:start;text-decoration:none;text-decoration-line:none;letter-spacing:normal;word-spacing:normal;text-transform:none;writing-mode:lr-tb;direction:ltr;baseline-shift:baseline;text-anchor:start;clip-rule:nonzero;display:inline;overflow:visible;visibility:visible;color-interpolation:sRGB;color-interpolation-filters:linearRGB;fill:#808080;fill-opacity:1;stroke:none;stroke-width:1.00000012;marker:none;color-rendering:auto;image-rendering:auto;shape-rendering:auto;text-rendering:auto;enable-background:accumulate"
     d="M 8.640625 1.6679688 C 6.481625 1.6699688 4.6475844 2.9992006 3.7714844 4.9003906 L 3.7109375 5.0292969 L 3.5722656 5.0390625 C 1.5781656 5.1843125 0 6.9094025 0 9.0078125 C 0 11.200703 1.7160906 13 3.8378906 13 L 8.6425781 13 L 13.123047 13 C 14.714047 13 16 11.649619 16 10.011719 C 16 8.7696688 15.253113 7.7266538 14.195312 7.2773438 L 14.058594 7.21875 L 14.048828 7.0703125 C 13.913228 4.0772125 11.561931 1.6701287 8.6445312 1.6679688 L 8.640625 1.6679688 z M 8.6386719 2.6679688 L 8.640625 2.6679688 C 11.008225 2.6699687 12.931922 4.6201744 13.044922 7.1152344 L 13.044922 7.125 L 13.095703 7.9003906 L 13.798828 8.1972656 C 14.499828 8.4950056 14.994141 9.1701887 14.994141 10.011719 C 15.004141 11.125829 14.148147 12 13.123047 12 L 8.6445312 12 L 3.8378906 12 C 2.2816906 12 1 10.678923 1 9.0078125 C 1 7.4108625 2.1845313 6.1415063 3.6445312 6.0351562 L 4.3671875 5.984375 L 4.6777344 5.3222656 L 4.6777344 5.3183594 C 5.4059344 3.7379494 6.8902719 2.6695787 8.6386719 2.6679688 z "
     id="path834" />
</svg>
