<?xml version="1.0" encoding="UTF-8" standalone="no"?>
<svg
   xmlns:dc="http://purl.org/dc/elements/1.1/"
   xmlns:cc="http://creativecommons.org/ns#"
   xmlns:rdf="http://www.w3.org/1999/02/22-rdf-syntax-ns#"
   xmlns:svg="http://www.w3.org/2000/svg"
   xmlns="http://www.w3.org/2000/svg"
   xmlns:sodipodi="http://sodipodi.sourceforge.net/DTD/sodipodi-0.dtd"
   xmlns:inkscape="http://www.inkscape.org/namespaces/inkscape"
   width="16"
   height="16"
   version="1.1"
   id="svg8"
   sodipodi:docname="address-book-new-symbolic.svg"
   inkscape:version="0.92.3 (2405546, 2018-03-11)">
  <metadata
     id="metadata14">
    <rdf:RDF>
      <cc:Work
         rdf:about="">
        <dc:format>image/svg+xml</dc:format>
        <dc:type
           rdf:resource="http://purl.org/dc/dcmitype/StillImage" />
      </cc:Work>
    </rdf:RDF>
  </metadata>
  <defs
     id="defs12" />
  <sodipodi:namedview
     pagecolor="#ffffff"
     bordercolor="#666666"
     borderopacity="1"
     objecttolerance="10"
     gridtolerance="10"
     guidetolerance="10"
     inkscape:pageopacity="0"
     inkscape:pageshadow="2"
     inkscape:window-width="640"
     inkscape:window-height="480"
     id="namedview10"
     showgrid="false"
     inkscape:zoom="18.25"
     inkscape:cx="-1.3150685"
     inkscape:cy="7.5616438"
     inkscape:current-layer="svg8" />
  <path
     inkscape:connector-curvature="0"
     id="path2"
     style="font-weight:400;font-family:Ubuntu;letter-spacing:0;word-spacing:0;overflow:visible;fill:#808080;fill-opacity:1"
     word-spacing="0"
     overflow="visible"
     letter-spacing="0"
     d="M 8,1 C 7.471,1 6.968,1.098 6.506,1.295 6.046,1.483 5.638,1.758 5.299,2.115 L 5.297,2.119 5.295,2.121 C 4.965,2.48 4.709,2.911 4.529,3.401 a 4.551,4.551 0 0 0 -0.27,1.6 c 0,0.58 0.087,1.122 0.27,1.612 0.18,0.482 0.436,0.908 0.766,1.266 L 5.297,7.881 5.299,7.883 C 5.637,8.239 6.042,8.519 6.5,8.715 L 6.504,8.717 6.508,8.719 C 6.97,8.907 7.472,9 8,9 8.528,9 9.028,8.907 9.49,8.719 V 8.717 A 3.47,3.47 0 0 0 10.68,7.883 C 11.02,7.525 11.28,7.097 11.46,6.613 11.645,6.123 11.732,5.582 11.732,5 h 0.008 c 0,-0.573 -0.087,-1.109 -0.27,-1.598 A 3.692,3.692 0 0 0 10.69,2.119 3.332,3.332 0 0 0 9.494,1.295 3.78,3.78 0 0 0 8,1 Z m 0,1 c 0.406,0 0.77,0.073 1.102,0.215 l 0.01,0.004 0.01,0.002 c 0.33,0.135 0.607,0.326 0.837,0.576 v 0.01 c 0.24,0.253 0.431,0.564 0.569,0.94 v 0.005 c 0.13,0.351 0.194,0.753 0.199,1.202 V 5 c 0,0.482 -0.072,0.9 -0.207,1.262 V 6.264 A 2.708,2.708 0 0 1 9.95,7.195 L 9.94,7.199 V 7.203 C 9.706,7.456 9.426,7.653 9.092,7.797 A 2.889,2.889 0 0 1 8,8 C 7.59,8 7.223,7.928 6.89,7.793 H 6.887 C 6.562,7.653 6.287,7.456 6.049,7.211 L 5.998,7.141 5.99,7.135 A 2.798,2.798 0 0 1 5.467,6.264 3.595,3.595 0 0 1 5.259,5 C 5.259,4.529 5.33,4.114 5.467,3.75 L 5.469,3.748 V 3.744 C 5.606,3.368 5.793,3.06 6.023,2.808 L 6.035,2.798 C 6.275,2.548 6.555,2.355 6.885,2.22 L 6.891,2.216 6.899,2.214 C 7.229,2.074 7.594,2 8,2 Z m 0.03,9.025 c -2.882,0 -4.43,0.266 -5.579,1.133 C 1.876,12.592 1.497,13.183 1.283,13.871 1.069,14.559 1.002,15.083 1,15.998 L 2,16 c 0.002,-0.865 0.072,-1.3 0.238,-1.834 0.166,-0.534 0.412,-0.903 0.817,-1.209 0.81,-0.61 2.162,-0.934 4.974,-0.934 0.77,0 1.407,0.031 1.971,0.079 V 11.088 A 27.464,27.464 0 0 0 8.03,11.025 Z" />
  <path
     inkscape:connector-curvature="0"
     id="path4"
     style="font-weight:400;font-family:sans-serif;overflow:visible;fill:#808080;fill-opacity:1"
     overflow="visible"
     d="m 13,11 v 2 h -2 v 1 h 2 v 2 h 1 v -2 h 2 v -1 h -2 v -2 z" />
</svg>
