<?xml version="1.0" encoding="UTF-8" standalone="no"?>
<svg
   xmlns:dc="http://purl.org/dc/elements/1.1/"
   xmlns:cc="http://creativecommons.org/ns#"
   xmlns:rdf="http://www.w3.org/1999/02/22-rdf-syntax-ns#"
   xmlns:svg="http://www.w3.org/2000/svg"
   xmlns="http://www.w3.org/2000/svg"
   xmlns:sodipodi="http://sodipodi.sourceforge.net/DTD/sodipodi-0.dtd"
   xmlns:inkscape="http://www.inkscape.org/namespaces/inkscape"
   width="16"
   height="16"
   version="1.1"
   id="svg6"
   sodipodi:docname="document-import-symbolic.svg"
   inkscape:version="0.92.3 (2405546, 2018-03-11)">
  <metadata
     id="metadata12">
    <rdf:RDF>
      <cc:Work
         rdf:about="">
        <dc:format>image/svg+xml</dc:format>
        <dc:type
           rdf:resource="http://purl.org/dc/dcmitype/StillImage" />
      </cc:Work>
    </rdf:RDF>
  </metadata>
  <defs
     id="defs10" />
  <sodipodi:namedview
     pagecolor="#ffffff"
     bordercolor="#666666"
     borderopacity="1"
     objecttolerance="10"
     gridtolerance="10"
     guidetolerance="10"
     inkscape:pageopacity="0"
     inkscape:pageshadow="2"
     inkscape:window-width="640"
     inkscape:window-height="480"
     id="namedview8"
     showgrid="false"
     inkscape:zoom="18.25"
     inkscape:cx="-1.3150685"
     inkscape:cy="7.5616438"
     inkscape:current-layer="svg6" />
  <path
     style="color:#4d4d4d;overflow:visible;fill:#808080;fill-opacity:1"
     d="M 3,2 C 3,2 2,2 2,3 V 5.633 L 3,4.801 V 3.5 C 3,3.5 3,3 3.5,3 h 9 c 0,0 0.5,0 0.5,0.5 v 9 C 13,13 12.5,13 12.5,13 h -9 C 3.5,13 3,13 3,12.5 V 11.2 L 2,10.367 V 13 c 0,1 1,1 1,1 h 10 c 0,0 1,0 1,-1 V 3 C 14,2 13,2 13,2 Z"
     id="path825" />
  <path
     style="color:#4d4d4d;overflow:visible;fill:#808080;fill-opacity:1"
     d="m 4.42,5.035 a 0.423,0.423 0 0 0 -0.248,0.09 l -3,2.5 a 0.522,0.522 0 0 0 0,0.75 l 3,2.5 C 4.46,11.105 4.973,10.869 4.985,10.5 V 9 h 3.5 a 0.517,0.517 0 0 0 0.5,-0.406 0.489,0.489 0 0 0 0,-0.094 v -1 A 0.52,0.52 0 0 0 8.485,7 h -3.5 V 5.5 C 4.977,5.223 4.687,5.022 4.42,5.035 Z"
     id="path2" />
</svg>
