<?xml version="1.0" encoding="UTF-8" standalone="no"?>
<svg
   xmlns:dc="http://purl.org/dc/elements/1.1/"
   xmlns:cc="http://creativecommons.org/ns#"
   xmlns:rdf="http://www.w3.org/1999/02/22-rdf-syntax-ns#"
   xmlns:svg="http://www.w3.org/2000/svg"
   xmlns="http://www.w3.org/2000/svg"
   xmlns:sodipodi="http://sodipodi.sourceforge.net/DTD/sodipodi-0.dtd"
   xmlns:inkscape="http://www.inkscape.org/namespaces/inkscape"
   width="16"
   height="16"
   version="1.1"
   id="svg8"
   sodipodi:docname="ephy-bookmarks-symbolic.svg"
   inkscape:version="0.92.3 (2405546, 2018-03-11)">
  <metadata
     id="metadata14">
    <rdf:RDF>
      <cc:Work
         rdf:about="">
        <dc:format>image/svg+xml</dc:format>
        <dc:type
           rdf:resource="http://purl.org/dc/dcmitype/StillImage" />
      </cc:Work>
    </rdf:RDF>
  </metadata>
  <defs
     id="defs12" />
  <sodipodi:namedview
     pagecolor="#ffffff"
     bordercolor="#666666"
     borderopacity="1"
     objecttolerance="10"
     gridtolerance="10"
     guidetolerance="10"
     inkscape:pageopacity="0"
     inkscape:pageshadow="2"
     inkscape:window-width="640"
     inkscape:window-height="480"
     id="namedview10"
     showgrid="false"
     inkscape:zoom="12.904699"
     inkscape:cx="-5.2363343"
     inkscape:cy="6.1468264"
     inkscape:current-layer="svg8" />
  <path
     style="font-weight:400;font-family:sans-serif;overflow:visible;fill:#808080;fill-opacity:1"
     d="m 0,1 v 13 h 6 c 0.9443306,0.01774 1.5833625,0.778855 1.6015625,0.800781 2.635e-4,3.18e-4 0.00586,0.0078 0.00586,0.0078 v 0.002 l 0.384765,0.507778 0.00781,-0.0098 0.00781,0.0098 0.3847656,-0.507812 0.00586,-0.0098 C 8.416676,14.778845 9.0556866,14.017743 10,14 h 6 V 9.2578125 1 h -2 v 1 h 1 v 8 3 h -5 a 2.791,2.791 0 0 0 -0.011719,0 2.791,2.791 0 0 0 -0.6855468,0.08594 2.791,2.791 0 0 0 -0.00391,0 A 2.791,2.791 0 0 0 8.75,13.287109 2.791,2.791 0 0 0 8,13.820312 2.791,2.791 0 0 0 7.25,13.287109 2.791,2.791 0 0 0 6.7011719,13.085938 a 2.791,2.791 0 0 0 -0.00195,0 c -5.731e-4,-1.42e-4 -0.00138,1.41e-4 -0.00195,0 A 2.791,2.791 0 0 0 6.0117188,13 c -0.00142,-2.3e-5 -0.00248,2.1e-5 -0.00391,0 H 6 1 V 2 H 6 C 6.983,2 7.5996094,2.7988281 7.5996094,2.7988281 L 8,3.3339844 8.4003906,2.7988281 C 8.4003906,2.7988281 9.017,2 10,2 V 9 L 13,8 V 1 H 10 C 8.964,1 8.365,1.4653125 8,1.8203125 7.635,1.4653125 7.036,1 6,1 Z"
     id="path820" />
  <path
     style="font-weight:400;font-family:sans-serif;overflow:visible;fill:#808080;fill-opacity:1"
     d="M 3,4 V 5 H 6 V 4 Z"
     id="path818" />
  <path
     style="font-weight:400;font-family:sans-serif;overflow:visible;fill:#808080;fill-opacity:1"
     d="M 3,6 V 7 H 6 V 6 Z"
     id="path816" />
  <path
     style="font-weight:400;font-family:sans-serif;overflow:visible;fill:#808080;fill-opacity:1"
     d="M 3,8 V 9 H 6 V 8 Z"
     id="path814" />
  <path
     style="font-weight:400;font-family:sans-serif;overflow:visible;fill:#808080;fill-opacity:1"
     d="m 3,10 v 1 h 3 v -1 z"
     id="path28" />
</svg>
