<?xml version="1.0" encoding="UTF-8" standalone="no"?>
<svg
   xmlns:dc="http://purl.org/dc/elements/1.1/"
   xmlns:cc="http://creativecommons.org/ns#"
   xmlns:rdf="http://www.w3.org/1999/02/22-rdf-syntax-ns#"
   xmlns:svg="http://www.w3.org/2000/svg"
   xmlns="http://www.w3.org/2000/svg"
   xmlns:sodipodi="http://sodipodi.sourceforge.net/DTD/sodipodi-0.dtd"
   xmlns:inkscape="http://www.inkscape.org/namespaces/inkscape"
   height="16"
   width="16"
   version="1.1"
   id="svg8"
   sodipodi:docname="extract-archive-symbolic.svg"
   inkscape:version="0.92.3 (2405546, 2018-03-11)">
  <metadata
     id="metadata14">
    <rdf:RDF>
      <cc:Work
         rdf:about="">
        <dc:format>image/svg+xml</dc:format>
        <dc:type
           rdf:resource="http://purl.org/dc/dcmitype/StillImage" />
      </cc:Work>
    </rdf:RDF>
  </metadata>
  <defs
     id="defs12" />
  <sodipodi:namedview
     pagecolor="#ffffff"
     bordercolor="#666666"
     borderopacity="1"
     objecttolerance="10"
     gridtolerance="10"
     guidetolerance="10"
     inkscape:pageopacity="0"
     inkscape:pageshadow="2"
     inkscape:window-width="640"
     inkscape:window-height="480"
     id="namedview10"
     showgrid="true"
     inkscape:zoom="18.25"
     inkscape:cx="-1.3150685"
     inkscape:cy="7.5616438"
     inkscape:current-layer="svg8">
    <inkscape:grid
       type="xygrid"
       id="grid821" />
  </sodipodi:namedview>
  <g
     id="g6"
     transform="matrix(1,0,0,-1,0,16)"
     style="color:#000000;fill:#808080">
    <path
       d="M 7,1 C 6.342,1 5.821,1.06 5.383,1.225 A 1.88,1.88 0 0 0 4.385,2.062 C 3.969,2.815 4.015,3.736 4,4.994 V 15 H 5 V 5 C 5.015,3.741 5.06,2.91 5.262,2.545 5.362,2.362 5.474,2.258 5.734,2.16 5.994,2.063 6.408,2 7,2 h 2 c 0.592,0 1.006,0.063 1.266,0.16 0.26,0.098 0.371,0.202 0.472,0.385 C 10.94,2.911 10.985,3.741 11,5 v 4.5 h 1 V 4.994 C 11.985,3.736 12.03,2.815 11.615,2.062 A 1.88,1.88 0 0 0 10.617,1.225 C 10.178,1.06 9.657,1 9,1 Z"
       style="font-weight:400;line-height:normal;font-family:sans-serif;font-variant-ligatures:normal;font-variant-position:normal;font-variant-caps:normal;font-variant-numeric:normal;font-variant-alternates:normal;font-feature-settings:normal;text-indent:0;text-align:start;text-decoration:none;text-decoration-line:none;text-decoration-style:solid;text-decoration-color:#000000;text-transform:none;text-orientation:mixed;white-space:normal;shape-padding:0;overflow:visible;isolation:auto;mix-blend-mode:normal;marker:none"
       font-weight="400"
       overflow="visible"
       id="path2"
       inkscape:connector-curvature="0" />
    <path
       d="M 14,8 9,8.001 c 0.348,0.76 0.737,1.535 1.166,2.323 0.431,0.78 0.875,1.534 1.334,2.259 0.449,-0.725 0.889,-1.478 1.32,-2.26 C 13.25,9.535 13.643,8.761 14,8 Z"
       style="overflow:visible;marker:none"
       overflow="visible"
       id="path4"
       inkscape:connector-curvature="0" />
  </g>
</svg>
