<?xml version="1.0" encoding="UTF-8" standalone="no"?>
<svg
   xmlns:dc="http://purl.org/dc/elements/1.1/"
   xmlns:cc="http://creativecommons.org/ns#"
   xmlns:rdf="http://www.w3.org/1999/02/22-rdf-syntax-ns#"
   xmlns:svg="http://www.w3.org/2000/svg"
   xmlns="http://www.w3.org/2000/svg"
   xmlns:sodipodi="http://sodipodi.sourceforge.net/DTD/sodipodi-0.dtd"
   xmlns:inkscape="http://www.inkscape.org/namespaces/inkscape"
   width="16"
   height="16"
   version="1.1"
   style="enable-background:new"
   id="svg6"
   sodipodi:docname="help-info-symbolic.svg"
   inkscape:version="0.92.3 (2405546, 2018-03-11)">
  <metadata
     id="metadata12">
    <rdf:RDF>
      <cc:Work
         rdf:about="">
        <dc:format>image/svg+xml</dc:format>
        <dc:type
           rdf:resource="http://purl.org/dc/dcmitype/StillImage" />
      </cc:Work>
    </rdf:RDF>
  </metadata>
  <defs
     id="defs10" />
  <sodipodi:namedview
     pagecolor="#ffffff"
     bordercolor="#666666"
     borderopacity="1"
     objecttolerance="10"
     gridtolerance="10"
     guidetolerance="10"
     inkscape:pageopacity="0"
     inkscape:pageshadow="2"
     inkscape:window-width="640"
     inkscape:window-height="480"
     id="namedview8"
     showgrid="true"
     inkscape:zoom="12.904699"
     inkscape:cx="-8.5930814"
     inkscape:cy="8.1970824"
     inkscape:current-layer="svg6" />
  <path
     style="fill:#808080;fill-opacity:1;stroke-width:0.99999994"
     d="M 8 0 C 3.5816801 0 -5.9211895e-16 3.5818516 0 8 C 0 12.418321 3.5816801 16 8 16 C 12.41832 16 16 12.418321 16 8 C 16 3.5818516 12.41832 -1.7763568e-15 8 0 z M 8 1 C 11.866029 1 15 4.13412 15 8 C 15 11.866031 11.866029 15 8 15 C 4.1339699 15 1 11.866031 1 8 C 1 4.13412 4.1339699 1 8 1 z "
     id="path827" />
  <path
     style="fill:#808080;fill-opacity:1"
     d="m 7.9998,3.75336 c 0.69036,0 1.25,0.55964 1.25,1.25 0,0.69036 -0.55964,1.25 -1.25,1.25 -0.69036,0 -1.25,-0.55964 -1.25,-1.25 0,-0.69036 0.55964,-1.25 1.25,-1.25 z"
     id="path825" />
  <path
     style="fill:#808080;fill-opacity:1;stroke-width:0.99999994"
     d="m 6.9998,7.165728 h 0.9736517 0.9736517 v 6 H 6.9998 Z"
     id="path2"
     inkscape:connector-curvature="0" />
</svg>
