<?xml version="1.0" encoding="UTF-8" standalone="no"?>
<svg
   xmlns:dc="http://purl.org/dc/elements/1.1/"
   xmlns:cc="http://creativecommons.org/ns#"
   xmlns:rdf="http://www.w3.org/1999/02/22-rdf-syntax-ns#"
   xmlns:svg="http://www.w3.org/2000/svg"
   xmlns="http://www.w3.org/2000/svg"
   xmlns:sodipodi="http://sodipodi.sourceforge.net/DTD/sodipodi-0.dtd"
   xmlns:inkscape="http://www.inkscape.org/namespaces/inkscape"
   width="16"
   height="16"
   version="1.1"
   id="svg8"
   sodipodi:docname="image-red-eye-symbolic.svg"
   inkscape:version="0.92.3 (2405546, 2018-03-11)">
  <metadata
     id="metadata14">
    <rdf:RDF>
      <cc:Work
         rdf:about="">
        <dc:format>image/svg+xml</dc:format>
        <dc:type
           rdf:resource="http://purl.org/dc/dcmitype/StillImage" />
      </cc:Work>
    </rdf:RDF>
  </metadata>
  <defs
     id="defs12" />
  <sodipodi:namedview
     pagecolor="#ffffff"
     bordercolor="#666666"
     borderopacity="1"
     objecttolerance="10"
     gridtolerance="10"
     guidetolerance="10"
     inkscape:pageopacity="0"
     inkscape:pageshadow="2"
     inkscape:window-width="640"
     inkscape:window-height="480"
     id="namedview10"
     showgrid="false"
     inkscape:zoom="18.25"
     inkscape:cx="-1.3150685"
     inkscape:cy="7.5616438"
     inkscape:current-layer="svg8" />
  <path
     style="fill:#808080;fill-opacity:1"
     inkscape:connector-curvature="0"
     id="path2"
     d="M 8,3 A 4,4 0 0 0 7.549,3.031 8.45,8.45 0 0 0 3.664,4.207 l -0.023,0.016 0.82,0.82 A 1.43,1.43 0 0 0 4.545,4.993 4,4 0 0 0 4.5,5.082 L 5.639,6.221 A 2.5,2.5 0 0 1 8,4.5 0.5,0.5 0 1 1 8,5.5 C 7.166,5.5 6.5,6.166 6.5,7 A 0.5,0.5 0 0 1 6.494,7.076 l 3.43,3.43 A 4,4 0 0 0 12,7 4,4 0 0 0 11.453,4.992 C 12.735,5.669 13.808,6.668 14.666,8 a 8.958,8.958 0 0 1 -2.894,2.834 c -0.33,0.2 -0.669,0.363 -1.014,0.506 l 0.834,0.834 c 0.25,-0.118 0.5,-0.234 0.744,-0.377 A 9.203,9.203 0 0 0 15.604,8.6 C 15.719,8.397 15.778,8.197 15.778,8 15.778,7.803 15.719,7.603 15.604,7.4 A 9.264,9.264 0 0 0 12.336,4.207 8.454,8.454 0 0 0 8.486,3.033 4,4 0 0 0 8,3 Z M 2.557,4.975 A 9.167,9.167 0 0 0 0.397,7.4 1.204,1.204 0 0 0 0.223,8 c 0,0.197 0.058,0.397 0.174,0.6 a 9.264,9.264 0 0 0 3.267,3.193 C 5.033,12.597 6.478,13 8,13 c 0.776,0 1.53,-0.108 2.266,-0.316 l -0.93,-0.93 C 8.901,11.834 8.458,11.889 8,11.889 A 7.146,7.146 0 0 1 4.229,10.834 8.958,8.958 0 0 1 1.334,8 8.926,8.926 0 0 1 3.358,5.775 Z M 4.039,6.457 A 4,4 0 0 0 4,7 4,4 0 0 0 8,11 4,4 0 0 0 8.541,10.959 Z" />
  <path
     style="color:#000000;font-weight:400;font-family:sans-serif;overflow:visible;fill:#808080;fill-rule:evenodd;fill-opacity:1"
     inkscape:connector-curvature="0"
     id="path4"
     overflow="visible"
     font-weight="400"
     d="m 1.459,0.541 -0.918,0.918 14,14 0.918,-0.918 z" />
</svg>
