<?xml version="1.0" encoding="UTF-8" standalone="no"?>
<svg
   xmlns:dc="http://purl.org/dc/elements/1.1/"
   xmlns:cc="http://creativecommons.org/ns#"
   xmlns:rdf="http://www.w3.org/1999/02/22-rdf-syntax-ns#"
   xmlns:svg="http://www.w3.org/2000/svg"
   xmlns="http://www.w3.org/2000/svg"
   xmlns:sodipodi="http://sodipodi.sourceforge.net/DTD/sodipodi-0.dtd"
   xmlns:inkscape="http://www.inkscape.org/namespaces/inkscape"
   width="16"
   height="16"
   version="1.1"
   id="svg6"
   sodipodi:docname="list-remove-all-symbolic.svg"
   inkscape:version="0.92.3 (2405546, 2018-03-11)">
  <metadata
     id="metadata12">
    <rdf:RDF>
      <cc:Work
         rdf:about="">
        <dc:format>image/svg+xml</dc:format>
        <dc:type
           rdf:resource="http://purl.org/dc/dcmitype/StillImage" />
      </cc:Work>
    </rdf:RDF>
  </metadata>
  <defs
     id="defs10" />
  <sodipodi:namedview
     pagecolor="#ffffff"
     bordercolor="#666666"
     borderopacity="1"
     objecttolerance="10"
     gridtolerance="10"
     guidetolerance="10"
     inkscape:pageopacity="0"
     inkscape:pageshadow="2"
     inkscape:window-width="640"
     inkscape:window-height="480"
     id="namedview8"
     showgrid="false"
     inkscape:zoom="18.25"
     inkscape:cx="-1.3150685"
     inkscape:cy="7.5616438"
     inkscape:current-layer="svg6" />
  <path
     inkscape:connector-curvature="0"
     id="path2"
     d="M 11.089844,0.05078125 A 1.0001,1.0001 0 0 0 10.203125,0.5546875 L 6.9160156,6.1367188 5.2207031,5.0898438 C 4.4640631,4.7126237 3.9978144,4.9440569 3.7089844,5.5292969 l -0.017578,0.90625 6.0195313,3.5214843 0.6210933,-0.2167968 c 0.65533,-0.4839 0.439488,-1.2809832 -0.164062,-1.5957032 L 8.6171875,7.1875 11.925781,1.5703125 A 1.0001,1.0001 0 0 0 11.089844,0.05078125 Z M 3.0507812,7.4902344 1.5214844,10.142578 c -1.05340002,1.8246 -0.047922,3.888672 2.1425781,3.888672 H 9.0332031 L 8.0839844,13.212891 c -0.22098,-0.13258 -0.3088606,-0.463962 -0.087891,-0.707032 l 1.0429687,-1.541015 z"
     style="fill:#808080;fill-opacity:1" />
</svg>
