<?xml version="1.0" encoding="UTF-8" standalone="no"?>
<svg
   xmlns:dc="http://purl.org/dc/elements/1.1/"
   xmlns:cc="http://creativecommons.org/ns#"
   xmlns:rdf="http://www.w3.org/1999/02/22-rdf-syntax-ns#"
   xmlns:svg="http://www.w3.org/2000/svg"
   xmlns="http://www.w3.org/2000/svg"
   xmlns:sodipodi="http://sodipodi.sourceforge.net/DTD/sodipodi-0.dtd"
   xmlns:inkscape="http://www.inkscape.org/namespaces/inkscape"
   width="16"
   height="16"
   version="1.1"
   id="svg8"
   sodipodi:docname="location-symbolic.svg"
   inkscape:version="0.92.3 (2405546, 2018-03-11)">
  <metadata
     id="metadata14">
    <rdf:RDF>
      <cc:Work
         rdf:about="">
        <dc:format>image/svg+xml</dc:format>
        <dc:type
           rdf:resource="http://purl.org/dc/dcmitype/StillImage" />
      </cc:Work>
    </rdf:RDF>
  </metadata>
  <defs
     id="defs12" />
  <sodipodi:namedview
     pagecolor="#ffffff"
     bordercolor="#666666"
     borderopacity="1"
     objecttolerance="10"
     gridtolerance="10"
     guidetolerance="10"
     inkscape:pageopacity="0"
     inkscape:pageshadow="2"
     inkscape:window-width="640"
     inkscape:window-height="480"
     id="namedview10"
     showgrid="false"
     inkscape:zoom="18.25"
     inkscape:cx="-1.260274"
     inkscape:cy="7.5616438"
     inkscape:current-layer="svg8" />
  <path
     inkscape:connector-curvature="0"
     id="path2"
     style="fill:#808080;fill-opacity:1"
     d="m 16.000444,8.50037 c 0,1.50007 -0.64063,2.49247 -1.55811,2.97392 -0.91747,0.48145 -2.01885,0.52616 -3.07129,0.52616 h -8.54004 v -1.00009 h 8.54004 c 1.01205,0 1.97556,-0.0804 2.60644,-0.41146 0.6309,-0.33106 1.02247,-0.83854 1.02247,-2.08853 V 4 h 1.00049 z" />
  <path
     inkscape:connector-curvature="0"
     id="path4"
     style="fill:#808080;fill-opacity:1"
     d="m 4.999954,9 -0.002,5 c -0.76042,-0.34766 -1.53457,-0.73665 -2.32275,-1.1664 -0.78078,-0.43079 -1.53392,-0.87511 -2.25892,-1.33339 0.725,-0.44911 1.47814,-0.88918 2.25892,-1.31996 C 3.463824,9.75026 4.238404,9.35693 4.999244,9 Z" />
</svg>
