<?xml version="1.0" encoding="UTF-8" standalone="no"?>
<svg
   xmlns:dc="http://purl.org/dc/elements/1.1/"
   xmlns:cc="http://creativecommons.org/ns#"
   xmlns:rdf="http://www.w3.org/1999/02/22-rdf-syntax-ns#"
   xmlns:svg="http://www.w3.org/2000/svg"
   xmlns="http://www.w3.org/2000/svg"
   xmlns:sodipodi="http://sodipodi.sourceforge.net/DTD/sodipodi-0.dtd"
   xmlns:inkscape="http://www.inkscape.org/namespaces/inkscape"
   width="16"
   height="16"
   version="1.1"
   id="svg8"
   sodipodi:docname="sidebar-places-symbolic.svg"
   inkscape:version="0.92.3 (2405546, 2018-03-11)">
  <metadata
     id="metadata14">
    <rdf:RDF>
      <cc:Work
         rdf:about="">
        <dc:format>image/svg+xml</dc:format>
        <dc:type
           rdf:resource="http://purl.org/dc/dcmitype/StillImage" />
      </cc:Work>
    </rdf:RDF>
  </metadata>
  <defs
     id="defs12" />
  <sodipodi:namedview
     pagecolor="#ffffff"
     bordercolor="#666666"
     borderopacity="1"
     objecttolerance="10"
     gridtolerance="10"
     guidetolerance="10"
     inkscape:pageopacity="0"
     inkscape:pageshadow="2"
     inkscape:window-width="640"
     inkscape:window-height="480"
     id="namedview10"
     showgrid="true"
     inkscape:zoom="18.25"
     inkscape:cx="1.3348798"
     inkscape:cy="3.0567158"
     inkscape:current-layer="svg8">
    <inkscape:grid
       type="xygrid"
       id="grid37" />
  </sodipodi:namedview>
  <path
     style="font-weight:400;font-family:sans-serif;overflow:visible;fill:#808080;fill-opacity:1"
     d="M 3.9941406 1 C 2.7361406 1.015 1.8155 0.97071875 1.0625 1.3867188 A 1.878 1.878 0 0 0 0.22265625 2.3828125 C 0.05965625 2.8198125 1.8503717e-17 3.343 0 4 L 0 12 C 0 12.658 0.05765625 13.179188 0.22265625 13.617188 C 0.38665625 14.056188 0.6855 14.407234 1.0625 14.615234 C 1.8145 15.031234 2.7361406 14.985 3.9941406 15 L 6.3554688 15 L 10 15 L 12.005859 15 C 13.263859 14.985 14.1855 15.031234 14.9375 14.615234 C 15.3145 14.407234 15.613344 14.056188 15.777344 13.617188 C 15.94234 13.179187 16 12.658 16 12 L 16 10 L 16 8.6582031 L 16 6 C 16 5.342 15.942344 4.8208125 15.777344 4.3828125 C 15.757344 4.3278125 15.729125 4.2785156 15.703125 4.2285156 L 15.675781 4.171875 A 1.838 1.838 0 0 0 14.9375 3.3847656 C 14.1845 2.9687656 13.263859 3.015 12.005859 3 L 8.9667969 3 L 6.9453125 1 L 3.9960938 1 L 3.9941406 1 z M 4.0058594 2 L 6.5351562 2 L 8.3007812 3.7460938 L 7.0332031 5 L 3.9941406 5 C 2.7361406 5.014 1.8155 4.9697656 1.0625 5.3847656 C 1.0405 5.3967656 1.022 5.4147344 1 5.4277344 L 1 4 C 1 3.408 1.0621563 2.994375 1.1601562 2.734375 C 1.2581563 2.474375 1.362875 2.3627188 1.546875 2.2617188 C 1.912875 2.0587188 2.7418594 2.015 4.0058594 2 z M 9.4648438 4 L 11.992188 4 C 13.256187 4.015 14.083172 4.0597187 14.451172 4.2617188 C 14.634172 4.3617187 14.739891 4.474375 14.837891 4.734375 C 14.935891 4.994375 15 5.408 15 6 L 15 8.6582031 L 15 10 L 15 12 C 15 12.592 14.936844 13.005625 14.839844 13.265625 C 14.742844 13.525625 14.636125 13.638281 14.453125 13.738281 C 14.087125 13.94028 13.26 13.985 12 14 L 10 14 L 6.3554688 14 L 4 14 C 2.74 13.985 1.912875 13.940281 1.546875 13.738281 C 1.363875 13.638281 1.2571563 13.525625 1.1601562 13.265625 C 1.0631563 13.005625 1 12.592 1 12 L 1 8 C 1 7.408 1.0641094 6.994375 1.1621094 6.734375 C 1.2601094 6.474375 1.3648281 6.3627188 1.5488281 6.2617188 C 1.9158281 6.0587188 2.7438125 6.015 4.0078125 6 L 7.4433594 6 L 9.4648438 4 z "
     id="path35" />
</svg>
