<?xml version="1.0" encoding="UTF-8" standalone="no"?>
<svg
   xmlns:dc="http://purl.org/dc/elements/1.1/"
   xmlns:cc="http://creativecommons.org/ns#"
   xmlns:rdf="http://www.w3.org/1999/02/22-rdf-syntax-ns#"
   xmlns:svg="http://www.w3.org/2000/svg"
   xmlns="http://www.w3.org/2000/svg"
   xmlns:sodipodi="http://sodipodi.sourceforge.net/DTD/sodipodi-0.dtd"
   xmlns:inkscape="http://www.inkscape.org/namespaces/inkscape"
   width="22"
   height="22"
   version="1.1"
   id="svg18"
   sodipodi:docname="system-run-symbolic.svg"
   inkscape:version="0.92.3 (2405546, 2018-03-11)">
  <metadata
     id="metadata24">
    <rdf:RDF>
      <cc:Work
         rdf:about="">
        <dc:format>image/svg+xml</dc:format>
        <dc:type
           rdf:resource="http://purl.org/dc/dcmitype/StillImage" />
      </cc:Work>
    </rdf:RDF>
  </metadata>
  <defs
     id="defs22" />
  <sodipodi:namedview
     pagecolor="#ffffff"
     bordercolor="#666666"
     borderopacity="1"
     objecttolerance="10"
     gridtolerance="10"
     guidetolerance="10"
     inkscape:pageopacity="0"
     inkscape:pageshadow="2"
     inkscape:window-width="640"
     inkscape:window-height="480"
     id="namedview20"
     showgrid="false"
     inkscape:zoom="13.272727"
     inkscape:cx="-1.8082192"
     inkscape:cy="10.39726"
     inkscape:current-layer="svg18" />
  <path
     inkscape:connector-curvature="0"
     id="path2"
     style="font-weight:400;overflow:visible;fill:#808080;stroke-width:0.68790859;fill-opacity:1"
     overflow="visible"
     font-weight="400"
     d="m 8.614815,8.759214 a 4.805625,4.8113385 0 0 0 -4.2955,2.403604 c -1.3261875,2.301045 -0.5335,5.251862 1.766875,6.582379 2.300375,1.330518 5.248375,0.545148 6.573875,-1.755897 1.326188,-2.301045 0.5335,-5.253927 -1.766875,-6.5851326 A 4.79875,4.8044553 0 0 0 8.614815,8.759214 Z M 8.48969,9.4447782 a 4.125,4.1299043 0 0 1 4.125,4.1299038 4.125,4.1299043 0 0 1 -4.125,4.129905 4.125,4.1299043 0 0 1 -4.125,-4.129905 4.125,4.1299043 0 0 1 4.125,-4.1299038 z" />
  <path
     inkscape:connector-curvature="0"
     id="path4"
     style="overflow:visible;fill:#808080;stroke-width:0.68790859;fill-opacity:1"
     overflow="visible"
     d="m 9.398565,8.013078 -1.8095,0.2711971 v 0.9312934 a 4.4651038,4.4550078 58.94017 0 1 1.8095,0.00344 V 8.0137663 Z m -3.7021875,0.819786 -1.379125,1.173581 0.67925,0.810838 A 4.4651038,4.4550078 58.94017 0 1 6.38319,9.6533383 Z m 5.5880005,0.00895 -0.682688,0.8142795 a 4.4651038,4.4550078 58.94017 0 1 0.116875,0.061949 4.4651038,4.4550078 58.94017 0 1 1.268437,1.1040605 l 0.691625,-0.8246037 z m -7.9818755,2.902635 -0.3025,1.786183 1.0415625,0.183781 a 4.4651038,4.4550078 58.94017 0 1 0.3128125,-1.784119 z m 10.3716245,0.0021 -1.047062,0.18447 a 4.4651038,4.4550078 58.94017 0 1 0.319,1.78343 l 1.053937,-0.185846 z M 4.267065,14.977473 3.3382525,15.514361 4.2526275,17.078218 5.17319,16.546149 A 4.4651038,4.4550078 58.94017 0 1 4.267065,14.977473 Z m 8.456937,0.0021 a 4.4651038,4.4550078 58.94017 0 1 -0.367125,0.836306 4.4651038,4.4550078 58.94017 0 1 -0.532125,0.736499 l 0.919875,0.531381 0.895125,-1.57487 z m -6.570437,2.389838 -0.367125,1.011138 1.705,0.608473 0.3609375,-0.994619 a 4.4651038,4.4550078 58.94017 0 1 -1.5833125,-0.550654 4.4651038,4.4550078 58.94017 0 1 -0.1155,-0.07434 z m 4.684625,0.01033 A 4.4651038,4.4550078 58.94017 0 1 9.1366275,17.99781 L 9.5010025,19 11.197752,18.369501 Z" />
  <path
     inkscape:connector-curvature="0"
     id="path6"
     style="font-weight:400;overflow:visible;fill:#808080;stroke-width:0.68790859;fill-opacity:1"
     overflow="visible"
     font-weight="400"
     d="m 8.24769,10.142732 a 3.4299375,3.4340154 0 0 0 -2.737625,1.708404 3.4464375,3.450535 0 0 0 1.26225,4.703961 3.438875,3.4429635 0 0 0 4.695625,-1.256868 3.444375,3.4484701 0 0 0 -1.26225,-4.702584 3.421,3.4250673 0 0 0 -1.958,-0.452913 z m 0.242,0.678681 a 2.75,2.7532695 0 0 1 2.75,2.753269 2.75,2.7532695 0 0 1 -2.75,2.75327 2.75,2.7532695 0 0 1 -2.75,-2.75327 2.75,2.7532695 0 0 1 2.75,-2.753269 z" />
  <path
     inkscape:connector-curvature="0"
     id="path10"
     overflow="visible"
     font-weight="400"
     d="m 15.083498,3.5426446 a 3.495,3.4991553 0 0 0 -3.124,1.7480759 c -0.9645,1.6734873 -0.388,3.8195357 1.285,4.7871845 1.673,0.967649 3.817,0.396471 4.781,-1.2770162 0.9645,-1.6734872 0.388,-3.8210375 -1.285,-4.7891872 a 3.49,3.4941493 0 0 0 -1.657,-0.469057 z m -0.091,0.4985921 a 3,3.0035668 0 0 1 3,3.0035668 3,3.0035668 0 0 1 -3,3.0035665 3,3.0035668 0 0 1 -3,-3.0035665 3,3.0035668 0 0 1 3,-3.0035668 z"
     style="font-weight:400;overflow:visible;fill:#808080;stroke-width:0.50029713;fill-opacity:1" />
  <path
     inkscape:connector-curvature="0"
     id="path12"
     overflow="visible"
     d="m 15.653498,3.0000002 -1.316,0.1972343 v 0.6773043 a 3.2473482,3.2400057 58.940211 0 1 1.316,0.0025 v -0.876538 z m -2.6925,0.596208 -1.003,0.8535136 0.494,0.5897003 a 3.2473482,3.2400057 58.940211 0 1 1.0085,-0.8465053 z m 4.064,0.00651 -0.4965,0.5922032 a 3.2473482,3.2400057 58.940211 0 1 0.085,0.045053 3.2473482,3.2400057 58.940211 0 1 0.9225,0.8029535 l 0.503,-0.5997121 z m -5.805,2.1110068 -0.22,1.2990426 0.7575,0.1336588 a 3.2473482,3.2400057 58.940211 0 1 0.2275,-1.2975409 z m 7.543,0.0015 -0.7615,0.1341593 a 3.2473482,3.2400057 58.940211 0 1 0.232,1.2970403 l 0.7665,-0.1351605 z m -6.8415,2.3497904 -0.6755,0.3904637 0.665,1.1373506 0.6695,-0.3869595 a 3.2473482,3.2400057 58.940211 0 1 -0.659,-1.1408548 z m 6.1505,0.0015 a 3.2473482,3.2400057 58.940211 0 1 -0.267,0.6082222 3.2473482,3.2400057 58.940211 0 1 -0.387,0.5356361 l 0.669,0.3864589 0.651,-1.1453601 z m -4.7785,1.7380639 -0.267,0.7353737 1.24,0.442526 0.2625,-0.723359 a 3.2473482,3.2400057 58.940211 0 1 -1.1515,-0.4004765 3.2473482,3.2400057 58.940211 0 1 -0.084,-0.054064 z m 3.407,0.00751 a 3.2473482,3.2400057 58.940211 0 1 -1.2375,0.4495337 l 0.265,0.728866 1.234,-0.458545 z"
     style="overflow:visible;fill:#808080;stroke-width:0.50029713;fill-opacity:1" />
  <path
     inkscape:connector-curvature="0"
     id="path14"
     overflow="visible"
     font-weight="400"
     d="m 14.816498,4.5488395 a 2.4945,2.4974658 0 0 0 -1.991,1.2424755 2.5065,2.50948 0 0 0 0.918,3.4210625 2.501,2.5039735 0 0 0 3.415,-0.9140855 2.505,2.5079782 0 0 0 -0.918,-3.4200613 2.488,2.490958 0 0 0 -1.424,-0.3293912 z m 0.176,0.4935861 a 2,2.0023778 0 0 1 2,2.0023779 2,2.0023778 0 0 1 -2,2.0023778 2,2.0023778 0 0 1 -2,-2.0023778 2,2.0023778 0 0 1 2,-2.0023779 z"
     style="font-weight:400;overflow:visible;fill:#808080;stroke-width:0.50029713;fill-opacity:1" />
</svg>
