<?xml version="1.0" encoding="UTF-8" standalone="no"?>
<svg
   xmlns:dc="http://purl.org/dc/elements/1.1/"
   xmlns:cc="http://creativecommons.org/ns#"
   xmlns:rdf="http://www.w3.org/1999/02/22-rdf-syntax-ns#"
   xmlns:svg="http://www.w3.org/2000/svg"
   xmlns="http://www.w3.org/2000/svg"
   xmlns:sodipodi="http://sodipodi.sourceforge.net/DTD/sodipodi-0.dtd"
   xmlns:inkscape="http://www.inkscape.org/namespaces/inkscape"
   width="16.005"
   height="16"
   version="1.1"
   id="svg8"
   sodipodi:docname="tools-check-spelling-symbolic.svg"
   inkscape:version="0.92.3 (2405546, 2018-03-11)">
  <metadata
     id="metadata14">
    <rdf:RDF>
      <cc:Work
         rdf:about="">
        <dc:format>image/svg+xml</dc:format>
        <dc:type
           rdf:resource="http://purl.org/dc/dcmitype/StillImage" />
      </cc:Work>
    </rdf:RDF>
  </metadata>
  <defs
     id="defs12" />
  <sodipodi:namedview
     pagecolor="#ffffff"
     bordercolor="#666666"
     borderopacity="1"
     objecttolerance="10"
     gridtolerance="10"
     guidetolerance="10"
     inkscape:pageopacity="0"
     inkscape:pageshadow="2"
     inkscape:window-width="640"
     inkscape:window-height="480"
     id="namedview10"
     showgrid="false"
     inkscape:zoom="18.25"
     inkscape:cx="-1.3125689"
     inkscape:cy="7.5616438"
     inkscape:current-layer="svg8" />
  <path
     inkscape:connector-curvature="0"
     id="path2"
     style="fill:#808080;fill-opacity:1"
     d="M 4.304,2 1.447,10 H 2.726 L 3.331,8.285 H 6.513 L 7.12,10 H 8.464 L 5.447,2 Z M 4.914,3.871 6.12,7.143 H 3.726 Z M 10.005,5 v 1 h 2.5 c 0.214,0 0.5,0.307 0.5,0.5 V 7 h -2.5 C 10.045,7 9.637,7.192 9.38,7.484 A 1.509,1.509 0 0 0 9.005,8.5 C 9.008,8.86 9.14,9.226 9.395,9.516 9.652,9.805 10.051,10 10.505,10 h 3.5 V 9.578 c 0.008,-0.047 0,-0.078 0,-0.078 v -3 A 1.5,1.5 0 0 0 12.505,5 Z m 0.5,3 h 2.5 v 1 h -2.5 C 10.306,9 10.222,8.945 10.145,8.86 A 0.572,0.572 0 0 1 10.005,8.5 0.56,0.56 0 0 1 10.13,8.14 C 10.203,8.058 10.294,8 10.505,8 Z" />
  <path
     inkscape:connector-curvature="0"
     id="path4"
     style="fill:#808080;fill-opacity:1"
     d="m 2.505,10.793 -2.354,2.353 a 0.5006316,0.5006316 0 1 0 0.708,0.708 l 1.646,-1.647 2,2 2,-2 2,2 2,-2 2,2 2.354,-2.353 a 0.5006316,0.5006316 0 1 0 -0.708,-0.708 l -1.646,1.647 -2,-2 -2,2 -2,-2 -2,2 z" />
</svg>
