<?xml version="1.0" encoding="UTF-8" standalone="no"?>
<svg
   xmlns:dc="http://purl.org/dc/elements/1.1/"
   xmlns:cc="http://creativecommons.org/ns#"
   xmlns:rdf="http://www.w3.org/1999/02/22-rdf-syntax-ns#"
   xmlns:svg="http://www.w3.org/2000/svg"
   xmlns="http://www.w3.org/2000/svg"
   xmlns:sodipodi="http://sodipodi.sourceforge.net/DTD/sodipodi-0.dtd"
   xmlns:inkscape="http://www.inkscape.org/namespaces/inkscape"
   width="16"
   height="16"
   version="1.1"
   id="svg6"
   sodipodi:docname="view-list-video-symbolic.svg"
   inkscape:version="0.92.3 (2405546, 2018-03-11)">
  <metadata
     id="metadata12">
    <rdf:RDF>
      <cc:Work
         rdf:about="">
        <dc:format>image/svg+xml</dc:format>
        <dc:type
           rdf:resource="http://purl.org/dc/dcmitype/StillImage" />
      </cc:Work>
    </rdf:RDF>
  </metadata>
  <defs
     id="defs10" />
  <sodipodi:namedview
     pagecolor="#ffffff"
     bordercolor="#666666"
     borderopacity="1"
     objecttolerance="10"
     gridtolerance="10"
     guidetolerance="10"
     inkscape:pageopacity="0"
     inkscape:pageshadow="2"
     inkscape:window-width="640"
     inkscape:window-height="480"
     id="namedview8"
     showgrid="false"
     inkscape:zoom="18.25"
     inkscape:cx="-1.3150685"
     inkscape:cy="7.5616438"
     inkscape:current-layer="svg6" />
  <path
     style="overflow:visible;fill:#808080;fill-opacity:1"
     inkscape:connector-curvature="0"
     id="path2"
     overflow="visible"
     d="m 1,2 v 13 h 1 v -1 h 1 v 1 h 11 v -1 h 1 v 1 h 1 V 2 H 15 V 3 H 14 V 2 H 3 V 3 H 2 V 2 Z m 3,1 h 9 V 8 H 4 Z M 2,4 H 3 V 5 H 2 Z m 12,0 h 1 V 5 H 14 Z M 2,6 H 3 V 7 H 2 Z m 12,0 h 1 V 7 H 14 Z M 2,8 H 3 V 9 H 2 Z m 12,0 h 1 V 9 H 14 Z M 4,9 h 9 v 5 H 4 Z m -2,1 h 1 v 1 H 2 Z m 12,0 h 1 v 1 H 14 Z M 2,12 h 1 v 1 H 2 Z m 12,0 h 1 v 1 h -1 z" />
</svg>
