<?xml version="1.0" encoding="UTF-8" standalone="no"?>
<svg
   xmlns:dc="http://purl.org/dc/elements/1.1/"
   xmlns:cc="http://creativecommons.org/ns#"
   xmlns:rdf="http://www.w3.org/1999/02/22-rdf-syntax-ns#"
   xmlns:svg="http://www.w3.org/2000/svg"
   xmlns="http://www.w3.org/2000/svg"
   xmlns:sodipodi="http://sodipodi.sourceforge.net/DTD/sodipodi-0.dtd"
   xmlns:inkscape="http://www.inkscape.org/namespaces/inkscape"
   width="16"
   height="16"
   version="1.1"
   id="svg8"
   sodipodi:docname="window-pop-out-symbolic.svg"
   inkscape:version="0.92.3 (2405546, 2018-03-11)">
  <metadata
     id="metadata14">
    <rdf:RDF>
      <cc:Work
         rdf:about="">
        <dc:format>image/svg+xml</dc:format>
        <dc:type
           rdf:resource="http://purl.org/dc/dcmitype/StillImage" />
      </cc:Work>
    </rdf:RDF>
  </metadata>
  <defs
     id="defs12" />
  <sodipodi:namedview
     pagecolor="#ffffff"
     bordercolor="#666666"
     borderopacity="1"
     objecttolerance="10"
     gridtolerance="10"
     guidetolerance="10"
     inkscape:pageopacity="0"
     inkscape:pageshadow="2"
     inkscape:window-width="640"
     inkscape:window-height="480"
     id="namedview10"
     showgrid="false"
     inkscape:zoom="18.25"
     inkscape:cx="-1.3150685"
     inkscape:cy="7.5616438"
     inkscape:current-layer="svg8" />
  <path
     inkscape:connector-curvature="0"
     id="path2"
     style="fill:#808080;fill-opacity:1"
     d="M 0,7.49963 C 0,5.99956 0.64063,5.00716 1.55811,4.52571 2.47558,4.04426 3.57696,3.99955 4.6294,3.99955 h 8.54004 V 4.99964 H 4.6294 c -1.01205,0 -1.97556,0.0804 -2.60644,0.41146 C 1.39206,5.74216 1.00049,6.24964 1.00049,7.49963 V 12 H 0 Z" />
  <path
     inkscape:connector-curvature="0"
     id="path4"
     style="fill:#808080;fill-opacity:1"
     d="m 11.00049,7 0.002,-5 c 0.76042,0.34766 1.53457,0.73665 2.32275,1.1664 0.78078,0.43079 1.53392,0.87511 2.25892,1.33339 -0.725,0.44911 -1.47814,0.88918 -2.25892,1.31996 C 12.53662,6.24974 11.76204,6.64307 11.0012,7 Z" />
</svg>
