<svg width="256" height="256" viewBox="0 0 256 256" fill="none" xmlns="http://www.w3.org/2000/svg">
<path fill-rule="evenodd" clip-rule="evenodd" d="M236.924 0L193.95 23.5739C210.185 28.7993 224.808 37.3457 236.924 48.3617V0ZM0 128.039L43.345 104.261C41.5737 111.919 40.64 119.876 40.64 128.039C40.64 136.203 41.5737 144.159 43.345 151.817L0 128.039ZM57.2292 129.399C57.2222 128.947 57.2191 128.493 57.2191 128.039C57.2191 127.585 57.2222 127.132 57.2292 126.679V129.399ZM236.924 256L194.04 232.475C210.239 227.247 224.831 218.712 236.924 207.716V256ZM118.41 58.6533C129.892 52.8972 142.977 49.6387 156.865 49.6387C199.644 49.6387 234.81 80.5572 238.967 120.163H256C251.788 71.6498 209.018 33.522 156.865 33.522C139.889 33.522 123.906 37.5628 109.924 44.6876L118.41 58.6533ZM95.9983 53.2763L104.572 67.3865C86.1219 81.7637 74.3517 103.593 74.3517 128.039C74.3517 144.08 79.4358 158.989 88.1373 171.413L159.467 93.5264L170.827 112.824L91.0834 198.943C70.4221 181.624 57.3893 156.279 57.3893 128.039C57.3893 97.6251 72.5103 70.5652 95.9983 53.2763ZM256 135.916H238.937C238.503 139.799 237.764 143.596 236.776 147.302L197.58 105.908L103.315 207.707C118.774 217.107 137.15 222.556 156.865 222.556C209.018 222.556 251.788 184.435 256 135.916Z" fill="#DD682A"/>
</svg>
