<?xml version="1.0" encoding="UTF-8" standalone="no"?>
<svg
   width="256"
   height="256"
   viewBox="0 0 256 256"
   fill="none"
   version="1.1"
   id="svg2143"
   sodipodi:docname="ubuntucinnamon.svg"
   inkscape:version="1.2.2 (b0a8486541, 2022-12-01)"
   xmlns:inkscape="http://www.inkscape.org/namespaces/inkscape"
   xmlns:sodipodi="http://sodipodi.sourceforge.net/DTD/sodipodi-0.dtd"
   xmlns="http://www.w3.org/2000/svg"
   xmlns:svg="http://www.w3.org/2000/svg">
  <defs
     id="defs2147" />
  <sodipodi:namedview
     id="namedview2145"
     pagecolor="#ffffff"
     bordercolor="#000000"
     borderopacity="0.25"
     inkscape:showpageshadow="2"
     inkscape:pageopacity="0.0"
     inkscape:pagecheckerboard="0"
     inkscape:deskcolor="#d1d1d1"
     showgrid="false"
     inkscape:zoom="2.3146699"
     inkscape:cx="113.83913"
     inkscape:cy="132.84832"
     inkscape:window-width="1920"
     inkscape:window-height="1003"
     inkscape:window-x="0"
     inkscape:window-y="0"
     inkscape:window-maximized="1"
     inkscape:current-layer="svg2143"
     showguides="false" />
  <path
     fill-rule="evenodd"
     clip-rule="evenodd"
     d="M 231.81819,0 190.8586,23.5739 c 15.47398,5.2254 29.41153,13.7718 40.95959,24.7878 z M 6,128.039 47.313203,104.261 c -1.688271,7.658 -2.578203,15.615 -2.578203,23.778 0,8.164 0.889932,16.12 2.578203,23.778 z m 54.546581,1.36 c -0.0066,-0.452 -0.0096,-0.906 -0.0096,-1.36 0,-0.454 0.003,-0.907 0.0096,-1.36 z M 231.81819,256 190.94437,232.475 c 15.43968,-5.228 29.34768,-13.763 40.87382,-24.759 z M 118.85953,58.6533 c 10.94378,-5.7561 23.41542,-9.0146 36.65242,-9.0146 40.77374,0 74.29134,30.9185 78.25347,70.5243 h 16.23459 c -4.01457,-48.5132 -44.77973,-86.641 -94.48806,-86.641 -16.18024,0 -31.41405,4.0408 -44.74064,11.1656 z m -21.36114,-5.377 8.17181,14.1102 C 88.08494,81.7637 76.866464,103.593 76.866464,128.039 c 0,16.041 4.845783,30.95 13.139406,43.374 l 67.98611,-77.8866 10.8275,19.2976 -76.00561,86.119 C 73.121064,181.624 60.699176,156.279 60.699176,128.039 c 0,-30.4139 14.412203,-57.4738 36.799214,-74.7627 z m 152.50162,82.6397 h -16.26319 c -0.41364,3.883 -1.11801,7.68 -2.05969,11.386 l -37.35869,-41.394 -89.84632,101.799 c 14.73436,9.4 32.24898,14.849 51.03983,14.849 49.70833,0 90.47349,-38.121 94.48806,-86.64 z"
     fill="#dd682a"
     id="path2141"
     style="stroke-width:0.976281" />
</svg>
