<?xml version="1.0" encoding="UTF-8" standalone="no"?>
<svg
   xmlns:dc="http://purl.org/dc/elements/1.1/"
   xmlns:cc="http://creativecommons.org/ns#"
   xmlns:rdf="http://www.w3.org/1999/02/22-rdf-syntax-ns#"
   xmlns:svg="http://www.w3.org/2000/svg"
   xmlns="http://www.w3.org/2000/svg"
   xmlns:sodipodi="http://sodipodi.sourceforge.net/DTD/sodipodi-0.dtd"
   xmlns:inkscape="http://www.inkscape.org/namespaces/inkscape"
   height="16"
   width="16"
   version="1.1"
   id="svg4"
   sodipodi:docname="bookmark-missing-symbolic.svg"
   inkscape:version="0.92.3 (2405546, 2018-03-11)">
  <metadata
     id="metadata10">
    <rdf:RDF>
      <cc:Work
         rdf:about="">
        <dc:format>image/svg+xml</dc:format>
        <dc:type
           rdf:resource="http://purl.org/dc/dcmitype/StillImage" />
      </cc:Work>
    </rdf:RDF>
  </metadata>
  <defs
     id="defs8" />
  <sodipodi:namedview
     pagecolor="#ffffff"
     bordercolor="#666666"
     borderopacity="1"
     objecttolerance="10"
     gridtolerance="10"
     guidetolerance="10"
     inkscape:pageopacity="0"
     inkscape:pageshadow="2"
     inkscape:window-width="640"
     inkscape:window-height="480"
     id="namedview6"
     showgrid="true"
     inkscape:zoom="25.809398"
     inkscape:cx="2.8255589"
     inkscape:cy="7.0320287"
     inkscape:current-layer="svg4">
    <inkscape:grid
       type="xygrid"
       id="grid833" />
  </sodipodi:namedview>
  <path
     style="line-height:normal;font-variant-ligatures:none;font-variant-position:normal;font-variant-caps:normal;font-variant-numeric:normal;font-variant-alternates:normal;font-feature-settings:normal;text-indent:0;text-align:start;text-decoration-line:none;text-decoration-style:solid;text-decoration-color:#000;text-transform:none;shape-padding:0;isolation:auto;mix-blend-mode:normal;marker:none;fill:#808080;fill-opacity:1"
     d="M 3.9941406 1 C 2.7361406 1.015 1.8155 0.97071875 1.0625 1.3867188 A 1.878 1.878 0 0 0 0.22265625 2.3828125 C 0.05865625 2.8208125 0 3.343 0 4 L 0 12 C 0 12.658 0.05765625 13.179188 0.22265625 13.617188 C 0.38665625 14.056188 0.6855 14.407234 1.0625 14.615234 C 1.8145 15.031234 2.7361406 14.985 3.9941406 15 L 10 15 L 10 14 L 4 14 C 2.74 13.985 1.912875 13.940281 1.546875 13.738281 C 1.362875 13.638281 1.2571562 13.525625 1.1601562 13.265625 C 1.0631562 13.005625 1 12.592 1 12 L 1 8 C 1 7.408 1.0641094 6.994375 1.1621094 6.734375 C 1.2601094 6.474375 1.3648281 6.3627187 1.5488281 6.2617188 C 1.9158281 6.0587187 2.7438125 6.015 4.0078125 6 L 7.4433594 6 L 9.4648438 4 L 11.992188 4 C 13.256187 4.015 14.083172 4.0597187 14.451172 4.2617188 C 14.634172 4.3617187 14.739891 4.474375 14.837891 4.734375 C 14.935891 4.994375 15 5.408 15 6 L 15 12 C 15 12.592 14.936844 13.005625 14.839844 13.265625 C 14.741844 13.525625 14.637125 13.637281 14.453125 13.738281 C 14.345753 13.797541 14.186016 13.839558 14 13.875 L 14 14.902344 C 14.338915 14.848691 14.654861 14.771005 14.9375 14.615234 C 15.3135 14.408234 15.612344 14.055188 15.777344 13.617188 C 15.941344 13.179187 16 12.657 16 12 L 16 6 C 16 5.342 15.942344 4.8208125 15.777344 4.3828125 C 15.757344 4.3278125 15.729125 4.2785156 15.703125 4.2285156 L 15.675781 4.171875 A 1.838 1.838 0 0 0 14.9375 3.3847656 C 14.1845 2.9687656 13.263859 3.015 12.005859 3 L 8.9667969 3 L 6.9453125 1 L 3.9960938 1 L 3.9941406 1 z M 4.0058594 2 L 6.5351562 2 L 8.3007812 3.7460938 L 7.0332031 5 L 3.9941406 5 C 2.7361406 5.015 1.8155 4.9697656 1.0625 5.3847656 C 1.0405 5.3967656 1.022 5.4147344 1 5.4277344 L 1 4 C 1 3.408 1.0621563 2.994375 1.1601562 2.734375 C 1.2581562 2.474375 1.362875 2.3627188 1.546875 2.2617188 C 1.912875 2.0587188 2.7418594 2.015 4.0058594 2 z "
     id="path2" />
  <path
     style="line-height:normal;font-variant-ligatures:normal;font-variant-position:normal;font-variant-caps:normal;font-variant-numeric:normal;font-variant-alternates:normal;font-feature-settings:normal;text-indent:0;text-align:start;text-decoration:none;text-decoration-line:none;text-decoration-style:solid;text-decoration-color:#000000;text-transform:none;text-orientation:mixed;shape-padding:0;isolation:auto;mix-blend-mode:normal;fill:#f22c42;fill-opacity:1"
     d="m 11.29,6 v 2.662 c 0,0.793 0.03,1.517 0.086,2.168 0.057,0.642 0.128,1.284 0.213,1.926 h 0.82 c 0.085,-0.642 0.157,-1.284 0.213,-1.926 0.057,-0.651 0.086,-1.375 0.086,-2.168 V 6 Z"
     id="path9"
     inkscape:connector-curvature="0" />
  <path
     style="line-height:normal;font-variant-ligatures:normal;font-variant-position:normal;font-variant-caps:normal;font-variant-numeric:normal;font-variant-alternates:normal;font-feature-settings:normal;text-indent:0;text-align:start;text-decoration:none;text-decoration-line:none;text-decoration-style:solid;text-decoration-color:#000000;text-transform:none;text-orientation:mixed;shape-padding:0;isolation:auto;mix-blend-mode:normal;fill:#f22c42;fill-opacity:1"
     d="m 12,14 a 1,1 0 0 0 -1,1 c 0,0.282 0.118,0.535 0.306,0.717 0.17,0.189 0.4,0.283 0.693,0.283 0.293,0 0.524,-0.094 0.694,-0.283 A 0.994,0.994 0 0 0 12.999,15 a 1,1 0 0 0 -1,-1 z"
     id="path2-3"
     inkscape:connector-curvature="0" />
</svg>
