<?xml version="1.0" encoding="UTF-8" standalone="no"?>
<svg
   height="16"
   id="svg7384"
   version="1.1"
   width="16.125"
   sodipodi:docname="folder-pictures-symbolic.svg"
   inkscape:version="1.1.2 (0a00cf5339, 2022-02-04)"
   xmlns:inkscape="http://www.inkscape.org/namespaces/inkscape"
   xmlns:sodipodi="http://sodipodi.sourceforge.net/DTD/sodipodi-0.dtd"
   xmlns="http://www.w3.org/2000/svg"
   xmlns:svg="http://www.w3.org/2000/svg"
   xmlns:rdf="http://www.w3.org/1999/02/22-rdf-syntax-ns#"
   xmlns:cc="http://creativecommons.org/ns#"
   xmlns:dc="http://purl.org/dc/elements/1.1/">
  <sodipodi:namedview
     id="namedview23"
     pagecolor="#ffffff"
     bordercolor="#666666"
     borderopacity="1.0"
     inkscape:pageshadow="2"
     inkscape:pageopacity="0.0"
     inkscape:pagecheckerboard="0"
     showgrid="false"
     inkscape:zoom="52"
     inkscape:cx="8.0576923"
     inkscape:cy="8.0096154"
     inkscape:window-width="1920"
     inkscape:window-height="1003"
     inkscape:window-x="0"
     inkscape:window-y="0"
     inkscape:window-maximized="1"
     inkscape:current-layer="svg7384" />
  <metadata
     id="metadata20854">
    <rdf:RDF>
      <cc:Work
         rdf:about="">
        <dc:title />
        <dc:format>image/svg+xml</dc:format>
        <dc:type
           rdf:resource="http://purl.org/dc/dcmitype/StillImage" />
      </cc:Work>
    </rdf:RDF>
  </metadata>
  <defs
     id="defs7386">
    <linearGradient
       id="linearGradient5606"
       inkscape:swatch="solid">
      <stop
         id="stop5608"
         offset="0"
         style="stop-color:#000000;stop-opacity:1;" />
    </linearGradient>
    <linearGradient
       id="linearGradient4526"
       inkscape:swatch="solid">
      <stop
         id="stop4528"
         offset="0"
         style="stop-color:#ffffff;stop-opacity:1;" />
    </linearGradient>
    <linearGradient
       id="linearGradient3600-4"
       inkscape:swatch="gradient">
      <stop
         id="stop3602-7"
         offset="0"
         style="stop-color:#f4f4f4;stop-opacity:1" />
      <stop
         id="stop3604-6"
         offset="1"
         style="stop-color:#dbdbdb;stop-opacity:1" />
    </linearGradient>
  </defs>
  <g
     id="layer9"
     label="status"
     style="display:inline"
     transform="translate(-552.9997,327)" />
  <g
     id="layer2"
     style="display:inline"
     transform="translate(-311.9995,-40.000005)">
    <path
       d="m 315.99364,41 c -1.2582,0.0145 -2.17889,-0.0306 -2.93164,0.384766 -0.37637,0.20766 -0.67323,0.559388 -0.83789,0.998046 -0.16467,0.438671 -0.0652,0.979194 -0.22461,1.617188 v 4 4 c 0,0.65761 0.0599,1.178527 0.22461,1.617188 0.16467,0.438657 0.46152,0.790396 0.83789,0.998046 0.75275,0.41532 1.67345,0.370196 2.93164,0.384766 h 0.004 2.00195 4.125 2.00195 0.004 c 1.25819,-0.01457 2.17889,0.03055 2.93164,-0.384766 0.37637,-0.20765 0.67322,-0.559389 0.83789,-0.998046 C 328.0646,53.178527 328.1245,52.65761 328.1245,52 v -4 -4 c 0,-0.65761 -0.0599,-1.178517 -0.22461,-1.617188 -0.16466,-0.438659 -0.46152,-0.790386 -0.83789,-0.998046 C 326.30925,40.9694 325.38856,41.0145 324.13036,41 h -0.004 -2.00195 -4.125 -2.00195 z m 2.00586,1 h 4.125 c 2,0 3.48446,-0.01562 4.22656,0.224609 C 327.33454,42.671819 327.1245,44 327.1245,45 c -8.5e-4,2.123172 -0.0362,4.676961 -0.125,7 h -4.875 -4.125 -4.875 c -0.0888,-2.323039 -0.12415,-4.876828 -0.125,-7 0,-1 -0.21004,-2.328181 0.77344,-2.775391 C 314.51513,41.984376 315.9995,42 317.9995,42 Z"
       id="rect4520"
       style="color:#000000;display:inline;overflow:visible;visibility:visible;fill:#808080;fill-opacity:1;fill-rule:nonzero;stroke:none;stroke-width:3.99920893;marker:none;enable-background:accumulate" />
  </g>
  <g
     id="layer4"
     style="display:inline"
     transform="translate(-311.9995,-40.000005)" />
  <g
     id="g1812"
     style="display:inline"
     transform="translate(-311.9995,-40.000005)" />
  <g
     id="g6217"
     style="display:inline"
     transform="translate(-311.9995,-40.000005)" />
  <g
     id="layer3"
     style="display:inline"
     transform="translate(-311.9995,-40.000005)" />
  <g
     id="g1833"
     style="display:inline"
     transform="translate(-311.9995,-40.000005)" />
  <g
     id="layer1"
     style="display:inline"
     transform="translate(-311.9995,-40.000005)" />
</svg>
