<?xml version="1.0" encoding="UTF-8" standalone="no"?>
<svg
   xmlns:dc="http://purl.org/dc/elements/1.1/"
   xmlns:cc="http://creativecommons.org/ns#"
   xmlns:rdf="http://www.w3.org/1999/02/22-rdf-syntax-ns#"
   xmlns:svg="http://www.w3.org/2000/svg"
   xmlns="http://www.w3.org/2000/svg"
   xmlns:sodipodi="http://sodipodi.sourceforge.net/DTD/sodipodi-0.dtd"
   xmlns:inkscape="http://www.inkscape.org/namespaces/inkscape"
   height="16"
   width="16"
   version="1.1"
   id="svg8"
   sodipodi:docname="ac-adapter-symbolic.svg"
   inkscape:version="0.92.3 (2405546, 2018-03-11)">
  <metadata
     id="metadata14">
    <rdf:RDF>
      <cc:Work
         rdf:about="">
        <dc:format>image/svg+xml</dc:format>
        <dc:type
           rdf:resource="http://purl.org/dc/dcmitype/StillImage" />
      </cc:Work>
    </rdf:RDF>
  </metadata>
  <defs
     id="defs12" />
  <sodipodi:namedview
     pagecolor="#ffffff"
     bordercolor="#666666"
     borderopacity="1"
     objecttolerance="10"
     gridtolerance="10"
     guidetolerance="10"
     inkscape:pageopacity="0"
     inkscape:pageshadow="2"
     inkscape:window-width="640"
     inkscape:window-height="480"
     id="namedview10"
     showgrid="true"
     inkscape:zoom="12.904699"
     inkscape:cx="-8.3495937"
     inkscape:cy="6.309091"
     inkscape:current-layer="svg8">
    <inkscape:grid
       type="xygrid"
       id="grid829" />
  </sodipodi:namedview>
  <path
     inkscape:connector-curvature="0"
     id="path4"
     style="color:#000000;font-weight:400;line-height:normal;font-family:sans-serif;font-variant-ligatures:none;font-variant-position:normal;font-variant-caps:normal;font-variant-numeric:normal;font-variant-alternates:normal;font-feature-settings:normal;text-indent:0;text-align:start;text-decoration:none;text-decoration-line:none;text-decoration-style:solid;text-decoration-color:#000000;text-transform:none;white-space:normal;shape-padding:0;overflow:visible;isolation:auto;mix-blend-mode:normal;fill:#808080;marker:none"
     overflow="visible"
     font-weight="400"
     d="m 3,12.338 c 0.01,0.839 -0.015,1.451 0.262,1.953 0.138,0.251 0.373,0.45 0.666,0.56 C 4.22,14.961 4.568,15 5.006,15 H 11 c 0.438,0 0.786,-0.039 1.078,-0.148 0.293,-0.11 0.526,-0.31 0.664,-0.56 C 13.019,13.789 12.99,13.177 13,12.338 V 3.631 C 12.99,2.792 13.019,2.178 12.742,1.676 A 1.25,1.25 0 0 0 12.078,1.117 C 11.786,1.007 11.438,1 11,1 H 10 V 0 H 6 V 1 H 5.006 C 4.568,1 4.22,1.007 3.928,1.117 3.635,1.227 3.4,1.425 3.262,1.676 2.985,2.178 3.01,2.792 3,3.631 v 8.705 z M 4,12.324 V 3.633 C 4.01,2.78 4.04,2.335 4.137,2.158 A 0.266,0.266 0 0 1 4.279,2.053 C 4.341,2.03 4.579,2 5.006,2 H 11 c 0.427,0 0.664,0.03 0.727,0.053 a 0.259,0.259 0 0 1 0.14,0.105 C 11.962,2.331 11.99,2.776 12,3.633 v 8.705 c -0.01,0.854 -0.038,1.298 -0.133,1.47 -0.016,0.03 -0.055,0.074 -0.14,0.106 C 11.604,13.96 11.378,14 11,14 H 5.006 C 4.628,14 4.402,13.96 4.279,13.914 A 0.266,0.266 0 0 1 4.137,13.809 C 4.039,13.631 4.01,13.189 4,12.324 Z" />
  <path
     style="fill:#808080"
     inkscape:connector-curvature="0"
     id="path6"
     d="M 7.5,13 10,6.9999999 H 8.5 v -5 l -2.5,6 h 1.5 z" />
</svg>
