<svg width="16" height="16" version="1.1" xmlns="http://www.w3.org/2000/svg">
<g fill="#dfdfdf">
<path d="m12.436 12.706c0 3e-3 0.01 6e-3 0.01 0.01 0 5e-3 0.01 0.01 0.01 0.015zm-8.879 2e-3 -0.02 0.026c0-5e-3 0.01-0.01 0.01-0.015 0-3e-3 0.01-6e-3 0.01-0.01z" font-size="15" font-weight="400" letter-spacing="0" word-spacing="0"/>
<path d="m8 0c-4.413 0-8 3.587-8 8s3.587 8 8 8c4.414 0 8-3.587 8-8s-3.586-8-8-8zm0 1a7 7 0 0 1 7 7 7 7 0 0 1-7 7 7 7 0 0 1-7-7 7 7 0 0 1 7-7z" color="#000000" font-weight="400" overflow="visible" style="font-feature-settings:normal;font-variant-alternates:normal;font-variant-caps:normal;font-variant-ligatures:none;font-variant-numeric:normal;font-variant-position:normal;isolation:auto;mix-blend-mode:normal;shape-padding:0;text-decoration-color:#000000;text-decoration-line:none;text-decoration-style:solid;text-indent:0;text-transform:none;white-space:normal"/>
<path d="m14.737 1.263c-1.684-1.684-2.526-1.684-4.21 0l-0.15 0.15a5.954 5.954 0 0 1 2.676 1.534 5.956 5.956 0 0 1 1.536 2.674l0.148-0.147c1.684-1.685 1.684-2.527 0-4.21zm-13.474 0c-1.684 1.684-1.684 2.526 0 4.21l0.15 0.15a5.955 5.955 0 0 1 1.534-2.676 5.955 5.955 0 0 1 2.674-1.536l-0.147-0.148c-1.684-1.683-2.527-1.683-4.21 0z" color="#000000" overflow="visible"/>
<path d="m7.5 3v5.207l3.146 3.147 0.707-0.708-2.853-2.853v-4.793z" color="#000000" fill-rule="evenodd" font-weight="400" overflow="visible" style="font-feature-settings:normal;font-variant-alternates:normal;font-variant-caps:normal;font-variant-ligatures:normal;font-variant-numeric:normal;font-variant-position:normal;isolation:auto;mix-blend-mode:normal;shape-padding:0;text-decoration-color:#000000;text-decoration-line:none;text-decoration-style:solid;text-indent:0;text-orientation:mixed;text-transform:none;white-space:normal"/>
</g>
</svg>
