<?xml version="1.0" encoding="UTF-8" standalone="no"?>
<svg
   xmlns:dc="http://purl.org/dc/elements/1.1/"
   xmlns:cc="http://creativecommons.org/ns#"
   xmlns:rdf="http://www.w3.org/1999/02/22-rdf-syntax-ns#"
   xmlns:svg="http://www.w3.org/2000/svg"
   xmlns="http://www.w3.org/2000/svg"
   xmlns:sodipodi="http://sodipodi.sourceforge.net/DTD/sodipodi-0.dtd"
   xmlns:inkscape="http://www.inkscape.org/namespaces/inkscape"
   height="16"
   width="16"
   version="1.1"
   id="svg6"
   sodipodi:docname="appointment-missed.svg"
   inkscape:version="0.92.3 (2405546, 2018-03-11)">
  <metadata
     id="metadata12">
    <rdf:RDF>
      <cc:Work
         rdf:about="">
        <dc:format>image/svg+xml</dc:format>
        <dc:type
           rdf:resource="http://purl.org/dc/dcmitype/StillImage" />
      </cc:Work>
    </rdf:RDF>
  </metadata>
  <defs
     id="defs10" />
  <sodipodi:namedview
     pagecolor="#ffffff"
     bordercolor="#666666"
     borderopacity="1"
     objecttolerance="10"
     gridtolerance="10"
     guidetolerance="10"
     inkscape:pageopacity="0"
     inkscape:pageshadow="2"
     inkscape:window-width="640"
     inkscape:window-height="480"
     id="namedview8"
     showgrid="false"
     inkscape:zoom="18.25"
     inkscape:cx="-7.6785388"
     inkscape:cy="7.1232876"
     inkscape:current-layer="svg6" />
  <path
     style="line-height:normal;text-indent:0;text-align:start;text-decoration-line:none;text-decoration-style:solid;text-decoration-color:#000;text-transform:none;isolation:auto;mix-blend-mode:normal;marker:none;fill:#dfdfdf;fill-opacity:1"
     d="M 6,0 5,0.25 V 1 h 1 z"
     id="path820" />
  <path
     style="line-height:normal;text-indent:0;text-align:start;text-decoration-line:none;text-decoration-style:solid;text-decoration-color:#000;text-transform:none;isolation:auto;mix-blend-mode:normal;marker:none;fill:#dfdfdf;fill-opacity:1"
     d="M 6,1 V 2 H 5 V 1 C 3.742,1.015 2.821,0.97 2.069,1.385 1.692,1.593 1.393,1.945 1.229,2.383 1.064,2.822 1.006,3.343 1.006,4 v 8 c 0,0.658 0.058,1.179 0.223,1.617 0.164,0.44 0.463,0.789 0.84,0.997 C 2.821,15.029 3.742,14.986 5,15 H 8.004 V 14 H 5 C 3.74,13.986 2.913,13.94 2.547,13.739 2.364,13.637 2.257,13.526 2.16,13.266 2.062,13.006 2,12.593 2,12 V 7 C 2,6.408 2.063,5.995 2.16,5.735 2.258,5.475 2.364,5.363 2.547,5.262 2.914,5.06 3.742,5.015 5.006,5 H 11 c 1.26,0.015 2.087,0.06 2.453,0.262 0.184,0.101 0.29,0.213 0.387,0.473 C 13.938,5.995 14,7 14,7 v 1 h 1 V 4 C 15,3.343 14.94,2.822 14.775,2.383 A 1.88,1.88 0 0 0 13.938,1.385 C 13.185,0.97 12.264,1.015 11.006,1 v 1 h -1 V 1 Z"
     id="path818" />
  <path
     style="line-height:normal;text-indent:0;text-align:start;text-decoration-line:none;text-decoration-style:solid;text-decoration-color:#000;text-transform:none;isolation:auto;mix-blend-mode:normal;marker:none;fill:#dfdfdf;fill-opacity:1"
     d="m 10,1 h 1 V 0 l -1,0.25 z"
     id="path2" />
  <path
     class="error"
     d="M12.5 9A3.5 3.5 0 0 0 9 12.5a3.5 3.5 0 0 0 3.5 3.5 3.5 3.5 0 0 0 3.5-3.5A3.5 3.5 0 0 0 12.5 9zm-.5 1h1v1.168c0 .349-.016.668-.047.957-.03.29-.069.581-.115.875h-.666a12.898 12.898 0 0 1-.125-.875 9.146 9.146 0 0 1-.047-.957zm.5 4a.5.5 0 0 1 .5.5.5.5 0 0 1-.5.5.5.5 0 0 1-.5-.5.5.5 0 0 1 .5-.5z"
     style="marker:none"
     color="#000"
     overflow="visible"
     fill="#f22c42"
     id="path4" />
</svg>
