<?xml version="1.0" encoding="UTF-8" standalone="no"?>
<svg
   xmlns:dc="http://purl.org/dc/elements/1.1/"
   xmlns:cc="http://creativecommons.org/ns#"
   xmlns:rdf="http://www.w3.org/1999/02/22-rdf-syntax-ns#"
   xmlns:svg="http://www.w3.org/2000/svg"
   xmlns="http://www.w3.org/2000/svg"
   xmlns:sodipodi="http://sodipodi.sourceforge.net/DTD/sodipodi-0.dtd"
   xmlns:inkscape="http://www.inkscape.org/namespaces/inkscape"
   height="16"
   width="16"
   version="1.1"
   id="svg4"
   sodipodi:docname="audio-volume-muted.svg"
   inkscape:version="0.92.3 (2405546, 2018-03-11)">
  <metadata
     id="metadata10">
    <rdf:RDF>
      <cc:Work
         rdf:about="">
        <dc:format>image/svg+xml</dc:format>
        <dc:type
           rdf:resource="http://purl.org/dc/dcmitype/StillImage" />
      </cc:Work>
    </rdf:RDF>
  </metadata>
  <defs
     id="defs8" />
  <sodipodi:namedview
     pagecolor="#ffffff"
     bordercolor="#666666"
     borderopacity="1"
     objecttolerance="10"
     gridtolerance="10"
     guidetolerance="10"
     inkscape:pageopacity="0"
     inkscape:pageshadow="2"
     inkscape:window-width="640"
     inkscape:window-height="480"
     id="namedview6"
     showgrid="false"
     inkscape:zoom="18.25"
     inkscape:cx="-1.5342466"
     inkscape:cy="7.5616438"
     inkscape:current-layer="svg4" />
  <path
     d="m 14.266,1.264 -13,13 0.47,0.472 L 4.975,11.498 8,14.666 V 8.473 L 10.312,6.16 c 0.467,0.542 0.737,1.227 0.737,1.947 0,0.796 -0.316,1.559 -0.88,2.122 l -0.353,0.353 0.707,0.707 0.354,-0.353 a 4,4 0 0 0 1.172,-2.829 c 0,-0.985 -0.377,-1.923 -1.03,-2.654 l 1.422,-1.422 a 5.994,5.994 0 0 1 1.608,4.076 5.999,5.999 0 0 1 -1.758,4.243 l -0.354,0.353 0.707,0.707 0.354,-0.353 a 7,7 0 0 0 2.05,-4.95 6.994,6.994 0 0 0 -1.9,-4.783 l 1.588,-1.588 z"
     id="path14"
     style="fill:#dfdfdf;fill-opacity:1" />
  <path
     d="M 8,1.334 4.5,5 H 1.871 C 1.871,5 1,5.894 1,8.002 1,10.11 1.871,11 1.871,11 H 3.293 L 8,6.293 Z"
     id="path2"
     style="fill:#dfdfdf;fill-opacity:1" />
</svg>
