<?xml version="1.0" encoding="UTF-8" standalone="no"?>
<svg
   xmlns:dc="http://purl.org/dc/elements/1.1/"
   xmlns:cc="http://creativecommons.org/ns#"
   xmlns:rdf="http://www.w3.org/1999/02/22-rdf-syntax-ns#"
   xmlns:svg="http://www.w3.org/2000/svg"
   xmlns="http://www.w3.org/2000/svg"
   xmlns:sodipodi="http://sodipodi.sourceforge.net/DTD/sodipodi-0.dtd"
   xmlns:inkscape="http://www.inkscape.org/namespaces/inkscape"
   height="16"
   width="16"
   version="1.1"
   id="svg6"
   sodipodi:docname="avatar-default.svg"
   inkscape:version="0.92.3 (2405546, 2018-03-11)">
  <metadata
     id="metadata12">
    <rdf:RDF>
      <cc:Work
         rdf:about="">
        <dc:format>image/svg+xml</dc:format>
        <dc:type
           rdf:resource="http://purl.org/dc/dcmitype/StillImage" />
      </cc:Work>
    </rdf:RDF>
  </metadata>
  <defs
     id="defs10" />
  <sodipodi:namedview
     pagecolor="#ffffff"
     bordercolor="#666666"
     borderopacity="1"
     objecttolerance="10"
     gridtolerance="10"
     guidetolerance="10"
     inkscape:pageopacity="0"
     inkscape:pageshadow="2"
     inkscape:window-width="640"
     inkscape:window-height="480"
     id="namedview8"
     showgrid="false"
     inkscape:zoom="18.25"
     inkscape:cx="-1.5342466"
     inkscape:cy="7.5616438"
     inkscape:current-layer="svg6" />
  <path
     style="color:#000000;font-weight:400;line-height:125%;font-family:Ubuntu;-inkscape-font-specification:'Ubuntu, Normal';font-variant-ligatures:normal;font-variant-position:normal;font-variant-caps:normal;font-variant-numeric:normal;font-variant-alternates:normal;font-feature-settings:normal;text-indent:0;text-align:start;text-decoration:none;text-decoration-line:none;text-decoration-style:solid;text-decoration-color:#000000;letter-spacing:0;word-spacing:0;text-transform:none;text-orientation:mixed;white-space:normal;shape-padding:0;overflow:visible;isolation:auto;mix-blend-mode:normal;fill:#dfdfdf;fill-opacity:1"
     d="M 8,2 A 2.84,2.84 0 0 0 6.88,2.221 C 6.535,2.362 6.229,2.569 5.974,2.836 V 2.839 L 5.973,2.841 C 5.725,3.11 5.533,3.433 5.399,3.801 5.262,4.168 5.196,4.57 5.196,5.001 c 0,0.435 0.065,0.841 0.203,1.209 0.135,0.361 0.327,0.68 0.574,0.95 l 0.001,0.002 c 0.254,0.267 0.558,0.477 0.901,0.624 v 0.003 c 0.346,0.141 0.723,0.21 1.12,0.21 0.395,0 0.77,-0.069 1.117,-0.21 V 7.787 C 9.455,7.64 9.756,7.43 10.004,7.162 10.259,6.894 10.454,6.572 10.59,6.21 10.728,5.842 10.794,5.436 10.794,5 h 0.01 c 0,-0.43 -0.065,-0.831 -0.203,-1.198 A 2.771,2.771 0 0 0 10.016,2.839 2.5,2.5 0 0 0 9.119,2.221 2.835,2.835 0 0 0 7.999,2 Z"
     id="path822" />
  <path
     style="color:#000000;font-weight:400;line-height:125%;font-family:Ubuntu;-inkscape-font-specification:'Ubuntu, Normal';font-variant-ligatures:normal;font-variant-position:normal;font-variant-caps:normal;font-variant-numeric:normal;font-variant-alternates:normal;font-feature-settings:normal;text-indent:0;text-align:start;text-decoration:none;text-decoration-line:none;text-decoration-style:solid;text-decoration-color:#000000;letter-spacing:0;word-spacing:0;text-transform:none;text-orientation:mixed;white-space:normal;shape-padding:0;overflow:visible;isolation:auto;mix-blend-mode:normal;fill:#dfdfdf;fill-opacity:1"
     d="m 8.024,10.002 c -2.317,0 -3.561,0.213 -4.486,0.91 C 3.076,11.262 2.771,11.737 2.599,12.29 2.427,12.843 2.373,13.265 2.371,14 L 8,14.002 h 5.629 C 13.628,13.266 13.577,12.843 13.404,12.29 13.232,11.737 12.927,11.263 12.464,10.914 11.541,10.217 10.34,10.002 8.024,10.002 Z"
     id="path2" />
</svg>
