<?xml version="1.0" encoding="UTF-8" standalone="no"?>
<svg
   xmlns:osb="http://www.openswatchbook.org/uri/2009/osb"
   xmlns:dc="http://purl.org/dc/elements/1.1/"
   xmlns:cc="http://creativecommons.org/ns#"
   xmlns:rdf="http://www.w3.org/1999/02/22-rdf-syntax-ns#"
   xmlns:svg="http://www.w3.org/2000/svg"
   xmlns="http://www.w3.org/2000/svg"
   xmlns:sodipodi="http://sodipodi.sourceforge.net/DTD/sodipodi-0.dtd"
   xmlns:inkscape="http://www.inkscape.org/namespaces/inkscape"
   height="16.000082"
   id="svg7384"
   version="1.1"
   width="16"
   sodipodi:docname="battery-level-80.svg"
   inkscape:version="0.92.3 (2405546, 2018-03-11)">
  <sodipodi:namedview
     pagecolor="#ffffff"
     bordercolor="#666666"
     borderopacity="1"
     objecttolerance="10"
     gridtolerance="10"
     guidetolerance="10"
     inkscape:pageopacity="0"
     inkscape:pageshadow="2"
     inkscape:window-width="640"
     inkscape:window-height="480"
     id="namedview22"
     showgrid="false"
     inkscape:zoom="18.249906"
     inkscape:cx="-1.9726539"
     inkscape:cy="7.5616826"
     inkscape:current-layer="svg7384" />
  <metadata
     id="metadata20854">
    <rdf:RDF>
      <cc:Work
         rdf:about="">
        <dc:title />
        <dc:format>image/svg+xml</dc:format>
        <dc:type
           rdf:resource="http://purl.org/dc/dcmitype/StillImage" />
      </cc:Work>
    </rdf:RDF>
  </metadata>
  <defs
     id="defs7386">
    <linearGradient
       id="linearGradient5606"
       osb:paint="solid">
      <stop
         id="stop5608"
         offset="0"
         style="stop-color:#000000;stop-opacity:1;" />
    </linearGradient>
    <linearGradient
       id="linearGradient4526"
       osb:paint="solid">
      <stop
         id="stop4528"
         offset="0"
         style="stop-color:#ffffff;stop-opacity:1;" />
    </linearGradient>
    <linearGradient
       id="linearGradient3600-4"
       osb:paint="gradient">
      <stop
         id="stop3602-7"
         offset="0"
         style="stop-color:#f4f4f4;stop-opacity:1" />
      <stop
         id="stop3604-6"
         offset="1"
         style="stop-color:#dbdbdb;stop-opacity:1" />
    </linearGradient>
  </defs>
  <path
     inkscape:connector-curvature="0"
     style="color:#000000;display:inline;overflow:visible;visibility:visible;opacity:1;fill:#dfdfdf;fill-opacity:1;fill-rule:nonzero;stroke:none;stroke-width:2.25;stroke-linecap:butt;stroke-linejoin:miter;stroke-miterlimit:4;stroke-dasharray:none;stroke-dashoffset:0;stroke-opacity:1;marker:none;enable-background:accumulate"
     id="path1335-2-7-2-5-4"
     d="M 5,13.00007 V 5.00006 h 6 v 8.00001 z" />
  <path
     inkscape:connector-curvature="0"
     style="color:#000000;font-style:normal;font-variant:normal;font-weight:normal;font-stretch:normal;font-size:medium;line-height:normal;font-family:sans-serif;font-variant-ligatures:none;font-variant-position:normal;font-variant-caps:normal;font-variant-numeric:normal;font-variant-alternates:normal;font-feature-settings:normal;text-indent:0;text-align:start;text-decoration:none;text-decoration-line:none;text-decoration-style:solid;text-decoration-color:#000000;letter-spacing:normal;word-spacing:normal;text-transform:none;writing-mode:lr-tb;direction:ltr;baseline-shift:baseline;text-anchor:start;white-space:normal;shape-padding:0;clip-rule:nonzero;display:inline;overflow:visible;visibility:visible;opacity:1;isolation:auto;mix-blend-mode:normal;color-interpolation:sRGB;color-interpolation-filters:linearRGB;solid-color:#000000;solid-opacity:1;fill:#dfdfdf;fill-opacity:1;fill-rule:nonzero;stroke:none;stroke-width:4.00000048;stroke-linecap:butt;stroke-linejoin:miter;stroke-miterlimit:4;stroke-dasharray:none;stroke-dashoffset:0;stroke-opacity:1;marker:none;color-rendering:auto;image-rendering:auto;shape-rendering:auto;text-rendering:auto;enable-background:accumulate"
     id="path1339-1-4-6-9-4"
     d="m 3,12.33798 c 0.01,0.8388 -0.015,1.45129 0.2617,1.95312 0.1385,0.25092 0.3736,0.45077 0.6661,0.56055 0.2924,0.10978 0.6397,0.14843 1.0781,0.14843 H 11 c 0.4384,0 0.7857,-0.0386 1.0782,-0.14843 0.2924,-0.10978 0.5256,-0.30963 0.664,-0.56055 0.2769,-0.50183 0.2481,-1.11432 0.2578,-1.95312 v -0.002 -8.70312 -0.002 C 12.99,2.79206 13.019,2.17762 12.7422,1.67579 12.6038,1.42487 12.3706,1.22697 12.0782,1.11719 11.7857,1.00752 11.4384,1 11,1 H 10 V 0 H 6 V 1 H 5.0059 C 4.5675,1 4.2202,1.007 3.9278,1.11719 3.6353,1.22697 3.4002,1.42487 3.2617,1.67579 2.9849,2.17762 3.0097,2.79206 3,3.63086 v 0.002 8.70312 z m 1,-0.0137 V 3.63288 C 4.01,2.78006 4.039,2.33523 4.1367,2.15827 4.1527,2.12957 4.1937,2.08487 4.2793,2.0528 4.3403,2.0297 4.5781,2.0001 5.0059,2.0001 H 11 c 0.4274,0 0.6642,0.0293 0.7266,0.0527 0.086,0.0321 0.1248,0.0768 0.1406,0.10547 0.095,0.1724 0.1223,0.6176 0.1328,1.47461 v 8.69336 0.0117 c -0.01,0.85438 -0.038,1.2983 -0.1328,1.4707 -0.016,0.0287 -0.055,0.0734 -0.1406,0.10547 -0.1228,0.0462 -0.3484,0.0859 -0.7266,0.0859 H 5.0059 c -0.3782,0 -0.6039,-0.0399 -0.7266,-0.0859 C 4.1933,13.88201 4.1526,13.83731 4.1367,13.80864 4.0387,13.63074 4.0103,13.18858 4,12.32426 Z" />
</svg>
