<?xml version="1.0" encoding="UTF-8" standalone="no"?>
<svg
   xmlns:dc="http://purl.org/dc/elements/1.1/"
   xmlns:cc="http://creativecommons.org/ns#"
   xmlns:rdf="http://www.w3.org/1999/02/22-rdf-syntax-ns#"
   xmlns:svg="http://www.w3.org/2000/svg"
   xmlns="http://www.w3.org/2000/svg"
   xmlns:sodipodi="http://sodipodi.sourceforge.net/DTD/sodipodi-0.dtd"
   xmlns:inkscape="http://www.inkscape.org/namespaces/inkscape"
   height="16"
   width="16"
   version="1.1"
   id="svg6"
   sodipodi:docname="battery-caution.svg"
   inkscape:version="0.92.3 (2405546, 2018-03-11)">
  <metadata
     id="metadata12">
    <rdf:RDF>
      <cc:Work
         rdf:about="">
        <dc:format>image/svg+xml</dc:format>
        <dc:type
           rdf:resource="http://purl.org/dc/dcmitype/StillImage" />
      </cc:Work>
    </rdf:RDF>
  </metadata>
  <defs
     id="defs10" />
  <sodipodi:namedview
     pagecolor="#ffffff"
     bordercolor="#666666"
     borderopacity="1"
     objecttolerance="10"
     gridtolerance="10"
     guidetolerance="10"
     inkscape:pageopacity="0"
     inkscape:pageshadow="2"
     inkscape:window-width="640"
     inkscape:window-height="480"
     id="namedview8"
     showgrid="false"
     inkscape:zoom="18.25"
     inkscape:cx="-7.1232877"
     inkscape:cy="7.1232876"
     inkscape:current-layer="svg6" />
  <path
     class="error"
     color="#000"
     d="M5 13v-2h6v2z"
     fill="#da1636"
     overflow="visible"
     style="marker:none"
     id="path2" />
  <path
     style="line-height:normal;font-variant-ligatures:none;font-variant-position:normal;font-variant-caps:normal;font-variant-numeric:normal;font-variant-alternates:normal;font-feature-settings:normal;text-indent:0;text-align:start;text-decoration-line:none;text-decoration-style:solid;text-decoration-color:#000;text-transform:none;shape-padding:0;isolation:auto;mix-blend-mode:normal;marker:none;fill:#dfdfdf;fill-opacity:1"
     d="M 6 0 L 6 1 L 5.0058594 1 C 4.5678594 1 4.2197344 1.0071875 3.9277344 1.1171875 C 3.6347344 1.2271875 3.3997187 1.4247812 3.2617188 1.6757812 C 2.9847187 2.1777812 3.01 2.7918594 3 3.6308594 L 3 12.335938 L 3 12.337891 C 3.01 13.176891 2.9847188 13.789016 3.2617188 14.291016 C 3.3997187 14.542016 3.6347344 14.741562 3.9277344 14.851562 C 4.2197344 14.961563 4.5678594 15 5.0058594 15 L 11 15 C 11.439 15 11.786125 14.960563 12.078125 14.851562 C 12.371125 14.741563 12.604188 14.542969 12.742188 14.292969 C 13.019187 13.789969 12.991 13.176891 13 12.337891 L 13 3.6308594 C 12.99 2.7918594 13.020188 2.1777812 12.742188 1.6757812 A 1.25 1.25 0 0 0 12.078125 1.1171875 C 11.786125 1.0071875 11.438 1 11 1 L 10 1 L 10 0 L 6 0 z M 5.0058594 2 L 11 2 C 11.428 2 11.663563 2.0297344 11.726562 2.0527344 C 11.812563 2.0847344 11.852188 2.1302031 11.867188 2.1582031 C 11.962188 2.3312031 11.99 2.7758125 12 3.6328125 L 12 12.337891 C 11.99 13.191891 11.962187 13.636594 11.867188 13.808594 C 11.851187 13.838594 11.811563 13.882063 11.726562 13.914062 C 11.603562 13.960062 11.378 14 11 14 L 5.0058594 14 C 4.6278594 14 4.4022969 13.960062 4.2792969 13.914062 A 0.262 0.262 0 0 1 4.1367188 13.808594 C 4.0387188 13.630594 4.011 13.189219 4 12.324219 L 4 3.6328125 C 4.01 2.7798125 4.0397188 2.3352031 4.1367188 2.1582031 A 0.266 0.266 0 0 1 4.2792969 2.0527344 C 4.3402969 2.0297344 4.5788594 2 5.0058594 2 z "
     id="path818" />
</svg>
