<?xml version="1.0" encoding="UTF-8" standalone="no"?>
<svg
   xmlns:dc="http://purl.org/dc/elements/1.1/"
   xmlns:cc="http://creativecommons.org/ns#"
   xmlns:rdf="http://www.w3.org/1999/02/22-rdf-syntax-ns#"
   xmlns:svg="http://www.w3.org/2000/svg"
   xmlns="http://www.w3.org/2000/svg"
   xmlns:sodipodi="http://sodipodi.sourceforge.net/DTD/sodipodi-0.dtd"
   xmlns:inkscape="http://www.inkscape.org/namespaces/inkscape"
   height="16"
   width="16"
   version="1.1"
   id="svg10"
   sodipodi:docname="battery-good-charging.svg"
   inkscape:version="0.92.3 (2405546, 2018-03-11)">
  <metadata
     id="metadata16">
    <rdf:RDF>
      <cc:Work
         rdf:about="">
        <dc:format>image/svg+xml</dc:format>
        <dc:type
           rdf:resource="http://purl.org/dc/dcmitype/StillImage" />
      </cc:Work>
    </rdf:RDF>
  </metadata>
  <defs
     id="defs14" />
  <sodipodi:namedview
     pagecolor="#ffffff"
     bordercolor="#666666"
     borderopacity="1"
     objecttolerance="10"
     gridtolerance="10"
     guidetolerance="10"
     inkscape:pageopacity="0"
     inkscape:pageshadow="2"
     inkscape:window-width="640"
     inkscape:window-height="480"
     id="namedview12"
     showgrid="false"
     inkscape:zoom="18.25"
     inkscape:cx="-1.9726027"
     inkscape:cy="7.5616438"
     inkscape:current-layer="svg10" />
  <path
     inkscape:connector-curvature="0"
     id="path2"
     style="color:#000000;overflow:visible;fill:#dfdfdf;marker:none;fill-opacity:1"
     overflow="visible"
     d="M 8,13 V 6 h 5 v 7 z" />
  <path
     inkscape:connector-curvature="0"
     id="path4"
     style="color:#000000;font-weight:400;line-height:normal;font-family:sans-serif;font-variant-ligatures:none;font-variant-position:normal;font-variant-caps:normal;font-variant-numeric:normal;font-variant-alternates:normal;font-feature-settings:normal;text-indent:0;text-align:start;text-decoration:none;text-decoration-line:none;text-decoration-style:solid;text-decoration-color:#000000;text-transform:none;white-space:normal;shape-padding:0;overflow:visible;isolation:auto;mix-blend-mode:normal;fill:#dfdfdf;marker:none;fill-opacity:1"
     overflow="visible"
     font-weight="400"
     d="m 6,12.338 c 0.01,0.839 -0.015,1.451 0.262,1.953 0.138,0.251 0.374,0.45 0.666,0.56 0.292,0.11 0.64,0.15 1.078,0.149 L 13,14.998 c 0.439,0 0.786,-0.039 1.078,-0.148 0.293,-0.11 0.526,-0.31 0.664,-0.561 0.277,-0.502 0.249,-1.114 0.258,-1.953 V 3.631 C 14.99,2.792 15.02,2.177 14.742,1.676 A 1.25,1.25 0 0 0 14.078,1.117 C 13.786,1.007 13.438,1 13,1 H 12 V 0 H 9 V 1 H 8.006 C 7.568,1 7.22,1.01 6.928,1.117 6.636,1.227 6.4,1.425 6.262,1.676 5.985,2.177 6.01,2.792 6,3.631 v 8.703 z M 7,12.324 V 3.633 C 7.01,2.78 7.04,2.335 7.137,2.158 7.153,2.129 7.194,2.085 7.28,2.053 7.34,2.03 7.578,2 8.006,2 H 13 c 0.428,0 0.664,0.029 0.727,0.053 0.086,0.032 0.125,0.077 0.14,0.105 0.095,0.173 0.123,0.618 0.133,1.475 v 8.705 c -0.01,0.854 -0.038,1.298 -0.133,1.47 -0.016,0.03 -0.055,0.074 -0.14,0.106 C 13.604,13.96 13.378,14 13,14 L 8.006,14.002 C 7.628,14.002 7.402,13.962 7.28,13.916 7.194,13.884 7.153,13.839 7.137,13.811 7.039,13.633 7.011,13.191 7,12.326 Z" />
  <path
     style="fill:#dfdfdf;fill-opacity:1"
     inkscape:connector-curvature="0"
     id="path6"
     d="M 2,14 4.5,8 H 3 V 3 L 0.5,9 H 2 Z" />
</svg>
