<?xml version="1.0" encoding="UTF-8" standalone="no"?>
<svg
   xmlns:dc="http://purl.org/dc/elements/1.1/"
   xmlns:cc="http://creativecommons.org/ns#"
   xmlns:rdf="http://www.w3.org/1999/02/22-rdf-syntax-ns#"
   xmlns:svg="http://www.w3.org/2000/svg"
   xmlns="http://www.w3.org/2000/svg"
   xmlns:sodipodi="http://sodipodi.sourceforge.net/DTD/sodipodi-0.dtd"
   xmlns:inkscape="http://www.inkscape.org/namespaces/inkscape"
   height="16"
   width="16"
   version="1.1"
   id="svg8"
   sodipodi:docname="battery-missing.svg"
   inkscape:version="0.92.3 (2405546, 2018-03-11)">
  <metadata
     id="metadata14">
    <rdf:RDF>
      <cc:Work
         rdf:about="">
        <dc:format>image/svg+xml</dc:format>
        <dc:type
           rdf:resource="http://purl.org/dc/dcmitype/StillImage" />
      </cc:Work>
    </rdf:RDF>
  </metadata>
  <defs
     id="defs12" />
  <sodipodi:namedview
     pagecolor="#ffffff"
     bordercolor="#666666"
     borderopacity="1"
     objecttolerance="10"
     gridtolerance="10"
     guidetolerance="10"
     inkscape:pageopacity="0"
     inkscape:pageshadow="2"
     inkscape:window-width="640"
     inkscape:window-height="480"
     id="namedview10"
     showgrid="false"
     inkscape:zoom="18.25"
     inkscape:cx="-1.9726027"
     inkscape:cy="7.5616438"
     inkscape:current-layer="svg8" />
  <path
     inkscape:connector-curvature="0"
     id="path2"
     style="color:#000000;font-weight:400;line-height:normal;font-family:sans-serif;font-variant-ligatures:none;font-variant-position:normal;font-variant-caps:normal;font-variant-numeric:normal;font-variant-alternates:normal;font-feature-settings:normal;text-indent:0;text-align:start;text-decoration:none;text-decoration-line:none;text-decoration-style:solid;text-decoration-color:#000000;text-transform:none;white-space:normal;shape-padding:0;overflow:visible;opacity:0.5;isolation:auto;mix-blend-mode:normal;fill:#dfdfdf;marker:none;fill-opacity:1"
     overflow="visible"
     font-weight="400"
     d="M 6,0 V 1 H 5.006 C 4.568,1 4.22,1.007 3.928,1.117 3.635,1.227 3.4,1.425 3.262,1.676 2.985,2.178 3.01,2.792 3,3.631 v 8.707 c 0.01,0.839 -0.015,1.451 0.262,1.953 0.138,0.251 0.373,0.45 0.666,0.56 0.292,0.11 0.64,0.15 1.078,0.15 h 2.65 A 2.184,2.184 0 0 1 6.957,14.744 1.931,1.931 0 0 1 6.783,14.637 1.724,1.724 0 0 1 6.6,14.479 C 6.573,14.453 6.54,14.432 6.516,14.404 A 2.005,2.005 0 0 1 6.244,14 H 5.006 C 4.628,14 4.402,13.96 4.279,13.914 A 0.262,0.262 0 0 1 4.137,13.809 C 4.039,13.631 4.011,13.189 4,12.324 V 3.522 L 3.57,2.858 4.057,2.518 C 4.077,2.371 4.097,2.224 4.133,2.158 A 0.266,0.266 0 0 1 4.275,2.053 C 4.317,2.037 4.545,2.025 4.775,2.016 L 5.078,1.805 5.14,1.774 A 6.885,6.885 0 0 1 6.505,1.252 5.51,5.51 0 0 1 7.251,1.119 9.38,9.38 0 0 1 8.031,1.065 L 8.125,1.037 h 0.158 c 0.355,0 0.688,0.026 1.002,0.08 0.322,0.056 0.624,0.14 0.908,0.264 v 0.002 c 0,0.002 0.016,0 0.016,0.002 a 1,1 0 0 1 0.09,0.045 l 0.492,0.219 v 0.117 c 0.14,0.081 0.283,0.157 0.41,0.25 0.228,0.01 0.474,0.02 0.518,0.037 0.086,0.032 0.125,0.077 0.14,0.106 0.063,0.113 0.092,0.404 0.11,0.792 0.094,0.187 0.178,0.38 0.233,0.58 0.12,0.395 0.19,0.792 0.19,1.184 0,0.4 -0.085,0.784 -0.22,1.149 v 0.07 l -0.07,0.135 c -0.01,0.017 -0.01,0.037 -0.018,0.054 a 1,1 0 0 1 -0.01,0.022 C 12.05,6.194 12.018,6.239 11.992,6.287 v 6.051 c -0.01,0.855 -0.038,1.299 -0.133,1.47 -0.016,0.03 -0.055,0.074 -0.14,0.106 C 11.596,13.96 11.37,14 10.992,14 H 9.756 c 0,0.008 -0.01,0.015 -0.016,0.023 -0.062,0.115 -0.132,0.22 -0.213,0.319 -0.016,0.02 -0.026,0.044 -0.043,0.062 -0.086,0.096 -0.188,0.18 -0.297,0.254 -0.024,0.017 -0.05,0.031 -0.076,0.047 A 2.02,2.02 0 0 1 8.911,14.812 2.208,2.208 0 0 1 8.346,15 h 2.646 c 0.439,0 0.786,-0.039 1.078,-0.148 0.293,-0.11 0.526,-0.31 0.664,-0.561 0.277,-0.502 0.248,-1.114 0.258,-1.953 V 3.631 c -0.01,-0.84 0.02,-1.454 -0.258,-1.955 A 1.25,1.25 0 0 0 12.07,1.117 C 11.778,1.007 11.43,1 10.992,1 h -1 V 0 Z" />
  <path
     inkscape:connector-curvature="0"
     id="path4"
     word-spacing="0"
     style="font-weight:500;font-size:72.03600311px;line-height:125%;font-family:Ubuntu;-inkscape-font-specification:'Ubuntu Medium';text-align:center;letter-spacing:0;word-spacing:0;text-anchor:middle;fill:#dfdfdf;fill-opacity:1"
     letter-spacing="0"
     font-weight="500"
     font-size="72.036"
     d="M 8.271,2.037 C 7.738,2.037 7.234,2.098 6.759,2.22 A 5.853,5.853 0 0 0 5.592,2.666 L 4.934,3.124 5.5,4 5.952,3.664 c 0.688,-0.35 1.394,-0.54 2.116,-0.54 0.607,0 1.09,0.16 1.421,0.491 0.327,0.316 0.493,0.737 0.493,1.236 0,0.311 -0.073,0.603 -0.217,0.868 C 9.635,5.977 9.466,6.222 9.257,6.455 9.052,6.682 8.837,6.91 8.609,7.137 v 0.001 a 6.392,6.392 0 0 0 -0.633,0.7 L 7.975,7.84 A 3.66,3.66 0 0 0 7.483,8.626 2.378,2.378 0 0 0 7.306,9.561 c 0,0.208 0.024,0.403 0.056,0.594 H 8.45 C 8.449,10.132 8.44,10.111 8.44,10.087 V 9.9 C 8.44,9.513 8.517,9.16 8.672,8.85 8.822,8.536 9.008,8.251 9.229,7.995 L 9.231,7.993 C 9.449,7.729 9.689,7.478 9.952,7.238 a 7.23,7.23 0 0 0 0.7,-0.734 c 0.21,-0.253 0.384,-0.522 0.527,-0.807 0.138,-0.288 0.209,-0.613 0.209,-0.982 A 3.06,3.06 0 0 0 11.241,3.801 L 11.24,3.799 V 3.797 A 2.04,2.04 0 0 0 10.758,2.93 C 10.524,2.675 10.206,2.464 9.801,2.3 V 2.298 C 9.416,2.126 8.906,2.037 8.273,2.037 Z M 8.001,12 c -0.326,0 -0.562,0.1 -0.743,0.3 a 1.025,1.025 0 0 0 -0.275,0.718 c 0,0.279 0.089,0.512 0.275,0.718 0.18,0.2 0.417,0.3 0.742,0.3 0.325,0 0.562,-0.099 0.743,-0.3 0.186,-0.206 0.275,-0.44 0.275,-0.718 0,-0.28 -0.089,-0.512 -0.275,-0.718 C 8.563,12.1 8.325,12 8,12 Z" />
</svg>
