<?xml version="1.0" encoding="UTF-8" standalone="no"?>
<svg
   xmlns:dc="http://purl.org/dc/elements/1.1/"
   xmlns:cc="http://creativecommons.org/ns#"
   xmlns:rdf="http://www.w3.org/1999/02/22-rdf-syntax-ns#"
   xmlns:svg="http://www.w3.org/2000/svg"
   xmlns="http://www.w3.org/2000/svg"
   xmlns:sodipodi="http://sodipodi.sourceforge.net/DTD/sodipodi-0.dtd"
   xmlns:inkscape="http://www.inkscape.org/namespaces/inkscape"
   height="16"
   width="16"
   version="1.1"
   id="svg4"
   sodipodi:docname="bluetooth-active.svg"
   inkscape:version="0.92.3 (2405546, 2018-03-11)">
  <metadata
     id="metadata10">
    <rdf:RDF>
      <cc:Work
         rdf:about="">
        <dc:format>image/svg+xml</dc:format>
        <dc:type
           rdf:resource="http://purl.org/dc/dcmitype/StillImage" />
        <dc:title></dc:title>
      </cc:Work>
    </rdf:RDF>
  </metadata>
  <defs
     id="defs8" />
  <sodipodi:namedview
     pagecolor="#ffffff"
     bordercolor="#666666"
     borderopacity="1"
     objecttolerance="10"
     gridtolerance="10"
     guidetolerance="10"
     inkscape:pageopacity="0"
     inkscape:pageshadow="2"
     inkscape:window-width="640"
     inkscape:window-height="480"
     id="namedview6"
     showgrid="true"
     inkscape:zoom="12.197592"
     inkscape:cx="-18.072041"
     inkscape:cy="8.3372231"
     inkscape:current-layer="svg4">
    <inkscape:grid
       type="xygrid"
       id="grid3715" />
  </sodipodi:namedview>
  <path
     style="color:#000000;font-weight:400;line-height:normal;font-family:sans-serif;text-indent:0;text-align:start;text-decoration:none;text-decoration-line:none;text-decoration-style:solid;text-decoration-color:#000000;text-transform:none;white-space:normal;shape-padding:0;overflow:visible;isolation:auto;mix-blend-mode:normal;fill:none;stroke:#dfdfdf;stroke-width:1;stroke-opacity:1;marker:none"
     d="M 5.91978,0.5 C 5.1580311,0.5093749 4.601718,0.4812499 4.1444869,0.7418749 3.9172348,0.8712499 3.7354332,1.0896874 3.6354423,1.3643749 3.5354514,1.638125 3.5,1.9643749 3.5,2.3749999 V 13.625 c 0,0.410625 0.035451,0.736876 0.1354423,1.010626 0.099991,0.274687 0.2817925,0.494998 0.5090446,0.624374 0.4563221,0.259687 1.0135442,0.230625 1.7752931,0.24 h 5.159531 c 0.762658,-0.0094 1.318971,0.01969 1.775294,-0.24 a 1.1362604,1.1718749 0 0 0 0.509044,-0.624374 C 13.463639,14.361876 13.5,14.035625 13.5,13.625 V 2.3749999 c 0,-0.410625 -0.03636,-0.7368749 -0.136351,-1.010625 a 1.1389874,1.1746875 0 0 0 -0.509044,-0.6225 C 12.398282,0.4821873 11.841969,0.5093749 11.079311,0.5 H 5.921598 Z"
     id="path16"
     inkscape:connector-curvature="0" />
  <path
     style="color:#000000;font-weight:400;line-height:normal;font-family:sans-serif;text-indent:0;text-align:start;text-decoration:none;text-decoration-line:none;text-decoration-style:solid;text-decoration-color:#000000;text-transform:none;white-space:normal;shape-padding:0;overflow:visible;isolation:auto;mix-blend-mode:normal;fill:#dfdfdf;fill-opacity:1;marker:none"
     d="M 8.072266,1.2929687 V 6.90625 L 5.644531,4.8671874 5,5.6328124 7.818359,8 5,10.367187 5.644531,11.132812 8.072266,9.09375 v 5.613281 L 12.3125,10.46875 9.373047,8 12.3125,5.53125 Z M 9,3.7070312 10.759766,5.4667968 9,6.947265 Z M 9,9.052734 10.759766,10.533203 9,12.292969 Z"
     id="path14"
     inkscape:connector-curvature="0" />
</svg>
