<?xml version="1.0" encoding="UTF-8" standalone="no"?>
<svg
   xmlns:dc="http://purl.org/dc/elements/1.1/"
   xmlns:cc="http://creativecommons.org/ns#"
   xmlns:rdf="http://www.w3.org/1999/02/22-rdf-syntax-ns#"
   xmlns:svg="http://www.w3.org/2000/svg"
   xmlns="http://www.w3.org/2000/svg"
   xmlns:sodipodi="http://sodipodi.sourceforge.net/DTD/sodipodi-0.dtd"
   xmlns:inkscape="http://www.inkscape.org/namespaces/inkscape"
   height="16"
   width="16"
   version="1.1"
   id="svg4"
   sodipodi:docname="bluetooth-paired.svg"
   inkscape:version="0.92.3 (2405546, 2018-03-11)">
  <metadata
     id="metadata10">
    <rdf:RDF>
      <cc:Work
         rdf:about="">
        <dc:format>image/svg+xml</dc:format>
        <dc:type
           rdf:resource="http://purl.org/dc/dcmitype/StillImage" />
        <dc:title></dc:title>
      </cc:Work>
    </rdf:RDF>
  </metadata>
  <defs
     id="defs8" />
  <sodipodi:namedview
     pagecolor="#ffffff"
     bordercolor="#666666"
     borderopacity="1"
     objecttolerance="10"
     gridtolerance="10"
     guidetolerance="10"
     inkscape:pageopacity="0"
     inkscape:pageshadow="2"
     inkscape:window-width="640"
     inkscape:window-height="480"
     id="namedview6"
     showgrid="true"
     inkscape:zoom="17.25"
     inkscape:cx="-6.1256586"
     inkscape:cy="6.6432381"
     inkscape:current-layer="svg4">
    <inkscape:grid
       type="xygrid"
       id="grid3715" />
  </sodipodi:namedview>
  <path
     style="color:#000000;font-style:normal;font-variant:normal;font-weight:400;font-stretch:normal;font-size:medium;line-height:normal;font-family:sans-serif;font-variant-ligatures:normal;font-variant-position:normal;font-variant-caps:normal;font-variant-numeric:normal;font-variant-alternates:normal;font-feature-settings:normal;text-indent:0;text-align:start;text-decoration:none;text-decoration-line:none;text-decoration-style:solid;text-decoration-color:#000000;letter-spacing:normal;word-spacing:normal;text-transform:none;writing-mode:lr-tb;direction:ltr;text-orientation:mixed;dominant-baseline:auto;baseline-shift:baseline;text-anchor:start;white-space:normal;shape-padding:0;clip-rule:nonzero;display:inline;overflow:visible;visibility:visible;opacity:1;isolation:auto;mix-blend-mode:normal;color-interpolation:sRGB;color-interpolation-filters:linearRGB;solid-color:#000000;solid-opacity:1;vector-effect:none;fill:#dfdfdf;fill-opacity:1;fill-rule:nonzero;stroke:none;stroke-width:1;stroke-linecap:butt;stroke-linejoin:miter;stroke-miterlimit:4;stroke-dasharray:none;stroke-dashoffset:0;stroke-opacity:1;marker:none;color-rendering:auto;image-rendering:auto;shape-rendering:auto;text-rendering:auto;enable-background:accumulate"
     d="M 3.9140625 0 C 3.1676115 0.0091818 2.5187456 -0.048052575 1.8964844 0.30664062 C 1.5585828 0.49900862 1.3034968 0.81568148 1.1660156 1.1933594 C 1.0351676 1.5515883 1 1.9355966 1 2.375 L 1 13.625 C 1 14.064403 1.035167 14.448411 1.1660156 14.806641 C 1.3032469 15.183631 1.5567805 15.501919 1.8964844 15.695312 C 2.5188161 16.049475 3.1680305 15.990818 3.9140625 16 L 3.9160156 16 L 9 16 L 9 15 L 3.9257812 15 L 3.9199219 15 C 3.1478109 14.990539 2.6817952 14.990762 2.3925781 14.826172 C 2.2777778 14.760815 2.1682193 14.637227 2.1054688 14.464844 C 2.0363347 14.275574 2 14.006847 2 13.625 L 2 2.375 C 2 1.9931532 2.0363345 1.7244275 2.1054688 1.5351562 C 2.1679691 1.3634591 2.2759755 1.2421633 2.3925781 1.1757812 C 2.6836769 1.0098529 3.1481539 1.0094541 3.9199219 1 L 3.9257812 1 L 9.0800781 1 C 9.8486351 1.00941 10.313384 1.0119851 10.603516 1.1757812 C 10.734211 1.2530462 10.839063 1.3765199 10.892578 1.5292969 L 10.892578 1.5332031 L 10.894531 1.5351562 C 10.963784 1.7253432 11 1.9938909 11 2.375 L 11 9.28125 C 11.054834 9.2488714 11.118049 9.2325632 11.175781 9.2050781 C 11.347242 8.8145428 11.638277 8.4948401 12 8.28125 L 12 2.375 C 12 1.9362858 11.963465 1.5535966 11.833984 1.1972656 C 11.70296 0.82520703 11.447235 0.50944598 11.107422 0.31054688 L 11.105469 0.30859375 L 11.101562 0.30664062 C 10.480459 -0.046880575 9.8337265 0.0091921 9.0859375 0 L 9.0820312 0 L 3.921875 0 L 3.9160156 0 L 3.9140625 0 z "
     id="path16" />
  <path
     style="color:#000000;font-weight:400;line-height:normal;font-family:sans-serif;text-indent:0;text-align:start;text-decoration:none;text-decoration-line:none;text-decoration-style:solid;text-decoration-color:#000000;text-transform:none;white-space:normal;shape-padding:0;overflow:visible;isolation:auto;mix-blend-mode:normal;fill:#dfdfdf;fill-opacity:1;marker:none"
     d="M 6.031274,1.2929689 V 6.90625 L 3.603539,4.8671872 2.9590084,5.6328122 5.777367,8 2.9590084,10.367187 3.603539,11.132812 6.031274,9.09375 v 5.613281 L 10.271508,10.46875 7.332055,8 10.271508,5.5312502 Z M 6.959008,3.7070312 8.718774,5.4667972 6.959008,6.947265 Z m 0,5.3457028 1.759766,1.480469 -1.759766,1.759766 z"
     id="path14"
     inkscape:connector-curvature="0" />
  <path
     inkscape:connector-curvature="0"
     style="color:#000000;font-weight:400;line-height:normal;font-family:sans-serif;font-variant-ligatures:none;font-variant-position:normal;font-variant-caps:normal;font-variant-numeric:normal;font-variant-alternates:normal;font-feature-settings:normal;text-indent:0;text-align:start;text-decoration:none;text-decoration-line:none;text-decoration-style:solid;text-decoration-color:#000000;text-transform:none;white-space:normal;shape-padding:0;overflow:visible;isolation:auto;mix-blend-mode:normal;fill:#dfdfdf;fill-opacity:1;marker:none"
     d="m 13,9 c -1.108,0 -2,0.91025 -2,2.03125 V 12 h -1 v 4 h 6 V 12 H 15 V 11.03125 C 15,9.91125 14.108,9 13,9 Z m 0,1 c 0.554,0 1,0.442 1,1 v 1 h -2 v -1 c 0,-0.558 0.446,-1 1,-1 z"
     id="path826" />
</svg>
