<?xml version="1.0" encoding="UTF-8" standalone="no"?>
<svg
   xmlns:dc="http://purl.org/dc/elements/1.1/"
   xmlns:cc="http://creativecommons.org/ns#"
   xmlns:rdf="http://www.w3.org/1999/02/22-rdf-syntax-ns#"
   xmlns:svg="http://www.w3.org/2000/svg"
   xmlns="http://www.w3.org/2000/svg"
   xmlns:sodipodi="http://sodipodi.sourceforge.net/DTD/sodipodi-0.dtd"
   xmlns:inkscape="http://www.inkscape.org/namespaces/inkscape"
   height="16"
   width="16"
   version="1.1"
   id="svg6"
   sodipodi:docname="channel-insecure.svg"
   inkscape:version="0.92.3 (2405546, 2018-03-11)">
  <metadata
     id="metadata12">
    <rdf:RDF>
      <cc:Work
         rdf:about="">
        <dc:format>image/svg+xml</dc:format>
        <dc:type
           rdf:resource="http://purl.org/dc/dcmitype/StillImage" />
      </cc:Work>
    </rdf:RDF>
  </metadata>
  <defs
     id="defs10" />
  <sodipodi:namedview
     pagecolor="#ffffff"
     bordercolor="#666666"
     borderopacity="1"
     objecttolerance="10"
     gridtolerance="10"
     guidetolerance="10"
     inkscape:pageopacity="0"
     inkscape:pageshadow="2"
     inkscape:window-width="640"
     inkscape:window-height="480"
     id="namedview8"
     showgrid="false"
     inkscape:zoom="18.25"
     inkscape:cx="-7.1232877"
     inkscape:cy="7.1232876"
     inkscape:current-layer="svg6" />
  <path
     style="line-height:normal;font-variant-ligatures:normal;font-variant-position:normal;font-variant-caps:normal;font-variant-numeric:normal;font-variant-alternates:normal;font-feature-settings:normal;text-indent:0;text-align:start;text-decoration-line:none;text-decoration-style:solid;text-decoration-color:#000;text-transform:none;text-orientation:mixed;shape-padding:0;isolation:auto;mix-blend-mode:normal;marker:none;fill:#dfdfdf;fill-opacity:1"
     d="M 4.994,1 C 3.736,1.015 2.816,0.97 2.063,1.385 A 1.88,1.88 0 0 0 1.225,2.383 C 1.06,2.821 1,3.343 1,4 v 8 c 0,0.658 0.06,1.179 0.225,1.617 0.165,0.439 0.461,0.789 0.838,0.996 0.753,0.416 1.673,0.372 2.931,0.387 h 3.002 v -2 h -4 V 8 h 1 V 6 c 0,-1.653 1.347,-3 3,-3 1.654,0 3,1.347 3,3 v 2 h 4 V 4 c 0,-0.658 -0.06,-1.179 -0.224,-1.617 A 1.88,1.88 0 0 0 13.934,1.385 C 13.181,0.969 12.26,1.015 11.002,1 H 4.998 Z"
     id="path820" />
  <path
     style="line-height:normal;font-variant-ligatures:normal;font-variant-position:normal;font-variant-caps:normal;font-variant-numeric:normal;font-variant-alternates:normal;font-feature-settings:normal;text-indent:0;text-align:start;text-decoration-line:none;text-decoration-style:solid;text-decoration-color:#000;text-transform:none;text-orientation:mixed;shape-padding:0;isolation:auto;mix-blend-mode:normal;marker:none;fill:#dfdfdf;fill-opacity:1"
     d="M 8,4 C 6.884,4 6,4.883 6,6 v 2 h 4 V 6 C 10,4.883 9.117,4 8,4 Z"
     id="path818" />
  <path
     style="line-height:normal;font-variant-ligatures:normal;font-variant-position:normal;font-variant-caps:normal;font-variant-numeric:normal;font-variant-alternates:normal;font-feature-settings:normal;text-indent:0;text-align:start;text-decoration-line:none;text-decoration-style:solid;text-decoration-color:#000;text-transform:none;text-orientation:mixed;shape-padding:0;isolation:auto;mix-blend-mode:normal;marker:none;fill:#dfdfdf;fill-opacity:1"
     d="M 8,9.25 7,9.5 V 12 h 1 z"
     id="path2" />
  <path
     class="warning"
     color="#000"
     d="M12.48 9.729a.443.443 0 0 0-.36.22l-3.061 5.397a.437.437 0 0 0 .379.654h6.125a.437.437 0 0 0 .379-.654l-3.059-5.397a.442.442 0 0 0-.402-.22zM12 11h1v.168c0 .348-.016.667-.047.957-.03.29-.069.581-.115.875h-.666a12.898 12.898 0 0 1-.125-.875 9.146 9.146 0 0 1-.047-.957zm.5 3a.5.5 0 1 1 0 1 .5.5 0 0 1 0-1z"
     fill="#fdc92b"
     fill-rule="evenodd"
     font-family="sans-serif"
     font-weight="400"
     overflow="visible"
     style="line-height:normal;text-indent:0;text-align:start;text-decoration-line:none;text-decoration-style:solid;text-decoration-color:#000;text-transform:none;isolation:auto;mix-blend-mode:normal"
     white-space="normal"
     id="path4" />
</svg>
