<?xml version="1.0" encoding="UTF-8" standalone="no"?>
<svg
   xmlns:dc="http://purl.org/dc/elements/1.1/"
   xmlns:cc="http://creativecommons.org/ns#"
   xmlns:rdf="http://www.w3.org/1999/02/22-rdf-syntax-ns#"
   xmlns:svg="http://www.w3.org/2000/svg"
   xmlns="http://www.w3.org/2000/svg"
   xmlns:sodipodi="http://sodipodi.sourceforge.net/DTD/sodipodi-0.dtd"
   xmlns:inkscape="http://www.inkscape.org/namespaces/inkscape"
   height="16"
   width="16"
   version="1.1"
   id="svg4"
   sodipodi:docname="channel-secure.svg"
   inkscape:version="0.92.3 (2405546, 2018-03-11)">
  <metadata
     id="metadata10">
    <rdf:RDF>
      <cc:Work
         rdf:about="">
        <dc:format>image/svg+xml</dc:format>
        <dc:type
           rdf:resource="http://purl.org/dc/dcmitype/StillImage" />
      </cc:Work>
    </rdf:RDF>
  </metadata>
  <defs
     id="defs8" />
  <sodipodi:namedview
     pagecolor="#ffffff"
     bordercolor="#666666"
     borderopacity="1"
     objecttolerance="10"
     gridtolerance="10"
     guidetolerance="10"
     inkscape:pageopacity="0"
     inkscape:pageshadow="2"
     inkscape:window-width="640"
     inkscape:window-height="480"
     id="namedview6"
     showgrid="false"
     inkscape:zoom="18.25"
     inkscape:cx="-1.9726027"
     inkscape:cy="7.5616438"
     inkscape:current-layer="svg4" />
  <path
     style="line-height:normal;font-variant-ligatures:normal;font-variant-position:normal;font-variant-caps:normal;font-variant-numeric:normal;font-variant-alternates:normal;font-feature-settings:normal;text-indent:0;text-align:start;text-decoration-line:none;text-decoration-style:solid;text-decoration-color:#000;text-transform:none;text-orientation:mixed;shape-padding:0;isolation:auto;mix-blend-mode:normal;marker:none;fill:#dfdfdf;fill-opacity:1"
     d="M 4.9941406 1 C 3.7361406 1.015 2.8155 0.96976562 2.0625 1.3847656 A 1.88 1.88 0 0 0 1.2246094 2.3828125 C 1.0596094 2.8208125 1 3.343 1 4 L 1 12 C 1 12.658 1.0596094 13.179188 1.2246094 13.617188 C 1.3896094 14.056188 1.6855 14.406281 2.0625 14.613281 C 2.8155 15.029281 3.7361406 14.985 4.9941406 15 L 10.998047 15 C 12.256047 14.985 13.177688 15.029281 13.929688 14.613281 C 14.305687 14.406281 14.602578 14.056188 14.767578 13.617188 C 14.931578 13.179187 14.992187 12.657 14.992188 12 L 14.992188 4 C 14.992188 3.342 14.931578 2.8208125 14.767578 2.3828125 A 1.88 1.88 0 0 0 13.929688 1.3847656 C 13.176687 0.96876562 12.256047 1.015 10.998047 1 L 4.9941406 1 z M 8 3 C 9.654 3 11 4.347 11 6 L 11 8 L 12 8 L 12 13 L 4 13 L 4 8 L 5 8 L 5 6 C 5 4.347 6.347 3 8 3 z "
     id="path823" />
  <path
     style="line-height:normal;font-variant-ligatures:normal;font-variant-position:normal;font-variant-caps:normal;font-variant-numeric:normal;font-variant-alternates:normal;font-feature-settings:normal;text-indent:0;text-align:start;text-decoration-line:none;text-decoration-style:solid;text-decoration-color:#000;text-transform:none;text-orientation:mixed;shape-padding:0;isolation:auto;mix-blend-mode:normal;marker:none;fill:#dfdfdf;fill-opacity:1"
     d="M 8,4 C 6.884,4 6,4.883 6,6 v 2 h 4 V 6 C 10,4.883 9.117,4 8,4 Z"
     id="path819" />
  <path
     style="line-height:normal;font-variant-ligatures:normal;font-variant-position:normal;font-variant-caps:normal;font-variant-numeric:normal;font-variant-alternates:normal;font-feature-settings:normal;text-indent:0;text-align:start;text-decoration-line:none;text-decoration-style:solid;text-decoration-color:#000;text-transform:none;text-orientation:mixed;shape-padding:0;isolation:auto;mix-blend-mode:normal;marker:none;fill:#dfdfdf;fill-opacity:1"
     d="M 9,9 7,9.5 V 12 h 2 z"
     id="path2" />
</svg>
