<?xml version="1.0" encoding="UTF-8" standalone="no"?>
<svg
   xmlns:dc="http://purl.org/dc/elements/1.1/"
   xmlns:cc="http://creativecommons.org/ns#"
   xmlns:rdf="http://www.w3.org/1999/02/22-rdf-syntax-ns#"
   xmlns:svg="http://www.w3.org/2000/svg"
   xmlns="http://www.w3.org/2000/svg"
   xmlns:sodipodi="http://sodipodi.sourceforge.net/DTD/sodipodi-0.dtd"
   xmlns:inkscape="http://www.inkscape.org/namespaces/inkscape"
   height="16.002"
   width="16.002"
   version="1.1"
   id="svg4"
   sodipodi:docname="dialog-warning.svg"
   inkscape:version="0.92.3 (2405546, 2018-03-11)">
  <metadata
     id="metadata10">
    <rdf:RDF>
      <cc:Work
         rdf:about="">
        <dc:format>image/svg+xml</dc:format>
        <dc:type
           rdf:resource="http://purl.org/dc/dcmitype/StillImage" />
      </cc:Work>
    </rdf:RDF>
  </metadata>
  <defs
     id="defs8" />
  <sodipodi:namedview
     pagecolor="#ffffff"
     bordercolor="#666666"
     borderopacity="1"
     objecttolerance="10"
     gridtolerance="10"
     guidetolerance="10"
     inkscape:pageopacity="0"
     inkscape:pageshadow="2"
     inkscape:window-width="640"
     inkscape:window-height="480"
     id="namedview6"
     showgrid="false"
     inkscape:zoom="17.997749"
     inkscape:cx="9.1996566"
     inkscape:cy="7.1120004"
     inkscape:current-layer="svg4" />
  <path
     style="line-height:normal;font-variant-ligatures:normal;font-variant-position:normal;font-variant-caps:normal;font-variant-numeric:normal;font-variant-alternates:normal;font-feature-settings:normal;text-indent:0;text-align:start;text-decoration-line:none;text-decoration-style:solid;text-decoration-color:#000;text-transform:none;text-orientation:mixed;shape-padding:0;isolation:auto;mix-blend-mode:normal;fill:#dfdfdf;fill-opacity:1"
     d="M 7.9628906 0 A 1.499 1.499 0 0 0 6.6855469 0.78515625 L 0.18359375 12.785156 A 1.5 1.5 0 0 0 1.5 15.001953 L 14.5 15.001953 A 1.5 1.5 0 0 0 15.816406 12.785156 L 9.3183594 0.78515625 A 1.496 1.496 0 0 0 7.9628906 0 z M 7.9882812 1 A 0.494 0.494 0 0 1 8.4394531 1.2617188 L 14.9375 13.261719 C 15.1405 13.635719 14.921 14.001953 14.5 14.001953 L 1.5 14.001953 C 1.078 14.001953 0.8605 13.635719 1.0625 13.261719 L 7.5644531 1.2617188 A 0.493 0.493 0 0 1 7.9882812 1 z "
     id="path818" />
  <path
     style="line-height:normal;font-variant-ligatures:normal;font-variant-position:normal;font-variant-caps:normal;font-variant-numeric:normal;font-variant-alternates:normal;font-feature-settings:normal;text-indent:0;text-align:start;text-decoration-line:none;text-decoration-style:solid;text-decoration-color:#000;text-transform:none;text-orientation:mixed;shape-padding:0;isolation:auto;mix-blend-mode:normal;fill:#dfdfdf;fill-opacity:1"
     d="m 7.293,3.002 v 2.662 c 0,0.793 0.03,1.517 0.086,2.168 0.057,0.642 0.128,1.284 0.213,1.926 h 0.82 C 8.497,9.116 8.569,8.474 8.625,7.832 8.682,7.181 8.711,6.457 8.711,5.664 V 3.002 Z"
     id="path814" />
  <path
     style="line-height:normal;font-variant-ligatures:normal;font-variant-position:normal;font-variant-caps:normal;font-variant-numeric:normal;font-variant-alternates:normal;font-feature-settings:normal;text-indent:0;text-align:start;text-decoration-line:none;text-decoration-style:solid;text-decoration-color:#000;text-transform:none;text-orientation:mixed;shape-padding:0;isolation:auto;mix-blend-mode:normal;fill:#dfdfdf;fill-opacity:1"
     d="m 8.003,11.002 a 1,1 0 0 0 -1,1 c 0,0.282 0.118,0.535 0.306,0.717 0.17,0.189 0.4,0.283 0.693,0.283 0.293,0 0.524,-0.094 0.694,-0.283 a 0.994,0.994 0 0 0 0.306,-0.717 1,1 0 0 0 -1,-1 z"
     id="path2" />
</svg>
