<?xml version="1.0" encoding="UTF-8" standalone="no"?>
<svg
   xmlns:dc="http://purl.org/dc/elements/1.1/"
   xmlns:cc="http://creativecommons.org/ns#"
   xmlns:rdf="http://www.w3.org/1999/02/22-rdf-syntax-ns#"
   xmlns:svg="http://www.w3.org/2000/svg"
   xmlns="http://www.w3.org/2000/svg"
   xmlns:sodipodi="http://sodipodi.sourceforge.net/DTD/sodipodi-0.dtd"
   xmlns:inkscape="http://www.inkscape.org/namespaces/inkscape"
   height="16"
   width="16"
   version="1.1"
   id="svg4"
   sodipodi:docname="dialog-password.svg"
   inkscape:version="0.92.3 (2405546, 2018-03-11)">
  <metadata
     id="metadata10">
    <rdf:RDF>
      <cc:Work
         rdf:about="">
        <dc:format>image/svg+xml</dc:format>
        <dc:type
           rdf:resource="http://purl.org/dc/dcmitype/StillImage" />
      </cc:Work>
    </rdf:RDF>
  </metadata>
  <defs
     id="defs8" />
  <sodipodi:namedview
     pagecolor="#ffffff"
     bordercolor="#666666"
     borderopacity="1"
     objecttolerance="10"
     gridtolerance="10"
     guidetolerance="10"
     inkscape:pageopacity="0"
     inkscape:pageshadow="2"
     inkscape:window-width="640"
     inkscape:window-height="480"
     id="namedview6"
     showgrid="false"
     inkscape:zoom="18.25"
     inkscape:cx="-7.1232877"
     inkscape:cy="7.1232876"
     inkscape:current-layer="svg4" />
  <path
     style="line-height:normal;font-variant-ligatures:normal;font-variant-position:normal;font-variant-caps:normal;font-variant-numeric:normal;font-variant-alternates:normal;font-feature-settings:normal;text-indent:0;text-align:start;text-decoration-line:none;text-decoration-style:solid;text-decoration-color:#000;text-transform:none;text-orientation:mixed;shape-padding:0;isolation:auto;mix-blend-mode:normal;marker:none;fill:#dfdfdf;fill-opacity:1"
     d="M 2.4453125 3 C 1.9253125 3 1.504625 3.0484062 1.140625 3.1914062 C 0.776625 3.3354063 0.47859375 3.6007812 0.30859375 3.9257812 C -0.03140625 4.5737812 0.01 5.3284219 0 6.3574219 L 0 9.6425781 C 0.012 10.671578 -0.03140625 11.427219 0.30859375 12.074219 C 0.47859375 12.398219 0.776625 12.664594 1.140625 12.808594 C 1.504625 12.951594 1.9253125 13 2.4453125 13 L 5.5566406 13 C 6.0766406 13 6.4973281 12.951594 6.8613281 12.808594 C 7.2253281 12.664594 7.5214062 12.399219 7.6914062 12.074219 C 7.9874063 11.511219 7.9881875 10.833047 7.9921875 9.9980469 L 9.9375 9.9941406 L 10.5 9.5 L 11 10 L 11.5 9.5 L 12 10 L 12.5 9.5 L 13.5 10.5 L 16 8 L 14 6 L 7.9921875 6.0019531 C 7.9921875 5.1669531 7.9814063 4.4887813 7.6914062 3.9257812 A 1.607 1.607 0 0 0 6.859375 3.1914062 C 6.496375 3.0474062 6.0766406 3 5.5566406 3 L 2.4453125 3 z M 2.4453125 4 L 5.5566406 4 C 6.0076406 4 6.3131875 4.0520469 6.4921875 4.1230469 C 6.6721875 4.1930469 6.7356406 4.256625 6.8066406 4.390625 C 6.9466406 4.658625 6.989 5.3351406 7 6.3691406 L 7 7.0019531 L 13.585938 7 L 14.585938 8 L 13.5 9.0859375 L 12.5 8.0859375 L 12 8.5859375 L 11.5 8.0859375 L 11 8.5859375 L 10.544922 8.1308594 L 9.5605469 8.9941406 L 7 9 L 7 9.6308594 C 6.989 10.665859 6.9466406 11.340375 6.8066406 11.609375 C 6.7366406 11.742375 6.6721875 11.805953 6.4921875 11.876953 C 6.3121875 11.946953 6.0076406 12 5.5566406 12 L 2.4453125 12 C 1.9943125 12 1.6868125 11.947953 1.5078125 11.876953 C 1.3278125 11.805953 1.2663125 11.743375 1.1953125 11.609375 C 1.0553125 11.342375 1.012 10.665719 1 9.6367188 L 1 6.3632812 C 1.012 5.3342812 1.0553125 4.658625 1.1953125 4.390625 C 1.2653125 4.256625 1.3278125 4.1940469 1.5078125 4.1230469 C 1.6878125 4.0520469 1.9943125 4 2.4453125 4 z "
     id="path816" />
  <path
     style="line-height:normal;font-variant-ligatures:normal;font-variant-position:normal;font-variant-caps:normal;font-variant-numeric:normal;font-variant-alternates:normal;font-feature-settings:normal;text-indent:0;text-align:start;text-decoration-line:none;text-decoration-style:solid;text-decoration-color:#000;text-transform:none;text-orientation:mixed;shape-padding:0;isolation:auto;mix-blend-mode:normal;marker:none;fill:#dfdfdf;fill-opacity:1"
     d="M 3,7 A 1,1 0 0 0 2,8 1,1 0 0 0 3,9 1,1 0 0 0 4,8 1,1 0 0 0 3,7 Z"
     id="path2" />
</svg>
