<?xml version="1.0" encoding="UTF-8" standalone="no"?>
<svg
   xmlns:dc="http://purl.org/dc/elements/1.1/"
   xmlns:cc="http://creativecommons.org/ns#"
   xmlns:rdf="http://www.w3.org/1999/02/22-rdf-syntax-ns#"
   xmlns:svg="http://www.w3.org/2000/svg"
   xmlns="http://www.w3.org/2000/svg"
   xmlns:sodipodi="http://sodipodi.sourceforge.net/DTD/sodipodi-0.dtd"
   xmlns:inkscape="http://www.inkscape.org/namespaces/inkscape"
   height="16"
   width="16"
   version="1.1"
   id="svg6"
   sodipodi:docname="display-brightness.svg"
   inkscape:version="0.92.3 (2405546, 2018-03-11)">
  <metadata
     id="metadata12">
    <rdf:RDF>
      <cc:Work
         rdf:about="">
        <dc:format>image/svg+xml</dc:format>
        <dc:type
           rdf:resource="http://purl.org/dc/dcmitype/StillImage" />
      </cc:Work>
    </rdf:RDF>
  </metadata>
  <defs
     id="defs10" />
  <sodipodi:namedview
     pagecolor="#ffffff"
     bordercolor="#666666"
     borderopacity="1"
     objecttolerance="10"
     gridtolerance="10"
     guidetolerance="10"
     inkscape:pageopacity="0"
     inkscape:pageshadow="2"
     inkscape:window-width="640"
     inkscape:window-height="480"
     id="namedview8"
     showgrid="false"
     inkscape:zoom="18.25"
     inkscape:cx="-1.9726027"
     inkscape:cy="7.5616438"
     inkscape:current-layer="svg6" />
  <path
     style="fill:#dfdfdf;fill-opacity:1"
     inkscape:connector-curvature="0"
     id="path2"
     d="M 8,3 A 5,5 0 1 0 8,13 5,5 0 0 0 8,3 Z m 0,1 v 8 A 4,4 0 0 1 8,4 Z M 8.5,0 h -1 v 2 h 1 z m 4.803,1.99 -1.413,1.414 0.707,0.707 1.414,-1.414 z M 2.697,1.99 1.99,2.697 3.404,4.11 4.111,3.403 Z M 16,7.5 h -2 v 1 h 2 z M 2,7.5 H 0 v 1 h 2 z m 10.596,4.389 -0.707,0.707 1.414,1.414 0.707,-0.707 z m -9.192,0 -1.414,1.414 0.707,0.707 1.414,-1.414 z m 5.096,2.11 h -1 v 2 h 1 z" />
</svg>
