<?xml version="1.0" encoding="UTF-8" standalone="no"?>
<svg
   xmlns:dc="http://purl.org/dc/elements/1.1/"
   xmlns:cc="http://creativecommons.org/ns#"
   xmlns:rdf="http://www.w3.org/1999/02/22-rdf-syntax-ns#"
   xmlns:svg="http://www.w3.org/2000/svg"
   xmlns="http://www.w3.org/2000/svg"
   xmlns:sodipodi="http://sodipodi.sourceforge.net/DTD/sodipodi-0.dtd"
   xmlns:inkscape="http://www.inkscape.org/namespaces/inkscape"
   height="16"
   width="16"
   version="1.1"
   id="svg4"
   sodipodi:docname="folder-visiting.svg"
   inkscape:version="0.92.3 (2405546, 2018-03-11)">
  <metadata
     id="metadata10">
    <rdf:RDF>
      <cc:Work
         rdf:about="">
        <dc:format>image/svg+xml</dc:format>
        <dc:type
           rdf:resource="http://purl.org/dc/dcmitype/StillImage" />
      </cc:Work>
    </rdf:RDF>
  </metadata>
  <defs
     id="defs8" />
  <sodipodi:namedview
     pagecolor="#ffffff"
     bordercolor="#666666"
     borderopacity="1"
     objecttolerance="10"
     gridtolerance="10"
     guidetolerance="10"
     inkscape:pageopacity="0"
     inkscape:pageshadow="2"
     inkscape:window-width="640"
     inkscape:window-height="480"
     id="namedview6"
     showgrid="false"
     inkscape:zoom="18.25"
     inkscape:cx="-11.945205"
     inkscape:cy="7.1232876"
     inkscape:current-layer="svg4" />
  <path
     style="line-height:normal;font-variant-ligatures:none;font-variant-position:normal;font-variant-caps:normal;font-variant-numeric:normal;font-variant-alternates:normal;font-feature-settings:normal;text-indent:0;text-align:start;text-decoration-line:none;text-decoration-style:solid;text-decoration-color:#000;text-transform:none;shape-padding:0;isolation:auto;mix-blend-mode:normal;marker:none;fill:#dfdfdf;fill-opacity:1"
     d="M 3.9921875 1 C 2.7353256 1.0139248 1.8140569 0.97096387 1.0625 1.3867188 A 1.878 1.878 0 0 0 0.22265625 2.3828125 C 0.05765625 2.8198125 1.8503717e-17 3.343 0 4 L 0 12 C 0 12.658 0.05765625 13.179188 0.22265625 13.617188 C 0.38665625 14.056188 0.6855 14.407234 1.0625 14.615234 C 1.8145 15.031234 2.7361406 14.985 3.9941406 15 L 12.013672 15 C 13.271672 14.985 14.192313 15.030234 14.945312 14.615234 C 15.321312 14.408234 15.620156 14.055188 15.785156 13.617188 C 15.941156 13.179187 16 12.657 16 12 L 16 6 C 16 5.342 15.942344 4.8208125 15.777344 4.3828125 C 15.757344 4.3278125 15.729125 4.2785156 15.703125 4.2285156 L 15.675781 4.171875 A 1.838 1.838 0 0 0 14.9375 3.3847656 C 14.1845 2.9687656 13.264859 3.015 12.005859 3 L 8.9628906 3 L 6.9414062 1 L 3.9941406 1 L 3.9921875 1 z M 3.9941406 2 L 3.9960938 2 L 6.5332031 2 L 8.5546875 4 L 12 4 C 13.282 4.015 14.032078 4.0257656 14.455078 4.2597656 A 0.847 0.847 0 0 1 14.785156 4.6269531 C 14.769156 4.5969531 14.785406 4.6374062 14.816406 4.6914062 C 14.826406 4.7084063 14.817172 4.693125 14.826172 4.703125 L 14.826172 4.7050781 C 14.837172 4.7270781 14.85175 4.757375 14.84375 4.734375 C 14.94375 5.000375 15.001953 5.401 15.001953 6 L 15.001953 12 C 15.001953 12.599 14.94375 12.997625 14.84375 13.265625 A 0.888 0.888 0 0 1 14.457031 13.740234 C 14.033031 13.974234 13.284953 13.985 12.001953 14 L 3.9980469 14 C 2.7160469 13.985 1.9659688 13.974234 1.5429688 13.740234 A 0.886 0.886 0 0 1 1.15625 13.265625 C 1.05625 12.998625 1 12.599 1 12 L 1 4 C 1 3.401 1.0582031 3.001375 1.1582031 2.734375 A 0.877 0.877 0 0 1 1.5449219 2.2617188 C 1.9686541 2.0278665 2.7186121 2.0149881 3.9941406 2 z "
     id="path814" />
</svg>
