<?xml version="1.0" encoding="UTF-8" standalone="no"?>
<svg
   xmlns:dc="http://purl.org/dc/elements/1.1/"
   xmlns:cc="http://creativecommons.org/ns#"
   xmlns:rdf="http://www.w3.org/1999/02/22-rdf-syntax-ns#"
   xmlns:svg="http://www.w3.org/2000/svg"
   xmlns="http://www.w3.org/2000/svg"
   xmlns:sodipodi="http://sodipodi.sourceforge.net/DTD/sodipodi-0.dtd"
   xmlns:inkscape="http://www.inkscape.org/namespaces/inkscape"
   width="16"
   height="16.001"
   version="1.1"
   id="svg4"
   sodipodi:docname="indicator-trashindicator.svg"
   inkscape:version="0.92.3 (2405546, 2018-03-11)">
  <metadata
     id="metadata10">
    <rdf:RDF>
      <cc:Work
         rdf:about="">
        <dc:format>image/svg+xml</dc:format>
        <dc:type
           rdf:resource="http://purl.org/dc/dcmitype/StillImage" />
      </cc:Work>
    </rdf:RDF>
  </metadata>
  <defs
     id="defs8" />
  <sodipodi:namedview
     pagecolor="#ffffff"
     bordercolor="#666666"
     borderopacity="1"
     objecttolerance="10"
     gridtolerance="10"
     guidetolerance="10"
     inkscape:pageopacity="0"
     inkscape:pageshadow="2"
     inkscape:window-width="640"
     inkscape:window-height="480"
     id="namedview6"
     showgrid="false"
     inkscape:zoom="18.24886"
     inkscape:cx="-1.2608524"
     inkscape:cy="7.5621162"
     inkscape:current-layer="svg4" />
  <path
     style="fill:#dfdfdf;fill-opacity:1"
     d="M 7.5 0 C 6.4 0 5.3554688 0.3203125 5.3554688 0.3203125 L 5 0.42773438 L 5 2.1113281 A 13.88 13.88 0 0 0 2.0019531 3 L 2 4 L 1 4 L 1 5 L 2 5 L 2.0039062 14 C 2.0039062 14.439 2.0442969 14.788031 2.1542969 15.082031 C 2.2652969 15.376031 2.4647969 15.61 2.7167969 15.75 C 3.2197969 16.03 3.8369219 16 4.6699219 16 L 10.333984 16 C 11.166984 16 11.784109 16.03 12.287109 15.75 C 12.539109 15.61 12.737656 15.376031 12.847656 15.082031 C 12.957656 14.788031 13 14.439 13 14 L 12.998047 6 L 11.998047 6 L 12 14 C 12 14.376 11.960109 14.602516 11.912109 14.728516 C 11.878109 14.818516 11.834734 14.858 11.802734 14.875 C 11.629734 14.972 11.190984 15 10.333984 15 L 4.6699219 15 C 3.8129219 15 3.3751719 14.972 3.2011719 14.875 A 0.267 0.267 0 0 1 3.0878906 14.728516 L 3.0878906 14.726562 C 3.0418906 14.604563 3.0039062 14.379 3.0039062 14 L 3.0039062 13.998047 L 3 5 L 14 5 L 14 4 L 12.998047 4 L 13 3 A 13.855 13.855 0 0 0 10 2.1113281 L 10 0.44921875 L 9.6699219 0.33007812 C 9.6699219 0.33007812 8.757 0 7.5 0 z M 7.5 1 C 8.39 1 8.79 1.1557031 9 1.2207031 L 9 1.9589844 A 14.05 14.05 0 0 0 7.5019531 1.875 C 6.9999531 1.875 6.499 1.9069375 6 1.9609375 L 6 1.2265625 C 6.266 1.1565625 6.772 1 7.5 1 z "
     id="path825" />
  <path
     d="m 5,6 v 6 H 6 V 6 Z"
     id="path821"
     style="fill:#dfdfdf;fill-opacity:1" />
  <path
     d="m 7,6 v 6 H 8 V 6 Z"
     id="path819"
     style="fill:#dfdfdf;fill-opacity:1" />
  <path
     d="m 9,6 v 6 h 1 V 6 Z"
     id="path2"
     style="fill:#dfdfdf;fill-opacity:1" />
</svg>
