<?xml version="1.0" encoding="UTF-8" standalone="no"?>
<svg
   xmlns:dc="http://purl.org/dc/elements/1.1/"
   xmlns:cc="http://creativecommons.org/ns#"
   xmlns:rdf="http://www.w3.org/1999/02/22-rdf-syntax-ns#"
   xmlns:svg="http://www.w3.org/2000/svg"
   xmlns="http://www.w3.org/2000/svg"
   xmlns:sodipodi="http://sodipodi.sourceforge.net/DTD/sodipodi-0.dtd"
   xmlns:inkscape="http://www.inkscape.org/namespaces/inkscape"
   height="16.001"
   width="16"
   version="1.1"
   id="svg8"
   sodipodi:docname="user-trash-full.svg"
   inkscape:version="0.92.3 (2405546, 2018-03-11)">
  <metadata
     id="metadata14">
    <rdf:RDF>
      <cc:Work
         rdf:about="">
        <dc:format>image/svg+xml</dc:format>
        <dc:type
           rdf:resource="http://purl.org/dc/dcmitype/StillImage" />
      </cc:Work>
    </rdf:RDF>
  </metadata>
  <defs
     id="defs12" />
  <sodipodi:namedview
     pagecolor="#ffffff"
     bordercolor="#666666"
     borderopacity="1"
     objecttolerance="10"
     gridtolerance="10"
     guidetolerance="10"
     inkscape:pageopacity="0"
     inkscape:pageshadow="2"
     inkscape:window-width="640"
     inkscape:window-height="480"
     id="namedview10"
     showgrid="false"
     inkscape:zoom="18.24886"
     inkscape:cx="-1.2608524"
     inkscape:cy="7.5621162"
     inkscape:current-layer="svg8" />
  <path
     inkscape:connector-curvature="0"
     id="path2"
     word-spacing="0"
     style="font-weight:400;font-size:15px;line-height:125%;font-family:Ubuntu;-inkscape-font-specification:Ubuntu;text-align:center;letter-spacing:0;word-spacing:0;text-anchor:middle;fill:#dfdfdf;fill-opacity:1"
     letter-spacing="0"
     font-size="15"
     d="M 7.5,0 C 6.4,0 5.356,0.32 5.356,0.32 L 5,0.428 V 2.111 C 3.977,2.297 2.97,2.585 2.002,3 v 1 h -1 v 1 h 1 v 9 c 0,0.439 0.04,0.788 0.15,1.082 0.111,0.294 0.311,0.528 0.563,0.668 0.503,0.28 1.12,0.25 1.953,0.25 h 3.33 V 15 H 4.668 C 3.811,15 3.373,14.972 3.199,14.875 A 0.266,0.266 0 0 1 3.086,14.729 V 14.727 C 3.04,14.605 3.002,14.379 3.002,14 V 5 h 11 V 4 H 13 V 3 A 13.856,13.856 0 0 0 10,2.111 V 0.449 L 9.67,0.33 C 9.67,0.33 8.757,0 7.5,0 Z m 0,1 C 8.39,1 8.791,1.155 9,1.22 V 1.959 A 14.048,14.048 0 0 0 7.502,1.875 C 7.001,1.875 6.499,1.907 6,1.961 V 1.227 C 6.266,1.157 6.773,1 7.5,1 Z M 5,6 v 6 H 6 V 6 Z m 2,0 v 6 H 8 V 6 Z m 2,0 v 4 h 1 V 6 Z m 2.998,0 v 2 h 1 V 6 Z" />
  <path
     inkscape:connector-curvature="0"
     id="path4"
     style="color:#000000;font-weight:400;line-height:normal;font-family:sans-serif;font-variant-ligatures:normal;font-variant-position:normal;font-variant-caps:normal;font-variant-numeric:normal;font-variant-alternates:normal;font-feature-settings:normal;text-indent:0;text-align:start;text-decoration:none;text-decoration-line:none;text-decoration-style:solid;text-decoration-color:#000000;text-transform:none;text-orientation:mixed;white-space:normal;shape-padding:0;overflow:visible;isolation:auto;mix-blend-mode:normal;fill:#dfdfdf;fill-rule:evenodd;fill-opacity:1"
     overflow="visible"
     d="m 11.5,9 a 0.5,0.5 0 0 0 -0.353,0.854 l 0.556,0.556 c -0.298,0.165 -0.498,0.249 -1.002,0.627 C 10.305,11.334 9.9,11.684 9.578,12.086 9.256,12.488 9,12.958 9,13.5 c 0,0.861 0.345,1.586 0.984,1.986 0.64,0.4 1.474,0.514 2.516,0.514 1.042,0 1.876,-0.114 2.516,-0.514 C 15.656,15.086 16,14.361 16,13.5 16,12.958 15.744,12.488 15.422,12.086 15.1,11.684 14.697,11.334 14.301,11.037 13.796,10.658 13.594,10.575 13.297,10.41 L 13.854,9.854 A 0.5,0.5 0 0 0 13.5,9 Z m 1,2.088 c 0.174,0.091 0.605,0.303 1.201,0.75 0.354,0.265 0.699,0.572 0.94,0.873 0.24,0.3 0.359,0.58 0.359,0.789 0,0.639 -0.155,0.914 -0.516,1.139 C 14.124,14.864 13.458,15 12.5,15 11.542,15 10.876,14.864 10.516,14.639 10.156,14.414 10,14.139 10,13.5 c 0,-0.208 0.119,-0.488 0.36,-0.79 0.24,-0.3 0.587,-0.607 0.94,-0.872 0.597,-0.447 1.025,-0.658 1.2,-0.75 z" />
</svg>
