<?xml version="1.0" encoding="UTF-8" standalone="no"?>
<svg
   xmlns:dc="http://purl.org/dc/elements/1.1/"
   xmlns:cc="http://creativecommons.org/ns#"
   xmlns:rdf="http://www.w3.org/1999/02/22-rdf-syntax-ns#"
   xmlns:svg="http://www.w3.org/2000/svg"
   xmlns="http://www.w3.org/2000/svg"
   xmlns:sodipodi="http://sodipodi.sourceforge.net/DTD/sodipodi-0.dtd"
   xmlns:inkscape="http://www.inkscape.org/namespaces/inkscape"
   height="16"
   width="16"
   version="1.1"
   id="svg4"
   sodipodi:docname="microphone-sensitivity-muted.svg"
   inkscape:version="0.92.3 (2405546, 2018-03-11)">
  <metadata
     id="metadata10">
    <rdf:RDF>
      <cc:Work
         rdf:about="">
        <dc:format>image/svg+xml</dc:format>
        <dc:type
           rdf:resource="http://purl.org/dc/dcmitype/StillImage" />
      </cc:Work>
    </rdf:RDF>
  </metadata>
  <defs
     id="defs8" />
  <sodipodi:namedview
     pagecolor="#ffffff"
     bordercolor="#666666"
     borderopacity="1"
     objecttolerance="10"
     gridtolerance="10"
     guidetolerance="10"
     inkscape:pageopacity="0"
     inkscape:pageshadow="2"
     inkscape:window-width="640"
     inkscape:window-height="480"
     id="namedview6"
     showgrid="false"
     inkscape:zoom="25.809398"
     inkscape:cx="-4.3096068"
     inkscape:cy="6.7862598"
     inkscape:current-layer="svg4" />
  <path
     style="marker:none;fill:#dfdfdf;fill-opacity:1"
     d="M 7.496,0 C 6.087,0 5,0.842 5,2.537 V 8.461 C 5,8.733 5.037,8.975 5.09,9.203 L 5.998,8.295 V 2.537 c 0,-0.634 0.177,-0.959 0.408,-1.178 0.232,-0.218 0.585,-0.36 1.09,-0.36 0.505,0 0.856,0.141 1.088,0.36 0.232,0.22 0.408,0.545 0.408,1.178 V 5.301 L 9.99,4.303 V 2.537 C 9.99,0.845 8.905,0 7.496,0 Z"
     id="path823" />
  <path
     style="marker:none;fill:#dfdfdf;fill-opacity:1"
     d="M 14.251953 1.2519531 L 1.2519531 14.251953 L 1.7480469 14.748047 L 4.5957031 11.900391 A 4.484 4.484 0 0 0 7 12.949219 L 7 15.023438 A 7.576 7.576 0 0 0 5 15.458984 L 5 16 L 10 16 L 10 15.458984 A 7.856 7.856 0 0 0 8 15.025391 L 8 12.949219 C 10.252 12.699219 12 10.822953 12 8.5019531 L 12 7 L 11 7 L 11 8.5 A 3.482 3.482 0 0 1 8 11.951172 L 8 11.5 L 7 11.5 L 7 11.951172 A 3.49 3.49 0 0 1 5.2929688 11.203125 L 5.9550781 10.541016 C 6.3750781 10.843016 6.9030938 11 7.4960938 11 C 8.9060938 11 9.9902344 10.154937 9.9902344 8.4609375 L 9.9902344 6.5078125 L 14.748047 1.7480469 L 14.251953 1.2519531 z M 8.9921875 7.5039062 L 8.9921875 8.4609375 C 8.9921875 9.0939375 8.8159844 9.4186719 8.5839844 9.6386719 C 8.3519844 9.8576719 8.0010937 10.001953 7.4960938 10.001953 C 7.1530938 10.001953 6.8858281 9.9322656 6.6738281 9.8222656 L 8.9921875 7.5039062 z "
     id="path821" />
  <path
     style="marker:none;fill:#dfdfdf;fill-opacity:1"
     d="m 3,7 v 1.5 c 0,0.806 0.222,1.552 0.592,2.201 L 4.334,9.959 A 3.45,3.45 0 0 1 4,8.5 V 7 Z"
     id="path819" />
</svg>
