<svg width="16.003" height="16" version="1.1" xmlns="http://www.w3.org/2000/svg">
<path d="m8.0039 2c-2.61 0-5.2204 0.83758-7.4004 2.5176l-0.26562 0.20508 0.20508 0.26367 7.4551 9.6719 1.0059-1.3008v-2.3574h1.0137c0.02-1.635 1.3423-3 2.9863-3 0.043 0 0.083953 0.011672 0.12695 0.013672l2.5371-3.2871-0.26562-0.20508a12.105 12.105 0 0 0-7.3984-2.5215zm0 1c2.181 0 4.3436 0.67217 6.2266 1.9512l-1.2109 1.5664a9.129 9.125 0 0 0-10.037-0.0058593l-1.207-1.5645c1.883-1.278 4.0475-1.9483 6.2285-1.9473z" color="#000000" fill="#dfdfdf" style="font-feature-settings:normal;font-variant-alternates:normal;font-variant-caps:normal;font-variant-ligatures:none;font-variant-numeric:normal;font-variant-position:normal;isolation:auto;mix-blend-mode:normal;shape-padding:0;text-decoration-color:#000000;text-decoration-line:none;text-decoration-style:solid;text-indent:0;text-transform:none;white-space:normal"/>
<path d="m13.004 9c-1.108 0-2 0.91025-2 2.0312v0.96875h-1v4h6v-4h-1v-0.96875c0-1.12-0.892-2.0312-2-2.0312zm0 1c0.554 0 1 0.442 1 1v1h-2v-1c0-0.558 0.446-1 1-1z" color="#000000" fill="#dfdfdf" style="font-feature-settings:normal;font-variant-alternates:normal;font-variant-caps:normal;font-variant-ligatures:none;font-variant-numeric:normal;font-variant-position:normal;isolation:auto;mix-blend-mode:normal;shape-padding:0;text-decoration-color:#000000;text-decoration-line:none;text-decoration-style:solid;text-indent:0;text-transform:none;white-space:normal"/>
</svg>
