<?xml version="1.0" encoding="UTF-8" standalone="no"?>
<svg
   xmlns:dc="http://purl.org/dc/elements/1.1/"
   xmlns:cc="http://creativecommons.org/ns#"
   xmlns:rdf="http://www.w3.org/1999/02/22-rdf-syntax-ns#"
   xmlns:svg="http://www.w3.org/2000/svg"
   xmlns="http://www.w3.org/2000/svg"
   xmlns:sodipodi="http://sodipodi.sourceforge.net/DTD/sodipodi-0.dtd"
   xmlns:inkscape="http://www.inkscape.org/namespaces/inkscape"
   height="16"
   width="16"
   version="1.1"
   id="svg10"
   sodipodi:docname="network-wireless-hotspot.svg"
   inkscape:version="0.92.3 (2405546, 2018-03-11)">
  <metadata
     id="metadata16">
    <rdf:RDF>
      <cc:Work
         rdf:about="">
        <dc:format>image/svg+xml</dc:format>
        <dc:type
           rdf:resource="http://purl.org/dc/dcmitype/StillImage" />
      </cc:Work>
    </rdf:RDF>
  </metadata>
  <defs
     id="defs14" />
  <sodipodi:namedview
     pagecolor="#ffffff"
     bordercolor="#666666"
     borderopacity="1"
     objecttolerance="10"
     gridtolerance="10"
     guidetolerance="10"
     inkscape:pageopacity="0"
     inkscape:pageshadow="2"
     inkscape:window-width="640"
     inkscape:window-height="480"
     id="namedview12"
     showgrid="false"
     inkscape:zoom="18.25"
     inkscape:cx="-1.260274"
     inkscape:cy="7.5616438"
     inkscape:current-layer="svg10" />
  <path
     inkscape:connector-curvature="0"
     id="path2"
     style="color:#000000;font-weight:400;line-height:normal;font-family:sans-serif;font-variant-ligatures:normal;font-variant-position:normal;font-variant-caps:normal;font-variant-numeric:normal;font-variant-alternates:normal;font-feature-settings:normal;text-indent:0;text-align:start;text-decoration:none;text-decoration-line:none;text-decoration-style:solid;text-decoration-color:#000000;text-transform:none;text-orientation:mixed;white-space:normal;shape-padding:0;overflow:visible;isolation:auto;mix-blend-mode:normal;fill:#dfdfdf;fill-opacity:1"
     overflow="visible"
     font-weight="400"
     d="M 7.5,0.988 A 7.48,7.48 0 0 0 2.195,3.184 c -2.926,2.925 -2.926,7.683 0,10.609 l 0.707,-0.707 a 6.494,6.494 0 0 1 0,-9.195 6.497,6.497 0 0 1 9.198,0 6.494,6.494 0 0 1 0,9.195 l 0.707,0.707 c 2.926,-2.926 2.926,-7.684 0,-10.61 A 7.484,7.484 0 0 0 7.5,0.988 Z" />
  <path
     inkscape:connector-curvature="0"
     id="path4"
     style="color:#000000;font-weight:400;line-height:normal;font-family:sans-serif;font-variant-ligatures:normal;font-variant-position:normal;font-variant-caps:normal;font-variant-numeric:normal;font-variant-alternates:normal;font-feature-settings:normal;text-indent:0;text-align:start;text-decoration:none;text-decoration-line:none;text-decoration-style:solid;text-decoration-color:#000000;text-transform:none;text-orientation:mixed;white-space:normal;shape-padding:0;overflow:visible;isolation:auto;mix-blend-mode:normal;fill:#dfdfdf;fill-opacity:1"
     overflow="visible"
     font-weight="400"
     d="m 7.5,3.992 a 4.51,4.51 0 0 0 -3.184,1.305 4.45,4.45 0 0 0 0,6.32 l 0.705,-0.71 a 3.43,3.43 0 0 1 0,-4.9 3.523,3.523 0 0 1 4.957,0 3.43,3.43 0 0 1 0,4.9 l 0.706,0.71 a 4.45,4.45 0 0 0 0,-6.32 A 4.51,4.51 0 0 0 7.5,3.992 Z" />
  <path
     style="fill:#dfdfdf;fill-opacity:1"
     inkscape:connector-curvature="0"
     id="path6"
     d="M 7.5,7 A 1.5,1.5 0 0 0 6,8.5 1.5,1.5 0 0 0 7,9.912 V 16 H 8 V 9.912 A 1.5,1.5 0 0 0 9,8.5 1.5,1.5 0 0 0 7.5,7 Z" />
</svg>
