<?xml version="1.0" encoding="UTF-8" standalone="no"?>
<svg
   xmlns:dc="http://purl.org/dc/elements/1.1/"
   xmlns:cc="http://creativecommons.org/ns#"
   xmlns:rdf="http://www.w3.org/1999/02/22-rdf-syntax-ns#"
   xmlns:svg="http://www.w3.org/2000/svg"
   xmlns="http://www.w3.org/2000/svg"
   xmlns:sodipodi="http://sodipodi.sourceforge.net/DTD/sodipodi-0.dtd"
   xmlns:inkscape="http://www.inkscape.org/namespaces/inkscape"
   height="16"
   width="16.003"
   version="1.1"
   id="svg6"
   sodipodi:docname="network-wireless-signal-weak-secure.svg"
   inkscape:version="0.92.3 (2405546, 2018-03-11)">
  <metadata
     id="metadata12">
    <rdf:RDF>
      <cc:Work
         rdf:about="">
        <dc:format>image/svg+xml</dc:format>
        <dc:type
           rdf:resource="http://purl.org/dc/dcmitype/StillImage" />
      </cc:Work>
    </rdf:RDF>
  </metadata>
  <defs
     id="defs10" />
  <sodipodi:namedview
     pagecolor="#ffffff"
     bordercolor="#666666"
     borderopacity="1"
     objecttolerance="10"
     gridtolerance="10"
     guidetolerance="10"
     inkscape:pageopacity="0"
     inkscape:pageshadow="2"
     inkscape:window-width="640"
     inkscape:window-height="480"
     id="namedview8"
     showgrid="false"
     inkscape:zoom="18.25"
     inkscape:cx="-1.2587738"
     inkscape:cy="7.5616438"
     inkscape:current-layer="svg6" />
  <path
     style="color:#000000;font-weight:400;line-height:normal;font-family:sans-serif;font-variant-ligatures:none;font-variant-position:normal;font-variant-caps:normal;font-variant-numeric:normal;font-variant-alternates:normal;font-feature-settings:normal;text-indent:0;text-align:start;text-decoration:none;text-decoration-line:none;text-decoration-style:solid;text-decoration-color:#000000;text-transform:none;white-space:normal;shape-padding:0;overflow:visible;isolation:auto;mix-blend-mode:normal;fill:#dfdfdf;marker:none;fill-opacity:1"
     d="m 8.003,2 c -2.61,0 -5.22,0.838 -7.4,2.518 l -0.266,0.205 0.205,0.263 7.457,9.672 1.004,-1.3 V 11 h 1.014 c 0,-0.253 0.048,-0.495 0.11,-0.73 L 9.943,10.506 A 4.002,4 0 0 0 6.062,10.508 L 1.775,4.948 C 3.658,3.669 5.822,2.999 8.003,3 10.184,3 12.347,3.672 14.23,4.951 L 11.58,8.385 A 2.898,2.898 0 0 1 13.003,8 c 0.043,0 0.084,0.012 0.127,0.014 L 15.667,4.727 15.403,4.522 A 12.105,12.105 0 0 0 8.003,2 Z"
     id="path827" />
  <path
     style="color:#000000;font-weight:400;line-height:normal;font-family:sans-serif;font-variant-ligatures:none;font-variant-position:normal;font-variant-caps:normal;font-variant-numeric:normal;font-variant-alternates:normal;font-feature-settings:normal;text-indent:0;text-align:start;text-decoration:none;text-decoration-line:none;text-decoration-style:solid;text-decoration-color:#000000;text-transform:none;white-space:normal;shape-padding:0;overflow:visible;isolation:auto;mix-blend-mode:normal;fill:#dfdfdf;marker:none;fill-opacity:1"
     d="M 13.003906 9 C 11.895906 9 11.003906 9.91025 11.003906 11.03125 L 11.003906 12 L 10.003906 12 L 10.003906 16 L 16.003906 16 L 16.003906 12 L 15.003906 12 L 15.003906 11.03125 C 15.003906 9.91125 14.111906 9 13.003906 9 z M 13.003906 10 C 13.557906 10 14.003906 10.442 14.003906 11 L 14.003906 12 L 12.003906 12 L 12.003906 11 C 12.003906 10.442 12.449906 10 13.003906 10 z "
     id="path825" />
</svg>
