<?xml version="1.0" encoding="UTF-8" standalone="no"?>
<svg
   xmlns:dc="http://purl.org/dc/elements/1.1/"
   xmlns:cc="http://creativecommons.org/ns#"
   xmlns:rdf="http://www.w3.org/1999/02/22-rdf-syntax-ns#"
   xmlns:svg="http://www.w3.org/2000/svg"
   xmlns="http://www.w3.org/2000/svg"
   xmlns:sodipodi="http://sodipodi.sourceforge.net/DTD/sodipodi-0.dtd"
   xmlns:inkscape="http://www.inkscape.org/namespaces/inkscape"
   height="16"
   width="16"
   version="1.1"
   id="svg4"
   sodipodi:docname="network-cellular-3g.svg"
   inkscape:version="0.92.3 (2405546, 2018-03-11)">
  <metadata
     id="metadata10">
    <rdf:RDF>
      <cc:Work
         rdf:about="">
        <dc:format>image/svg+xml</dc:format>
        <dc:type
           rdf:resource="http://purl.org/dc/dcmitype/StillImage" />
      </cc:Work>
    </rdf:RDF>
  </metadata>
  <defs
     id="defs8" />
  <sodipodi:namedview
     pagecolor="#ffffff"
     bordercolor="#666666"
     borderopacity="1"
     objecttolerance="10"
     gridtolerance="10"
     guidetolerance="10"
     inkscape:pageopacity="0"
     inkscape:pageshadow="2"
     inkscape:window-width="640"
     inkscape:window-height="480"
     id="namedview6"
     showgrid="false"
     inkscape:zoom="18.25"
     inkscape:cx="-6.4109589"
     inkscape:cy="7.1232876"
     inkscape:current-layer="svg4" />
  <path
     style="line-height:125%;-inkscape-font-specification:Ubuntu;text-align:center;fill:#dfdfdf;fill-opacity:1"
     d="M 2.7128906 2 C 1.6548906 1.987 0.94507813 2.2241094 0.58007812 2.6621094 C 0.19707813 3.1181094 -2.220446e-16 3.86625 0 4.90625 L 0 11.09375 C 0 12.13375 0.19707813 12.881891 0.58007812 13.337891 C 0.94507812 13.775891 1.6548906 14 2.7128906 14 L 13.287109 14 C 14.345109 14 15.056875 13.775891 15.421875 13.337891 C 15.804875 12.881891 16 12.13375 16 11.09375 L 16 4.90625 C 16 3.86625 15.804875 3.1181094 15.421875 2.6621094 C 15.056875 2.2241094 14.345109 2 13.287109 2 L 2.7128906 2 z M 4.5078125 4.6210938 C 4.8878125 4.6210938 5.2152813 4.6687187 5.4882812 4.7617188 C 5.7682813 4.8497188 5.9986875 4.9765313 6.1796875 5.1445312 C 6.3596875 5.3055312 6.4930781 5.4986562 6.5800781 5.7226562 C 6.6670781 5.9396562 6.7109375 6.1804063 6.7109375 6.4414062 C 6.7109375 6.6974063 6.6390938 6.9445 6.4960938 7.1875 A 1.423 1.423 0 0 1 5.9179688 7.7285156 C 6.2539688 7.8655156 6.5114063 8.0717031 6.6914062 8.3457031 C 6.8784063 8.6127031 6.9726564 8.9364062 6.9726562 9.3164062 C 6.9726562 9.6164064 6.9212656 9.8914848 6.8222656 10.146484 C 6.7222656 10.396484 6.5674687 10.613781 6.3554688 10.800781 C 6.1444687 10.980781 5.8749219 11.122516 5.5449219 11.228516 C 5.2209219 11.328516 4.8347186 11.378906 4.3867188 11.378906 C 4.2187187 11.378906 4.0424687 11.366797 3.8554688 11.341797 A 4.904 4.904 0 0 1 3.3144531 11.257812 A 5.85 5.85 0 0 1 2.8378906 11.136719 A 2.726 2.726 0 0 1 2.5019531 11.015625 L 2.7714844 9.8574219 C 2.9324844 9.9264219 3.1396719 10.001031 3.3886719 10.082031 C 3.6436719 10.157031 3.9570781 10.193359 4.3300781 10.193359 C 4.7600781 10.193359 5.0744375 10.113172 5.2734375 9.9511719 A 0.8 0.8 0 0 0 5.5722656 9.296875 A 0.741 0.741 0 0 0 5.4609375 8.8769531 A 0.735 0.735 0 0 0 5.171875 8.5976562 A 1.196 1.196 0 0 0 4.7226562 8.4472656 A 2.97 2.97 0 0 0 4.1816406 8.4003906 L 3.640625 8.4003906 L 3.640625 7.28125 L 4.2558594 7.28125 A 2 2 0 0 0 4.6464844 7.2441406 C 4.7774844 7.2191406 4.8931875 7.1780469 4.9921875 7.1230469 A 0.666 0.666 0 0 0 5.2265625 6.8808594 A 0.764 0.764 0 0 0 5.3183594 6.4882812 A 0.612 0.612 0 0 0 5.0488281 5.9648438 A 0.715 0.715 0 0 0 4.7773438 5.84375 A 1.031 1.031 0 0 0 4.4707031 5.796875 C 4.2027031 5.796875 3.9546094 5.8369686 3.7246094 5.9179688 C 3.5006094 5.9979688 3.2934688 6.0977969 3.1054688 6.2167969 L 2.6113281 5.1992188 A 3.724 3.724 0 0 1 3.9199219 4.6777344 C 4.1069219 4.6397344 4.3018125 4.6210937 4.5078125 4.6210938 z M 11.269531 4.6210938 C 11.573531 4.6210938 11.846844 4.6435 12.089844 4.6875 C 12.338844 4.7245 12.549609 4.7701719 12.724609 4.8261719 C 12.904609 4.8761719 13.051062 4.9303281 13.164062 4.9863281 C 13.281063 5.0423281 13.366016 5.0861875 13.416016 5.1171875 L 12.996094 6.2832031 A 3.56 3.56 0 0 0 12.304688 6.0117188 A 2.766 2.766 0 0 0 11.464844 5.890625 C 10.786844 5.890625 10.295234 6.0809375 9.9902344 6.4609375 C 9.6922344 6.8339375 9.5429687 7.347 9.5429688 8 C 9.5429688 8.317 9.5802969 8.6061875 9.6542969 8.8671875 C 9.7292969 9.1221875 9.8412344 9.34525 9.9902344 9.53125 C 10.140234 9.71825 10.327781 9.86275 10.550781 9.96875 C 10.775781 10.06875 11.034984 10.119141 11.333984 10.119141 C 11.495984 10.119141 11.632141 10.115375 11.744141 10.109375 C 11.862141 10.103375 11.965734 10.091266 12.052734 10.072266 L 12.052734 7.8222656 L 13.509766 7.8222656 L 13.509766 11.023438 A 5.24 5.24 0 0 1 12.669922 11.238281 C 12.283922 11.319281 11.806234 11.361328 11.240234 11.361328 C 10.755234 11.361328 10.314016 11.285719 9.9160156 11.136719 A 2.77 2.77 0 0 1 8.9082031 10.482422 A 2.97 2.97 0 0 1 8.2539062 9.4277344 A 4.22 4.22 0 0 1 8.0292969 8 C 8.0292969 7.458 8.11325 6.9805 8.28125 6.5625 C 8.44925 6.1455 8.6796563 5.7938125 8.9726562 5.5078125 A 2.89 2.89 0 0 1 10 4.8457031 C 10.398 4.6957031 10.821531 4.6210938 11.269531 4.6210938 z "
     id="path816" />
</svg>
