<?xml version="1.0" encoding="UTF-8" standalone="no"?>
<svg
   xmlns:dc="http://purl.org/dc/elements/1.1/"
   xmlns:cc="http://creativecommons.org/ns#"
   xmlns:rdf="http://www.w3.org/1999/02/22-rdf-syntax-ns#"
   xmlns:svg="http://www.w3.org/2000/svg"
   xmlns="http://www.w3.org/2000/svg"
   xmlns:sodipodi="http://sodipodi.sourceforge.net/DTD/sodipodi-0.dtd"
   xmlns:inkscape="http://www.inkscape.org/namespaces/inkscape"
   height="16"
   width="16.001"
   version="1.1"
   id="svg8"
   sodipodi:docname="network-wired-acquiring.svg"
   inkscape:version="0.92.3 (2405546, 2018-03-11)">
  <metadata
     id="metadata14">
    <rdf:RDF>
      <cc:Work
         rdf:about="">
        <dc:format>image/svg+xml</dc:format>
        <dc:type
           rdf:resource="http://purl.org/dc/dcmitype/StillImage" />
      </cc:Work>
    </rdf:RDF>
  </metadata>
  <defs
     id="defs12" />
  <sodipodi:namedview
     pagecolor="#ffffff"
     bordercolor="#666666"
     borderopacity="1"
     objecttolerance="10"
     gridtolerance="10"
     guidetolerance="10"
     inkscape:pageopacity="0"
     inkscape:pageshadow="2"
     inkscape:window-width="640"
     inkscape:window-height="480"
     id="namedview10"
     showgrid="false"
     inkscape:zoom="18.25"
     inkscape:cx="-1.2597742"
     inkscape:cy="7.5616438"
     inkscape:current-layer="svg8" />
  <path
     inkscape:connector-curvature="0"
     id="path2"
     style="color:#000000;font-weight:400;line-height:normal;font-family:sans-serif;font-variant-ligatures:normal;font-variant-position:normal;font-variant-caps:normal;font-variant-numeric:normal;font-variant-alternates:normal;font-feature-settings:normal;text-indent:0;text-align:start;text-decoration:none;text-decoration-line:none;text-decoration-style:solid;text-decoration-color:#000000;text-transform:none;text-orientation:mixed;white-space:normal;shape-padding:0;overflow:visible;opacity:0.5;isolation:auto;mix-blend-mode:normal;fill:#dfdfdf;marker:none;fill-opacity:1"
     overflow="visible"
     font-weight="400"
     d="M 6.426,1 C 5.976,1.005 5.648,0.988 5.379,1.137 a 0.676,0.676 0 0 0 -0.3,0.357 C 5.019,1.651 4.999,1.837 4.999,2.072 V 3.93 c 0,0.235 0.021,0.42 0.08,0.576 a 0.677,0.677 0 0 0 0.3,0.357 C 5.648,5.011 5.976,4.995 6.426,5 H 8.572 C 9.022,4.995 9.35,5.012 9.619,4.863 9.754,4.789 9.859,4.663 9.919,4.506 9.977,4.349 9.999,4.165 9.999,3.93 V 2.072 C 9.999,1.837 9.977,1.651 9.919,1.494 A 0.673,0.673 0 0 0 9.619,1.137 C 9.35,0.987 9.022,1.005 8.573,1 Z M 6,2 H 9 V 4 H 6 Z M 2,8.479 V 10 H 1.428 C 0.978,10.005 0.65,9.988 0.381,10.137 a 0.676,0.676 0 0 0 -0.3,0.357 c -0.06,0.157 -0.08,0.343 -0.08,0.578 v 1.858 c 0,0.235 0.021,0.42 0.08,0.576 a 0.677,0.677 0 0 0 0.3,0.357 C 0.65,14.011 0.978,13.995 1.428,14 h 2.144 c 0.45,-0.005 0.778,0.012 1.047,-0.137 0.135,-0.074 0.24,-0.2 0.3,-0.357 0.058,-0.157 0.08,-0.341 0.08,-0.576 v -1.858 c 0,-0.235 -0.022,-0.421 -0.08,-0.578 a 0.673,0.673 0 0 0 -0.3,-0.357 C 4.35,9.987 4.022,10.005 3.573,10 H 2 Z M 11.426,10 c -0.45,0.005 -0.778,-0.012 -1.047,0.137 a 0.676,0.676 0 0 0 -0.3,0.357 c -0.06,0.157 -0.08,0.343 -0.08,0.578 v 1.858 c 0,0.235 0.021,0.42 0.08,0.576 a 0.677,0.677 0 0 0 0.3,0.357 c 0.269,0.148 0.597,0.132 1.047,0.137 h 2.144 c 0.45,-0.005 0.779,0.012 1.047,-0.137 0.135,-0.074 0.24,-0.2 0.3,-0.357 0.058,-0.157 0.08,-0.341 0.08,-0.576 v -1.858 c 0,-0.235 -0.022,-0.421 -0.08,-0.578 a 0.673,0.673 0 0 0 -0.3,-0.357 C 14.349,9.987 14.02,10.005 13.571,10 h -0.57 z M 1,11 h 3 v 2 H 1 Z m 10,0 h 3 v 2 h -3 z" />
  <path
     inkscape:connector-curvature="0"
     id="path4"
     style="color:#000000;display:block;overflow:visible;isolation:auto;mix-blend-mode:normal;fill:#dfdfdf;marker:none;fill-opacity:1"
     overflow="visible"
     display="block"
     d="M 3.5,6 C 2.671,6 2.004,6.667 2.004,7.496 v 0.016 c 0,0.829 0.667,1.496 1.496,1.496 h 0.016 c 0.83,0 1.496,-0.667 1.496,-1.496 V 7.496 C 5.012,6.667 4.345,6 3.516,6 Z m 4,0 C 6.671,6 6.004,6.667 6.004,7.496 v 0.016 c 0,0.829 0.667,1.496 1.496,1.496 h 0.016 c 0.83,0 1.496,-0.667 1.496,-1.496 V 7.496 C 9.012,6.667 8.345,6 7.516,6 Z m 4,0 c -0.829,0 -1.496,0.667 -1.496,1.496 v 0.016 c 0,0.829 0.667,1.496 1.496,1.496 h 0.016 c 0.83,0 1.496,-0.667 1.496,-1.496 V 7.496 C 13.012,6.667 12.345,6 11.516,6 Z" />
</svg>
