<?xml version="1.0" encoding="UTF-8" standalone="no"?>
<svg
   xmlns:dc="http://purl.org/dc/elements/1.1/"
   xmlns:cc="http://creativecommons.org/ns#"
   xmlns:rdf="http://www.w3.org/1999/02/22-rdf-syntax-ns#"
   xmlns:svg="http://www.w3.org/2000/svg"
   xmlns="http://www.w3.org/2000/svg"
   xmlns:sodipodi="http://sodipodi.sourceforge.net/DTD/sodipodi-0.dtd"
   xmlns:inkscape="http://www.inkscape.org/namespaces/inkscape"
   height="16"
   width="16"
   version="1.1"
   id="svg4"
   sodipodi:docname="network-cellular-gprs.svg"
   inkscape:version="0.92.3 (2405546, 2018-03-11)">
  <metadata
     id="metadata10">
    <rdf:RDF>
      <cc:Work
         rdf:about="">
        <dc:format>image/svg+xml</dc:format>
        <dc:type
           rdf:resource="http://purl.org/dc/dcmitype/StillImage" />
      </cc:Work>
    </rdf:RDF>
  </metadata>
  <defs
     id="defs8" />
  <sodipodi:namedview
     pagecolor="#ffffff"
     bordercolor="#666666"
     borderopacity="1"
     objecttolerance="10"
     gridtolerance="10"
     guidetolerance="10"
     inkscape:pageopacity="0"
     inkscape:pageshadow="2"
     inkscape:window-width="640"
     inkscape:window-height="480"
     id="namedview6"
     showgrid="false"
     inkscape:zoom="18.25"
     inkscape:cx="-1.260274"
     inkscape:cy="7.5616438"
     inkscape:current-layer="svg4" />
  <path
     style="line-height:125%;-inkscape-font-specification:Ubuntu;text-align:center;fill:#dfdfdf;fill-opacity:1"
     d="M 2.7128906 2 C 1.6548906 1.987 0.94507812 2.2241094 0.58007812 2.6621094 C 0.19707813 3.1181094 -7.4014868e-17 3.86625 0 4.90625 L 0 11.09375 C 0 12.13375 0.19707813 12.881891 0.58007812 13.337891 C 0.94507812 13.775891 1.6548906 14 2.7128906 14 L 13.287109 14 C 14.345109 14 15.056875 13.775891 15.421875 13.337891 C 15.804875 12.881891 16 12.13375 16 11.09375 L 16 4.90625 C 16 3.86625 15.804875 3.1181094 15.421875 2.6621094 C 15.056875 2.2241094 14.345109 2 13.287109 2 L 2.7128906 2 z M 8.5 4.6308594 C 8.805 4.6308594 9.0783125 4.6523125 9.3203125 4.6953125 C 9.5703125 4.7333125 9.7800781 4.7809375 9.9550781 4.8359375 C 10.135078 4.8859375 10.282531 4.9371406 10.394531 4.9941406 C 10.512531 5.0491406 10.597484 5.094 10.646484 5.125 L 10.226562 6.2929688 A 3.56 3.56 0 0 0 9.5351562 6.0214844 A 2.766 2.766 0 0 0 8.6953125 5.9003906 C 8.0163125 5.9003906 7.5257031 6.08875 7.2207031 6.46875 C 6.9217031 6.84175 6.7734375 7.3567656 6.7734375 8.0097656 C 6.7734375 8.3277656 6.8097656 8.6159531 6.8847656 8.8769531 C 6.9587656 9.1319531 7.0707031 9.3520625 7.2207031 9.5390625 C 7.3707031 9.7260625 7.55725 9.8725156 7.78125 9.9785156 C 8.00525 10.077516 8.2664531 10.128906 8.5644531 10.128906 C 8.7264531 10.128906 8.8636094 10.125141 8.9746094 10.119141 C 9.0936094 10.113141 9.1952031 10.101031 9.2832031 10.082031 L 9.2832031 7.8320312 L 10.740234 7.8320312 L 10.740234 11.033203 C 10.566234 11.101203 10.284437 11.173047 9.8984375 11.248047 C 9.5134375 11.328047 9.0367031 11.367188 8.4707031 11.367188 C 7.9847031 11.367188 7.5454844 11.294531 7.1464844 11.144531 A 2.766 2.766 0 0 1 6.1386719 10.492188 A 2.97 2.97 0 0 1 5.484375 9.4375 A 4.218 4.218 0 0 1 5.2597656 8.0097656 C 5.2597656 7.4677656 5.3437188 6.9892656 5.5117188 6.5722656 C 5.6797188 6.1552656 5.911125 5.8045781 6.203125 5.5175781 A 2.89 2.89 0 0 1 7.2304688 4.8554688 C 7.6294687 4.7054687 8.052 4.6308594 8.5 4.6308594 z "
     id="path819" />
</svg>
