<?xml version="1.0" encoding="UTF-8" standalone="no"?>
<svg
   xmlns:dc="http://purl.org/dc/elements/1.1/"
   xmlns:cc="http://creativecommons.org/ns#"
   xmlns:rdf="http://www.w3.org/1999/02/22-rdf-syntax-ns#"
   xmlns:svg="http://www.w3.org/2000/svg"
   xmlns="http://www.w3.org/2000/svg"
   xmlns:sodipodi="http://sodipodi.sourceforge.net/DTD/sodipodi-0.dtd"
   xmlns:inkscape="http://www.inkscape.org/namespaces/inkscape"
   height="16"
   width="16.003"
   version="1.1"
   id="svg4"
   sodipodi:docname="network-wired-offline.svg"
   inkscape:version="0.92.3 (2405546, 2018-03-11)">
  <metadata
     id="metadata10">
    <rdf:RDF>
      <cc:Work
         rdf:about="">
        <dc:format>image/svg+xml</dc:format>
        <dc:type
           rdf:resource="http://purl.org/dc/dcmitype/StillImage" />
      </cc:Work>
    </rdf:RDF>
  </metadata>
  <defs
     id="defs8" />
  <sodipodi:namedview
     pagecolor="#ffffff"
     bordercolor="#666666"
     borderopacity="1"
     objecttolerance="10"
     gridtolerance="10"
     guidetolerance="10"
     inkscape:pageopacity="0"
     inkscape:pageshadow="2"
     inkscape:window-width="640"
     inkscape:window-height="480"
     id="namedview6"
     showgrid="false"
     inkscape:zoom="18.25"
     inkscape:cx="1.1980028"
     inkscape:cy="6.7540809"
     inkscape:current-layer="svg4" />
  <path
     style="line-height:normal;font-variant-ligatures:normal;font-variant-position:normal;font-variant-caps:normal;font-variant-numeric:normal;font-variant-alternates:normal;font-feature-settings:normal;text-indent:0;text-align:start;text-decoration-line:none;text-decoration-style:solid;text-decoration-color:#000;text-transform:none;text-orientation:mixed;shape-padding:0;isolation:auto;mix-blend-mode:normal;marker:none;fill:#dfdfdf;fill-opacity:1"
     d="M 6.4277344 1 C 5.9777344 1.005 5.6498594 0.98771865 5.3808594 1.1367188 A 0.676 0.676 0 0 0 5.0800781 1.4941406 C 5.0200781 1.6511406 5.0019531 1.8372656 5.0019531 2.0722656 L 5.0019531 3.9296875 C 5.0019531 4.1646875 5.0210781 4.3498594 5.0800781 4.5058594 A 0.677 0.677 0 0 0 5.3808594 4.8632812 C 5.6498594 5.0112812 5.9777344 4.995 6.4277344 5 L 7 5 L 7 7 L 3.5 7 C 2.834 7 2.3627344 7.4083438 2.1777344 7.7773438 C 1.9927344 8.1473438 2 8.5 2 8.5 L 2 10 L 1.4277344 10 C 0.97773432 10.005 0.64985935 9.9877183 0.38085938 10.136719 A 0.676 0.676 0 0 0 0.080078125 10.494141 C 0.020078125 10.651141 0.001953125 10.837266 0.001953125 11.072266 L 0.001953125 12.929688 C 0.001953125 13.164687 0.021078125 13.349859 0.080078125 13.505859 A 0.677 0.677 0 0 0 0.38085938 13.863281 C 0.64985936 14.011281 0.97773433 13.995 1.4277344 14 L 3.5722656 14 C 4.0222656 13.995 4.3511406 14.012281 4.6191406 13.863281 C 4.7541406 13.789281 4.8599219 13.662859 4.9199219 13.505859 C 4.9779219 13.348859 4.9980469 13.164687 4.9980469 12.929688 L 4.9980469 11.072266 C 4.9980469 10.837266 4.9779219 10.651141 4.9199219 10.494141 A 0.673 0.673 0 0 0 4.6191406 10.136719 C 4.3511406 9.9867183 4.0212656 10.005 3.5722656 10 L 3 10 L 3 8.5 C 3 8.5 3.0102656 8.3546094 3.0722656 8.2246094 C 3.1372656 8.0936094 3.166 8 3.5 8 L 11.5 8 C 11.833 8 11.861734 8.0936094 11.927734 8.2246094 A 0.78 0.78 0 0 1 12 8.5 L 12 10 L 11.427734 10 C 10.978734 10.005 10.648859 9.9877183 10.380859 10.136719 A 0.676 0.676 0 0 0 10.080078 10.494141 C 10.020078 10.651141 10 10.837266 10 11.072266 L 10 12.929688 C 10 13.164687 10.022078 13.349859 10.080078 13.505859 A 0.677 0.677 0 0 0 10.380859 13.863281 C 10.650859 14.011281 10.978734 13.995 11.427734 14 L 13.572266 14 C 14.022266 13.995 14.350141 14.012281 14.619141 13.863281 C 14.753141 13.789281 14.858969 13.662859 14.917969 13.505859 C 14.976969 13.348859 14.998047 13.164687 14.998047 12.929688 L 14.998047 11.072266 C 14.998047 10.837266 14.976969 10.651141 14.917969 10.494141 A 0.673 0.673 0 0 0 14.617188 10.136719 C 14.349187 9.9867183 14.021266 10.005 13.572266 10 L 13 10 L 13 8.5 C 13 8.5 13.010266 8.1473438 12.822266 7.7773438 A 1.485 1.485 0 0 0 11.5 7 L 8 7 L 8 5 L 8.5722656 5 C 9.0222656 4.995 9.3501406 5.0122813 9.6191406 4.8632812 C 9.7531406 4.7892812 9.8589686 4.6628594 9.9179688 4.5058594 C 9.9769686 4.3488594 9.9980469 4.1646875 9.9980469 3.9296875 L 9.9980469 2.0722656 C 9.9980469 1.8372656 9.9769688 1.6511406 9.9179688 1.4941406 A 0.673 0.673 0 0 0 9.6171875 1.1367188 C 9.3491875 0.98671865 9.0212656 1.005 8.5722656 1 L 6.4277344 1 z M 6.0019531 2 L 9.0019531 2 L 9.0019531 4 L 6.0019531 4 L 6.0019531 2 z M 1.0019531 11 L 4.0019531 11 L 4.0019531 13 L 1.0019531 13 L 1.0019531 11 z M 11.001953 11 L 14.001953 11 L 14.001953 13 L 11.001953 13 L 11.001953 11 z "
     id="path823" />
</svg>
