<?xml version="1.0" encoding="UTF-8" standalone="no"?>
<svg
   xmlns:dc="http://purl.org/dc/elements/1.1/"
   xmlns:cc="http://creativecommons.org/ns#"
   xmlns:rdf="http://www.w3.org/1999/02/22-rdf-syntax-ns#"
   xmlns:svg="http://www.w3.org/2000/svg"
   xmlns="http://www.w3.org/2000/svg"
   xmlns:sodipodi="http://sodipodi.sourceforge.net/DTD/sodipodi-0.dtd"
   xmlns:inkscape="http://www.inkscape.org/namespaces/inkscape"
   height="16"
   width="16"
   version="1.1"
   id="svg8"
   sodipodi:docname="network-vpn-acquiring.svg"
   inkscape:version="0.92.3 (2405546, 2018-03-11)">
  <metadata
     id="metadata14">
    <rdf:RDF>
      <cc:Work
         rdf:about="">
        <dc:format>image/svg+xml</dc:format>
        <dc:type
           rdf:resource="http://purl.org/dc/dcmitype/StillImage" />
      </cc:Work>
    </rdf:RDF>
  </metadata>
  <defs
     id="defs12" />
  <sodipodi:namedview
     pagecolor="#ffffff"
     bordercolor="#666666"
     borderopacity="1"
     objecttolerance="10"
     gridtolerance="10"
     guidetolerance="10"
     inkscape:pageopacity="0"
     inkscape:pageshadow="2"
     inkscape:window-width="640"
     inkscape:window-height="480"
     id="namedview10"
     showgrid="false"
     inkscape:zoom="18.25"
     inkscape:cx="-1.260274"
     inkscape:cy="7.5616438"
     inkscape:current-layer="svg8" />
  <path
     inkscape:connector-curvature="0"
     id="path2"
     overflow="visible"
     display="block"
     style="color:#000000;display:block;overflow:visible;isolation:auto;mix-blend-mode:normal;fill:#dfdfdf;marker:none;fill-opacity:1"
     d="m 11.494,6 c 0.829,0 1.496,0.667 1.496,1.496 v 0.016 c 0,0.829 -0.667,1.496 -1.496,1.496 H 11.478 A 1.493,1.493 0 0 1 9.982,7.512 V 7.496 C 9.982,6.667 10.649,6 11.478,6 Z m -4,0 C 8.323,6 8.99,6.667 8.99,7.496 v 0.016 c 0,0.829 -0.667,1.496 -1.496,1.496 H 7.478 A 1.493,1.493 0 0 1 5.982,7.512 V 7.496 C 5.982,6.667 6.649,6 7.478,6 Z m -4,0 C 4.323,6 4.99,6.667 4.99,7.496 v 0.016 c 0,0.829 -0.667,1.496 -1.496,1.496 H 3.478 A 1.493,1.493 0 0 1 1.982,7.512 V 7.496 C 1.982,6.667 2.649,6 3.478,6 Z" />
  <path
     inkscape:connector-curvature="0"
     id="path4"
     word-spacing="0"
     letter-spacing="0"
     font-size="15"
     font-weight="400"
     style="font-weight:400;font-size:15px;line-height:125%;font-family:Ubuntu;-inkscape-font-specification:Ubuntu;text-align:center;letter-spacing:0;word-spacing:0;text-anchor:middle;opacity:0.5;fill:#dfdfdf;fill-opacity:1"
     d="M 2.713,2 C 1.655,1.987 0.945,2.224 0.58,2.662 0.197,3.118 0,3.866 0,4.906 v 6.188 c 0,1.04 0.197,1.788 0.58,2.244 C 0.945,13.776 1.655,14 2.713,14 h 10.574 c 1.058,0 1.77,-0.224 2.135,-0.662 C 15.805,12.882 16,12.134 16,11.094 V 4.906 C 16,3.866 15.805,3.118 15.422,2.662 15.057,2.224 14.345,2 13.287,2 Z M 1,5 H 2 V 5.508 A 2.483,2.483 0 0 1 3.5,5 H 13 c 1.099,0 2,0.901 2,2 v 4 H 14 V 7.5 A 2.492,2.492 0 0 1 12,9.95 V 11 H 11 V 10 H 7 v 1 H 6 V 10 H 4.217 C 3.667,10.609 2.88,11 2,11 H 1 V 7.5 Z M 14,7.5 V 7 C 14,6.7 13.866,6.44 13.66,6.258 13.87,6.625 14,7.045 14,7.5 Z M 2,9.492 V 10 C 2.254,10 2.494,9.948 2.717,9.863 A 2.474,2.474 0 0 1 2,9.493 Z" />
</svg>
