<?xml version="1.0" encoding="UTF-8" standalone="no"?>
<svg
   xmlns:dc="http://purl.org/dc/elements/1.1/"
   xmlns:cc="http://creativecommons.org/ns#"
   xmlns:rdf="http://www.w3.org/1999/02/22-rdf-syntax-ns#"
   xmlns:svg="http://www.w3.org/2000/svg"
   xmlns="http://www.w3.org/2000/svg"
   xmlns:sodipodi="http://sodipodi.sourceforge.net/DTD/sodipodi-0.dtd"
   xmlns:inkscape="http://www.inkscape.org/namespaces/inkscape"
   height="13.036"
   width="15"
   version="1.1"
   id="svg8"
   sodipodi:docname="network-wired-no-route.svg"
   inkscape:version="0.92.3 (2405546, 2018-03-11)">
  <metadata
     id="metadata14">
    <rdf:RDF>
      <cc:Work
         rdf:about="">
        <dc:format>image/svg+xml</dc:format>
        <dc:type
           rdf:resource="http://purl.org/dc/dcmitype/StillImage" />
      </cc:Work>
    </rdf:RDF>
  </metadata>
  <defs
     id="defs12" />
  <sodipodi:namedview
     pagecolor="#ffffff"
     bordercolor="#666666"
     borderopacity="1"
     objecttolerance="10"
     gridtolerance="10"
     guidetolerance="10"
     inkscape:pageopacity="0"
     inkscape:pageshadow="2"
     inkscape:window-width="640"
     inkscape:window-height="480"
     id="namedview10"
     showgrid="false"
     inkscape:zoom="22.399509"
     inkscape:cx="-0.044808365"
     inkscape:cy="6.1608494"
     inkscape:current-layer="svg8" />
  <path
     inkscape:connector-curvature="0"
     id="path2"
     style="color:#000000;font-weight:400;line-height:normal;font-family:sans-serif;font-variant-ligatures:normal;font-variant-position:normal;font-variant-caps:normal;font-variant-numeric:normal;font-variant-alternates:normal;font-feature-settings:normal;text-indent:0;text-align:start;text-decoration:none;text-decoration-line:none;text-decoration-style:solid;text-decoration-color:#000000;text-transform:none;text-orientation:mixed;white-space:normal;shape-padding:0;overflow:visible;opacity:0.5;isolation:auto;mix-blend-mode:normal;fill:#dfdfdf;marker:none;fill-opacity:1"
     overflow="visible"
     font-weight="400"
     d="M 6.428,0 C 5.978,0.005 5.65,-0.012 5.381,0.137 A 0.676,0.676 0 0 0 5.08,0.494 C 5.043,0.594 5.025,0.712 5.014,0.84 L 5.084,0.805 5.146,0.773 A 6.885,6.885 0 0 1 6.511,0.252 c 0.485,-0.124 1,-0.169 1.52,-0.186 l 0.1,-0.029 h 0.144 c 0.315,0 0.608,0.028 0.89,0.07 0.19,0.028 0.376,0.06 0.552,0.11 C 9.685,0.19 9.657,0.157 9.621,0.137 9.35,-0.013 9.023,0.005 8.574,0 Z m 1.646,3.123 c -0.133,0 -0.267,0.01 -0.4,0.027 -0.4,0.054 -0.805,0.187 -1.223,0.395 L 5.865,3.98 C 6.032,3.994 6.212,3.998 6.428,4 H 7 V 6 H 3.5 C 2.833,6 2.362,6.408 2.178,6.777 1.993,7.147 2,7.5 2,7.5 V 9 H 1.428 C 0.978,9.005 0.65,8.988 0.381,9.137 A 0.676,0.676 0 0 0 0.08,9.494 C 0.021,9.651 0,9.837 0,10.072 v 1.858 c 0,0.234 0.022,0.42 0.08,0.576 a 0.677,0.677 0 0 0 0.3,0.357 C 0.65,13.011 0.978,12.995 1.428,13 h 2.144 c 0.45,-0.005 0.778,0.012 1.047,-0.137 0.134,-0.074 0.24,-0.2 0.299,-0.357 0.059,-0.157 0.08,-0.342 0.08,-0.576 V 10.072 C 4.998,9.837 4.977,9.651 4.918,9.494 A 0.673,0.673 0 0 0 4.619,9.137 C 4.35,8.987 4.022,9.005 3.572,9 H 3 V 7.5 C 3,7.5 3.01,7.355 3.072,7.225 3.137,7.094 3.166,7 3.5,7 H 6.695 C 6.707,6.977 6.722,6.955 6.734,6.932 V 6.928 C 6.789,6.827 6.844,6.727 6.906,6.631 6.926,6.599 6.949,6.57 6.97,6.539 A 4.74,4.74 0 0 1 7.134,6.306 L 7.144,6.298 7.163,6.261 7.173,6.25 c 0.01,-0.01 0.012,-0.02 0.02,-0.03 0,-0.004 0.01,-0.007 0.01,-0.01 L 7.183,6.238 7.205,6.214 V 6.206 C 7.333,6.043 7.476,5.9 7.617,5.753 L 7.804,5.546 7.818,5.532 C 7.828,5.525 7.828,5.519 7.834,5.512 L 7.871,5.468 A 0.8,0.8 0 0 1 7.908,5.428 C 7.941,5.396 7.968,5.364 8,5.331 V 4 H 8.573 C 8.724,3.998 8.845,3.994 8.971,3.99 A 0.607,0.607 0 0 0 8.987,3.851 C 8.987,3.573 8.928,3.46 8.8,3.336 8.8,3.331 8.79,3.326 8.788,3.322 8.684,3.219 8.504,3.122 8.073,3.122 Z m 3.461,2.883 c -0.034,0.044 -0.064,0.091 -0.1,0.135 A 8.24,8.24 0 0 1 10.638,6.977 C 10.628,6.984 10.625,6.993 10.616,7 h 0.883 c 0.333,0 0.362,0.094 0.428,0.225 A 0.78,0.78 0 0 1 11.999,7.5 V 9 H 11.426 C 10.977,9.005 10.648,8.988 10.38,9.137 a 0.676,0.676 0 0 0 -0.301,0.357 c -0.06,0.157 -0.08,0.343 -0.08,0.578 v 1.69 c 0.012,0.085 0.025,0.171 0.025,0.256 0,0.02 0,0.041 -0.01,0.062 0.013,0.152 0.032,0.35 0.06,0.426 a 0.676,0.676 0 0 0 0.3,0.357 c 0.27,0.148 0.598,0.132 1.047,0.137 h 2.145 c 0.45,-0.005 0.778,0.012 1.047,-0.137 0.134,-0.074 0.24,-0.2 0.299,-0.357 0.059,-0.157 0.08,-0.341 0.08,-0.576 v -1.858 c 0,-0.235 -0.021,-0.421 -0.08,-0.578 a 0.673,0.673 0 0 0 -0.3,-0.357 C 14.344,8.987 14.015,9.005 13.566,9 H 12.994 V 7.5 c 0,0 0.01,-0.353 -0.178,-0.723 C 12.635,6.415 12.176,6.021 11.529,6.006 Z M 10.02,12.08 v -0.016 c 0,0.054 -0.012,0.107 -0.018,0.16 v 0.05 c 0.01,-0.065 0.015,-0.13 0.02,-0.194 z M 1.002,10 h 3 v 2 h -3 z m 10,0 h 3 v 2 h -3 z" />
  <path
     inkscape:connector-curvature="0"
     id="path4"
     word-spacing="0"
     style="font-weight:500;font-size:72.03600311px;line-height:125%;font-family:Ubuntu;-inkscape-font-specification:'Ubuntu Medium';text-align:center;letter-spacing:0;word-spacing:0;text-anchor:middle;fill:#dfdfdf;fill-opacity:1"
     letter-spacing="0"
     font-weight="500"
     font-size="72.036"
     d="M 8.273,1.037 C 7.74,1.037 7.236,1.098 6.76,1.22 A 5.853,5.853 0 0 0 5.593,1.666 L 4.936,2.124 5.502,3 5.954,2.664 c 0.688,-0.35 1.394,-0.54 2.116,-0.54 0.607,0 1.089,0.16 1.42,0.491 0.328,0.316 0.494,0.737 0.494,1.236 0,0.311 -0.073,0.603 -0.218,0.868 A 3.339,3.339 0 0 1 9.259,5.455 C 9.054,5.682 8.838,5.91 8.611,6.137 L 8.61,6.138 a 6.385,6.385 0 0 0 -0.632,0.7 L 7.977,6.84 A 3.66,3.66 0 0 0 7.485,7.626 2.378,2.378 0 0 0 7.308,8.561 c 0,0.208 0.024,0.403 0.056,0.594 h 1.087 c 0,-0.023 -0.01,-0.044 -0.01,-0.068 V 8.9 C 8.441,8.513 8.518,8.16 8.673,7.85 8.824,7.536 9.01,7.251 9.231,6.995 L 9.233,6.993 C 9.45,6.729 9.691,6.478 9.953,6.238 A 7.23,7.23 0 0 0 10.654,5.504 4.27,4.27 0 0 0 11.181,4.697 C 11.319,4.409 11.389,4.084 11.389,3.715 A 3.06,3.06 0 0 0 11.242,2.801 V 2.799 L 11.241,2.797 A 2.04,2.04 0 0 0 10.76,1.93 C 10.525,1.675 10.208,1.464 9.803,1.3 V 1.298 C 9.417,1.126 8.908,1.037 8.275,1.037 Z M 8.002,11 C 7.677,11 7.44,11.1 7.259,11.3 a 1.025,1.025 0 0 0 -0.274,0.718 c 0,0.279 0.089,0.512 0.274,0.718 0.181,0.2 0.418,0.3 0.743,0.3 0.325,0 0.562,-0.099 0.743,-0.3 C 8.931,12.53 9.02,12.296 9.02,12.018 9.02,11.738 8.93,11.506 8.745,11.3 8.564,11.1 8.327,11 8.002,11 Z" />
</svg>
