<?xml version="1.0" encoding="UTF-8" standalone="no"?>
<svg
   xmlns:dc="http://purl.org/dc/elements/1.1/"
   xmlns:cc="http://creativecommons.org/ns#"
   xmlns:rdf="http://www.w3.org/1999/02/22-rdf-syntax-ns#"
   xmlns:svg="http://www.w3.org/2000/svg"
   xmlns="http://www.w3.org/2000/svg"
   xmlns:sodipodi="http://sodipodi.sourceforge.net/DTD/sodipodi-0.dtd"
   xmlns:inkscape="http://www.inkscape.org/namespaces/inkscape"
   height="16"
   width="16"
   version="1.1"
   id="svg4"
   sodipodi:docname="network-vpn.svg"
   inkscape:version="0.92.3 (2405546, 2018-03-11)">
  <metadata
     id="metadata10">
    <rdf:RDF>
      <cc:Work
         rdf:about="">
        <dc:format>image/svg+xml</dc:format>
        <dc:type
           rdf:resource="http://purl.org/dc/dcmitype/StillImage" />
      </cc:Work>
    </rdf:RDF>
  </metadata>
  <defs
     id="defs8" />
  <sodipodi:namedview
     pagecolor="#ffffff"
     bordercolor="#666666"
     borderopacity="1"
     objecttolerance="10"
     gridtolerance="10"
     guidetolerance="10"
     inkscape:pageopacity="0"
     inkscape:pageshadow="2"
     inkscape:window-width="640"
     inkscape:window-height="480"
     id="namedview6"
     showgrid="false"
     inkscape:zoom="18.25"
     inkscape:cx="-1.260274"
     inkscape:cy="7.5616438"
     inkscape:current-layer="svg4" />
  <path
     style="line-height:125%;-inkscape-font-specification:Ubuntu;text-align:center;fill:#dfdfdf;fill-opacity:1"
     d="M 2.7128906 2 C 1.6548906 1.987 0.94507813 2.2241094 0.58007812 2.6621094 C 0.19707813 3.1181094 -3.7007434e-16 3.86625 0 4.90625 L 0 11.09375 C 0 12.13375 0.19707813 12.881891 0.58007812 13.337891 C 0.94507812 13.775891 1.6548906 14 2.7128906 14 L 13.287109 14 C 14.345109 14 15.056875 13.775891 15.421875 13.337891 C 15.804875 12.881891 16 12.13375 16 11.09375 L 16 4.90625 C 16 3.86625 15.804875 3.1181094 15.421875 2.6621094 C 15.056875 2.2241094 14.345109 2 13.287109 2 L 2.7128906 2 z M 1 5 L 2 5 L 2 10 C 3.11 10 4 9.11 4 8 L 4 5 L 5 5 L 5 8 C 5 9.651 3.65 11 2 11 L 1 11 L 1 5 z M 6 5 L 8 5 C 9.099 5 10 5.901 10 7 C 10 8.099 9.099 9 8 9 L 7 9 L 7 11 L 6 11 L 6 6 L 6 5 z M 11 5 L 13 5 C 14.099 5 15 5.901 15 7 L 15 11 L 14 11 L 14 7 C 14 6.442 13.558 6 13 6 L 12 6 L 12 11 L 11 11 L 11 6 L 11 5 z "
     id="path825" />
  <path
     style="line-height:125%;-inkscape-font-specification:Ubuntu;text-align:center;fill:#dfdfdf;fill-opacity:1"
     d="M 7,6 V 8 H 8 C 8.558,8 9,7.558 9,7 9,6.442 8.558,6 8,6 Z"
     id="path2" />
</svg>
