<?xml version="1.0" encoding="UTF-8" standalone="no"?>
<svg
   xmlns:dc="http://purl.org/dc/elements/1.1/"
   xmlns:cc="http://creativecommons.org/ns#"
   xmlns:rdf="http://www.w3.org/1999/02/22-rdf-syntax-ns#"
   xmlns:svg="http://www.w3.org/2000/svg"
   xmlns="http://www.w3.org/2000/svg"
   xmlns:sodipodi="http://sodipodi.sourceforge.net/DTD/sodipodi-0.dtd"
   xmlns:inkscape="http://www.inkscape.org/namespaces/inkscape"
   height="16"
   width="16"
   version="1.1"
   id="svg8"
   sodipodi:docname="network-cellular-no-route.svg"
   inkscape:version="0.92.3 (2405546, 2018-03-11)">
  <metadata
     id="metadata14">
    <rdf:RDF>
      <cc:Work
         rdf:about="">
        <dc:format>image/svg+xml</dc:format>
        <dc:type
           rdf:resource="http://purl.org/dc/dcmitype/StillImage" />
      </cc:Work>
    </rdf:RDF>
  </metadata>
  <defs
     id="defs12" />
  <sodipodi:namedview
     pagecolor="#ffffff"
     bordercolor="#666666"
     borderopacity="1"
     objecttolerance="10"
     gridtolerance="10"
     guidetolerance="10"
     inkscape:pageopacity="0"
     inkscape:pageshadow="2"
     inkscape:window-width="640"
     inkscape:window-height="480"
     id="namedview10"
     showgrid="false"
     inkscape:zoom="18.25"
     inkscape:cx="-1.260274"
     inkscape:cy="7.5616438"
     inkscape:current-layer="svg8" />
  <path
     inkscape:connector-curvature="0"
     id="path2"
     style="color:#000000;font-weight:400;line-height:normal;font-family:sans-serif;font-variant-ligatures:normal;font-variant-position:normal;font-variant-caps:normal;font-variant-numeric:normal;font-variant-alternates:normal;font-feature-settings:normal;text-indent:0;text-align:start;text-decoration:none;text-decoration-line:none;text-decoration-style:solid;text-decoration-color:#000000;text-transform:none;text-orientation:mixed;white-space:normal;shape-padding:0;overflow:visible;opacity:0.5;isolation:auto;mix-blend-mode:normal;fill:#dfdfdf;marker:none;fill-opacity:1"
     overflow="visible"
     font-weight="400"
     d="m 15,0.293 -2.924,2.924 c 0.041,0.103 0.096,0.2 0.125,0.306 0.015,0.048 0.015,0.097 0.027,0.145 0.057,0.207 0.096,0.413 0.121,0.62 0,0.019 0.01,0.038 0.013,0.058 L 14,2.707 V 14 H 9.76 a 2.011,2.011 0 0 1 -0.272,0.404 c -0.01,0.012 -0.024,0.022 -0.035,0.034 a 1.664,1.664 0 0 1 -0.242,0.207 c -0.043,0.03 -0.089,0.056 -0.135,0.084 A 2.014,2.014 0 0 1 8.928,14.807 2.21,2.21 0 0 1 8.35,15 h 6.652 z M 6.363,8.93 1.147,14.146 0.293,15 H 7.655 A 2.187,2.187 0 0 1 6.915,14.72 C 6.875,14.697 6.836,14.676 6.799,14.65 A 1.666,1.666 0 0 1 6.516,14.404 C 6.506,14.395 6.504,14.382 6.496,14.374 A 2.017,2.017 0 0 1 6.249,14.006 V 14 H 2.714 l 3.67,-3.67 V 10.322 A 4.453,4.453 0 0 1 6.314,9.56 c 0,-0.214 0.022,-0.424 0.059,-0.63 z" />
  <path
     inkscape:connector-curvature="0"
     id="path4"
     word-spacing="0"
     style="font-weight:500;font-size:72.03600311px;line-height:125%;font-family:Ubuntu;-inkscape-font-specification:'Ubuntu Medium';text-align:center;letter-spacing:0;word-spacing:0;text-anchor:middle;fill:#dfdfdf;fill-opacity:1"
     letter-spacing="0"
     font-weight="500"
     font-size="72.036"
     d="M 8.271,2.037 C 7.738,2.037 7.234,2.098 6.759,2.22 A 5.853,5.853 0 0 0 5.592,2.666 L 4.934,3.124 5.5,4 5.952,3.664 c 0.688,-0.35 1.394,-0.54 2.116,-0.54 0.607,0 1.09,0.16 1.421,0.491 0.327,0.316 0.493,0.737 0.493,1.236 0,0.311 -0.073,0.603 -0.217,0.868 C 9.635,5.977 9.466,6.222 9.257,6.455 9.052,6.682 8.837,6.91 8.609,7.137 v 0.001 a 6.392,6.392 0 0 0 -0.633,0.7 L 7.975,7.84 A 3.66,3.66 0 0 0 7.483,8.626 2.378,2.378 0 0 0 7.306,9.561 c 0,0.208 0.024,0.403 0.056,0.594 H 8.45 C 8.449,10.132 8.44,10.111 8.44,10.087 V 9.9 C 8.44,9.513 8.517,9.16 8.672,8.85 8.822,8.536 9.008,8.251 9.229,7.995 L 9.231,7.993 C 9.449,7.729 9.689,7.478 9.952,7.238 a 7.23,7.23 0 0 0 0.7,-0.734 c 0.21,-0.253 0.384,-0.522 0.527,-0.807 0.138,-0.288 0.209,-0.613 0.209,-0.982 A 3.06,3.06 0 0 0 11.241,3.801 L 11.24,3.799 V 3.797 A 2.04,2.04 0 0 0 10.758,2.93 C 10.524,2.675 10.206,2.464 9.801,2.3 V 2.298 C 9.416,2.126 8.906,2.037 8.273,2.037 Z M 8.001,12 c -0.326,0 -0.562,0.1 -0.743,0.3 a 1.025,1.025 0 0 0 -0.275,0.718 c 0,0.279 0.089,0.512 0.275,0.718 0.18,0.2 0.417,0.3 0.742,0.3 0.325,0 0.562,-0.099 0.743,-0.3 0.186,-0.206 0.275,-0.44 0.275,-0.718 0,-0.28 -0.089,-0.512 -0.275,-0.718 C 8.563,12.1 8.325,12 8,12 Z" />
</svg>
