<?xml version="1.0" encoding="UTF-8" standalone="no"?>
<svg
   xmlns:dc="http://purl.org/dc/elements/1.1/"
   xmlns:cc="http://creativecommons.org/ns#"
   xmlns:rdf="http://www.w3.org/1999/02/22-rdf-syntax-ns#"
   xmlns:svg="http://www.w3.org/2000/svg"
   xmlns="http://www.w3.org/2000/svg"
   xmlns:sodipodi="http://sodipodi.sourceforge.net/DTD/sodipodi-0.dtd"
   xmlns:inkscape="http://www.inkscape.org/namespaces/inkscape"
   height="16"
   width="16"
   version="1.1"
   id="svg4"
   sodipodi:docname="network-cellular-4g.svg"
   inkscape:version="0.92.3 (2405546, 2018-03-11)">
  <metadata
     id="metadata10">
    <rdf:RDF>
      <cc:Work
         rdf:about="">
        <dc:format>image/svg+xml</dc:format>
        <dc:type
           rdf:resource="http://purl.org/dc/dcmitype/StillImage" />
      </cc:Work>
    </rdf:RDF>
  </metadata>
  <defs
     id="defs8" />
  <sodipodi:namedview
     pagecolor="#ffffff"
     bordercolor="#666666"
     borderopacity="1"
     objecttolerance="10"
     gridtolerance="10"
     guidetolerance="10"
     inkscape:pageopacity="0"
     inkscape:pageshadow="2"
     inkscape:window-width="640"
     inkscape:window-height="480"
     id="namedview6"
     showgrid="false"
     inkscape:zoom="18.25"
     inkscape:cx="-1.260274"
     inkscape:cy="7.5616438"
     inkscape:current-layer="svg4" />
  <path
     style="line-height:125%;-inkscape-font-specification:Ubuntu;text-align:center;fill:#dfdfdf;fill-opacity:1"
     d="M 2.7128906 2 C 1.6548906 1.987 0.94507813 2.2241094 0.58007812 2.6621094 C 0.19707813 3.1181094 -2.220446e-16 3.86625 0 4.90625 L 0 11.09375 C 0 12.13375 0.19707813 12.881891 0.58007812 13.337891 C 0.94507812 13.775891 1.6548906 14 2.7128906 14 L 13.287109 14 C 14.345109 14 15.056875 13.775891 15.421875 13.337891 C 15.804875 12.881891 16 12.13375 16 11.09375 L 16 4.90625 C 16 3.86625 15.804875 3.1181094 15.421875 2.6621094 C 15.056875 2.2241094 14.345109 2 13.287109 2 L 2.7128906 2 z M 11.291016 4.6308594 C 11.596016 4.6308594 11.871281 4.6542656 12.113281 4.6972656 C 12.363281 4.7352656 12.573047 4.7799375 12.748047 4.8359375 A 2.752 2.752 0 0 1 13.4375 5.1269531 L 13.017578 6.2929688 A 3.539 3.539 0 0 0 12.328125 6.0214844 A 2.766 2.766 0 0 0 11.488281 5.9003906 C 10.810281 5.9003906 10.317672 6.08975 10.013672 6.46875 C 9.7146719 6.84175 9.5644531 7.3567656 9.5644531 8.0097656 C 9.5644531 8.3277656 9.6037344 8.6159531 9.6777344 8.8769531 A 1.9 1.9 0 0 0 10.013672 9.5390625 C 10.162672 9.7260625 10.348266 9.8725156 10.572266 9.9785156 C 10.796266 10.078516 11.059422 10.128906 11.357422 10.128906 C 11.519422 10.128906 11.656578 10.125141 11.767578 10.119141 C 11.886578 10.113141 11.988172 10.101031 12.076172 10.082031 L 12.076172 7.8320312 L 13.53125 7.8320312 L 13.53125 11.033203 C 13.35725 11.102203 13.077406 11.173047 12.691406 11.248047 C 12.306406 11.328047 11.829672 11.369141 11.263672 11.369141 C 10.777672 11.369141 10.3355 11.296484 9.9375 11.146484 A 2.77 2.77 0 0 1 8.9296875 10.492188 A 2.967 2.967 0 0 1 8.2773438 9.4375 A 4.219 4.219 0 0 1 8.0527344 8.0097656 C 8.0527344 7.4677656 8.1366875 6.9892656 8.3046875 6.5722656 C 8.4726875 6.1552656 8.7040937 5.8045781 8.9960938 5.5175781 A 2.883 2.883 0 0 1 10.021484 4.8554688 C 10.420484 4.7064687 10.843016 4.6308594 11.291016 4.6308594 z M 5.3066406 4.7792969 L 6.6191406 4.7792969 L 6.6191406 8.6621094 L 7.3125 8.6621094 L 7.3125 9.8007812 L 6.6191406 9.8007812 L 6.6191406 11.248047 L 5.2597656 11.248047 L 5.2597656 9.8007812 L 2.46875 9.8007812 L 2.46875 8.7832031 C 2.60575 8.5092031 2.7774219 8.202375 2.9824219 7.859375 A 17.682 17.682 0 0 1 4.4648438 5.7226562 C 4.7448438 5.3736562 5.0266406 5.0592969 5.3066406 4.7792969 z "
     id="path823" />
  <path
     style="line-height:125%;-inkscape-font-specification:Ubuntu;text-align:center;fill:#dfdfdf;fill-opacity:1"
     d="M 5.26,6.478 C 5.017,6.795 4.758,7.141 4.484,7.515 A 7.107,7.107 0 0 0 3.793,8.661 H 5.26 Z"
     id="path2" />
</svg>
