<?xml version="1.0" encoding="UTF-8" standalone="no"?>
<svg
   xmlns:dc="http://purl.org/dc/elements/1.1/"
   xmlns:cc="http://creativecommons.org/ns#"
   xmlns:rdf="http://www.w3.org/1999/02/22-rdf-syntax-ns#"
   xmlns:svg="http://www.w3.org/2000/svg"
   xmlns="http://www.w3.org/2000/svg"
   xmlns:sodipodi="http://sodipodi.sourceforge.net/DTD/sodipodi-0.dtd"
   xmlns:inkscape="http://www.inkscape.org/namespaces/inkscape"
   height="16"
   width="16"
   version="1.1"
   id="svg4"
   sodipodi:docname="night-light.svg"
   inkscape:version="0.92.3 (2405546, 2018-03-11)">
  <metadata
     id="metadata10">
    <rdf:RDF>
      <cc:Work
         rdf:about="">
        <dc:format>image/svg+xml</dc:format>
        <dc:type
           rdf:resource="http://purl.org/dc/dcmitype/StillImage" />
      </cc:Work>
    </rdf:RDF>
  </metadata>
  <defs
     id="defs8" />
  <sodipodi:namedview
     pagecolor="#ffffff"
     bordercolor="#666666"
     borderopacity="1"
     objecttolerance="10"
     gridtolerance="10"
     guidetolerance="10"
     inkscape:pageopacity="0"
     inkscape:pageshadow="2"
     inkscape:window-width="640"
     inkscape:window-height="480"
     id="namedview6"
     showgrid="false"
     inkscape:zoom="18.25"
     inkscape:cx="-1.260274"
     inkscape:cy="7.5616438"
     inkscape:current-layer="svg4" />
  <path
     style="fill:#dfdfdf;fill-opacity:1"
     d="M 8 3 A 5 5 0 0 0 8 13 A 5 5 0 0 0 8 3 z M 6.9511719 4 A 3.589 3.589 0 0 0 6.2597656 7.1953125 A 3.596 3.596 0 0 0 10.662109 9.7382812 C 11.152109 9.6052813 11.608 9.367875 12 9.046875 A 4.084 4.084 0 0 1 9.1386719 11.861328 A 4.081 4.081 0 0 1 6.9511719 4 z "
     id="path835" />
  <path
     d="m 8.5,0 h -1 v 2 h 1 z"
     id="path831"
     style="fill:#dfdfdf;fill-opacity:1" />
  <path
     d="m 13.303,1.99 -1.414,1.414 0.707,0.707 1.415,-1.414 z"
     id="path829"
     style="fill:#dfdfdf;fill-opacity:1" />
  <path
     d="M 2.697,1.99 1.99,2.697 3.404,4.111 4.111,3.404 Z"
     id="path827"
     style="fill:#dfdfdf;fill-opacity:1" />
  <path
     d="m 16,7.5 h -2 v 1 h 2 z"
     id="path825"
     style="fill:#dfdfdf;fill-opacity:1" />
  <path
     d="M 2,7.5 H 0 v 1 h 2 z"
     id="path823"
     style="fill:#dfdfdf;fill-opacity:1" />
  <path
     d="m 12.596,11.889 -0.707,0.707 1.414,1.414 0.707,-0.707 z"
     id="path821"
     style="fill:#dfdfdf;fill-opacity:1" />
  <path
     d="M 3.404,11.889 1.99,13.303 2.697,14.01 4.111,12.596 Z"
     id="path819"
     style="fill:#dfdfdf;fill-opacity:1" />
  <path
     d="m 8.5,13.999 h -1 v 2 h 1 z"
     id="path2"
     style="fill:#dfdfdf;fill-opacity:1" />
</svg>
