<?xml version="1.0" encoding="UTF-8" standalone="no"?>
<svg
   xmlns:dc="http://purl.org/dc/elements/1.1/"
   xmlns:cc="http://creativecommons.org/ns#"
   xmlns:rdf="http://www.w3.org/1999/02/22-rdf-syntax-ns#"
   xmlns:svg="http://www.w3.org/2000/svg"
   xmlns="http://www.w3.org/2000/svg"
   xmlns:sodipodi="http://sodipodi.sourceforge.net/DTD/sodipodi-0.dtd"
   xmlns:inkscape="http://www.inkscape.org/namespaces/inkscape"
   height="16"
   width="16"
   version="1.1"
   id="svg4"
   sodipodi:docname="non-starred.svg"
   inkscape:version="0.92.3 (2405546, 2018-03-11)">
  <metadata
     id="metadata10">
    <rdf:RDF>
      <cc:Work
         rdf:about="">
        <dc:format>image/svg+xml</dc:format>
        <dc:type
           rdf:resource="http://purl.org/dc/dcmitype/StillImage" />
      </cc:Work>
    </rdf:RDF>
  </metadata>
  <defs
     id="defs8" />
  <sodipodi:namedview
     pagecolor="#ffffff"
     bordercolor="#666666"
     borderopacity="1"
     objecttolerance="10"
     gridtolerance="10"
     guidetolerance="10"
     inkscape:pageopacity="0"
     inkscape:pageshadow="2"
     inkscape:window-width="640"
     inkscape:window-height="480"
     id="namedview6"
     showgrid="false"
     inkscape:zoom="18.25"
     inkscape:cx="-1.260274"
     inkscape:cy="7.5616438"
     inkscape:current-layer="svg4" />
  <path
     style="marker:none;fill:#dfdfdf;fill-opacity:1"
     d="M 7.9960938 1.0019531 L 7.9941406 1.0039062 L 7.9921875 1.0058594 C 7.1501875 2.8158594 6.4969531 4.6590625 6.1269531 5.7890625 C 4.9069531 5.7900625 2.8993281 5.8379375 0.98632812 6.0859375 L 0.98828125 6.0878906 L 0.98828125 6.0898438 L 0.99023438 6.0917969 L 0.99023438 6.09375 C 2.4512344 7.45475 4.0038437 8.6437031 4.9648438 9.3457031 C 4.5888437 10.505703 4.01125 12.428219 3.65625 14.324219 L 3.6640625 14.324219 C 5.4110625 13.356219 7.0213281 12.247781 7.9863281 11.550781 C 8.9723281 12.266781 10.627312 13.409031 12.320312 14.332031 L 12.320312 14.330078 L 12.320312 14.328125 L 12.320312 14.326172 L 12.322266 14.324219 C 11.941266 12.364219 11.381578 10.489422 11.017578 9.3574219 C 12.003578 8.6394219 13.599953 7.4226562 15.001953 6.0976562 L 15 6.0957031 L 14.998047 6.0957031 L 14.996094 6.09375 L 14.996094 6.0917969 C 13.014094 5.8487969 11.059141 5.799875 9.8691406 5.796875 C 9.4921406 4.637875 8.825 2.7439531 8 1.0019531 L 7.9960938 1.0019531 z M 7.9980469 3.7441406 C 8.3120469 4.5721406 8.7309687 5.5344219 8.9179688 6.1074219 L 9.1425781 6.7949219 L 9.8652344 6.796875 C 10.453234 6.798875 11.517531 6.9003594 12.394531 6.9433594 C 11.703531 7.4983594 10.917687 8.1928281 10.429688 8.5488281 L 9.84375 8.9746094 L 10.066406 9.6640625 C 10.246406 10.222062 10.478984 11.266281 10.708984 12.113281 C 9.9679844 11.628281 9.0632187 11.096188 8.5742188 10.742188 L 7.9882812 10.316406 L 7.4023438 10.740234 C 6.9263438 11.084234 6.0054844 11.627422 5.2714844 12.107422 C 5.5034844 11.253422 5.7300156 10.228297 5.9160156 9.6542969 L 6.1386719 8.9667969 L 5.5546875 8.5390625 C 5.0796875 8.1920625 4.2797031 7.4855469 3.5957031 6.9355469 C 4.4807031 6.8925469 5.5249062 6.7920156 6.1289062 6.7910156 L 6.8515625 6.7890625 L 7.078125 6.1015625 C 7.261125 5.5425625 7.6860469 4.5641406 7.9980469 3.7441406 z "
     id="path819" />
</svg>
