<?xml version="1.0" encoding="UTF-8" standalone="no"?>
<svg
   xmlns:dc="http://purl.org/dc/elements/1.1/"
   xmlns:cc="http://creativecommons.org/ns#"
   xmlns:rdf="http://www.w3.org/1999/02/22-rdf-syntax-ns#"
   xmlns:svg="http://www.w3.org/2000/svg"
   xmlns="http://www.w3.org/2000/svg"
   xmlns:sodipodi="http://sodipodi.sourceforge.net/DTD/sodipodi-0.dtd"
   xmlns:inkscape="http://www.inkscape.org/namespaces/inkscape"
   height="16"
   width="16"
   version="1.1"
   id="svg6"
   sodipodi:docname="printer-warning.svg"
   inkscape:version="0.92.3 (2405546, 2018-03-11)">
  <metadata
     id="metadata12">
    <rdf:RDF>
      <cc:Work
         rdf:about="">
        <dc:format>image/svg+xml</dc:format>
        <dc:type
           rdf:resource="http://purl.org/dc/dcmitype/StillImage" />
      </cc:Work>
    </rdf:RDF>
  </metadata>
  <defs
     id="defs10" />
  <sodipodi:namedview
     pagecolor="#ffffff"
     bordercolor="#666666"
     borderopacity="1"
     objecttolerance="10"
     gridtolerance="10"
     guidetolerance="10"
     inkscape:pageopacity="0"
     inkscape:pageshadow="2"
     inkscape:window-width="640"
     inkscape:window-height="480"
     id="namedview8"
     showgrid="false"
     inkscape:zoom="18.25"
     inkscape:cx="-1.260274"
     inkscape:cy="7.5616438"
     inkscape:current-layer="svg6" />
  <path
     class="warning"
     d="M12.48 9.729a.442.442 0 0 0-.36.22l-3.061 5.397a.437.437 0 0 0 .379.654h6.125a.437.437 0 0 0 .378-.654l-3.058-5.397a.442.442 0 0 0-.403-.22zM12 11h1v.168c0 .349-.016.667-.047.957-.03.29-.069.581-.115.875h-.666a13.156 13.156 0 0 1-.125-.875 9.148 9.148 0 0 1-.047-.957zm.5 3a.5.5 0 1 1 0 1 .5.5 0 0 1 0-1z"
     style="line-height:normal;text-indent:0;text-align:start;text-decoration-line:none;text-decoration-style:solid;text-decoration-color:#000;text-transform:none;isolation:auto;mix-blend-mode:normal"
     color="#000"
     font-weight="400"
     font-family="sans-serif"
     white-space="normal"
     overflow="visible"
     fill="#fdc92b"
     fill-rule="evenodd"
     id="path2" />
  <path
     style="line-height:normal;font-variant-ligatures:normal;font-variant-position:normal;font-variant-caps:normal;font-variant-numeric:normal;font-variant-alternates:normal;font-feature-settings:normal;text-indent:0;text-align:start;text-decoration-line:none;text-decoration-style:solid;text-decoration-color:#000;text-transform:none;text-orientation:mixed;shape-padding:0;isolation:auto;mix-blend-mode:normal;marker:none;fill:#dfdfdf;fill-opacity:1"
     d="M 3 0 L 3 4.0253906 C 2.25 4.0433906 1.5895 4.0947656 1.0625 4.3847656 A 1.88 1.88 0 0 0 0.22460938 5.3828125 C 0.059609375 5.8218125 1.8503717e-17 6.343 0 7 L 0 10 C 0 10.658 0.059609375 11.179188 0.22460938 11.617188 C 0.38860938 12.056188 0.6855 12.407234 1.0625 12.615234 C 1.3445 12.771234 1.662 12.849344 2 12.902344 L 2 11.876953 A 1.627 1.627 0 0 1 1.5449219 11.738281 C 1.3619219 11.638281 1.2581562 11.525625 1.1601562 11.265625 C 1.0631563 11.005625 1 10.592 1 10 L 1 7 C 1 6.408 1.0631563 5.994375 1.1601562 5.734375 C 1.2581563 5.474375 1.3619219 5.3627188 1.5449219 5.2617188 C 1.9099219 5.0597188 2.74 5.015 4 5 L 12 5 C 13.259 5.015 14.087125 5.0597187 14.453125 5.2617188 C 14.637125 5.3627187 14.742844 5.475375 14.839844 5.734375 C 14.936844 5.994375 15 6.408 15 7 L 15 9 L 16 9 L 16 7 C 16 6.342 15.940391 5.8218125 15.775391 5.3828125 A 1.88 1.88 0 0 0 14.9375 4.3847656 C 14.4105 4.0947656 13.75 4.0433906 13 4.0253906 L 13 0 L 3 0 z M 4 1 L 12 1 L 12 4 L 4 4 L 4 1 z "
     id="path832" />
  <path
     style="line-height:normal;font-variant-ligatures:normal;font-variant-position:normal;font-variant-caps:normal;font-variant-numeric:normal;font-variant-alternates:normal;font-feature-settings:normal;text-indent:0;text-align:start;text-decoration-line:none;text-decoration-style:solid;text-decoration-color:#000;text-transform:none;text-orientation:mixed;shape-padding:0;isolation:auto;mix-blend-mode:normal;marker:none;fill:#dfdfdf;fill-opacity:1"
     d="m 13.5,6 a 0.5,0.5 0 1 0 0,1 0.5,0.5 0 0 0 0,-1 z"
     id="path828" />
  <path
     style="line-height:normal;font-variant-ligatures:normal;font-variant-position:normal;font-variant-caps:normal;font-variant-numeric:normal;font-variant-alternates:normal;font-feature-settings:normal;text-indent:0;text-align:start;text-decoration-line:none;text-decoration-style:solid;text-decoration-color:#000;text-transform:none;text-orientation:mixed;shape-padding:0;isolation:auto;mix-blend-mode:normal;marker:none;fill:#dfdfdf;fill-opacity:1"
     d="m 3,10 v 6 H 8 V 15 H 4 v -5 z"
     id="path826" />
  <path
     style="line-height:normal;font-variant-ligatures:normal;font-variant-position:normal;font-variant-caps:normal;font-variant-numeric:normal;font-variant-alternates:normal;font-feature-settings:normal;text-indent:0;text-align:start;text-decoration-line:none;text-decoration-style:solid;text-decoration-color:#000;text-transform:none;text-orientation:mixed;shape-padding:0;isolation:auto;mix-blend-mode:normal;marker:none;fill:#dfdfdf;fill-opacity:1"
     d="m 5,11 v 1 h 3 v -1 z"
     id="path824" />
  <path
     style="line-height:normal;font-variant-ligatures:normal;font-variant-position:normal;font-variant-caps:normal;font-variant-numeric:normal;font-variant-alternates:normal;font-feature-settings:normal;text-indent:0;text-align:start;text-decoration-line:none;text-decoration-style:solid;text-decoration-color:#000;text-transform:none;text-orientation:mixed;shape-padding:0;isolation:auto;mix-blend-mode:normal;marker:none;fill:#dfdfdf;fill-opacity:1"
     d="m 5,13 v 1 h 3 v -1 z"
     id="path4" />
</svg>
