<?xml version="1.0" encoding="UTF-8" standalone="no"?>
<svg
   xmlns:dc="http://purl.org/dc/elements/1.1/"
   xmlns:cc="http://creativecommons.org/ns#"
   xmlns:rdf="http://www.w3.org/1999/02/22-rdf-syntax-ns#"
   xmlns:svg="http://www.w3.org/2000/svg"
   xmlns="http://www.w3.org/2000/svg"
   xmlns:sodipodi="http://sodipodi.sourceforge.net/DTD/sodipodi-0.dtd"
   xmlns:inkscape="http://www.inkscape.org/namespaces/inkscape"
   height="16"
   width="16"
   version="1.1"
   id="svg4"
   sodipodi:docname="printer-printing.svg"
   inkscape:version="0.92.3 (2405546, 2018-03-11)">
  <metadata
     id="metadata10">
    <rdf:RDF>
      <cc:Work
         rdf:about="">
        <dc:format>image/svg+xml</dc:format>
        <dc:type
           rdf:resource="http://purl.org/dc/dcmitype/StillImage" />
      </cc:Work>
    </rdf:RDF>
  </metadata>
  <defs
     id="defs8" />
  <sodipodi:namedview
     pagecolor="#ffffff"
     bordercolor="#666666"
     borderopacity="1"
     objecttolerance="10"
     gridtolerance="10"
     guidetolerance="10"
     inkscape:pageopacity="0"
     inkscape:pageshadow="2"
     inkscape:window-width="640"
     inkscape:window-height="480"
     id="namedview6"
     showgrid="false"
     inkscape:zoom="18.25"
     inkscape:cx="-1.260274"
     inkscape:cy="7.5616438"
     inkscape:current-layer="svg4" />
  <path
     style="line-height:normal;font-variant-ligatures:normal;font-variant-position:normal;font-variant-caps:normal;font-variant-numeric:normal;font-variant-alternates:normal;font-feature-settings:normal;text-indent:0;text-align:start;text-decoration-line:none;text-decoration-style:solid;text-decoration-color:#000;text-transform:none;text-orientation:mixed;shape-padding:0;isolation:auto;mix-blend-mode:normal;marker:none;fill:#dfdfdf;fill-opacity:1"
     d="M 3 0 L 3 4.0253906 C 2.25 4.0433906 1.5905 4.0947656 1.0625 4.3847656 A 1.88 1.88 0 0 0 0.22460938 5.3828125 C 0.059609375 5.8218125 1.8503717e-17 6.343 0 7 L 0 10 C 0 10.658 0.059609375 11.179188 0.22460938 11.617188 C 0.38860938 12.056188 0.6855 12.407234 1.0625 12.615234 C 1.3445 12.771234 1.662 12.849344 2 12.902344 L 2 11.876953 A 1.627 1.627 0 0 1 1.5449219 11.738281 C 1.3619219 11.638281 1.2581562 11.525625 1.1601562 11.265625 C 1.0631563 11.005625 1 10.592 1 10 L 1 7 C 1 6.408 1.0631563 5.994375 1.1601562 5.734375 C 1.2581563 5.474375 1.3619219 5.3627188 1.5449219 5.2617188 C 1.9099219 5.0597188 2.74 5.015 4 5 L 12 5 C 13.259 5.015 14.087125 5.0597187 14.453125 5.2617188 C 14.637125 5.3627187 14.742844 5.475375 14.839844 5.734375 C 14.936844 5.994375 15 6.408 15 7 L 15 10 C 15 10.592 14.936844 11.005625 14.839844 11.265625 C 14.741844 11.525625 14.637125 11.637281 14.453125 11.738281 C 14.346125 11.798281 14.186 11.841953 14 11.876953 L 14 12.902344 C 14.338 12.849344 14.6545 12.772234 14.9375 12.615234 A 1.88 1.88 0 0 0 15.775391 11.617188 C 15.940391 11.179188 16 10.657 16 10 L 16 7 C 16 6.342 15.940391 5.8218125 15.775391 5.3828125 A 1.88 1.88 0 0 0 14.9375 4.3847656 C 14.4115 4.0947656 13.75 4.0433906 13 4.0253906 L 13 0 L 3 0 z M 4 1 L 12 1 L 12 4 L 4 4 L 4 1 z "
     id="path825" />
  <path
     style="line-height:normal;font-variant-ligatures:normal;font-variant-position:normal;font-variant-caps:normal;font-variant-numeric:normal;font-variant-alternates:normal;font-feature-settings:normal;text-indent:0;text-align:start;text-decoration-line:none;text-decoration-style:solid;text-decoration-color:#000;text-transform:none;text-orientation:mixed;shape-padding:0;isolation:auto;mix-blend-mode:normal;marker:none;fill:#dfdfdf;fill-opacity:1"
     d="m 13.5,6 a 0.5,0.5 0 1 0 0,1 0.5,0.5 0 0 0 0,-1 z"
     id="path821" />
  <path
     style="line-height:normal;font-variant-ligatures:normal;font-variant-position:normal;font-variant-caps:normal;font-variant-numeric:normal;font-variant-alternates:normal;font-feature-settings:normal;text-indent:0;text-align:start;text-decoration-line:none;text-decoration-style:solid;text-decoration-color:#000;text-transform:none;text-orientation:mixed;shape-padding:0;isolation:auto;mix-blend-mode:normal;marker:none;fill:#dfdfdf;fill-opacity:1"
     d="m 7,9 v 2 H 6 l 2,3 2,-3 H 9 V 9 Z"
     id="path819" />
  <path
     style="line-height:normal;font-variant-ligatures:normal;font-variant-position:normal;font-variant-caps:normal;font-variant-numeric:normal;font-variant-alternates:normal;font-feature-settings:normal;text-indent:0;text-align:start;text-decoration-line:none;text-decoration-style:solid;text-decoration-color:#000;text-transform:none;text-orientation:mixed;shape-padding:0;isolation:auto;mix-blend-mode:normal;marker:none;fill:#dfdfdf;fill-opacity:1"
     d="m 3,10 v 6 h 10 v -6 h -1 v 5 H 4 v -5 z"
     id="path2" />
</svg>
