<?xml version="1.0" encoding="UTF-8" standalone="no"?>
<svg
   xmlns:dc="http://purl.org/dc/elements/1.1/"
   xmlns:cc="http://creativecommons.org/ns#"
   xmlns:rdf="http://www.w3.org/1999/02/22-rdf-syntax-ns#"
   xmlns:svg="http://www.w3.org/2000/svg"
   xmlns="http://www.w3.org/2000/svg"
   xmlns:sodipodi="http://sodipodi.sourceforge.net/DTD/sodipodi-0.dtd"
   xmlns:inkscape="http://www.inkscape.org/namespaces/inkscape"
   height="16"
   width="16"
   version="1.1"
   id="svg6"
   sodipodi:docname="process-working.svg"
   inkscape:version="0.92.3 (2405546, 2018-03-11)">
  <metadata
     id="metadata12">
    <rdf:RDF>
      <cc:Work
         rdf:about="">
        <dc:format>image/svg+xml</dc:format>
        <dc:type
           rdf:resource="http://purl.org/dc/dcmitype/StillImage" />
      </cc:Work>
    </rdf:RDF>
  </metadata>
  <defs
     id="defs10" />
  <sodipodi:namedview
     pagecolor="#ffffff"
     bordercolor="#666666"
     borderopacity="1"
     objecttolerance="10"
     gridtolerance="10"
     guidetolerance="10"
     inkscape:pageopacity="0"
     inkscape:pageshadow="2"
     inkscape:window-width="640"
     inkscape:window-height="480"
     id="namedview8"
     showgrid="false"
     inkscape:zoom="18.25"
     inkscape:cx="-1.260274"
     inkscape:cy="7.5616438"
     inkscape:current-layer="svg6" />
  <path
     inkscape:connector-curvature="0"
     id="path2"
     style="color:#000000;font-weight:400;line-height:normal;font-family:sans-serif;font-variant-ligatures:normal;font-variant-position:normal;font-variant-caps:normal;font-variant-numeric:normal;font-variant-alternates:normal;font-feature-settings:normal;text-indent:0;text-align:start;text-decoration:none;text-decoration-line:none;text-decoration-style:solid;text-decoration-color:#000000;text-transform:none;text-orientation:mixed;white-space:normal;shape-padding:0;overflow:visible;isolation:auto;mix-blend-mode:normal;fill:#dfdfdf;fill-opacity:1"
     overflow="visible"
     font-weight="400"
     d="M 3,7 A 1,1 0 0 0 2,8 1,1 0 0 0 2.01,8.096 c 0.026,1.588 0.697,3.156 1.856,4.248 1.097,1.06 2.614,1.643 4.134,1.648 V 13.78 A 5.423,5.423 0 0 1 6.04,13.435 C 5.844,13.301 5.566,13.245 5.354,13.112 4.392,12.615 3.556,11.842 3.036,10.894 c 0,-0.064 0.06,0.02 0.053,0.044 a 5.577,5.577 0 0 0 2.96,2.424 c 0.17,-0.012 0.34,0.125 0.514,0.14 0.468,0.127 0.953,0.189 1.438,0.19 V 13.534 A 5.222,5.222 0 0 1 6.124,13.2 C 5.937,13.071 5.672,13.018 5.469,12.89 4.551,12.414 3.749,11.676 3.253,10.769 c -0.01,-0.064 0.056,0.015 0.05,0.043 a 5.36,5.36 0 0 0 2.827,2.316 c 0.146,-0.032 0.298,0.112 0.449,0.12 0.462,0.128 0.942,0.193 1.422,0.194 V 13.286 A 4.97,4.97 0 0 1 6.206,12.964 c -0.198,-0.126 -0.464,-0.19 -0.674,-0.32 -0.854,-0.455 -1.599,-1.15 -2.062,-2 -0.01,-0.063 0.059,0.016 0.049,0.04 0.6,1.019 1.582,1.832 2.695,2.208 0.142,-0.024 0.284,0.106 0.43,0.115 0.44,0.123 0.9,0.186 1.357,0.187 v -0.16 A 4.72,4.72 0 0 1 6.292,12.73 C 6.105,12.607 5.849,12.549 5.649,12.423 4.836,11.99 4.125,11.328 3.685,10.519 c -0.01,-0.061 0.059,0.013 0.05,0.039 a 4.827,4.827 0 0 0 2.567,2.1 c 0.136,-0.026 0.273,0.1 0.412,0.109 0.42,0.117 0.853,0.176 1.287,0.177 V 12.786 A 4.386,4.386 0 0 1 6.384,12.493 C 6.164,12.379 5.905,12.295 5.684,12.161 4.945,11.75 4.297,11.138 3.894,10.394 c 0,-0.056 0.068,-0.002 0.057,0.035 a 4.577,4.577 0 0 0 2.443,1.994 c 0.141,-0.026 0.287,0.105 0.432,0.113 0.383,0.103 0.78,0.153 1.176,0.154 V 12.538 A 4.23,4.23 0 0 1 6.47,12.261 C 6.278,12.153 6.041,12.086 5.845,11.966 5.128,11.576 4.499,10.987 4.111,10.269 4.101,10.212 4.177,10.268 4.166,10.302 a 4.325,4.325 0 0 0 2.309,1.885 c 0.122,-0.032 0.248,0.092 0.375,0.097 0.374,0.105 0.763,0.157 1.152,0.158 V 12.288 A 3.969,3.969 0 0 1 6.552,12.024 C 6.373,11.92 6.149,11.859 5.965,11.745 5.289,11.377 4.693,10.822 4.328,10.144 c -0.01,-0.055 0.065,-0.003 0.055,0.03 0.485,0.821 1.277,1.48 2.174,1.778 0.104,-0.037 0.213,0.08 0.32,0.082 0.365,0.106 0.745,0.158 1.125,0.16 V 12.003 C 6.672,12.001 5.356,11.299 4.645,10.165 A 3.936,3.936 0 0 1 4,8 1,1 0 0 0 3,7 Z m 6.051,4.92 0.035,0.137 0.01,-0.002 c 0,-0.072 -0.016,-0.11 -0.041,-0.135 z m 0.09,0.336 0.01,0.039 0.01,-0.002 c 0,-0.021 -0.012,-0.022 -0.016,-0.037 z m 0.065,0.244 0.01,0.037 c 0,0 0.01,0 0.01,-0.002 0,-0.02 -0.014,-0.02 -0.018,-0.035 z m 0.066,0.248 0.01,0.031 0.01,-0.002 c 0,-0.017 -0.013,-0.016 -0.016,-0.029 z M 9.34,13 9.35,13.02 C 9.35,13.008 9.34,13.01 9.34,13 Z m 0.065,0.244 0.01,0.016 c 0,-0.01 -0.01,-0.007 -0.01,-0.016 z m 0.045,0.168 0.025,0.09 a 0.144,0.144 0 0 0 -0.029,-0.09 z m 0.07,0.26 0.012,0.043 c 0,-0.016 0,-0.029 -0.012,-0.043 z m -0.051,0.14 a 6,6 0 0 1 -0.35,0.077 c 0.047,-0.01 0.094,-0.012 0.141,-0.022 a 0.25,0.25 0 0 0 0.209,-0.054 z m -0.72,0.135 A 6,6 0 0 1 8.434,13.98 c 0.105,-0.007 0.21,-0.02 0.314,-0.033 z M 8.049,2.004 A 5.815,5.815 0 0 0 6.225,2.27 C 4.79,2.702 3.557,3.71 2.807,5 L 2.994,5.11 C 3.33,4.529 3.754,4 4.276,3.582 4.489,3.479 4.677,3.267 4.899,3.15 5.809,2.566 6.897,2.227 7.979,2.252 8.037,2.281 7.932,2.296 7.913,2.275 6.613,2.288 5.305,2.776 4.335,3.629 4.261,3.782 4.056,3.861 3.955,4.004 3.612,4.347 3.317,4.735 3.073,5.154 L 3.21,5.232 A 5.12,5.12 0 0 1 4.442,3.773 C 4.657,3.657 4.855,3.452 5.082,3.33 5.943,2.792 6.964,2.48 7.979,2.504 8.039,2.531 7.939,2.544 7.917,2.525 a 5.362,5.362 0 0 0 -3.42,1.29 C 4.452,3.957 4.25,4.018 4.169,4.145 3.826,4.481 3.532,4.865 3.29,5.279 L 3.425,5.357 C 3.732,4.827 4.124,4.345 4.601,3.963 4.809,3.854 4.999,3.657 5.218,3.541 6.039,3.029 7.012,2.73 7.98,2.754 8.038,2.778 7.937,2.798 7.919,2.777 A 5.074,5.074 0 0 0 4.661,4.007 C 4.611,4.143 4.425,4.201 4.344,4.322 4.017,4.642 3.734,5.008 3.504,5.404 L 3.641,5.482 A 4.708,4.708 0 0 1 4.761,4.156 C 4.961,4.055 5.14,3.862 5.348,3.752 6.13,3.264 7.06,2.98 7.981,3.004 8.038,3.027 7.941,3.046 7.922,3.025 A 4.828,4.828 0 0 0 4.821,4.199 C 4.775,4.329 4.596,4.386 4.52,4.502 4.209,4.806 3.94,5.153 3.721,5.529 L 3.86,5.609 C 4.138,5.131 4.49,4.694 4.922,4.353 5.157,4.197 5.388,3.997 5.647,3.861 6.353,3.459 7.173,3.223 7.985,3.246 8.035,3.27 7.954,3.306 7.925,3.277 A 4.579,4.579 0 0 0 4.976,4.397 C 4.928,4.531 4.744,4.591 4.664,4.713 4.383,4.993 4.139,5.313 3.939,5.656 L 4.074,5.732 A 4.221,4.221 0 0 1 5.08,4.542 C 5.27,4.43 5.447,4.26 5.648,4.15 6.345,3.724 7.168,3.474 7.984,3.498 8.037,3.521 7.954,3.556 7.929,3.529 6.918,3.539 5.893,3.918 5.142,4.584 5.108,4.706 4.938,4.754 4.871,4.861 A 4.37,4.37 0 0 0 4.156,5.781 L 4.285,5.855 C 4.535,5.426 4.855,5.037 5.244,4.732 5.424,4.629 5.59,4.465 5.781,4.363 6.438,3.962 7.216,3.724 7.986,3.748 8.038,3.77 7.956,3.805 7.931,3.779 6.978,3.789 6.009,4.146 5.302,4.773 5.227,4.951 4.981,5.038 4.88,5.211 4.687,5.423 4.52,5.658 4.374,5.906 L 4.538,6.002 C 5.232,4.8 6.58,3.997 7.976,4.002 A 3.987,3.987 0 0 1 9.997,4.537 V 4.535 A 1,1 0 0 0 11.363,4.17 1,1 0 0 0 10.997,2.804 1,1 0 0 0 10.917,2.764 6.116,6.116 0 0 0 8.05,2.004 Z M 2.561,5.484 A 5.472,5.472 0 0 0 2.444,5.752 6,6 0 0 1 2.561,5.484 Z M 2.293,6.172 c -0.016,0.05 -0.038,0.099 -0.053,0.15 -0.01,0.008 10e-4,0.012 0,0.02 a 6,6 0 0 1 0.055,-0.17 z m 0.01,0.3 c 0.014,0.005 0.024,0.013 0.04,0.012 z M 2.5,6.525 V 6.527 A 0.183,0.183 0 0 0 2.59,6.551 Z M 2.743,6.59 v 0.004 c 0.01,0.003 0.01,-0.003 0.014,0 z M 2.985,6.656 V 6.66 c 0.01,0.006 0.014,-0.004 0.023,0 z M 3.227,6.721 V 6.725 C 3.238,6.731 3.241,6.723 3.25,6.727 Z m 0.242,0.064 v 0.006 c 0.017,0.01 0.023,0 0.037,0.004 z M 3.711,6.85 v 0.006 a 0.166,0.166 0 0 0 0.096,0.02 z M 3.948,6.914 V 6.92 c 0.03,0.018 0.045,0.006 0.068,0.012 z m 7.9,-2.766 c 0,0.003 0,0.007 -0.01,0.01 L 11.848,4.15 Z M 11.67,4.324 c -0.01,0.005 0,0.01 -0.01,0.016 L 11.672,4.328 V 4.324 Z m 1.072,0.008 a 6,6 0 0 1 0.094,0.13 c -0.03,-0.044 -0.06,-0.088 -0.094,-0.13 z m -1.25,0.17 c -0.01,0.006 0,0.012 -0.012,0.018 L 11.494,4.506 V 4.502 Z m -0.183,0.176 c -0.03,0.017 -0.026,0.035 -0.04,0.053 l 0.046,-0.045 c 0,-0.002 0,-0.006 -0.01,-0.008 z m -0.176,0.178 a 0.153,0.153 0 0 0 -0.064,0.076 l 0.07,-0.07 c 0,-0.002 0,-0.004 -0.01,-0.006 z m 2.06,0.146 -0.189,0.11 C 13.34,5.693 13.587,6.325 13.688,6.987 13.67,7.222 13.76,7.491 13.75,7.74 13.8,8.822 13.55,9.933 12.988,10.858 12.932,10.89 12.973,10.796 13,10.789 13.64,9.658 13.87,8.281 13.617,7.014 13.521,6.874 13.555,6.656 13.482,6.498 A 5.605,5.605 0 0 0 12.928,5.154 l -0.139,0.08 a 5.12,5.12 0 0 1 0.648,1.8 c -0.01,0.244 0.073,0.52 0.065,0.777 0.036,1.014 -0.205,2.055 -0.733,2.922 -0.051,0.04 -0.016,-0.058 0.012,-0.067 A 5.36,5.36 0 0 0 13.375,7.061 C 13.274,6.951 13.323,6.745 13.254,6.611 A 5.365,5.365 0 0 0 12.711,5.279 l -0.139,0.08 c 0.306,0.532 0.528,1.112 0.621,1.717 -0.01,0.235 0.068,0.497 0.061,0.745 0.033,0.967 -0.196,1.96 -0.701,2.787 -0.049,0.04 -0.017,-0.06 0.01,-0.065 0.582,-1.03 0.795,-2.285 0.565,-3.437 -0.092,-0.111 -0.05,-0.3 -0.116,-0.43 A 5.121,5.121 0 0 0 12.495,5.405 l -0.137,0.08 a 4.71,4.71 0 0 1 0.59,1.634 c -0.012,0.224 0.064,0.474 0.055,0.71 0.032,0.92 -0.185,1.868 -0.666,2.654 -0.048,0.039 -0.018,-0.055 0.01,-0.06 C 12.9,9.442 13.101,8.245 12.88,7.149 12.79,7.044 12.833,6.861 12.77,6.737 A 4.855,4.855 0 0 0 12.28,5.53 l -0.138,0.08 c 0.276,0.48 0.477,1.003 0.556,1.549 0.021,0.298 0.077,0.618 0.062,0.927 -0.013,0.796 -0.22,1.603 -0.636,2.28 -0.05,0.028 -0.035,-0.057 0,-0.067 A 4.577,4.577 0 0 0 12.628,7.186 C 12.536,7.076 12.576,6.886 12.51,6.756 A 4.606,4.606 0 0 0 12.055,5.659 L 11.92,5.737 c 0.263,0.455 0.455,0.953 0.528,1.47 0.036,0.362 0.083,0.744 0.049,1.116 -0.05,0.67 -0.239,1.347 -0.594,1.918 -0.044,0.037 -0.036,-0.057 0,-0.065 C 12.4,9.296 12.585,8.218 12.383,7.235 12.295,7.145 12.337,6.973 12.278,6.862 A 4.387,4.387 0 0 0 11.841,5.783 l -0.13,0.075 c 0.247,0.43 0.421,0.902 0.49,1.39 0,0.208 0.06,0.434 0.054,0.65 0.019,0.77 -0.165,1.563 -0.57,2.217 -0.043,0.037 -0.035,-0.052 0,-0.062 C 12.153,9.223 12.328,8.205 12.138,7.28 12.021,7.126 12.072,6.867 11.972,6.694 A 4.07,4.07 0 0 0 11.62,5.91 l -0.164,0.096 c 0.704,1.219 0.716,2.813 -0.014,4.025 a 3.995,3.995 0 0 1 -1.445,1.434 1,1 0 0 0 -0.363,1.365 1,1 0 0 0 1.363,0.367 1,1 0 0 0 0,-0.002 1,1 0 0 0 0.019,-0.011 l 0.04,-0.026 a 1,1 0 0 0 0.015,-0.01 c 1.4,-0.838 2.44,-2.259 2.783,-3.859 0.33,-1.447 0.074,-3.004 -0.66,-4.287 z m -2.236,0.03 c -0.037,0.02 -0.036,0.043 -0.053,0.064 l 0.06,-0.059 c 0,-0.002 0,-0.004 -0.01,-0.006 z" />
</svg>
