<?xml version="1.0" encoding="UTF-8" standalone="no"?>
<svg
   xmlns:dc="http://purl.org/dc/elements/1.1/"
   xmlns:cc="http://creativecommons.org/ns#"
   xmlns:rdf="http://www.w3.org/1999/02/22-rdf-syntax-ns#"
   xmlns:svg="http://www.w3.org/2000/svg"
   xmlns="http://www.w3.org/2000/svg"
   xmlns:sodipodi="http://sodipodi.sourceforge.net/DTD/sodipodi-0.dtd"
   xmlns:inkscape="http://www.inkscape.org/namespaces/inkscape"
   height="16"
   width="16"
   version="1.1"
   id="svg8"
   sodipodi:docname="rotation-allowed.svg"
   inkscape:version="0.92.3 (2405546, 2018-03-11)">
  <metadata
     id="metadata14">
    <rdf:RDF>
      <cc:Work
         rdf:about="">
        <dc:format>image/svg+xml</dc:format>
        <dc:type
           rdf:resource="http://purl.org/dc/dcmitype/StillImage" />
      </cc:Work>
    </rdf:RDF>
  </metadata>
  <defs
     id="defs12" />
  <sodipodi:namedview
     pagecolor="#ffffff"
     bordercolor="#666666"
     borderopacity="1"
     objecttolerance="10"
     gridtolerance="10"
     guidetolerance="10"
     inkscape:pageopacity="0"
     inkscape:pageshadow="2"
     inkscape:window-width="640"
     inkscape:window-height="480"
     id="namedview10"
     showgrid="false"
     inkscape:zoom="18.25"
     inkscape:cx="-1.260274"
     inkscape:cy="7.5616438"
     inkscape:current-layer="svg8" />
  <path
     style="fill:#dfdfdf;fill-opacity:1"
     inkscape:connector-curvature="0"
     id="path2"
     d="M 5.545,1.451 A 6.996,6.996 0 0 0 1,8 7,7 0 0 0 4.969,14.303 L 4.2,15.502 c 0.662,0.094 1.352,0.168 2.069,0.219 0.711,0.047 1.41,0.073 2.095,0.078 A 34.483,34.483 0 0 0 6.36,12.135 v 0 L 5.515,13.453 A 6,6 0 0 1 2,8 C 2,5.428 3.62,3.24 5.895,2.387 Z m 2.09,-1.25 A 34.483,34.483 0 0 0 9.639,3.865 H 9.641 L 10.486,2.547 A 6,6 0 0 1 14,8 c 0,2.572 -1.62,4.76 -3.894,5.613 l 0.35,0.936 A 6.996,6.996 0 0 0 15,8 7,7 0 0 0 11.031,1.697 L 11.8,0.498 A 29.564,29.564 0 0 0 9.73,0.28 35.233,35.233 0 0 0 7.635,0.201 Z" />
  <path
     style="opacity:0.5;fill:#dfdfdf;fill-opacity:1"
     inkscape:connector-curvature="0"
     id="path4"
     d="M 8,4 C 6.892,4 6,4.892 6,6 V 7 H 5 v 4 h 6 V 7 H 10 V 6 C 10,4.892 9.108,4 8,4 Z M 8,5 C 8.554,5 9,5.446 9,6 V 7 H 7 V 6 C 7,5.446 7.446,5 8,5 Z" />
</svg>
