<?xml version="1.0" encoding="UTF-8" standalone="no"?>
<svg
   xmlns:dc="http://purl.org/dc/elements/1.1/"
   xmlns:cc="http://creativecommons.org/ns#"
   xmlns:rdf="http://www.w3.org/1999/02/22-rdf-syntax-ns#"
   xmlns:svg="http://www.w3.org/2000/svg"
   xmlns="http://www.w3.org/2000/svg"
   xmlns:sodipodi="http://sodipodi.sourceforge.net/DTD/sodipodi-0.dtd"
   xmlns:inkscape="http://www.inkscape.org/namespaces/inkscape"
   height="16"
   width="16"
   version="1.1"
   id="svg4"
   sodipodi:docname="semi-starred.svg"
   inkscape:version="0.92.3 (2405546, 2018-03-11)">
  <metadata
     id="metadata10">
    <rdf:RDF>
      <cc:Work
         rdf:about="">
        <dc:format>image/svg+xml</dc:format>
        <dc:type
           rdf:resource="http://purl.org/dc/dcmitype/StillImage" />
      </cc:Work>
    </rdf:RDF>
  </metadata>
  <defs
     id="defs8" />
  <sodipodi:namedview
     pagecolor="#ffffff"
     bordercolor="#666666"
     borderopacity="1"
     objecttolerance="10"
     gridtolerance="10"
     guidetolerance="10"
     inkscape:pageopacity="0"
     inkscape:pageshadow="2"
     inkscape:window-width="640"
     inkscape:window-height="480"
     id="namedview6"
     showgrid="false"
     inkscape:zoom="18.25"
     inkscape:cx="-1.260274"
     inkscape:cy="7.5616438"
     inkscape:current-layer="svg4" />
  <path
     style="marker:none;fill:#dfdfdf;fill-opacity:1"
     d="M 8 1.0019531 C 7.175 2.7439531 6.5088594 4.636875 6.1308594 5.796875 C 4.9408594 5.799875 2.9859063 5.8487969 1.0039062 6.0917969 L 1.0039062 6.09375 L 1.0019531 6.0957031 L 1 6.0957031 L 0.99804688 6.0976562 C 2.4000469 7.4226562 3.9964219 8.6404219 4.9824219 9.3574219 C 4.6184219 10.489422 4.0587344 12.364219 3.6777344 14.324219 L 3.6796875 14.326172 L 3.6796875 14.332031 C 5.3726875 13.409031 7.0276719 12.266781 8.0136719 11.550781 C 8.9786719 12.247781 10.588938 13.356219 12.335938 14.324219 L 12.34375 14.324219 C 11.98875 12.428219 11.411156 10.505703 11.035156 9.3457031 C 11.996156 8.6437031 13.548766 7.45475 15.009766 6.09375 L 15.009766 6.0917969 L 15.011719 6.0898438 L 15.011719 6.0878906 L 15.013672 6.0859375 C 13.100672 5.8379375 11.093047 5.7900625 9.8730469 5.7890625 C 9.5030469 4.6590625 8.8498125 2.8158594 8.0078125 1.0058594 L 8.0058594 1.0039062 L 8.0039062 1.0019531 L 8 1.0019531 z M 8.0019531 3.7441406 C 8.3139531 4.5641406 8.738875 5.5435625 8.921875 6.1015625 L 9.1484375 6.7890625 L 9.8710938 6.7910156 C 10.475094 6.7910156 11.519297 6.8935469 12.404297 6.9355469 C 11.720297 7.4855469 10.920312 8.1920625 10.445312 8.5390625 L 9.8613281 8.9667969 L 10.083984 9.6542969 C 10.269984 10.228297 10.496516 11.253422 10.728516 12.107422 C 9.9945156 11.627422 9.0736563 11.084234 8.5976562 10.740234 L 8.0117188 10.316406 L 8 10.324219 L 8 3.75 L 8.0019531 3.7441406 z "
     id="path819" />
</svg>
