<?xml version="1.0" encoding="UTF-8" standalone="no"?>
<svg
   xmlns:dc="http://purl.org/dc/elements/1.1/"
   xmlns:cc="http://creativecommons.org/ns#"
   xmlns:rdf="http://www.w3.org/1999/02/22-rdf-syntax-ns#"
   xmlns:svg="http://www.w3.org/2000/svg"
   xmlns="http://www.w3.org/2000/svg"
   xmlns:sodipodi="http://sodipodi.sourceforge.net/DTD/sodipodi-0.dtd"
   xmlns:inkscape="http://www.inkscape.org/namespaces/inkscape"
   height="16"
   width="16"
   version="1.1"
   id="svg4"
   sodipodi:docname="starred.svg"
   inkscape:version="0.92.3 (2405546, 2018-03-11)">
  <metadata
     id="metadata10">
    <rdf:RDF>
      <cc:Work
         rdf:about="">
        <dc:format>image/svg+xml</dc:format>
        <dc:type
           rdf:resource="http://purl.org/dc/dcmitype/StillImage" />
      </cc:Work>
    </rdf:RDF>
  </metadata>
  <defs
     id="defs8" />
  <sodipodi:namedview
     pagecolor="#ffffff"
     bordercolor="#666666"
     borderopacity="1"
     objecttolerance="10"
     gridtolerance="10"
     guidetolerance="10"
     inkscape:pageopacity="0"
     inkscape:pageshadow="2"
     inkscape:window-width="640"
     inkscape:window-height="480"
     id="namedview6"
     showgrid="false"
     inkscape:zoom="18.25"
     inkscape:cx="-10.520548"
     inkscape:cy="7.1232876"
     inkscape:current-layer="svg4" />
  <path
     style="marker:none;fill:#dfdfdf;fill-opacity:1"
     d="M 8,1 7.998,1.001 7.997,1.003 7.995,1.004 7.993,1.006 C 7.15,2.816 6.498,4.66 6.127,5.79 4.908,5.79 2.901,5.837 0.987,6.085 V 6.087 L 0.988,6.089 0.989,6.091 0.99,6.092 c 1.46,1.362 3.014,2.551 3.975,3.253 -0.376,1.16 -0.953,3.084 -1.308,4.98 h 0.008 c 1.746,-0.969 3.358,-2.078 4.322,-2.775 0.987,0.716 2.639,1.859 4.333,2.783 v -0.002 -0.002 -0.002 l 10e-4,-0.002 C 11.94,12.365 11.383,10.489 11.018,9.357 12.004,8.64 13.601,7.422 15.003,6.097 L 15,6.096 H 14.998 L 14.996,6.094 14.995,6.092 C 13.012,5.85 11.057,5.8 9.867,5.797 9.491,4.637 8.826,2.743 7.998,1 Z"
     id="path2" />
</svg>
