<?xml version="1.0" encoding="UTF-8" standalone="no"?>
<svg
   xmlns:dc="http://purl.org/dc/elements/1.1/"
   xmlns:cc="http://creativecommons.org/ns#"
   xmlns:rdf="http://www.w3.org/1999/02/22-rdf-syntax-ns#"
   xmlns:svg="http://www.w3.org/2000/svg"
   xmlns="http://www.w3.org/2000/svg"
   xmlns:sodipodi="http://sodipodi.sourceforge.net/DTD/sodipodi-0.dtd"
   xmlns:inkscape="http://www.inkscape.org/namespaces/inkscape"
   height="16"
   width="16"
   version="1.1"
   id="svg8"
   sodipodi:docname="dialog-information.svg"
   inkscape:version="0.92.3 (2405546, 2018-03-11)">
  <metadata
     id="metadata14">
    <rdf:RDF>
      <cc:Work
         rdf:about="">
        <dc:format>image/svg+xml</dc:format>
        <dc:type
           rdf:resource="http://purl.org/dc/dcmitype/StillImage" />
      </cc:Work>
    </rdf:RDF>
  </metadata>
  <defs
     id="defs12" />
  <sodipodi:namedview
     pagecolor="#ffffff"
     bordercolor="#666666"
     borderopacity="1"
     objecttolerance="10"
     gridtolerance="10"
     guidetolerance="10"
     inkscape:pageopacity="0"
     inkscape:pageshadow="2"
     inkscape:window-width="640"
     inkscape:window-height="480"
     id="namedview10"
     showgrid="false"
     inkscape:zoom="18.25"
     inkscape:cx="-1.9726027"
     inkscape:cy="7.5616438"
     inkscape:current-layer="svg8" />
  <path
     style="fill:#dfdfdf;fill-opacity:1"
     d="M 8 0 A 8 8 0 0 0 0 8 A 8 8 0 0 0 8 16 A 8 8 0 0 0 16 8 A 8 8 0 0 0 8 0 z M 8 1 A 7 7 0 0 1 15 8 A 7 7 0 0 1 8 15 A 7 7 0 0 1 1 8 A 7 7 0 0 1 8 1 z "
     id="path825" />
  <path
     inkscape:connector-curvature="0"
     id="path4"
     word-spacing="0"
     letter-spacing="0"
     font-weight="400"
     style="font-weight:400;line-height:1000%;font-family:Ubuntu;-inkscape-font-specification:Ubuntu;letter-spacing:0;word-spacing:0;fill:#dfdfdf;fill-opacity:1"
     d="M 8,3.75 C 7.614,3.75 7.31,3.874 7.086,4.123 A 1.27,1.27 0 0 0 6.75,5 c 0,0.336 0.112,0.628 0.336,0.877 C 7.31,6.126 7.614,6.25 8,6.25 8.386,6.25 8.69,6.126 8.914,5.877 A 1.27,1.27 0 0 0 9.25,5 1.27,1.27 0 0 0 8.914,4.123 C 8.69,3.874 8.386,3.75 8,3.75 Z M 7,7 v 5 H 9 V 7 Z" />
</svg>
