<?xml version="1.0" encoding="UTF-8" standalone="no"?>
<svg
   xmlns:dc="http://purl.org/dc/elements/1.1/"
   xmlns:cc="http://creativecommons.org/ns#"
   xmlns:rdf="http://www.w3.org/1999/02/22-rdf-syntax-ns#"
   xmlns:svg="http://www.w3.org/2000/svg"
   xmlns="http://www.w3.org/2000/svg"
   xmlns:sodipodi="http://sodipodi.sourceforge.net/DTD/sodipodi-0.dtd"
   xmlns:inkscape="http://www.inkscape.org/namespaces/inkscape"
   height="16"
   width="16"
   version="1.1"
   id="svg6"
   sodipodi:docname="task-past-due.svg"
   inkscape:version="0.92.3 (2405546, 2018-03-11)">
  <metadata
     id="metadata12">
    <rdf:RDF>
      <cc:Work
         rdf:about="">
        <dc:format>image/svg+xml</dc:format>
        <dc:type
           rdf:resource="http://purl.org/dc/dcmitype/StillImage" />
      </cc:Work>
    </rdf:RDF>
  </metadata>
  <defs
     id="defs10" />
  <sodipodi:namedview
     pagecolor="#ffffff"
     bordercolor="#666666"
     borderopacity="1"
     objecttolerance="10"
     gridtolerance="10"
     guidetolerance="10"
     inkscape:pageopacity="0"
     inkscape:pageshadow="2"
     inkscape:window-width="640"
     inkscape:window-height="480"
     id="namedview8"
     showgrid="false"
     inkscape:zoom="18.25"
     inkscape:cx="-1.260274"
     inkscape:cy="7.5616438"
     inkscape:current-layer="svg6" />
  <path
     style="line-height:normal;text-indent:0;text-align:start;text-decoration-line:none;text-decoration-style:solid;text-decoration-color:#000;text-transform:none;isolation:auto;mix-blend-mode:normal;marker:none;fill:#dfdfdf;fill-opacity:1"
     d="M 7.9921875 0 A 2.008 2.008 0 0 0 6 2 L 5 2 C 4.343 2 3.8218125 2.0596094 3.3828125 2.2246094 C 2.9438125 2.3886094 2.5927656 2.6855 2.3847656 3.0625 C 1.9697656 3.8145 2.015 4.7361406 2 5.9941406 L 2 11.005859 C 2.015 12.263859 1.9697656 13.1845 2.3847656 13.9375 C 2.5927656 14.3135 2.9448125 14.610391 3.3828125 14.775391 C 3.8218125 14.939391 4.343 15 5 15 L 8.7617188 15 A 4.5 4.5 0 0 1 8.2636719 14 L 5 14 C 4.408 14 3.994375 13.936844 3.734375 13.839844 C 3.474375 13.741844 3.3627188 13.637125 3.2617188 13.453125 C 3.0597188 13.087125 3.015 12.259 3 11 L 3 6 C 3.015 4.741 3.0597187 3.912875 3.2617188 3.546875 C 3.3627187 3.362875 3.474375 3.2571562 3.734375 3.1601562 C 3.994375 3.0621562 4.408 3 5 3 L 5 3.9980469 L 11 3.9980469 L 11 3 C 11.593 3 12.005625 3.0631563 12.265625 3.1601562 C 12.525625 3.2581562 12.636281 3.362875 12.738281 3.546875 C 12.939281 3.912875 12.986 4.741 13 6 L 13 8.03125 A 4.5 4.5 0 0 1 14 8.2636719 L 14 5.9941406 C 13.985 4.7361406 14.031234 3.8155 13.615234 3.0625 A 1.88 1.88 0 0 0 12.617188 2.2246094 C 12.179187 2.0596094 11.657 2 11 2 L 9.9960938 2 A 2.008 2.008 0 0 0 8.0039062 0 L 7.9921875 0 z M 8.0019531 1 L 8.0039062 1 C 8.561955 1.0010559 9.0019531 1.4426676 9.0019531 2 A 0.99 0.99 0 0 1 8.0019531 3 A 0.982 0.982 0 0 1 7.0800781 2.390625 A 1.01 1.01 0 0 1 7.0039062 2 C 7.0039062 1.4426676 7.4439044 1.0010559 8.0019531 1 z "
     id="path830" />
  <path
     style="line-height:normal;text-indent:0;text-align:start;text-decoration-line:none;text-decoration-style:solid;text-decoration-color:#000;text-transform:none;isolation:auto;mix-blend-mode:normal;marker:none;fill:#dfdfdf;fill-opacity:1"
     d="m 5,6 v 1 h 6.012 V 6 Z"
     id="path826" />
  <path
     style="line-height:normal;text-indent:0;text-align:start;text-decoration-line:none;text-decoration-style:solid;text-decoration-color:#000;text-transform:none;isolation:auto;mix-blend-mode:normal;marker:none;fill:#dfdfdf;fill-opacity:1"
     d="M 5,8 V 9 H 9.674 A 4.5,4.5 0 0 1 11.012,8.26 V 8 Z"
     id="path824" />
  <path
     style="line-height:normal;text-indent:0;text-align:start;text-decoration-line:none;text-decoration-style:solid;text-decoration-color:#000;text-transform:none;isolation:auto;mix-blend-mode:normal;marker:none;fill:#dfdfdf;fill-opacity:1"
     d="m 4.99,10 v 1 h 3 v -1 z"
     id="path2" />
  <path
     class="error"
     color="#000"
     d="M12.5 9A3.5 3.5 0 0 0 9 12.5a3.5 3.5 0 0 0 3.5 3.5 3.5 3.5 0 0 0 3.5-3.5A3.5 3.5 0 0 0 12.5 9zm-.5 1h1v1.168c0 .348-.016.667-.047.957-.03.29-.069.581-.115.875h-.666a12.898 12.898 0 0 1-.125-.875 9.146 9.146 0 0 1-.047-.957zm.5 4a.5.5 0 0 1 .5.5.5.5 0 0 1-.5.5.5.5 0 0 1-.5-.5.5.5 0 0 1 .5-.5z"
     fill="#f22c42"
     overflow="visible"
     style="marker:none"
     id="path4" />
</svg>
