<?xml version="1.0" encoding="UTF-8" standalone="no"?>
<svg
   xmlns:osb="http://www.openswatchbook.org/uri/2009/osb"
   xmlns:dc="http://purl.org/dc/elements/1.1/"
   xmlns:cc="http://creativecommons.org/ns#"
   xmlns:rdf="http://www.w3.org/1999/02/22-rdf-syntax-ns#"
   xmlns:svg="http://www.w3.org/2000/svg"
   xmlns="http://www.w3.org/2000/svg"
   xmlns:sodipodi="http://sodipodi.sourceforge.net/DTD/sodipodi-0.dtd"
   xmlns:inkscape="http://www.inkscape.org/namespaces/inkscape"
   height="16"
   id="svg7384"
   version="1.1"
   width="16"
   sodipodi:docname="volume-warning.svg"
   inkscape:version="0.92.3 (2405546, 2018-03-11)">
  <sodipodi:namedview
     pagecolor="#ffffff"
     bordercolor="#666666"
     borderopacity="1"
     objecttolerance="10"
     gridtolerance="10"
     guidetolerance="10"
     inkscape:pageopacity="0"
     inkscape:pageshadow="2"
     inkscape:window-width="640"
     inkscape:window-height="480"
     id="namedview22"
     showgrid="false"
     inkscape:zoom="18.25"
     inkscape:cx="-1.260274"
     inkscape:cy="7.5616438"
     inkscape:current-layer="svg7384" />
  <metadata
     id="metadata20854">
    <rdf:RDF>
      <cc:Work
         rdf:about="">
        <dc:title />
        <dc:format>image/svg+xml</dc:format>
        <dc:type
           rdf:resource="http://purl.org/dc/dcmitype/StillImage" />
      </cc:Work>
    </rdf:RDF>
  </metadata>
  <defs
     id="defs7386">
    <linearGradient
       id="linearGradient5606"
       osb:paint="solid">
      <stop
         id="stop5608"
         offset="0"
         style="stop-color:#000000;stop-opacity:1;" />
    </linearGradient>
    <linearGradient
       id="linearGradient4526"
       osb:paint="solid">
      <stop
         id="stop4528"
         offset="0"
         style="stop-color:#ffffff;stop-opacity:1;" />
    </linearGradient>
    <linearGradient
       id="linearGradient3600-4"
       osb:paint="gradient">
      <stop
         id="stop3602-7"
         offset="0"
         style="stop-color:#f4f4f4;stop-opacity:1" />
      <stop
         id="stop3604-6"
         offset="1"
         style="stop-color:#dbdbdb;stop-opacity:1" />
    </linearGradient>
  </defs>
  <path
     inkscape:connector-curvature="0"
     style="color:#000000;font-weight:400;line-height:normal;font-family:sans-serif;text-indent:0;text-align:start;text-decoration:none;text-decoration-line:none;text-decoration-style:solid;text-decoration-color:#000000;text-transform:none;white-space:normal;display:inline;overflow:visible;isolation:auto;mix-blend-mode:normal;fill:#fdc92b;fill-rule:evenodd;stroke:none"
     id="path2409"
     d="m 12.4805,9.72852 c -0.1497,0.007 -0.2866,0.0909 -0.3614,0.2207 L 9.0586,15.3457 C 8.892,15.63691 9.1016,15.99976 9.4375,16 h 6.125 c 0.3355,-2.4e-4 0.5455,-0.36309 0.3789,-0.6543 L 12.8828,9.94922 C 12.8008,9.80655 12.6448,9.72093 12.4805,9.72852 Z M 12,11 h 1 v 0.16797 c 0,0.34851 -0.016,0.6673 -0.047,0.95703 -0.031,0.28973 -0.069,0.58107 -0.1152,0.875 h -0.666 c -0.052,-0.29393 -0.094,-0.58527 -0.125,-0.875 -0.031,-0.29393 -0.047,-0.61271 -0.047,-0.95703 z m 0.5,3 C 12.7761,14 13,14.22386 13,14.5 13,14.77614 12.7761,15 12.5,15 12.2239,15 12,14.77614 12,14.5 12,14.22386 12.2239,14 12.5,14 Z"
     class="warning" />
  <path
     style="display:inline;fill:#dfdfdf;fill-opacity:1;stroke:none;stroke-width:4.36363602;stroke-miterlimit:4;stroke-dasharray:none"
     d="M 8,1.33398 4.5,5 H 1.8711 C 1.8711,5 1,5.89365 1,8.00195 1,10.1103 1.8711,11 1.8711,11 H 4.5 L 8,14.66602 Z"
     id="path835" />
  <path
     style="display:inline;fill:#dfdfdf;fill-opacity:1;stroke:none;stroke-width:4.36363602;stroke-miterlimit:4;stroke-dasharray:none"
     d="m 12.6445,2.80469 -0.707,0.70703 0.3535,0.35351 c 1.1254,1.12536 1.7578,2.6507 1.7578,4.24219 0,0.51608 -0.073,1.02289 -0.2011,1.51367 l 0.664,1.17188 c 0.3508,-0.84344 0.5371,-1.75442 0.5371,-2.68555 0,-1.85632 -0.7382,-3.6366 -2.0508,-4.94922 z"
     id="path833" />
  <path
     style="display:inline;fill:#dfdfdf;fill-opacity:1;stroke:none;stroke-width:4.36363602;stroke-miterlimit:4;stroke-dasharray:none"
     d="m 10.5234,4.92578 -0.707,0.70703 0.3535,0.35352 c 0.5628,0.56274 0.8789,1.32525 0.8789,2.12109 0,0.79584 -0.3161,1.55836 -0.8789,2.1211 l -0.3535,0.35351 0.5078,0.50781 0.9278,-1.63671 v -0.004 c 0.1653,-0.28707 0.4244,-0.49385 0.7246,-0.61133 0.045,-0.23976 0.072,-0.48318 0.072,-0.73047 0,-1.06067 -0.4219,-2.07813 -1.1719,-2.82813 z"
     id="path2418" />
</svg>
