<?xml version="1.0" encoding="UTF-8" standalone="no"?>
<svg
   xmlns:dc="http://purl.org/dc/elements/1.1/"
   xmlns:cc="http://creativecommons.org/ns#"
   xmlns:rdf="http://www.w3.org/1999/02/22-rdf-syntax-ns#"
   xmlns:svg="http://www.w3.org/2000/svg"
   xmlns="http://www.w3.org/2000/svg"
   xmlns:sodipodi="http://sodipodi.sourceforge.net/DTD/sodipodi-0.dtd"
   xmlns:inkscape="http://www.inkscape.org/namespaces/inkscape"
   height="16"
   width="16.002"
   version="1.1"
   id="svg4"
   sodipodi:docname="weather-fog.svg"
   inkscape:version="0.92.3 (2405546, 2018-03-11)">
  <metadata
     id="metadata10">
    <rdf:RDF>
      <cc:Work
         rdf:about="">
        <dc:format>image/svg+xml</dc:format>
        <dc:type
           rdf:resource="http://purl.org/dc/dcmitype/StillImage" />
      </cc:Work>
    </rdf:RDF>
  </metadata>
  <defs
     id="defs8" />
  <sodipodi:namedview
     pagecolor="#ffffff"
     bordercolor="#666666"
     borderopacity="1"
     objecttolerance="10"
     gridtolerance="10"
     guidetolerance="10"
     inkscape:pageopacity="0"
     inkscape:pageshadow="2"
     inkscape:window-width="640"
     inkscape:window-height="480"
     id="namedview6"
     showgrid="false"
     inkscape:zoom="18.25"
     inkscape:cx="-1.2592736"
     inkscape:cy="7.5616438"
     inkscape:current-layer="svg4" />
  <path
     style="line-height:normal;-inkscape-font-specification:sans-serif;text-indent:0;text-align:start;text-decoration-line:none;text-transform:none;marker:none;fill:#dfdfdf;fill-opacity:1"
     d="M 8.642,0.668 C 6.484,0.67 4.65,1.999 3.774,3.9 L 3.713,4.03 3.574,4.04 C 1.58,4.184 0.002,5.91 0.002,8.008 0.002,8.735 0.203,9.411 0.533,10 H 1.734 A 3.057,3.057 0 0 1 1.002,8.008 c 0,-1.597 1.184,-2.866 2.644,-2.973 L 4.369,4.985 4.679,4.322 V 4.318 C 5.408,2.738 6.892,1.669 8.64,1.668 11.008,1.67 12.932,3.62 13.045,6.115 v 0.01 l 0.05,0.776 0.704,0.296 a 1.944,1.944 0 0 1 1.195,1.815 C 15.004,10.126 14.148,11 13.123,11 H 0 v 1 h 13.122 c 1.591,0 2.877,-1.35 2.877,-2.988 A 2.958,2.958 0 0 0 14.194,6.277 L 14.057,6.219 14.047,6.07 C 13.912,3.077 11.561,0.67 8.643,0.668 Z"
     id="path821" />
  <path
     style="line-height:normal;-inkscape-font-specification:sans-serif;text-indent:0;text-align:start;text-decoration-line:none;text-transform:none;marker:none;fill:#dfdfdf;fill-opacity:1"
     d="m 0.002,13 v 1 h 16 v -1 z"
     id="path819" />
  <path
     style="line-height:normal;-inkscape-font-specification:sans-serif;text-indent:0;text-align:start;text-decoration-line:none;text-transform:none;marker:none;fill:#dfdfdf;fill-opacity:1"
     d="m 0.002,15 v 1 h 16 v -1 z"
     id="path2" />
</svg>
