<?xml version="1.0" encoding="UTF-8" standalone="no"?>
<svg
   xmlns:dc="http://purl.org/dc/elements/1.1/"
   xmlns:cc="http://creativecommons.org/ns#"
   xmlns:rdf="http://www.w3.org/1999/02/22-rdf-syntax-ns#"
   xmlns:svg="http://www.w3.org/2000/svg"
   xmlns="http://www.w3.org/2000/svg"
   xmlns:sodipodi="http://sodipodi.sourceforge.net/DTD/sodipodi-0.dtd"
   xmlns:inkscape="http://www.inkscape.org/namespaces/inkscape"
   height="16"
   width="16"
   version="1.1"
   id="svg8"
   sodipodi:docname="weather-snow.svg"
   inkscape:version="0.92.3 (2405546, 2018-03-11)">
  <metadata
     id="metadata14">
    <rdf:RDF>
      <cc:Work
         rdf:about="">
        <dc:format>image/svg+xml</dc:format>
        <dc:type
           rdf:resource="http://purl.org/dc/dcmitype/StillImage" />
      </cc:Work>
    </rdf:RDF>
  </metadata>
  <defs
     id="defs12" />
  <sodipodi:namedview
     pagecolor="#ffffff"
     bordercolor="#666666"
     borderopacity="1"
     objecttolerance="10"
     gridtolerance="10"
     guidetolerance="10"
     inkscape:pageopacity="0"
     inkscape:pageshadow="2"
     inkscape:window-width="640"
     inkscape:window-height="480"
     id="namedview10"
     showgrid="false"
     inkscape:zoom="18.25"
     inkscape:cx="-1.260274"
     inkscape:cy="7.5616438"
     inkscape:current-layer="svg8" />
  <path
     style="color:#000000;font-weight:400;line-height:normal;font-family:sans-serif;-inkscape-font-specification:sans-serif;text-indent:0;text-align:start;text-decoration:none;text-decoration-line:none;text-transform:none;overflow:visible;fill:#dfdfdf;marker:none;fill-opacity:1"
     d="M 8.5605469 0.083984375 C 6.6725469 0.084984375 5.0677812 1.2491094 4.3007812 2.9121094 L 4.2460938 3.0253906 L 4.125 3.0351562 C 2.38 3.1621562 1 4.6718125 1 6.5078125 C 1 8.4268125 2.5004219 10 4.3574219 10 L 12.482422 10 C 13.874422 10 15 8.8177656 15 7.3847656 C 15 6.2977656 14.346875 5.3851875 13.421875 4.9921875 L 13.300781 4.9414062 L 13.291016 4.8125 C 13.172016 2.1945 11.1155 0.085984375 8.5625 0.083984375 L 8.5605469 0.083984375 z M 8.5585938 1.0839844 L 8.5605469 1.0839844 C 10.564547 1.0849844 12.195016 2.7364219 12.291016 4.8574219 L 12.291016 4.8730469 L 12.351562 5.6210938 L 13.027344 5.9121094 L 13.027344 5.9140625 C 13.597344 6.1560625 14.001953 6.6997656 14.001953 7.3847656 C 14.001953 8.2947656 13.308422 9 12.482422 9 L 4.359375 9 C 3.068375 9 2 7.9048125 2 6.5078125 C 2 5.1738125 2.9872656 4.12025 4.1972656 4.03125 L 4.9023438 3.9824219 L 5.2070312 3.3339844 L 5.2070312 3.3320312 C 5.8250312 1.9890313 7.0795938 1.0849844 8.5585938 1.0839844 z "
     id="path831" />
  <path
     style="color:#000000;overflow:visible;fill:#dfdfdf;marker:none;fill-opacity:1"
     d="m 9,11.5 -1,0.2 v 1.234 L 6.845,12.267 6.345,13.133 7.5,13.8 6.345,14.467 6.845,15.333 8,14.666 V 16 h 1 v -1.334 l 1.155,0.667 0.5,-0.866 L 9.5,13.8 10.655,13.133 10.155,12.267 9,12.934 Z"
     id="path827" />
  <path
     style="color:#000000;overflow:visible;fill:#dfdfdf;marker:none;fill-opacity:1"
     d="m 4.484,10.901 -0.688,0.138 v 0.85 L 3,11.429 2.656,12.026 3.451,12.486 2.656,12.944 3,13.541 3.796,13.081 V 14 h 0.688 v -0.919 l 0.796,0.46 0.344,-0.597 -0.795,-0.459 0.795,-0.46 -0.344,-0.596 -0.796,0.46 z"
     id="path825" />
  <path
     style="color:#000000;overflow:visible;fill:#dfdfdf;marker:none;fill-opacity:1"
     d="m 13.5,10.443 -0.79,0.158 v 0.975 l -0.914,-0.527 -0.395,0.685 0.913,0.527 -0.913,0.527 0.395,0.685 0.914,-0.528 V 14 h 0.79 v -1.055 l 0.913,0.528 0.396,-0.685 -0.914,-0.527 0.914,-0.527 -0.396,-0.685 -0.913,0.527 z"
     id="path4" />
</svg>
