<?xml version="1.0" encoding="UTF-8" standalone="no"?>
<svg
   xmlns:dc="http://purl.org/dc/elements/1.1/"
   xmlns:cc="http://creativecommons.org/ns#"
   xmlns:rdf="http://www.w3.org/1999/02/22-rdf-syntax-ns#"
   xmlns:svg="http://www.w3.org/2000/svg"
   xmlns="http://www.w3.org/2000/svg"
   xmlns:sodipodi="http://sodipodi.sourceforge.net/DTD/sodipodi-0.dtd"
   xmlns:inkscape="http://www.inkscape.org/namespaces/inkscape"
   height="16"
   width="16"
   version="1.1"
   id="svg8"
   sodipodi:docname="weather-overcast.svg"
   inkscape:version="0.92.3 (2405546, 2018-03-11)">
  <metadata
     id="metadata14">
    <rdf:RDF>
      <cc:Work
         rdf:about="">
        <dc:format>image/svg+xml</dc:format>
        <dc:type
           rdf:resource="http://purl.org/dc/dcmitype/StillImage" />
      </cc:Work>
    </rdf:RDF>
  </metadata>
  <defs
     id="defs12" />
  <sodipodi:namedview
     pagecolor="#ffffff"
     bordercolor="#666666"
     borderopacity="1"
     objecttolerance="10"
     gridtolerance="10"
     guidetolerance="10"
     inkscape:pageopacity="0"
     inkscape:pageshadow="2"
     inkscape:window-width="640"
     inkscape:window-height="480"
     id="namedview10"
     showgrid="false"
     inkscape:zoom="18.25"
     inkscape:cx="-10.520548"
     inkscape:cy="7.1232876"
     inkscape:current-layer="svg8" />
  <path
     style="color:#000000;font-weight:400;line-height:normal;font-family:sans-serif;-inkscape-font-specification:sans-serif;text-indent:0;text-align:start;text-decoration:none;text-decoration-line:none;text-transform:none;overflow:visible;fill:#dfdfdf;marker:none;fill-opacity:1"
     d="M 9.3984375 6.9179688 C 8.0494375 6.9199687 6.9044219 7.7495 6.3574219 8.9375 L 6.3183594 9.0175781 L 6.2324219 9.0253906 C 4.9854219 9.1153906 4 10.193859 4 11.505859 C 4 12.875859 5.0723906 14 6.4003906 14 L 12.199219 14 C 13.194219 14 14 13.156812 14 12.132812 A 1.85 1.85 0 0 0 12.869141 10.423828 L 12.783203 10.386719 L 12.773438 10.294922 C 12.689437 8.4249219 11.223391 6.9199687 9.4003906 6.9179688 L 9.3984375 6.9179688 z M 9.3945312 7.9179688 L 9.3984375 7.9179688 C 10.670438 7.9199687 11.715344 8.9678438 11.777344 10.339844 L 11.777344 10.371094 L 11.853516 11.076172 L 12.480469 11.34375 C 12.785469 11.47375 13 11.756812 13 12.132812 C 13 12.632812 12.630172 13 12.201172 13 L 6.3984375 13 C 5.6384375 13 5 12.354859 5 11.505859 C 5 10.695859 5.5907344 10.074484 6.3027344 10.021484 L 6.9746094 9.9746094 L 7.2636719 9.359375 L 7.2636719 9.3554688 C 7.6626719 8.4894688 8.4575313 7.9199687 9.3945312 7.9179688 z "
     id="path827" />
  <path
     style="fill:#dfdfdf;fill-opacity:1"
     d="M 9.5,1 A 3.5,3.5 0 0 0 6.334,3.018 3.5,3.5 0 0 0 2.531,6.058 2,2 0 0 0 3.001,10 H 3.27 A 3.5,3.25 0 0 1 3.98,9 H 2.998 c -0.564,0 -1,-0.436 -1,-1 A 0.99,0.99 0 0 1 2.764,7.03 L 3.434,6.867 3.522,6.184 a 2.488,2.488 0 0 1 2.71,-2.172 l 0.706,0.072 0.3,-0.643 A 2.496,2.496 0 0 1 9.498,2 2.485,2.485 0 0 1 11.996,4.498 V 4.5 c 0,0.127 -0.012,0.253 -0.033,0.379 l -0.16,0.969 0.965,0.18 A 1.489,1.489 0 0 1 13.997,7.5 c 0,0.84 -0.66,1.5 -1.5,1.5 h -0.498 v 1 h 0.5 A 2.5,2.5 0 0 0 12.952,5.043 C 12.982,4.863 12.997,4.682 12.999,4.5 A 3.5,3.5 0 0 0 9.499,1 Z"
     id="path4" />
</svg>
