<?xml version="1.0" encoding="UTF-8" standalone="no"?>
<svg
   xmlns:dc="http://purl.org/dc/elements/1.1/"
   xmlns:cc="http://creativecommons.org/ns#"
   xmlns:rdf="http://www.w3.org/1999/02/22-rdf-syntax-ns#"
   xmlns:svg="http://www.w3.org/2000/svg"
   xmlns="http://www.w3.org/2000/svg"
   xmlns:sodipodi="http://sodipodi.sourceforge.net/DTD/sodipodi-0.dtd"
   xmlns:inkscape="http://www.inkscape.org/namespaces/inkscape"
   height="16"
   width="16"
   version="1.1"
   id="svg4"
   sodipodi:docname="weather-clear.svg"
   inkscape:version="0.92.3 (2405546, 2018-03-11)">
  <metadata
     id="metadata10">
    <rdf:RDF>
      <cc:Work
         rdf:about="">
        <dc:format>image/svg+xml</dc:format>
        <dc:type
           rdf:resource="http://purl.org/dc/dcmitype/StillImage" />
      </cc:Work>
    </rdf:RDF>
  </metadata>
  <defs
     id="defs8" />
  <sodipodi:namedview
     pagecolor="#ffffff"
     bordercolor="#666666"
     borderopacity="1"
     objecttolerance="10"
     gridtolerance="10"
     guidetolerance="10"
     inkscape:pageopacity="0"
     inkscape:pageshadow="2"
     inkscape:window-width="640"
     inkscape:window-height="480"
     id="namedview6"
     showgrid="false"
     inkscape:zoom="18.25"
     inkscape:cx="-1.260274"
     inkscape:cy="7.5616438"
     inkscape:current-layer="svg4" />
  <path
     d="m 7.5,0 v 2 h 1 V 0 Z"
     id="path843"
     style="fill:#dfdfdf;fill-opacity:1" />
  <path
     d="m 4.434,0.822 -0.868,0.5 1.002,1.733 0.866,-0.5 z"
     id="path841"
     style="fill:#dfdfdf;fill-opacity:1" />
  <path
     d="m 11.566,0.822 -1,1.733 0.868,0.5 1,-1.733 z"
     id="path839"
     style="fill:#dfdfdf;fill-opacity:1" />
  <path
     style="fill:#dfdfdf;fill-opacity:1"
     d="M 8 3 A 5 5 0 0 0 8 13 A 5 5 0 0 0 8 3 z M 8 4 A 4 4 0 0 1 12 8 A 4 4 0 0 1 8 12 A 4 4 0 0 1 4 8 A 4 4 0 0 1 8 4 z "
     id="path837" />
  <path
     d="m 1.322,3.566 -0.5,0.868 1.733,1 0.5,-0.868 z"
     id="path835"
     style="fill:#dfdfdf;fill-opacity:1" />
  <path
     d="m 14.678,3.566 -1.733,1 0.5,0.868 1.733,-1 z"
     id="path833"
     style="fill:#dfdfdf;fill-opacity:1" />
  <path
     d="m 0,7.5 v 1 h 2 v -1 z"
     id="path829"
     style="fill:#dfdfdf;fill-opacity:1" />
  <path
     d="m 14,7.5 v 1 h 2 v -1 z"
     id="path827"
     style="fill:#dfdfdf;fill-opacity:1" />
  <path
     d="m 2.555,10.566 -1.733,1 0.5,0.868 1.733,-1.002 z"
     id="path825"
     style="fill:#dfdfdf;fill-opacity:1" />
  <path
     d="m 13.445,10.566 -0.5,0.868 1.733,1 0.5,-0.868 z"
     id="path823"
     style="fill:#dfdfdf;fill-opacity:1" />
  <path
     d="m 4.566,12.946 -1,1.732 0.868,0.5 1,-1.733 z"
     id="path821"
     style="fill:#dfdfdf;fill-opacity:1" />
  <path
     d="m 11.434,12.946 -0.868,0.5 1,1.732 0.868,-0.5 z"
     id="path819"
     style="fill:#dfdfdf;fill-opacity:1" />
  <path
     d="m 7.5,14 v 2 h 1 v -2 z"
     id="path2"
     style="fill:#dfdfdf;fill-opacity:1" />
</svg>
