<?xml version="1.0" encoding="UTF-8" standalone="no"?>
<svg
   xmlns:dc="http://purl.org/dc/elements/1.1/"
   xmlns:cc="http://creativecommons.org/ns#"
   xmlns:rdf="http://www.w3.org/1999/02/22-rdf-syntax-ns#"
   xmlns:svg="http://www.w3.org/2000/svg"
   xmlns="http://www.w3.org/2000/svg"
   xmlns:sodipodi="http://sodipodi.sourceforge.net/DTD/sodipodi-0.dtd"
   xmlns:inkscape="http://www.inkscape.org/namespaces/inkscape"
   height="16"
   width="16.001"
   version="1.1"
   id="svg6"
   sodipodi:docname="weather-severe-alert.svg"
   inkscape:version="0.92.3 (2405546, 2018-03-11)">
  <metadata
     id="metadata12">
    <rdf:RDF>
      <cc:Work
         rdf:about="">
        <dc:format>image/svg+xml</dc:format>
        <dc:type
           rdf:resource="http://purl.org/dc/dcmitype/StillImage" />
      </cc:Work>
    </rdf:RDF>
  </metadata>
  <defs
     id="defs10" />
  <sodipodi:namedview
     pagecolor="#ffffff"
     bordercolor="#666666"
     borderopacity="1"
     objecttolerance="10"
     gridtolerance="10"
     guidetolerance="10"
     inkscape:pageopacity="0"
     inkscape:pageshadow="2"
     inkscape:window-width="640"
     inkscape:window-height="480"
     id="namedview8"
     showgrid="false"
     inkscape:zoom="18.25"
     inkscape:cx="-1.2597742"
     inkscape:cy="7.5616438"
     inkscape:current-layer="svg6" />
  <path
     style="line-height:normal;-inkscape-font-specification:sans-serif;text-indent:0;text-align:start;text-decoration-line:none;text-transform:none;marker:none;fill:#dfdfdf;fill-opacity:1"
     d="M 8.64,0.668 C 6.482,0.67 4.648,1.999 3.772,3.9 L 3.711,4.03 3.572,4.04 C 1.578,4.184 0,5.91 0,8.008 0,10.201 1.716,12 3.838,12 H 6 V 11 H 3.838 C 2.281,11 1,9.679 1,8.008 1,6.411 2.184,5.142 3.644,5.035 L 4.367,4.985 4.677,4.322 V 4.318 C 5.406,2.738 6.89,1.669 8.638,1.668 11.006,1.67 12.93,3.62 13.043,6.115 v 0.01 l 0.05,0.776 0.704,0.296 a 1.944,1.944 0 0 1 1.195,1.815 C 15.002,10.126 14.146,11 13.121,11 H 9.998 v 1 h 3.123 c 1.591,0 2.877,-1.35 2.877,-2.988 A 2.958,2.958 0 0 0 14.193,6.277 L 14.057,6.219 14.047,6.07 C 13.911,3.077 11.56,0.67 8.642,0.668 Z"
     id="path2" />
  <path
     class="error"
     color="#000"
     d="M7.291 6v2.662c0 .793.03 1.517.086 2.168.057.642.128 1.284.213 1.926h.82c.085-.642.157-1.284.213-1.926.057-.651.086-1.375.086-2.168V6zm.71 8.102c-.294 0-.524.094-.694.283a.965.965 0 0 0-.256.666c0 .255.086.477.256.666.17.189.4.283.693.283.293 0 .524-.094.694-.283a.965.965 0 0 0 .255-.666.965.965 0 0 0-.255-.666c-.17-.19-.401-.283-.694-.283z"
     fill="#da1636"
     font-family="sans-serif"
     font-weight="400"
     overflow="visible"
     style="line-height:normal;font-variant-ligatures:none;font-variant-position:normal;font-variant-caps:normal;font-variant-numeric:normal;font-variant-alternates:normal;font-feature-settings:normal;text-indent:0;text-align:start;text-decoration-line:none;text-decoration-style:solid;text-decoration-color:#000;text-transform:none;shape-padding:0;isolation:auto;mix-blend-mode:normal;marker:none"
     white-space="normal"
     id="path4" />
</svg>
