<?xml version="1.0" encoding="UTF-8" standalone="no"?>
<svg
   xmlns:dc="http://purl.org/dc/elements/1.1/"
   xmlns:cc="http://creativecommons.org/ns#"
   xmlns:rdf="http://www.w3.org/1999/02/22-rdf-syntax-ns#"
   xmlns:svg="http://www.w3.org/2000/svg"
   xmlns="http://www.w3.org/2000/svg"
   xmlns:sodipodi="http://sodipodi.sourceforge.net/DTD/sodipodi-0.dtd"
   xmlns:inkscape="http://www.inkscape.org/namespaces/inkscape"
   height="16"
   width="16"
   version="1.1"
   id="svg4"
   sodipodi:docname="weather-clear-night.svg"
   inkscape:version="0.92.3 (2405546, 2018-03-11)">
  <metadata
     id="metadata10">
    <rdf:RDF>
      <cc:Work
         rdf:about="">
        <dc:format>image/svg+xml</dc:format>
        <dc:type
           rdf:resource="http://purl.org/dc/dcmitype/StillImage" />
      </cc:Work>
    </rdf:RDF>
  </metadata>
  <defs
     id="defs8" />
  <sodipodi:namedview
     pagecolor="#ffffff"
     bordercolor="#666666"
     borderopacity="1"
     objecttolerance="10"
     gridtolerance="10"
     guidetolerance="10"
     inkscape:pageopacity="0"
     inkscape:pageshadow="2"
     inkscape:window-width="640"
     inkscape:window-height="480"
     id="namedview6"
     showgrid="false"
     inkscape:zoom="18.25"
     inkscape:cx="-1.260274"
     inkscape:cy="7.5616438"
     inkscape:current-layer="svg4" />
  <path
     style="marker:none;fill:#dfdfdf;fill-opacity:1"
     d="M 6.001,1.195 6,1.196 C 5.76,1.713 5.573,2.239 5.467,2.562 5.119,2.562 4.547,2.575 4,2.646 v 10e-4 h 0.001 c 0.417,0.39 0.86,0.73 1.135,0.93 -0.108,0.33 -0.272,0.88 -0.374,1.42 H 4.764 C 5.263,4.721 5.723,4.405 5.998,4.206 A 12.06,12.06 0 0 0 7.234,4.999 V 4.998 A 12.804,12.804 0 0 0 6.863,3.58 12.065,12.065 0 0 0 8,2.65 V 2.649 H 7.999 A 12.788,12.788 0 0 0 6.535,2.564 12.07,12.07 0 0 0 6.001,1.194 Z"
     id="path823" />
  <path
     style="marker:none;fill:#dfdfdf;fill-opacity:1"
     d="M 2.5,5.146 A 9.6,9.6 0 0 0 2.1,6.171 9.032,9.032 0 0 0 1,6.235 9.6,9.6 0 0 0 1.852,6.932 C 1.771,7.18 1.648,7.592 1.572,7.998 A 9.59,9.59 0 0 0 2.498,7.404 8.9,8.9 0 0 0 3.426,8 V 7.999 C 3.344,7.579 3.226,7.177 3.147,6.935 3.358,6.782 3.7,6.521 4,6.237 A 9.596,9.596 0 0 0 2.901,6.173 9.078,9.078 0 0 0 2.501,5.146 Z"
     id="path821" />
  <path
     style="marker:none;fill:#dfdfdf;fill-opacity:1"
     d="M 10.296875 2.2441406 A 5.725 5.725 0 0 1 11.396484 7.3417969 A 5.729 5.729 0 0 1 4.3808594 11.390625 A 5.728 5.728 0 0 1 2.2480469 10.292969 A 6.507 6.507 0 0 0 6.8085938 14.777344 A 6.506 6.506 0 0 0 14.777344 10.177734 A 6.507 6.507 0 0 0 10.298828 2.2441406 L 10.296875 2.2441406 z M 12.464844 4.703125 A 5.471 5.471 0 0 1 13.990234 8.828125 A 5.567 5.567 0 0 1 13.810547 9.9199219 A 5.49 5.49 0 0 1 4.6738281 12.447266 C 8.0738281 13.057266 11.453281 10.994562 12.363281 7.6015625 L 12.363281 7.5996094 A 6.71 6.71 0 0 0 12.464844 4.703125 z "
     id="path819" />
</svg>
