<?xml version="1.0" encoding="UTF-8" standalone="no"?>
<svg
   xmlns:osb="http://www.openswatchbook.org/uri/2009/osb"
   xmlns:dc="http://purl.org/dc/elements/1.1/"
   xmlns:cc="http://creativecommons.org/ns#"
   xmlns:rdf="http://www.w3.org/1999/02/22-rdf-syntax-ns#"
   xmlns:svg="http://www.w3.org/2000/svg"
   xmlns="http://www.w3.org/2000/svg"
   xmlns:sodipodi="http://sodipodi.sourceforge.net/DTD/sodipodi-0.dtd"
   xmlns:inkscape="http://www.inkscape.org/namespaces/inkscape"
   height="16.000032"
   id="svg7384"
   version="1.1"
   width="16.000044"
   sodipodi:docname="weather-few-clouds.svg"
   inkscape:version="0.92.3 (2405546, 2018-03-11)">
  <sodipodi:namedview
     pagecolor="#ffffff"
     bordercolor="#666666"
     borderopacity="1"
     objecttolerance="10"
     gridtolerance="10"
     guidetolerance="10"
     inkscape:pageopacity="0"
     inkscape:pageshadow="2"
     inkscape:window-width="640"
     inkscape:window-height="480"
     id="namedview21"
     showgrid="false"
     inkscape:zoom="18.249963"
     inkscape:cx="-1.2602708"
     inkscape:cy="7.5616592"
     inkscape:current-layer="svg7384" />
  <metadata
     id="metadata20854">
    <rdf:RDF>
      <cc:Work
         rdf:about="">
        <dc:title />
        <dc:format>image/svg+xml</dc:format>
        <dc:type
           rdf:resource="http://purl.org/dc/dcmitype/StillImage" />
      </cc:Work>
    </rdf:RDF>
  </metadata>
  <defs
     id="defs7386">
    <linearGradient
       id="linearGradient5606"
       osb:paint="solid">
      <stop
         id="stop5608"
         offset="0"
         style="stop-color:#000000;stop-opacity:1;" />
    </linearGradient>
    <linearGradient
       id="linearGradient4526"
       osb:paint="solid">
      <stop
         id="stop4528"
         offset="0"
         style="stop-color:#ffffff;stop-opacity:1;" />
    </linearGradient>
    <linearGradient
       id="linearGradient3600-4"
       osb:paint="gradient">
      <stop
         id="stop3602-7"
         offset="0"
         style="stop-color:#f4f4f4;stop-opacity:1" />
      <stop
         id="stop3604-6"
         offset="1"
         style="stop-color:#dbdbdb;stop-opacity:1" />
    </linearGradient>
  </defs>
  <path
     style="opacity:1;fill:#dfdfdf;fill-opacity:1;stroke:none;stroke-width:0.5;stroke-linecap:square;stroke-linejoin:round;stroke-miterlimit:4;stroke-dasharray:none;stroke-dashoffset:0;stroke-opacity:1"
     d="m 7.5,0 v 2 h 1 V 0 Z"
     id="path856" />
  <path
     style="opacity:1;fill:#dfdfdf;fill-opacity:1;stroke:none;stroke-width:0.5;stroke-linecap:square;stroke-linejoin:round;stroke-miterlimit:4;stroke-dasharray:none;stroke-dashoffset:0;stroke-opacity:1"
     d="m 4.4336,0.82227 -0.8672,0.5 1.002,1.73242 0.8652,-0.5 z"
     id="path854" />
  <path
     style="opacity:1;fill:#dfdfdf;fill-opacity:1;stroke:none;stroke-width:0.5;stroke-linecap:square;stroke-linejoin:round;stroke-miterlimit:4;stroke-dasharray:none;stroke-dashoffset:0;stroke-opacity:1"
     d="m 11.5664,0.82227 -1,1.73242 0.8672,0.5 1,-1.73242 z"
     id="path852" />
  <path
     style="opacity:1;fill:#dfdfdf;fill-opacity:1;stroke:none;stroke-width:0.5;stroke-linecap:square;stroke-linejoin:round;stroke-miterlimit:4;stroke-dasharray:none;stroke-dashoffset:0;stroke-opacity:1"
     d="M 8,3 C 5.2386,3 3,5.23858 3,8 3,9.64757 3.8077,11.09689 5.0371,12.00781 A 3.5,3.5 0 0 1 5.3477,10.98828 4,4 0 0 1 4,8 4,4 0 0 1 8,4 4,4 0 0 1 11.8731,7.01758 4.5,4.5 0 0 1 12.9375,7.24219 C 12.5717,4.84115 10.5032,3 8,3 Z"
     id="path850" />
  <path
     style="opacity:1;fill:#dfdfdf;fill-opacity:1;stroke:none;stroke-width:0.5;stroke-linecap:square;stroke-linejoin:round;stroke-miterlimit:4;stroke-dasharray:none;stroke-dashoffset:0;stroke-opacity:1"
     d="m 1.3223,3.56641 -0.5,0.86718 1.7324,1 0.5,-0.86718 z"
     id="path848" />
  <path
     style="opacity:1;fill:#dfdfdf;fill-opacity:1;stroke:none;stroke-width:0.5;stroke-linecap:square;stroke-linejoin:round;stroke-miterlimit:4;stroke-dasharray:none;stroke-dashoffset:0;stroke-opacity:1"
     d="m 14.6777,3.56641 -1.7324,1 0.5,0.86718 1.7324,-1 z"
     id="path846" />
  <path
     style="opacity:1;fill:#dfdfdf;fill-opacity:1;stroke:none;stroke-width:0.5;stroke-linecap:square;stroke-linejoin:round;stroke-miterlimit:4;stroke-dasharray:none;stroke-dashoffset:0;stroke-opacity:1"
     d="m 0,7.5 v 1 h 2 v -1 z"
     id="path844" />
  <path
     style="opacity:1;fill:#dfdfdf;fill-opacity:1;stroke:none;stroke-width:0.5;stroke-linecap:square;stroke-linejoin:round;stroke-miterlimit:4;stroke-dasharray:none;stroke-dashoffset:0;stroke-opacity:1"
     d="M 14,7.5 V 7.76172 A 4.5,4.5 0 0 1 14.8477,8.5 H 16 v -1 z"
     id="path842" />
  <path
     style="opacity:1;fill:#dfdfdf;fill-opacity:1;stroke:none;stroke-width:0.5;stroke-linecap:square;stroke-linejoin:round;stroke-miterlimit:4;stroke-dasharray:none;stroke-dashoffset:0;stroke-opacity:1"
     d="M 11.5 8 A 3.5 3.5 0 0 0 8.3398438 10.005859 A 2.5 2.5 0 0 0 6 12.5 A 2.5 2.5 0 0 0 8.5 15 L 11.5 15 L 14 15 A 2 2 0 0 0 16 13 A 2 2 0 0 0 14.992188 11.265625 A 3.5 3.5 0 0 0 11.5 8 z M 11.498047 9 L 11.5 9 C 12.8244 9.00098 13.903487 10.010361 13.992188 11.332031 L 14.029297 11.867188 L 14.494141 12.134766 C 14.806841 12.313416 14.997647 12.641833 14.998047 13.001953 C 14.997047 13.565123 14.561547 14 13.998047 14 L 11.498047 14 L 8.4980469 14 C 7.6577469 14 6.9980469 13.34027 6.9980469 12.5 C 6.9982469 11.6994 7.6034437 11.055196 8.4023438 11.003906 L 8.9902344 10.966797 L 9.2421875 10.433594 C 9.6553875 9.5584938 10.530447 9.0021 11.498047 9 z "
     id="path840" />
  <path
     style="opacity:1;fill:#dfdfdf;fill-opacity:1;stroke:none;stroke-width:0.5;stroke-linecap:square;stroke-linejoin:round;stroke-miterlimit:4;stroke-dasharray:none;stroke-dashoffset:0;stroke-opacity:1"
     d="m 2.5586,10.56641 -1.7324,1 0.5,0.86718 1.7324,-1.00195 z"
     id="path836" />
  <path
     style="opacity:1;fill:#dfdfdf;fill-opacity:1;stroke:none;stroke-width:0.5;stroke-linecap:square;stroke-linejoin:round;stroke-miterlimit:4;stroke-dasharray:none;stroke-dashoffset:0;stroke-opacity:1"
     d="m 4.5703,12.94531 -1,1.73242 0.8672,0.5 0.8106,-1.40234 a 3.5,3.5 0 0 1 -0.1622,-0.5332 z"
     id="path834" />
  <path
     style="opacity:1;fill:#dfdfdf;fill-opacity:1;stroke:none;stroke-width:0.5;stroke-linecap:square;stroke-linejoin:round;stroke-miterlimit:4;stroke-dasharray:none;stroke-dashoffset:0;stroke-opacity:1"
     d="M 7.504,15.85156 V 16 h 1 a 3.5,3.5 0 0 1 -1,-0.14844 z"
     id="path2480" />
</svg>
