<?xml version="1.0" encoding="UTF-8" standalone="no"?>
<svg
   xmlns:dc="http://purl.org/dc/elements/1.1/"
   xmlns:cc="http://creativecommons.org/ns#"
   xmlns:rdf="http://www.w3.org/1999/02/22-rdf-syntax-ns#"
   xmlns:svg="http://www.w3.org/2000/svg"
   xmlns="http://www.w3.org/2000/svg"
   xmlns:sodipodi="http://sodipodi.sourceforge.net/DTD/sodipodi-0.dtd"
   xmlns:inkscape="http://www.inkscape.org/namespaces/inkscape"
   height="16"
   width="16"
   version="1.1"
   id="svg4"
   sodipodi:docname="weather-cloudy.svg"
   inkscape:version="0.92.3 (2405546, 2018-03-11)">
  <metadata
     id="metadata10">
    <rdf:RDF>
      <cc:Work
         rdf:about="">
        <dc:format>image/svg+xml</dc:format>
        <dc:type
           rdf:resource="http://purl.org/dc/dcmitype/StillImage" />
      </cc:Work>
    </rdf:RDF>
  </metadata>
  <defs
     id="defs8" />
  <sodipodi:namedview
     pagecolor="#ffffff"
     bordercolor="#666666"
     borderopacity="1"
     objecttolerance="10"
     gridtolerance="10"
     guidetolerance="10"
     inkscape:pageopacity="0"
     inkscape:pageshadow="2"
     inkscape:window-width="640"
     inkscape:window-height="480"
     id="namedview6"
     showgrid="false"
     inkscape:zoom="18.25"
     inkscape:cx="-1.260274"
     inkscape:cy="7.5616438"
     inkscape:current-layer="svg4" />
  <path
     style="line-height:normal;-inkscape-font-specification:sans-serif;text-indent:0;text-align:start;text-decoration-line:none;text-transform:none;marker:none;fill:#dfdfdf;fill-opacity:1"
     d="M 8.640625 1.6679688 C 6.482625 1.6699688 4.6474844 2.9993906 3.7714844 4.9003906 L 3.7109375 5.0292969 L 3.5722656 5.0390625 C 1.5782656 5.1830625 5.9211895e-16 6.9098125 0 9.0078125 C 0 11.200813 1.7158906 13 3.8378906 13 L 13.121094 13 C 14.713094 13 16 11.649719 16 10.011719 A 2.958 2.958 0 0 0 14.195312 7.2773438 L 14.058594 7.21875 L 14.048828 7.0703125 C 13.913828 4.0773125 11.561531 1.6699687 8.6445312 1.6679688 L 8.640625 1.6679688 z M 8.640625 2.6679688 C 11.008625 2.6699687 12.931922 4.6202344 13.044922 7.1152344 L 13.044922 7.125 L 13.095703 7.9003906 L 13.798828 8.1972656 A 1.944 1.944 0 0 1 14.994141 10.011719 C 15.004141 11.125719 14.148047 12 13.123047 12 L 3.8378906 12 C 2.2818906 12 0.99804688 10.679813 0.99804688 9.0078125 C 0.99804688 7.4108125 2.1845313 6.1421563 3.6445312 6.0351562 L 4.3671875 5.984375 L 4.6777344 5.3222656 L 4.6777344 5.3183594 C 5.4057344 3.7383594 6.8906719 2.6699219 8.6386719 2.6699219 L 8.640625 2.6679688 z "
     id="path819" />
</svg>
