<?xml version="1.0" encoding="UTF-8" standalone="no"?>
<svg
   xmlns:dc="http://purl.org/dc/elements/1.1/"
   xmlns:cc="http://creativecommons.org/ns#"
   xmlns:rdf="http://www.w3.org/1999/02/22-rdf-syntax-ns#"
   xmlns:svg="http://www.w3.org/2000/svg"
   xmlns="http://www.w3.org/2000/svg"
   xmlns:sodipodi="http://sodipodi.sourceforge.net/DTD/sodipodi-0.dtd"
   xmlns:inkscape="http://www.inkscape.org/namespaces/inkscape"
   height="16"
   width="16"
   version="1.1"
   id="svg4"
   sodipodi:docname="weather-showers-scattered.svg"
   inkscape:version="0.92.3 (2405546, 2018-03-11)">
  <metadata
     id="metadata10">
    <rdf:RDF>
      <cc:Work
         rdf:about="">
        <dc:format>image/svg+xml</dc:format>
        <dc:type
           rdf:resource="http://purl.org/dc/dcmitype/StillImage" />
      </cc:Work>
    </rdf:RDF>
  </metadata>
  <defs
     id="defs8" />
  <sodipodi:namedview
     pagecolor="#ffffff"
     bordercolor="#666666"
     borderopacity="1"
     objecttolerance="10"
     gridtolerance="10"
     guidetolerance="10"
     inkscape:pageopacity="0"
     inkscape:pageshadow="2"
     inkscape:window-width="640"
     inkscape:window-height="480"
     id="namedview6"
     showgrid="false"
     inkscape:zoom="18.25"
     inkscape:cx="-1.260274"
     inkscape:cy="7.5616438"
     inkscape:current-layer="svg4" />
  <path
     style="marker:none;fill:#dfdfdf;fill-opacity:1"
     d="M 8.005,14 A 2.502,2.502 0 0 1 5.63,10.714 c 0,-0.025 0.017,-0.051 0.023,-0.076 0.063,-0.21 0.998,-3.275 2.354,-6.023 V 4.62 c 1.448,3 2.368,6.094 2.368,6.094 A 2.502,2.502 0 0 1 8,14 Z"
     id="path821" />
  <path
     style="marker:none;fill:#dfdfdf;fill-opacity:1"
     d="M 13.5,9 A 1.5,1.5 0 0 1 12.076,7.03 c 0,-0.016 0.015,-0.031 0.015,-0.046 0.038,-0.127 0.599,-1.965 1.412,-3.613 v 0.002 c 0.868,1.8 1.42,3.656 1.42,3.656 a 1.5,1.5 0 0 1 -1.425,1.97 z"
     id="path819" />
  <path
     style="marker:none;fill:#dfdfdf;fill-opacity:1"
     d="M 2.5,9 A 1.5,1.5 0 0 1 1.076,7.03 C 1.076,7.014 1.091,6.998 1.091,6.984 1.129,6.857 1.69,5.019 2.503,3.371 v 0.002 c 0.868,1.8 1.42,3.656 1.42,3.656 a 1.5,1.5 0 0 1 -1.425,1.97 z"
     id="path2" />
</svg>
