<?xml version="1.0" encoding="UTF-8" standalone="no"?>
<svg
   xmlns:dc="http://purl.org/dc/elements/1.1/"
   xmlns:cc="http://creativecommons.org/ns#"
   xmlns:rdf="http://www.w3.org/1999/02/22-rdf-syntax-ns#"
   xmlns:svg="http://www.w3.org/2000/svg"
   xmlns="http://www.w3.org/2000/svg"
   xmlns:sodipodi="http://sodipodi.sourceforge.net/DTD/sodipodi-0.dtd"
   xmlns:inkscape="http://www.inkscape.org/namespaces/inkscape"
   height="16"
   width="16"
   version="1.1"
   id="svg4"
   sodipodi:docname="weather-few-clouds-night.svg"
   inkscape:version="0.92.3 (2405546, 2018-03-11)">
  <metadata
     id="metadata10">
    <rdf:RDF>
      <cc:Work
         rdf:about="">
        <dc:format>image/svg+xml</dc:format>
        <dc:type
           rdf:resource="http://purl.org/dc/dcmitype/StillImage" />
      </cc:Work>
    </rdf:RDF>
  </metadata>
  <defs
     id="defs8" />
  <sodipodi:namedview
     pagecolor="#ffffff"
     bordercolor="#666666"
     borderopacity="1"
     objecttolerance="10"
     gridtolerance="10"
     guidetolerance="10"
     inkscape:pageopacity="0"
     inkscape:pageshadow="2"
     inkscape:window-width="640"
     inkscape:window-height="480"
     id="namedview6"
     showgrid="false"
     inkscape:zoom="18.25"
     inkscape:cx="-1.260274"
     inkscape:cy="7.5616438"
     inkscape:current-layer="svg4" />
  <path
     style="marker:none;fill:#dfdfdf;fill-opacity:1"
     d="m 8.297,0.246 a 5.725,5.725 0 0 1 1.1,5.096 5.729,5.729 0 0 1 -7.016,4.05 5.728,5.728 0 0 1 -2.133,-1.099 6.507,6.507 0 0 0 4.56,4.484 c 0.089,0.024 0.177,0.037 0.265,0.057 C 5.14,12.497 5.261,12.179 5.423,11.887 5.304,11.863 5.186,11.844 5.069,11.812 A 5.506,5.506 0 0 1 2.674,10.447 c 3.399,0.611 6.78,-1.452 7.69,-4.845 V 5.6 a 6.708,6.708 0 0 0 0.1,-2.897 5.472,5.472 0 0 1 1.527,4.127 5.56,5.56 0 0 1 -0.18,1.09 c -0.01,0.036 -0.023,0.07 -0.033,0.105 0.343,0.022 0.673,0.083 0.99,0.18 0,-0.009 0.01,-0.018 0.01,-0.027 A 6.507,6.507 0 0 0 8.298,0.246 Z"
     id="path821" />
  <path
     style="marker:none;fill:#dfdfdf;fill-opacity:1"
     d="M 11.5 9 A 3.5 3.5 0 0 0 8.3398438 11.005859 A 2.5 2.5 0 0 0 8.5 16 L 14 16 A 2 2 0 0 0 14.992188 12.265625 A 3.5 3.5 0 0 0 11.5 9 z M 11.498047 10 L 11.5 10 A 2.486 2.486 0 0 1 13.992188 12.332031 L 14.029297 12.867188 L 14.494141 13.134766 A 0.996 0.996 0 0 1 14.998047 14.001953 A 0.985 0.985 0 0 1 13.998047 15 L 8.4980469 15 C 7.6580469 15 6.9980469 14.34 6.9980469 13.5 C 6.9980469 12.7 7.6033438 12.054906 8.4023438 12.003906 L 8.9902344 11.966797 L 9.2421875 11.433594 A 2.497 2.497 0 0 1 11.498047 10 z "
     id="path819" />
</svg>
