<?xml version="1.0" encoding="UTF-8" standalone="no"?>
<svg
   inkscape:export-ydpi="96"
   inkscape:export-xdpi="96"
   width="400"
   height="300"
   id="svg11300"
   sodipodi:version="0.32"
   inkscape:version="1.1.2 (0a00cf5339, 2022-02-04)"
   sodipodi:docname="cs-screensaver.svg"
   inkscape:output_extension="org.inkscape.output.svg.inkscape"
   version="1.0"
   style="display:inline;enable-background:new"
   inkscape:export-filename="C:\Users\sblav\Pictures\vertical oblong template.png"
   xmlns:inkscape="http://www.inkscape.org/namespaces/inkscape"
   xmlns:sodipodi="http://sodipodi.sourceforge.net/DTD/sodipodi-0.dtd"
   xmlns:xlink="http://www.w3.org/1999/xlink"
   xmlns="http://www.w3.org/2000/svg"
   xmlns:svg="http://www.w3.org/2000/svg"
   xmlns:rdf="http://www.w3.org/1999/02/22-rdf-syntax-ns#"
   xmlns:cc="http://creativecommons.org/ns#"
   xmlns:dc="http://purl.org/dc/elements/1.1/">
  <title
     id="title3004">Suru Icon Theme Template</title>
  <sodipodi:namedview
     stroke="#ef2929"
     fill="#f57900"
     id="base"
     pagecolor="#ffffff"
     bordercolor="#000000"
     borderopacity="0.25490196"
     inkscape:pageopacity="0"
     inkscape:pageshadow="2"
     inkscape:zoom="2"
     inkscape:cx="205.75"
     inkscape:cy="88"
     inkscape:current-layer="layer8"
     showgrid="false"
     inkscape:grid-bbox="true"
     inkscape:document-units="px"
     inkscape:showpageshadow="false"
     inkscape:window-width="1920"
     inkscape:window-height="1008"
     inkscape:window-x="0"
     inkscape:window-y="0"
     width="400px"
     height="300px"
     inkscape:snap-nodes="true"
     inkscape:snap-bbox="true"
     gridtolerance="10000"
     inkscape:object-nodes="true"
     inkscape:snap-grids="true"
     showguides="true"
     inkscape:guide-bbox="true"
     inkscape:window-maximized="1"
     inkscape:bbox-paths="true"
     inkscape:snap-bbox-midpoints="true"
     inkscape:snap-global="true"
     inkscape:object-paths="true"
     inkscape:snap-intersection-paths="true"
     inkscape:snap-smooth-nodes="true"
     inkscape:pagecheckerboard="false"
     showborder="false"
     inkscape:document-rotation="0"
     inkscape:deskcolor="#d1d1d1">
    <inkscape:grid
       spacingy="1"
       spacingx="1"
       id="grid5883"
       type="xygrid"
       enabled="true"
       visible="true"
       empspacing="4"
       snapvisiblegridlinesonly="true"
       originx="0"
       originy="0" />
    <inkscape:grid
       type="xygrid"
       id="grid11592"
       empspacing="2"
       visible="true"
       enabled="false"
       spacingx="0.5"
       spacingy="0.5"
       color="#ff0000"
       opacity="0.1254902"
       empcolor="#ff0000"
       empopacity="0.25098039"
       snapvisiblegridlinesonly="true"
       originx="0"
       originy="0" />
  </sodipodi:namedview>
  <defs
     id="defs3">
    <filter
       inkscape:collect="always"
       style="color-interpolation-filters:sRGB"
       id="filter4346"
       x="-0.014454287"
       width="1.0289086"
       y="-0.011357288"
       height="1.0227146">
      <feGaussianBlur
         inkscape:collect="always"
         stdDeviation="2.120027"
         id="feGaussianBlur4348" />
    </filter>
    <filter
       inkscape:collect="always"
       style="color-interpolation-filters:sRGB"
       id="filter4380"
       x="-0.057817147"
       width="1.1156343"
       y="-0.045429151"
       height="1.0908583">
      <feGaussianBlur
         inkscape:collect="always"
         stdDeviation="8.4801079"
         id="feGaussianBlur4382" />
    </filter>
    <linearGradient
       inkscape:collect="always"
       id="linearGradient927">
      <stop
         style="stop-color:#ffffff;stop-opacity:1;"
         offset="0"
         id="stop923" />
      <stop
         id="stop933"
         offset="0.125"
         style="stop-color:#ffffff;stop-opacity:0.09803922" />
      <stop
         id="stop931"
         offset="0.92500001"
         style="stop-color:#ffffff;stop-opacity:0.09803922" />
      <stop
         style="stop-color:#ffffff;stop-opacity:0.49803922"
         offset="1"
         id="stop925" />
    </linearGradient>
    <clipPath
       clipPathUnits="userSpaceOnUse"
       id="clipPath994">
      <path
         style="color:#000000;display:inline;overflow:visible;visibility:visible;fill:#cdcdcd;fill-opacity:1;fill-rule:nonzero;stroke:none;stroke-width:2;stroke-miterlimit:4;stroke-dasharray:none;stroke-opacity:1;marker:none;enable-background:accumulate"
         d="m 335.73108,62 c -8.82418,0 -9.77365,0.90635 -9.7304,9.74838 V 84 96.25162 c -0.0433,8.84203 0.90622,9.74838 9.7304,9.74838 h 16.53919 c 8.82418,0 9.7304,-0.90625 9.7304,-9.74838 V 84 71.74838 C 362.00067,62.90625 361.09445,62 352.27027,62 Z"
         id="path996"
         inkscape:connector-curvature="0"
         sodipodi:nodetypes="scccssscsss" />
    </clipPath>
    <linearGradient
       inkscape:collect="always"
       xlink:href="#linearGradient927"
       id="linearGradient1004"
       x1="344"
       y1="66.000679"
       x2="344"
       y2="102.00067"
       gradientUnits="userSpaceOnUse"
       gradientTransform="rotate(-90,343.99981,83.99981)" />
    <clipPath
       clipPathUnits="userSpaceOnUse"
       id="clipPath971">
      <path
         style="color:#000000;display:inline;overflow:visible;visibility:visible;opacity:1;fill:#46a926;fill-opacity:1;fill-rule:nonzero;stroke:none;stroke-width:2;stroke-miterlimit:4;stroke-dasharray:none;stroke-opacity:1;marker:none;enable-background:accumulate"
         d="m 327.8652,189 c -4.41209,0 -4.88682,0.45318 -4.8652,4.87419 V 200 206.12581 C 322.9783,210.54682 323.45311,211 327.8652,211 h 8.2696 C 340.54689,211 341,210.54688 341,206.12581 V 200 193.87419 C 341,189.45313 340.54688,189 336.13479,189 Z"
         id="path973"
         inkscape:connector-curvature="0"
         sodipodi:nodetypes="scccssscsss" />
    </clipPath>
    <linearGradient
       inkscape:collect="always"
       xlink:href="#linearGradient927"
       id="linearGradient981"
       x1="331.99966"
       y1="191.00034"
       x2="331.99966"
       y2="209.00034"
       gradientUnits="userSpaceOnUse"
       gradientTransform="rotate(-90,331.99973,200.00007)" />
    <clipPath
       clipPathUnits="userSpaceOnUse"
       id="clipPath983">
      <path
         sodipodi:nodetypes="scccssscsss"
         inkscape:connector-curvature="0"
         id="path985"
         d="m 325.09646,237 c -2.80769,0 -3.10979,0.28839 -3.09603,3.10176 V 244 v 3.89824 c -0.0138,2.81337 0.28834,3.10176 3.09603,3.10176 h 5.8075 C 333.71166,251 334,250.71165 334,247.89824 V 244 240.10176 C 334,237.28836 333.71165,237 330.90396,237 Z"
         style="color:#000000;display:inline;overflow:visible;visibility:visible;opacity:1;fill:#46a926;fill-opacity:1;fill-rule:nonzero;stroke:none;stroke-width:2;stroke-miterlimit:4;stroke-dasharray:none;stroke-opacity:1;marker:none;enable-background:accumulate" />
    </clipPath>
    <linearGradient
       inkscape:collect="always"
       xlink:href="#linearGradient927"
       id="linearGradient993"
       x1="328"
       y1="238.00043"
       x2="328"
       y2="250"
       gradientUnits="userSpaceOnUse"
       gradientTransform="rotate(-90,328,244)" />
    <linearGradient
       inkscape:collect="always"
       xlink:href="#linearGradient927"
       id="linearGradient1004-8"
       x1="344"
       y1="65.144272"
       x2="344"
       y2="102.85715"
       gradientUnits="userSpaceOnUse"
       gradientTransform="matrix(0,-1.04758,0.95458104,0,263.81519,444.36714)" />
    <clipPath
       clipPathUnits="userSpaceOnUse"
       id="clipPath994-1">
      <path
         style="color:#000000;display:inline;overflow:visible;visibility:visible;fill:#cdcdcd;fill-opacity:1;fill-rule:nonzero;stroke:none;stroke-width:2;stroke-miterlimit:4;stroke-dasharray:none;stroke-opacity:1;marker:none;enable-background:accumulate"
         d="m 335.73108,62 c -8.82418,0 -9.77365,0.90635 -9.7304,9.74838 V 84 96.25162 c -0.0433,8.84203 0.90622,9.74838 9.7304,9.74838 h 16.53919 c 8.82418,0 9.7304,-0.90625 9.7304,-9.74838 V 84 71.74838 C 362.00067,62.90625 361.09445,62 352.27027,62 Z"
         id="path996-8"
         inkscape:connector-curvature="0"
         sodipodi:nodetypes="scccssscsss" />
    </clipPath>
  </defs>
  <metadata
     id="metadata4">
    <rdf:RDF>
      <cc:Work
         rdf:about="">
        <dc:format>image/svg+xml</dc:format>
        <dc:type
           rdf:resource="http://purl.org/dc/dcmitype/StillImage" />
        <dc:creator>
          <cc:Agent>
            <dc:title>Sam Hewitt</dc:title>
          </cc:Agent>
        </dc:creator>
        <dc:source />
        <cc:license
           rdf:resource="http://creativecommons.org/licenses/by-sa/4.0/" />
        <dc:title>Suru Icon Theme Template</dc:title>
        <dc:subject>
          <rdf:Bag />
        </dc:subject>
        <dc:date />
        <dc:rights>
          <cc:Agent>
            <dc:title />
          </cc:Agent>
        </dc:rights>
        <dc:publisher>
          <cc:Agent>
            <dc:title />
          </cc:Agent>
        </dc:publisher>
        <dc:identifier />
        <dc:relation />
        <dc:language />
        <dc:coverage />
        <dc:description />
        <dc:contributor>
          <cc:Agent>
            <dc:title />
          </cc:Agent>
        </dc:contributor>
      </cc:Work>
      <cc:Work
         rdf:about="">
        <dc:format>image/svg+xml</dc:format>
        <dc:type
           rdf:resource="http://purl.org/dc/dcmitype/StillImage" />
      </cc:Work>
      <cc:License
         rdf:about="http://creativecommons.org/licenses/by-sa/4.0/">
        <cc:permits
           rdf:resource="http://creativecommons.org/ns#Reproduction" />
        <cc:permits
           rdf:resource="http://creativecommons.org/ns#Distribution" />
        <cc:requires
           rdf:resource="http://creativecommons.org/ns#Notice" />
        <cc:requires
           rdf:resource="http://creativecommons.org/ns#Attribution" />
        <cc:permits
           rdf:resource="http://creativecommons.org/ns#DerivativeWorks" />
        <cc:requires
           rdf:resource="http://creativecommons.org/ns#ShareAlike" />
      </cc:License>
    </rdf:RDF>
  </metadata>
  <g
     style="display:inline"
     inkscape:groupmode="layer"
     inkscape:label="Icon"
     id="layer1">
    <g
       style="display:none"
       inkscape:label="Baseplate"
       id="layer7"
       inkscape:groupmode="layer">
      <text
         y="-8.2548828"
         xml:space="preserve"
         x="19.006836"
         style="font-style:normal;font-variant:normal;font-weight:normal;font-stretch:normal;line-height:0%;font-family:'DejaVu Sans';-inkscape-font-specification:'DejaVu Sans';display:inline;fill:#000000;fill-opacity:1;stroke:none;enable-background:new"
         inkscape:label="context"
         id="context"><tspan
           style="font-style:normal;font-variant:normal;font-weight:normal;font-stretch:normal;font-size:18px;line-height:1.25;font-family:'DejaVu Sans';-inkscape-font-specification:'DejaVu Sans'"
           y="-8.2548828"
           x="19.006836"
           sodipodi:role="line"
           id="tspan3933">apps</tspan></text>
      <text
         y="-8.2548828"
         xml:space="preserve"
         x="146.48828"
         style="font-style:normal;font-variant:normal;font-weight:bold;font-stretch:normal;line-height:0%;font-family:'DejaVu Sans';-inkscape-font-specification:'DejaVu Sans Bold';text-align:start;writing-mode:lr-tb;text-anchor:start;display:inline;fill:#000000;fill-opacity:1;stroke:none;enable-background:new"
         inkscape:label="icon-name"
         id="icon-name"><tspan
           style="font-style:normal;font-variant:normal;font-weight:bold;font-stretch:normal;font-size:18px;line-height:1.25;font-family:'DejaVu Sans';-inkscape-font-specification:'DejaVu Sans Bold'"
           y="-8.2548828"
           x="146.48828"
           sodipodi:role="line"
           id="tspan3937">cs-screensaver</tspan></text>
      <rect
         style="display:inline;overflow:visible;visibility:visible;fill:#cdcdcd;fill-opacity:1;fill-rule:nonzero;stroke:none;stroke-width:2;marker:none;enable-background:accumulate"
         id="rect16x16"
         width="16"
         height="16"
         x="320"
         y="236"
         inkscape:label="16x16" />
      <rect
         style="display:inline;overflow:visible;visibility:visible;fill:#cdcdcd;fill-opacity:1;fill-rule:nonzero;stroke:none;stroke-width:2;marker:none;enable-background:accumulate"
         id="rect24x24"
         width="24"
         height="24"
         x="320"
         y="188"
         inkscape:label="24x24" />
      <rect
         style="display:inline;overflow:visible;visibility:visible;fill:#cdcdcd;fill-opacity:1;fill-rule:nonzero;stroke:none;stroke-width:2;marker:none;enable-background:accumulate"
         id="rect32x32"
         width="32"
         height="32"
         x="320"
         y="132"
         inkscape:label="32x32" />
      <rect
         inkscape:label="48x48"
         y="60"
         x="320"
         height="48"
         width="48"
         id="rect48x48"
         style="display:inline;overflow:visible;visibility:visible;fill:#cdcdcd;fill-opacity:1;fill-rule:nonzero;stroke:none;stroke-width:2;marker:none;enable-background:accumulate" />
      <rect
         style="display:inline;overflow:visible;visibility:visible;fill:#cdcdcd;fill-opacity:1;fill-rule:nonzero;stroke:none;stroke-width:2;marker:none;enable-background:accumulate"
         id="rect3951"
         width="256"
         height="256"
         x="24"
         y="28"
         inkscape:label="48x48" />
    </g>
    <g
       inkscape:groupmode="layer"
       id="layer2"
       inkscape:label="Shadow"
       style="display:inline;enable-background:new">
      <path
         sodipodi:nodetypes="scccssscsss"
         inkscape:connector-curvature="0"
         id="path4350"
         d="m 189.84323,74 c -70.59344,0 -78.18921,7.250835 -77.84323,77.98706 v 146.01294 146.01294 c -0.34598,70.73623 7.24979,77.98706 77.84323,77.98706 h 196.31354 c 70.59344,0 77.84323,-7.24999 77.84323,-77.98706 v -146.01294 -146.01294 c 0,-70.737067 -7.24979,-77.98706 -77.84323,-77.98706 z"
         style="color:#000000;display:inline;overflow:visible;visibility:visible;opacity:0.2;fill:#000000;fill-opacity:1;fill-rule:nonzero;stroke:none;stroke-width:2;marker:none;filter:url(#filter4380);enable-background:accumulate"
         transform="matrix(0,0.5,-0.5,0,300.9973,13.002698)" />
    </g>
    <g
       inkscape:groupmode="layer"
       id="layer8"
       inkscape:label="Backgrounds"
       style="display:inline">
      <path
         style="color:#000000;font-style:normal;font-variant:normal;font-weight:normal;font-stretch:normal;font-size:medium;line-height:normal;font-family:sans-serif;font-variant-ligatures:normal;font-variant-position:normal;font-variant-caps:normal;font-variant-numeric:normal;font-variant-alternates:normal;font-feature-settings:normal;text-indent:0;text-align:start;text-decoration:none;text-decoration-line:none;text-decoration-style:solid;text-decoration-color:#000000;letter-spacing:normal;word-spacing:normal;text-transform:none;writing-mode:lr-tb;direction:ltr;text-orientation:mixed;dominant-baseline:auto;baseline-shift:baseline;text-anchor:start;white-space:normal;shape-padding:0;clip-rule:nonzero;display:inline;overflow:visible;visibility:visible;opacity:0.1;isolation:auto;mix-blend-mode:normal;color-interpolation:sRGB;color-interpolation-filters:linearRGB;solid-color:#000000;solid-opacity:1;vector-effect:none;fill:#000000;fill-opacity:1;fill-rule:nonzero;stroke:none;stroke-width:2;stroke-linecap:butt;stroke-linejoin:miter;stroke-miterlimit:4;stroke-dasharray:none;stroke-dashoffset:0;stroke-opacity:1;marker:none;color-rendering:auto;image-rendering:auto;shape-rendering:auto;text-rendering:auto;enable-background:accumulate"
         d="m 343.9998,196.86562 c 0,-1.12014 -0.0241,-2.01524 -0.1543,-2.79101 -0.13022,-0.77577 -0.38763,-1.48014 -0.91601,-2.00977 -0.52838,-0.52962 -1.23687,-0.79079 -2.01367,-0.91992 -0.77681,-0.12912 -1.67169,-0.15002 -2.79493,-0.14453 h -6.12109 -6.125 c -1.12104,-0.005 -2.01529,0.0156 -2.79102,0.14453 -0.77681,0.12912 -1.48529,0.39029 -2.01367,0.91992 -0.52838,0.52964 -0.78579,1.234 -0.91601,2.00977 -0.13022,0.77577 -0.1543,1.67087 -0.1543,2.79101 v 8.26954 c 0,1.12013 0.024,2.01264 0.1543,2.78711 0.13033,0.77446 0.38927,1.48001 0.91797,2.00781 0.52869,0.5278 1.23438,0.78594 2.00976,0.91601 0.77539,0.13007 1.67062,0.1543 2.79297,0.1543 h 6.125 6.125 c 1.12235,0 2.01758,-0.0242 2.79297,-0.1543 0.77538,-0.13007 1.48107,-0.38821 2.00976,-0.91601 0.5287,-0.5278 0.78764,-1.23334 0.91797,-2.00781 0.13033,-0.77448 0.1543,-1.66697 0.1543,-2.78711 z"
         id="path995"
         inkscape:connector-curvature="0"
         sodipodi:nodetypes="sccccccccssscccscscccss" />
      <path
         style="color:#000000;font-style:normal;font-variant:normal;font-weight:normal;font-stretch:normal;font-size:medium;line-height:normal;font-family:sans-serif;font-variant-ligatures:normal;font-variant-position:normal;font-variant-caps:normal;font-variant-numeric:normal;font-variant-alternates:normal;font-feature-settings:normal;text-indent:0;text-align:start;text-decoration:none;text-decoration-line:none;text-decoration-style:solid;text-decoration-color:#000000;letter-spacing:normal;word-spacing:normal;text-transform:none;writing-mode:lr-tb;direction:ltr;text-orientation:mixed;dominant-baseline:auto;baseline-shift:baseline;text-anchor:start;white-space:normal;shape-padding:0;clip-rule:nonzero;display:inline;overflow:visible;visibility:visible;opacity:0.1;isolation:auto;mix-blend-mode:normal;color-interpolation:sRGB;color-interpolation-filters:linearRGB;solid-color:#000000;solid-opacity:1;vector-effect:none;fill:#000000;fill-opacity:1;fill-rule:nonzero;stroke:none;stroke-width:2;stroke-linecap:butt;stroke-linejoin:miter;stroke-miterlimit:4;stroke-dasharray:none;stroke-dashoffset:0;stroke-opacity:1;marker:none;color-rendering:auto;image-rendering:auto;shape-rendering:auto;text-rendering:auto;enable-background:accumulate"
         d="m 335.5,241.59598 c 0,-0.71904 -0.0139,-1.30185 -0.10353,-1.83593 -0.0897,-0.53409 -0.27627,-1.0683 -0.68358,-1.47657 -0.40731,-0.40826 -0.94324,-0.59657 -1.47852,-0.68554 -0.53528,-0.089 -1.12047,-0.10119 -1.84179,-0.0977 H 328.5 324.60156 c -0.71817,-0.003 -1.30235,0.009 -1.83594,0.0977 -0.53528,0.089 -1.07121,0.27727 -1.47852,0.68554 -0.40731,0.40827 -0.59393,0.94248 -0.68358,1.47657 -0.0897,0.53408 -0.10352,1.11689 -0.10352,1.83593 v 5.8086 c 0,0.71904 0.0137,1.30058 0.10352,1.83398 0.0898,0.53341 0.27791,1.06768 0.68554,1.47461 0.40762,0.40693 0.9427,0.59404 1.47656,0.68359 0.53386,0.0896 1.1155,0.10352 1.83594,0.10352 h 3.89844 2.89843 c 0.72044,0 1.30208,-0.014 1.83594,-0.10352 0.53385,-0.0895 1.06894,-0.27666 1.47656,-0.68359 0.40763,-0.40693 0.59578,-0.9412 0.68554,-1.47461 0.0898,-0.5334 0.10353,-1.11494 0.10353,-1.83398 z"
         id="path997"
         inkscape:connector-curvature="0"
         sodipodi:nodetypes="scscccccccsscscscscscss" />
      <path
         style="color:#000000;font-style:normal;font-variant:normal;font-weight:normal;font-stretch:normal;font-size:medium;line-height:normal;font-family:sans-serif;font-variant-ligatures:normal;font-variant-position:normal;font-variant-caps:normal;font-variant-numeric:normal;font-variant-alternates:normal;font-feature-settings:normal;text-indent:0;text-align:start;text-decoration:none;text-decoration-line:none;text-decoration-style:solid;text-decoration-color:#000000;letter-spacing:normal;word-spacing:normal;text-transform:none;writing-mode:lr-tb;direction:ltr;text-orientation:mixed;dominant-baseline:auto;baseline-shift:baseline;text-anchor:start;white-space:normal;shape-padding:0;clip-rule:nonzero;display:inline;overflow:visible;visibility:visible;opacity:0.1;isolation:auto;mix-blend-mode:normal;color-interpolation:sRGB;color-interpolation-filters:linearRGB;solid-color:#000000;solid-opacity:1;vector-effect:none;fill:#000000;fill-opacity:1;fill-rule:nonzero;stroke:none;stroke-width:2;stroke-linecap:butt;stroke-linejoin:miter;stroke-miterlimit:4;stroke-dasharray:none;stroke-dashoffset:0;stroke-opacity:1;marker:none;color-rendering:auto;image-rendering:auto;shape-rendering:auto;text-rendering:auto;enable-background:accumulate"
         d="m 350.99976,143.19385 c 0,-1.42096 -0.0308,-2.54883 -0.19141,-3.50586 -0.16064,-0.95703 -0.4726,-1.79146 -1.09179,-2.41211 -0.61919,-0.62065 -1.45612,-0.93647 -2.41407,-1.0957 -0.95795,-0.15924 -2.08705,-0.18666 -3.51171,-0.17969 h -7.79102 -7.79688 c -1.42131,-0.007 -2.5495,0.0207 -3.50585,0.17969 -0.95796,0.15923 -1.79488,0.47505 -2.41407,1.0957 -0.61919,0.62065 -0.93115,1.45508 -1.09179,2.41211 -0.16065,0.95703 -0.19141,2.0849 -0.19141,3.50586 v 11.61523 c 0,1.42097 0.0307,2.54669 0.19141,3.50196 0.16075,0.95527 0.47425,1.78779 1.09375,2.40625 0.6195,0.61845 1.45363,0.93134 2.41015,1.09179 0.95653,0.16046 2.08403,0.19141 3.50781,0.19141 h 7.79688 7.79688 c 1.42378,0 2.55128,-0.031 3.50781,-0.19141 0.95653,-0.16045 1.79065,-0.47334 2.41015,-1.09179 0.61951,-0.61846 0.933,-1.45098 1.09375,-2.40625 0.16076,-0.95527 0.19141,-2.08099 0.19141,-3.50196 z"
         id="path999"
         inkscape:connector-curvature="0"
         sodipodi:nodetypes="scscccccscsscccscscscss" />
      <path
         style="color:#000000;font-style:normal;font-variant:normal;font-weight:normal;font-stretch:normal;font-size:medium;line-height:normal;font-family:sans-serif;font-variant-ligatures:normal;font-variant-position:normal;font-variant-caps:normal;font-variant-numeric:normal;font-variant-alternates:normal;font-feature-settings:normal;text-indent:0;text-align:start;text-decoration:none;text-decoration-line:none;text-decoration-style:solid;text-decoration-color:#000000;letter-spacing:normal;word-spacing:normal;text-transform:none;writing-mode:lr-tb;direction:ltr;text-orientation:mixed;dominant-baseline:auto;baseline-shift:baseline;text-anchor:start;white-space:normal;shape-padding:0;clip-rule:nonzero;display:inline;overflow:visible;visibility:visible;opacity:0.1;isolation:auto;mix-blend-mode:normal;color-interpolation:sRGB;color-interpolation-filters:linearRGB;solid-color:#000000;solid-opacity:1;vector-effect:none;fill:#000000;fill-opacity:1;fill-rule:nonzero;stroke:none;stroke-width:2;stroke-linecap:butt;stroke-linejoin:miter;stroke-miterlimit:4;stroke-dasharray:none;stroke-dashoffset:0;stroke-opacity:1;marker:none;color-rendering:auto;image-rendering:auto;shape-rendering:auto;text-rendering:auto;enable-background:accumulate"
         d="m 367.49969,76.231427 c 0,-2.22316 -0.0512,-3.97368 -0.29297,-5.41406 -0.24178,-1.44039 -0.69529,-2.61905 -1.55664,-3.48243 -0.86134,-0.86337 -2.03947,-1.31906 -3.48046,-1.55859 -1.441,-0.23953 -3.19535,-0.28629 -5.42383,-0.27539 h -12.74605 -12.75214 c -2.22507,-0.0108 -3.97852,0.0361 -5.41797,0.27539 -1.441,0.23953 -2.61913,0.69522 -3.48047,1.55859 -0.86134,0.86338 -1.31486,2.04204 -1.55664,3.48243 -0.24179,1.44039 -0.29297,3.1909 -0.29297,5.41406 v 17.53883 c 0,2.22317 0.0511,3.97276 0.29297,5.41017 0.24189,1.437403 0.69694,2.612463 1.55859,3.472653 0.86165,0.8602 2.03894,1.31319 3.47852,1.55468 1.43957,0.24149 3.19035,0.29297 5.41797,0.29297 h 12.75214 12.75191 c 2.22761,0 3.97839,-0.0515 5.41797,-0.29297 1.43957,-0.24149 2.61686,-0.69449 3.47851,-1.55469 0.86165,-0.86019 1.31671,-2.03525 1.55859,-3.472653 0.24189,-1.4374 0.29297,-3.187 0.29297,-5.41016 z"
         id="path1020"
         inkscape:connector-curvature="0"
         sodipodi:nodetypes="sccsccccccsscccscsccsss" />
      <path
         style="color:#000000;display:inline;overflow:visible;visibility:visible;opacity:0.1;fill:#000000;fill-opacity:1;fill-rule:nonzero;stroke:none;stroke-width:2;marker:none;filter:url(#filter4346);enable-background:accumulate"
         d="M 189.84323,74 C 119.24979,74 111.65402,81.250835 112,151.98706 V 298 444.01294 C 111.65402,514.74917 119.24979,522 189.84323,522 H 386.15677 C 456.75021,522 462.16345,514.72616 464,444.01294 V 298 151.98706 C 464,81.249993 456.75021,74 386.15677,74 Z"
         id="rect4158-9"
         inkscape:connector-curvature="0"
         sodipodi:nodetypes="scccssscsss"
         transform="matrix(0,0.5,-0.5,0,300.9973,13.002698)" />
      <path
         style="color:#000000;display:inline;overflow:visible;visibility:visible;opacity:0.1;fill:#000000;fill-opacity:1;fill-rule:nonzero;stroke:none;stroke-width:1.02029;marker:none;enable-background:accumulate"
         d="m 265.9973,105.8091 c 0,-36.098811 -3.69016,-39.983003 -39.68984,-39.806081 H 151.9973 77.687136 c -35.99969,-0.176922 -39.68984,3.70727 -39.68984,39.806081 v 100.38732 c 0,36.09881 3.68973,39.80608 39.68984,39.80608 h 74.310164 74.31016 c 36.00011,0 39.68984,-3.70727 39.68984,-39.80608 z"
         id="rect4158-7"
         inkscape:connector-curvature="0"
         sodipodi:nodetypes="scccssscsss" />
      <path
         style="color:#000000;display:inline;overflow:visible;visibility:visible;fill:#4d4d4d;fill-opacity:1;fill-rule:nonzero;stroke:none;stroke-width:1;marker:none;enable-background:accumulate"
         d="m 366.49969,75.231076 c 0,-8.23154 -0.90635,-9.77365 -9.74838,-9.7304 h -12.75157 -12.75181 c -8.84203,-0.0433 -9.74838,1.49886 -9.74838,9.7304 v 17.53897 c 0,8.229494 0.90625,9.730394 9.74838,9.730394 h 12.75181 12.75157 c 8.84213,0 9.74838,-1.5009 9.74838,-9.730404 z"
         id="path964"
         inkscape:connector-curvature="0"
         sodipodi:nodetypes="scccssscsss" />
      <path
         id="path4258"
         d="m 345.15766,70.02699 c -5.53252,0.20313 -10.63078,3.61371 -12.64091,9.13649 -2.64782,7.27484 1.04812,15.37485 8.32298,18.02268 5.52276,2.01011 11.49478,0.29029 15.20662,-3.81731 -2.6589,0.85829 -5.61927,0.90445 -8.44812,-0.12515 -6.75522,-2.4587 -10.21846,-9.95333 -7.75976,-16.70852 1.02961,-2.82886 2.95259,-5.02304 5.31919,-6.50819 z m 8.5107,0.60493 -0.56581,2.1042 -2.10421,0.56582 2.10421,0.56582 0.56581,2.10421 0.56582,-2.10421 2.10421,-0.56582 -2.10421,-0.56582 z m -6.67506,3.96332 -0.42502,1.5775 -1.5775,0.42502 1.5775,0.42501 0.42502,1.57751 0.42501,-1.57751 1.57751,-0.42501 -1.57751,-0.42502 z m 8.01008,4.04676 -0.28292,1.0521 -1.0521,0.28291 1.0521,0.28291 0.28292,1.0521 0.2829,-1.0521 1.05211,-0.28291 -1.05211,-0.28291 z m -2.00252,6.67506 -0.42502,1.5775 -1.5775,0.42502 1.5775,0.42501 0.42502,1.57751 0.42501,-1.57751 1.57751,-0.42501 -1.57751,-0.42502 z"
         style="color:#bebebe;display:inline;overflow:visible;visibility:visible;opacity:0.2;fill:#000000;fill-opacity:1;fill-rule:nonzero;stroke:none;stroke-width:1;marker:none;enable-background:accumulate"
         inkscape:connector-curvature="0" />
      <path
         inkscape:connector-curvature="0"
         style="color:#bebebe;display:inline;overflow:visible;visibility:visible;fill:#ffffff;fill-opacity:1;fill-rule:nonzero;stroke:none;stroke-width:1;marker:none;enable-background:accumulate"
         d="m 345.15766,69.02699 c -5.53252,0.20313 -10.63078,3.61371 -12.64091,9.13649 -2.64782,7.27484 1.04812,15.37485 8.32298,18.02268 5.52276,2.01011 11.49478,0.29029 15.20662,-3.81731 -2.6589,0.85829 -5.61927,0.90445 -8.44812,-0.12515 -6.75522,-2.4587 -10.21846,-9.95333 -7.75976,-16.70852 1.02961,-2.82886 2.95259,-5.02304 5.31919,-6.50819 z m 8.5107,0.60493 -0.56581,2.1042 -2.10421,0.56582 2.10421,0.56582 0.56581,2.10421 0.56582,-2.10421 2.10421,-0.56582 -2.10421,-0.56582 z m -6.67506,3.96332 -0.42502,1.5775 -1.5775,0.42502 1.5775,0.42501 0.42502,1.57751 0.42501,-1.57751 1.57751,-0.42501 -1.57751,-0.42502 z m 8.01008,4.04676 -0.28292,1.0521 -1.0521,0.28291 1.0521,0.28291 0.28292,1.0521 0.2829,-1.0521 1.05211,-0.28291 -1.05211,-0.28291 z m -2.00252,6.67506 -0.42502,1.5775 -1.5775,0.42502 1.5775,0.42501 0.42502,1.57751 0.42501,-1.57751 1.57751,-0.42501 -1.57751,-0.42502 z"
         id="path4244" />
      <path
         style="color:#000000;display:inline;overflow:visible;visibility:visible;fill:#4d4d4d;fill-opacity:1;fill-rule:nonzero;stroke:none;stroke-width:1;marker:none;enable-background:accumulate"
         d="m 263.9973,205.07568 c 0,35.29673 -3.62542,39.09461 -38.99353,38.92162 H 151.9973 78.990826 c -35.36812,0.17299 -38.99353,-3.62489 -38.99353,-38.92162 v -98.15676 c 0,-35.296716 3.625,-38.921616 38.99353,-38.921616 h 73.006474 73.00647 c 35.36853,0 38.99353,3.6249 38.99353,38.921616 z"
         id="rect4158"
         inkscape:connector-curvature="0"
         sodipodi:nodetypes="scccssscsss" />
      <path
         inkscape:connector-curvature="0"
         style="color:#bebebe;display:inline;overflow:visible;visibility:visible;opacity:0.2;fill:#000000;fill-opacity:1;fill-rule:nonzero;stroke:none;stroke-width:1;marker:none;enable-background:accumulate"
         d="m 158.42695,76.999994 c -30.71764,1.160774 -59.024135,20.649749 -70.184765,52.208546 -14.70128,41.57047 5.81936,87.85625 46.210755,102.9867 30.66349,11.48635 63.82125,1.65877 84.43018,-21.81315 -14.76277,4.90446 -31.19926,5.16822 -46.90565,-0.71518 -37.50628,-14.04968 -56.73487,-56.87614 -43.08371,-95.47727 5.71663,-16.16491 16.39339,-28.703084 29.53319,-37.189646 z m 47.25311,3.456729 -3.14155,12.024042 -11.68297,3.233249 11.68297,3.233248 3.14155,12.024038 3.14152,-12.024038 11.68297,-3.233248 -11.68297,-3.233249 z m -37.06126,22.647537 -2.35976,9.01432 -8.75863,2.42866 8.75863,2.42865 2.35976,9.01431 2.35975,-9.01431 8.75861,-2.42865 -8.75861,-2.42866 z m 44.4735,23.12434 -1.57078,6.01202 -5.84146,1.61662 5.84146,1.61662 1.57078,6.01203 1.57076,-6.01203 5.84148,-1.61662 -5.84148,-1.61662 z m -11.1184,38.14323 -2.35976,9.0143 -8.7586,2.42866 8.7586,2.42866 2.35976,9.01431 2.35977,-9.01431 8.75863,-2.42866 -8.75863,-2.42866 z"
         id="path4260" />
      <path
         id="path4246"
         d="m 158.42691,75.999998 c -30.71764,1.160784 -59.024171,20.649756 -70.184745,52.208612 -14.701291,41.57043 5.819357,87.85628 46.210765,102.98663 30.66344,11.48635 63.82128,1.65877 84.43025,-21.81315 -14.76282,4.90444 -31.1993,5.16825 -46.90565,-0.71515 -37.50635,-14.04969 -56.73502,-56.87625 -43.08376,-95.47724 5.71665,-16.164957 16.39336,-28.703139 29.53314,-37.189702 z m 47.25317,3.456734 -3.14165,12.024049 -11.68286,3.233236 11.68286,3.233259 3.14165,12.024074 3.14152,-12.024074 11.68298,-3.233259 -11.68298,-3.233236 z m -37.06134,22.647458 -2.3596,9.01435 -8.75879,2.42868 8.75879,2.42878 2.3596,9.01419 2.35986,-9.01419 8.75858,-2.42878 -8.75858,-2.42868 z m 44.47355,23.12438 -1.57082,6.01199 -5.84139,1.61669 5.84139,1.61662 1.57082,6.01206 1.57075,-6.01206 5.84153,-1.61662 -5.84153,-1.61669 z m -11.11834,38.14331 -2.35988,9.01425 -8.7585,2.42859 8.7585,2.42874 2.35988,9.01433 2.35974,-9.01433 8.7586,-2.42874 -8.7586,-2.42859 z"
         style="color:#bebebe;display:inline;overflow:visible;visibility:visible;fill:#ffffff;fill-opacity:1;fill-rule:nonzero;stroke:none;stroke-width:1;marker:none;enable-background:accumulate"
         inkscape:connector-curvature="0" />
      <path
         sodipodi:nodetypes="scccssscsss"
         inkscape:connector-curvature="0"
         id="path914"
         d="m 343.49979,195.636 c 0,-4.65703 -0.47377,-5.15811 -5.09574,-5.13529 h -6.40426 -6.40425 c -4.62197,-0.0229 -5.09574,0.47826 -5.09574,5.13529 v 8.7287 c 0,4.65703 0.47371,5.13529 5.09574,5.13529 h 6.40425 6.40426 c 4.62202,0 5.09574,-0.47827 5.09574,-5.1353 z"
         style="color:#000000;display:inline;overflow:visible;visibility:visible;fill:#4d4d4d;fill-opacity:1;fill-rule:nonzero;stroke:none;stroke-width:1;marker:none;enable-background:accumulate" />
      <path
         inkscape:connector-curvature="0"
         style="color:#bebebe;display:inline;overflow:visible;visibility:visible;opacity:0.2;fill:#000000;fill-opacity:1;fill-rule:nonzero;stroke:none;stroke-width:1;marker:none;enable-background:accumulate"
         d="m 332.57881,193.60001 c -2.76626,0.10157 -5.31538,1.80685 -6.32044,4.56826 -1.32392,3.63741 0.52406,7.68741 4.16148,9.01134 2.76138,1.00505 5.74739,0.14513 7.60332,-1.90866 -1.32946,0.42913 -2.80964,0.45221 -4.22406,-0.0626 -3.37762,-1.22934 -5.10923,-4.97666 -3.87989,-8.35427 0.51481,-1.41442 1.47631,-2.51151 2.65959,-3.25408 z m 4.25536,0.30248 -0.28291,1.0521 -1.05211,0.2829 1.05211,0.28291 0.28291,1.0521 0.28291,-1.0521 1.0521,-0.28291 -1.0521,-0.2829 z m -3.33753,1.98165 -0.21251,0.78875 -0.78876,0.21251 0.78876,0.2125 0.21251,0.78875 0.2125,-0.78875 0.78876,-0.2125 -0.78876,-0.21251 z m 4.00503,2.02337 -0.14145,0.52605 -0.52605,0.14146 0.52605,0.14146 0.14145,0.52606 0.14146,-0.52606 0.52605,-0.14146 -0.52605,-0.14146 z m -1.00126,3.33755 -0.21251,0.78874 -0.78875,0.21251 0.78875,0.21251 0.21251,0.78875 0.21251,-0.78875 0.78875,-0.21251 -0.78875,-0.21251 z"
         id="path4264" />
      <path
         id="path4250"
         d="m 332.57881,192.60001 c -2.76626,0.10157 -5.31538,1.80685 -6.32044,4.56826 -1.32392,3.63741 0.52406,7.68741 4.16148,9.01134 2.76138,1.00505 5.74739,0.14513 7.60332,-1.90866 -1.32946,0.42913 -2.80964,0.45221 -4.22406,-0.0626 -3.37762,-1.22934 -5.10923,-4.97666 -3.87989,-8.35427 0.51481,-1.41442 1.47631,-2.51151 2.65959,-3.25408 z m 4.25536,0.30248 -0.28291,1.0521 -1.05211,0.2829 1.05211,0.28291 0.28291,1.0521 0.28291,-1.0521 1.0521,-0.28291 -1.0521,-0.2829 z m -3.33753,1.98165 -0.21251,0.78875 -0.78876,0.21251 0.78876,0.2125 0.21251,0.78875 0.2125,-0.78875 0.78876,-0.2125 -0.78876,-0.21251 z m 4.00503,2.02337 -0.14145,0.52605 -0.52605,0.14146 0.52605,0.14146 0.14145,0.52606 0.14146,-0.52606 0.52605,-0.14146 -0.52605,-0.14146 z m -1.00126,3.33755 -0.21251,0.78874 -0.78875,0.21251 0.78875,0.21251 0.21251,0.78875 0.21251,-0.78875 0.78875,-0.21251 -0.78875,-0.21251 z"
         style="color:#bebebe;display:inline;overflow:visible;visibility:visible;fill:#ffffff;fill-opacity:1;fill-rule:nonzero;stroke:none;stroke-width:1;marker:none;enable-background:accumulate"
         inkscape:connector-curvature="0" />
      <path
         style="color:#000000;display:inline;overflow:visible;visibility:visible;fill:#4d4d4d;fill-opacity:1;fill-rule:nonzero;stroke:none;stroke-width:1;marker:none;enable-background:accumulate"
         d="m 335.5,240.8545 c 0,-3.04166 -0.30899,-3.36894 -3.32331,-3.35403 H 328 323.8233 c -3.01432,-0.0149 -3.3233,0.31237 -3.3233,3.35403 v 6.29146 c 0,3.04167 0.30894,3.35404 3.3233,3.35404 H 328 h 4.17669 c 3.01434,0 3.32331,-0.31238 3.32331,-3.35404 z"
         id="path918"
         inkscape:connector-curvature="0"
         sodipodi:nodetypes="scccssscsss" />
      <path
         inkscape:connector-curvature="0"
         style="color:#bebebe;display:inline;overflow:visible;visibility:visible;fill:#ffffff;fill-opacity:1;fill-rule:nonzero;stroke:none;stroke-width:0.858162;marker:none;enable-background:accumulate"
         d="m 328.42593,238.86419 c -2.03475,0.0751 -3.90979,1.32903 -4.64915,3.36023 -0.97381,2.67556 0.38546,5.65462 3.06106,6.62845 2.03119,0.73929 4.22761,0.10676 5.59276,-1.40395 -0.97789,0.31566 -2.06668,0.33264 -3.10707,-0.0462 -2.48448,-0.90427 -3.75819,-3.66069 -2.85394,-6.14508 0.3787,-1.04044 1.08596,-1.84745 1.95634,-2.39364 z m 3.1301,0.22251 -0.20811,0.77384 -0.77389,0.20814 0.77389,0.20805 0.20811,0.77393 0.20809,-0.77393 0.77388,-0.20805 -0.77388,-0.20814 z m -2.45497,1.45764 -0.15634,0.58011 -0.5802,0.1563 0.5802,0.15636 0.15634,0.5802 0.1563,-0.5802 0.58017,-0.15636 -0.58017,-0.1563 z m 2.94595,1.48832 -0.10404,0.38691 -0.38694,0.10408 0.38694,0.10399 0.10404,0.38701 0.10405,-0.38701 0.38694,-0.10399 -0.38694,-0.10408 z m -0.73649,2.45496 -0.15631,0.58017 -0.58018,0.15631 0.58018,0.15629 0.15631,0.5802 0.1563,-0.5802 0.58019,-0.15629 -0.58019,-0.15631 z"
         id="path4252" />
      <path
         style="color:#000000;display:inline;overflow:visible;visibility:visible;opacity:0.4;fill:none;fill-opacity:1;fill-rule:nonzero;stroke:#000000;stroke-width:1;stroke-miterlimit:4;stroke-dasharray:none;stroke-opacity:1;marker:none;enable-background:accumulate"
         d="m 366.49969,75.231076 c 0,-8.23154 -0.90635,-9.77365 -9.74838,-9.7304 h -12.75157 -12.75181 c -8.84203,-0.0433 -9.74838,1.49886 -9.74838,9.7304 v 17.53897 c 0,8.229494 0.90625,9.730394 9.74838,9.730394 h 12.75181 12.75157 c 8.84213,0 9.74838,-1.5009 9.74838,-9.730404 z"
         id="path958"
         inkscape:connector-curvature="0"
         sodipodi:nodetypes="scccssscsss" />
      <path
         style="color:#000000;display:inline;overflow:visible;visibility:visible;fill:#4d4d4d;fill-opacity:1;fill-rule:nonzero;stroke:none;stroke-width:1;marker:none;enable-background:accumulate"
         d="m 350.49976,142.07508 c 0,-5.56175 -0.58409,-6.6037 -6.28227,-6.57447 h -8.21765 -8.21781 c -5.69818,-0.0293 -6.28227,1.01272 -6.28227,6.57447 v 11.85044 c 0,5.56037 0.58403,6.57447 6.28227,6.57447 h 8.21781 8.21765 c 5.69824,0 6.28227,-1.0141 6.28227,-6.57447 z"
         id="path964-7"
         inkscape:connector-curvature="0"
         sodipodi:nodetypes="scccssscsss" />
      <path
         id="path4262"
         d="m 336.82693,138.58799 c -3.9518,0.1451 -7.59341,2.58122 -9.02922,6.52607 -1.8913,5.19631 0.74866,10.98203 5.94498,12.87334 3.94484,1.43579 8.21056,0.20734 10.86188,-2.72665 -1.89922,0.61306 -4.01377,0.64603 -6.03438,-0.0894 -4.82516,-1.7562 -7.2989,-7.10951 -5.54269,-11.93465 0.73544,-2.02061 2.109,-3.58789 3.79943,-4.64871 z m 6.07908,0.4321 -0.40416,1.503 -1.50301,0.40416 1.50301,0.40415 0.40416,1.50301 0.40415,-1.50301 1.503,-0.40415 -1.503,-0.40416 z m -4.76791,2.83094 -0.30358,1.12679 -1.12679,0.30358 1.12679,0.30358 0.30358,1.12679 0.30358,-1.12679 1.12679,-0.30358 -1.12679,-0.30358 z m 5.72148,2.89054 -0.20208,0.7515 -0.7515,0.20208 0.7515,0.20208 0.20208,0.7515 0.20209,-0.7515 0.75149,-0.20208 -0.75149,-0.20208 z m -1.43037,4.7679 -0.30358,1.12679 -1.12679,0.30358 1.12679,0.30358 0.30358,1.12679 0.30358,-1.12679 1.12679,-0.30358 -1.12679,-0.30358 z"
         style="color:#bebebe;display:inline;overflow:visible;visibility:visible;opacity:0.2;fill:#000000;fill-opacity:1;fill-rule:nonzero;stroke:none;stroke-width:1;marker:none;enable-background:accumulate"
         inkscape:connector-curvature="0" />
      <path
         inkscape:connector-curvature="0"
         style="color:#bebebe;display:inline;overflow:visible;visibility:visible;fill:#ffffff;fill-opacity:1;fill-rule:nonzero;stroke:none;stroke-width:1;marker:none;enable-background:accumulate"
         d="m 336.82693,137.588 c -3.9518,0.14509 -7.59341,2.58122 -9.02922,6.52606 -1.8913,5.19631 0.74866,10.98204 5.94498,12.87335 3.94484,1.43579 8.21056,0.20734 10.86188,-2.72665 -1.89922,0.61306 -4.01377,0.64603 -6.03438,-0.0894 -4.82516,-1.75621 -7.2989,-7.10952 -5.54269,-11.93466 0.73544,-2.02061 2.109,-3.58788 3.79943,-4.6487 z m 6.07908,0.43209 -0.40416,1.503 -1.50301,0.40416 1.50301,0.40416 0.40416,1.503 0.40415,-1.503 1.503,-0.40416 -1.503,-0.40416 z m -4.76791,2.83094 -0.30358,1.12679 -1.12679,0.30358 1.12679,0.30358 0.30358,1.12679 0.30358,-1.12678 1.12679,-0.30359 -1.12679,-0.30358 z m 5.72148,2.89054 -0.20208,0.7515 -0.7515,0.20208 0.7515,0.20208 0.20208,0.7515 0.20209,-0.7515 0.75149,-0.20208 -0.75149,-0.20208 z m -1.43037,4.76791 -0.30358,1.12678 -1.12679,0.30359 1.12679,0.30358 0.30358,1.12679 0.30358,-1.12679 1.12679,-0.30358 -1.12679,-0.30359 z"
         id="path4248" />
      <path
         style="color:#000000;display:inline;overflow:visible;visibility:visible;opacity:0.4;fill:none;fill-opacity:1;fill-rule:nonzero;stroke:#000000;stroke-width:1;stroke-miterlimit:4;stroke-dasharray:none;stroke-opacity:1;marker:none;enable-background:accumulate"
         d="m 350.49976,142.07508 c 0,-5.56175 -0.58409,-6.6037 -6.28227,-6.57447 h -8.21765 -8.21781 c -5.69818,-0.0293 -6.28227,1.01272 -6.28227,6.57447 v 11.85044 c 0,5.56037 0.58403,6.57447 6.28227,6.57447 h 8.21781 8.21765 c 5.69824,0 6.28227,-1.0141 6.28227,-6.57447 z"
         id="path958-1"
         inkscape:connector-curvature="0"
         sodipodi:nodetypes="scccssscsss" />
      <path
         transform="matrix(0,0.66664182,-0.63636364,0,389.45431,-81.324786)"
         sodipodi:nodetypes="scccssscsss"
         inkscape:connector-curvature="0"
         id="path990-8"
         d="m 335.73108,62 c -8.82418,0 -9.77365,0.90635 -9.7304,9.74838 V 84 96.25162 c -0.0433,8.84203 0.90622,9.74838 9.7304,9.74838 h 16.53919 c 8.82418,0 9.7304,-0.90625 9.7304,-9.74838 V 84 71.74838 C 362.00067,62.90625 361.09445,62 352.27027,62 Z"
         style="color:#000000;display:inline;overflow:visible;visibility:visible;opacity:0.3;fill:none;fill-opacity:1;fill-rule:nonzero;stroke:url(#linearGradient1004-8);stroke-width:3.07066;stroke-miterlimit:4;stroke-dasharray:none;stroke-opacity:1;marker:none;enable-background:accumulate"
         clip-path="url(#clipPath994-1)" />
      <path
         sodipodi:nodetypes="scccssscsss"
         inkscape:connector-curvature="0"
         id="path990"
         d="m 335.73108,62 c -8.82418,0 -9.77365,0.90635 -9.7304,9.74838 V 84 96.25162 c -0.0433,8.84203 0.90622,9.74838 9.7304,9.74838 h 16.53919 c 8.82418,0 9.7304,-0.90625 9.7304,-9.74838 V 84 71.74838 C 362.00067,62.90625 361.09445,62 352.27027,62 Z"
         style="color:#000000;display:inline;overflow:visible;visibility:visible;opacity:0.3;fill:none;fill-opacity:1;fill-rule:nonzero;stroke:url(#linearGradient1004);stroke-width:2;stroke-miterlimit:4;stroke-dasharray:none;stroke-opacity:1;marker:none;enable-background:accumulate"
         clip-path="url(#clipPath994)"
         transform="rotate(90,343.99981,83.99981)" />
      <path
         sodipodi:nodetypes="scccssscsss"
         inkscape:connector-curvature="0"
         id="path935"
         d="m 327.8652,189 c -4.41209,0 -4.88682,0.45318 -4.8652,4.87419 V 200 206.12581 C 322.9783,210.54682 323.45311,211 327.8652,211 h 8.2696 C 340.54689,211 341,210.54688 341,206.12581 V 200 193.87419 C 341,189.45313 340.54688,189 336.13479,189 Z"
         style="color:#000000;display:inline;overflow:visible;visibility:visible;opacity:0.3;fill:none;fill-opacity:1;fill-rule:nonzero;stroke:url(#linearGradient981);stroke-width:2;stroke-miterlimit:4;stroke-dasharray:none;stroke-opacity:1;marker:none;enable-background:accumulate"
         clip-path="url(#clipPath971)"
         transform="rotate(90,331.99973,200.00007)" />
      <path
         style="color:#000000;display:inline;overflow:visible;visibility:visible;opacity:0.3;fill:none;fill-opacity:1;fill-rule:nonzero;stroke:url(#linearGradient993);stroke-width:2;stroke-miterlimit:4;stroke-dasharray:none;stroke-opacity:1;marker:none;enable-background:accumulate"
         d="m 325.09646,237 c -2.80769,0 -3.10979,0.28839 -3.09603,3.10176 V 244 v 3.89824 c -0.0138,2.81337 0.28834,3.10176 3.09603,3.10176 h 5.8075 C 333.71166,251 334,250.71165 334,247.89824 V 244 240.10176 C 334,237.28836 333.71165,237 330.90396,237 Z"
         id="path937"
         inkscape:connector-curvature="0"
         sodipodi:nodetypes="scccssscsss"
         clip-path="url(#clipPath983)"
         transform="rotate(90,328,244)" />
      <path
         style="color:#000000;display:inline;overflow:visible;visibility:visible;opacity:0.3;fill:#ffffff;fill-opacity:1;fill-rule:nonzero;stroke:none;stroke-width:1;marker:none;enable-background:accumulate"
         d="m 78.989456,67.998047 c -35.36853,0 -38.992187,3.623202 -38.992187,38.919923 v 98.1582 c 0,0.0882 0.0019,0.16224 0.002,0.25 v -96.41015 c 0,-35.29672 3.625611,-38.921879 38.994141,-38.921879 h 73.00586 73.00586 c 35.28016,0 38.97394,3.621035 38.99219,38.671879 v -1.74805 c 0,-35.296721 -3.62561,-38.919923 -38.99414,-38.919923 h -73.00586 z"
         id="rect4158-78" />
      <path
         style="color:#000000;display:inline;overflow:visible;visibility:visible;opacity:0.2;fill:#000000;fill-opacity:1;fill-rule:nonzero;stroke:none;stroke-width:1;marker:none;enable-background:accumulate"
         d="m 39.997294,203.07617 v 2 c 0,35.29673 3.624067,39.09487 38.992187,38.92188 h 73.007819 73.00586 c 35.36811,0.17299 38.99414,-3.62515 38.99414,-38.92188 v -2 c 0,35.29673 -3.62603,39.09487 -38.99414,38.92188 H 151.9973 78.989481 c -35.36812,0.17299 -38.992187,-3.62515 -38.992187,-38.92188 z"
         id="rect4158-6" />
      <path
         style="color:#000000;display:inline;overflow:visible;visibility:visible;opacity:0.4;fill:none;fill-opacity:1;fill-rule:nonzero;stroke:#000000;stroke-width:0.976529;stroke-miterlimit:4;stroke-dasharray:none;stroke-opacity:1;marker:none;enable-background:accumulate"
         d="m 343.51153,195.49156 c 0,-4.23214 -0.46371,-5.02499 -4.98757,-5.00275 h -6.5241 -6.52423 c -4.52386,-0.0222 -4.98757,0.77061 -4.98757,5.00275 v 9.01743 c 0,4.23108 0.46366,5.00275 4.98757,5.00275 h 6.52423 6.5241 c 4.52391,0 4.98757,-0.77167 4.98757,-5.00275 z"
         id="path958-6"
         inkscape:connector-curvature="0"
         sodipodi:nodetypes="scccssscsss" />
      <path
         style="color:#000000;display:inline;overflow:visible;visibility:visible;opacity:0.4;fill:none;fill-opacity:1;fill-rule:nonzero;stroke:#000000;stroke-width:0.976529;stroke-miterlimit:4;stroke-dasharray:none;stroke-opacity:1;marker:none;enable-background:accumulate"
         d="m 335.51173,240.91355 c 0,-2.89732 -0.30259,-3.44011 -3.25454,-3.42488 h -4.25716 -4.25724 c -2.95195,-0.0152 -3.25453,0.52756 -3.25453,3.42488 v 6.17331 c 0,2.8966 0.30255,3.42488 3.25453,3.42488 h 4.25724 4.25716 c 2.95199,0 3.25454,-0.52828 3.25454,-3.42488 z"
         id="path958-6-0"
         inkscape:connector-curvature="0"
         sodipodi:nodetypes="scccssscsss" />
      <path
         style="color:#000000;display:inline;overflow:visible;visibility:visible;opacity:0.05;fill:#ffffff;fill-opacity:1;fill-rule:nonzero;stroke:none;stroke-width:1.00002;marker:none;enable-background:accumulate"
         d="m 39.997294,148 v 57.07616 c 0,35.29686 3.624067,39.09487 38.992184,38.92189 h 73.007822 73.00586 c 35.36811,0.17298 38.99414,-3.62503 38.99414,-38.92189 V 148 Z"
         id="rect4158-1" />
    </g>
    <g
       inkscape:groupmode="layer"
       id="layer6"
       inkscape:label="Pictograms"
       style="display:inline" />
  </g>
</svg>
