<svg width="16" height="16.001" version="1.1" xmlns="http://www.w3.org/2000/svg">
<g fill="#808080">
<path d="m7.5 0c-1.1 0-2.1445 0.32031-2.1445 0.32031l-0.35547 0.10742v1.6836a13.88 13.88 0 0 0-2.998 0.88867l-0.0019531 1h-1v1h1l0.0039062 9c0 0.439 0.040391 0.78803 0.15039 1.082 0.111 0.294 0.3105 0.52797 0.5625 0.66797 0.503 0.28 1.1201 0.25 1.9531 0.25h5.6641c0.833 0 1.4501 0.03 1.9531-0.25 0.252-0.14 0.45055-0.37397 0.56055-0.66797s0.15234-0.64303 0.15234-1.082l-0.001953-8h-1l0.001953 8c0 0.376-0.039891 0.60252-0.087891 0.72852-0.034 0.09-0.077375 0.12948-0.10938 0.14648-0.173 0.097-0.61175 0.125-1.4688 0.125h-5.6641c-0.857 0-1.2948-0.028-1.4688-0.125a0.267 0.267 0 0 1-0.11328-0.14648v-0.001954c-0.046-0.122-0.083984-0.34756-0.083984-0.72656v-0.001953l-0.0039062-8.998h11v-1h-1.002l0.001953-1a13.855 13.855 0 0 0-3-0.88867v-1.6621l-0.33008-0.11914s-0.91292-0.32812-2.1699-0.32812v-0.0019531zm0 1c0.89 0 1.29 0.1557 1.5 0.2207v0.73828a14.05 14.05 0 0 0-1.498-0.083984c-0.502 0-1.003 0.031938-1.502 0.085938v-0.73438c0.266-0.07 0.772-0.22656 1.5-0.22656z"/>
<path d="m5 6v6h1v-6z"/>
<path d="m7 6v6h1v-6z"/>
<path d="m9 6v6h1v-6z"/>
</g>
</svg>
