<svg width="16" height="16.001" version="1.1" xmlns="http://www.w3.org/2000/svg">
<g fill="#808080">
<path d="m7.5 0c-1.1 0-2.1445 0.32031-2.1445 0.32031l-0.35547 0.10742v1.6836c-1.023 0.186-2.03 0.47367-2.998 0.88867v1h-1v1h1v9c0 0.439 0.040391 0.78803 0.15039 1.082 0.111 0.294 0.3105 0.52797 0.5625 0.66797 0.503 0.28 1.1201 0.25 1.9531 0.25h3.3301v-1h-3.3301c-0.857 0-1.2948-0.028-1.4688-0.125a0.266 0.266 0 0 1-0.11328-0.14648v-0.001954c-0.046-0.122-0.083984-0.34756-0.083984-0.72656v-9h11v-1h-1.002v-1a13.856 13.856 0 0 0-3-0.88867v-1.6621l-0.33008-0.11914s-0.91292-0.33008-2.1699-0.33008zm0 1c0.89 0 1.291 0.1557 1.5 0.2207v0.73828a14.048 14.048 0 0 0-1.498-0.083984c-0.501 0-1.003 0.031938-1.502 0.085938v-0.73438c0.266-0.07 0.773-0.22656 1.5-0.22656z"/>
<path d="m5 6v6h1v-6z"/>
<path d="m7 6v6h1v-6z"/>
<path d="m9 6v4h1v-4z"/>
<path d="m11.998 6v2h1v-2z"/>
<path d="m11.5 9a0.5 0.5 0 0 0-0.35352 0.85352l0.55664 0.55664c-0.298 0.165-0.49795 0.24895-1.002 0.62695-0.396 0.297-0.80105 0.64683-1.123 1.0488-0.322 0.402-0.57812 0.87206-0.57812 1.4141 0 0.861 0.34538 1.5863 0.98438 1.9863 0.64 0.4 1.4736 0.51367 2.5156 0.51367s1.8756-0.11367 2.5156-0.51367 0.98438-1.1253 0.98438-1.9863c0-0.542-0.25612-1.0121-0.57812-1.4141-0.322-0.402-0.72509-0.75183-1.1211-1.0488-0.505-0.379-0.70691-0.46195-1.0039-0.62695l0.55664-0.55664a0.5 0.5 0 0 0-0.35352-0.85352h-2zm1 2.0879c0.174 0.091 0.60517 0.303 1.2012 0.75 0.354 0.265 0.69845 0.57205 0.93945 0.87305 0.24 0.3 0.35938 0.58006 0.35938 0.78906 0 0.639-0.15462 0.91367-0.51562 1.1387-0.36 0.225-1.0264 0.36133-1.9844 0.36133s-1.6244-0.13633-1.9844-0.36133-0.51562-0.49967-0.51562-1.1387c0-0.208 0.11838-0.48706 0.35938-0.78906 0.24-0.3 0.58841-0.60805 0.94141-0.87305 0.597-0.447 1.0242-0.658 1.1992-0.75z" color="#000000" fill-rule="evenodd" style="font-feature-settings:normal;font-variant-alternates:normal;font-variant-caps:normal;font-variant-ligatures:normal;font-variant-numeric:normal;font-variant-position:normal;isolation:auto;mix-blend-mode:normal;shape-padding:0;text-decoration-color:#000000;text-decoration-line:none;text-decoration-style:solid;text-indent:0;text-orientation:mixed;text-transform:none;white-space:normal"/>
</g>
</svg>
