<?xml version="1.0" encoding="UTF-8" standalone="no"?>
<svg
   xmlns:dc="http://purl.org/dc/elements/1.1/"
   xmlns:cc="http://creativecommons.org/ns#"
   xmlns:rdf="http://www.w3.org/1999/02/22-rdf-syntax-ns#"
   xmlns:svg="http://www.w3.org/2000/svg"
   xmlns="http://www.w3.org/2000/svg"
   xmlns:sodipodi="http://sodipodi.sourceforge.net/DTD/sodipodi-0.dtd"
   xmlns:inkscape="http://www.inkscape.org/namespaces/inkscape"
   height="24"
   width="24"
   version="1.1"
   id="svg12"
   sodipodi:docname="alarm.svg"
   inkscape:version="0.92.3 (2405546, 2018-03-11)">
  <metadata
     id="metadata18">
    <rdf:RDF>
      <cc:Work
         rdf:about="">
        <dc:format>image/svg+xml</dc:format>
        <dc:type
           rdf:resource="http://purl.org/dc/dcmitype/StillImage" />
        <dc:title></dc:title>
      </cc:Work>
    </rdf:RDF>
  </metadata>
  <defs
     id="defs16" />
  <sodipodi:namedview
     pagecolor="#ffffff"
     bordercolor="#666666"
     borderopacity="1"
     objecttolerance="10"
     gridtolerance="10"
     guidetolerance="10"
     inkscape:pageopacity="0"
     inkscape:pageshadow="2"
     inkscape:window-width="640"
     inkscape:window-height="480"
     id="namedview14"
     showgrid="false"
     inkscape:zoom="9"
     inkscape:cx="0.80248735"
     inkscape:cy="-0.76780815"
     inkscape:current-layer="svg12" />
  <g
     id="g10"
     style="fill:#dfdfdf;fill-opacity:1"
     transform="translate(4,4)">
    <path
       d="m 12.436,12.706 c 0,0.003 0.01,0.006 0.01,0.01 0,0.005 0.01,0.01 0.01,0.015 z m -8.879,0.002 -0.02,0.026 c 0,-0.005 0.01,-0.01 0.01,-0.015 0,-0.003 0.01,-0.006 0.01,-0.01 z"
       style="font-weight:400;font-size:15px;line-height:125%;font-family:Ubuntu;-inkscape-font-specification:Ubuntu;text-align:center;letter-spacing:0;word-spacing:0;text-anchor:middle;fill:#dfdfdf;fill-opacity:1"
       font-weight="400"
       font-size="15"
       letter-spacing="0"
       word-spacing="0"
       id="path2"
       inkscape:connector-curvature="0" />
    <path
       d="M 8,0 C 3.587,0 0,3.587 0,8 c 0,4.413 3.587,8 8,8 4.414,0 8,-3.587 8,-8 C 16,3.587 12.414,0 8,0 Z M 8,1 A 7,7 0 0 1 15,8 7,7 0 0 1 8,15 7,7 0 0 1 1,8 7,7 0 0 1 8,1 Z"
       style="color:#000000;font-weight:400;line-height:normal;font-family:sans-serif;font-variant-ligatures:none;font-variant-position:normal;font-variant-caps:normal;font-variant-numeric:normal;font-variant-alternates:normal;font-feature-settings:normal;text-indent:0;text-align:start;text-decoration:none;text-decoration-line:none;text-decoration-style:solid;text-decoration-color:#000000;text-transform:none;white-space:normal;shape-padding:0;overflow:visible;isolation:auto;mix-blend-mode:normal;fill:#dfdfdf;fill-opacity:1;marker:none"
       font-weight="400"
       overflow="visible"
       id="path4"
       inkscape:connector-curvature="0" />
    <path
       d="m 14.737,1.263 c -1.684,-1.684 -2.526,-1.684 -4.21,0 l -0.15,0.15 a 5.954,5.954 0 0 1 2.676,1.534 5.956,5.956 0 0 1 1.536,2.674 l 0.148,-0.147 c 1.684,-1.685 1.684,-2.527 0,-4.21 z m -13.474,0 c -1.684,1.684 -1.684,2.526 0,4.21 l 0.15,0.15 A 5.955,5.955 0 0 1 2.947,2.947 5.955,5.955 0 0 1 5.621,1.411 L 5.474,1.263 C 3.79,-0.42 2.947,-0.42 1.264,1.263 Z"
       style="color:#000000;overflow:visible;fill:#dfdfdf;fill-opacity:1;marker:none"
       overflow="visible"
       id="path6"
       inkscape:connector-curvature="0" />
    <path
       d="m 7.5,3 v 5.207 l 3.146,3.147 0.707,-0.708 L 8.5,7.793 V 3 Z"
       style="color:#000000;font-weight:400;line-height:normal;font-family:sans-serif;font-variant-ligatures:normal;font-variant-position:normal;font-variant-caps:normal;font-variant-numeric:normal;font-variant-alternates:normal;font-feature-settings:normal;text-indent:0;text-align:start;text-decoration:none;text-decoration-line:none;text-decoration-style:solid;text-decoration-color:#000000;text-transform:none;text-orientation:mixed;white-space:normal;shape-padding:0;overflow:visible;isolation:auto;mix-blend-mode:normal;fill:#dfdfdf;fill-opacity:1;fill-rule:evenodd"
       font-weight="400"
       overflow="visible"
       id="path8"
       inkscape:connector-curvature="0" />
  </g>
</svg>
