<?xml version="1.0" encoding="UTF-8" standalone="no"?>
<svg
   xmlns:dc="http://purl.org/dc/elements/1.1/"
   xmlns:cc="http://creativecommons.org/ns#"
   xmlns:rdf="http://www.w3.org/1999/02/22-rdf-syntax-ns#"
   xmlns:svg="http://www.w3.org/2000/svg"
   xmlns="http://www.w3.org/2000/svg"
   xmlns:sodipodi="http://sodipodi.sourceforge.net/DTD/sodipodi-0.dtd"
   xmlns:inkscape="http://www.inkscape.org/namespaces/inkscape"
   height="24"
   width="24"
   version="1.1"
   id="svg6"
   sodipodi:docname="appointment-soon.svg"
   inkscape:version="0.92.3 (2405546, 2018-03-11)">
  <metadata
     id="metadata12">
    <rdf:RDF>
      <cc:Work
         rdf:about="">
        <dc:format>image/svg+xml</dc:format>
        <dc:type
           rdf:resource="http://purl.org/dc/dcmitype/StillImage" />
        <dc:title></dc:title>
      </cc:Work>
    </rdf:RDF>
  </metadata>
  <defs
     id="defs10" />
  <sodipodi:namedview
     pagecolor="#ffffff"
     bordercolor="#666666"
     borderopacity="1"
     objecttolerance="10"
     gridtolerance="10"
     guidetolerance="10"
     inkscape:pageopacity="0"
     inkscape:pageshadow="2"
     inkscape:window-width="640"
     inkscape:window-height="480"
     id="namedview8"
     showgrid="true"
     inkscape:zoom="18.25"
     inkscape:cx="-1.5890411"
     inkscape:cy="9.7534247"
     inkscape:current-layer="svg6">
    <inkscape:grid
       type="xygrid"
       id="grid826" />
  </sodipodi:namedview>
  <g
     id="g824"
     transform="translate(2.994,-4)">
    <path
       inkscape:connector-curvature="0"
       id="path2"
       overflow="visible"
       font-weight="400"
       style="color:#000000;font-weight:400;line-height:normal;font-family:sans-serif;text-indent:0;text-align:start;text-decoration:none;text-decoration-line:none;text-decoration-style:solid;text-decoration-color:#000000;text-transform:none;white-space:normal;overflow:visible;isolation:auto;mix-blend-mode:normal;fill:#dfdfdf;fill-opacity:1;marker:none"
       d="M 6,8 5,8.25 V 9 h 1 z m 0,1 v 1 H 5 V 9 C 3.742,9.015 2.821,8.97 2.069,9.385 1.692,9.593 1.393,9.945 1.229,10.383 1.064,10.822 1.006,11.343 1.006,12 v 8 c 0,0.658 0.058,1.179 0.223,1.617 0.164,0.44 0.463,0.789 0.84,0.997 C 2.821,23.029 3.742,22.986 5,23 H 8.004 V 22 H 5 C 3.74,21.986 2.913,21.94 2.547,21.739 2.364,21.637 2.257,21.526 2.16,21.266 2.062,21.006 2,20.593 2,20 V 15 C 2,14.408 2.063,13.995 2.16,13.735 2.258,13.475 2.364,13.363 2.547,13.262 2.914,13.06 3.742,13.015 5.006,13 H 11 c 1.26,0.015 2.087,0.06 2.453,0.262 0.184,0.101 0.29,0.213 0.387,0.473 C 13.938,13.995 14,15 14,15 v 2 h 1 v -5 c 0,-0.657 -0.06,-1.178 -0.225,-1.617 A 1.88,1.88 0 0 0 13.938,9.385 C 13.185,8.97 12.264,9.015 11.006,9 v 1 h -1 V 9 Z m 4,0 h 1 V 8 l -1,0.25 z" />
    <path
       inkscape:connector-curvature="0"
       id="path4"
       overflow="visible"
       font-weight="400"
       style="color:#000000;font-weight:400;line-height:normal;font-family:sans-serif;text-indent:0;text-align:start;text-decoration:none;text-decoration-line:none;text-decoration-style:solid;text-decoration-color:#000000;text-transform:none;white-space:normal;overflow:visible;isolation:auto;mix-blend-mode:normal;fill:#fdc92b;fill-rule:evenodd"
       d="m 12.48,17.729 a 0.443,0.443 0 0 0 -0.36,0.22 L 9.059,23.346 A 0.437,0.437 0 0 0 9.438,24 h 6.125 a 0.437,0.437 0 0 0 0.379,-0.654 l -3.059,-5.397 a 0.442,0.442 0 0 0 -0.402,-0.22 z M 12,19 h 1 v 0.168 c 0,0.349 -0.016,0.668 -0.047,0.957 -0.03,0.29 -0.069,0.581 -0.115,0.875 H 12.172 A 12.898,12.898 0 0 1 12.047,20.125 9.146,9.146 0 0 1 12,19.168 Z m 0.5,3 a 0.5,0.5 0 1 1 0,1 0.5,0.5 0 0 1 0,-1 z"
       class="warning" />
  </g>
</svg>
