<?xml version="1.0" encoding="UTF-8" standalone="no"?>
<svg
   xmlns:dc="http://purl.org/dc/elements/1.1/"
   xmlns:cc="http://creativecommons.org/ns#"
   xmlns:rdf="http://www.w3.org/1999/02/22-rdf-syntax-ns#"
   xmlns:svg="http://www.w3.org/2000/svg"
   xmlns="http://www.w3.org/2000/svg"
   xmlns:sodipodi="http://sodipodi.sourceforge.net/DTD/sodipodi-0.dtd"
   xmlns:inkscape="http://www.inkscape.org/namespaces/inkscape"
   height="24"
   width="24"
   version="1.1"
   id="svg10"
   sodipodi:docname="battery-low-charging.svg"
   inkscape:version="0.92.3 (2405546, 2018-03-11)">
  <metadata
     id="metadata16">
    <rdf:RDF>
      <cc:Work
         rdf:about="">
        <dc:format>image/svg+xml</dc:format>
        <dc:type
           rdf:resource="http://purl.org/dc/dcmitype/StillImage" />
        <dc:title></dc:title>
      </cc:Work>
    </rdf:RDF>
  </metadata>
  <defs
     id="defs14" />
  <sodipodi:namedview
     pagecolor="#ffffff"
     bordercolor="#666666"
     borderopacity="1"
     objecttolerance="10"
     gridtolerance="10"
     guidetolerance="10"
     inkscape:pageopacity="0"
     inkscape:pageshadow="2"
     inkscape:window-width="640"
     inkscape:window-height="480"
     id="namedview12"
     showgrid="false"
     inkscape:zoom="12.904699"
     inkscape:cx="-8.8292672"
     inkscape:cy="6.994228"
     inkscape:current-layer="svg10" />
  <path
     inkscape:connector-curvature="0"
     id="path2"
     style="color:#000000;overflow:visible;fill:#dfdfdf;marker:none;fill-opacity:1"
     overflow="visible"
     d="m 12,17.999982 v -4 h 5 v 4 z" />
  <path
     inkscape:connector-curvature="0"
     id="path4"
     style="color:#000000;font-weight:400;line-height:normal;font-family:sans-serif;font-variant-ligatures:none;font-variant-position:normal;font-variant-caps:normal;font-variant-numeric:normal;font-variant-alternates:normal;font-feature-settings:normal;text-indent:0;text-align:start;text-decoration:none;text-decoration-line:none;text-decoration-style:solid;text-decoration-color:#000000;text-transform:none;white-space:normal;shape-padding:0;overflow:visible;isolation:auto;mix-blend-mode:normal;fill:#dfdfdf;marker:none;fill-opacity:1"
     overflow="visible"
     font-weight="400"
     d="m 10,17.337982 c 0.01,0.839 -0.015,1.451 0.262,1.953 0.138,0.25 0.374,0.45 0.666,0.56 0.292,0.11 0.64,0.15 1.078,0.149 H 17 c 0.439,0 0.786,-0.039 1.078,-0.148 0.293,-0.11 0.526,-0.31 0.664,-0.561 0.277,-0.502 0.248,-1.114 0.258,-1.953 V 8.6349818 c -0.01,-0.839 0.02,-1.454 -0.258,-1.955 a 1.25,1.25 0 0 0 -0.664,-0.559 c -0.292,-0.11 -0.64,-0.117 -1.078,-0.117 h -1 v -1 h -3 v 1 h -0.994 c -0.438,0 -0.786,0.01 -1.078,0.117 -0.293,0.11 -0.528,0.308 -0.666,0.559 -0.277,0.501 -0.252,1.116 -0.262,1.955 z m 1,-0.014 V 8.6319818 c 0.01,-0.852 0.04,-1.297 0.137,-1.474 0.016,-0.03 0.057,-0.073 0.143,-0.106 0.06,-0.023 0.298,-0.053 0.726,-0.053 H 17 c 0.428,0 0.664,0.03 0.727,0.053 0.086,0.032 0.125,0.077 0.14,0.106 0.095,0.172 0.123,0.617 0.133,1.474 v 8.7060002 c -0.01,0.854 -0.038,1.298 -0.133,1.47 -0.016,0.03 -0.055,0.074 -0.14,0.106 -0.123,0.046 -0.349,0.086 -0.727,0.086 h -4.994 c -0.378,0 -0.604,-0.04 -0.727,-0.086 a 0.262,0.262 0 0 1 -0.142,-0.105 c -0.098,-0.178 -0.137,-2.35 -0.137,-1.485 z" />
  <path
     style="fill:#dfdfdf;fill-opacity:1"
     inkscape:connector-curvature="0"
     id="path6"
     d="m 6,18.999982 2.5,-6 H 7 V 7.9999818 L 4.5,13.999982 H 6 Z" />
</svg>
