<?xml version="1.0" encoding="UTF-8" standalone="no"?>
<svg
   xmlns:dc="http://purl.org/dc/elements/1.1/"
   xmlns:cc="http://creativecommons.org/ns#"
   xmlns:rdf="http://www.w3.org/1999/02/22-rdf-syntax-ns#"
   xmlns:svg="http://www.w3.org/2000/svg"
   xmlns="http://www.w3.org/2000/svg"
   xmlns:sodipodi="http://sodipodi.sourceforge.net/DTD/sodipodi-0.dtd"
   xmlns:inkscape="http://www.inkscape.org/namespaces/inkscape"
   height="24"
   width="24"
   version="1.1"
   id="svg8"
   sodipodi:docname="battery-missing.svg"
   inkscape:version="0.92.3 (2405546, 2018-03-11)">
  <metadata
     id="metadata14">
    <rdf:RDF>
      <cc:Work
         rdf:about="">
        <dc:format>image/svg+xml</dc:format>
        <dc:type
           rdf:resource="http://purl.org/dc/dcmitype/StillImage" />
        <dc:title></dc:title>
      </cc:Work>
    </rdf:RDF>
  </metadata>
  <defs
     id="defs12" />
  <sodipodi:namedview
     pagecolor="#ffffff"
     bordercolor="#666666"
     borderopacity="1"
     objecttolerance="10"
     gridtolerance="10"
     guidetolerance="10"
     inkscape:pageopacity="0"
     inkscape:pageshadow="2"
     inkscape:window-width="640"
     inkscape:window-height="480"
     id="namedview10"
     showgrid="true"
     inkscape:zoom="18.25"
     inkscape:cx="-1.5890411"
     inkscape:cy="7.5616438"
     inkscape:current-layer="svg8">
    <inkscape:grid
       type="xygrid"
       id="grid16" />
  </sodipodi:namedview>
  <path
     inkscape:connector-curvature="0"
     id="path2"
     style="color:#000000;font-weight:400;line-height:normal;font-family:sans-serif;font-variant-ligatures:none;font-variant-position:normal;font-variant-caps:normal;font-variant-numeric:normal;font-variant-alternates:normal;font-feature-settings:normal;text-indent:0;text-align:start;text-decoration:none;text-decoration-line:none;text-decoration-style:solid;text-decoration-color:#000000;text-transform:none;white-space:normal;shape-padding:0;overflow:visible;opacity:0.5;isolation:auto;mix-blend-mode:normal;fill:#dfdfdf;marker:none;fill-opacity:1"
     overflow="visible"
     font-weight="400"
     d="m 10.004,4.999 v 1 H 9.01 C 8.572,5.999 8.224,6.006 7.932,6.116 7.639,6.226 7.404,6.424 7.266,6.675 6.989,7.177 7.014,7.791 7.004,8.63 v 8.707 c 0.01,0.839 -0.015,1.451 0.262,1.953 0.138,0.251 0.373,0.45 0.666,0.56 C 8.224,19.96 8.572,20 9.01,20 h 2.65 A 2.184,2.184 0 0 1 10.961,19.743 1.931,1.931 0 0 1 10.787,19.636 1.724,1.724 0 0 1 10.604,19.478 C 10.577,19.452 10.544,19.431 10.52,19.403 A 2.005,2.005 0 0 1 10.248,18.999 H 9.01 c -0.378,0 -0.604,-0.04 -0.727,-0.086 A 0.262,0.262 0 0 1 8.141,18.808 C 8.043,18.63 8.015,18.188 8.004,17.323 V 8.521 L 7.574,7.857 8.061,7.517 C 8.081,7.37 8.101,7.223 8.137,7.157 A 0.266,0.266 0 0 1 8.279,7.052 C 8.321,7.036 8.549,7.024 8.779,7.015 L 9.082,6.804 9.144,6.773 a 6.885,6.885 0 0 1 1.365,-0.522 5.51,5.51 0 0 1 0.746,-0.133 9.38,9.38 0 0 1 0.78,-0.054 l 0.094,-0.028 h 0.158 c 0.355,0 0.688,0.026 1.002,0.08 0.322,0.056 0.624,0.14 0.908,0.264 v 0.002 c 0,0.002 0.016,0 0.016,0.002 a 1,1 0 0 1 0.09,0.045 l 0.492,0.219 v 0.117 c 0.14,0.081 0.283,0.157 0.41,0.25 0.228,0.01 0.474,0.02 0.518,0.037 0.086,0.032 0.125,0.077 0.14,0.106 0.063,0.113 0.092,0.404 0.11,0.792 0.094,0.187 0.178,0.38 0.233,0.58 0.12,0.395 0.19,0.792 0.19,1.184 0,0.4 -0.085,0.784 -0.22,1.149 v 0.07 l -0.07,0.135 c -0.01,0.017 -0.01,0.037 -0.018,0.054 a 1,1 0 0 1 -0.01,0.022 c -0.024,0.049 -0.056,0.094 -0.082,0.142 v 6.051 c -0.01,0.855 -0.038,1.299 -0.133,1.47 -0.016,0.03 -0.055,0.074 -0.14,0.106 -0.123,0.046 -0.349,0.086 -0.727,0.086 H 13.76 c 0,0.008 -0.01,0.015 -0.016,0.023 -0.062,0.115 -0.132,0.22 -0.213,0.319 -0.016,0.02 -0.026,0.044 -0.043,0.062 -0.086,0.096 -0.188,0.18 -0.297,0.254 -0.024,0.017 -0.05,0.031 -0.076,0.047 a 2.02,2.02 0 0 1 -0.2,0.107 2.208,2.208 0 0 1 -0.565,0.188 h 2.646 c 0.439,0 0.786,-0.039 1.078,-0.148 0.293,-0.11 0.526,-0.31 0.664,-0.561 0.277,-0.502 0.248,-1.114 0.258,-1.953 V 8.63 C 16.986,7.79 17.016,7.176 16.738,6.675 A 1.25,1.25 0 0 0 16.074,6.116 C 15.782,6.006 15.434,5.999 14.996,5.999 h -1 v -1 z" />
  <path
     inkscape:connector-curvature="0"
     id="path4"
     word-spacing="0"
     style="font-weight:500;font-size:72.03600311px;line-height:125%;font-family:Ubuntu;-inkscape-font-specification:'Ubuntu Medium';text-align:center;letter-spacing:0;word-spacing:0;text-anchor:middle;fill:#dfdfdf;fill-opacity:1"
     letter-spacing="0"
     font-weight="500"
     font-size="72.036"
     d="m 12.275,7.036 c -0.533,0 -1.037,0.061 -1.512,0.183 A 5.853,5.853 0 0 0 9.596,7.665 L 8.938,8.123 9.504,8.999 9.956,8.663 c 0.688,-0.35 1.394,-0.54 2.116,-0.54 0.607,0 1.09,0.16 1.421,0.491 0.327,0.316 0.493,0.737 0.493,1.236 0,0.311 -0.073,0.603 -0.217,0.868 -0.13,0.258 -0.299,0.503 -0.508,0.736 -0.205,0.227 -0.42,0.455 -0.648,0.682 v 0.001 a 6.392,6.392 0 0 0 -0.633,0.7 l -0.001,0.002 a 3.66,3.66 0 0 0 -0.492,0.786 2.378,2.378 0 0 0 -0.177,0.935 c 0,0.208 0.024,0.403 0.056,0.594 h 1.088 c -0.001,-0.023 -0.01,-0.044 -0.01,-0.068 v -0.187 c 0,-0.387 0.077,-0.74 0.232,-1.05 0.15,-0.314 0.336,-0.599 0.557,-0.855 l 0.002,-0.002 c 0.218,-0.264 0.458,-0.515 0.721,-0.755 a 7.23,7.23 0 0 0 0.7,-0.734 c 0.21,-0.253 0.384,-0.522 0.527,-0.807 0.138,-0.288 0.209,-0.613 0.209,-0.982 A 3.06,3.06 0 0 0 15.245,8.8 L 15.244,8.798 V 8.796 A 2.04,2.04 0 0 0 14.762,7.929 C 14.528,7.674 14.21,7.463 13.805,7.299 V 7.297 C 13.42,7.125 12.91,7.036 12.277,7.036 Z m -0.27,9.963 c -0.326,0 -0.562,0.1 -0.743,0.3 a 1.025,1.025 0 0 0 -0.275,0.718 c 0,0.279 0.089,0.512 0.275,0.718 0.18,0.2 0.417,0.3 0.742,0.3 0.325,0 0.562,-0.099 0.743,-0.3 0.186,-0.206 0.275,-0.44 0.275,-0.718 0,-0.28 -0.089,-0.512 -0.275,-0.718 -0.18,-0.2 -0.418,-0.3 -0.743,-0.3 z" />
</svg>
