<?xml version="1.0" encoding="UTF-8" standalone="no"?>
<svg
   xmlns:dc="http://purl.org/dc/elements/1.1/"
   xmlns:cc="http://creativecommons.org/ns#"
   xmlns:rdf="http://www.w3.org/1999/02/22-rdf-syntax-ns#"
   xmlns:svg="http://www.w3.org/2000/svg"
   xmlns="http://www.w3.org/2000/svg"
   xmlns:sodipodi="http://sodipodi.sourceforge.net/DTD/sodipodi-0.dtd"
   xmlns:inkscape="http://www.inkscape.org/namespaces/inkscape"
   height="24"
   width="24"
   version="1.1"
   id="svg6"
   sodipodi:docname="battery-low.svg"
   inkscape:version="0.92.3 (2405546, 2018-03-11)">
  <metadata
     id="metadata12">
    <rdf:RDF>
      <cc:Work
         rdf:about="">
        <dc:format>image/svg+xml</dc:format>
        <dc:type
           rdf:resource="http://purl.org/dc/dcmitype/StillImage" />
        <dc:title />
      </cc:Work>
    </rdf:RDF>
  </metadata>
  <defs
     id="defs10" />
  <sodipodi:namedview
     pagecolor="#ffffff"
     bordercolor="#666666"
     borderopacity="1"
     objecttolerance="10"
     gridtolerance="10"
     guidetolerance="10"
     inkscape:pageopacity="0"
     inkscape:pageshadow="2"
     inkscape:window-width="640"
     inkscape:window-height="480"
     id="namedview8"
     showgrid="true"
     inkscape:zoom="18.25"
     inkscape:cx="-1.5890411"
     inkscape:cy="11.506849"
     inkscape:current-layer="svg6">
    <inkscape:grid
       type="xygrid"
       id="grid8" />
  </sodipodi:namedview>
  <path
     class="warning"
     d="m 9,18 v -4 h 6 v 4 z"
     overflow="visible"
     style="color:#000000;overflow:visible;fill:#fdc92b;marker:none"
     id="path2"
     inkscape:connector-curvature="0" />
  <path
     d="m 7,17.338 c 0.01,0.839 -0.015,1.451 0.262,1.953 0.138,0.251 0.374,0.45 0.666,0.56 C 8.22,19.961 8.568,20 9.006,20 H 15 c 0.439,0 0.786,-0.039 1.078,-0.148 0.293,-0.11 0.526,-0.31 0.664,-0.56 0.277,-0.503 0.249,-1.115 0.258,-1.954 V 8.631 C 16.99,7.792 17.02,7.178 16.742,6.676 A 1.25,1.25 0 0 0 16.078,6.117 C 15.786,6.007 15.438,6 15,6 H 14 V 5 H 10 V 6 H 9.006 C 8.568,6 8.22,6.007 7.928,6.117 7.636,6.227 7.4,6.425 7.262,6.676 6.985,7.178 7.01,7.792 7,8.631 v 8.705 z M 8,17.324 V 8.633 C 8.01,7.78 8.04,7.335 8.137,7.158 8.153,7.13 8.194,7.085 8.28,7.053 8.34,7.03 8.578,7 9.006,7 H 15 c 0.428,0 0.664,0.03 0.727,0.053 0.086,0.032 0.125,0.077 0.14,0.105 0.095,0.173 0.123,0.618 0.133,1.475 v 8.705 c -0.01,0.854 -0.038,1.298 -0.133,1.47 -0.016,0.03 -0.055,0.074 -0.14,0.106 C 15.604,18.96 15.378,19 15,19 H 9.006 C 8.628,19 8.402,18.96 8.28,18.914 8.194,18.882 8.153,18.837 8.137,18.809 8.039,18.631 8.011,18.189 8,17.324 Z"
     font-weight="400"
     overflow="visible"
     style="color:#000000;font-weight:400;line-height:normal;font-family:sans-serif;font-variant-ligatures:none;font-variant-position:normal;font-variant-caps:normal;font-variant-numeric:normal;font-variant-alternates:normal;font-feature-settings:normal;text-indent:0;text-align:start;text-decoration:none;text-decoration-line:none;text-decoration-style:solid;text-decoration-color:#000000;text-transform:none;white-space:normal;shape-padding:0;overflow:visible;isolation:auto;mix-blend-mode:normal;fill:#dfdfdf;marker:none;fill-opacity:1"
     id="path4"
     inkscape:connector-curvature="0" />
</svg>
