<svg width="24" height="24" version="1.1" xmlns="http://www.w3.org/2000/svg">
<g transform="translate(1)" fill="#dfdfdf">
<path d="m11 18v-7h5v7z" color="#000000" overflow="visible"/>
<path d="m9 17.338c0.01 0.839-0.015 1.451 0.262 1.953 0.138 0.251 0.374 0.45 0.666 0.56s0.64 0.15 1.078 0.149l4.994-2e-3c0.439 0 0.786-0.039 1.078-0.148 0.293-0.11 0.526-0.31 0.664-0.561 0.277-0.502 0.249-1.114 0.258-1.953v-8.705c-0.01-0.839 0.02-1.454-0.258-1.955a1.25 1.25 0 0 0-0.664-0.559c-0.292-0.11-0.64-0.117-1.078-0.117h-1v-1h-3v1h-0.994c-0.438 0-0.786 0.01-1.078 0.117-0.292 0.11-0.528 0.308-0.666 0.559-0.277 0.501-0.252 1.116-0.262 1.955v8.703zm1-0.014v-8.691c0.01-0.853 0.04-1.298 0.137-1.475 0.016-0.029 0.057-0.073 0.143-0.105 0.06-0.023 0.298-0.053 0.726-0.053h4.994c0.428 0 0.664 0.029 0.727 0.053 0.086 0.032 0.125 0.077 0.14 0.105 0.095 0.173 0.123 0.618 0.133 1.475v8.705c-0.01 0.854-0.038 1.298-0.133 1.47-0.016 0.03-0.055 0.074-0.14 0.106-0.123 0.046-0.349 0.086-0.727 0.086l-4.994 2e-3c-0.378 0-0.604-0.04-0.726-0.086-0.086-0.032-0.127-0.077-0.143-0.105-0.098-0.178-0.126-0.62-0.137-1.485z" color="#000000" font-weight="400" overflow="visible" style="font-feature-settings:normal;font-variant-alternates:normal;font-variant-caps:normal;font-variant-ligatures:none;font-variant-numeric:normal;font-variant-position:normal;isolation:auto;mix-blend-mode:normal;shape-padding:0;text-decoration-color:#000000;text-decoration-line:none;text-decoration-style:solid;text-indent:0;text-transform:none;white-space:normal"/>
<path d="m5 19 2.5-6h-1.5v-5l-2.5 6h1.5z"/>
</g>
</svg>
