<?xml version="1.0" encoding="UTF-8" standalone="no"?>
<svg
   xmlns:osb="http://www.openswatchbook.org/uri/2009/osb"
   xmlns:dc="http://purl.org/dc/elements/1.1/"
   xmlns:cc="http://creativecommons.org/ns#"
   xmlns:rdf="http://www.w3.org/1999/02/22-rdf-syntax-ns#"
   xmlns:svg="http://www.w3.org/2000/svg"
   xmlns="http://www.w3.org/2000/svg"
   xmlns:sodipodi="http://sodipodi.sourceforge.net/DTD/sodipodi-0.dtd"
   xmlns:inkscape="http://www.inkscape.org/namespaces/inkscape"
   height="24"
   id="svg7384"
   version="1.1"
   width="24"
   sodipodi:docname="battery-level-60.svg"
   inkscape:version="0.92.3 (2405546, 2018-03-11)">
  <sodipodi:namedview
     pagecolor="#ffffff"
     bordercolor="#666666"
     borderopacity="1"
     objecttolerance="10"
     gridtolerance="10"
     guidetolerance="10"
     inkscape:pageopacity="0"
     inkscape:pageshadow="2"
     inkscape:window-width="640"
     inkscape:window-height="480"
     id="namedview22"
     showgrid="false"
     inkscape:zoom="18.249906"
     inkscape:cx="-1.5890902"
     inkscape:cy="7.5616826"
     inkscape:current-layer="svg7384" />
  <metadata
     id="metadata20854">
    <rdf:RDF>
      <cc:Work
         rdf:about="">
        <dc:title></dc:title>
        <dc:format>image/svg+xml</dc:format>
        <dc:type
           rdf:resource="http://purl.org/dc/dcmitype/StillImage" />
      </cc:Work>
    </rdf:RDF>
  </metadata>
  <defs
     id="defs7386">
    <linearGradient
       id="linearGradient5606"
       osb:paint="solid">
      <stop
         id="stop5608"
         offset="0"
         style="stop-color:#000000;stop-opacity:1;" />
    </linearGradient>
    <linearGradient
       id="linearGradient4526"
       osb:paint="solid">
      <stop
         id="stop4528"
         offset="0"
         style="stop-color:#ffffff;stop-opacity:1;" />
    </linearGradient>
    <linearGradient
       id="linearGradient3600-4"
       osb:paint="gradient">
      <stop
         id="stop3602-7"
         offset="0"
         style="stop-color:#f4f4f4;stop-opacity:1" />
      <stop
         id="stop3604-6"
         offset="1"
         style="stop-color:#dbdbdb;stop-opacity:1" />
    </linearGradient>
  </defs>
  <path
     inkscape:connector-curvature="0"
     style="color:#000000;display:inline;overflow:visible;visibility:visible;opacity:1;fill:#dfdfdf;fill-opacity:1;fill-rule:nonzero;stroke:none;stroke-width:2.25;stroke-linecap:butt;stroke-linejoin:miter;stroke-miterlimit:4;stroke-dasharray:none;stroke-dashoffset:0;stroke-opacity:1;marker:none;enable-background:accumulate"
     id="path1335-2-7-2"
     d="m 9,17.99999 -10e-6,-6.00001 h 6 v 6.00001 z" />
  <path
     inkscape:connector-curvature="0"
     style="color:#000000;font-style:normal;font-variant:normal;font-weight:normal;font-stretch:normal;font-size:medium;line-height:normal;font-family:sans-serif;font-variant-ligatures:none;font-variant-position:normal;font-variant-caps:normal;font-variant-numeric:normal;font-variant-alternates:normal;font-feature-settings:normal;text-indent:0;text-align:start;text-decoration:none;text-decoration-line:none;text-decoration-style:solid;text-decoration-color:#000000;letter-spacing:normal;word-spacing:normal;text-transform:none;writing-mode:lr-tb;direction:ltr;baseline-shift:baseline;text-anchor:start;white-space:normal;shape-padding:0;clip-rule:nonzero;display:inline;overflow:visible;visibility:visible;opacity:1;isolation:auto;mix-blend-mode:normal;color-interpolation:sRGB;color-interpolation-filters:linearRGB;solid-color:#000000;solid-opacity:1;fill:#dfdfdf;fill-opacity:1;fill-rule:nonzero;stroke:none;stroke-width:4.00000048;stroke-linecap:butt;stroke-linejoin:miter;stroke-miterlimit:4;stroke-dasharray:none;stroke-dashoffset:0;stroke-opacity:1;marker:none;color-rendering:auto;image-rendering:auto;shape-rendering:auto;text-rendering:auto;enable-background:accumulate"
     id="path1339-1-4-6"
     d="m 7,17.3379 c 0.01,0.8388 -0.0151,1.45129 0.26171,1.95312 0.13844,0.25092 0.37358,0.45077 0.66602,0.56055 C 8.22017,19.96135 8.56745,20 9.00585,20 H 15 c 0.43841,0 0.78568,-0.0386 1.07812,-0.14843 0.29244,-0.10978 0.52562,-0.30963 0.66406,-0.56055 C 17.01906,18.78919 16.9903,18.1767 17,17.3379 v -0.002 -8.70312 -0.002 C 16.99,7.79198 17.019,7.17754 16.74218,6.67571 16.60374,6.42479 16.37056,6.22689 16.07812,6.11711 15.78568,6.00744 15.43841,5.99992 15,5.99992 h -1 v -1 h -4 v 1 H 9.00585 c -0.4384,0 -0.78568,0.007 -1.07812,0.11719 C 7.63529,6.22689 7.40015,6.42479 7.26171,6.67571 6.98483,7.17754 7.0097,7.79198 7,8.63078 v 0.002 8.70312 z M 8,17.3242 V 8.6328 C 8.0102,7.77998 8.0391,7.33515 8.13671,7.15819 c 0.0158,-0.0287 0.0571,-0.0734 0.14258,-0.10547 0.0613,-0.0231 0.2988,-0.0527 0.72656,-0.0527 H 15 c 0.42737,0 0.66416,0.0293 0.72656,0.0527 0.0855,0.0321 0.12479,0.0768 0.14062,0.10547 0.0951,0.1724 0.12232,0.6176 0.13282,1.47461 v 8.69336 0.0117 c -0.0102,0.85438 -0.0377,1.2983 -0.13282,1.4707 -0.0158,0.0287 -0.0552,0.0734 -0.14062,0.10547 -0.12283,0.0462 -0.34837,0.0859 -0.72656,0.0859 H 9.00585 c -0.37814,0 -0.60386,-0.0399 -0.72656,-0.0859 C 8.19379,18.88193 8.15253,18.83723 8.13671,18.80856 8.03861,18.63066 8.0103,18.1885 8,17.32418 Z" />
</svg>
