<?xml version="1.0" encoding="UTF-8" standalone="no"?>
<svg
   xmlns:osb="http://www.openswatchbook.org/uri/2009/osb"
   xmlns:dc="http://purl.org/dc/elements/1.1/"
   xmlns:cc="http://creativecommons.org/ns#"
   xmlns:rdf="http://www.w3.org/1999/02/22-rdf-syntax-ns#"
   xmlns:svg="http://www.w3.org/2000/svg"
   xmlns="http://www.w3.org/2000/svg"
   xmlns:sodipodi="http://sodipodi.sourceforge.net/DTD/sodipodi-0.dtd"
   xmlns:inkscape="http://www.inkscape.org/namespaces/inkscape"
   height="24"
   id="svg7384"
   version="1.1"
   width="24"
   sodipodi:docname="battery-level-100-charged.svg"
   inkscape:version="0.92.3 (2405546, 2018-03-11)">
  <sodipodi:namedview
     pagecolor="#ffffff"
     bordercolor="#666666"
     borderopacity="1"
     objecttolerance="10"
     gridtolerance="10"
     guidetolerance="10"
     inkscape:pageopacity="0"
     inkscape:pageshadow="2"
     inkscape:window-width="640"
     inkscape:window-height="480"
     id="namedview23"
     showgrid="true"
     inkscape:zoom="12.904699"
     inkscape:cx="-13.976793"
     inkscape:cy="4.0638044"
     inkscape:current-layer="svg7384">
    <inkscape:grid
       type="xygrid"
       id="grid25" />
  </sodipodi:namedview>
  <metadata
     id="metadata20854">
    <rdf:RDF>
      <cc:Work
         rdf:about="">
        <dc:title></dc:title>
        <dc:format>image/svg+xml</dc:format>
        <dc:type
           rdf:resource="http://purl.org/dc/dcmitype/StillImage" />
      </cc:Work>
    </rdf:RDF>
  </metadata>
  <defs
     id="defs7386">
    <linearGradient
       id="linearGradient5606"
       osb:paint="solid">
      <stop
         id="stop5608"
         offset="0"
         style="stop-color:#000000;stop-opacity:1;" />
    </linearGradient>
    <linearGradient
       id="linearGradient4526"
       osb:paint="solid">
      <stop
         id="stop4528"
         offset="0"
         style="stop-color:#ffffff;stop-opacity:1;" />
    </linearGradient>
    <linearGradient
       id="linearGradient3600-4"
       osb:paint="gradient">
      <stop
         id="stop3602-7"
         offset="0"
         style="stop-color:#f4f4f4;stop-opacity:1" />
      <stop
         id="stop3604-6"
         offset="1"
         style="stop-color:#dbdbdb;stop-opacity:1" />
    </linearGradient>
  </defs>
  <path
     inkscape:connector-curvature="0"
     style="color:#000000;display:inline;overflow:visible;visibility:visible;opacity:1;fill:#dfdfdf;fill-opacity:1;fill-rule:nonzero;stroke:none;stroke-width:2.25;stroke-linecap:butt;stroke-linejoin:miter;stroke-miterlimit:4;stroke-dasharray:none;stroke-dashoffset:0;stroke-opacity:1;marker:none;enable-background:accumulate"
     id="path2448-7"
     d="M 12,18 V 8 h 5 v 10 z" />
  <path
     inkscape:connector-curvature="0"
     style="color:#000000;font-style:normal;font-variant:normal;font-weight:normal;font-stretch:normal;font-size:medium;line-height:normal;font-family:sans-serif;font-variant-ligatures:none;font-variant-position:normal;font-variant-caps:normal;font-variant-numeric:normal;font-variant-alternates:normal;font-feature-settings:normal;text-indent:0;text-align:start;text-decoration:none;text-decoration-line:none;text-decoration-style:solid;text-decoration-color:#000000;letter-spacing:normal;word-spacing:normal;text-transform:none;writing-mode:lr-tb;direction:ltr;baseline-shift:baseline;text-anchor:start;white-space:normal;shape-padding:0;clip-rule:nonzero;display:inline;overflow:visible;visibility:visible;opacity:1;isolation:auto;mix-blend-mode:normal;color-interpolation:sRGB;color-interpolation-filters:linearRGB;solid-color:#000000;solid-opacity:1;fill:#dfdfdf;fill-opacity:1;fill-rule:nonzero;stroke:none;stroke-width:4.00000048;stroke-linecap:butt;stroke-linejoin:miter;stroke-miterlimit:4;stroke-dasharray:none;stroke-dashoffset:0;stroke-opacity:1;marker:none;color-rendering:auto;image-rendering:auto;shape-rendering:auto;text-rendering:auto;enable-background:accumulate"
     id="path2452-7"
     d="m 10,17.3379 c 0.01,0.8388 -0.015,1.4513 0.2617,1.9531 0.1385,0.2509 0.3736,0.4508 0.666,0.5606 C 11.2202,19.9613 11.5675,20 12.0059,20 H 17 c 0.4384,0 0.7857,-0.039 1.0781,-0.1484 0.2925,-0.1098 0.5256,-0.3097 0.6641,-0.5606 0.2769,-0.5018 0.2481,-1.1143 0.2578,-1.9531 v 0 -8.7031 0 C 18.99,7.796 19.019,7.1815 18.7422,6.6797 18.6037,6.4288 18.3706,6.2309 18.0781,6.1211 17.7857,6.0114 17.4384,6.0039 17,6.0039 h -1 v -1 h -3 v 1 h -0.9941 c -0.4384,0 -0.7857,0.01 -1.0782,0.1172 -0.2924,0.1098 -0.5275,0.3077 -0.666,0.5586 C 9.9848,7.1815 10.0097,7.796 10,8.6348 v 0 z m 1,-0.014 V 8.6325 c 0.01,-0.8528 0.039,-1.2977 0.1367,-1.4746 0.016,-0.029 0.057,-0.073 0.1426,-0.1055 0.061,-0.023 0.2988,-0.053 0.7266,-0.053 H 17 c 0.4274,0 0.6642,0.029 0.7266,0.053 0.086,0.032 0.1247,0.077 0.1406,0.1055 0.095,0.1724 0.1223,0.6176 0.1328,1.4746 v 8.6934 0.012 c -0.01,0.8543 -0.038,1.2983 -0.1328,1.4707 -0.016,0.029 -0.055,0.073 -0.1406,0.1054 C 17.6037,18.96 17.3782,19 17,19 H 12.0059 C 11.6277,19 11.402,18.96 11.2793,18.914 11.1933,18.882 11.1525,18.837 11.1367,18.8086 11.0387,18.6307 11.0103,18.1885 11,17.3242 Z" />
  <path
     inkscape:connector-curvature="0"
     style="display:inline;opacity:0.5;fill:#dfdfdf;fill-opacity:1;stroke:none;stroke-width:0.99980223;enable-background:new"
     id="path2455-2"
     d="M 6,19 8.4996,13.0005 7,13 6.9996,8.0005 4.5,14 H 6 Z" />
</svg>
