<?xml version="1.0" encoding="UTF-8" standalone="no"?>
<svg
   xmlns:dc="http://purl.org/dc/elements/1.1/"
   xmlns:cc="http://creativecommons.org/ns#"
   xmlns:rdf="http://www.w3.org/1999/02/22-rdf-syntax-ns#"
   xmlns:svg="http://www.w3.org/2000/svg"
   xmlns="http://www.w3.org/2000/svg"
   xmlns:sodipodi="http://sodipodi.sourceforge.net/DTD/sodipodi-0.dtd"
   xmlns:inkscape="http://www.inkscape.org/namespaces/inkscape"
   height="24"
   width="24"
   version="1.1"
   id="svg4"
   sodipodi:docname="bluetooth-paired.svg"
   inkscape:version="0.92.3 (2405546, 2018-03-11)">
  <metadata
     id="metadata10">
    <rdf:RDF>
      <cc:Work
         rdf:about="">
        <dc:format>image/svg+xml</dc:format>
        <dc:type
           rdf:resource="http://purl.org/dc/dcmitype/StillImage" />
        <dc:title />
      </cc:Work>
    </rdf:RDF>
  </metadata>
  <defs
     id="defs8" />
  <sodipodi:namedview
     pagecolor="#ffffff"
     bordercolor="#666666"
     borderopacity="1"
     objecttolerance="10"
     gridtolerance="10"
     guidetolerance="10"
     inkscape:pageopacity="0"
     inkscape:pageshadow="2"
     inkscape:window-width="640"
     inkscape:window-height="480"
     id="namedview6"
     showgrid="true"
     inkscape:zoom="24.395184"
     inkscape:cx="4.9869357"
     inkscape:cy="11.639932"
     inkscape:current-layer="svg4">
    <inkscape:grid
       type="xygrid"
       id="grid3715" />
  </sodipodi:namedview>
  <path
     style="color:#000000;font-style:normal;font-variant:normal;font-weight:400;font-stretch:normal;font-size:medium;line-height:normal;font-family:sans-serif;font-variant-ligatures:normal;font-variant-position:normal;font-variant-caps:normal;font-variant-numeric:normal;font-variant-alternates:normal;font-feature-settings:normal;text-indent:0;text-align:start;text-decoration:none;text-decoration-line:none;text-decoration-style:solid;text-decoration-color:#000000;letter-spacing:normal;word-spacing:normal;text-transform:none;writing-mode:lr-tb;direction:ltr;text-orientation:mixed;dominant-baseline:auto;baseline-shift:baseline;text-anchor:start;white-space:normal;shape-padding:0;clip-rule:nonzero;display:inline;overflow:visible;visibility:visible;opacity:1;isolation:auto;mix-blend-mode:normal;color-interpolation:sRGB;color-interpolation-filters:linearRGB;solid-color:#000000;solid-opacity:1;vector-effect:none;fill:#dfdfdf;fill-opacity:1;fill-rule:nonzero;stroke:none;stroke-width:1;stroke-linecap:butt;stroke-linejoin:miter;stroke-miterlimit:4;stroke-dasharray:none;stroke-dashoffset:0;stroke-opacity:1;marker:none;color-rendering:auto;image-rendering:auto;shape-rendering:auto;text-rendering:auto;enable-background:accumulate"
     d="M 6.9140625 3 C 6.1676115 3.0091818 5.5187456 2.9519474 4.8964844 3.3066406 C 4.5585828 3.4990086 4.3034968 3.8156815 4.1660156 4.1933594 C 4.0351676 4.5515883 4 4.9355966 4 5.375 L 4 16.625 C 4 17.064403 4.035167 17.448411 4.1660156 17.806641 C 4.3032469 18.183631 4.5567805 18.501919 4.8964844 18.695312 C 5.5188161 19.049475 6.1680305 18.990818 6.9140625 19 L 6.9160156 19 L 12 19 L 12 18 L 6.9257812 18 L 6.9199219 18 C 6.1478109 17.990539 5.6817952 17.990762 5.3925781 17.826172 C 5.2777778 17.760815 5.1682192 17.637227 5.1054688 17.464844 C 5.0363347 17.275574 5 17.006847 5 16.625 L 5 5.375 C 5 4.9931532 5.0363345 4.7244275 5.1054688 4.5351562 C 5.1679692 4.3634591 5.2759755 4.2421633 5.3925781 4.1757812 C 5.6836769 4.0098529 6.1481539 4.0094541 6.9199219 4 L 6.9257812 4 L 12.080078 4 C 12.848635 4.00941 13.313384 4.011985 13.603516 4.1757812 C 13.734211 4.2530462 13.839063 4.3765199 13.892578 4.5292969 L 13.892578 4.5332031 L 13.894531 4.5351562 C 13.963784 4.7253431 14 4.9938909 14 5.375 L 14 12.28125 C 14.054834 12.248871 14.118049 12.232563 14.175781 12.205078 C 14.347242 11.814543 14.638277 11.49484 15 11.28125 L 15 5.375 C 15 4.9362858 14.963465 4.5535966 14.833984 4.1972656 C 14.70296 3.825207 14.447235 3.509446 14.107422 3.3105469 L 14.105469 3.3085938 L 14.101562 3.3066406 C 13.480459 2.9531194 12.833726 3.0091921 12.085938 3 L 12.082031 3 L 6.921875 3 L 6.9160156 3 L 6.9140625 3 z "
     id="path16" />
  <path
     style="color:#000000;font-weight:400;line-height:normal;font-family:sans-serif;text-indent:0;text-align:start;text-decoration:none;text-decoration-line:none;text-decoration-style:solid;text-decoration-color:#000000;text-transform:none;white-space:normal;shape-padding:0;overflow:visible;isolation:auto;mix-blend-mode:normal;fill:#dfdfdf;fill-opacity:1;marker:none"
     d="M 9.031274,4.2929689 V 9.90625 L 6.603539,7.8671872 5.9590084,8.6328122 8.777367,11 5.9590084,13.367187 6.603539,14.132812 9.031274,12.09375 v 5.613281 L 13.271508,13.46875 10.332055,11 13.271508,8.5312502 Z m 0.927734,2.4140623 1.759766,1.759766 -1.759766,1.4804678 z m 0,5.3457028 1.759766,1.480469 -1.759766,1.759766 z"
     id="path14"
     inkscape:connector-curvature="0" />
  <path
     id="path820"
     d="m 16,12 c -1.108,0 -2,0.91025 -2,2.03125 V 15 h -1 v 4 h 6 V 15 H 18 V 14.03125 C 18,12.91125 17.108,12 16,12 Z m 0,1 c 0.554,0 1,0.442 1,1 v 1 h -2 v -1 c 0,-0.558 0.446,-1 1,-1 z"
     style="color:#000000;font-weight:400;line-height:normal;font-family:sans-serif;font-variant-ligatures:none;font-variant-position:normal;font-variant-caps:normal;font-variant-numeric:normal;font-variant-alternates:normal;font-feature-settings:normal;text-indent:0;text-align:start;text-decoration:none;text-decoration-line:none;text-decoration-style:solid;text-decoration-color:#000000;text-transform:none;white-space:normal;shape-padding:0;overflow:visible;isolation:auto;mix-blend-mode:normal;fill:#dfdfdf;fill-opacity:1;marker:none"
     inkscape:connector-curvature="0" />
</svg>
