<?xml version="1.0" encoding="UTF-8" standalone="no"?>
<svg
   xmlns:dc="http://purl.org/dc/elements/1.1/"
   xmlns:cc="http://creativecommons.org/ns#"
   xmlns:rdf="http://www.w3.org/1999/02/22-rdf-syntax-ns#"
   xmlns:svg="http://www.w3.org/2000/svg"
   xmlns="http://www.w3.org/2000/svg"
   xmlns:sodipodi="http://sodipodi.sourceforge.net/DTD/sodipodi-0.dtd"
   xmlns:inkscape="http://www.inkscape.org/namespaces/inkscape"
   height="24"
   width="24"
   version="1.1"
   id="svg4"
   sodipodi:docname="channel-secure.svg"
   inkscape:version="0.92.3 (2405546, 2018-03-11)">
  <metadata
     id="metadata10">
    <rdf:RDF>
      <cc:Work
         rdf:about="">
        <dc:format>image/svg+xml</dc:format>
        <dc:type
           rdf:resource="http://purl.org/dc/dcmitype/StillImage" />
        <dc:title></dc:title>
      </cc:Work>
    </rdf:RDF>
  </metadata>
  <defs
     id="defs8" />
  <sodipodi:namedview
     pagecolor="#ffffff"
     bordercolor="#666666"
     borderopacity="1"
     objecttolerance="10"
     gridtolerance="10"
     guidetolerance="10"
     inkscape:pageopacity="0"
     inkscape:pageshadow="2"
     inkscape:window-width="640"
     inkscape:window-height="480"
     id="namedview6"
     showgrid="true"
     inkscape:zoom="12.904699"
     inkscape:cx="-11.561549"
     inkscape:cy="7.1058689"
     inkscape:current-layer="svg4">
    <inkscape:grid
       type="xygrid"
       id="grid12" />
  </sodipodi:namedview>
  <path
     d="M 8.998,5 C 7.74,5.015 6.82,4.97 6.067,5.385 A 1.88,1.88 0 0 0 5.229,6.383 C 5.064,6.821 5.004,7.343 5.004,8 v 8 c 0,0.658 0.06,1.179 0.225,1.617 0.165,0.439 0.461,0.789 0.838,0.996 C 6.82,19.029 7.74,18.985 8.998,19 h 6.004 c 1.258,-0.015 2.18,0.029 2.932,-0.387 0.376,-0.207 0.673,-0.557 0.838,-0.996 0.164,-0.438 0.224,-0.96 0.224,-1.617 V 8 c 0,-0.658 -0.06,-1.179 -0.224,-1.617 A 1.88,1.88 0 0 0 17.934,5.385 C 17.181,4.969 16.26,5.015 15.002,5 Z m 3.006,2 c 1.654,0 3,1.347 3,3 v 2 h 1 v 5 h -8 v -5 h 1 v -2 c 0,-1.653 1.347,-3 3,-3 z m 0,1 c -1.116,0 -2,0.883 -2,2 v 2 h 4 v -2 c 0,-1.117 -0.883,-2 -2,-2 z m 1,5 -2,0.5 V 16 h 2 z"
     font-weight="400"
     overflow="visible"
     style="color:#000000;font-weight:400;line-height:normal;font-family:sans-serif;font-variant-ligatures:normal;font-variant-position:normal;font-variant-caps:normal;font-variant-numeric:normal;font-variant-alternates:normal;font-feature-settings:normal;text-indent:0;text-align:start;text-decoration:none;text-decoration-line:none;text-decoration-style:solid;text-decoration-color:#000000;text-transform:none;text-orientation:mixed;white-space:normal;shape-padding:0;overflow:visible;isolation:auto;mix-blend-mode:normal;fill:#dfdfdf;marker:none;fill-opacity:1"
     id="path2"
     inkscape:connector-curvature="0" />
</svg>
