<?xml version="1.0" encoding="UTF-8" standalone="no"?>
<svg
   xmlns:dc="http://purl.org/dc/elements/1.1/"
   xmlns:cc="http://creativecommons.org/ns#"
   xmlns:rdf="http://www.w3.org/1999/02/22-rdf-syntax-ns#"
   xmlns:svg="http://www.w3.org/2000/svg"
   xmlns="http://www.w3.org/2000/svg"
   xmlns:sodipodi="http://sodipodi.sourceforge.net/DTD/sodipodi-0.dtd"
   xmlns:inkscape="http://www.inkscape.org/namespaces/inkscape"
   height="24"
   width="24"
   version="1.1"
   id="svg6"
   sodipodi:docname="channel-insecure.svg"
   inkscape:version="0.92.3 (2405546, 2018-03-11)">
  <metadata
     id="metadata12">
    <rdf:RDF>
      <cc:Work
         rdf:about="">
        <dc:format>image/svg+xml</dc:format>
        <dc:type
           rdf:resource="http://purl.org/dc/dcmitype/StillImage" />
        <dc:title></dc:title>
      </cc:Work>
    </rdf:RDF>
  </metadata>
  <defs
     id="defs10" />
  <sodipodi:namedview
     pagecolor="#ffffff"
     bordercolor="#666666"
     borderopacity="1"
     objecttolerance="10"
     gridtolerance="10"
     guidetolerance="10"
     inkscape:pageopacity="0"
     inkscape:pageshadow="2"
     inkscape:window-width="640"
     inkscape:window-height="480"
     id="namedview8"
     showgrid="true"
     inkscape:zoom="18.25"
     inkscape:cx="-1.5890411"
     inkscape:cy="7.5616438"
     inkscape:current-layer="svg6">
    <inkscape:grid
       type="xygrid"
       id="grid18" />
  </sodipodi:namedview>
  <path
     d="M 8.994,5 C 7.736,5.015 6.816,4.97 6.063,5.385 A 1.88,1.88 0 0 0 5.225,6.383 C 5.06,6.821 5,7.343 5,8 v 8 c 0,0.658 0.06,1.179 0.225,1.617 0.165,0.439 0.461,0.789 0.838,0.996 0.753,0.416 1.673,0.372 2.931,0.387 h 3.002 v -2 h -4 v -5 h 1 v -2 c 0,-1.653 1.347,-3 3,-3 1.654,0 3,1.347 3,3 v 2 h 4 V 8 c 0,-0.658 -0.06,-1.179 -0.224,-1.617 A 1.88,1.88 0 0 0 17.934,5.385 C 17.181,4.969 16.26,5.015 15.002,5 H 8.998 Z M 12,8 c -1.116,0 -2,0.883 -2,2 v 2 h 4 V 10 C 14,8.883 13.117,8 12,8 Z m 0,5.25 -1,0.25 V 16 h 1 z"
     font-weight="400"
     overflow="visible"
     style="color:#000000;font-weight:400;line-height:normal;font-family:sans-serif;font-variant-ligatures:normal;font-variant-position:normal;font-variant-caps:normal;font-variant-numeric:normal;font-variant-alternates:normal;font-feature-settings:normal;text-indent:0;text-align:start;text-decoration:none;text-decoration-line:none;text-decoration-style:solid;text-decoration-color:#000000;text-transform:none;text-orientation:mixed;white-space:normal;shape-padding:0;overflow:visible;opacity:0.5;isolation:auto;mix-blend-mode:normal;fill:#dfdfdf;marker:none;fill-opacity:1"
     id="path2"
     inkscape:connector-curvature="0" />
  <path
     class="warning"
     d="m 16.48,13.729 a 0.443,0.443 0 0 0 -0.36,0.22 l -3.061,5.397 A 0.437,0.437 0 0 0 13.438,20 h 6.125 a 0.437,0.437 0 0 0 0.379,-0.654 l -3.059,-5.397 a 0.442,0.442 0 0 0 -0.402,-0.22 z M 16,15 h 1 v 0.168 c 0,0.348 -0.016,0.667 -0.047,0.957 -0.03,0.29 -0.069,0.581 -0.115,0.875 H 16.172 A 12.898,12.898 0 0 1 16.047,16.125 9.146,9.146 0 0 1 16,15.168 Z m 0.5,3 a 0.5,0.5 0 1 1 0,1 0.5,0.5 0 0 1 0,-1 z"
     font-weight="400"
     overflow="visible"
     style="color:#000000;font-weight:400;line-height:normal;font-family:sans-serif;text-indent:0;text-align:start;text-decoration:none;text-decoration-line:none;text-decoration-style:solid;text-decoration-color:#000000;text-transform:none;white-space:normal;overflow:visible;isolation:auto;mix-blend-mode:normal;fill:#fdc92b;fill-rule:evenodd"
     id="path4"
     inkscape:connector-curvature="0" />
</svg>
