<?xml version="1.0" encoding="UTF-8" standalone="no"?>
<svg
   xmlns:dc="http://purl.org/dc/elements/1.1/"
   xmlns:cc="http://creativecommons.org/ns#"
   xmlns:rdf="http://www.w3.org/1999/02/22-rdf-syntax-ns#"
   xmlns:svg="http://www.w3.org/2000/svg"
   xmlns="http://www.w3.org/2000/svg"
   xmlns:sodipodi="http://sodipodi.sourceforge.net/DTD/sodipodi-0.dtd"
   xmlns:inkscape="http://www.inkscape.org/namespaces/inkscape"
   height="24"
   width="24"
   version="1.1"
   id="svg4"
   sodipodi:docname="dialog-password.svg"
   inkscape:version="0.92.3 (2405546, 2018-03-11)">
  <metadata
     id="metadata10">
    <rdf:RDF>
      <cc:Work
         rdf:about="">
        <dc:format>image/svg+xml</dc:format>
        <dc:type
           rdf:resource="http://purl.org/dc/dcmitype/StillImage" />
        <dc:title></dc:title>
      </cc:Work>
    </rdf:RDF>
  </metadata>
  <defs
     id="defs8" />
  <sodipodi:namedview
     pagecolor="#ffffff"
     bordercolor="#666666"
     borderopacity="1"
     objecttolerance="10"
     gridtolerance="10"
     guidetolerance="10"
     inkscape:pageopacity="0"
     inkscape:pageshadow="2"
     inkscape:window-width="640"
     inkscape:window-height="480"
     id="namedview6"
     showgrid="true"
     inkscape:zoom="18.25"
     inkscape:cx="-1.5890411"
     inkscape:cy="7.5616438"
     inkscape:current-layer="svg4">
    <inkscape:grid
       type="xygrid"
       id="grid12" />
  </sodipodi:namedview>
  <path
     d="M 6.445,7 C 5.925,7 5.505,7.048 5.141,7.191 4.777,7.335 4.479,7.601 4.309,7.926 3.969,8.574 4.01,9.328 4,10.357 v 3.286 c 0.012,1.029 -0.031,1.784 0.309,2.431 0.17,0.324 0.468,0.591 0.832,0.735 C 5.505,16.952 5.925,17 6.445,17 h 3.112 c 0.52,0 0.94,-0.048 1.304,-0.191 0.364,-0.144 0.66,-0.41 0.83,-0.735 0.296,-0.563 0.297,-1.241 0.301,-2.076 L 13.938,13.994 14.5,13.5 15,14 15.5,13.5 16,14 l 0.5,-0.5 1,1 2.5,-2.5 -2,-2 -6.008,0.002 c 0,-0.835 -0.01,-1.513 -0.3,-2.076 A 1.607,1.607 0 0 0 10.859,7.192 C 10.496,7.048 10.077,7 9.557,7 Z m 0,1 h 3.112 c 0.451,0 0.756,0.052 0.935,0.123 0.18,0.07 0.244,0.134 0.315,0.268 0.14,0.268 0.182,0.944 0.193,1.978 v 0.633 L 17.586,11 l 1,1 -1.086,1.086 -1,-1 -0.5,0.5 -0.5,-0.5 -0.5,0.5 -0.455,-0.455 -0.984,0.863 L 11,13 v 0.63 c -0.011,1.035 -0.053,1.711 -0.193,1.98 -0.07,0.133 -0.135,0.196 -0.315,0.267 C 10.312,15.947 10.008,16 9.557,16 H 6.445 C 5.994,16 5.687,15.948 5.508,15.877 5.328,15.806 5.266,15.743 5.195,15.609 5.055,15.342 5.012,14.666 5,13.637 V 10.363 C 5.012,9.334 5.055,8.658 5.195,8.39 5.265,8.256 5.328,8.194 5.508,8.123 5.688,8.052 5.994,8 6.445,8 Z M 7,11 a 1,1 0 0 0 -1,1 1,1 0 0 0 1,1 1,1 0 0 0 1,-1 1,1 0 0 0 -1,-1 z"
     style="color:#000000;font-weight:400;line-height:normal;font-family:sans-serif;font-variant-ligatures:normal;font-variant-position:normal;font-variant-caps:normal;font-variant-numeric:normal;font-variant-alternates:normal;font-feature-settings:normal;text-indent:0;text-align:start;text-decoration:none;text-decoration-line:none;text-decoration-style:solid;text-decoration-color:#000000;text-transform:none;text-orientation:mixed;white-space:normal;shape-padding:0;overflow:visible;isolation:auto;mix-blend-mode:normal;fill:#dfdfdf;marker:none;fill-opacity:1"
     font-weight="400"
     overflow="visible"
     id="path2"
     inkscape:connector-curvature="0" />
</svg>
