<?xml version="1.0" encoding="UTF-8" standalone="no"?>
<svg
   xmlns:dc="http://purl.org/dc/elements/1.1/"
   xmlns:cc="http://creativecommons.org/ns#"
   xmlns:rdf="http://www.w3.org/1999/02/22-rdf-syntax-ns#"
   xmlns:svg="http://www.w3.org/2000/svg"
   xmlns="http://www.w3.org/2000/svg"
   xmlns:sodipodi="http://sodipodi.sourceforge.net/DTD/sodipodi-0.dtd"
   xmlns:inkscape="http://www.inkscape.org/namespaces/inkscape"
   height="24"
   width="24"
   version="1.1"
   id="svg4"
   sodipodi:docname="dialog-warning.svg"
   inkscape:version="0.92.3 (2405546, 2018-03-11)">
  <metadata
     id="metadata10">
    <rdf:RDF>
      <cc:Work
         rdf:about="">
        <dc:format>image/svg+xml</dc:format>
        <dc:type
           rdf:resource="http://purl.org/dc/dcmitype/StillImage" />
        <dc:title></dc:title>
      </cc:Work>
    </rdf:RDF>
  </metadata>
  <defs
     id="defs8" />
  <sodipodi:namedview
     pagecolor="#ffffff"
     bordercolor="#666666"
     borderopacity="1"
     objecttolerance="10"
     gridtolerance="10"
     guidetolerance="10"
     inkscape:pageopacity="0"
     inkscape:pageshadow="2"
     inkscape:window-width="640"
     inkscape:window-height="480"
     id="namedview6"
     showgrid="false"
     inkscape:zoom="12.726331"
     inkscape:cx="-7.130902"
     inkscape:cy="17.054814"
     inkscape:current-layer="svg4" />
  <path
     d="m 11.96146,3.9980006 a 1.499,1.499 0 0 0 -1.277,0.785 L 4.1824607,16.783 a 1.5,1.5 0 0 0 1.316,2.217 H 18.49846 a 1.5,1.5 0 0 0 1.317,-2.217 l -6.498,-11.9999994 a 1.496,1.496 0 0 0 -1.356,-0.785 z m 0.025,1 a 0.494,0.494 0 0 1 0.451,0.262 L 18.93546,17.26 c 0.203,0.374 -0.016,0.74 -0.437,0.74 H 5.4984607 c -0.422,0 -0.64,-0.366 -0.438,-0.74 L 11.56246,5.2600006 a 0.493,0.493 0 0 1 0.424,-0.262 z m -0.695,2.0019998 V 9.662 c 0,0.793 0.03,1.517 0.086,2.168 0.057,0.642 0.128,1.284 0.213,1.926 h 0.82 c 0.085,-0.642 0.157,-1.284 0.213,-1.926 0.057,-0.651 0.086,-1.375 0.086,-2.168 V 7.0000004 Z M 12.00146,15 a 1,1 0 0 0 -1,1 c 0,0.282 0.118,0.535 0.306,0.717 0.17,0.189 0.4,0.283 0.693,0.283 0.293,0 0.524,-0.094 0.694,-0.283 a 0.994,0.994 0 0 0 0.306,-0.717 1,1 0 0 0 -1,-1 z"
     font-weight="400"
     overflow="visible"
     style="color:#000000;font-weight:400;line-height:normal;font-family:sans-serif;font-variant-ligatures:normal;font-variant-position:normal;font-variant-caps:normal;font-variant-numeric:normal;font-variant-alternates:normal;font-feature-settings:normal;text-indent:0;text-align:start;text-decoration:none;text-decoration-line:none;text-decoration-style:solid;text-decoration-color:#000000;text-transform:none;text-orientation:mixed;white-space:normal;shape-padding:0;overflow:visible;isolation:auto;mix-blend-mode:normal;fill:#dfdfdf;fill-opacity:1"
     id="path2"
     inkscape:connector-curvature="0" />
</svg>
