<?xml version="1.0" encoding="UTF-8" standalone="no"?>
<svg
   xmlns:dc="http://purl.org/dc/elements/1.1/"
   xmlns:cc="http://creativecommons.org/ns#"
   xmlns:rdf="http://www.w3.org/1999/02/22-rdf-syntax-ns#"
   xmlns:svg="http://www.w3.org/2000/svg"
   xmlns="http://www.w3.org/2000/svg"
   xmlns:sodipodi="http://sodipodi.sourceforge.net/DTD/sodipodi-0.dtd"
   xmlns:inkscape="http://www.inkscape.org/namespaces/inkscape"
   height="24"
   width="24"
   version="1.1"
   id="svg8"
   sodipodi:docname="dialog-information.svg"
   inkscape:version="0.92.3 (2405546, 2018-03-11)">
  <metadata
     id="metadata14">
    <rdf:RDF>
      <cc:Work
         rdf:about="">
        <dc:format>image/svg+xml</dc:format>
        <dc:type
           rdf:resource="http://purl.org/dc/dcmitype/StillImage" />
        <dc:title></dc:title>
      </cc:Work>
    </rdf:RDF>
  </metadata>
  <defs
     id="defs12" />
  <sodipodi:namedview
     pagecolor="#ffffff"
     bordercolor="#666666"
     borderopacity="1"
     objecttolerance="10"
     gridtolerance="10"
     guidetolerance="10"
     inkscape:pageopacity="0"
     inkscape:pageshadow="2"
     inkscape:window-width="640"
     inkscape:window-height="480"
     id="namedview10"
     showgrid="false"
     inkscape:zoom="12.904699"
     inkscape:cx="-8.3072446"
     inkscape:cy="6.1998458"
     inkscape:current-layer="svg8" />
  <g
     id="g6"
     style="fill:#dfdfdf;fill-opacity:1"
     transform="translate(4,4)">
    <path
       d="M 8,16 A 8,8 0 0 1 0,8 8,8 0 0 1 8,0 8,8 0 0 1 16,8 8,8 0 0 1 8,16 Z M 8,15 A 7,7 0 0 0 15,8 7,7 0 0 0 8,1 7,7 0 0 0 1,8 7,7 0 0 0 8,15 Z"
       id="path2"
       inkscape:connector-curvature="0"
       style="fill:#dfdfdf;fill-opacity:1" />
    <path
       d="M 8,3.75 C 7.614,3.75 7.31,3.874 7.086,4.123 A 1.27,1.27 0 0 0 6.75,5 c 0,0.336 0.112,0.628 0.336,0.877 C 7.31,6.126 7.614,6.25 8,6.25 8.386,6.25 8.69,6.126 8.914,5.877 A 1.27,1.27 0 0 0 9.25,5 1.27,1.27 0 0 0 8.914,4.123 C 8.69,3.874 8.386,3.75 8,3.75 Z M 7,7 v 5 H 9 V 7 Z"
       style="font-weight:400;line-height:1000%;font-family:Ubuntu;-inkscape-font-specification:Ubuntu;letter-spacing:0;word-spacing:0;fill:#dfdfdf;fill-opacity:1"
       font-weight="400"
       letter-spacing="0"
       word-spacing="0"
       id="path4"
       inkscape:connector-curvature="0" />
  </g>
</svg>
