<?xml version="1.0" encoding="UTF-8" standalone="no"?>
<svg
   xmlns:dc="http://purl.org/dc/elements/1.1/"
   xmlns:cc="http://creativecommons.org/ns#"
   xmlns:rdf="http://www.w3.org/1999/02/22-rdf-syntax-ns#"
   xmlns:svg="http://www.w3.org/2000/svg"
   xmlns="http://www.w3.org/2000/svg"
   xmlns:sodipodi="http://sodipodi.sourceforge.net/DTD/sodipodi-0.dtd"
   xmlns:inkscape="http://www.inkscape.org/namespaces/inkscape"
   height="24"
   width="24"
   version="1.1"
   id="svg4"
   sodipodi:docname="folder-visiting.svg"
   inkscape:version="0.92.3 (2405546, 2018-03-11)">
  <metadata
     id="metadata10">
    <rdf:RDF>
      <cc:Work
         rdf:about="">
        <dc:format>image/svg+xml</dc:format>
        <dc:type
           rdf:resource="http://purl.org/dc/dcmitype/StillImage" />
        <dc:title></dc:title>
      </cc:Work>
    </rdf:RDF>
  </metadata>
  <defs
     id="defs8" />
  <sodipodi:namedview
     pagecolor="#ffffff"
     bordercolor="#666666"
     borderopacity="1"
     objecttolerance="10"
     gridtolerance="10"
     guidetolerance="10"
     inkscape:pageopacity="0"
     inkscape:pageshadow="2"
     inkscape:window-width="640"
     inkscape:window-height="480"
     id="namedview6"
     showgrid="false"
     inkscape:zoom="18.25"
     inkscape:cx="-1.5890411"
     inkscape:cy="7.5616438"
     inkscape:current-layer="svg4" />
  <path
     d="M 7.994,5 C 6.736,5.014 5.815,4.971 5.063,5.387 A 1.878,1.878 0 0 0 4.223,6.383 C 4.058,6.82 4,7.343 4,8 v 8 c 0,0.658 0.058,1.179 0.223,1.617 0.164,0.439 0.463,0.79 0.84,0.998 0.752,0.416 1.673,0.37 2.931,0.385 h 8.02 c 1.258,-0.015 2.179,0.03 2.932,-0.385 0.376,-0.207 0.675,-0.56 0.84,-0.998 C 19.942,17.179 20,16.657 20,16 V 10 C 20,9.342 19.942,8.821 19.777,8.383 19.757,8.328 19.729,8.279 19.703,8.229 L 19.676,8.172 A 1.838,1.838 0 0 0 18.938,7.385 C 18.185,6.969 17.265,7.015 16.006,7 H 12.963 L 10.942,5 h -2.95 z m 0,1 h 2.54 l 2.02,2 H 16 c 1.282,0.015 2.032,0.026 2.455,0.26 a 0.847,0.847 0 0 1 0.33,0.367 c -0.016,-0.03 0,0.01 0.031,0.064 0.01,0.017 0.001,0.002 0.01,0.012 v 0.002 c 0.011,0.022 0.026,0.053 0.018,0.03 0.1,0.266 0.158,0.666 0.158,1.265 v 6 c 0,0.599 -0.058,0.998 -0.158,1.266 A 0.888,0.888 0 0 1 18.458,17.74 C 18.034,17.974 17.285,17.985 16.002,18 H 7.998 C 6.716,17.985 5.966,17.974 5.543,17.74 A 0.886,0.886 0 0 1 5.157,17.266 C 5.057,16.999 5,16.599 5,16 V 8 C 5,7.401 5.058,7.001 5.158,6.734 A 0.877,0.877 0 0 1 5.545,6.262 C 5.969,6.028 6.719,6.015 7.996,6 Z"
     style="color:#000000;font-weight:400;line-height:normal;font-family:sans-serif;font-variant-ligatures:none;font-variant-position:normal;font-variant-caps:normal;font-variant-numeric:normal;font-variant-alternates:normal;font-feature-settings:normal;text-indent:0;text-align:start;text-decoration:none;text-decoration-line:none;text-decoration-style:solid;text-decoration-color:#000000;text-transform:none;white-space:normal;shape-padding:0;overflow:visible;isolation:auto;mix-blend-mode:normal;fill:#dfdfdf;marker:none;fill-opacity:1"
     font-weight="400"
     overflow="visible"
     id="path2"
     inkscape:connector-curvature="0" />
</svg>
