<?xml version="1.0" encoding="UTF-8" standalone="no"?>
<svg
   xmlns:dc="http://purl.org/dc/elements/1.1/"
   xmlns:cc="http://creativecommons.org/ns#"
   xmlns:rdf="http://www.w3.org/1999/02/22-rdf-syntax-ns#"
   xmlns:svg="http://www.w3.org/2000/svg"
   xmlns="http://www.w3.org/2000/svg"
   xmlns:sodipodi="http://sodipodi.sourceforge.net/DTD/sodipodi-0.dtd"
   xmlns:inkscape="http://www.inkscape.org/namespaces/inkscape"
   width="24"
   height="24"
   version="1.1"
   id="svg4"
   sodipodi:docname="indicator-trashindicator.svg"
   inkscape:version="0.92.3 (2405546, 2018-03-11)">
  <metadata
     id="metadata10">
    <rdf:RDF>
      <cc:Work
         rdf:about="">
        <dc:format>image/svg+xml</dc:format>
        <dc:type
           rdf:resource="http://purl.org/dc/dcmitype/StillImage" />
        <dc:title></dc:title>
      </cc:Work>
    </rdf:RDF>
  </metadata>
  <defs
     id="defs8" />
  <sodipodi:namedview
     pagecolor="#ffffff"
     bordercolor="#666666"
     borderopacity="1"
     objecttolerance="10"
     gridtolerance="10"
     guidetolerance="10"
     inkscape:pageopacity="0"
     inkscape:pageshadow="2"
     inkscape:window-width="640"
     inkscape:window-height="480"
     id="namedview6"
     showgrid="true"
     inkscape:zoom="12.903893"
     inkscape:cx="0.74963275"
     inkscape:cy="11.436362"
     inkscape:current-layer="svg4">
    <inkscape:grid
       type="xygrid"
       id="grid821" />
  </sodipodi:namedview>
  <g
     id="g819"
     transform="translate(4,-3.9994679)">
    <path
       inkscape:connector-curvature="0"
       id="path825"
       d="m 7.5,7.9990005 c -1.1,0 -2.1445312,0.3203125 -2.1445312,0.3203125 L 5,8.4267349 v 1.6835941 a 13.88,13.88 0 0 0 -2.9980469,0.888672 l -0.00195,1 H 1 v 1 h 1 l 0.00391,9 c 0,0.439 0.040391,0.788031 0.1503907,1.082031 0.111,0.294 0.3105,0.527969 0.5625,0.667969 0.503,0.28 1.120125,0.25 1.953125,0.25 h 5.6640623 c 0.833,0 1.450125,0.03 1.953125,-0.25 0.252,-0.14 0.450547,-0.373969 0.560547,-0.667969 C 12.957656,22.787032 13,22.438001 13,21.999001 l -0.002,-8 h -1 l 0.002,8 c 0,0.376 -0.03989,0.602516 -0.08789,0.728516 -0.034,0.09 -0.07737,0.129484 -0.109375,0.146484 -0.173,0.097 -0.61175,0.125 -1.46875,0.125 H 4.6699219 c -0.857,0 -1.29475,-0.028 -1.46875,-0.125 A 0.267,0.267 0 0 1 3.0878906,22.727517 v -0.002 c -0.046,-0.121953 -0.083984,-0.347516 -0.083984,-0.726516 v -0.002 L 3,12.999001 h 11 v -1 h -1.001953 l 0.002,-1 A 13.855,13.855 0 0 0 10,10.110329 V 8.4482193 L 9.6699219,8.3290787 c 0,0 -0.9129219,-0.3300782 -2.1699219,-0.3300782 z m 0,1 c 0.89,0 1.29,0.1557031 1.5,0.2207031 V 9.9579849 A 14.05,14.05 0 0 0 7.5019531,9.8740005 C 6.9999531,9.8740005 6.499,9.905938 6,9.959938 V 9.225563 c 0.266,-0.07 0.772,-0.2265625 1.5,-0.2265625 z"
       style="fill:#dfdfdf;fill-opacity:1" />
    <path
       inkscape:connector-curvature="0"
       style="fill:#dfdfdf;fill-opacity:1"
       id="path821"
       d="m 5,13.999001 v 6 h 1 v -6 z" />
    <path
       inkscape:connector-curvature="0"
       style="fill:#dfdfdf;fill-opacity:1"
       id="path819"
       d="m 7,13.999001 v 6 h 1 v -6 z" />
    <path
       inkscape:connector-curvature="0"
       style="fill:#dfdfdf;fill-opacity:1"
       id="path2"
       d="m 9,13.999001 v 6 h 1 v -6 z" />
  </g>
</svg>
