<?xml version="1.0" encoding="UTF-8" standalone="no"?>
<svg
   xmlns:dc="http://purl.org/dc/elements/1.1/"
   xmlns:cc="http://creativecommons.org/ns#"
   xmlns:rdf="http://www.w3.org/1999/02/22-rdf-syntax-ns#"
   xmlns:svg="http://www.w3.org/2000/svg"
   xmlns="http://www.w3.org/2000/svg"
   xmlns:sodipodi="http://sodipodi.sourceforge.net/DTD/sodipodi-0.dtd"
   xmlns:inkscape="http://www.inkscape.org/namespaces/inkscape"
   height="24"
   width="24"
   version="1.1"
   id="svg4"
   sodipodi:docname="view-private.svg"
   inkscape:version="0.92.3 (2405546, 2018-03-11)">
  <metadata
     id="metadata10">
    <rdf:RDF>
      <cc:Work
         rdf:about="">
        <dc:format>image/svg+xml</dc:format>
        <dc:type
           rdf:resource="http://purl.org/dc/dcmitype/StillImage" />
        <dc:title></dc:title>
      </cc:Work>
    </rdf:RDF>
  </metadata>
  <defs
     id="defs8" />
  <sodipodi:namedview
     pagecolor="#ffffff"
     bordercolor="#666666"
     borderopacity="1"
     objecttolerance="10"
     gridtolerance="10"
     guidetolerance="10"
     inkscape:pageopacity="0"
     inkscape:pageshadow="2"
     inkscape:window-width="640"
     inkscape:window-height="480"
     id="namedview6"
     showgrid="false"
     inkscape:zoom="18.25"
     inkscape:cx="-1.5890411"
     inkscape:cy="7.5616438"
     inkscape:current-layer="svg4" />
  <path
     d="M 12,7.934 C 10.435,7.934 8.97,8.143 7.604,8.557 6.248,8.98 5.047,9.547 4,10.235 v 5.344 c 0.489,0.425 1.05,0.775 1.682,1.037 0.637,0.256 1.32,0.384 2.05,0.384 0.73,0 1.413,-0.128 2.045,-0.384 A 6.062,6.062 0 0 0 11.467,15.579 0.81,0.81 0 0 1 12,15.386 c 0.104,0 0.2,0.017 0.291,0.052 a 0.877,0.877 0 0 1 0.242,0.14 c 0.489,0.426 1.05,0.776 1.682,1.038 0.638,0.256 1.32,0.384 2.05,0.384 0.73,0 1.413,-0.128 2.046,-0.384 A 6.062,6.062 0 0 0 20,15.579 V 10.234 C 18.953,9.546 17.747,8.979 16.38,8.556 15.026,8.143 13.566,7.934 12,7.934 Z m -0.002,1 H 12 c 1.475,0 2.833,0.196 4.084,0.578 1.112,0.345 2.046,0.827 2.916,1.35 v 4.174 c -0.33,0.243 -0.658,0.487 -1.064,0.654 H 17.934 A 4.365,4.365 0 0 1 16.268,16 4.43,4.43 0 0 1 14.594,15.688 5.088,5.088 0 0 1 13.189,14.825 l -0.008,-0.008 -0.01,-0.008 a 1.89,1.89 0 0 0 -0.515,-0.303 h -0.002 a 1.83,1.83 0 0 0 -1.305,-0.002 l -0.006,0.002 -0.004,0.002 a 1.89,1.89 0 0 0 -0.512,0.3 l -0.011,0.009 -0.008,0.008 A 5.05,5.05 0 0 1 9.399,15.69 H 9.397 A 4.364,4.364 0 0 1 7.731,16 4.43,4.43 0 0 1 6.058,15.688 C 5.656,15.521 5.326,15.279 4.998,15.036 V 10.862 C 5.864,10.34 6.793,9.858 7.892,9.514 9.158,9.13 10.522,8.934 11.998,8.934 Z m -3.73,2.517 c -0.522,0 -1.012,0.088 -1.467,0.264 -0.452,0.18 -0.852,0.416 -1.201,0.707 0.349,0.291 0.749,0.526 1.2,0.705 0.456,0.176 0.946,0.264 1.468,0.264 0.521,0 1.007,-0.088 1.459,-0.264 0.455,-0.18 0.858,-0.414 1.207,-0.705 A 4.358,4.358 0 0 0 9.727,11.715 3.989,3.989 0 0 0 8.267,11.451 Z m 7.464,0 c -0.521,0 -1.009,0.088 -1.464,0.264 -0.452,0.18 -0.853,0.416 -1.202,0.707 0.35,0.291 0.75,0.526 1.202,0.705 0.455,0.176 0.943,0.264 1.464,0.264 0.522,0 1.01,-0.088 1.461,-0.264 0.456,-0.18 0.858,-0.414 1.207,-0.705 a 4.358,4.358 0 0 0 -1.207,-0.707 4,4 0 0 0 -1.46,-0.264 z"
     style="font-weight:400;font-size:14.4630003px;line-height:125%;font-family:Ubuntu;-inkscape-font-specification:Ubuntu;text-align:center;letter-spacing:0;word-spacing:0;text-anchor:middle;fill:#dfdfdf;fill-opacity:1"
     font-weight="400"
     font-size="14.463"
     letter-spacing="0"
     word-spacing="0"
     id="path2"
     inkscape:connector-curvature="0" />
</svg>
