<?xml version="1.0" encoding="UTF-8" standalone="no"?>
<svg
   xmlns:dc="http://purl.org/dc/elements/1.1/"
   xmlns:cc="http://creativecommons.org/ns#"
   xmlns:rdf="http://www.w3.org/1999/02/22-rdf-syntax-ns#"
   xmlns:svg="http://www.w3.org/2000/svg"
   xmlns="http://www.w3.org/2000/svg"
   xmlns:sodipodi="http://sodipodi.sourceforge.net/DTD/sodipodi-0.dtd"
   xmlns:inkscape="http://www.inkscape.org/namespaces/inkscape"
   height="24"
   width="24"
   version="1.1"
   id="svg4"
   sodipodi:docname="mail-attachment.svg"
   inkscape:version="0.92.3 (2405546, 2018-03-11)">
  <metadata
     id="metadata10">
    <rdf:RDF>
      <cc:Work
         rdf:about="">
        <dc:format>image/svg+xml</dc:format>
        <dc:type
           rdf:resource="http://purl.org/dc/dcmitype/StillImage" />
        <dc:title></dc:title>
      </cc:Work>
    </rdf:RDF>
  </metadata>
  <defs
     id="defs8" />
  <sodipodi:namedview
     pagecolor="#ffffff"
     bordercolor="#666666"
     borderopacity="1"
     objecttolerance="10"
     gridtolerance="10"
     guidetolerance="10"
     inkscape:pageopacity="0"
     inkscape:pageshadow="2"
     inkscape:window-width="640"
     inkscape:window-height="480"
     id="namedview6"
     showgrid="true"
     inkscape:zoom="18.25"
     inkscape:cx="-1.5981598"
     inkscape:cy="7.5698767"
     inkscape:current-layer="svg4">
    <inkscape:grid
       type="xygrid"
       id="grid12" />
  </sodipodi:namedview>
  <path
     d="m 5.99,13.0605 a 3.492,3.492 0 0 0 0,4.95 3.492,3.492 0 0 0 4.95,0 l 0.353,-0.353 -0.707,-0.707 -0.354,0.353 c -0.98,0.98 -2.556,0.98 -3.535,0 a 2.495,2.495 0 0 1 0,-3.535 l 7.07,-7.071 c 0.98,-0.98 2.557,-0.98 3.536,0 0.98,0.979 0.98,2.556 0,3.535 l -0.712,0.713 -2.47,2.47 -0.207,0.206 -0.853,0.854 a 1.497,1.497 0 0 1 -2.122,0 1.497,1.497 0 0 1 0,-2.121 L 12,11.2935 12.707,10.5865 12,9.8795 l -1.768,1.767 c -0.98,0.98 -0.98,2.557 0,3.536 0.98,0.98 2.556,0.98 3.536,0 l 0.853,-0.854 1.268,-1.267 2.121,-2.122 a 3.492,3.492 0 0 0 0,-4.95 3.492,3.492 0 0 0 -4.95,0 z"
     style="color:#000000;overflow:visible;isolation:auto;mix-blend-mode:normal;fill:#dfdfdf;marker:none;fill-opacity:1"
     overflow="visible"
     id="path2"
     inkscape:connector-curvature="0" />
</svg>
