<?xml version="1.0" encoding="UTF-8" standalone="no"?>
<svg
   xmlns:dc="http://purl.org/dc/elements/1.1/"
   xmlns:cc="http://creativecommons.org/ns#"
   xmlns:rdf="http://www.w3.org/1999/02/22-rdf-syntax-ns#"
   xmlns:svg="http://www.w3.org/2000/svg"
   xmlns="http://www.w3.org/2000/svg"
   xmlns:sodipodi="http://sodipodi.sourceforge.net/DTD/sodipodi-0.dtd"
   xmlns:inkscape="http://www.inkscape.org/namespaces/inkscape"
   height="24"
   width="24"
   version="1.1"
   id="svg10"
   sodipodi:docname="audio-input-microphone-high.svg"
   inkscape:version="0.92.3 (2405546, 2018-03-11)">
  <metadata
     id="metadata16">
    <rdf:RDF>
      <cc:Work
         rdf:about="">
        <dc:format>image/svg+xml</dc:format>
        <dc:type
           rdf:resource="http://purl.org/dc/dcmitype/StillImage" />
        <dc:title></dc:title>
      </cc:Work>
    </rdf:RDF>
  </metadata>
  <defs
     id="defs14" />
  <sodipodi:namedview
     pagecolor="#ffffff"
     bordercolor="#666666"
     borderopacity="1"
     objecttolerance="10"
     gridtolerance="10"
     guidetolerance="10"
     inkscape:pageopacity="0"
     inkscape:pageshadow="2"
     inkscape:window-width="640"
     inkscape:window-height="480"
     id="namedview12"
     showgrid="true"
     inkscape:zoom="18.25"
     inkscape:cx="-2.5447825"
     inkscape:cy="8.0178773"
     inkscape:current-layer="svg10">
    <inkscape:grid
       type="xygrid"
       id="grid18" />
  </sodipodi:namedview>
  <g
     id="g8"
     style="color:#000000;fill:#dfdfdf;fill-opacity:1"
     transform="translate(4.0023973,4)">
    <path
       d="m 15.343,4.926 0.707,0.707 -0.354,0.354 a 2.999,2.999 0 0 0 0,4.242 l 0.354,0.353 -0.707,0.707 -0.354,-0.353 a 4,4 0 0 1 0,-5.656 z"
       style="font-weight:400;line-height:normal;font-family:sans-serif;font-variant-ligatures:normal;font-variant-position:normal;font-variant-caps:normal;font-variant-numeric:normal;font-variant-alternates:normal;font-feature-settings:normal;text-indent:0;text-align:start;text-decoration:none;text-decoration-line:none;text-decoration-style:solid;text-decoration-color:#000000;text-transform:none;text-orientation:mixed;white-space:normal;shape-padding:0;overflow:visible;isolation:auto;mix-blend-mode:normal;fill:#dfdfdf;fill-opacity:1"
       font-weight="400"
       overflow="visible"
       id="path2"
       inkscape:connector-curvature="0" />
    <path
       d="m 13.221,2.805 0.707,0.707 -0.353,0.353 a 5.999,5.999 0 0 0 0,8.485 l 0.353,0.353 -0.707,0.707 -0.353,-0.353 a 7,7 0 0 1 0,-9.899 z"
       style="font-weight:400;line-height:normal;font-family:sans-serif;font-variant-ligatures:normal;font-variant-position:normal;font-variant-caps:normal;font-variant-numeric:normal;font-variant-alternates:normal;font-feature-settings:normal;text-indent:0;text-align:start;text-decoration:none;text-decoration-line:none;text-decoration-style:solid;text-decoration-color:#000000;text-transform:none;text-orientation:mixed;white-space:normal;shape-padding:0;overflow:visible;isolation:auto;mix-blend-mode:normal;fill:#dfdfdf;fill-opacity:1"
       font-weight="400"
       overflow="visible"
       id="path4"
       inkscape:connector-curvature="0" />
    <path
       d="M 4.496,0 C 3.087,0 2,0.842 2,2.537 V 8.461 C 2,10.156 3.087,11 4.496,11 5.906,11 6.99,10.154 6.99,8.46 V 2.538 C 6.99,0.845 5.905,0 4.496,0 Z m 0,0.998 c 0.505,0 0.856,0.142 1.088,0.361 0.232,0.22 0.408,0.545 0.408,1.178 V 8.461 C 5.992,9.094 5.816,9.419 5.584,9.639 5.352,9.858 5.001,10.002 4.496,10.002 3.991,10.002 3.638,9.859 3.406,9.641 3.175,9.421 2.998,9.095 2.998,8.461 V 2.537 c 0,-0.634 0.177,-0.959 0.408,-1.178 0.232,-0.218 0.585,-0.36 1.09,-0.36 z M 0,7 v 1.5 c 0,2.321 1.748,4.199 4,4.45 v 2.073 A 7.576,7.576 0 0 0 2,15.459 V 16 H 7 V 15.459 A 7.856,7.856 0 0 0 5,15.025 V 12.95 C 7.252,12.7 9,10.822 9,8.501 V 7 H 8 V 8.5 A 3.482,3.482 0 0 1 5,11.951 V 11.5 H 4 v 0.451 A 3.482,3.482 0 0 1 1,8.5 V 7 Z"
       style="overflow:visible;marker:none;fill:#dfdfdf;fill-opacity:1"
       overflow="visible"
       id="path6"
       inkscape:connector-curvature="0" />
  </g>
</svg>
