<?xml version="1.0" encoding="UTF-8" standalone="no"?>
<svg
   xmlns:dc="http://purl.org/dc/elements/1.1/"
   xmlns:cc="http://creativecommons.org/ns#"
   xmlns:rdf="http://www.w3.org/1999/02/22-rdf-syntax-ns#"
   xmlns:svg="http://www.w3.org/2000/svg"
   xmlns="http://www.w3.org/2000/svg"
   xmlns:sodipodi="http://sodipodi.sourceforge.net/DTD/sodipodi-0.dtd"
   xmlns:inkscape="http://www.inkscape.org/namespaces/inkscape"
   height="24"
   width="24"
   version="1.1"
   id="svg10"
   sodipodi:docname="audio-input-microphone-low.svg"
   inkscape:version="0.92.3 (2405546, 2018-03-11)">
  <metadata
     id="metadata16">
    <rdf:RDF>
      <cc:Work
         rdf:about="">
        <dc:format>image/svg+xml</dc:format>
        <dc:type
           rdf:resource="http://purl.org/dc/dcmitype/StillImage" />
        <dc:title></dc:title>
      </cc:Work>
    </rdf:RDF>
  </metadata>
  <defs
     id="defs14" />
  <sodipodi:namedview
     pagecolor="#ffffff"
     bordercolor="#666666"
     borderopacity="1"
     objecttolerance="10"
     gridtolerance="10"
     guidetolerance="10"
     inkscape:pageopacity="0"
     inkscape:pageshadow="2"
     inkscape:window-width="640"
     inkscape:window-height="480"
     id="namedview12"
     showgrid="true"
     inkscape:zoom="12.904699"
     inkscape:cx="-8.8906646"
     inkscape:cy="16.746917"
     inkscape:current-layer="svg10">
    <inkscape:grid
       type="xygrid"
       id="grid18" />
  </sodipodi:namedview>
  <path
     inkscape:connector-curvature="0"
     id="path2"
     overflow="visible"
     font-weight="400"
     style="color:#000000;font-weight:400;line-height:normal;font-family:sans-serif;font-variant-ligatures:normal;font-variant-position:normal;font-variant-caps:normal;font-variant-numeric:normal;font-variant-alternates:normal;font-feature-settings:normal;text-indent:0;text-align:start;text-decoration:none;text-decoration-line:none;text-decoration-style:solid;text-decoration-color:#000000;text-transform:none;text-orientation:mixed;white-space:normal;shape-padding:0;overflow:visible;opacity:0.5;isolation:auto;mix-blend-mode:normal;fill:#dfdfdf;fill-opacity:1"
     d="m 19.356746,8.926 0.707,0.707 -0.354,0.354 a 2.999,2.999 0 0 0 0,4.242 l 0.354,0.353 -0.707,0.707 -0.354,-0.353 a 4,4 0 0 1 0,-5.656 z" />
  <path
     inkscape:connector-curvature="0"
     id="path4"
     overflow="visible"
     font-weight="400"
     style="color:#000000;font-weight:400;line-height:normal;font-family:sans-serif;font-variant-ligatures:normal;font-variant-position:normal;font-variant-caps:normal;font-variant-numeric:normal;font-variant-alternates:normal;font-feature-settings:normal;text-indent:0;text-align:start;text-decoration:none;text-decoration-line:none;text-decoration-style:solid;text-decoration-color:#000000;text-transform:none;text-orientation:mixed;white-space:normal;shape-padding:0;overflow:visible;opacity:0.5;isolation:auto;mix-blend-mode:normal;fill:#dfdfdf;fill-opacity:1"
     d="m 17.234746,6.805 0.707,0.707 -0.353,0.353 a 5.999,5.999 0 0 0 0,8.485 l 0.353,0.353 -0.707,0.707 -0.353,-0.353 a 7,7 0 0 1 0,-9.899 z" />
  <path
     inkscape:connector-curvature="0"
     id="path6"
     overflow="visible"
     style="color:#000000;overflow:visible;fill:#dfdfdf;marker:none;fill-opacity:1"
     d="m 8.5097456,4 c -1.409,0 -2.496,0.842 -2.496,2.537 v 5.924 c 0,1.695 1.087,2.539 2.496,2.539 1.41,0 2.4940004,-0.846 2.4940004,-2.54 V 6.538 C 11.003746,4.845 9.9187456,4 8.5097456,4 Z m 0,0.998 c 0.505,0 0.856,0.142 1.088,0.361 0.232,0.22 0.4080004,0.545 0.4080004,1.178 v 5.924 c 0,0.633 -0.1760004,0.958 -0.4080004,1.178 -0.232,0.219 -0.583,0.363 -1.088,0.363 -0.505,0 -0.858,-0.143 -1.09,-0.361 -0.231,-0.22 -0.408,-0.546 -0.408,-1.18 V 6.537 c 0,-0.634 0.177,-0.959 0.408,-1.178 0.232,-0.218 0.585,-0.36 1.09,-0.36 z m -4.496,6.002 v 1.5 c 0,2.321 1.748,4.199 4,4.45 v 2.073 a 7.576,7.576 0 0 0 -2,0.436 V 20 H 11.013746 V 19.459 A 7.856,7.856 0 0 0 9.0137456,19.025 V 16.95 C 11.265746,16.7 13.013746,14.822 13.013746,12.501 V 11 h -1 v 1.5 A 3.482,3.482 0 0 1 9.0137456,15.951 V 15.5 h -1 v 0.451 a 3.482,3.482 0 0 1 -3,-3.451 V 11 Z" />
</svg>
