<?xml version="1.0" encoding="UTF-8" standalone="no"?>
<svg
   xmlns:dc="http://purl.org/dc/elements/1.1/"
   xmlns:cc="http://creativecommons.org/ns#"
   xmlns:rdf="http://www.w3.org/1999/02/22-rdf-syntax-ns#"
   xmlns:svg="http://www.w3.org/2000/svg"
   xmlns="http://www.w3.org/2000/svg"
   xmlns:sodipodi="http://sodipodi.sourceforge.net/DTD/sodipodi-0.dtd"
   xmlns:inkscape="http://www.inkscape.org/namespaces/inkscape"
   height="24"
   width="24"
   version="1.1"
   id="svg4"
   sodipodi:docname="mintupdate-checking.svg"
   inkscape:version="0.92.3 (2405546, 2018-03-11)">
  <metadata
     id="metadata10">
    <rdf:RDF>
      <cc:Work
         rdf:about="">
        <dc:format>image/svg+xml</dc:format>
        <dc:type
           rdf:resource="http://purl.org/dc/dcmitype/StillImage" />
        <dc:title />
      </cc:Work>
    </rdf:RDF>
  </metadata>
  <defs
     id="defs8" />
  <sodipodi:namedview
     pagecolor="#ffffff"
     bordercolor="#666666"
     borderopacity="1"
     objecttolerance="10"
     gridtolerance="10"
     guidetolerance="10"
     inkscape:pageopacity="0"
     inkscape:pageshadow="2"
     inkscape:window-width="640"
     inkscape:window-height="480"
     id="namedview6"
     showgrid="true"
     inkscape:zoom="12.197592"
     inkscape:cx="-0.15504255"
     inkscape:cy="9.5178076"
     inkscape:current-layer="svg4">
    <inkscape:grid
       type="xygrid"
       id="grid12" />
  </sodipodi:namedview>
  <path
     style="color:#000000;font-style:normal;font-variant:normal;font-weight:400;font-stretch:normal;font-size:medium;line-height:normal;font-family:sans-serif;font-variant-ligatures:normal;font-variant-position:normal;font-variant-caps:normal;font-variant-numeric:normal;font-variant-alternates:normal;font-feature-settings:normal;text-indent:0;text-align:start;text-decoration:none;text-decoration-line:none;text-decoration-style:solid;text-decoration-color:#000000;letter-spacing:normal;word-spacing:normal;text-transform:none;writing-mode:lr-tb;direction:ltr;text-orientation:mixed;dominant-baseline:auto;baseline-shift:baseline;text-anchor:start;white-space:normal;shape-padding:0;clip-rule:nonzero;display:inline;overflow:visible;visibility:visible;opacity:1;isolation:auto;mix-blend-mode:normal;color-interpolation:sRGB;color-interpolation-filters:linearRGB;solid-color:#000000;solid-opacity:1;vector-effect:none;fill:#dfdfdf;fill-opacity:1;fill-rule:nonzero;stroke:none;stroke-width:1;stroke-linecap:butt;stroke-linejoin:miter;stroke-miterlimit:4;stroke-dasharray:none;stroke-dashoffset:0;stroke-opacity:1;marker:none;color-rendering:auto;image-rendering:auto;shape-rendering:auto;text-rendering:auto;enable-background:accumulate"
     d="M 12,3.2441406 11.708984,3.453125 9.6542969,4.9199219 6.7773438,5.1445312 6.0585938,7.9355469 4,9.9570312 5.2441406,12.558594 4.9648438,15.427734 7.5917969,16.623047 9.2207031,19 12,18.228516 14.777344,19 l 1.630859,-2.376953 2.625,-1.195313 -0.277344,-2.86914 L 20,9.9550781 17.941406,7.9355469 17.220703,5.1425781 l -2.875,-0.2226562 z m 0,1.2285156 1.992188,1.421875 2.439453,0.1894532 0.611328,2.3710937 1.746093,1.7148439 -1.05664,2.208984 0.236328,2.435547 -2.228516,1.013672 -1.382812,2.017578 L 12,17.191406 9.6425781,17.845703 8.2578125,15.828125 6.0292969,14.814453 6.265625,12.378906 5.2109375,10.169922 6.9570312,8.4550781 7.5683594,6.0859375 10.009766,5.8945312 Z"
     id="path12"
     inkscape:connector-curvature="0" />
  <path
     inkscape:connector-curvature="0"
     style="color:#000000;font-weight:400;line-height:normal;font-family:sans-serif;font-variant-ligatures:normal;font-variant-position:normal;font-variant-caps:normal;font-variant-numeric:normal;font-variant-alternates:normal;font-feature-settings:normal;text-indent:0;text-align:start;text-decoration:none;text-decoration-line:none;text-decoration-style:solid;text-decoration-color:#000000;text-transform:none;text-orientation:mixed;white-space:normal;shape-padding:0;overflow:visible;opacity:1;isolation:auto;mix-blend-mode:normal;fill:#dfdfdf;fill-opacity:1;stroke-width:0.76146966;marker:none"
     d="m 12.001953,7.9999999 c 0.8403,0.0011 1.641685,0.3547093 2.208985,0.9746093 l 0.787109,-0.4570312 -0.177735,1.4746094 0.0039,0.00781 h -0.0039 l -0.121093,0.9999996 -2.296875,-0.982419 0.908203,-0.5253906 c -0.3628,-0.3162001 -0.827394,-0.4908875 -1.308594,-0.4921875 -0.714,6.001e-4 -1.375422,0.3817001 -1.732422,1 H 9.1738281 c 0.4235,-1.1979 1.5576249,-1.9989999 2.8281249,-2 z"
     id="path10" />
  <path
     inkscape:connector-curvature="0"
     style="color:#000000;font-weight:400;line-height:normal;font-family:sans-serif;font-variant-ligatures:normal;font-variant-position:normal;font-variant-caps:normal;font-variant-numeric:normal;font-variant-alternates:normal;font-feature-settings:normal;text-indent:0;text-align:start;text-decoration:none;text-decoration-line:none;text-decoration-style:solid;text-decoration-color:#000000;text-transform:none;text-orientation:mixed;white-space:normal;shape-padding:0;overflow:visible;opacity:1;isolation:auto;mix-blend-mode:normal;fill:#dfdfdf;fill-opacity:1;stroke-width:0.76146966;marker:none"
     d="M 9.2988281,11.017578 11.597656,12 10.701172,12.517578 C 11.062772,12.827978 11.5234,12.9991 12,13 c 0.714,-6e-4 1.373469,-0.3817 1.730469,-1 h 1.095703 C 14.403172,13.198 13.2705,13.999 12,14 11.1655,13.999 10.369434,13.650109 9.8027344,13.037109 L 9,13.5 l 0.1796875,-1.490234 -0.00391,-0.0098 h 0.00391 z"
     id="path9-3" />
</svg>
