<?xml version="1.0" encoding="UTF-8" standalone="no"?>
<svg
   xmlns:dc="http://purl.org/dc/elements/1.1/"
   xmlns:cc="http://creativecommons.org/ns#"
   xmlns:rdf="http://www.w3.org/1999/02/22-rdf-syntax-ns#"
   xmlns:svg="http://www.w3.org/2000/svg"
   xmlns="http://www.w3.org/2000/svg"
   xmlns:sodipodi="http://sodipodi.sourceforge.net/DTD/sodipodi-0.dtd"
   xmlns:inkscape="http://www.inkscape.org/namespaces/inkscape"
   height="24"
   width="24"
   version="1.1"
   id="svg4"
   sodipodi:docname="network-wired-offline.svg"
   inkscape:version="0.92.3 (2405546, 2018-03-11)">
  <metadata
     id="metadata10">
    <rdf:RDF>
      <cc:Work
         rdf:about="">
        <dc:format>image/svg+xml</dc:format>
        <dc:type
           rdf:resource="http://purl.org/dc/dcmitype/StillImage" />
        <dc:title></dc:title>
      </cc:Work>
    </rdf:RDF>
  </metadata>
  <defs
     id="defs8" />
  <sodipodi:namedview
     pagecolor="#ffffff"
     bordercolor="#666666"
     borderopacity="1"
     objecttolerance="10"
     gridtolerance="10"
     guidetolerance="10"
     inkscape:pageopacity="0"
     inkscape:pageshadow="2"
     inkscape:window-width="640"
     inkscape:window-height="480"
     id="namedview6"
     showgrid="true"
     inkscape:zoom="18.25"
     inkscape:cx="1.2413447"
     inkscape:cy="7.546769"
     inkscape:current-layer="svg4">
    <inkscape:grid
       type="xygrid"
       id="grid817" />
  </sodipodi:namedview>
  <path
     d="M 11.427,6 C 10.977,6.005 10.649,5.988 10.38,6.137 a 0.676,0.676 0 0 0 -0.3,0.357 C 10.02,6.651 10,6.837 10,7.072 V 8.93 c 0,0.235 0.021,0.42 0.08,0.576 a 0.677,0.677 0 0 0 0.3,0.357 c 0.269,0.148 0.597,0.132 1.047,0.137 h 0.572 v 2 h -3.5 C 7.833,12 7.362,12.408 7.177,12.777 6.992,13.147 6.999,13.5 6.999,13.5 V 15 H 6.427 C 5.977,15.005 5.649,14.988 5.38,15.137 a 0.676,0.676 0 0 0 -0.3,0.357 C 5.02,15.651 5,15.837 5,16.072 v 1.858 c 0,0.235 0.021,0.42 0.08,0.576 a 0.677,0.677 0 0 0 0.3,0.357 C 5.649,19.011 5.977,18.995 6.427,19 h 2.144 c 0.45,-0.005 0.779,0.012 1.047,-0.137 0.135,-0.074 0.24,-0.2 0.3,-0.357 0.058,-0.157 0.08,-0.341 0.08,-0.576 v -1.858 c 0,-0.235 -0.022,-0.421 -0.08,-0.578 a 0.673,0.673 0 0 0 -0.3,-0.357 C 9.35,14.987 9.021,15.005 8.572,15 H 7.999 v -1.5 c 0,0 0.01,-0.145 0.072,-0.275 C 8.136,13.094 8.165,13 8.499,13 h 8 c 0.333,0 0.362,0.094 0.428,0.225 A 0.78,0.78 0 0 1 16.999,13.5 V 15 h -0.573 c -0.449,0.005 -0.778,-0.012 -1.046,0.137 a 0.676,0.676 0 0 0 -0.301,0.357 c -0.06,0.157 -0.08,0.343 -0.08,0.578 v 1.858 c 0,0.235 0.022,0.42 0.08,0.576 a 0.677,0.677 0 0 0 0.3,0.357 c 0.27,0.148 0.598,0.132 1.047,0.137 h 2.145 c 0.45,-0.005 0.778,0.012 1.047,-0.137 0.134,-0.074 0.24,-0.2 0.299,-0.357 0.059,-0.157 0.08,-0.341 0.08,-0.576 v -1.858 c 0,-0.235 -0.021,-0.421 -0.08,-0.578 a 0.673,0.673 0 0 0 -0.3,-0.357 C 19.349,14.987 19.02,15.005 18.571,15 h -0.572 v -1.5 c 0,0 0.01,-0.353 -0.178,-0.723 A 1.485,1.485 0 0 0 16.499,12 h -3.5 v -2 h 0.572 c 0.45,-0.005 0.778,0.012 1.047,-0.137 0.134,-0.074 0.24,-0.2 0.299,-0.357 0.059,-0.157 0.08,-0.341 0.08,-0.576 V 7.072 c 0,-0.235 -0.021,-0.421 -0.08,-0.578 a 0.673,0.673 0 0 0 -0.3,-0.357 C 14.349,5.987 14.02,6.005 13.571,6 Z m -0.426,1 h 3 v 2 h -3 z m -5,9 h 3 v 2 h -3 z m 10,0 h 3 v 2 h -3 z"
     font-weight="400"
     overflow="visible"
     style="color:#000000;font-weight:400;line-height:normal;font-family:sans-serif;font-variant-ligatures:normal;font-variant-position:normal;font-variant-caps:normal;font-variant-numeric:normal;font-variant-alternates:normal;font-feature-settings:normal;text-indent:0;text-align:start;text-decoration:none;text-decoration-line:none;text-decoration-style:solid;text-decoration-color:#000000;text-transform:none;text-orientation:mixed;white-space:normal;shape-padding:0;overflow:visible;opacity:0.5;isolation:auto;mix-blend-mode:normal;fill:#dfdfdf;fill-opacity:1;marker:none"
     id="path2"
     inkscape:connector-curvature="0" />
</svg>
