<?xml version="1.0" encoding="UTF-8" standalone="no"?>
<svg
   xmlns:dc="http://purl.org/dc/elements/1.1/"
   xmlns:cc="http://creativecommons.org/ns#"
   xmlns:rdf="http://www.w3.org/1999/02/22-rdf-syntax-ns#"
   xmlns:svg="http://www.w3.org/2000/svg"
   xmlns="http://www.w3.org/2000/svg"
   xmlns:sodipodi="http://sodipodi.sourceforge.net/DTD/sodipodi-0.dtd"
   xmlns:inkscape="http://www.inkscape.org/namespaces/inkscape"
   height="24"
   width="24"
   version="1.1"
   id="svg8"
   sodipodi:docname="network-wired-acquiring.svg"
   inkscape:version="0.92.3 (2405546, 2018-03-11)">
  <metadata
     id="metadata14">
    <rdf:RDF>
      <cc:Work
         rdf:about="">
        <dc:format>image/svg+xml</dc:format>
        <dc:type
           rdf:resource="http://purl.org/dc/dcmitype/StillImage" />
        <dc:title></dc:title>
      </cc:Work>
    </rdf:RDF>
  </metadata>
  <defs
     id="defs12" />
  <sodipodi:namedview
     pagecolor="#ffffff"
     bordercolor="#666666"
     borderopacity="1"
     objecttolerance="10"
     gridtolerance="10"
     guidetolerance="10"
     inkscape:pageopacity="0"
     inkscape:pageshadow="2"
     inkscape:window-width="640"
     inkscape:window-height="480"
     id="namedview10"
     showgrid="true"
     inkscape:zoom="36.5"
     inkscape:cx="6.2416857"
     inkscape:cy="11.716407"
     inkscape:current-layer="svg8">
    <inkscape:grid
       type="xygrid"
       id="grid821" />
  </sodipodi:namedview>
  <path
     inkscape:connector-curvature="0"
     id="path2"
     style="color:#000000;font-weight:400;line-height:normal;font-family:sans-serif;font-variant-ligatures:normal;font-variant-position:normal;font-variant-caps:normal;font-variant-numeric:normal;font-variant-alternates:normal;font-feature-settings:normal;text-indent:0;text-align:start;text-decoration:none;text-decoration-line:none;text-decoration-style:solid;text-decoration-color:#000000;text-transform:none;text-orientation:mixed;white-space:normal;shape-padding:0;overflow:visible;opacity:0.5;isolation:auto;mix-blend-mode:normal;fill:#dfdfdf;marker:none;fill-opacity:1"
     overflow="visible"
     font-weight="400"
     d="M 10.425,6 C 9.975,6.005 9.647,5.988 9.378,6.137 a 0.676,0.676 0 0 0 -0.3,0.357 C 9.018,6.651 8.998,6.837 8.998,7.072 V 8.93 c 0,0.235 0.021,0.42 0.08,0.576 a 0.677,0.677 0 0 0 0.3,0.357 C 9.647,10.011 9.975,9.995 10.425,10 h 2.146 c 0.45,-0.005 0.778,0.012 1.047,-0.137 0.135,-0.074 0.24,-0.2 0.3,-0.357 0.058,-0.157 0.08,-0.341 0.08,-0.576 V 7.072 c 0,-0.235 -0.022,-0.421 -0.08,-0.578 a 0.673,0.673 0 0 0 -0.3,-0.357 C 13.349,5.987 13.021,6.005 12.572,6 Z M 9.999,7 h 3 v 2 h -3 z m -4,6.479 V 15 H 5.427 C 4.977,15.005 4.649,14.988 4.38,15.137 a 0.676,0.676 0 0 0 -0.3,0.357 C 4.02,15.651 4,15.837 4,16.072 v 1.858 c 0,0.235 0.021,0.42 0.08,0.576 a 0.677,0.677 0 0 0 0.3,0.357 C 4.649,19.011 4.977,18.995 5.427,19 h 2.144 c 0.45,-0.005 0.778,0.012 1.047,-0.137 0.135,-0.074 0.24,-0.2 0.3,-0.357 0.058,-0.157 0.08,-0.341 0.08,-0.576 v -1.858 c 0,-0.235 -0.022,-0.421 -0.08,-0.578 a 0.673,0.673 0 0 0 -0.3,-0.357 C 8.349,14.987 8.021,15.005 7.572,15 H 5.999 Z M 15.425,15 c -0.45,0.005 -0.778,-0.012 -1.047,0.137 a 0.676,0.676 0 0 0 -0.3,0.357 c -0.06,0.157 -0.08,0.343 -0.08,0.578 v 1.858 c 0,0.235 0.021,0.42 0.08,0.576 a 0.677,0.677 0 0 0 0.3,0.357 c 0.269,0.148 0.597,0.132 1.047,0.137 h 2.144 c 0.45,-0.005 0.779,0.012 1.047,-0.137 0.135,-0.074 0.24,-0.2 0.3,-0.357 0.058,-0.157 0.08,-0.341 0.08,-0.576 v -1.858 c 0,-0.235 -0.022,-0.421 -0.08,-0.578 a 0.673,0.673 0 0 0 -0.3,-0.357 C 18.348,14.987 18.019,15.005 17.57,15 H 17 Z M 4.999,16 h 3 v 2 h -3 z m 10,0 h 3 v 2 h -3 z" />
  <path
     inkscape:connector-curvature="0"
     id="path4"
     style="color:#000000;display:block;overflow:visible;isolation:auto;mix-blend-mode:normal;fill:#dfdfdf;marker:none;fill-opacity:1"
     overflow="visible"
     display="block"
     d="M 7.499,11 C 6.67,11 6.003,11.667 6.003,12.496 v 0.016 c 0,0.829 0.667,1.496 1.496,1.496 h 0.016 c 0.83,0 1.496,-0.667 1.496,-1.496 V 12.496 C 9.011,11.667 8.344,11 7.515,11 Z m 4,0 c -0.829,0 -1.496,0.667 -1.496,1.496 v 0.016 c 0,0.829 0.667,1.496 1.496,1.496 h 0.016 c 0.83,0 1.496,-0.667 1.496,-1.496 V 12.496 C 13.011,11.667 12.344,11 11.515,11 Z m 4,0 c -0.829,0 -1.496,0.667 -1.496,1.496 v 0.016 c 0,0.829 0.667,1.496 1.496,1.496 h 0.016 c 0.83,0 1.496,-0.667 1.496,-1.496 V 12.496 C 17.011,11.667 16.344,11 15.515,11 Z" />
</svg>
