<?xml version="1.0" encoding="UTF-8" standalone="no"?>
<svg
   xmlns:dc="http://purl.org/dc/elements/1.1/"
   xmlns:cc="http://creativecommons.org/ns#"
   xmlns:rdf="http://www.w3.org/1999/02/22-rdf-syntax-ns#"
   xmlns:svg="http://www.w3.org/2000/svg"
   xmlns="http://www.w3.org/2000/svg"
   xmlns:sodipodi="http://sodipodi.sourceforge.net/DTD/sodipodi-0.dtd"
   xmlns:inkscape="http://www.inkscape.org/namespaces/inkscape"
   height="24"
   width="24"
   version="1.1"
   id="svg4"
   sodipodi:docname="network-cellular-3g.svg"
   inkscape:version="0.92.3 (2405546, 2018-03-11)">
  <metadata
     id="metadata10">
    <rdf:RDF>
      <cc:Work
         rdf:about="">
        <dc:format>image/svg+xml</dc:format>
        <dc:type
           rdf:resource="http://purl.org/dc/dcmitype/StillImage" />
        <dc:title></dc:title>
      </cc:Work>
    </rdf:RDF>
  </metadata>
  <defs
     id="defs8" />
  <sodipodi:namedview
     pagecolor="#ffffff"
     bordercolor="#666666"
     borderopacity="1"
     objecttolerance="10"
     gridtolerance="10"
     guidetolerance="10"
     inkscape:pageopacity="0"
     inkscape:pageshadow="2"
     inkscape:window-width="640"
     inkscape:window-height="480"
     id="namedview6"
     showgrid="true"
     inkscape:zoom="18.25"
     inkscape:cx="-1.5890411"
     inkscape:cy="7.5616438"
     inkscape:current-layer="svg4">
    <inkscape:grid
       type="xygrid"
       id="grid817" />
  </sodipodi:namedview>
  <path
     d="m 6.713,6.0002539 c -1.058,-0.013 -1.768,0.224 -2.133,0.662 -0.383,0.456 -0.58,1.204 -0.58,2.244 v 6.1880001 c 0,1.04 0.197,1.788 0.58,2.244 0.365,0.438 1.075,0.662 2.133,0.662 h 10.574 c 1.058,0 1.77,-0.224 2.135,-0.662 0.383,-0.456 0.578,-1.204 0.578,-2.244 V 8.9062539 c 0,-1.04 -0.195,-1.788 -0.578,-2.244 -0.365,-0.438 -1.077,-0.662 -2.135,-0.662 z m 1.795,2.621 c 0.38,0 0.707,0.047 0.98,0.14 0.28,0.088 0.511,0.216 0.692,0.384 0.18,0.161 0.313,0.354 0.4,0.578 0.087,0.217 0.131,0.4570001 0.131,0.7180001 0,0.256 -0.072,0.504 -0.215,0.747 a 1.423,1.423 0 0 1 -0.578,0.54 c 0.336,0.137 0.593,0.344 0.773,0.618 0.187,0.267 0.282,0.59 0.282,0.97 0,0.3 -0.051,0.575 -0.15,0.83 -0.1,0.25 -0.256,0.468 -0.468,0.655 -0.211,0.18 -0.48,0.322 -0.81,0.428 -0.324,0.1 -0.71,0.15 -1.158,0.15 -0.168,0 -0.345,-0.012 -0.532,-0.037 a 4.904,4.904 0 0 1 -0.54,-0.084 5.85,5.85 0 0 1 -0.477,-0.121 2.726,2.726 0 0 1 -0.336,-0.121 l 0.27,-1.159 c 0.161,0.069 0.368,0.144 0.617,0.225 0.255,0.075 0.568,0.111 0.941,0.111 0.43,0 0.744,-0.08 0.943,-0.242 a 0.8,0.8 0 0 0 0.3,-0.654 0.741,0.741 0 0 0 -0.112,-0.42 0.735,0.735 0 0 0 -0.29,-0.28 1.196,1.196 0 0 0 -0.448,-0.15 2.97,2.97 0 0 0 -0.541,-0.047 H 7.64 v -1.119 h 0.615 a 2,2 0 0 0 0.392,-0.037 c 0.131,-0.025 0.247,-0.065 0.346,-0.12 a 0.666,0.666 0 0 0 0.233,-0.243 0.764,0.764 0 0 0 0.093,-0.393 0.612,0.612 0 0 0 -0.271,-0.5230001 0.715,0.715 0 0 0 -0.27,-0.121 1.031,1.031 0 0 0 -0.308,-0.047 c -0.268,0 -0.516,0.04 -0.746,0.121 -0.224,0.08 -0.43,0.1800001 -0.618,0.2990001 L 6.612,9.1992539 a 3.724,3.724 0 0 1 1.307,-0.521 c 0.187,-0.038 0.382,-0.057 0.588,-0.057 z m 6.762,0 c 0.304,0 0.577,0.023 0.82,0.067 0.249,0.037 0.46,0.082 0.635,0.138 0.18,0.05 0.327,0.104 0.44,0.16 0.117,0.056 0.201,0.1 0.251,0.131 l -0.42,1.1660001 a 3.56,3.56 0 0 0 -0.691,-0.271 2.766,2.766 0 0 0 -0.84,-0.1210001 c -0.678,0 -1.17,0.1900001 -1.475,0.5700001 -0.298,0.373 -0.447,0.886 -0.447,1.539 0,0.317 0.037,0.606 0.111,0.867 0.075,0.255 0.187,0.478 0.336,0.664 0.15,0.187 0.337,0.332 0.56,0.438 0.225,0.1 0.485,0.15 0.784,0.15 0.162,0 0.298,-0.004 0.41,-0.01 0.118,-0.006 0.222,-0.018 0.309,-0.037 v -2.25 h 1.457 v 3.201 a 5.24,5.24 0 0 1 -0.84,0.215 c -0.386,0.081 -0.864,0.123 -1.43,0.123 -0.485,0 -0.926,-0.075 -1.324,-0.224 a 2.77,2.77 0 0 1 -1.008,-0.655 2.97,2.97 0 0 1 -0.654,-1.054 4.22,4.22 0 0 1 -0.224,-1.428 c 0,-0.542 0.084,-1.02 0.252,-1.438 0.168,-0.417 0.397,-0.7680001 0.69,-1.0540001 a 2.89,2.89 0 0 1 1.028,-0.662 c 0.398,-0.15 0.822,-0.225 1.27,-0.225 z"
     style="font-weight:400;font-size:15px;line-height:125%;font-family:Ubuntu;-inkscape-font-specification:Ubuntu;text-align:center;letter-spacing:0;word-spacing:0;text-anchor:middle;fill:#dfdfdf;fill-opacity:1"
     font-weight="400"
     font-size="15"
     letter-spacing="0"
     word-spacing="0"
     id="path2"
     inkscape:connector-curvature="0" />
</svg>
