<?xml version="1.0" encoding="UTF-8" standalone="no"?>
<svg
   xmlns:dc="http://purl.org/dc/elements/1.1/"
   xmlns:cc="http://creativecommons.org/ns#"
   xmlns:rdf="http://www.w3.org/1999/02/22-rdf-syntax-ns#"
   xmlns:svg="http://www.w3.org/2000/svg"
   xmlns="http://www.w3.org/2000/svg"
   xmlns:sodipodi="http://sodipodi.sourceforge.net/DTD/sodipodi-0.dtd"
   xmlns:inkscape="http://www.inkscape.org/namespaces/inkscape"
   height="24"
   width="24"
   version="1.1"
   id="svg8"
   sodipodi:docname="network-wired-no-route.svg"
   inkscape:version="0.92.3 (2405546, 2018-03-11)">
  <metadata
     id="metadata14">
    <rdf:RDF>
      <cc:Work
         rdf:about="">
        <dc:format>image/svg+xml</dc:format>
        <dc:type
           rdf:resource="http://purl.org/dc/dcmitype/StillImage" />
        <dc:title></dc:title>
      </cc:Work>
    </rdf:RDF>
  </metadata>
  <defs
     id="defs12" />
  <sodipodi:namedview
     pagecolor="#ffffff"
     bordercolor="#666666"
     borderopacity="1"
     objecttolerance="10"
     gridtolerance="10"
     guidetolerance="10"
     inkscape:pageopacity="0"
     inkscape:pageshadow="2"
     inkscape:window-width="640"
     inkscape:window-height="480"
     id="namedview10"
     showgrid="true"
     inkscape:zoom="28.802831"
     inkscape:cx="7.9644995"
     inkscape:cy="7.4686813"
     inkscape:current-layer="svg8">
    <inkscape:grid
       type="xygrid"
       id="grid821" />
  </sodipodi:namedview>
  <path
     inkscape:connector-curvature="0"
     id="path2"
     style="color:#000000;font-weight:400;line-height:normal;font-family:sans-serif;font-variant-ligatures:normal;font-variant-position:normal;font-variant-caps:normal;font-variant-numeric:normal;font-variant-alternates:normal;font-feature-settings:normal;text-indent:0;text-align:start;text-decoration:none;text-decoration-line:none;text-decoration-style:solid;text-decoration-color:#000000;text-transform:none;text-orientation:mixed;white-space:normal;shape-padding:0;overflow:visible;opacity:0.5;isolation:auto;mix-blend-mode:normal;fill:#dfdfdf;fill-opacity:1;marker:none"
     overflow="visible"
     font-weight="400"
     d="M 10.428,6 C 9.978,6.005 9.65,5.988 9.381,6.137 A 0.676,0.676 0 0 0 9.08,6.494 C 9.043,6.594 9.025,6.712 9.014,6.84 L 9.084,6.805 9.146,6.773 a 6.885,6.885 0 0 1 1.365,-0.521 c 0.485,-0.124 1,-0.169 1.52,-0.186 l 0.1,-0.029 h 0.144 c 0.315,0 0.608,0.028 0.89,0.07 0.19,0.028 0.376,0.06 0.552,0.11 C 13.685,6.19 13.657,6.157 13.621,6.137 13.35,5.987 13.023,6.005 12.574,6 Z m 1.646,3.123 c -0.133,0 -0.267,0.01 -0.4,0.027 -0.4,0.054 -0.805,0.187 -1.223,0.395 L 9.865,9.98 c 0.167,0.014 0.347,0.018 0.563,0.02 H 11 v 2 H 7.5 C 6.833,12 6.362,12.408 6.178,12.777 5.993,13.147 6,13.5 6,13.5 V 15 H 5.428 C 4.978,15.005 4.65,14.988 4.381,15.137 A 0.676,0.676 0 0 0 4.08,15.494 C 4.021,15.651 4,15.837 4,16.072 v 1.858 c 0,0.234 0.022,0.42 0.08,0.576 a 0.677,0.677 0 0 0 0.3,0.357 C 4.65,19.011 4.978,18.995 5.428,19 h 2.144 c 0.45,-0.005 0.778,0.012 1.047,-0.137 0.134,-0.074 0.24,-0.2 0.299,-0.357 0.059,-0.157 0.08,-0.342 0.08,-0.576 v -1.858 c 0,-0.235 -0.021,-0.421 -0.08,-0.578 A 0.673,0.673 0 0 0 8.619,15.137 C 8.35,14.987 8.022,15.005 7.572,15 H 7 v -1.5 c 0,0 0.01,-0.145 0.072,-0.275 C 7.137,13.094 7.166,13 7.5,13 h 3.195 c 0.012,-0.023 0.027,-0.045 0.039,-0.068 v -0.004 c 0.055,-0.101 0.11,-0.201 0.172,-0.297 0.02,-0.032 0.043,-0.061 0.064,-0.092 a 4.74,4.74 0 0 1 0.164,-0.233 l 0.01,-0.008 0.019,-0.037 0.01,-0.011 c 0.01,-0.01 0.012,-0.02 0.02,-0.03 0,-0.004 0.01,-0.007 0.01,-0.01 l -0.02,0.028 0.022,-0.024 v -0.008 c 0.128,-0.163 0.271,-0.306 0.412,-0.453 l 0.187,-0.207 0.014,-0.014 c 0.01,-0.007 0.01,-0.013 0.016,-0.02 l 0.037,-0.044 a 0.8,0.8 0 0 1 0.037,-0.04 C 11.941,11.396 11.968,11.364 12,11.331 V 10 h 0.573 c 0.151,-0.002 0.272,-0.006 0.398,-0.01 a 0.607,0.607 0 0 0 0.016,-0.139 c 0,-0.278 -0.059,-0.391 -0.187,-0.515 0,-0.005 -0.01,-0.01 -0.012,-0.014 -0.104,-0.103 -0.284,-0.2 -0.715,-0.2 z m 3.461,2.883 c -0.034,0.044 -0.064,0.091 -0.1,0.135 a 8.24,8.24 0 0 1 -0.797,0.836 c -0.01,0.007 -0.013,0.016 -0.022,0.023 h 0.883 c 0.333,0 0.362,0.094 0.428,0.225 A 0.78,0.78 0 0 1 15.999,13.5 V 15 h -0.573 c -0.449,0.005 -0.778,-0.012 -1.046,0.137 a 0.676,0.676 0 0 0 -0.301,0.357 c -0.06,0.157 -0.08,0.343 -0.08,0.578 v 1.69 c 0.012,0.085 0.025,0.171 0.025,0.256 0,0.02 0,0.041 -0.01,0.062 0.013,0.152 0.032,0.35 0.06,0.426 a 0.676,0.676 0 0 0 0.3,0.357 c 0.27,0.148 0.598,0.132 1.047,0.137 h 2.145 c 0.45,-0.005 0.778,0.012 1.047,-0.137 0.134,-0.074 0.24,-0.2 0.299,-0.357 0.059,-0.157 0.08,-0.341 0.08,-0.576 v -1.858 c 0,-0.235 -0.021,-0.421 -0.08,-0.578 a 0.673,0.673 0 0 0 -0.3,-0.357 C 18.344,14.987 18.015,15.005 17.566,15 h -0.572 v -1.5 c 0,0 0.01,-0.353 -0.178,-0.723 -0.181,-0.362 -0.64,-0.756 -1.287,-0.771 z M 14.02,18.08 v -0.016 c 0,0.054 -0.012,0.107 -0.018,0.16 v 0.05 c 0.01,-0.065 0.015,-0.13 0.02,-0.194 z M 5.002,16 h 3 v 2 h -3 z m 10,0 h 3 v 2 h -3 z" />
  <path
     inkscape:connector-curvature="0"
     id="path4"
     word-spacing="0"
     style="font-weight:500;font-size:72.03600311px;line-height:125%;font-family:Ubuntu;-inkscape-font-specification:'Ubuntu Medium';text-align:center;letter-spacing:0;word-spacing:0;text-anchor:middle;fill:#dfdfdf;fill-opacity:1"
     letter-spacing="0"
     font-weight="500"
     font-size="72.036"
     d="m 12.273,7.001 c -0.533,0 -1.037,0.061 -1.513,0.183 A 5.853,5.853 0 0 0 9.593,7.63 L 8.936,8.088 9.502,8.964 9.954,8.628 c 0.688,-0.35 1.394,-0.54 2.116,-0.54 0.607,0 1.089,0.16 1.42,0.491 0.328,0.316 0.494,0.737 0.494,1.236 0,0.311 -0.073,0.603 -0.218,0.868 a 3.339,3.339 0 0 1 -0.507,0.736 c -0.205,0.227 -0.421,0.455 -0.648,0.682 l -0.001,10e-4 a 6.385,6.385 0 0 0 -0.632,0.7 l -10e-4,0.002 a 3.66,3.66 0 0 0 -0.492,0.786 2.378,2.378 0 0 0 -0.177,0.935 c 0,0.208 0.024,0.403 0.056,0.594 h 1.087 c 0,-0.023 -0.01,-0.044 -0.01,-0.068 v -0.187 c 0,-0.387 0.077,-0.74 0.232,-1.05 0.151,-0.314 0.337,-0.599 0.558,-0.855 l 0.002,-0.002 c 0.217,-0.264 0.458,-0.515 0.72,-0.755 a 7.23,7.23 0 0 0 0.701,-0.734 4.27,4.27 0 0 0 0.527,-0.807 c 0.138,-0.288 0.208,-0.613 0.208,-0.982 A 3.06,3.06 0 0 0 15.242,8.765 V 8.763 L 15.241,8.761 A 2.04,2.04 0 0 0 14.76,7.894 C 14.525,7.639 14.208,7.428 13.803,7.264 V 7.262 C 13.417,7.09 12.908,7.001 12.275,7.001 Z m -0.271,9.963 c -0.325,0 -0.562,0.1 -0.743,0.3 a 1.025,1.025 0 0 0 -0.274,0.718 c 0,0.279 0.089,0.512 0.274,0.718 0.181,0.2 0.418,0.3 0.743,0.3 0.325,0 0.562,-0.099 0.743,-0.3 0.186,-0.206 0.275,-0.44 0.275,-0.718 0,-0.28 -0.09,-0.512 -0.275,-0.718 -0.181,-0.2 -0.418,-0.3 -0.743,-0.3 z" />
</svg>
