<?xml version="1.0" encoding="UTF-8" standalone="no"?>
<svg
   xmlns:dc="http://purl.org/dc/elements/1.1/"
   xmlns:cc="http://creativecommons.org/ns#"
   xmlns:rdf="http://www.w3.org/1999/02/22-rdf-syntax-ns#"
   xmlns:svg="http://www.w3.org/2000/svg"
   xmlns="http://www.w3.org/2000/svg"
   xmlns:sodipodi="http://sodipodi.sourceforge.net/DTD/sodipodi-0.dtd"
   xmlns:inkscape="http://www.inkscape.org/namespaces/inkscape"
   height="24"
   width="24"
   version="1.1"
   id="svg10"
   sodipodi:docname="network-wireless-hotspot.svg"
   inkscape:version="0.92.3 (2405546, 2018-03-11)">
  <metadata
     id="metadata16">
    <rdf:RDF>
      <cc:Work
         rdf:about="">
        <dc:format>image/svg+xml</dc:format>
        <dc:type
           rdf:resource="http://purl.org/dc/dcmitype/StillImage" />
        <dc:title></dc:title>
      </cc:Work>
    </rdf:RDF>
  </metadata>
  <defs
     id="defs14" />
  <sodipodi:namedview
     pagecolor="#ffffff"
     bordercolor="#666666"
     borderopacity="1"
     objecttolerance="10"
     gridtolerance="10"
     guidetolerance="10"
     inkscape:pageopacity="0"
     inkscape:pageshadow="2"
     inkscape:window-width="640"
     inkscape:window-height="480"
     id="namedview12"
     showgrid="true"
     inkscape:zoom="18.25"
     inkscape:cx="0.16181178"
     inkscape:cy="10.033491"
     inkscape:current-layer="svg10">
    <inkscape:grid
       type="xygrid"
       id="grid823" />
  </sodipodi:namedview>
  <path
     inkscape:connector-curvature="0"
     id="path2"
     style="color:#000000;font-weight:400;line-height:normal;font-family:sans-serif;font-variant-ligatures:normal;font-variant-position:normal;font-variant-caps:normal;font-variant-numeric:normal;font-variant-alternates:normal;font-feature-settings:normal;text-indent:0;text-align:start;text-decoration:none;text-decoration-line:none;text-decoration-style:solid;text-decoration-color:#000000;text-transform:none;text-orientation:mixed;white-space:normal;shape-padding:0;overflow:visible;isolation:auto;mix-blend-mode:normal;fill:#dfdfdf;fill-opacity:1"
     overflow="visible"
     font-weight="400"
     d="m 12.4995,3.988 a 7.48,7.48 0 0 0 -5.305,2.196 c -2.926,2.925 -2.926,7.683 0,10.609 l 0.707,-0.707 a 6.494,6.494 0 0 1 0,-9.195 6.497,6.497 0 0 1 9.198,0 6.494,6.494 0 0 1 0,9.195 l 0.707,0.707 c 2.926,-2.926 2.926,-7.684 0,-10.61 a 7.484,7.484 0 0 0 -5.307,-2.195 z" />
  <path
     inkscape:connector-curvature="0"
     id="path4"
     style="color:#000000;font-weight:400;line-height:normal;font-family:sans-serif;font-variant-ligatures:normal;font-variant-position:normal;font-variant-caps:normal;font-variant-numeric:normal;font-variant-alternates:normal;font-feature-settings:normal;text-indent:0;text-align:start;text-decoration:none;text-decoration-line:none;text-decoration-style:solid;text-decoration-color:#000000;text-transform:none;text-orientation:mixed;white-space:normal;shape-padding:0;overflow:visible;isolation:auto;mix-blend-mode:normal;fill:#dfdfdf;fill-opacity:1"
     overflow="visible"
     font-weight="400"
     d="m 12.4995,6.992 a 4.51,4.51 0 0 0 -3.184,1.305 4.45,4.45 0 0 0 0,6.32 l 0.705,-0.71 a 3.43,3.43 0 0 1 0,-4.9 3.523,3.523 0 0 1 4.957,0 3.43,3.43 0 0 1 0,4.9 l 0.706,0.71 a 4.45,4.45 0 0 0 0,-6.32 4.51,4.51 0 0 0 -3.184,-1.305 z" />
  <path
     style="fill:#dfdfdf;fill-opacity:1"
     inkscape:connector-curvature="0"
     id="path6"
     d="m 12.4995,10 a 1.5,1.5 0 0 0 -1.5,1.5 1.5,1.5 0 0 0 1,1.412 V 19 h 1 v -6.088 a 1.5,1.5 0 0 0 1,-1.412 1.5,1.5 0 0 0 -1.5,-1.5 z" />
</svg>
