<?xml version="1.0" encoding="UTF-8" standalone="no"?>
<svg
   xmlns:dc="http://purl.org/dc/elements/1.1/"
   xmlns:cc="http://creativecommons.org/ns#"
   xmlns:rdf="http://www.w3.org/1999/02/22-rdf-syntax-ns#"
   xmlns:svg="http://www.w3.org/2000/svg"
   xmlns="http://www.w3.org/2000/svg"
   xmlns:sodipodi="http://sodipodi.sourceforge.net/DTD/sodipodi-0.dtd"
   xmlns:inkscape="http://www.inkscape.org/namespaces/inkscape"
   height="24"
   width="24"
   version="1.1"
   id="svg10"
   sodipodi:docname="network-wired-disconnected.svg"
   inkscape:version="0.92.3 (2405546, 2018-03-11)">
  <metadata
     id="metadata16">
    <rdf:RDF>
      <cc:Work
         rdf:about="">
        <dc:format>image/svg+xml</dc:format>
        <dc:type
           rdf:resource="http://purl.org/dc/dcmitype/StillImage" />
        <dc:title></dc:title>
      </cc:Work>
    </rdf:RDF>
  </metadata>
  <defs
     id="defs14" />
  <sodipodi:namedview
     pagecolor="#ffffff"
     bordercolor="#666666"
     borderopacity="1"
     objecttolerance="10"
     gridtolerance="10"
     guidetolerance="10"
     inkscape:pageopacity="0"
     inkscape:pageshadow="2"
     inkscape:window-width="640"
     inkscape:window-height="480"
     id="namedview12"
     showgrid="true"
     inkscape:zoom="12.904699"
     inkscape:cx="-5.0732692"
     inkscape:cy="6.9013028"
     inkscape:current-layer="svg10">
    <inkscape:grid
       type="xygrid"
       id="grid823" />
  </sodipodi:namedview>
  <path
     inkscape:connector-curvature="0"
     id="path2"
     style="color:#000000;font-weight:400;line-height:normal;font-family:sans-serif;font-variant-ligatures:normal;font-variant-position:normal;font-variant-caps:normal;font-variant-numeric:normal;font-variant-alternates:normal;font-feature-settings:normal;text-indent:0;text-align:start;text-decoration:none;text-decoration-line:none;text-decoration-style:solid;text-decoration-color:#000000;text-transform:none;text-orientation:mixed;white-space:normal;shape-padding:0;overflow:visible;isolation:auto;mix-blend-mode:normal;fill:#dfdfdf;fill-rule:evenodd;fill-opacity:1"
     overflow="visible"
     d="m 14.501,13.805178 -0.707,0.707 0.353,0.354 4,4 0.354,0.353 0.707,-0.707 -0.354,-0.354 -4,-4 z" />
  <path
     inkscape:connector-curvature="0"
     id="path4"
     style="color:#000000;font-weight:400;line-height:normal;font-family:sans-serif;font-variant-ligatures:normal;font-variant-position:normal;font-variant-caps:normal;font-variant-numeric:normal;font-variant-alternates:normal;font-feature-settings:normal;text-indent:0;text-align:start;text-decoration:none;text-decoration-line:none;text-decoration-style:solid;text-decoration-color:#000000;text-transform:none;text-orientation:mixed;white-space:normal;shape-padding:0;overflow:visible;isolation:auto;mix-blend-mode:normal;fill:#dfdfdf;fill-rule:evenodd;fill-opacity:1"
     overflow="visible"
     d="m 18.501,13.805178 -0.353,0.353 -4,4 -0.354,0.354 0.707,0.707 0.354,-0.353 4,-4 0.353,-0.354 z" />
  <path
     inkscape:connector-curvature="0"
     id="path6"
     style="color:#000000;font-weight:400;line-height:normal;font-family:sans-serif;font-variant-ligatures:normal;font-variant-position:normal;font-variant-caps:normal;font-variant-numeric:normal;font-variant-alternates:normal;font-feature-settings:normal;text-indent:0;text-align:start;text-decoration:none;text-decoration-line:none;text-decoration-style:solid;text-decoration-color:#000000;text-transform:none;text-orientation:mixed;white-space:normal;shape-padding:0;overflow:visible;opacity:0.5;isolation:auto;mix-blend-mode:normal;fill:#dfdfdf;marker:none;fill-opacity:1"
     overflow="visible"
     d="m 10.427,5.0121784 c -0.45,0.005 -0.778,-0.012 -1.047,0.137 a 0.676,0.676 0 0 0 -0.3,0.357 c -0.06,0.157 -0.08,0.343 -0.08,0.578 v 1.858 c 0,0.235 0.021,0.42 0.08,0.576 a 0.677,0.677 0 0 0 0.3,0.357 c 0.269,0.148 0.597,0.132 1.047,0.137 h 0.572 v 1.9999996 h -3.5 c -0.666,0 -1.137,0.408 -1.322,0.777 -0.185,0.37 -0.178,0.723 -0.178,0.723 v 1.5 H 5.427 c -0.45,0.005 -0.778,-0.012 -1.047,0.137 a 0.676,0.676 0 0 0 -0.3,0.357 c -0.06,0.157 -0.08,0.343 -0.08,0.578 v 1.858 c 0,0.235 0.021,0.42 0.08,0.576 a 0.677,0.677 0 0 0 0.3,0.357 c 0.269,0.148 0.597,0.132 1.047,0.137 h 2.144 c 0.45,-0.005 0.779,0.012 1.047,-0.137 0.135,-0.074 0.24,-0.2 0.3,-0.357 0.058,-0.157 0.08,-0.341 0.08,-0.576 v -1.858 c 0,-0.235 -0.022,-0.421 -0.08,-0.578 a 0.673,0.673 0 0 0 -0.3,-0.357 c -0.268,-0.15 -0.597,-0.132 -1.046,-0.137 H 6.999 v -1.5 c 0,0 0.01,-0.145 0.072,-0.275 0.065,-0.131 0.094,-0.225 0.428,-0.225 h 8 c 0.333,0 0.362,0.094 0.428,0.225 a 0.78,0.78 0 0 1 0.072,0.275 v 0.5 h 1 v -0.5 c 0,0 0.01,-0.353 -0.178,-0.723 a 1.485,1.485 0 0 0 -1.322,-0.777 h -3.5 V 9.0121784 h 0.572 c 0.45,-0.005 0.778,0.012 1.047,-0.137 0.134,-0.074 0.24,-0.2 0.299,-0.357 0.059,-0.157 0.08,-0.341 0.08,-0.576 v -1.858 c 0,-0.235 -0.021,-0.421 -0.08,-0.578 a 0.673,0.673 0 0 0 -0.3,-0.357 c -0.268,-0.15 -0.597,-0.132 -1.046,-0.137 z m -0.426,1 h 3 v 2 h -3 z m -5,8.9999996 h 3 v 2 h -3 z" />
</svg>
