<?xml version="1.0" encoding="UTF-8" standalone="no"?>
<svg
   xmlns:dc="http://purl.org/dc/elements/1.1/"
   xmlns:cc="http://creativecommons.org/ns#"
   xmlns:rdf="http://www.w3.org/1999/02/22-rdf-syntax-ns#"
   xmlns:svg="http://www.w3.org/2000/svg"
   xmlns="http://www.w3.org/2000/svg"
   xmlns:sodipodi="http://sodipodi.sourceforge.net/DTD/sodipodi-0.dtd"
   xmlns:inkscape="http://www.inkscape.org/namespaces/inkscape"
   height="24"
   width="24"
   version="1.1"
   id="svg8"
   sodipodi:docname="network-idle.svg"
   inkscape:version="0.92.3 (2405546, 2018-03-11)">
  <metadata
     id="metadata14">
    <rdf:RDF>
      <cc:Work
         rdf:about="">
        <dc:format>image/svg+xml</dc:format>
        <dc:type
           rdf:resource="http://purl.org/dc/dcmitype/StillImage" />
        <dc:title></dc:title>
      </cc:Work>
    </rdf:RDF>
  </metadata>
  <defs
     id="defs12" />
  <sodipodi:namedview
     pagecolor="#ffffff"
     bordercolor="#666666"
     borderopacity="1"
     objecttolerance="10"
     gridtolerance="10"
     guidetolerance="10"
     inkscape:pageopacity="0"
     inkscape:pageshadow="2"
     inkscape:window-width="640"
     inkscape:window-height="480"
     id="namedview10"
     showgrid="true"
     inkscape:zoom="12.904699"
     inkscape:cx="-8.4207278"
     inkscape:cy="6.0863627"
     inkscape:current-layer="svg8">
    <inkscape:grid
       type="xygrid"
       id="grid821" />
  </sodipodi:namedview>
  <g
     id="g6"
     style="color:#000000;fill:#dfdfdf;fill-opacity:1"
     transform="translate(4,4)">
    <path
       d="m 5.5,16 c 0,0 -1,-1 -4.5,-6 H 3 V 7 h 1 v 4 H 2.781 C 5,14 5.5,14.406 5.5,14.406 5.5,14.406 6,14 8.219,11 H 7 V 8 h 1 v 2 h 2 c -3.5,5 -4.5,6 -4.5,6 z"
       id="path2"
       inkscape:connector-curvature="0"
       style="opacity:0.5;fill:#dfdfdf;fill-opacity:1" />
    <path
       d="m 9.5,0 c 0,0 1,1 4.5,6 H 12 V 9 H 11 V 5 h 1.219 C 10,2 9.5,1.594 9.5,1.594 9.5,1.594 9,2 6.781,5 H 8 V 8 H 7 V 6 H 5 C 8.5,1 9.5,0 9.5,0 Z"
       id="path4"
       inkscape:connector-curvature="0"
       style="opacity:0.5;fill:#dfdfdf;fill-opacity:1" />
  </g>
</svg>
