<?xml version="1.0" encoding="UTF-8" standalone="no"?>
<svg
   xmlns:dc="http://purl.org/dc/elements/1.1/"
   xmlns:cc="http://creativecommons.org/ns#"
   xmlns:rdf="http://www.w3.org/1999/02/22-rdf-syntax-ns#"
   xmlns:svg="http://www.w3.org/2000/svg"
   xmlns="http://www.w3.org/2000/svg"
   xmlns:sodipodi="http://sodipodi.sourceforge.net/DTD/sodipodi-0.dtd"
   xmlns:inkscape="http://www.inkscape.org/namespaces/inkscape"
   height="24"
   width="24"
   version="1.1"
   id="svg6"
   sodipodi:docname="network-error.svg"
   inkscape:version="0.92.3 (2405546, 2018-03-11)">
  <metadata
     id="metadata12">
    <rdf:RDF>
      <cc:Work
         rdf:about="">
        <dc:format>image/svg+xml</dc:format>
        <dc:type
           rdf:resource="http://purl.org/dc/dcmitype/StillImage" />
        <dc:title></dc:title>
      </cc:Work>
    </rdf:RDF>
  </metadata>
  <defs
     id="defs10" />
  <sodipodi:namedview
     pagecolor="#ffffff"
     bordercolor="#666666"
     borderopacity="1"
     objecttolerance="10"
     gridtolerance="10"
     guidetolerance="10"
     inkscape:pageopacity="0"
     inkscape:pageshadow="2"
     inkscape:window-width="640"
     inkscape:window-height="480"
     id="namedview8"
     showgrid="true"
     inkscape:zoom="25.809398"
     inkscape:cx="7.8158031"
     inkscape:cy="9.4242088"
     inkscape:current-layer="svg6">
    <inkscape:grid
       type="xygrid"
       id="grid826" />
  </sodipodi:namedview>
  <path
     d="M 10.426,5 C 9.976,5.005 9.648,4.988 9.379,5.137 a 0.676,0.676 0 0 0 -0.3,0.357 C 9.019,5.651 8.999,5.837 8.999,6.072 V 7.93 c 0,0.235 0.021,0.42 0.08,0.576 a 0.677,0.677 0 0 0 0.3,0.357 C 9.648,9.011 9.976,8.995 10.426,9 h 0.572 v 2 h -3.5 C 6.832,11 6.361,11.408 6.176,11.777 5.991,12.147 5.998,12.5 5.998,12.5 V 14 H 5.426 c -0.45,0.005 -0.778,-0.012 -1.047,0.137 a 0.676,0.676 0 0 0 -0.3,0.357 c -0.06,0.157 -0.08,0.343 -0.08,0.578 v 1.858 c 0,0.235 0.021,0.42 0.08,0.576 a 0.677,0.677 0 0 0 0.3,0.357 C 4.648,18.011 4.976,17.995 5.426,18 H 7.57 c 0.45,-0.005 0.779,0.012 1.047,-0.137 0.135,-0.074 0.24,-0.2 0.3,-0.357 0.058,-0.157 0.08,-0.341 0.08,-0.576 v -1.858 c 0,-0.235 -0.022,-0.421 -0.08,-0.578 a 0.673,0.673 0 0 0 -0.3,-0.357 C 8.349,13.987 8.02,14.005 7.571,14 H 6.998 v -1.5 c 0,0 0.01,-0.145 0.072,-0.275 C 7.135,12.094 7.164,12 7.498,12 h 9.41 A 1.548,1.548 0 0 0 16.82,11.777 1.485,1.485 0 0 0 15.498,11 h -3.5 V 9 h 0.572 c 0.45,-0.005 0.778,0.012 1.047,-0.137 0.134,-0.074 0.24,-0.2 0.299,-0.357 0.059,-0.157 0.08,-0.341 0.08,-0.576 V 6.072 c 0,-0.235 -0.021,-0.421 -0.08,-0.578 A 0.673,0.673 0 0 0 13.617,5.137 C 13.348,4.987 13.02,5.005 12.57,5 Z M 10,6 h 3 v 2 h -3 z m -5,9 h 3 v 2 H 5 Z"
     font-weight="400"
     overflow="visible"
     style="color:#000000;font-weight:400;line-height:normal;font-family:sans-serif;font-variant-ligatures:normal;font-variant-position:normal;font-variant-caps:normal;font-variant-numeric:normal;font-variant-alternates:normal;font-feature-settings:normal;text-indent:0;text-align:start;text-decoration:none;text-decoration-line:none;text-decoration-style:solid;text-decoration-color:#000000;text-transform:none;text-orientation:mixed;white-space:normal;shape-padding:0;overflow:visible;opacity:0.5;isolation:auto;mix-blend-mode:normal;fill:#dfdfdf;marker:none;fill-opacity:1"
     id="path2"
     inkscape:connector-curvature="0" />
  <path
     class="error"
     d="M 16.5,13 A 3.5,3.5 0 0 0 13,16.5 3.5,3.5 0 0 0 16.5,20 3.5,3.5 0 0 0 20,16.5 3.5,3.5 0 0 0 16.5,13 Z M 16,14 h 1 v 1.168 c 0,0.348 -0.016,0.667 -0.047,0.957 -0.03,0.29 -0.069,0.581 -0.115,0.875 H 16.172 A 12.898,12.898 0 0 1 16.047,16.125 9.146,9.146 0 0 1 16,15.168 Z m 0.5,4 A 0.5,0.5 0 0 1 17,18.5 0.5,0.5 0 0 1 16.5,19 0.5,0.5 0 0 1 16,18.5 0.5,0.5 0 0 1 16.5,18 Z"
     overflow="visible"
     style="color:#000000;overflow:visible;fill:#f22c42;marker:none"
     id="path4"
     inkscape:connector-curvature="0" />
</svg>
