<?xml version="1.0" encoding="UTF-8" standalone="no"?>
<svg
   xmlns:dc="http://purl.org/dc/elements/1.1/"
   xmlns:cc="http://creativecommons.org/ns#"
   xmlns:rdf="http://www.w3.org/1999/02/22-rdf-syntax-ns#"
   xmlns:svg="http://www.w3.org/2000/svg"
   xmlns="http://www.w3.org/2000/svg"
   xmlns:sodipodi="http://sodipodi.sourceforge.net/DTD/sodipodi-0.dtd"
   xmlns:inkscape="http://www.inkscape.org/namespaces/inkscape"
   height="24"
   width="24"
   version="1.1"
   id="svg8"
   sodipodi:docname="network-wireless-no-route.svg"
   inkscape:version="0.92.3 (2405546, 2018-03-11)">
  <metadata
     id="metadata14">
    <rdf:RDF>
      <cc:Work
         rdf:about="">
        <dc:format>image/svg+xml</dc:format>
        <dc:type
           rdf:resource="http://purl.org/dc/dcmitype/StillImage" />
        <dc:title></dc:title>
      </cc:Work>
    </rdf:RDF>
  </metadata>
  <defs
     id="defs12" />
  <sodipodi:namedview
     pagecolor="#ffffff"
     bordercolor="#666666"
     borderopacity="1"
     objecttolerance="10"
     gridtolerance="10"
     guidetolerance="10"
     inkscape:pageopacity="0"
     inkscape:pageshadow="2"
     inkscape:window-width="640"
     inkscape:window-height="480"
     id="namedview10"
     showgrid="true"
     inkscape:zoom="25.809398"
     inkscape:cx="9.1711643"
     inkscape:cy="9.4970231"
     inkscape:current-layer="svg8">
    <inkscape:grid
       type="xygrid"
       id="grid821" />
  </sodipodi:namedview>
  <path
     inkscape:connector-curvature="0"
     id="path2"
     style="color:#000000;font-weight:400;line-height:normal;font-family:sans-serif;font-variant-ligatures:none;font-variant-position:normal;font-variant-caps:normal;font-variant-numeric:normal;font-variant-alternates:normal;font-feature-settings:normal;text-indent:0;text-align:start;text-decoration:none;text-decoration-line:none;text-decoration-style:solid;text-decoration-color:#000000;text-transform:none;white-space:normal;shape-padding:0;overflow:visible;opacity:0.5;isolation:auto;mix-blend-mode:normal;fill:#dfdfdf;marker:none;fill-opacity:1"
     overflow="visible"
     font-weight="400"
     d="m 15.7503,6.558 c 0.2,0.289 0.368,0.6 0.46,0.937 0.036,0.12 0.056,0.24 0.083,0.362 0.674,0.287 1.326,0.636 1.948,1.058 l -4.74,6.143 v 0.06 h -0.05 l -0.21,0.274 c 0.095,0.055 0.183,0.12 0.257,0.203 0.157,0.174 0.282,0.387 0.373,0.613 l 5.805,-7.517 -0.264,-0.205 a 12.076,12.076 0 0 0 -3.664,-1.928 z m -8.125,0.236 c -1.059,0.411 -2.076,0.967 -3.011,1.688 l -0.266,0.205 0.205,0.263 5.598,7.262 c 0.09,-0.228 0.219,-0.442 0.377,-0.617 0.074,-0.083 0.16,-0.148 0.256,-0.203 l -0.211,-0.274 h -0.043 l -0.012,-0.07 -4.733,-6.137 a 11.46,11.46 0 0 1 2.36,-1.224 L 7.5863,6.821 Z m 6.573,0.066 v 0.01 c 0,0.002 0.01,0 0.01,0.002 z m -2.2,10.108 v 0.014 c 0,0.066 -0.024,0.003 0.018,0.048 v -0.004 c 0.03,-0.027 0.017,0.016 0.017,-0.044 V 16.97 l -0.012,0.016 z" />
  <path
     inkscape:connector-curvature="0"
     id="path4"
     word-spacing="0"
     style="font-weight:500;font-size:72.03600311px;line-height:125%;font-family:Ubuntu;-inkscape-font-specification:'Ubuntu Medium';text-align:center;letter-spacing:0;word-spacing:0;text-anchor:middle;fill:#dfdfdf;fill-opacity:1"
     letter-spacing="0"
     font-weight="500"
     font-size="72.036"
     d="m 12.2833,6.001 c -0.533,0 -1.037,0.061 -1.512,0.183 A 5.853,5.853 0 0 0 9.6043,6.63 l -0.658,0.458 0.566,0.876 0.452,-0.336 c 0.688,-0.35 1.394,-0.54 2.116,-0.54 0.607,0 1.09,0.16 1.421,0.491 0.327,0.316 0.493,0.737 0.493,1.236 0,0.311 -0.073,0.603 -0.217,0.868 -0.13,0.258 -0.299,0.503 -0.508,0.736 -0.205,0.227 -0.42,0.455 -0.648,0.682 v 10e-4 c -0.222,0.211 -0.433,0.444 -0.633,0.7 v 0.002 a 3.66,3.66 0 0 0 -0.492,0.786 2.378,2.378 0 0 0 -0.177,0.935 c 0,0.208 0.024,0.403 0.056,0.594 h 1.088 c -10e-4,-0.023 -0.01,-0.044 -0.01,-0.068 v -0.187 c 0,-0.387 0.077,-0.74 0.232,-1.05 0.15,-0.314 0.336,-0.599 0.557,-0.855 v -0.002 c 0.218,-0.264 0.458,-0.515 0.721,-0.755 a 7.23,7.23 0 0 0 0.7,-0.734 c 0.21,-0.253 0.384,-0.522 0.527,-0.807 0.138,-0.288 0.209,-0.613 0.209,-0.982 0,-0.292 -0.048,-0.597 -0.147,-0.914 L 15.2513,7.763 V 7.761 a 2.04,2.04 0 0 0 -0.482,-0.867 c -0.234,-0.255 -0.552,-0.466 -0.957,-0.63 V 6.262 C 13.4273,6.09 12.9173,6.001 12.2843,6.001 Z m -0.27,9.963 c -0.326,0 -0.562,0.1 -0.743,0.3 a 1.025,1.025 0 0 0 -0.275,0.718 c 0,0.279 0.089,0.512 0.275,0.718 0.18,0.2 0.417,0.3 0.742,0.3 0.325,0 0.562,-0.099 0.743,-0.3 0.186,-0.206 0.275,-0.44 0.275,-0.718 0,-0.28 -0.089,-0.512 -0.275,-0.718 -0.18,-0.2 -0.418,-0.3 -0.743,-0.3 z" />
</svg>
