<?xml version="1.0" encoding="UTF-8" standalone="no"?>
<svg
   xmlns:dc="http://purl.org/dc/elements/1.1/"
   xmlns:cc="http://creativecommons.org/ns#"
   xmlns:rdf="http://www.w3.org/1999/02/22-rdf-syntax-ns#"
   xmlns:svg="http://www.w3.org/2000/svg"
   xmlns="http://www.w3.org/2000/svg"
   xmlns:sodipodi="http://sodipodi.sourceforge.net/DTD/sodipodi-0.dtd"
   xmlns:inkscape="http://www.inkscape.org/namespaces/inkscape"
   height="24"
   width="24"
   version="1.1"
   id="svg8"
   sodipodi:docname="network-transmit-receive.svg"
   inkscape:version="0.92.3 (2405546, 2018-03-11)">
  <metadata
     id="metadata14">
    <rdf:RDF>
      <cc:Work
         rdf:about="">
        <dc:format>image/svg+xml</dc:format>
        <dc:type
           rdf:resource="http://purl.org/dc/dcmitype/StillImage" />
        <dc:title></dc:title>
      </cc:Work>
    </rdf:RDF>
  </metadata>
  <defs
     id="defs12" />
  <sodipodi:namedview
     pagecolor="#ffffff"
     bordercolor="#666666"
     borderopacity="1"
     objecttolerance="10"
     gridtolerance="10"
     guidetolerance="10"
     inkscape:pageopacity="0"
     inkscape:pageshadow="2"
     inkscape:window-width="640"
     inkscape:window-height="480"
     id="namedview10"
     showgrid="false"
     inkscape:zoom="12.904699"
     inkscape:cx="-9.5555595"
     inkscape:cy="6.9261381"
     inkscape:current-layer="svg8" />
  <path
     style="color:#000000;fill:#dfdfdf;fill-opacity:1"
     inkscape:connector-curvature="0"
     id="path2"
     d="m 9.5,20 c 0,0 -1,-1 -4.5,-6 h 2 v -3 h 1 v 4 H 6.781 C 9,18 9.5,18.406 9.5,18.406 9.5,18.406 10,18 12.219,15 H 11 v -3 h 1 v 2 h 2 c -3.5,5 -4.5,6 -4.5,6 z" />
  <path
     style="color:#000000;fill:#dfdfdf;fill-opacity:1"
     inkscape:connector-curvature="0"
     id="path4"
     d="m 13.5,4 c 0,0 1,1 4.5,6 h -2 v 3 H 15 V 9 h 1.219 C 14,6 13.5,5.594 13.5,5.594 13.5,5.594 13,6 10.781,9 H 12 v 3 H 11 V 10 H 9 c 3.5,-5 4.5,-6 4.5,-6 z" />
</svg>
