<?xml version="1.0" encoding="UTF-8" standalone="no"?>
<svg
   xmlns:dc="http://purl.org/dc/elements/1.1/"
   xmlns:cc="http://creativecommons.org/ns#"
   xmlns:rdf="http://www.w3.org/1999/02/22-rdf-syntax-ns#"
   xmlns:svg="http://www.w3.org/2000/svg"
   xmlns="http://www.w3.org/2000/svg"
   xmlns:sodipodi="http://sodipodi.sourceforge.net/DTD/sodipodi-0.dtd"
   xmlns:inkscape="http://www.inkscape.org/namespaces/inkscape"
   height="24"
   width="24"
   version="1.1"
   id="svg8"
   sodipodi:docname="network-cellular-no-route.svg"
   inkscape:version="0.92.3 (2405546, 2018-03-11)">
  <metadata
     id="metadata14">
    <rdf:RDF>
      <cc:Work
         rdf:about="">
        <dc:format>image/svg+xml</dc:format>
        <dc:type
           rdf:resource="http://purl.org/dc/dcmitype/StillImage" />
        <dc:title></dc:title>
      </cc:Work>
    </rdf:RDF>
  </metadata>
  <defs
     id="defs12" />
  <sodipodi:namedview
     pagecolor="#ffffff"
     bordercolor="#666666"
     borderopacity="1"
     objecttolerance="10"
     gridtolerance="10"
     guidetolerance="10"
     inkscape:pageopacity="0"
     inkscape:pageshadow="2"
     inkscape:window-width="640"
     inkscape:window-height="480"
     id="namedview10"
     showgrid="true"
     inkscape:zoom="18.25"
     inkscape:cx="0.45587566"
     inkscape:cy="9.622151"
     inkscape:current-layer="svg8">
    <inkscape:grid
       type="xygrid"
       id="grid821" />
  </sodipodi:namedview>
  <path
     inkscape:connector-curvature="0"
     id="path2"
     style="color:#000000;font-weight:400;line-height:normal;font-family:sans-serif;font-variant-ligatures:normal;font-variant-position:normal;font-variant-caps:normal;font-variant-numeric:normal;font-variant-alternates:normal;font-feature-settings:normal;text-indent:0;text-align:start;text-decoration:none;text-decoration-line:none;text-decoration-style:solid;text-decoration-color:#000000;text-transform:none;text-orientation:mixed;white-space:normal;shape-padding:0;overflow:visible;opacity:0.5;isolation:auto;mix-blend-mode:normal;fill:#dfdfdf;marker:none;fill-opacity:1"
     overflow="visible"
     font-weight="400"
     d="m 19.00379,4.293 -2.924,2.924 c 0.041,0.103 0.096,0.2 0.125,0.306 0.015,0.048 0.015,0.097 0.027,0.145 0.057,0.207 0.096,0.413 0.121,0.62 0,0.019 0.01,0.038 0.013,0.058 l 1.638,-1.639 V 18 h -4.24 a 2.011,2.011 0 0 1 -0.272,0.404 c -0.01,0.012 -0.024,0.022 -0.035,0.034 a 1.664,1.664 0 0 1 -0.242,0.207 c -0.043,0.03 -0.089,0.056 -0.135,0.084 a 2.014,2.014 0 0 1 -0.148,0.078 2.21,2.21 0 0 1 -0.578,0.193 h 6.652 z m -8.637,8.637 -5.2160004,5.216 -0.854,0.854 H 11.65879 a 2.187,2.187 0 0 1 -0.74,-0.28 c -0.04,-0.023 -0.079,-0.044 -0.116,-0.07 a 1.666,1.666 0 0 1 -0.283,-0.246 c -0.01,-0.009 -0.012,-0.022 -0.02,-0.03 a 2.017,2.017 0 0 1 -0.247,-0.368 V 18 H 6.7177896 L 10.38779,14.33 v -0.008 a 4.453,4.453 0 0 1 -0.07,-0.762 c 0,-0.214 0.022,-0.424 0.059,-0.63 z" />
  <path
     inkscape:connector-curvature="0"
     id="path4"
     word-spacing="0"
     style="font-weight:500;font-size:72.03600311px;line-height:125%;font-family:Ubuntu;-inkscape-font-specification:'Ubuntu Medium';text-align:center;letter-spacing:0;word-spacing:0;text-anchor:middle;fill:#dfdfdf;fill-opacity:1"
     letter-spacing="0"
     font-weight="500"
     font-size="72.036"
     d="m 12.27479,6.037 c -0.533,0 -1.037,0.061 -1.512,0.183 A 5.853,5.853 0 0 0 9.5957896,6.666 l -0.658,0.458 0.566,0.876 0.452,-0.336 C 10.64379,7.314 11.34979,7.124 12.07179,7.124 c 0.607,0 1.09,0.16 1.421,0.491 0.327,0.316 0.493,0.737 0.493,1.236 0,0.311 -0.073,0.603 -0.217,0.868 -0.13,0.258 -0.299,0.503 -0.508,0.736 -0.205,0.227 -0.42,0.455 -0.648,0.682 v 10e-4 a 6.392,6.392 0 0 0 -0.633,0.7 l -10e-4,0.002 a 3.66,3.66 0 0 0 -0.492,0.786 2.378,2.378 0 0 0 -0.177,0.935 c 0,0.208 0.024,0.403 0.056,0.594 h 1.088 c -10e-4,-0.023 -0.01,-0.044 -0.01,-0.068 V 13.9 c 0,-0.387 0.077,-0.74 0.232,-1.05 0.15,-0.314 0.336,-0.599 0.557,-0.855 l 0.002,-0.002 c 0.218,-0.264 0.458,-0.515 0.721,-0.755 a 7.23,7.23 0 0 0 0.7,-0.734 c 0.21,-0.253 0.384,-0.522 0.527,-0.807 0.138,-0.288 0.209,-0.613 0.209,-0.982 a 3.06,3.06 0 0 0 -0.147,-0.914 l -10e-4,-0.002 V 7.797 a 2.04,2.04 0 0 0 -0.482,-0.867 c -0.234,-0.255 -0.552,-0.466 -0.957,-0.63 V 6.298 c -0.385,-0.172 -0.895,-0.261 -1.528,-0.261 z m -0.27,9.963 c -0.326,0 -0.562,0.1 -0.743,0.3 a 1.025,1.025 0 0 0 -0.275,0.718 c 0,0.279 0.089,0.512 0.275,0.718 0.18,0.2 0.417,0.3 0.742,0.3 0.325,0 0.562,-0.099 0.743,-0.3 0.186,-0.206 0.275,-0.44 0.275,-0.718 0,-0.28 -0.089,-0.512 -0.275,-0.718 -0.18,-0.2 -0.418,-0.3 -0.743,-0.3 z" />
</svg>
