<?xml version="1.0" encoding="UTF-8" standalone="no"?>
<svg
   xmlns:dc="http://purl.org/dc/elements/1.1/"
   xmlns:cc="http://creativecommons.org/ns#"
   xmlns:rdf="http://www.w3.org/1999/02/22-rdf-syntax-ns#"
   xmlns:svg="http://www.w3.org/2000/svg"
   xmlns="http://www.w3.org/2000/svg"
   xmlns:sodipodi="http://sodipodi.sourceforge.net/DTD/sodipodi-0.dtd"
   xmlns:inkscape="http://www.inkscape.org/namespaces/inkscape"
   height="24"
   width="24"
   version="1.1"
   id="svg4"
   sodipodi:docname="network-cellular-gprs.svg"
   inkscape:version="0.92.3 (2405546, 2018-03-11)">
  <metadata
     id="metadata10">
    <rdf:RDF>
      <cc:Work
         rdf:about="">
        <dc:format>image/svg+xml</dc:format>
        <dc:type
           rdf:resource="http://purl.org/dc/dcmitype/StillImage" />
        <dc:title></dc:title>
      </cc:Work>
    </rdf:RDF>
  </metadata>
  <defs
     id="defs8" />
  <sodipodi:namedview
     pagecolor="#ffffff"
     bordercolor="#666666"
     borderopacity="1"
     objecttolerance="10"
     gridtolerance="10"
     guidetolerance="10"
     inkscape:pageopacity="0"
     inkscape:pageshadow="2"
     inkscape:window-width="640"
     inkscape:window-height="480"
     id="namedview6"
     showgrid="false"
     inkscape:zoom="18.25"
     inkscape:cx="-1.5890411"
     inkscape:cy="7.5616438"
     inkscape:current-layer="svg4" />
  <path
     d="m 6.713,6.0002539 c -1.058,-0.013 -1.768,0.224 -2.133,0.662 -0.383,0.456 -0.58,1.204 -0.58,2.244 v 6.1880001 c 0,1.04 0.197,1.788 0.58,2.244 0.365,0.438 1.075,0.662 2.133,0.662 h 10.574 c 1.058,0 1.77,-0.224 2.135,-0.662 0.383,-0.456 0.578,-1.204 0.578,-2.244 V 8.9062539 c 0,-1.04 -0.195,-1.788 -0.578,-2.244 -0.365,-0.438 -1.077,-0.662 -2.135,-0.662 z m 5.787,2.63 c 0.305,0 0.578,0.022 0.82,0.065 0.25,0.038 0.46,0.085 0.635,0.14 0.18,0.05 0.328,0.103 0.44,0.16 0.118,0.055 0.202,0.099 0.251,0.13 l -0.42,1.1680001 a 3.56,3.56 0 0 0 -0.69,-0.272 2.766,2.766 0 0 0 -0.84,-0.1200001 c -0.679,0 -1.17,0.1880001 -1.475,0.5680001 -0.299,0.373 -0.448,0.887 -0.448,1.54 0,0.318 0.037,0.607 0.112,0.868 0.074,0.255 0.186,0.475 0.336,0.662 0.15,0.187 0.336,0.334 0.56,0.44 0.224,0.099 0.485,0.15 0.783,0.15 0.162,0 0.299,-0.004 0.41,-0.01 0.119,-0.006 0.222,-0.018 0.31,-0.037 v -2.25 h 1.456 v 3.201 c -0.174,0.068 -0.456,0.14 -0.842,0.215 -0.385,0.08 -0.861,0.12 -1.427,0.12 -0.486,0 -0.926,-0.074 -1.325,-0.224 a 2.766,2.766 0 0 1 -1.007,-0.652 2.97,2.97 0 0 1 -0.655,-1.055 4.218,4.218 0 0 1 -0.224,-1.427 c 0,-0.542 0.084,-1.021 0.252,-1.438 0.168,-0.417 0.399,-0.7680001 0.691,-1.0550001 a 2.89,2.89 0 0 1 1.027,-0.662 c 0.399,-0.15 0.822,-0.224 1.27,-0.224 z"
     style="font-weight:400;font-size:15px;line-height:125%;font-family:Ubuntu;-inkscape-font-specification:Ubuntu;text-align:center;letter-spacing:0;word-spacing:0;text-anchor:middle;fill:#dfdfdf;fill-opacity:1"
     font-weight="400"
     font-size="15"
     letter-spacing="0"
     word-spacing="0"
     id="path2"
     inkscape:connector-curvature="0" />
</svg>
