<?xml version="1.0" encoding="UTF-8" standalone="no"?>
<svg
   xmlns:dc="http://purl.org/dc/elements/1.1/"
   xmlns:cc="http://creativecommons.org/ns#"
   xmlns:rdf="http://www.w3.org/1999/02/22-rdf-syntax-ns#"
   xmlns:svg="http://www.w3.org/2000/svg"
   xmlns="http://www.w3.org/2000/svg"
   xmlns:sodipodi="http://sodipodi.sourceforge.net/DTD/sodipodi-0.dtd"
   xmlns:inkscape="http://www.inkscape.org/namespaces/inkscape"
   height="24"
   width="24"
   version="1.1"
   id="svg8"
   sodipodi:docname="network-vpn-acquiring.svg"
   inkscape:version="0.92.3 (2405546, 2018-03-11)">
  <metadata
     id="metadata14">
    <rdf:RDF>
      <cc:Work
         rdf:about="">
        <dc:format>image/svg+xml</dc:format>
        <dc:type
           rdf:resource="http://purl.org/dc/dcmitype/StillImage" />
        <dc:title></dc:title>
      </cc:Work>
    </rdf:RDF>
  </metadata>
  <defs
     id="defs12" />
  <sodipodi:namedview
     pagecolor="#ffffff"
     bordercolor="#666666"
     borderopacity="1"
     objecttolerance="10"
     gridtolerance="10"
     guidetolerance="10"
     inkscape:pageopacity="0"
     inkscape:pageshadow="2"
     inkscape:window-width="640"
     inkscape:window-height="480"
     id="namedview10"
     showgrid="true"
     inkscape:zoom="18.25"
     inkscape:cx="3.2244064"
     inkscape:cy="4.5485323"
     inkscape:current-layer="svg8">
    <inkscape:grid
       type="xygrid"
       id="grid821" />
  </sodipodi:namedview>
  <path
     inkscape:connector-curvature="0"
     id="path2"
     overflow="visible"
     display="block"
     style="color:#000000;display:block;overflow:visible;isolation:auto;mix-blend-mode:normal;fill:#dfdfdf;marker:none;fill-opacity:1"
     d="m 15.494,10.000254 c 0.829,0 1.496,0.667 1.496,1.496 v 0.016 c 0,0.829 -0.667,1.496 -1.496,1.496 h -0.016 a 1.493,1.493 0 0 1 -1.496,-1.496 v -0.016 c 0,-0.829 0.667,-1.496 1.496,-1.496 z m -4,0 c 0.829,0 1.496,0.667 1.496,1.496 v 0.016 c 0,0.829 -0.667,1.496 -1.496,1.496 h -0.016 a 1.493,1.493 0 0 1 -1.496,-1.496 v -0.016 c 0,-0.829 0.667,-1.496 1.496,-1.496 z m -4,0 c 0.829,0 1.496,0.667 1.496,1.496 v 0.016 c 0,0.829 -0.667,1.496 -1.496,1.496 H 7.478 a 1.493,1.493 0 0 1 -1.496,-1.496 v -0.016 c 0,-0.829 0.667,-1.496 1.496,-1.496 z" />
  <path
     inkscape:connector-curvature="0"
     id="path4"
     word-spacing="0"
     letter-spacing="0"
     font-size="15"
     font-weight="400"
     style="font-weight:400;font-size:15px;line-height:125%;font-family:Ubuntu;-inkscape-font-specification:Ubuntu;text-align:center;letter-spacing:0;word-spacing:0;text-anchor:middle;opacity:0.5;fill:#dfdfdf;fill-opacity:1"
     d="m 6.713,6.0002539 c -1.058,-0.013 -1.768,0.224 -2.133,0.662 -0.383,0.456 -0.58,1.204 -0.58,2.244 v 6.1880001 c 0,1.04 0.197,1.788 0.58,2.244 0.365,0.438 1.075,0.662 2.133,0.662 h 10.574 c 1.058,0 1.77,-0.224 2.135,-0.662 0.383,-0.456 0.578,-1.204 0.578,-2.244 V 8.9062539 c 0,-1.04 -0.195,-1.788 -0.578,-2.244 -0.365,-0.438 -1.077,-0.662 -2.135,-0.662 z m -1.713,3 h 1 v 0.508 a 2.483,2.483 0 0 1 1.5,-0.508 H 17 c 1.099,0 2,0.901 2,2.0000001 v 4 h -1 v -3.5 a 2.492,2.492 0 0 1 -2,2.45 v 1.05 h -1 v -1 h -4 v 1 h -1 v -1 H 8.217 c -0.55,0.609 -1.337,1 -2.217,1 H 5 v -3.5 z m 13,2.5000001 v -0.5 c 0,-0.3 -0.134,-0.56 -0.34,-0.742 0.21,0.367 0.34,0.787 0.34,1.242 z m -12,1.992 v 0.508 c 0.254,0 0.494,-0.052 0.717,-0.137 A 2.474,2.474 0 0 1 6,13.493254 Z" />
</svg>
