<?xml version="1.0" encoding="UTF-8" standalone="no"?>
<svg
   xmlns:dc="http://purl.org/dc/elements/1.1/"
   xmlns:cc="http://creativecommons.org/ns#"
   xmlns:rdf="http://www.w3.org/1999/02/22-rdf-syntax-ns#"
   xmlns:svg="http://www.w3.org/2000/svg"
   xmlns="http://www.w3.org/2000/svg"
   xmlns:sodipodi="http://sodipodi.sourceforge.net/DTD/sodipodi-0.dtd"
   xmlns:inkscape="http://www.inkscape.org/namespaces/inkscape"
   height="24"
   width="24"
   version="1.1"
   id="svg8"
   sodipodi:docname="network-cellular-acquiring.svg"
   inkscape:version="0.92.3 (2405546, 2018-03-11)">
  <metadata
     id="metadata14">
    <rdf:RDF>
      <cc:Work
         rdf:about="">
        <dc:format>image/svg+xml</dc:format>
        <dc:type
           rdf:resource="http://purl.org/dc/dcmitype/StillImage" />
        <dc:title />
      </cc:Work>
    </rdf:RDF>
  </metadata>
  <defs
     id="defs12" />
  <sodipodi:namedview
     pagecolor="#ffffff"
     bordercolor="#666666"
     borderopacity="1"
     objecttolerance="10"
     gridtolerance="10"
     guidetolerance="10"
     inkscape:pageopacity="0"
     inkscape:pageshadow="2"
     inkscape:window-width="640"
     inkscape:window-height="480"
     id="namedview10"
     showgrid="true"
     inkscape:zoom="51.618795"
     inkscape:cx="13.223554"
     inkscape:cy="6.0657179"
     inkscape:current-layer="svg8">
    <inkscape:grid
       type="xygrid"
       id="grid823" />
  </sodipodi:namedview>
  <g
     id="g827"
     transform="translate(-0.34630529,-0.3535)">
    <path
       d="m 19.3535,4.6465 -4.707,4.707 h 1.414 l 2.293,-2.293 v 11.293 H 7.0605 l 4,-4 h -1.414 l -4.146,4.146 -0.854,0.854 h 14.707 z"
       font-weight="400"
       overflow="visible"
       style="color:#000000;font-weight:400;line-height:normal;font-family:sans-serif;font-variant-ligatures:normal;font-variant-position:normal;font-variant-caps:normal;font-variant-numeric:normal;font-variant-alternates:normal;font-feature-settings:normal;text-indent:0;text-align:start;text-decoration:none;text-decoration-line:none;text-decoration-style:solid;text-decoration-color:#000000;text-transform:none;text-orientation:mixed;white-space:normal;shape-padding:0;overflow:visible;opacity:0.5;isolation:auto;mix-blend-mode:normal;fill:#dfdfdf;fill-opacity:1;marker:none"
       id="path2"
       inkscape:connector-curvature="0" />
    <path
       d="m 7.8535,10.3535 c -0.829,0 -1.496,0.667 -1.496,1.496 v 0.016 c 0,0.829 0.667,1.496 1.496,1.496 h 0.016 c 0.83,0 1.496,-0.667 1.496,-1.496 v -0.016 c 0,-0.829 -0.667,-1.496 -1.496,-1.496 z m 4,0 c -0.829,0 -1.496,0.667 -1.496,1.496 v 0.016 c 0,0.829 0.667,1.496 1.496,1.496 h 0.016 c 0.83,0 1.496,-0.667 1.496,-1.496 v -0.016 c 0,-0.829 -0.667,-1.496 -1.496,-1.496 z m 4,0 c -0.829,0 -1.496,0.667 -1.496,1.496 v 0.016 c 0,0.829 0.667,1.496 1.496,1.496 h 0.016 c 0.83,0 1.496,-0.667 1.496,-1.496 v -0.016 c 0,-0.829 -0.667,-1.496 -1.496,-1.496 z"
       display="block"
       overflow="visible"
       style="color:#000000;display:block;overflow:visible;isolation:auto;mix-blend-mode:normal;fill:#dfdfdf;fill-opacity:1;marker:none"
       id="path4"
       inkscape:connector-curvature="0" />
  </g>
</svg>
