<?xml version="1.0" encoding="UTF-8" standalone="no"?>
<svg
   xmlns:dc="http://purl.org/dc/elements/1.1/"
   xmlns:cc="http://creativecommons.org/ns#"
   xmlns:rdf="http://www.w3.org/1999/02/22-rdf-syntax-ns#"
   xmlns:svg="http://www.w3.org/2000/svg"
   xmlns="http://www.w3.org/2000/svg"
   xmlns:sodipodi="http://sodipodi.sourceforge.net/DTD/sodipodi-0.dtd"
   xmlns:inkscape="http://www.inkscape.org/namespaces/inkscape"
   height="24"
   width="24"
   version="1.1"
   id="svg4"
   sodipodi:docname="night-light.svg"
   inkscape:version="0.92.3 (2405546, 2018-03-11)">
  <metadata
     id="metadata10">
    <rdf:RDF>
      <cc:Work
         rdf:about="">
        <dc:format>image/svg+xml</dc:format>
        <dc:type
           rdf:resource="http://purl.org/dc/dcmitype/StillImage" />
        <dc:title></dc:title>
      </cc:Work>
    </rdf:RDF>
  </metadata>
  <defs
     id="defs8" />
  <sodipodi:namedview
     pagecolor="#ffffff"
     bordercolor="#666666"
     borderopacity="1"
     objecttolerance="10"
     gridtolerance="10"
     guidetolerance="10"
     inkscape:pageopacity="0"
     inkscape:pageshadow="2"
     inkscape:window-width="640"
     inkscape:window-height="480"
     id="namedview6"
     showgrid="true"
     inkscape:zoom="18.25"
     inkscape:cx="2.245407"
     inkscape:cy="8.3121843"
     inkscape:current-layer="svg4">
    <inkscape:grid
       type="xygrid"
       id="grid817" />
  </sodipodi:namedview>
  <path
     d="m 12,7.0005 a 5,5 0 1 0 0,10 5,5 0 0 0 0,-10 z m -1.049,1 a 3.589,3.589 0 0 0 -0.691,3.195 3.596,3.596 0 0 0 4.402,2.543 c 0.49,-0.133 0.946,-0.37 1.338,-0.691 a 4.084,4.084 0 0 1 -2.861,2.814 4.081,4.081 0 0 1 -2.188,-7.861 z m 1.549,-4 h -1 v 2 h 1 z m 4.803,1.99 -1.414,1.414 0.707,0.707 1.415,-1.414 z m -10.606,0 -0.707,0.707 1.414,1.414 0.707,-0.707 z M 20,11.5005 h -2 v 1 h 2 z m -14,0 H 4 v 1 h 2 z m 10.596,4.389 -0.707,0.707 1.414,1.414 0.707,-0.707 z m -9.192,0 -1.414,1.414 0.707,0.707 1.414,-1.414 z m 5.096,2.11 h -1 v 2 h 1 z"
     id="path2"
     inkscape:connector-curvature="0"
     style="fill:#dfdfdf;fill-opacity:1" />
</svg>
