<?xml version="1.0" encoding="UTF-8" standalone="no"?>
<svg
   xmlns:dc="http://purl.org/dc/elements/1.1/"
   xmlns:cc="http://creativecommons.org/ns#"
   xmlns:rdf="http://www.w3.org/1999/02/22-rdf-syntax-ns#"
   xmlns:svg="http://www.w3.org/2000/svg"
   xmlns="http://www.w3.org/2000/svg"
   xmlns:sodipodi="http://sodipodi.sourceforge.net/DTD/sodipodi-0.dtd"
   xmlns:inkscape="http://www.inkscape.org/namespaces/inkscape"
   height="24"
   width="24"
   version="1.1"
   id="svg4"
   sodipodi:docname="non-starred.svg"
   inkscape:version="0.92.3 (2405546, 2018-03-11)">
  <metadata
     id="metadata10">
    <rdf:RDF>
      <cc:Work
         rdf:about="">
        <dc:format>image/svg+xml</dc:format>
        <dc:type
           rdf:resource="http://purl.org/dc/dcmitype/StillImage" />
        <dc:title></dc:title>
      </cc:Work>
    </rdf:RDF>
  </metadata>
  <defs
     id="defs8" />
  <sodipodi:namedview
     pagecolor="#ffffff"
     bordercolor="#666666"
     borderopacity="1"
     objecttolerance="10"
     gridtolerance="10"
     guidetolerance="10"
     inkscape:pageopacity="0"
     inkscape:pageshadow="2"
     inkscape:window-width="640"
     inkscape:window-height="480"
     id="namedview6"
     showgrid="true"
     inkscape:zoom="18.25"
     inkscape:cx="6.3332163"
     inkscape:cy="7.4865484"
     inkscape:current-layer="svg4">
    <inkscape:grid
       type="xygrid"
       id="grid817" />
  </sodipodi:namedview>
  <path
     d="m 12.0015,5.669 -0.002,0.002 -0.002,0.002 c -0.842,1.81 -1.495,3.654 -1.865,4.784 -1.22,10e-4 -3.227,0.047 -5.14,0.295 l 0.001,0.002 v 0.002 l 0.002,0.002 v 0.002 c 1.461,1.361 3.014,2.55 3.975,3.252 -0.376,1.16 -0.954,3.084 -1.309,4.98 h 0.008 c 1.747,-0.968 3.358,-2.078 4.323,-2.775 0.986,0.716 2.64,1.86 4.333,2.783 v -0.002 -0.002 -0.002 l 0.002,-0.002 c -0.381,-1.96 -0.94,-3.836 -1.304,-4.968 0.986,-0.718 2.582,-1.935 3.984,-3.26 l -0.002,-10e-4 h -0.002 l -0.002,-0.002 v -0.002 c -1.982,-0.243 -3.937,-0.292 -5.127,-0.295 -0.377,-1.159 -1.044,-3.053 -1.869,-4.795 h -0.003 z m 0.002,2.742 c 0.314,0.828 0.733,1.79 0.92,2.363 l 0.225,0.688 0.722,0.002 c 0.588,0.002 1.653,0.103 2.53,0.146 -0.691,0.555 -1.477,1.25 -1.965,1.606 l -0.586,0.426 0.222,0.69 c 0.18,0.558 0.413,1.601 0.643,2.448 -0.741,-0.485 -1.646,-1.016 -2.135,-1.37 l -0.586,-0.427 -0.586,0.424 c -0.476,0.344 -1.396,0.887 -2.13,1.367 0.232,-0.854 0.458,-1.879 0.644,-2.453 l 0.223,-0.687 -0.584,-0.428 c -0.475,-0.347 -1.276,-1.053 -1.96,-1.603 0.885,-0.043 1.93,-0.144 2.534,-0.145 l 0.723,-0.002 0.226,-0.687 c 0.183,-0.559 0.608,-1.538 0.92,-2.358 z"
     style="color:#000000;overflow:visible;fill:#dfdfdf;marker:none;fill-opacity:1"
     overflow="visible"
     id="path2"
     inkscape:connector-curvature="0" />
</svg>
