<?xml version="1.0" encoding="UTF-8" standalone="no"?>
<svg
   xmlns:dc="http://purl.org/dc/elements/1.1/"
   xmlns:cc="http://creativecommons.org/ns#"
   xmlns:rdf="http://www.w3.org/1999/02/22-rdf-syntax-ns#"
   xmlns:svg="http://www.w3.org/2000/svg"
   xmlns="http://www.w3.org/2000/svg"
   xmlns:sodipodi="http://sodipodi.sourceforge.net/DTD/sodipodi-0.dtd"
   xmlns:inkscape="http://www.inkscape.org/namespaces/inkscape"
   height="24"
   width="24"
   version="1.1"
   id="svg4"
   sodipodi:docname="printer-printing.svg"
   inkscape:version="0.92.3 (2405546, 2018-03-11)">
  <metadata
     id="metadata10">
    <rdf:RDF>
      <cc:Work
         rdf:about="">
        <dc:format>image/svg+xml</dc:format>
        <dc:type
           rdf:resource="http://purl.org/dc/dcmitype/StillImage" />
        <dc:title></dc:title>
      </cc:Work>
    </rdf:RDF>
  </metadata>
  <defs
     id="defs8" />
  <sodipodi:namedview
     pagecolor="#ffffff"
     bordercolor="#666666"
     borderopacity="1"
     objecttolerance="10"
     gridtolerance="10"
     guidetolerance="10"
     inkscape:pageopacity="0"
     inkscape:pageshadow="2"
     inkscape:window-width="640"
     inkscape:window-height="480"
     id="namedview6"
     showgrid="false"
     inkscape:zoom="18.25"
     inkscape:cx="-1.5890411"
     inkscape:cy="7.5616438"
     inkscape:current-layer="svg4" />
  <path
     d="M 7,4 V 8.025 C 6.25,8.043 5.59,8.095 5.062,8.385 A 1.88,1.88 0 0 0 4.225,9.383 C 4.06,9.822 4,10.343 4,11 v 3 c 0,0.658 0.06,1.179 0.225,1.617 0.164,0.439 0.461,0.79 0.838,0.998 0.282,0.156 0.599,0.234 0.937,0.287 V 15.877 A 1.627,1.627 0 0 1 5.545,15.738 C 5.362,15.638 5.258,15.526 5.16,15.266 5.063,15.006 5,14.592 5,14 V 11 C 5,10.408 5.063,9.994 5.16,9.734 5.258,9.474 5.362,9.363 5.545,9.262 5.91,9.06 6.74,9.015 8,9 h 8 c 1.259,0.015 2.087,0.06 2.453,0.262 0.184,0.101 0.29,0.213 0.387,0.472 C 18.937,9.994 19,10.408 19,11 v 3 c 0,0.592 -0.063,1.006 -0.16,1.266 -0.098,0.26 -0.203,0.371 -0.387,0.472 -0.107,0.06 -0.267,0.104 -0.453,0.139 v 1.025 c 0.338,-0.053 0.655,-0.13 0.938,-0.287 a 1.88,1.88 0 0 0 0.837,-0.998 C 19.94,15.179 20,14.657 20,14 V 11 C 20,10.342 19.94,9.822 19.775,9.383 A 1.88,1.88 0 0 0 18.937,8.385 C 18.411,8.095 17.75,8.043 17,8.025 V 4 Z m 1,1 h 8 V 8 H 8 Z m 9.5,5 a 0.5,0.5 0 1 0 0,1 0.5,0.5 0 0 0 0,-1 z M 11,13 v 2 h -1 l 2,3 2,-3 h -1 v -2 z m -4,1 v 6 h 10 v -6 h -1 v 5 H 8 v -5 z"
     style="color:#000000;font-weight:400;line-height:normal;font-family:sans-serif;font-variant-ligatures:normal;font-variant-position:normal;font-variant-caps:normal;font-variant-numeric:normal;font-variant-alternates:normal;font-feature-settings:normal;text-indent:0;text-align:start;text-decoration:none;text-decoration-line:none;text-decoration-style:solid;text-decoration-color:#000000;text-transform:none;text-orientation:mixed;white-space:normal;shape-padding:0;overflow:visible;isolation:auto;mix-blend-mode:normal;fill:#dfdfdf;marker:none;fill-opacity:1"
     font-weight="400"
     overflow="visible"
     id="path2"
     inkscape:connector-curvature="0" />
</svg>
