<?xml version="1.0" encoding="UTF-8" standalone="no"?>
<svg
   xmlns:dc="http://purl.org/dc/elements/1.1/"
   xmlns:cc="http://creativecommons.org/ns#"
   xmlns:rdf="http://www.w3.org/1999/02/22-rdf-syntax-ns#"
   xmlns:svg="http://www.w3.org/2000/svg"
   xmlns="http://www.w3.org/2000/svg"
   xmlns:sodipodi="http://sodipodi.sourceforge.net/DTD/sodipodi-0.dtd"
   xmlns:inkscape="http://www.inkscape.org/namespaces/inkscape"
   height="24"
   width="24"
   version="1.1"
   id="svg6"
   sodipodi:docname="printer-error.svg"
   inkscape:version="0.92.3 (2405546, 2018-03-11)">
  <metadata
     id="metadata12">
    <rdf:RDF>
      <cc:Work
         rdf:about="">
        <dc:format>image/svg+xml</dc:format>
        <dc:type
           rdf:resource="http://purl.org/dc/dcmitype/StillImage" />
        <dc:title></dc:title>
      </cc:Work>
    </rdf:RDF>
  </metadata>
  <defs
     id="defs10" />
  <sodipodi:namedview
     pagecolor="#ffffff"
     bordercolor="#666666"
     borderopacity="1"
     objecttolerance="10"
     gridtolerance="10"
     guidetolerance="10"
     inkscape:pageopacity="0"
     inkscape:pageshadow="2"
     inkscape:window-width="640"
     inkscape:window-height="480"
     id="namedview8"
     showgrid="true"
     inkscape:zoom="12.904699"
     inkscape:cx="-1.0479776"
     inkscape:cy="8.356026"
     inkscape:current-layer="svg6">
    <inkscape:grid
       type="xygrid"
       id="grid826" />
  </sodipodi:namedview>
  <path
     d="M 7,4 V 8.025 C 6.25,8.043 5.59,8.095 5.063,8.385 A 1.88,1.88 0 0 0 4.225,9.383 C 4.06,9.822 4,10.343 4,11 v 3 c 0,0.658 0.06,1.179 0.225,1.617 0.164,0.439 0.461,0.79 0.838,0.998 0.282,0.156 0.599,0.234 0.937,0.287 V 15.877 A 1.627,1.627 0 0 1 5.545,15.738 C 5.362,15.638 5.258,15.526 5.16,15.266 5.063,15.006 5,14.592 5,14 V 11 C 5,10.408 5.063,9.994 5.16,9.734 5.258,9.474 5.362,9.363 5.545,9.262 5.91,9.06 6.74,9.015 8,9 h 8 c 1.259,0.015 2.087,0.06 2.453,0.262 0.184,0.101 0.29,0.213 0.387,0.472 C 18.937,9.994 19,10.408 19,11 v 1 h 1 V 11 C 20,10.342 19.94,9.822 19.775,9.383 A 1.88,1.88 0 0 0 18.938,8.385 C 18.411,8.095 17.75,8.043 17,8.025 V 4 Z m 1,1 h 8 V 8 H 8 Z m 9.5,5 A 0.5,0.5 0 0 0 17,10.5 0.5,0.5 0 0 0 17.5,11 0.5,0.5 0 0 0 18,10.5 0.5,0.5 0 0 0 17.5,10 Z M 7,14 v 6 h 5 V 19 H 8 v -5 z m 2,1 v 1 h 3 v -1 z m 0,2 v 1 h 3 v -1 z"
     style="color:#000000;font-weight:400;line-height:normal;font-family:sans-serif;font-variant-ligatures:normal;font-variant-position:normal;font-variant-caps:normal;font-variant-numeric:normal;font-variant-alternates:normal;font-feature-settings:normal;text-indent:0;text-align:start;text-decoration:none;text-decoration-line:none;text-decoration-style:solid;text-decoration-color:#000000;text-transform:none;text-orientation:mixed;white-space:normal;shape-padding:0;overflow:visible;isolation:auto;mix-blend-mode:normal;fill:#dfdfdf;marker:none;fill-opacity:1"
     font-weight="400"
     overflow="visible"
     id="path2"
     inkscape:connector-curvature="0" />
  <path
     class="error"
     d="M 16.5,13 A 3.5,3.5 0 0 0 13,16.5 3.5,3.5 0 0 0 16.5,20 3.5,3.5 0 0 0 20,16.5 3.5,3.5 0 0 0 16.5,13 Z M 16,14 h 1 v 1.168 c 0,0.349 -0.016,0.667 -0.047,0.957 -0.03,0.29 -0.069,0.581 -0.115,0.875 H 16.172 A 13.156,13.156 0 0 1 16.047,16.125 9.148,9.148 0 0 1 16,15.168 Z m 0.5,4 A 0.5,0.5 0 0 1 17,18.5 0.5,0.5 0 0 1 16.5,19 0.5,0.5 0 0 1 16,18.5 0.5,0.5 0 0 1 16.5,18 Z"
     style="color:#000000;overflow:visible;fill:#f22c42;marker:none"
     overflow="visible"
     id="path4"
     inkscape:connector-curvature="0" />
</svg>
