<?xml version="1.0" encoding="UTF-8" standalone="no"?>
<svg
   xmlns:dc="http://purl.org/dc/elements/1.1/"
   xmlns:cc="http://creativecommons.org/ns#"
   xmlns:rdf="http://www.w3.org/1999/02/22-rdf-syntax-ns#"
   xmlns:svg="http://www.w3.org/2000/svg"
   xmlns="http://www.w3.org/2000/svg"
   xmlns:sodipodi="http://sodipodi.sourceforge.net/DTD/sodipodi-0.dtd"
   xmlns:inkscape="http://www.inkscape.org/namespaces/inkscape"
   height="24"
   width="24"
   version="1.1"
   id="svg6"
   sodipodi:docname="process-working.svg"
   inkscape:version="0.92.3 (2405546, 2018-03-11)">
  <metadata
     id="metadata12">
    <rdf:RDF>
      <cc:Work
         rdf:about="">
        <dc:format>image/svg+xml</dc:format>
        <dc:type
           rdf:resource="http://purl.org/dc/dcmitype/StillImage" />
        <dc:title></dc:title>
      </cc:Work>
    </rdf:RDF>
  </metadata>
  <defs
     id="defs10" />
  <sodipodi:namedview
     pagecolor="#ffffff"
     bordercolor="#666666"
     borderopacity="1"
     objecttolerance="10"
     gridtolerance="10"
     guidetolerance="10"
     inkscape:pageopacity="0"
     inkscape:pageshadow="2"
     inkscape:window-width="640"
     inkscape:window-height="480"
     id="namedview8"
     showgrid="true"
     inkscape:zoom="25.809398"
     inkscape:cx="4.5256064"
     inkscape:cy="7.513497"
     inkscape:current-layer="svg6">
    <inkscape:grid
       type="xygrid"
       id="grid822" />
  </sodipodi:namedview>
  <path
     inkscape:connector-curvature="0"
     id="path2"
     style="color:#000000;font-weight:400;line-height:normal;font-family:sans-serif;font-variant-ligatures:normal;font-variant-position:normal;font-variant-caps:normal;font-variant-numeric:normal;font-variant-alternates:normal;font-feature-settings:normal;text-indent:0;text-align:start;text-decoration:none;text-decoration-line:none;text-decoration-style:solid;text-decoration-color:#000000;text-transform:none;text-orientation:mixed;white-space:normal;shape-padding:0;overflow:visible;isolation:auto;mix-blend-mode:normal;fill:#dfdfdf;fill-opacity:1"
     overflow="visible"
     font-weight="400"
     d="m 7.0021,11.002299 a 1,1 0 0 0 -1,1 1,1 0 0 0 0.01,0.096 c 0.026,1.588 0.697,3.156 1.856,4.248 1.097,1.06 2.614,1.643 4.134,1.648 v -0.212 a 5.423,5.423 0 0 1 -1.96,-0.345 c -0.196,-0.134 -0.474,-0.19 -0.686,-0.323 -0.962,-0.497 -1.798,-1.27 -2.318,-2.218 0,-0.064 0.06,0.02 0.053,0.044 a 5.577,5.577 0 0 0 2.96,2.424 c 0.17,-0.012 0.34,0.125 0.514,0.14 0.468,0.127 0.953,0.189 1.438,0.19 v -0.158 a 5.222,5.222 0 0 1 -1.877,-0.334 c -0.187,-0.129 -0.452,-0.182 -0.655,-0.31 -0.918,-0.476 -1.72,-1.214 -2.216,-2.121 -0.01,-0.064 0.056,0.015 0.05,0.043 a 5.36,5.36 0 0 0 2.827,2.316 c 0.146,-0.032 0.298,0.112 0.449,0.12 0.462,0.128 0.942,0.193 1.422,0.194 v -0.156 a 4.97,4.97 0 0 1 -1.795,-0.322 c -0.198,-0.126 -0.464,-0.19 -0.674,-0.32 -0.854,-0.455 -1.599,-1.15 -2.062,-2 -0.01,-0.063 0.059,0.016 0.049,0.04 0.6,1.019 1.582,1.832 2.695,2.208 0.142,-0.024 0.284,0.106 0.43,0.115 0.44,0.123 0.9,0.186 1.357,0.187 v -0.16 a 4.72,4.72 0 0 1 -1.709,-0.304 c -0.187,-0.123 -0.443,-0.181 -0.643,-0.307 -0.813,-0.433 -1.524,-1.095 -1.964,-1.904 -0.01,-0.061 0.059,0.013 0.05,0.039 a 4.827,4.827 0 0 0 2.567,2.1 c 0.136,-0.026 0.273,0.1 0.412,0.109 0.42,0.117 0.853,0.176 1.287,0.177 v -0.158 a 4.386,4.386 0 0 1 -1.617,-0.293 c -0.22,-0.114 -0.479,-0.198 -0.7,-0.332 -0.739,-0.411 -1.387,-1.023 -1.79,-1.767 0,-0.056 0.068,-0.002 0.057,0.035 a 4.577,4.577 0 0 0 2.443,1.994 c 0.141,-0.026 0.287,0.105 0.432,0.113 0.383,0.103 0.78,0.153 1.176,0.154 v -0.152 a 4.23,4.23 0 0 1 -1.532,-0.277 c -0.192,-0.108 -0.429,-0.175 -0.625,-0.295 -0.717,-0.39 -1.346,-0.979 -1.734,-1.697 -0.01,-0.057 0.066,-0.001 0.055,0.033 a 4.325,4.325 0 0 0 2.309,1.885 c 0.122,-0.032 0.248,0.092 0.375,0.097 0.374,0.105 0.763,0.157 1.152,0.158 v -0.154 a 3.969,3.969 0 0 1 -1.45,-0.264 c -0.179,-0.104 -0.403,-0.165 -0.587,-0.279 -0.676,-0.368 -1.272,-0.923 -1.637,-1.601 -0.01,-0.055 0.065,-0.003 0.055,0.03 0.485,0.821 1.277,1.48 2.174,1.778 0.104,-0.037 0.213,0.08 0.32,0.082 0.365,0.106 0.745,0.158 1.125,0.16 v -0.191 c -1.33,-0.002 -2.646,-0.704 -3.357,-1.838 a 3.936,3.936 0 0 1 -0.645,-2.165 1,1 0 0 0 -1,-1 z m 6.051,4.92 0.035,0.137 0.01,-0.002 c 0,-0.072 -0.016,-0.11 -0.041,-0.135 z m 0.09,0.336 0.01,0.039 0.01,-0.002 c 0,-0.021 -0.012,-0.022 -0.016,-0.037 z m 0.065,0.244 0.01,0.037 c 0,0 0.01,0 0.01,-0.002 0,-0.02 -0.014,-0.02 -0.018,-0.035 z m 0.066,0.248 0.01,0.031 0.01,-0.002 c 0,-0.017 -0.013,-0.016 -0.016,-0.029 z m 0.068,0.252 0.01,0.02 c 0,-0.012 -0.01,-0.01 -0.01,-0.02 z m 0.065,0.244 0.01,0.016 c 0,-0.01 -0.01,-0.007 -0.01,-0.016 z m 0.045,0.168 0.025,0.09 a 0.144,0.144 0 0 0 -0.029,-0.09 z m 0.07,0.26 0.012,0.043 c 0,-0.016 0,-0.029 -0.012,-0.043 z m -0.051,0.14 a 6,6 0 0 1 -0.35,0.077 c 0.047,-0.01 0.094,-0.012 0.141,-0.022 a 0.25,0.25 0 0 0 0.209,-0.054 z m -0.72,0.135 a 6,6 0 0 1 -0.315,0.033 c 0.105,-0.007 0.21,-0.02 0.314,-0.033 z m -0.7,-11.943 a 5.815,5.815 0 0 0 -1.824,0.266 c -1.435,0.432 -2.668,1.44 -3.418,2.73 l 0.187,0.11 c 0.336,-0.581 0.76,-1.11 1.282,-1.528 0.213,-0.103 0.401,-0.315 0.623,-0.432 0.91,-0.584 1.998,-0.923 3.08,-0.898 0.058,0.029 -0.047,0.044 -0.066,0.023 -1.3,0.013 -2.608,0.501 -3.578,1.354 -0.074,0.153 -0.279,0.232 -0.38,0.375 -0.343,0.343 -0.638,0.731 -0.882,1.15 l 0.137,0.078 a 5.12,5.12 0 0 1 1.232,-1.459 c 0.215,-0.116 0.413,-0.321 0.64,-0.443 0.861,-0.538 1.882,-0.85 2.897,-0.826 0.06,0.027 -0.04,0.04 -0.062,0.021 a 5.362,5.362 0 0 0 -3.42,1.29 c -0.045,0.142 -0.247,0.203 -0.328,0.33 -0.343,0.336 -0.637,0.72 -0.879,1.134 l 0.135,0.078 c 0.307,-0.53 0.699,-1.012 1.176,-1.394 0.208,-0.109 0.398,-0.306 0.617,-0.422 0.821,-0.512 1.794,-0.811 2.762,-0.787 0.058,0.024 -0.043,0.044 -0.061,0.023 a 5.074,5.074 0 0 0 -3.258,1.23 c -0.05,0.136 -0.236,0.194 -0.317,0.315 -0.327,0.32 -0.61,0.686 -0.84,1.082 l 0.137,0.078 a 4.708,4.708 0 0 1 1.12,-1.326 c 0.2,-0.101 0.379,-0.294 0.587,-0.404 0.782,-0.488 1.712,-0.772 2.633,-0.748 0.057,0.023 -0.04,0.042 -0.059,0.021 a 4.828,4.828 0 0 0 -3.101,1.174 c -0.046,0.13 -0.225,0.187 -0.301,0.303 -0.311,0.304 -0.58,0.651 -0.799,1.027 l 0.139,0.08 c 0.278,-0.478 0.63,-0.915 1.062,-1.256 0.235,-0.156 0.466,-0.356 0.725,-0.492 0.706,-0.402 1.526,-0.638 2.338,-0.615 0.05,0.024 -0.031,0.06 -0.06,0.031 a 4.579,4.579 0 0 0 -2.949,1.12 c -0.048,0.134 -0.232,0.194 -0.312,0.316 -0.281,0.28 -0.525,0.6 -0.725,0.943 l 0.135,0.076 a 4.221,4.221 0 0 1 1.006,-1.19 c 0.19,-0.112 0.367,-0.282 0.568,-0.392 0.697,-0.426 1.52,-0.676 2.336,-0.652 0.053,0.023 -0.03,0.058 -0.055,0.031 -1.011,0.01 -2.036,0.389 -2.787,1.055 -0.034,0.122 -0.204,0.17 -0.271,0.277 a 4.37,4.37 0 0 0 -0.715,0.92 l 0.129,0.074 c 0.25,-0.429 0.57,-0.818 0.959,-1.123 0.18,-0.103 0.346,-0.267 0.537,-0.369 0.657,-0.401 1.435,-0.639 2.205,-0.615 0.052,0.022 -0.03,0.057 -0.055,0.031 -0.953,0.01 -1.922,0.367 -2.629,0.994 -0.075,0.178 -0.321,0.265 -0.422,0.438 -0.193,0.212 -0.36,0.447 -0.506,0.695 l 0.164,0.096 c 0.694,-1.202 2.042,-2.005 3.438,-2 a 3.987,3.987 0 0 1 2.021,0.535 v -0.002 a 1,1 0 0 0 1.366,-0.365 1,1 0 0 0 -0.366,-1.366 1,1 0 0 0 -0.08,-0.04 6.116,6.116 0 0 0 -2.867,-0.76 z m -5.488,3.48 a 5.472,5.472 0 0 0 -0.117,0.268 6,6 0 0 1 0.117,-0.268 z m -0.268,0.688 c -0.016,0.05 -0.038,0.099 -0.053,0.15 -0.01,0.008 0.001,0.012 0,0.02 a 6,6 0 0 1 0.055,-0.17 z m 0.01,0.3 c 0.014,0.005 0.024,0.013 0.04,0.012 z m 0.197,0.053 v 0.002 a 0.183,0.183 0 0 0 0.09,0.024 z m 0.243,0.065 v 0.004 c 0.01,0.003 0.01,-0.003 0.014,0 z m 0.242,0.066 v 0.004 c 0.01,0.006 0.014,-0.004 0.023,0 z m 0.242,0.065 v 0.004 c 0.011,0.006 0.014,-0.002 0.023,0.002 z m 0.242,0.064 v 0.006 c 0.017,0.01 0.023,0 0.037,0.004 z m 0.242,0.065 v 0.006 a 0.166,0.166 0 0 0 0.096,0.02 z m 0.237,0.064 v 0.006 c 0.03,0.018 0.045,0.006 0.068,0.012 z m 7.9,-2.766 c 0,0.003 0,0.007 -0.01,0.01 l 0.01,-0.008 z m -0.178,0.176 c -0.01,0.005 0,0.01 -0.01,0.016 l 0.012,-0.012 v -0.004 z m 1.072,0.008 a 6,6 0 0 1 0.094,0.13 c -0.03,-0.044 -0.06,-0.088 -0.094,-0.13 z m -1.25,0.17 c -0.01,0.006 0,0.012 -0.012,0.018 l 0.014,-0.014 v -0.004 z m -0.183,0.176 c -0.03,0.017 -0.026,0.035 -0.04,0.053 l 0.046,-0.045 c 0,-0.002 0,-0.006 -0.01,-0.008 z m -0.176,0.178 a 0.153,0.153 0 0 0 -0.064,0.076 l 0.07,-0.07 c 0,-0.002 0,-0.004 -0.01,-0.006 z m 2.06,0.146 -0.189,0.11 c 0.336,0.581 0.583,1.213 0.684,1.875 -0.018,0.235 0.072,0.504 0.062,0.753 0.05,1.082 -0.2,2.193 -0.762,3.118 -0.056,0.032 -0.015,-0.062 0.012,-0.069 0.64,-1.131 0.87,-2.508 0.617,-3.775 -0.096,-0.14 -0.062,-0.358 -0.135,-0.516 a 5.605,5.605 0 0 0 -0.554,-1.344 l -0.139,0.08 a 5.12,5.12 0 0 1 0.648,1.8 c -0.01,0.244 0.073,0.52 0.065,0.777 0.036,1.014 -0.205,2.055 -0.733,2.922 -0.051,0.04 -0.016,-0.058 0.012,-0.067 a 5.36,5.36 0 0 0 0.594,-3.605 c -0.101,-0.11 -0.052,-0.316 -0.121,-0.45 a 5.365,5.365 0 0 0 -0.543,-1.332 l -0.139,0.08 c 0.306,0.532 0.528,1.112 0.621,1.717 -0.01,0.235 0.068,0.497 0.061,0.745 0.033,0.967 -0.196,1.96 -0.701,2.787 -0.049,0.04 -0.017,-0.06 0.01,-0.065 0.582,-1.03 0.795,-2.285 0.565,-3.437 -0.092,-0.111 -0.05,-0.3 -0.116,-0.43 a 5.121,5.121 0 0 0 -0.517,-1.271 l -0.137,0.08 a 4.71,4.71 0 0 1 0.59,1.634 c -0.012,0.224 0.064,0.474 0.055,0.71 0.032,0.92 -0.185,1.868 -0.666,2.654 -0.048,0.039 -0.018,-0.055 0.01,-0.06 0.553,-0.981 0.754,-2.178 0.533,-3.274 -0.09,-0.105 -0.047,-0.288 -0.11,-0.412 a 4.855,4.855 0 0 0 -0.49,-1.207 l -0.138,0.08 c 0.276,0.48 0.477,1.003 0.556,1.549 0.021,0.298 0.077,0.618 0.062,0.927 -0.013,0.796 -0.22,1.603 -0.636,2.28 -0.05,0.028 -0.035,-0.057 0,-0.067 a 4.577,4.577 0 0 0 0.504,-3.113 c -0.092,-0.11 -0.052,-0.3 -0.118,-0.43 a 4.606,4.606 0 0 0 -0.455,-1.097 l -0.135,0.078 c 0.263,0.455 0.455,0.953 0.528,1.47 0.036,0.362 0.083,0.744 0.049,1.116 -0.05,0.67 -0.239,1.347 -0.594,1.918 -0.044,0.037 -0.036,-0.057 0,-0.065 0.497,-0.88 0.682,-1.958 0.48,-2.941 -0.088,-0.09 -0.046,-0.262 -0.105,-0.373 a 4.387,4.387 0 0 0 -0.437,-1.079 l -0.13,0.075 c 0.247,0.43 0.421,0.902 0.49,1.39 0,0.208 0.06,0.434 0.054,0.65 0.019,0.77 -0.165,1.563 -0.57,2.217 -0.043,0.037 -0.035,-0.052 0,-0.062 0.468,-0.83 0.643,-1.848 0.453,-2.773 -0.117,-0.154 -0.066,-0.413 -0.166,-0.586 a 4.07,4.07 0 0 0 -0.352,-0.784 l -0.164,0.096 c 0.704,1.219 0.716,2.813 -0.014,4.025 a 3.995,3.995 0 0 1 -1.445,1.434 1,1 0 0 0 -0.363,1.365 1,1 0 0 0 1.363,0.367 1,1 0 0 0 0,-0.002 1,1 0 0 0 0.019,-0.011 l 0.04,-0.026 a 1,1 0 0 0 0.015,-0.01 c 1.4,-0.838 2.44,-2.259 2.783,-3.859 0.33,-1.447 0.074,-3.004 -0.66,-4.287 z m -2.236,0.03 c -0.037,0.02 -0.036,0.043 -0.053,0.064 l 0.06,-0.059 c 0,-0.002 0,-0.004 -0.01,-0.006 z" />
</svg>
