<?xml version="1.0" encoding="UTF-8" standalone="no"?>
<svg
   xmlns:dc="http://purl.org/dc/elements/1.1/"
   xmlns:cc="http://creativecommons.org/ns#"
   xmlns:rdf="http://www.w3.org/1999/02/22-rdf-syntax-ns#"
   xmlns:svg="http://www.w3.org/2000/svg"
   xmlns="http://www.w3.org/2000/svg"
   xmlns:sodipodi="http://sodipodi.sourceforge.net/DTD/sodipodi-0.dtd"
   xmlns:inkscape="http://www.inkscape.org/namespaces/inkscape"
   height="24"
   width="24"
   version="1.1"
   id="svg8"
   sodipodi:docname="rotation-allowed.svg"
   inkscape:version="0.92.3 (2405546, 2018-03-11)">
  <metadata
     id="metadata14">
    <rdf:RDF>
      <cc:Work
         rdf:about="">
        <dc:format>image/svg+xml</dc:format>
        <dc:type
           rdf:resource="http://purl.org/dc/dcmitype/StillImage" />
        <dc:title></dc:title>
      </cc:Work>
    </rdf:RDF>
  </metadata>
  <defs
     id="defs12" />
  <sodipodi:namedview
     pagecolor="#ffffff"
     bordercolor="#666666"
     borderopacity="1"
     objecttolerance="10"
     gridtolerance="10"
     guidetolerance="10"
     inkscape:pageopacity="0"
     inkscape:pageshadow="2"
     inkscape:window-width="640"
     inkscape:window-height="480"
     id="namedview10"
     showgrid="true"
     inkscape:zoom="25.809398"
     inkscape:cx="8.9633771"
     inkscape:cy="8.1849374"
     inkscape:current-layer="svg8">
    <inkscape:grid
       type="xygrid"
       id="grid821" />
  </sodipodi:namedview>
  <path
     style="fill:#dfdfdf;fill-opacity:1"
     inkscape:connector-curvature="0"
     id="path2"
     d="M 9.545,5.451 A 6.996,6.996 0 0 0 5,12 7,7 0 0 0 8.969,18.303 L 8.2,19.502 c 0.662,0.094 1.352,0.168 2.069,0.219 0.711,0.047 1.41,0.073 2.095,0.078 A 34.483,34.483 0 0 0 10.36,16.135 v 0 L 9.515,17.453 A 6,6 0 0 1 6,12 C 6,9.428 7.62,7.24 9.895,6.387 Z m 2.09,-1.25 a 34.483,34.483 0 0 0 2.004,3.664 h 0.002 L 14.486,6.547 A 6,6 0 0 1 18,12 c 0,2.572 -1.62,4.76 -3.894,5.613 l 0.35,0.936 A 6.996,6.996 0 0 0 19,12 7,7 0 0 0 15.031,5.697 L 15.8,4.498 A 29.564,29.564 0 0 0 13.73,4.28 35.233,35.233 0 0 0 11.635,4.201 Z" />
  <path
     style="opacity:0.5;fill:#dfdfdf;fill-opacity:1"
     inkscape:connector-curvature="0"
     id="path4"
     d="m 12,8 c -1.108,0 -2,0.892 -2,2 v 1 H 9 v 4 h 6 V 11 H 14 V 10 C 14,8.892 13.108,8 12,8 Z m 0,1 c 0.554,0 1,0.446 1,1 v 1 h -2 v -1 c 0,-0.554 0.446,-1 1,-1 z" />
</svg>
