<?xml version="1.0" encoding="UTF-8" standalone="no"?>
<svg
   xmlns:dc="http://purl.org/dc/elements/1.1/"
   xmlns:cc="http://creativecommons.org/ns#"
   xmlns:rdf="http://www.w3.org/1999/02/22-rdf-syntax-ns#"
   xmlns:svg="http://www.w3.org/2000/svg"
   xmlns="http://www.w3.org/2000/svg"
   xmlns:sodipodi="http://sodipodi.sourceforge.net/DTD/sodipodi-0.dtd"
   xmlns:inkscape="http://www.inkscape.org/namespaces/inkscape"
   height="24"
   width="24"
   version="1.1"
   id="svg4"
   sodipodi:docname="security-low.svg"
   inkscape:version="0.92.3 (2405546, 2018-03-11)">
  <metadata
     id="metadata10">
    <rdf:RDF>
      <cc:Work
         rdf:about="">
        <dc:format>image/svg+xml</dc:format>
        <dc:type
           rdf:resource="http://purl.org/dc/dcmitype/StillImage" />
        <dc:title></dc:title>
      </cc:Work>
    </rdf:RDF>
  </metadata>
  <defs
     id="defs8" />
  <sodipodi:namedview
     pagecolor="#ffffff"
     bordercolor="#666666"
     borderopacity="1"
     objecttolerance="10"
     gridtolerance="10"
     guidetolerance="10"
     inkscape:pageopacity="0"
     inkscape:pageshadow="2"
     inkscape:window-width="640"
     inkscape:window-height="480"
     id="namedview6"
     showgrid="true"
     inkscape:zoom="25.809398"
     inkscape:cx="4.8642136"
     inkscape:cy="8.0559015"
     inkscape:current-layer="svg4">
    <inkscape:grid
       type="xygrid"
       id="grid817" />
  </sodipodi:namedview>
  <path
     class="error"
     d="m 12,4.334 c 0,0 -1.636,2.738 -6,2.738 0,9.31 6,12.594 6,12.594 0,0 6,-3.284 6,-12.594 -4.364,0 -6,-2.738 -6,-2.738 z m 0,1.386 c 0.272,0.312 0.257,0.42 0.781,0.795 0.912,0.654 2.362,1.19 4.153,1.391 -0.174,3.943 -1.439,6.642 -2.73,8.352 C 13.222,17.556 12.464,18.136 12,18.451 11.537,18.136 10.778,17.556 9.797,16.258 8.505,14.548 7.24,11.849 7.067,7.906 8.857,7.706 10.307,7.169 11.219,6.516 11.743,6.139 11.729,6.033 12,5.72 Z m -1,2.352 v 3 l 0.5,2 h 1 l 0.5,-2 v -3 z m 1,6 a 1,1 0 1 0 0,2 1,1 0 0 0 0,-2 z"
     style="color:#000000;overflow:visible;fill:#f22c42;marker:none"
     overflow="visible"
     id="path2"
     inkscape:connector-curvature="0" />
</svg>
