<?xml version="1.0" encoding="UTF-8" standalone="no"?>
<svg
   xmlns:dc="http://purl.org/dc/elements/1.1/"
   xmlns:cc="http://creativecommons.org/ns#"
   xmlns:rdf="http://www.w3.org/1999/02/22-rdf-syntax-ns#"
   xmlns:svg="http://www.w3.org/2000/svg"
   xmlns="http://www.w3.org/2000/svg"
   xmlns:sodipodi="http://sodipodi.sourceforge.net/DTD/sodipodi-0.dtd"
   xmlns:inkscape="http://www.inkscape.org/namespaces/inkscape"
   height="24"
   width="24"
   version="1.1"
   id="svg4"
   sodipodi:docname="semi-starred.svg"
   inkscape:version="0.92.3 (2405546, 2018-03-11)">
  <metadata
     id="metadata10">
    <rdf:RDF>
      <cc:Work
         rdf:about="">
        <dc:format>image/svg+xml</dc:format>
        <dc:type
           rdf:resource="http://purl.org/dc/dcmitype/StillImage" />
        <dc:title></dc:title>
      </cc:Work>
    </rdf:RDF>
  </metadata>
  <defs
     id="defs8" />
  <sodipodi:namedview
     pagecolor="#ffffff"
     bordercolor="#666666"
     borderopacity="1"
     objecttolerance="10"
     gridtolerance="10"
     guidetolerance="10"
     inkscape:pageopacity="0"
     inkscape:pageshadow="2"
     inkscape:window-width="640"
     inkscape:window-height="480"
     id="namedview6"
     showgrid="true"
     inkscape:zoom="18.25"
     inkscape:cx="-1.5890411"
     inkscape:cy="7.5616438"
     inkscape:current-layer="svg4">
    <inkscape:grid
       type="xygrid"
       id="grid817" />
  </sodipodi:namedview>
  <path
     d="m 11.9985,5.669 0.002,0.002 0.002,0.002 c 0.842,1.81 1.495,3.654 1.865,4.784 1.22,10e-4 3.227,0.047 5.14,0.295 l -0.001,0.002 v 0.002 l -0.002,0.002 v 0.002 c -1.461,1.361 -3.014,2.55 -3.975,3.252 0.376,1.16 0.954,3.084 1.309,4.98 h -0.008 c -1.747,-0.968 -3.358,-2.078 -4.323,-2.775 -0.986,0.716 -2.64,1.86 -4.333,2.783 v -0.006 l -0.002,-0.002 c 0.381,-1.96 0.94,-3.836 1.304,-4.968 -0.986,-0.717 -2.582,-1.934 -3.984,-3.259 l 0.002,-0.002 h 0.002 l 0.002,-0.002 v -0.002 c 1.982,-0.243 3.936,-0.292 5.126,-0.295 0.378,-1.16 1.045,-3.053 1.87,-4.795 z m -0.002,2.742 -0.002,0.006 v 6.574 l 0.012,-0.008 0.586,0.424 c 0.476,0.344 1.396,0.887 2.13,1.367 -0.232,-0.854 -0.458,-1.879 -0.644,-2.453 l -0.223,-0.687 0.584,-0.428 c 0.475,-0.347 1.276,-1.054 1.96,-1.604 -0.885,-0.042 -1.93,-0.144 -2.534,-0.144 l -0.723,-0.002 -0.226,-0.688 c -0.183,-0.558 -0.608,-1.537 -0.92,-2.357 z"
     style="color:#000000;overflow:visible;fill:#dfdfdf;marker:none;fill-opacity:1"
     overflow="visible"
     id="path2"
     inkscape:connector-curvature="0" />
</svg>
