<?xml version="1.0" encoding="UTF-8" standalone="no"?>
<svg
   xmlns:dc="http://purl.org/dc/elements/1.1/"
   xmlns:cc="http://creativecommons.org/ns#"
   xmlns:rdf="http://www.w3.org/1999/02/22-rdf-syntax-ns#"
   xmlns:svg="http://www.w3.org/2000/svg"
   xmlns="http://www.w3.org/2000/svg"
   xmlns:sodipodi="http://sodipodi.sourceforge.net/DTD/sodipodi-0.dtd"
   xmlns:inkscape="http://www.inkscape.org/namespaces/inkscape"
   height="24"
   width="24"
   version="1.1"
   id="svg6"
   sodipodi:docname="task-due.svg"
   inkscape:version="0.92.3 (2405546, 2018-03-11)">
  <metadata
     id="metadata12">
    <rdf:RDF>
      <cc:Work
         rdf:about="">
        <dc:format>image/svg+xml</dc:format>
        <dc:type
           rdf:resource="http://purl.org/dc/dcmitype/StillImage" />
        <dc:title></dc:title>
      </cc:Work>
    </rdf:RDF>
  </metadata>
  <defs
     id="defs10" />
  <sodipodi:namedview
     pagecolor="#ffffff"
     bordercolor="#666666"
     borderopacity="1"
     objecttolerance="10"
     gridtolerance="10"
     guidetolerance="10"
     inkscape:pageopacity="0"
     inkscape:pageshadow="2"
     inkscape:window-width="640"
     inkscape:window-height="480"
     id="namedview8"
     showgrid="true"
     inkscape:zoom="25.809398"
     inkscape:cx="6.4189259"
     inkscape:cy="6.9792623"
     inkscape:current-layer="svg6">
    <inkscape:grid
       type="xygrid"
       id="grid826" />
  </sodipodi:namedview>
  <path
     d="M 10.992158,4 A 2.008,2.008 0 0 0 9.0001576,6 h -1 c -0.657,0 -1.178,0.06 -1.617,0.225 -0.439,0.164 -0.79,0.461 -0.998,0.838 -0.415,0.752 -0.37,1.673 -0.385,2.931 v 5.012 c 0.015,1.258 -0.03,2.179 0.385,2.932 0.208,0.376 0.56,0.673 0.998,0.838 0.439,0.164 0.96,0.224 1.617,0.224 h 3.1330004 c 0.021,-0.05 0.031,-0.102 0.059,-0.15 l 0.482,-0.85 H 8.0001576 c -0.592,0 -1.006,-0.063 -1.265,-0.16 -0.26,-0.098 -0.372,-0.203 -0.473,-0.387 -0.202,-0.366 -0.247,-1.194 -0.262,-2.453 v -5 c 0.015,-1.259 0.06,-2.087 0.262,-2.453 0.101,-0.184 0.213,-0.29 0.473,-0.387 0.26,-0.098 0.673,-0.16 1.265,-0.16 V 7.999 H 14.000158 V 7 c 0.593,0 1.006,0.063 1.266,0.16 0.26,0.098 0.371,0.203 0.472,0.387 0.202,0.366 0.247,1.194 0.262,2.453 v 2.832 c 0.31,0.115 0.582,0.323 0.752,0.62 v 10e-4 l 0.248,0.438 V 9.994 c -0.015,-1.258 0.031,-2.179 -0.385,-2.932 a 1.88,1.88 0 0 0 -0.998,-0.837 C 15.179158,6.06 14.657158,6 14.000158,6 h -1.004 a 2.008,2.008 0 0 0 -1.992,-2 z m 0.01,1 c 0.559,0 1,0.442 1,1 a 0.99,0.99 0 0 1 -1,1 0.982,0.982 0 0 1 -0.922,-0.61 1.01,1.01 0 0 1 -0.077,-0.39 c 0,-0.558 0.441,-1 1,-1 z m -3.0020004,5 v 1 h 6.0120004 v -1 z m 0,2 v 1 h 6.0120004 v -1 z m -0.01,2 v 1 h 3.0000004 v -1 z"
     font-weight="400"
     overflow="visible"
     style="color:#000000;font-weight:400;line-height:normal;font-family:sans-serif;text-indent:0;text-align:start;text-decoration:none;text-decoration-line:none;text-decoration-style:solid;text-decoration-color:#000000;text-transform:none;white-space:normal;overflow:visible;isolation:auto;mix-blend-mode:normal;fill:#dfdfdf;marker:none;fill-opacity:1"
     id="path2"
     inkscape:connector-curvature="0" />
  <path
     class="warning"
     d="m 15.480158,13.729 a 0.443,0.443 0 0 0 -0.36,0.22 l -3.061,5.397 a 0.437,0.437 0 0 0 0.379,0.654 h 6.125 a 0.437,0.437 0 0 0 0.379,-0.654 l -3.059,-5.397 a 0.442,0.442 0 0 0 -0.402,-0.22 z m -0.48,1.271 h 1 v 0.168 c 0,0.348 -0.016,0.667 -0.047,0.957 -0.03,0.29 -0.069,0.581 -0.115,0.875 h -0.666 a 12.898,12.898 0 0 1 -0.125,-0.875 9.146,9.146 0 0 1 -0.047,-0.957 z m 0.5,3 a 0.5,0.5 0 1 1 0,1 0.5,0.5 0 0 1 0,-1 z"
     font-weight="400"
     overflow="visible"
     style="color:#000000;font-weight:400;line-height:normal;font-family:sans-serif;text-indent:0;text-align:start;text-decoration:none;text-decoration-line:none;text-decoration-style:solid;text-decoration-color:#000000;text-transform:none;white-space:normal;overflow:visible;isolation:auto;mix-blend-mode:normal;fill:#fdc92b;fill-rule:evenodd"
     id="path4"
     inkscape:connector-curvature="0" />
</svg>
