<?xml version="1.0" encoding="UTF-8" standalone="no"?>
<svg
   xmlns:osb="http://www.openswatchbook.org/uri/2009/osb"
   xmlns:dc="http://purl.org/dc/elements/1.1/"
   xmlns:cc="http://creativecommons.org/ns#"
   xmlns:rdf="http://www.w3.org/1999/02/22-rdf-syntax-ns#"
   xmlns:svg="http://www.w3.org/2000/svg"
   xmlns="http://www.w3.org/2000/svg"
   xmlns:sodipodi="http://sodipodi.sourceforge.net/DTD/sodipodi-0.dtd"
   xmlns:inkscape="http://www.inkscape.org/namespaces/inkscape"
   height="24"
   id="svg7384"
   version="1.1"
   width="24"
   sodipodi:docname="volume-warning.svg"
   inkscape:version="0.92.3 (2405546, 2018-03-11)">
  <sodipodi:namedview
     pagecolor="#ffffff"
     bordercolor="#666666"
     borderopacity="1"
     objecttolerance="10"
     gridtolerance="10"
     guidetolerance="10"
     inkscape:pageopacity="0"
     inkscape:pageshadow="2"
     inkscape:window-width="640"
     inkscape:window-height="480"
     id="namedview22"
     showgrid="true"
     inkscape:zoom="18.25"
     inkscape:cx="-1.5890411"
     inkscape:cy="9.7534247"
     inkscape:current-layer="svg7384">
    <inkscape:grid
       type="xygrid"
       id="grid24" />
  </sodipodi:namedview>
  <metadata
     id="metadata20854">
    <rdf:RDF>
      <cc:Work
         rdf:about="">
        <dc:title></dc:title>
        <dc:format>image/svg+xml</dc:format>
        <dc:type
           rdf:resource="http://purl.org/dc/dcmitype/StillImage" />
      </cc:Work>
    </rdf:RDF>
  </metadata>
  <defs
     id="defs7386">
    <linearGradient
       id="linearGradient5606"
       osb:paint="solid">
      <stop
         id="stop5608"
         offset="0"
         style="stop-color:#000000;stop-opacity:1;" />
    </linearGradient>
    <linearGradient
       id="linearGradient4526"
       osb:paint="solid">
      <stop
         id="stop4528"
         offset="0"
         style="stop-color:#ffffff;stop-opacity:1;" />
    </linearGradient>
    <linearGradient
       id="linearGradient3600-4"
       osb:paint="gradient">
      <stop
         id="stop3602-7"
         offset="0"
         style="stop-color:#f4f4f4;stop-opacity:1" />
      <stop
         id="stop3604-6"
         offset="1"
         style="stop-color:#dbdbdb;stop-opacity:1" />
    </linearGradient>
  </defs>
  <path
     inkscape:connector-curvature="0"
     style="color:#000000;font-weight:400;line-height:normal;font-family:sans-serif;text-indent:0;text-align:start;text-decoration:none;text-decoration-line:none;text-decoration-style:solid;text-decoration-color:#000000;text-transform:none;white-space:normal;display:inline;overflow:visible;isolation:auto;mix-blend-mode:normal;fill:#fdc92b;fill-rule:evenodd;stroke:none"
     id="path2409"
     d="m 16.4805,13.72852 c -0.1497,0.007 -0.2866,0.0909 -0.3614,0.2207 l -3.0605,5.39648 c -0.1666,0.29121 0.043,0.65406 0.3789,0.6543 h 6.125 c 0.3355,-2.4e-4 0.5455,-0.36309 0.3789,-0.6543 l -3.0586,-5.39648 c -0.082,-0.14267 -0.238,-0.22829 -0.4023,-0.2207 z M 16,15 h 1 v 0.16797 c 0,0.34851 -0.016,0.6673 -0.047,0.95703 -0.031,0.28973 -0.069,0.58107 -0.1152,0.875 h -0.666 c -0.052,-0.29393 -0.094,-0.58527 -0.125,-0.875 -0.031,-0.29393 -0.047,-0.61271 -0.047,-0.95703 z m 0.5,3 C 16.7761,18 17,18.22386 17,18.5 17,18.77614 16.7761,19 16.5,19 16.2239,19 16,18.77614 16,18.5 16,18.22386 16.2239,18 16.5,18 Z"
     class="warning" />
  <path
     inkscape:connector-curvature="0"
     style="display:inline;fill:#dfdfdf;fill-opacity:1;stroke:none;stroke-width:4.36363602;stroke-miterlimit:4;stroke-dasharray:none"
     id="path2418"
     d="M 12,5.33398 8.5,9 H 5.8711 C 5.8711,9 5,9.89365 5,12.00195 5,14.1103 5.8711,15 5.8711,15 H 8.5 l 3.5,3.66602 z m 4.6445,1.47071 -0.707,0.70703 0.3535,0.35351 c 1.1254,1.12536 1.7578,2.6507 1.7578,4.24219 0,0.51608 -0.073,1.02289 -0.2011,1.51367 l 0.664,1.17188 c 0.3508,-0.84344 0.5371,-1.75442 0.5371,-2.68555 0,-1.85632 -0.7382,-3.6366 -2.0508,-4.94922 z m -2.1211,2.12109 -0.707,0.70703 0.3535,0.35352 c 0.5628,0.56274 0.8789,1.32525 0.8789,2.12109 0,0.79584 -0.3161,1.55836 -0.8789,2.1211 l -0.3535,0.35351 0.5078,0.50781 0.9278,-1.63671 v -0.004 c 0.1653,-0.28707 0.4244,-0.49385 0.7246,-0.61133 0.045,-0.23976 0.072,-0.48318 0.072,-0.73047 0,-1.06067 -0.4219,-2.07813 -1.1719,-2.82813 z" />
  <g
     id="layer2"
     style="display:inline"
     transform="translate(-931.50014,-31.33301)" />
  <g
     id="layer4"
     style="display:inline"
     transform="translate(-931.50014,-31.33301)" />
  <g
     id="g1812"
     style="display:inline"
     transform="translate(-931.50014,-31.33301)" />
  <g
     id="g6217"
     style="display:inline"
     transform="translate(-931.50014,-31.33301)" />
  <g
     id="layer3"
     style="display:inline"
     transform="translate(-931.50014,-31.33301)" />
  <g
     id="g1833"
     style="display:inline"
     transform="translate(-931.50014,-31.33301)" />
  <g
     id="layer1"
     style="display:inline"
     transform="translate(-931.50014,-31.33301)" />
</svg>
