<?xml version="1.0" encoding="UTF-8" standalone="no"?>
<svg
   xmlns:dc="http://purl.org/dc/elements/1.1/"
   xmlns:cc="http://creativecommons.org/ns#"
   xmlns:rdf="http://www.w3.org/1999/02/22-rdf-syntax-ns#"
   xmlns:svg="http://www.w3.org/2000/svg"
   xmlns="http://www.w3.org/2000/svg"
   xmlns:sodipodi="http://sodipodi.sourceforge.net/DTD/sodipodi-0.dtd"
   xmlns:inkscape="http://www.inkscape.org/namespaces/inkscape"
   height="24"
   width="24"
   version="1.1"
   id="svg4"
   sodipodi:docname="weather-clear-night.svg"
   inkscape:version="0.92.3 (2405546, 2018-03-11)">
  <metadata
     id="metadata10">
    <rdf:RDF>
      <cc:Work
         rdf:about="">
        <dc:format>image/svg+xml</dc:format>
        <dc:type
           rdf:resource="http://purl.org/dc/dcmitype/StillImage" />
        <dc:title></dc:title>
      </cc:Work>
    </rdf:RDF>
  </metadata>
  <defs
     id="defs8" />
  <sodipodi:namedview
     pagecolor="#ffffff"
     bordercolor="#666666"
     borderopacity="1"
     objecttolerance="10"
     gridtolerance="10"
     guidetolerance="10"
     inkscape:pageopacity="0"
     inkscape:pageshadow="2"
     inkscape:window-width="640"
     inkscape:window-height="480"
     id="namedview6"
     showgrid="true"
     inkscape:zoom="18.25"
     inkscape:cx="-1.5890411"
     inkscape:cy="7.5616438"
     inkscape:current-layer="svg4">
    <inkscape:grid
       type="xygrid"
       id="grid817" />
  </sodipodi:namedview>
  <path
     d="m 10.001599,5.1960814 -0.001,0.001 c -0.2400001,0.517 -0.4270001,1.043 -0.5330001,1.366 -0.348,0 -0.92,0.013 -1.467,0.084 v 10e-4 h 10e-4 c 0.417,0.39 0.86,0.73 1.135,0.93 -0.108,0.33 -0.272,0.88 -0.374,1.42 h 0.002 c 0.499,-0.276 0.959,-0.592 1.234,-0.791 a 12.06,12.06 0 0 0 1.2360001,0.793 v -10e-4 a 12.804,12.804 0 0 0 -0.371,-1.418 12.065,12.065 0 0 0 1.137,-0.93 v -10e-4 h -10e-4 a 12.788,12.788 0 0 0 -1.464,-0.085 12.07,12.07 0 0 0 -0.534,-1.37 z m -3.5010001,3.951 a 9.6,9.6 0 0 0 -0.4,1.0250006 9.032,9.032 0 0 0 -1.1,0.064 9.6,9.6 0 0 0 0.852,0.697 c -0.081,0.248 -0.204,0.66 -0.28,1.066 a 9.59,9.59 0 0 0 0.926,-0.594 8.9,8.9 0 0 0 0.928,0.596 v -10e-4 c -0.082,-0.42 -0.2,-0.822 -0.279,-1.064 0.211,-0.153 0.553,-0.414 0.853,-0.698 a 9.596,9.596 0 0 0 -1.099,-0.064 9.078,9.078 0 0 0 -0.4,-1.0270006 z m 7.7970001,-2.901 a 5.725,5.725 0 0 1 1.1,5.0960006 5.729,5.729 0 0 1 -7.0160001,4.05 5.728,5.728 0 0 1 -2.132,-1.099 6.507,6.507 0 0 0 4.5600001,4.485 6.506,6.506 0 0 0 7.969,-4.6 6.507,6.507 0 0 0 -4.48,-7.9320006 z m 2.166,2.457 a 5.471,5.471 0 0 1 1.528,4.1270006 5.567,5.567 0 0 1 -0.18,1.09 5.49,5.49 0 0 1 -9.1370001,2.528 c 3.4000001,0.61 6.7800001,-1.453 7.6900001,-4.846 v -0.002 a 6.71,6.71 0 0 0 0.1,-2.8970006 z"
     overflow="visible"
     style="color:#000000;overflow:visible;fill:#dfdfdf;marker:none;fill-opacity:1"
     id="path2"
     inkscape:connector-curvature="0" />
</svg>
