<?xml version="1.0" encoding="UTF-8" standalone="no"?>
<svg
   xmlns:dc="http://purl.org/dc/elements/1.1/"
   xmlns:cc="http://creativecommons.org/ns#"
   xmlns:rdf="http://www.w3.org/1999/02/22-rdf-syntax-ns#"
   xmlns:svg="http://www.w3.org/2000/svg"
   xmlns="http://www.w3.org/2000/svg"
   xmlns:sodipodi="http://sodipodi.sourceforge.net/DTD/sodipodi-0.dtd"
   xmlns:inkscape="http://www.inkscape.org/namespaces/inkscape"
   height="24"
   width="24"
   version="1.1"
   id="svg8"
   sodipodi:docname="weather-storm.svg"
   inkscape:version="0.92.3 (2405546, 2018-03-11)">
  <metadata
     id="metadata14">
    <rdf:RDF>
      <cc:Work
         rdf:about="">
        <dc:format>image/svg+xml</dc:format>
        <dc:type
           rdf:resource="http://purl.org/dc/dcmitype/StillImage" />
        <dc:title></dc:title>
      </cc:Work>
    </rdf:RDF>
  </metadata>
  <defs
     id="defs12" />
  <sodipodi:namedview
     pagecolor="#ffffff"
     bordercolor="#666666"
     borderopacity="1"
     objecttolerance="10"
     gridtolerance="10"
     guidetolerance="10"
     inkscape:pageopacity="0"
     inkscape:pageshadow="2"
     inkscape:window-width="640"
     inkscape:window-height="480"
     id="namedview10"
     showgrid="true"
     inkscape:zoom="12.904699"
     inkscape:cx="-1.9885945"
     inkscape:cy="5.4577003"
     inkscape:current-layer="svg8">
    <inkscape:grid
       type="xygrid"
       id="grid821" />
  </sodipodi:namedview>
  <path
     inkscape:connector-curvature="0"
     id="path2"
     style="color:#000000;font-weight:400;line-height:normal;font-family:sans-serif;-inkscape-font-specification:sans-serif;text-indent:0;text-align:start;text-decoration:none;text-decoration-line:none;text-transform:none;overflow:visible;fill:#dfdfdf;marker:none;fill-opacity:1"
     overflow="visible"
     font-weight="400"
     d="M 12.56,4.042 C 10.672,4.043 9.068,5.207 8.301,6.87 L 8.246,6.983 8.125,6.993 C 6.38,7.12 5,8.63 5,10.466 c 0,1.919 1.5,3.492 3.357,3.492 h 8.125 c 1.392,0 2.518,-1.182 2.518,-2.615 0,-1.087 -0.653,-2 -1.578,-2.393 L 17.301,8.9 17.291,8.77 C 17.172,6.152 15.115,4.044 12.562,4.042 Z m 0,1 c 2.004,0.001 3.635,1.652 3.731,3.773 v 0.016 l 0.06,0.748 0.677,0.291 v 0.002 c 0.57,0.242 0.973,0.785 0.973,1.47 0,0.91 -0.692,1.616 -1.518,1.616 H 8.36 C 7.069,12.958 6,11.863 6,10.466 6,9.132 6.988,8.078 8.198,7.989 L 8.903,7.94 9.208,7.292 V 7.29 C 9.826,5.947 11.08,5.043 12.559,5.042 Z" />
  <path
     style="fill:#dfdfdf;fill-opacity:1"
     inkscape:connector-curvature="0"
     id="path4"
     d="m 10.67,12.958 -0.26,3.5 h 1.613 l -0.38,3.5 2.767,-5 H 12.5 l 0.324,-2 z" />
</svg>
