<?xml version="1.0" encoding="UTF-8" standalone="no"?>
<svg
   xmlns:dc="http://purl.org/dc/elements/1.1/"
   xmlns:cc="http://creativecommons.org/ns#"
   xmlns:rdf="http://www.w3.org/1999/02/22-rdf-syntax-ns#"
   xmlns:svg="http://www.w3.org/2000/svg"
   xmlns="http://www.w3.org/2000/svg"
   xmlns:sodipodi="http://sodipodi.sourceforge.net/DTD/sodipodi-0.dtd"
   xmlns:inkscape="http://www.inkscape.org/namespaces/inkscape"
   height="24"
   width="24"
   version="1.1"
   id="svg4"
   sodipodi:docname="weather-clear.svg"
   inkscape:version="0.92.3 (2405546, 2018-03-11)">
  <metadata
     id="metadata10">
    <rdf:RDF>
      <cc:Work
         rdf:about="">
        <dc:format>image/svg+xml</dc:format>
        <dc:type
           rdf:resource="http://purl.org/dc/dcmitype/StillImage" />
        <dc:title></dc:title>
      </cc:Work>
    </rdf:RDF>
  </metadata>
  <defs
     id="defs8" />
  <sodipodi:namedview
     pagecolor="#ffffff"
     bordercolor="#666666"
     borderopacity="1"
     objecttolerance="10"
     gridtolerance="10"
     guidetolerance="10"
     inkscape:pageopacity="0"
     inkscape:pageshadow="2"
     inkscape:window-width="640"
     inkscape:window-height="480"
     id="namedview6"
     showgrid="true"
     inkscape:zoom="12.904699"
     inkscape:cx="-6.423424"
     inkscape:cy="6.5856886"
     inkscape:current-layer="svg4">
    <inkscape:grid
       type="xygrid"
       id="grid817" />
  </sodipodi:namedview>
  <path
     d="m 11.5,4 v 2 h 1 V 4 Z m -3.066,0.822 -0.868,0.5 1.002,1.733 0.866,-0.5 z m 7.132,0 -1,1.733 0.868,0.5 1,-1.733 z M 12,7 a 5,5 0 1 0 0,10 5,5 0 0 0 0,-10 z m -6.678,0.566 -0.5,0.868 1.733,1 0.5,-0.868 z m 13.356,0 -1.733,1 0.5,0.868 1.733,-1 z M 12,8 a 4,4 0 0 1 4,4 4,4 0 0 1 -4,4 4,4 0 0 1 -4,-4 4,4 0 0 1 4,-4 z m -8,3.5 v 1 h 2 v -1 z m 14,0 v 1 h 2 v -1 z m -11.445,3.066 -1.733,1 0.5,0.868 1.733,-1.002 z m 10.89,0 -0.5,0.868 1.733,1 0.5,-0.868 z m -8.879,2.38 -1,1.732 0.868,0.5 1,-1.733 z m 6.868,0 -0.868,0.5 1,1.732 0.868,-0.5 z M 11.5,18 v 2 h 1 v -2 z"
     id="path2"
     inkscape:connector-curvature="0"
     style="fill:#dfdfdf;fill-opacity:1" />
</svg>
