<?xml version="1.0" encoding="UTF-8" standalone="no"?>
<svg
   xmlns:dc="http://purl.org/dc/elements/1.1/"
   xmlns:cc="http://creativecommons.org/ns#"
   xmlns:rdf="http://www.w3.org/1999/02/22-rdf-syntax-ns#"
   xmlns:svg="http://www.w3.org/2000/svg"
   xmlns="http://www.w3.org/2000/svg"
   xmlns:sodipodi="http://sodipodi.sourceforge.net/DTD/sodipodi-0.dtd"
   xmlns:inkscape="http://www.inkscape.org/namespaces/inkscape"
   height="24"
   width="24"
   version="1.1"
   id="svg4"
   sodipodi:docname="weather-cloudy.svg"
   inkscape:version="0.92.3 (2405546, 2018-03-11)">
  <metadata
     id="metadata10">
    <rdf:RDF>
      <cc:Work
         rdf:about="">
        <dc:format>image/svg+xml</dc:format>
        <dc:type
           rdf:resource="http://purl.org/dc/dcmitype/StillImage" />
        <dc:title></dc:title>
      </cc:Work>
    </rdf:RDF>
  </metadata>
  <defs
     id="defs8" />
  <sodipodi:namedview
     pagecolor="#ffffff"
     bordercolor="#666666"
     borderopacity="1"
     objecttolerance="10"
     gridtolerance="10"
     guidetolerance="10"
     inkscape:pageopacity="0"
     inkscape:pageshadow="2"
     inkscape:window-width="640"
     inkscape:window-height="480"
     id="namedview6"
     showgrid="true"
     inkscape:zoom="18.25"
     inkscape:cx="-1.6376546"
     inkscape:cy="3.3563523"
     inkscape:current-layer="svg4">
    <inkscape:grid
       type="xygrid"
       id="grid817" />
  </sodipodi:namedview>
  <path
     d="M 12.63999,6.668 C 10.48199,6.67 8.6479899,7.999 7.7719899,9.9 l -0.061,0.13 -0.139,0.01 c -1.994,0.144 -3.572,1.87 -3.572,3.968 0,2.193 1.716,3.992 3.838,3.992 H 17.12199 c 1.592,0 2.878,-1.35 2.878,-2.988 a 2.958,2.958 0 0 0 -1.805,-2.735 l -0.137,-0.058 -0.01,-0.149 c -0.135,-2.993 -2.487,-5.4 -5.404,-5.402 z m 0,1 c 2.368,0.002 4.292,1.952 4.405,4.447 v 0.01 l 0.051,0.776 0.703,0.297 a 1.944,1.944 0 0 1 1.195,1.814 c 0.01,1.114 -0.845,1.988 -1.87,1.988 H 7.8369899 c -1.556,0 -2.838,-1.32 -2.838,-2.992 0,-1.597 1.185,-2.866 2.645,-2.973 l 0.723,-0.05 0.31,-0.662 v -0.004 c 0.728,-1.58 2.2130001,-2.65 3.9610001,-2.65 z"
     font-weight="400"
     overflow="visible"
     style="color:#000000;font-weight:400;line-height:normal;font-family:sans-serif;-inkscape-font-specification:sans-serif;text-indent:0;text-align:start;text-decoration:none;text-decoration-line:none;text-transform:none;overflow:visible;fill:#dfdfdf;marker:none;fill-opacity:1"
     id="path2"
     inkscape:connector-curvature="0" />
</svg>
