<?xml version="1.0" encoding="UTF-8" standalone="no"?>
<svg
   xmlns:dc="http://purl.org/dc/elements/1.1/"
   xmlns:cc="http://creativecommons.org/ns#"
   xmlns:rdf="http://www.w3.org/1999/02/22-rdf-syntax-ns#"
   xmlns:svg="http://www.w3.org/2000/svg"
   xmlns="http://www.w3.org/2000/svg"
   xmlns:sodipodi="http://sodipodi.sourceforge.net/DTD/sodipodi-0.dtd"
   xmlns:inkscape="http://www.inkscape.org/namespaces/inkscape"
   height="24"
   width="24"
   version="1.1"
   id="svg8"
   sodipodi:docname="weather-showers.svg"
   inkscape:version="0.92.3 (2405546, 2018-03-11)">
  <metadata
     id="metadata14">
    <rdf:RDF>
      <cc:Work
         rdf:about="">
        <dc:format>image/svg+xml</dc:format>
        <dc:type
           rdf:resource="http://purl.org/dc/dcmitype/StillImage" />
        <dc:title></dc:title>
      </cc:Work>
    </rdf:RDF>
  </metadata>
  <defs
     id="defs12" />
  <sodipodi:namedview
     pagecolor="#ffffff"
     bordercolor="#666666"
     borderopacity="1"
     objecttolerance="10"
     gridtolerance="10"
     guidetolerance="10"
     inkscape:pageopacity="0"
     inkscape:pageshadow="2"
     inkscape:window-width="640"
     inkscape:window-height="480"
     id="namedview10"
     showgrid="true"
     inkscape:zoom="18.25"
     inkscape:cx="6.1458846"
     inkscape:cy="9.5032082"
     inkscape:current-layer="svg8">
    <inkscape:grid
       type="xygrid"
       id="grid821" />
  </sodipodi:namedview>
  <path
     inkscape:connector-curvature="0"
     id="path2"
     style="color:#000000;font-weight:400;line-height:normal;font-family:sans-serif;-inkscape-font-specification:sans-serif;text-indent:0;text-align:start;text-decoration:none;text-decoration-line:none;text-transform:none;overflow:visible;fill:#dfdfdf;marker:none;fill-opacity:1"
     overflow="visible"
     font-weight="400"
     d="M 12.56,4.084 C 10.672,4.085 9.068,5.249 8.301,6.912 L 8.246,7.025 8.125,7.035 C 6.38,7.162 5,8.672 5,10.508 5,12.427 6.5,14 8.357,14 h 8.125 C 17.874,14 19,12.818 19,11.385 c 0,-1.087 -0.653,-2 -1.578,-2.393 l -0.121,-0.05 -0.01,-0.13 C 17.172,6.194 15.115,4.086 12.562,4.084 Z m 0,1 c 2.004,0.001 3.635,1.652 3.731,3.773 v 0.016 l 0.06,0.748 0.677,0.291 v 0.002 c 0.57,0.242 0.973,0.785 0.973,1.47 0,0.91 -0.692,1.616 -1.518,1.616 H 8.36 C 7.069,13 6,11.905 6,10.508 6,9.174 6.988,8.12 8.198,8.031 L 8.903,7.982 9.208,7.334 V 7.332 C 9.826,5.989 11.08,5.085 12.559,5.084 Z" />
  <path
     inkscape:connector-curvature="0"
     id="path4"
     style="color:#000000;overflow:visible;fill:#dfdfdf;marker:none;fill-opacity:1"
     overflow="visible"
     d="m 12.003,20 a 1.501,1.501 0 0 1 -1.424,-1.972 c 0,-0.015 0.01,-0.03 0.014,-0.045 0.038,-0.127 0.598,-1.965 1.412,-3.614 v 0.002 a 27.871,27.871 0 0 1 1.42,3.657 A 1.501,1.501 0 0 1 12,20 Z M 16,18 a 1,1 0 0 1 -0.95,-1.314 c 0,-0.01 0.01,-0.02 0.01,-0.03 0.025,-0.085 0.4,-1.31 0.941,-2.41 v 10e-4 c 0.58,1.201 0.948,2.438 0.948,2.438 a 1,1 0 0 1 -0.95,1.314 z M 8,18 A 1,1 0 0 1 7.05,16.686 c 0,-0.01 0.01,-0.02 0.01,-0.03 0.025,-0.085 0.4,-1.31 0.941,-2.41 v 10e-4 A 18.52,18.52 0 0 1 8.949,16.686 1,1 0 0 1 7.999,18 Z" />
</svg>
