<?xml version="1.0" encoding="UTF-8" standalone="no"?>
<svg
   xmlns:dc="http://purl.org/dc/elements/1.1/"
   xmlns:cc="http://creativecommons.org/ns#"
   xmlns:rdf="http://www.w3.org/1999/02/22-rdf-syntax-ns#"
   xmlns:svg="http://www.w3.org/2000/svg"
   xmlns="http://www.w3.org/2000/svg"
   xmlns:sodipodi="http://sodipodi.sourceforge.net/DTD/sodipodi-0.dtd"
   xmlns:inkscape="http://www.inkscape.org/namespaces/inkscape"
   height="24"
   width="24"
   version="1.1"
   id="svg6"
   sodipodi:docname="weather-severe-alert.svg"
   inkscape:version="0.92.3 (2405546, 2018-03-11)">
  <metadata
     id="metadata12">
    <rdf:RDF>
      <cc:Work
         rdf:about="">
        <dc:format>image/svg+xml</dc:format>
        <dc:type
           rdf:resource="http://purl.org/dc/dcmitype/StillImage" />
        <dc:title></dc:title>
      </cc:Work>
    </rdf:RDF>
  </metadata>
  <defs
     id="defs10" />
  <sodipodi:namedview
     pagecolor="#ffffff"
     bordercolor="#666666"
     borderopacity="1"
     objecttolerance="10"
     gridtolerance="10"
     guidetolerance="10"
     inkscape:pageopacity="0"
     inkscape:pageshadow="2"
     inkscape:window-width="640"
     inkscape:window-height="480"
     id="namedview8"
     showgrid="true"
     inkscape:zoom="18.25"
     inkscape:cx="-1.2696144"
     inkscape:cy="6.5770701"
     inkscape:current-layer="svg6">
    <inkscape:grid
       type="xygrid"
       id="grid826" />
  </sodipodi:namedview>
  <path
     d="M 12.64,4.668 C 10.482,4.67 8.648,5.999 7.772,7.9 L 7.711,8.03 7.572,8.04 C 5.578,8.184 4,9.91 4,12.008 4,14.201 5.716,16 7.838,16 H 10 V 15 H 7.838 C 6.281,15 5,13.679 5,12.008 5,10.411 6.184,9.142 7.644,9.035 L 8.367,8.985 8.677,8.322 V 8.318 c 0.729,-1.58 2.213,-2.649 3.961,-2.65 2.368,0.002 4.292,1.952 4.405,4.447 v 0.01 l 0.05,0.776 0.704,0.296 a 1.944,1.944 0 0 1 1.195,1.815 C 19.002,14.126 18.146,15 17.121,15 h -3.123 v 1 h 3.123 c 1.591,0 2.877,-1.35 2.877,-2.988 A 2.958,2.958 0 0 0 18.193,10.277 L 18.057,10.219 18.047,10.07 C 17.911,7.077 15.56,4.67 12.642,4.668 Z"
     font-weight="400"
     overflow="visible"
     style="color:#000000;font-weight:400;line-height:normal;font-family:sans-serif;-inkscape-font-specification:sans-serif;text-indent:0;text-align:start;text-decoration:none;text-decoration-line:none;text-transform:none;overflow:visible;fill:#dfdfdf;marker:none;fill-opacity:1"
     id="path2"
     inkscape:connector-curvature="0" />
  <path
     class="error"
     d="m 11.291,10 v 2.662 c 0,0.793 0.03,1.517 0.086,2.168 0.057,0.642 0.128,1.284 0.213,1.926 h 0.82 c 0.085,-0.642 0.157,-1.284 0.213,-1.926 0.057,-0.651 0.086,-1.375 0.086,-2.168 V 10 Z m 0.71,8.102 c -0.294,0 -0.524,0.094 -0.694,0.283 a 0.965,0.965 0 0 0 -0.256,0.666 c 0,0.255 0.086,0.477 0.256,0.666 0.17,0.189 0.4,0.283 0.693,0.283 0.293,0 0.524,-0.094 0.694,-0.283 a 0.965,0.965 0 0 0 0.255,-0.666 0.965,0.965 0 0 0 -0.255,-0.666 C 12.524,18.195 12.293,18.102 12,18.102 Z"
     font-weight="400"
     overflow="visible"
     style="color:#000000;font-weight:400;line-height:normal;font-family:sans-serif;font-variant-ligatures:none;font-variant-position:normal;font-variant-caps:normal;font-variant-numeric:normal;font-variant-alternates:normal;font-feature-settings:normal;text-indent:0;text-align:start;text-decoration:none;text-decoration-line:none;text-decoration-style:solid;text-decoration-color:#000000;text-transform:none;white-space:normal;shape-padding:0;overflow:visible;isolation:auto;mix-blend-mode:normal;fill:#da1636;marker:none"
     id="path4"
     inkscape:connector-curvature="0" />
</svg>
