<?xml version="1.0" encoding="UTF-8" standalone="no"?>
<svg
   xmlns:osb="http://www.openswatchbook.org/uri/2009/osb"
   xmlns:dc="http://purl.org/dc/elements/1.1/"
   xmlns:cc="http://creativecommons.org/ns#"
   xmlns:rdf="http://www.w3.org/1999/02/22-rdf-syntax-ns#"
   xmlns:svg="http://www.w3.org/2000/svg"
   xmlns="http://www.w3.org/2000/svg"
   xmlns:sodipodi="http://sodipodi.sourceforge.net/DTD/sodipodi-0.dtd"
   xmlns:inkscape="http://www.inkscape.org/namespaces/inkscape"
   height="24"
   id="svg7384"
   version="1.1"
   width="24"
   sodipodi:docname="weather-few-clouds.svg"
   inkscape:version="0.92.3 (2405546, 2018-03-11)">
  <sodipodi:namedview
     pagecolor="#ffffff"
     bordercolor="#666666"
     borderopacity="1"
     objecttolerance="10"
     gridtolerance="10"
     guidetolerance="10"
     inkscape:pageopacity="0"
     inkscape:pageshadow="2"
     inkscape:window-width="640"
     inkscape:window-height="480"
     id="namedview21"
     showgrid="true"
     inkscape:zoom="18.249963"
     inkscape:cx="5.4132547"
     inkscape:cy="6.5705504"
     inkscape:current-layer="svg7384">
    <inkscape:grid
       type="xygrid"
       id="grid831" />
  </sodipodi:namedview>
  <metadata
     id="metadata20854">
    <rdf:RDF>
      <cc:Work
         rdf:about="">
        <dc:title></dc:title>
        <dc:format>image/svg+xml</dc:format>
        <dc:type
           rdf:resource="http://purl.org/dc/dcmitype/StillImage" />
      </cc:Work>
    </rdf:RDF>
  </metadata>
  <defs
     id="defs7386">
    <linearGradient
       id="linearGradient5606"
       osb:paint="solid">
      <stop
         id="stop5608"
         offset="0"
         style="stop-color:#000000;stop-opacity:1;" />
    </linearGradient>
    <linearGradient
       id="linearGradient4526"
       osb:paint="solid">
      <stop
         id="stop4528"
         offset="0"
         style="stop-color:#ffffff;stop-opacity:1;" />
    </linearGradient>
    <linearGradient
       id="linearGradient3600-4"
       osb:paint="gradient">
      <stop
         id="stop3602-7"
         offset="0"
         style="stop-color:#f4f4f4;stop-opacity:1" />
      <stop
         id="stop3604-6"
         offset="1"
         style="stop-color:#dbdbdb;stop-opacity:1" />
    </linearGradient>
  </defs>
  <path
     inkscape:connector-curvature="0"
     style="opacity:1;fill:#dfdfdf;fill-opacity:1;stroke:none;stroke-width:0.5;stroke-linecap:square;stroke-linejoin:round;stroke-miterlimit:4;stroke-dasharray:none;stroke-dashoffset:0;stroke-opacity:1"
     id="path2480"
     d="m 11.5,4 v 2 h 1 V 4 Z m -3.0664,0.82227 -0.8672,0.5 1.002,1.73242 0.8652,-0.5 z m 7.1328,0 -1,1.73242 0.8672,0.5 1,-1.73242 z M 12,7 c -2.7614,0 -5,2.23858 -5,5 0,1.64757 0.8077,3.09689 2.0371,4.00781 A 3.5,3.5 0 0 1 9.3477,14.98828 4,4 0 0 1 8,12 a 4,4 0 0 1 4,-4 4,4 0 0 1 3.8731,3.01758 4.5,4.5 0 0 1 1.0644,0.22461 C 16.5717,8.84115 14.5032,7 12,7 Z m -6.6777,0.56641 -0.5,0.86718 1.7324,1 0.5,-0.86718 z m 13.3554,0 -1.7324,1 0.5,0.86718 1.7324,-1 z M 4,11.5 v 1 h 2 v -1 z m 14,0 v 0.26172 A 4.5,4.5 0 0 1 18.8477,12.5 H 20 v -1 z M 15.5,12 A 3.5,3.5 0 0 0 12.3398,14.00586 2.5,2.5 0 0 0 10,16.5 2.5,2.5 0 0 0 12.5,19 h 3 2.5 A 2,2 0 0 0 20,17 2,2 0 0 0 18.9922,15.26562 3.5,3.5 0 0 0 15.5,12 Z m 0,1 v 0 c 1.3244,9.8e-4 2.4035,1.01036 2.4922,2.33203 l 0.037,0.53516 0.4648,0.26758 c 0.3127,0.17865 0.5035,0.50706 0.5039,0.86718 C 18.9969,17.56512 18.5614,18 17.9979,18 h -2.5 -3 c -0.8403,0 -1.5,-0.65973 -1.5,-1.5 2e-4,-0.8006 0.6054,-1.4448 1.4043,-1.49609 l 0.5879,-0.0371 0.252,-0.53321 c 0.4132,-0.8751 1.2882,-1.43149 2.2558,-1.43359 z m -8.9414,1.56641 -1.7324,1 0.5,0.86718 1.7324,-1.00195 z m 2.0117,2.3789 -1,1.73242 0.8672,0.5 0.8106,-1.40234 a 3.5,3.5 0 0 1 -0.1622,-0.5332 z m 2.9337,2.90625 V 20 h 1 a 3.5,3.5 0 0 1 -1,-0.14844 z" />
</svg>
