<?xml version="1.0" encoding="UTF-8" standalone="no"?>
<svg
   xmlns:dc="http://purl.org/dc/elements/1.1/"
   xmlns:cc="http://creativecommons.org/ns#"
   xmlns:rdf="http://www.w3.org/1999/02/22-rdf-syntax-ns#"
   xmlns:svg="http://www.w3.org/2000/svg"
   xmlns="http://www.w3.org/2000/svg"
   xmlns:sodipodi="http://sodipodi.sourceforge.net/DTD/sodipodi-0.dtd"
   xmlns:inkscape="http://www.inkscape.org/namespaces/inkscape"
   height="24"
   width="24"
   version="1.1"
   id="svg4"
   sodipodi:docname="weather-fog.svg"
   inkscape:version="0.92.3 (2405546, 2018-03-11)">
  <metadata
     id="metadata10">
    <rdf:RDF>
      <cc:Work
         rdf:about="">
        <dc:format>image/svg+xml</dc:format>
        <dc:type
           rdf:resource="http://purl.org/dc/dcmitype/StillImage" />
        <dc:title></dc:title>
      </cc:Work>
    </rdf:RDF>
  </metadata>
  <defs
     id="defs8" />
  <sodipodi:namedview
     pagecolor="#ffffff"
     bordercolor="#666666"
     borderopacity="1"
     objecttolerance="10"
     gridtolerance="10"
     guidetolerance="10"
     inkscape:pageopacity="0"
     inkscape:pageshadow="2"
     inkscape:window-width="640"
     inkscape:window-height="480"
     id="namedview6"
     showgrid="true"
     inkscape:zoom="18.25"
     inkscape:cx="8.0578664"
     inkscape:cy="9.3538476"
     inkscape:current-layer="svg4">
    <inkscape:grid
       type="xygrid"
       id="grid817" />
  </sodipodi:namedview>
  <path
     d="M 12.641,4.668 C 10.483,4.67 8.649,5.999 7.773,7.9 L 7.712,8.03 7.573,8.04 c -1.994,0.144 -3.572,1.87 -3.572,3.968 0,0.727 0.201,1.403 0.531,1.992 H 5.733 A 3.057,3.057 0 0 1 5.001,12.008 c 0,-1.597 1.184,-2.866 2.644,-2.973 L 8.368,8.985 8.678,8.322 V 8.318 c 0.729,-1.58 2.213,-2.649 3.961,-2.65 2.368,0.002 4.292,1.952 4.405,4.447 v 0.01 l 0.05,0.776 0.704,0.296 a 1.944,1.944 0 0 1 1.195,1.815 C 19.003,14.126 18.147,15 17.122,15 H 3.999 v 1 h 13.122 c 1.591,0 2.877,-1.35 2.877,-2.988 A 2.958,2.958 0 0 0 18.193,10.277 L 18.056,10.219 18.046,10.07 C 17.911,7.077 15.56,4.67 12.642,4.668 Z M 4.001,17 v 1 h 16 v -1 z m 0,2 v 1 h 16 v -1 z"
     font-weight="400"
     overflow="visible"
     style="color:#000000;font-weight:400;line-height:normal;font-family:sans-serif;-inkscape-font-specification:sans-serif;text-indent:0;text-align:start;text-decoration:none;text-decoration-line:none;text-transform:none;overflow:visible;fill:#dfdfdf;marker:none;fill-opacity:1"
     id="path2"
     inkscape:connector-curvature="0" />
</svg>
