<?xml version="1.0" encoding="UTF-8" standalone="no"?>
<svg
   xmlns:dc="http://purl.org/dc/elements/1.1/"
   xmlns:cc="http://creativecommons.org/ns#"
   xmlns:rdf="http://www.w3.org/1999/02/22-rdf-syntax-ns#"
   xmlns:svg="http://www.w3.org/2000/svg"
   xmlns="http://www.w3.org/2000/svg"
   xmlns:sodipodi="http://sodipodi.sourceforge.net/DTD/sodipodi-0.dtd"
   xmlns:inkscape="http://www.inkscape.org/namespaces/inkscape"
   height="24"
   width="24"
   version="1.1"
   id="svg4"
   sodipodi:docname="weather-showers-scattered.svg"
   inkscape:version="0.92.3 (2405546, 2018-03-11)">
  <metadata
     id="metadata10">
    <rdf:RDF>
      <cc:Work
         rdf:about="">
        <dc:format>image/svg+xml</dc:format>
        <dc:type
           rdf:resource="http://purl.org/dc/dcmitype/StillImage" />
        <dc:title></dc:title>
      </cc:Work>
    </rdf:RDF>
  </metadata>
  <defs
     id="defs8" />
  <sodipodi:namedview
     pagecolor="#ffffff"
     bordercolor="#666666"
     borderopacity="1"
     objecttolerance="10"
     gridtolerance="10"
     guidetolerance="10"
     inkscape:pageopacity="0"
     inkscape:pageshadow="2"
     inkscape:window-width="640"
     inkscape:window-height="480"
     id="namedview6"
     showgrid="true"
     inkscape:zoom="12.904699"
     inkscape:cx="-1.5397734"
     inkscape:cy="4.6749334"
     inkscape:current-layer="svg4">
    <inkscape:grid
       type="xygrid"
       id="grid817" />
  </sodipodi:namedview>
  <path
     d="m 12.0055,18 a 2.502,2.502 0 0 1 -2.375,-3.286 c 0,-0.025 0.017,-0.051 0.023,-0.076 0.063,-0.21 0.998,-3.275 2.354,-6.023 V 8.62 c 1.448,3 2.368,6.094 2.368,6.094 A 2.502,2.502 0 0 1 12.0005,18 Z m 5.495,-5 a 1.5,1.5 0 0 1 -1.424,-1.97 c 0,-0.016 0.015,-0.031 0.015,-0.046 0.038,-0.127 0.599,-1.965 1.412,-3.613 v 0.002 c 0.868,1.8 1.42,3.656 1.42,3.656 a 1.5,1.5 0 0 1 -1.425,1.97 z m -11,0 a 1.5,1.5 0 0 1 -1.424,-1.97 c 0,-0.016 0.015,-0.032 0.015,-0.046 0.038,-0.127 0.599,-1.965 1.412,-3.613 v 0.002 c 0.868,1.8 1.42,3.656 1.42,3.656 a 1.5,1.5 0 0 1 -1.425,1.97 z"
     overflow="visible"
     style="color:#000000;overflow:visible;fill:#dfdfdf;marker:none;fill-opacity:1"
     id="path2"
     inkscape:connector-curvature="0" />
</svg>
