<?xml version="1.0" encoding="UTF-8" standalone="no"?>
<svg
   xmlns:dc="http://purl.org/dc/elements/1.1/"
   xmlns:cc="http://creativecommons.org/ns#"
   xmlns:rdf="http://www.w3.org/1999/02/22-rdf-syntax-ns#"
   xmlns:svg="http://www.w3.org/2000/svg"
   xmlns="http://www.w3.org/2000/svg"
   xmlns:sodipodi="http://sodipodi.sourceforge.net/DTD/sodipodi-0.dtd"
   xmlns:inkscape="http://www.inkscape.org/namespaces/inkscape"
   height="24"
   width="24"
   version="1.1"
   id="svg8"
   sodipodi:docname="weather-overcast.svg"
   inkscape:version="0.92.3 (2405546, 2018-03-11)">
  <metadata
     id="metadata14">
    <rdf:RDF>
      <cc:Work
         rdf:about="">
        <dc:format>image/svg+xml</dc:format>
        <dc:type
           rdf:resource="http://purl.org/dc/dcmitype/StillImage" />
        <dc:title></dc:title>
      </cc:Work>
    </rdf:RDF>
  </metadata>
  <defs
     id="defs12" />
  <sodipodi:namedview
     pagecolor="#ffffff"
     bordercolor="#666666"
     borderopacity="1"
     objecttolerance="10"
     gridtolerance="10"
     guidetolerance="10"
     inkscape:pageopacity="0"
     inkscape:pageshadow="2"
     inkscape:window-width="640"
     inkscape:window-height="480"
     id="namedview10"
     showgrid="true"
     inkscape:zoom="12.904699"
     inkscape:cx="-7.3854829"
     inkscape:cy="8.0487814"
     inkscape:current-layer="svg8">
    <inkscape:grid
       type="xygrid"
       id="grid821" />
  </sodipodi:namedview>
  <path
     inkscape:connector-curvature="0"
     id="path2"
     overflow="visible"
     font-weight="400"
     style="color:#000000;font-weight:400;line-height:normal;font-family:sans-serif;-inkscape-font-specification:sans-serif;text-indent:0;text-align:start;text-decoration:none;text-decoration-line:none;text-transform:none;overflow:visible;fill:#dfdfdf;marker:none;fill-opacity:1"
     d="m 13.389908,11.918 c -1.349,0.002 -2.494,0.832 -3.041001,2.02 l -0.04,0.08 -0.085,0.008 c -1.2469995,0.09 -2.2329995,1.168 -2.2329995,2.48 0,1.37 1.072,2.494 2.4000005,2.494 h 5.799999 c 0.995,0 1.8,-0.843 1.8,-1.867 a 1.85,1.85 0 0 0 -1.13,-1.71 l -0.086,-0.036 -0.01,-0.092 c -0.084,-1.87 -1.550999,-3.375 -3.373999,-3.377 z m 0,1 c 1.272,0.002 2.316,1.05 2.378,2.422 v 0.031 l 0.076,0.705 0.626999,0.268 c 0.305,0.13 0.52,0.413 0.52,0.789 0,0.5 -0.369999,0.867 -0.799,0.867 h -5.802999 c -0.7600005,0 -1.3980005,-0.645 -1.3980005,-1.494 0,-0.81 0.591,-1.432 1.3030005,-1.485 l 0.672,-0.046 0.289,-0.616 v -0.004 c 0.399,-0.866 1.193,-1.435 2.13,-1.437 z" />
  <path
     style="fill:#dfdfdf;fill-opacity:1"
     inkscape:connector-curvature="0"
     id="path4"
     d="m 13.490908,6 a 3.5,3.5 0 0 0 -3.166,2.018 3.5,3.5 0 0 0 -3.8030005,3.04 2,2 0 0 0 0.47,3.942 h 0.269 a 3.5,3.25 0 0 1 0.71,-1 h -0.982 c -0.564,0 -1,-0.436 -1,-1 a 0.99,0.99 0 0 1 0.766,-0.97 l 0.67,-0.163 0.088,-0.683 A 2.488,2.488 0 0 1 10.222908,9.012 l 0.705999,0.072 0.3,-0.643 A 2.496,2.496 0 0 1 13.488908,7 a 2.485,2.485 0 0 1 2.498,2.498 V 9.5 c 0,0.127 -0.012,0.253 -0.033,0.379 l -0.16,0.969 0.964999,0.18 a 1.489,1.489 0 0 1 1.229,1.472 c 0,0.84 -0.66,1.5 -1.5,1.5 h -0.497999 v 1 h 0.499999 a 2.5,2.5 0 0 0 0.453,-4.957 c 0.03,-0.18 0.045,-0.361 0.047,-0.543 A 3.5,3.5 0 0 0 13.489908,6 Z" />
</svg>
