<?xml version="1.0" encoding="UTF-8" standalone="no"?>
<svg
   xmlns:dc="http://purl.org/dc/elements/1.1/"
   xmlns:cc="http://creativecommons.org/ns#"
   xmlns:rdf="http://www.w3.org/1999/02/22-rdf-syntax-ns#"
   xmlns:svg="http://www.w3.org/2000/svg"
   xmlns="http://www.w3.org/2000/svg"
   xmlns:sodipodi="http://sodipodi.sourceforge.net/DTD/sodipodi-0.dtd"
   xmlns:inkscape="http://www.inkscape.org/namespaces/inkscape"
   height="24"
   width="24"
   version="1.1"
   id="svg4"
   sodipodi:docname="weather-few-clouds-night.svg"
   inkscape:version="0.92.3 (2405546, 2018-03-11)">
  <metadata
     id="metadata10">
    <rdf:RDF>
      <cc:Work
         rdf:about="">
        <dc:format>image/svg+xml</dc:format>
        <dc:type
           rdf:resource="http://purl.org/dc/dcmitype/StillImage" />
        <dc:title></dc:title>
      </cc:Work>
    </rdf:RDF>
  </metadata>
  <defs
     id="defs8" />
  <sodipodi:namedview
     pagecolor="#ffffff"
     bordercolor="#666666"
     borderopacity="1"
     objecttolerance="10"
     gridtolerance="10"
     guidetolerance="10"
     inkscape:pageopacity="0"
     inkscape:pageshadow="2"
     inkscape:window-width="640"
     inkscape:window-height="480"
     id="namedview6"
     showgrid="true"
     inkscape:zoom="18.25"
     inkscape:cx="-2.8908334"
     inkscape:cy="6.1630097"
     inkscape:current-layer="svg4">
    <inkscape:grid
       type="xygrid"
       id="grid817" />
  </sodipodi:namedview>
  <path
     d="m 12.284892,4.246 a 5.725,5.725 0 0 1 1.1,5.096 5.729,5.729 0 0 1 -7.0159993,4.05 5.728,5.728 0 0 1 -2.133,-1.099 6.507,6.507 0 0 0 4.56,4.484 c 0.089,0.024 0.177,0.037 0.265,0.057 0.067,-0.337 0.188,-0.655 0.35,-0.947 -0.119,-0.024 -0.237,-0.043 -0.354,-0.075 a 5.506,5.506 0 0 1 -2.395,-1.365 C 10.060892,15.058 13.441892,12.995 14.351892,9.602 V 9.6 a 6.708,6.708 0 0 0 0.1,-2.897 5.472,5.472 0 0 1 1.527,4.127 5.56,5.56 0 0 1 -0.18,1.09 c -0.01,0.036 -0.023,0.07 -0.033,0.105 0.343,0.022 0.673,0.083 0.99,0.18 0,-0.009 0.01,-0.018 0.01,-0.027 a 6.507,6.507 0 0 0 -4.48,-7.932 z m 3.203,8.754 a 3.5,3.5 0 0 0 -3.16,2.006 2.5,2.5 0 0 0 0.16,4.994 h 5.5 a 2,2 0 0 0 0.992,-3.734 3.5,3.5 0 0 0 -3.492,-3.266 z m 0,1 a 2.486,2.486 0 0 1 2.492,2.332 l 0.037,0.535 0.465,0.268 a 0.996,0.996 0 0 1 0.504,0.867 0.985,0.985 0 0 1 -1,0.998 h -5.5 c -0.84,0 -1.5,-0.66 -1.5,-1.5 0,-0.8 0.605,-1.445 1.404,-1.496 l 0.588,-0.037 0.252,-0.533 a 2.497,2.497 0 0 1 2.256,-1.434 z"
     overflow="visible"
     style="color:#000000;overflow:visible;fill:#dfdfdf;marker:none;fill-opacity:1"
     id="path2"
     inkscape:connector-curvature="0" />
</svg>
