<?xml version="1.0" encoding="UTF-8" standalone="no"?>
<svg
   xmlns:dc="http://purl.org/dc/elements/1.1/"
   xmlns:cc="http://creativecommons.org/ns#"
   xmlns:rdf="http://www.w3.org/1999/02/22-rdf-syntax-ns#"
   xmlns:svg="http://www.w3.org/2000/svg"
   xmlns="http://www.w3.org/2000/svg"
   xmlns:sodipodi="http://sodipodi.sourceforge.net/DTD/sodipodi-0.dtd"
   xmlns:inkscape="http://www.inkscape.org/namespaces/inkscape"
   height="24"
   width="24"
   version="1.1"
   id="svg4"
   sodipodi:docname="weather-windy.svg"
   inkscape:version="0.92.3 (2405546, 2018-03-11)">
  <metadata
     id="metadata10">
    <rdf:RDF>
      <cc:Work
         rdf:about="">
        <dc:format>image/svg+xml</dc:format>
        <dc:type
           rdf:resource="http://purl.org/dc/dcmitype/StillImage" />
        <dc:title></dc:title>
      </cc:Work>
    </rdf:RDF>
  </metadata>
  <defs
     id="defs8" />
  <sodipodi:namedview
     pagecolor="#ffffff"
     bordercolor="#666666"
     borderopacity="1"
     objecttolerance="10"
     gridtolerance="10"
     guidetolerance="10"
     inkscape:pageopacity="0"
     inkscape:pageshadow="2"
     inkscape:window-width="640"
     inkscape:window-height="480"
     id="namedview6"
     showgrid="true"
     inkscape:zoom="12.904699"
     inkscape:cx="-3.2900473"
     inkscape:cy="8.7418688"
     inkscape:current-layer="svg4">
    <inkscape:grid
       type="xygrid"
       id="grid817" />
  </sodipodi:namedview>
  <path
     d="m 17.404649,8.0005107 a 2.491,2.491 0 0 0 -1.816,0.89 c -0.46,0.514 0.34,1.1860003 0.766,0.643 a 1.495,1.495 0 0 1 1.822,-0.375 c 0.623,0.313 0.946,1.0070003 0.785,1.6860003 a 1.495,1.495 0 0 1 -1.459,1.154 H 5.4946485 c -0.822,0 -1.5,0.678 -1.5,1.5 a 1.508,1.508 0 0 0 1.51,1.502 h 9.0100005 c 0.235,0 0.432,0.155 0.487,0.383 a 0.495,0.495 0 0 1 -0.262,0.562 0.495,0.495 0 0 1 -0.608,-0.125 c -0.425,-0.542 -1.226,0.13 -0.765,0.643 a 1.499,1.499 0 0 0 1.822,0.377 c 0.619,-0.31 0.945,-1.014 0.785,-1.688 a 1.489,1.489 0 0 0 -1.293,-1.123 0.5,0.5 0 0 0 -0.174,-0.029 H 5.4966485 v -0.002 a 0.493,0.493 0 0 1 -0.5,-0.5 c 0,-0.282 0.218,-0.5 0.5,-0.5 H 17.504649 a 0.506,0.506 0 0 0 0.1,-0.008 2.502,2.502 0 0 0 2.334,-1.916 2.504,2.504 0 0 0 -1.31,-2.8100003 2.496,2.496 0 0 0 -1.221,-0.264 z m -4.705,0.01 a 1.497,1.497 0 0 0 -1.338,0.523 c -0.46,0.513 0.34,1.186 0.766,0.643 0.15,-0.18 0.398,-0.23 0.607,-0.125 0.21,0.105 0.316,0.334 0.262,0.562 a 0.495,0.495 0 0 1 -0.486,0.385 H 7.5006485 c -0.676,-0.01 -0.676,1.0100003 0,1.0000003 h 5.0100005 c 0.055,0 0.11,-0.009 0.162,-0.027 a 1.492,1.492 0 0 0 1.295,-1.1270003 1.503,1.503 0 0 0 -1.27,-1.834 z"
     font-weight="400"
     overflow="visible"
     style="color:#000000;font-weight:400;line-height:normal;font-family:sans-serif;font-variant-ligatures:normal;font-variant-position:normal;font-variant-caps:normal;font-variant-numeric:normal;font-variant-alternates:normal;font-feature-settings:normal;text-indent:0;text-align:start;text-decoration:none;text-decoration-line:none;text-decoration-style:solid;text-decoration-color:#000000;text-transform:none;text-orientation:mixed;white-space:normal;shape-padding:0;overflow:visible;isolation:auto;mix-blend-mode:normal;fill:#dfdfdf;fill-opacity:1"
     id="path2"
     inkscape:connector-curvature="0" />
</svg>
