<svg xmlns="http://www.w3.org/2000/svg" viewBox="0 0 22 22" version="1.1" id="svg7" width="22" height="22"><defs id="defs3"><style id="current-color-scheme" type="text/css">.ColorScheme-Text{color:#4d4d4d}</style></defs><path class="ColorScheme-Text" d="M6.092 6c.27 1.778.968 3.648 2.551 5.354-.72.906-1.629 1.787-2.804 2.646H2.997v1h1.326c-.498.299-1.026.596-1.607.89L3.31 17a21.61 21.61 0 0 0 3.24-2h12.446v-1H7.768c2.819-2.54 4.051-5.368 4.948-8h-1.358c-.512 1.503-1.103 2.932-1.986 4.309C8.107 8.892 7.515 7.512 7.286 6zm10.042 0c-1.173.025-2.072.218-2.727.498l.367 1.262c.314-.102 1.5-.46 2.195-.46h.096c.968.039 1.037.37 1.037 1.147v.307l-.506.078c-2.345.319-3.6.586-3.6 2.27 0 1.173.914 1.898 2.237 1.898.914 0 1.513-.357 2.127-.842l.191.715h1.446V8.154c0-1.44-1.063-2.154-2.7-2.154zm.968 3.75v1.568c-.504.32-.886.547-1.54.547-.587 0-.874-.343-.874-.828 0-.918.858-1.072 1.908-1.213z" id="path5" color="#4d4d4d" fill="#4d4d4d"/></svg>