<svg xmlns="http://www.w3.org/2000/svg" width="22" height="22" version="1.1" viewBox="0 0 22 22" id="svg7"><defs id="defs3"><style id="current-color-scheme" type="text/css">.ColorScheme-Text{color:#444}.ColorScheme-Highlight{color:#4285f4}</style></defs><path class="ColorScheme-Text" d="M3.64 3.002a.333.333 0 0 0-.25.52c.878 1.318 1.237 3.679 1.479 6.149H3.664v1.328H3v.667h.664v1.337h1.502c.14 1.537.315 2.955.673 4.035.194.585.441 1.078.798 1.435.357.357.841.558 1.385.522 1.368-.091 2.3-.927 2.89-2.046.59-1.119.892-2.531 1.123-3.938v-.008h.96v-1.337h2v1.337h1.63c.153 1.006.303 2.015.498 2.926.276 1.286.617 2.382 1.322 2.987a.333.333 0 0 0 .554-.243.333.333 0 0 0-.119-.264c-.46-.395-.837-1.378-1.103-2.619-.182-.849-.328-1.814-.475-2.787h1.027v-1.337h.667v-.667h-.667V9.671h-1.64c-.163-.634-.362-1.213-.618-1.699-.254-.48-.57-.878-.991-1.122-.42-.244-.938-.311-1.496-.172-.44.11-.771.43-1.01.833-.238.404-.403.903-.54 1.47-.053.218-.098.453-.143.69H9.664v1.328H6.997V9.671H5.554c-.225-2.507-.575-4.967-1.61-6.518a.333.333 0 0 0-.303-.151zm10.4 4.272c.278-.023.5.035.704.153.272.158.519.446.736.857.198.375.363.854.509 1.387h-.994v1.328h-2V9.671h-.426c.036-.181.07-.369.11-.534.13-.532.285-.978.467-1.287.182-.308.37-.468.598-.525a1.87 1.87 0 0 1 .297-.05zm-7.045 4.392h2.667v1.337h1.696c-.225 1.349-.524 2.665-1.035 3.635-.525.994-1.216 1.616-2.347 1.692a1.023 1.023 0 0 1-.869-.327c-.244-.245-.463-.647-.638-1.175-.318-.96-.494-2.326-.634-3.825h1.16z" id="path5" color="#444" fill="currentColor"/></svg>