<svg xmlns="http://www.w3.org/2000/svg" width="22" height="22" version="1.1" viewBox="0 0 22 22" id="svg7"><defs id="defs3"><style id="current-color-scheme" type="text/css">.ColorScheme-Text{color:#444}.ColorScheme-Highlight{color:#4285f4}</style></defs><path class="ColorScheme-Text" d="M3.328 3v.001a.333.333 0 0 0-.242.554c.605.705 1.7 1.046 2.986 1.322.911.195 1.92.345 2.926.497v1.63h1.338v2H8.998v.96h-.007c-1.407.232-2.82.533-3.939 1.123-1.119.59-1.954 1.523-2.045 2.891a1.764 1.764 0 0 0 .522 1.385c.357.357.85.604 1.435.798 1.08.358 2.498.533 4.034.673v1.502h1.338V19h.667v-.664h1.328V17.13c2.47.242 4.83.6 6.148 1.48a.333.333 0 1 0 .37-.555c-1.552-1.035-4.012-1.385-6.518-1.61v-1.443h-1.328v-2.667h1.328V10.11c.236-.045.472-.09.69-.143.566-.137 1.066-.302 1.47-.54.402-.239.723-.57.833-1.01.14-.558.072-1.075-.172-1.496-.244-.42-.643-.737-1.123-.991-.485-.256-1.064-.455-1.698-.619V3.67h-1.328v-.666h-.667v.667H8.998v1.027c-.973-.147-1.937-.293-2.786-.475-1.242-.266-2.224-.642-2.62-1.103A.333.333 0 0 0 3.329 3zm9.003 3.011c.533.146 1.012.311 1.387.51.41.216.7.463.857.735.158.272.208.575.101 1-.056.227-.216.416-.524.598-.309.182-.755.337-1.287.466-.166.04-.353.075-.534.11v-.425h-1.328v-2h1.328zm-3.333 4.63v1.697h1.338v2.667H8.998v1.16c-1.499-.14-2.864-.316-3.824-.634-.528-.175-.93-.394-1.175-.638a1.023 1.023 0 0 1-.327-.869c.075-1.13.697-1.822 1.692-2.347.97-.511 2.286-.81 3.634-1.035z" id="path5" color="#444" fill="currentColor"/></svg>