<svg xmlns="http://www.w3.org/2000/svg" width="22" height="22" version="1.1"><path d="M9 3l-1 .25V4h1zm0 1v1H8V4h-.006c-1.258.015-2.179-.03-2.932.385-.376.207-.675.56-.84.998C4.058 5.821 4 6.343 4 7v8c0 .658.058 1.179.223 1.617.164.439.463.789.84.996.752.416 1.673.372 2.931.387H13v-1H8c-1.26-.015-2.087-.06-2.453-.262-.184-.1-.29-.212-.387-.472C5.063 16.006 5 15.592 5 15v-5c0-.592.063-1.006.16-1.266.098-.26.203-.371.387-.472.367-.203 1.195-.247 2.459-.262H14c1.26.015 2.087.06 2.453.262.184.1.29.212.387.472.097.26.16 1.266.16 1.266v3h1V7c0-.658-.06-1.179-.225-1.617a1.88 1.88 0 0 0-.837-.998c-.753-.416-1.674-.37-2.932-.385H14v1h-1V4zm4 0h1V3l-1 .25zm3 10v2h-2v1h2v2h1v-2h2v-1h-2v-2z" font-weight="400" overflow="visible" font-family="sans-serif" fill="#4d4d4d"/></svg>