<svg xmlns="http://www.w3.org/2000/svg" height="22" version="1.1" width="22"><g display="inline" font-style="normal" font-variant="normal" font-weight="400" font-stretch="normal" font-size="15" font-family="Ubuntu" letter-spacing="0" word-spacing="0" writing-mode="lr-tb" text-anchor="middle" fill-opacity="1" stroke="none" stroke-width=".25"><path d="M11.001 4a1 1 0 0 0-1 1 1 1 0 0 0 .01.139A3.99 3.99 0 0 0 7.017 9.33v3.236c0 .36-.034.69-.102.989a1.843 1.843 0 0 1-.357.761 1.549 1.549 0 0 1-.662.5c-.272.12-.611.177-1.018.18V15h12.244v-.004c-.407-.003-.746-.06-1.018-.18a1.549 1.549 0 0 1-.662-.5 1.84 1.84 0 0 1-.355-.761 4.461 4.461 0 0 1-.102-.989v-3.25c.01-.105.015-.21.016-.316a3.99 3.99 0 0 0-3.012-3.861A1 1 0 0 0 12.001 5a1 1 0 0 0-1-1zm0 2a3 3 0 0 1 3 3v5h-6V9a3 3 0 0 1 3-3zm-3.908 8.717l-.016.02.006-.012c.002-.003.008-.004.01-.008zm7.816 0c.002.003.008.004.01.008.003.003.004.008.006.011zM9.001 16a2.023 2.023 0 0 0 4.047 0z" style="line-height:125%;-inkscape-font-specification:Ubuntu;text-align:center" fill="#4d4d4d"/><path d="M10.991 10.989l.01.009c.002.004.004.01.007.013z" style="line-height:125%;-inkscape-font-specification:Ubuntu;text-align:center" fill="#000"/><path d="M11.009 10.988l-.018.024.008-.014.01-.01z" style="line-height:125%;-inkscape-font-specification:Ubuntu;text-align:center" fill="#000"/></g></svg>