<svg xmlns="http://www.w3.org/2000/svg" width="22" height="22" version="1.1"><path d="M17.414 4.071a.502.502 0 0 0-.343.15l-.487.487a1.5 1.5 0 0 0-1.72.307L13.217 6.66l-.94-.94a.5.5 0 1 0-.706.708l.94.94-6.147 6.146c-.356.342-.51.828-.44 1.299v.554l-1.853 1.854.707.707 1.853-1.854h.545c.474.073.964-.08 1.309-.44L14.63 9.49l.94.94c.47.49 1.197-.236.707-.707l-.94-.94 1.647-1.646a1.5 1.5 0 0 0 .304-1.719l.489-.488a.5.5 0 0 0-.364-.858zm-4.093 3.9l.707.708-3.397 3.396H9.217z" fill="#4d4d4d" fill-opacity="1"/></svg>