<svg xmlns="http://www.w3.org/2000/svg" xmlns:xlink="http://www.w3.org/1999/xlink" viewBox="0 0 22 22" version="1.1" id="svg33" width="22" height="22"><defs id="defs22"><linearGradient id="linearGradient854"><stop stop-color="#f34f17" id="stop850" stop-opacity="1"/><stop stop-color="#f34f17" offset="1" id="stop852" stop-opacity="0"/></linearGradient><style id="current-color-scheme" type="text/css">.ColorScheme-Text{color:#4d4d4d}</style><linearGradient id="linearGradient4300-8"><stop id="stop4302-5" stop-color="#f27935"/><stop id="stop4304-7" offset="1" stop-color="#f2784b"/></linearGradient><linearGradient id="linearGradient4357" x2="0" y1="61" y2="47" gradientUnits="userSpaceOnUse" xlink:href="#linearGradient4351"/><linearGradient id="linearGradient4410"><stop id="stop4412" stop-color="#383e51"/><stop id="stop4414" offset="1" stop-color="#655c6f" stop-opacity="0"/></linearGradient><linearGradient id="linearGradient4427" x1="54" x2="40" y1="31" y2="17" gradientTransform="matrix(1 0 0 -1 -14 78)" gradientUnits="userSpaceOnUse" xlink:href="#linearGradient4410"/><linearGradient id="linearGradient4306" x2="0" y1="61" y2="3" gradientUnits="userSpaceOnUse" xlink:href="#linearGradient4300-8"/><linearGradient id="linearGradient4351"><stop id="stop4353" stop-color="#f7ab89"/><stop id="stop4355" offset="1" stop-color="#f9bda3"/></linearGradient><linearGradient id="linearGradient3444" x1="54" x2="40" y1="31" y2="17" gradientTransform="matrix(1 0 0 -1 503.93 656.7)" gradientUnits="userSpaceOnUse" xlink:href="#linearGradient4410"/><linearGradient id="linearGradient3447" x2="0" y1="61" y2="47" gradientTransform="translate(517.93 578.7)" gradientUnits="userSpaceOnUse" xlink:href="#linearGradient4351"/><linearGradient id="linearGradient3452" x2="0" y1="61" y2="3" gradientTransform="translate(517.93 578.7)" gradientUnits="userSpaceOnUse" xlink:href="#linearGradient4300-8"/><linearGradient id="linearGradient4164" x1="3" x2="19" y1="1049.36" y2="1033.36" gradientTransform="matrix(.75 0 0 .75 2.75 -770.02)" gradientUnits="userSpaceOnUse" xlink:href="#linearGradient854"/><linearGradient id="linearGradient4172-7"><stop id="stop4174-2" stop-color="#1d99f3"/><stop id="stop4176-0" offset="1" stop-color="#cae7fc"/></linearGradient></defs><g id="g31"><g id="g29"><g id="layer1-3"><g id="g36"><path id="path24" d="M16 4v1H5v11H4v2h2v-1h11V6h1V4z" fill="url(#linearGradient4164)" fill-opacity="1"/><path id="path26" d="M15 3v3.293l-2 2-3.182 3.182L6.293 15H3v4h4v-3.293l3.525-3.525L13.707 9l2-2H19V3zm1 1h2v2h-2zM4 16h2v2H4z" class="ColorScheme-Text" color="#4d4d4d" fill="#4d4d4d"/></g></g></g></g></svg>