<svg xmlns="http://www.w3.org/2000/svg" width="22" height="22" version="1.1"><path d="M15.565 17.918a2.389 2.389 0 0 1-.562-.247c-.14-.09-1.836-1.748-3.77-3.683L7.72 10.47h-.487c-.892 0-1.72-.367-2.35-1.041a3.088 3.088 0 0 1-.8-1.604c-.07-.451-.04-1.17.06-1.434l.062-.162.967.96c.533.53 1.023.99 1.091 1.024.17.087.5.078.682-.017.083-.043.384-.316.667-.606.396-.405.524-.574.554-.732.08-.425.02-.516-1.057-1.605-.663-.669-.988-1.034-.936-1.052C6.397 4.122 7.046 4 7.237 4c.382 0 1.029.164 1.438.364.75.366 1.328 1.027 1.643 1.873.119.32.142.483.148 1.04l.006.66 3.553 3.56c2.29 2.293 3.592 3.638 3.664 3.783.36.733.221 1.566-.36 2.146a1.784 1.784 0 0 1-.967.52c-.367.077-.414.075-.797-.028zm.85-.755c.248-.069.57-.407.667-.7.211-.64-.302-1.324-.992-1.324-.898 0-1.392 1.017-.823 1.693.278.33.707.454 1.149.331zm-12.182.513c-.186-.189-.257-.3-.226-.351.026-.042.406-.623.844-1.29l.798-1.215.442-.074.443-.073L7.618 13.6 8.7 12.526l.35.35.351.35-1.04 1.04-1.04 1.041-.115.49-.114.49-1.236.829c-.68.456-1.262.83-1.294.832-.032.002-.18-.12-.33-.272zm9.446-7.656l-.222-.228 1.897-1.898c1.881-1.881 2.017-2.044 1.827-2.19-.238-.185-.222-.199-2.206 1.783l-1.918 1.915-.25-.254-.25-.255 1.897-1.9c1.043-1.045 1.897-1.943 1.897-1.996 0-.125-.197-.322-.322-.322-.054 0-.953.855-1.998 1.9l-1.9 1.9-.225-.228-.225-.23 1.9-1.888c1.751-1.742 1.923-1.898 2.224-2.009.41-.151.682-.152 1.086 0 .424.158.705.423.893.842.128.286.15.405.132.69a1.83 1.83 0 0 1-.145.598c-.086.177-.69.819-1.997 2.125l-1.873 1.872z" fill="#4d4d4d" stroke-width=".933"/></svg>