<svg xmlns="http://www.w3.org/2000/svg" viewBox="0 0 22 22" version="1.1" id="svg9" width="22" height="22"><defs id="defs3"><style id="current-color-scheme" type="text/css">.ColorScheme-Text{color:#4d4d4d}.ColorScheme-Highlight{color:#f34f17}</style></defs><g id="g17"><path id="path5" d="M16.781 6.563l-3.843 4.187.75.688L17.53 7.25c-.141-.135-.473-.423-.75-.688zm-9.562.062l-.75.688 3.808 4.101.754-.695zm4.281 7.813v2.124h1v-2.125c-.397.005-.705.001-1 0z" class="ColorScheme-Text" color="#4d4d4d" fill="currentColor" transform="translate(-1 -1)"/><path id="path826" d="M5.5 4A1.5 1.5 0 0 0 4 5.5 1.5 1.5 0 0 0 5.5 7 1.5 1.5 0 0 0 7 5.5 1.5 1.5 0 0 0 5.5 4z" fill="#4d4d4d" fill-opacity="1" transform="translate(-1 -1)"/><path id="path824" d="M18.5 4A1.5 1.5 0 0 0 17 5.5 1.5 1.5 0 0 0 18.5 7 1.5 1.5 0 0 0 20 5.5 1.5 1.5 0 0 0 18.5 4z" fill="#4d4d4d" fill-opacity="1" transform="translate(-1 -1)"/><path id="path822" d="M12 11a1.5 1.5 0 0 0-1.5 1.5A1.5 1.5 0 0 0 12 14a1.5 1.5 0 0 0 1.5-1.5A1.5 1.5 0 0 0 12 11z" fill="#4d4d4d" fill-opacity="1" transform="translate(-1 -1)"/><path id="path7" d="M12 17a1.5 1.5 0 0 0-1.5 1.5A1.5 1.5 0 0 0 12 20a1.5 1.5 0 0 0 1.5-1.5A1.5 1.5 0 0 0 12 17z" fill="#4d4d4d" fill-opacity="1" transform="translate(-1 -1)"/></g></svg>