<svg xmlns="http://www.w3.org/2000/svg" height="22" width="22" version="1.1"><g fill="#4d4d4d" fill-opacity="1"><path d="M10.963 3.998a1.499 1.499 0 0 0-1.277.785l-6.502 12A1.5 1.5 0 0 0 4.5 19h13a1.5 1.5 0 0 0 1.316-2.217l-6.498-12a1.496 1.496 0 0 0-1.355-.785zm.025 1a.494.494 0 0 1 .451.262l6.499 12c.203.374-.017.74-.438.74h-13c-.422 0-.64-.366-.437-.74l6.501-12a.493.493 0 0 1 .424-.262z" style="line-height:normal;font-variant-ligatures:normal;font-variant-position:normal;font-variant-caps:normal;font-variant-numeric:normal;font-variant-alternates:normal;font-feature-settings:normal;text-indent:0;text-align:start;text-decoration-line:none;text-decoration-style:solid;text-decoration-color:#000;text-transform:none;text-orientation:mixed;shape-padding:0;isolation:auto;mix-blend-mode:normal" text-decoration="none"/><path d="M10.293 7v2.662c0 .793.03 1.517.086 2.168.057.642.128 1.284.213 1.926h.82c.085-.642.157-1.284.213-1.926.057-.651.086-1.375.086-2.168V7zM11.003 15a1 1 0 0 0-1 1c0 .282.118.535.306.717.17.189.4.283.693.283.293 0 .524-.094.694-.283a.994.994 0 0 0 .306-.717 1 1 0 0 0-1-1z" style="line-height:normal;font-variant-ligatures:normal;font-variant-position:normal;font-variant-caps:normal;font-variant-numeric:normal;font-variant-alternates:normal;font-feature-settings:normal;text-indent:0;text-align:start;text-decoration-line:none;text-decoration-style:solid;text-decoration-color:#000;text-transform:none;text-orientation:mixed;shape-padding:0;isolation:auto;mix-blend-mode:normal" text-decoration="none"/></g></svg>