<svg xmlns="http://www.w3.org/2000/svg" width="22" height="22" version="1.1" viewBox="0 0 22 22" id="svg7"><defs id="defs3"><style id="current-color-scheme" type="text/css">.ColorScheme-Text{color:#444}.ColorScheme-Highlight{color:#4285f4}</style></defs><path class="ColorScheme-Text" d="M3.326 2.998a.333.333 0 0 0-.242.553c.604.706 1.7 1.047 2.987 1.322.911.196 1.92.346 2.927.498v1.631h1.338v2.001H8.998v.96l-.008.001c-1.407.231-2.82.533-3.94 1.123-1.119.59-1.955 1.523-2.046 2.892a1.765 1.765 0 0 0 .523 1.385c.357.357.85.604 1.435.799 1.08.358 2.5.533 4.036.673v1.502h1.338v.665h.667v-.664h1.328v-1.2c2.47.242 4.832.595 6.15 1.474a.333.333 0 0 0 .37-.555c-.726-.485-1.663-.812-2.7-1.054H19v-.667h-6.669v-1.332h-1.328v-2.668h1.328v-1.334H19v-.667h-6.669v-.227c.237-.045.473-.09.69-.143.567-.137 1.067-.303 1.47-.54.404-.24.724-.571.834-1.01.14-.559.072-1.076-.172-1.497-.245-.421-.643-.738-1.123-.992a5.893 5.893 0 0 0-.595-.259H19v-.667h-6.669V3.668h-1.328v-.667h-.667v.667H8.998v1.028c-.973-.148-1.939-.293-2.788-.475-1.242-.266-2.225-.643-2.62-1.104a.333.333 0 0 0-.264-.12zm14.007 2.67L16.31 7.002H17v2.001h-.667l1 1.333 1.001-1.333h-.667v-2h.646zm0 5.335l-1.022 1.334H17v2.668h-.667l1 1.332 1.001-1.332h-.667v-2.668h.646zM12.33 6.008c.533.146 1.013.311 1.388.51.41.216.7.464.857.735.158.272.208.576.102 1.001-.057.227-.217.416-.525.598-.309.182-.755.338-1.287.466-.166.04-.353.075-.535.111v-.426h-1.328v-2h1.328zm-3.333 4.633v1.696h1.338v2.668H8.998v1.16c-1.5-.14-2.865-.315-3.826-.634-.528-.176-.93-.394-1.175-.638a1.023 1.023 0 0 1-.327-.87c.075-1.13.697-1.823 1.692-2.347.97-.511 2.287-.81 3.636-1.035z" id="path5" color="#444" fill="currentColor"/></svg>