<svg xmlns="http://www.w3.org/2000/svg" viewBox="0 0 22 22" version="1.1" id="svg9" width="22" height="22"><defs id="defs3"><style id="current-color-scheme" type="text/css">.ColorScheme-Text{color:#4d4d4d}.ColorScheme-Highlight{color:#f34f17}</style></defs><g id="g17"><path id="path5" d="M8.688 5.611l-5 4 .624.78 5-4zm1.697.07l-.77.64 5 6 .77-.64zm9.199.042l-4 6 .832.554 4-6zM3 10.998v7h1v-7zm1 7v1h6v-1zm10.61-5.309l-4 5 .78.624 4-5zm1.78 0l-.78.624 4 5 .78-.624z" class="ColorScheme-Text" color="#4d4d4d" fill="currentColor" transform="translate(-1 -1)"/><path id="path7" d="M9.5 4A1.5 1.5 0 0 0 8 5.5 1.5 1.5 0 0 0 9.5 7 1.5 1.5 0 0 0 11 5.5 1.5 1.5 0 0 0 9.5 4zm11 0A1.5 1.5 0 0 0 19 5.5 1.5 1.5 0 0 0 20.5 7 1.5 1.5 0 0 0 22 5.5 1.5 1.5 0 0 0 20.5 4zm-17 5A1.5 1.5 0 0 0 2 10.5 1.5 1.5 0 0 0 3.5 12 1.5 1.5 0 0 0 5 10.5 1.5 1.5 0 0 0 3.5 9zm12 2a1.5 1.5 0 0 0-1.5 1.5 1.5 1.5 0 0 0 1.5 1.5 1.5 1.5 0 0 0 1.5-1.5 1.5 1.5 0 0 0-1.5-1.5zm-12 6A1.5 1.5 0 0 0 2 18.5 1.5 1.5 0 0 0 3.5 20 1.5 1.5 0 0 0 5 18.5 1.5 1.5 0 0 0 3.5 17zm7 0A1.5 1.5 0 0 0 9 18.5a1.5 1.5 0 0 0 1.5 1.5 1.5 1.5 0 0 0 1.5-1.5 1.5 1.5 0 0 0-1.5-1.5zm10 0a1.5 1.5 0 0 0-1.5 1.5 1.5 1.5 0 0 0 1.5 1.5 1.5 1.5 0 0 0 1.5-1.5 1.5 1.5 0 0 0-1.5-1.5z" class="ColorScheme-Highlight" color="#f34f17" fill="currentColor" transform="translate(-1 -1)"/></g></svg>