<svg xmlns="http://www.w3.org/2000/svg" width="22" height="22" version="1.1" viewBox="0 0 22 22" id="svg7"><defs id="defs3"><style id="current-color-scheme" type="text/css">.ColorScheme-Text{color:#444}.ColorScheme-Highlight{color:#4285f4}</style></defs><path class="ColorScheme-Text" d="M5.003 3v6.668H3.671v1.33h-.667v.667h.667v1.337h1.027c-.147.973-.293 1.938-.475 2.787-.266 1.242-.642 2.225-1.103 2.62a.333.333 0 0 0-.12.265.333.333 0 0 0 .554.242c.705-.605 1.046-1.701 1.321-2.988.196-.911.346-1.92.498-2.926h1.63v-1.337h2v1.337h.96l.002.008c.23 1.407.532 2.819 1.122 3.938.59 1.12 1.523 1.956 2.891 2.047a1.764 1.764 0 0 0 1.385-.522c.357-.357.604-.85.798-1.435.359-1.08.533-2.499.673-4.036h1.502v-1.337H19v-.667h-.664v-1.33h-1.211c.069-.74.146-1.47.25-2.168a.333.333 0 0 0-.373-.39V3h-.666v6.668h-1.333v1.33h-2.667v-1.33h-1.333V3.001h-.667v6.667h-.227c-.045-.236-.09-.472-.143-.69-.137-.566-.302-1.065-.54-1.469-.239-.403-.57-.723-1.01-.833-.558-.14-1.075-.073-1.496.172-.42.244-.737.642-.991 1.122a5.945 5.945 0 0 0-.26.595V3.001zm.667 1.668l1.333 1.02v-.687h2v.667l1.333-1-1.332-1v.666h-2v-.646zm5.333 0l1.333 1.02v-.687h2.667v.667l1.333-1-1.333-1v.666h-2.667v-.646zM7.958 7.272c.092.008.19.024.297.05.227.058.415.217.598.526.182.308.337.754.466 1.286.04.166.075.353.11.534h-.425v1.33h-2v-1.33H6.01c.145-.533.31-1.012.508-1.387.217-.41.464-.699.736-.857.204-.118.425-.175.703-.152zm4.378 4.393h2.667v1.337h1.16c-.139 1.5-.315 2.866-.634 3.826-.175.528-.393.929-.638 1.174a1.024 1.024 0 0 1-.868.328c-1.13-.076-1.823-.697-2.347-1.692-.511-.97-.81-2.287-1.035-3.636h1.695z" id="path5" color="#444" fill="currentColor"/></svg>