<svg xmlns="http://www.w3.org/2000/svg" viewBox="0 0 22 22" version="1.1" id="svg7" width="22" height="22"><defs id="defs3"><style id="current-color-scheme" type="text/css">.ColorScheme-Text{color:#4d4d4d}</style></defs><path class="ColorScheme-Text" d="M6.021 3.43l-3 2 3 2zm4 0v4l3-2zM6.137 8.459c-1.173.025-2.074.216-2.729.496l.37 1.264c.313-.102 1.5-.46 2.195-.46h.095c.969.039 1.036.37 1.036 1.147v.307l-.504.076c-2.346.319-3.6.587-3.6 2.27 0 1.173.914 1.9 2.236 1.9.914 0 1.514-.357 2.127-.842l.192.713H9v-4.717C9 9.173 7.935 8.46 6.299 8.46zM12.264 10c0 1.899 1.34 3.47 2.35 4.436-1.2 1.217-2.678 1.766-5.382 2.23L9.51 18c6.027-1.034 8.722-4.825 8.722-8h-1.476c0 .924-.467 2.706-1.266 3.393-.816-.774-1.8-1.969-2.037-3.372zm-5.16 2.207v1.568c-.505.32-.887.55-1.542.55-.586 0-.873-.346-.873-.83 0-.919.86-1.072 1.91-1.212z" id="path5" color="#4d4d4d" fill="currentColor"/></svg>