<svg xmlns="http://www.w3.org/2000/svg" viewBox="0 0 22 22" version="1.1" id="svg7" width="22" height="22"><defs id="defs3"><style id="current-color-scheme" type="text/css">.ColorScheme-Text{color:#4d4d4d}</style></defs><g id="g823" color="#4d4d4d" fill="currentColor"><g id="g827"><path d="M3.021.43l-3 2 3 2z" id="path822" transform="rotate(90 6.726 12.704)"/><path d="M7.021.43v4l3-2z" id="path820" transform="rotate(90 6.726 12.704)"/></g><path id="path818" d="M6.137 0C4.964.025 4.063.216 3.408.496l.37 1.264c.313-.102 1.5-.46 2.195-.46h.095c.969.039 1.036.37 1.036 1.147v.307L6.6 2.83C4.254 3.15 3 3.417 3 5.1 3 6.273 3.914 7 5.236 7c.914 0 1.514-.357 2.127-.842l.192.713H9V2.154C9 .714 7.935 0 6.299 0zm.967 3.748v1.568c-.505.32-.887.55-1.542.55-.586 0-.873-.346-.873-.83 0-.919.86-1.072 1.91-1.212z" transform="translate(3 3)"/><path id="path816" d="M3.031 8c0 1.899 1.341 3.47 2.35 4.436-1.199 1.217-2.677 1.766-5.381 2.23L.277 16C6.305 14.966 9 11.175 9 8H7.523c0 .924-.466 2.706-1.265 3.393-.816-.774-1.8-1.969-2.037-3.372z" transform="translate(3 3)"/></g></svg>