<svg xmlns="http://www.w3.org/2000/svg" width="22" height="22" version="1.1"><path d="M6.994 4c-1.258.015-2.179-.029-2.932.387a1.878 1.878 0 0 0-.84.996C3.058 5.821 3 6.343 3 7v8c0 .658.058 1.179.223 1.617.164.439.463.79.84.998.526.29 1.188.342 1.937.36v-1.014c-.666-.032-1.204-.085-1.453-.223-.184-.1-.29-.212-.387-.472C4.063 16.006 4 15.592 4 15V7c0-.592.063-1.006.16-1.266.098-.26.203-.371.387-.472.367-.203 1.195-.247 2.459-.262h2.53l2.02 2h3.436c1.264.015 2.092.06 2.46.262.183.1.288.212.386.472.098.26.162.674.162 1.266v6c0 .592-.063 1.006-.16 1.266-.098.26-.203.371-.387.472-.104.057-.273.093-.453.127V8H7v11h10v-1.088c.34-.053.654-.14.937-.297a1.88 1.88 0 0 0 .838-.998c.165-.438.225-.96.225-1.617V9c0-.658-.06-1.179-.225-1.617a1.88 1.88 0 0 0-.837-.998c-.753-.416-1.674-.37-2.932-.385h-3.039L9.945 4H6.996zM8 9h8v9H8zm1.008 1v1h6.012v-1zm0 2v1h6.012v-1zM9 14v1h3v-1z" font-weight="400" overflow="visible" color="#000" font-family="sans-serif" fill="#4d4d4d"/></svg>