<svg xmlns="http://www.w3.org/2000/svg" width="22" height="22" version="1.1"><path d="M10.475 4c-1.978 0-3.77.769-5.11 2.018L4.34 4.992a34.471 34.471 0 0 0-.646 1.983A41.553 41.553 0 0 0 3.163 9c.669-.15 1.345-.325 2.03-.523.69-.203 1.349-.421 1.975-.655L6.075 6.727A6.466 6.466 0 0 1 10.475 5c3.594 0 6.5 2.906 6.5 6.5s-2.906 6.5-6.5 6.5A6.49 6.49 0 0 1 4 12H3a7.488 7.488 0 0 0 7.475 7c4.147 0 7.5-3.353 7.5-7.5S14.622 4 10.475 4zm-.5 3v5.207l2.396 2.397.708-.708-2.104-2.103V7zm6.1 10.97l.027.036-.014-.022-.013-.013zm-12.21.005c-.003.005-.01.009-.013.013l-.014.022z" font-size="15" font-weight="400" letter-spacing="0" word-spacing="0" font-family="Ubuntu" text-anchor="middle" fill="#4d4d4d"/></svg>