<svg xmlns="http://www.w3.org/2000/svg" width="22" height="22" version="1.1"><path d="M6 3v4.025c-.75.018-1.41.07-1.938.36a1.88 1.88 0 0 0-.837.998C3.06 8.821 3 9.343 3 10v3c0 .658.06 1.179.225 1.617.164.439.461.79.838.998.282.156.599.234.937.287v-1.025a1.627 1.627 0 0 1-.455-.139c-.183-.1-.287-.212-.385-.472C4.063 14.006 4 13.592 4 13v-3c0-.592.063-1.006.16-1.266.098-.26.202-.371.385-.472C4.911 8.06 5.741 8.015 7 8h8c1.259.015 2.087.06 2.453.262.184.1.29.212.387.472.097.26.16.674.16 1.266v3c0 .592-.063 1.006-.16 1.266-.098.26-.203.371-.387.472a1.58 1.58 0 0 1-.453.139v1.025c.338-.053.655-.131.938-.287a1.88 1.88 0 0 0 .837-.998c.165-.438.225-.96.225-1.617v-3c0-.658-.06-1.179-.225-1.617a1.88 1.88 0 0 0-.838-.998c-.526-.29-1.188-.342-1.937-.36V3zm1 1h8v3H7zm9.5 5a.5.5 0 0 0-.5.5.5.5 0 0 0 .5.5.5.5 0 0 0 .5-.5.5.5 0 0 0-.5-.5zM6 13v6h10v-6h-1v5H7v-5zm2 1v1h6v-1zm0 2v1h6v-1z" font-weight="400" overflow="visible" font-family="sans-serif" fill="#4d4d4d"/></svg>