<svg xmlns="http://www.w3.org/2000/svg" width="22" height="22" version="1.1"><g fill="#4d4d4d"><path d="M7 8v1h8V8zM7 6v1h8V6zM9 12l.402 1H10v-1zM8 10l.488 1H15v-1z" color="#000"/><path d="M4 3v2h1V4h12v10h-4v5h.75L18 14.75V3zm0 4v12h.004V7z" color="#000"/><path d="M4.495 5.992a.5.5 0 0 0-.018.002.5.5 0 0 0-.049.004.5.5 0 0 0-.017.004.5.5 0 0 0-.022.004.5.5 0 0 0-.011.002.5.5 0 0 0-.03.01.5.5 0 0 0-.035.013.5.5 0 0 0-.015.006.5.5 0 0 0-.014.006.5.5 0 0 0-.027.016.5.5 0 0 0-.016.007.5.5 0 0 0-.027.018.5.5 0 0 0-.04.031.5.5 0 0 0-.068.072.5.5 0 0 0-.03.042.5.5 0 0 0-.073.318V19h8.37L4.959 6.287a.5.5 0 0 0-.332-.277.5.5 0 0 0-.05-.01.5.5 0 0 0-.048-.006.5.5 0 0 0-.033-.002zm.508 2.358L10.632 18h-5.63z"/></g></svg>