<svg xmlns="http://www.w3.org/2000/svg" width="22" height="22" version="1.1"><path d="M18 6.5C18 5.125 16.875 4 15.5 4A2.508 2.508 0 0 0 13 6.5C13 7.875 14.125 9 15.5 9S18 7.875 18 6.5zm0 10c0-1.375-1.125-2.5-2.5-2.5a2.508 2.508 0 0 0-2.5 2.5c0 1.375 1.125 2.5 2.5 2.5s2.5-1.125 2.5-2.5zm-1-10c0 .834-.666 1.5-1.5 1.5S14 7.334 14 6.5 14.666 5 15.5 5s1.5.666 1.5 1.5zm0 10c0 .834-.666 1.5-1.5 1.5s-1.5-.666-1.5-1.5.666-1.5 1.5-1.5 1.5.666 1.5 1.5zm-4.266-7.89a3.495 3.495 0 0 1-.494-.872L8.387 9.881A2.487 2.487 0 0 0 6.5 9 2.508 2.508 0 0 0 4 11.5C4 12.875 5.125 14 6.5 14c.755 0 1.427-.347 1.887-.88l3.853 2.142c.122-.316.29-.606.494-.871l-3.86-2.145A2.52 2.52 0 0 0 9 11.5c0-.261-.052-.509-.127-.746zM8 11.5c0 .834-.666 1.5-1.5 1.5S5 12.334 5 11.5 5.666 10 6.5 10s1.5.666 1.5 1.5z" font-weight="400" overflow="visible" color="#000" font-family="sans-serif" fill="#4d4d4d"/></svg>