<svg xmlns="http://www.w3.org/2000/svg" viewBox="0 0 22 22" version="1.1" id="svg7" width="22" height="22"><defs id="defs3"><style id="current-color-scheme" type="text/css">.ColorScheme-Text{color:#4d4d4d}</style></defs><g id="g12" fill-opacity="1"><path id="path1425" d="M8.337 17.147c-.096-.045-.722-.648-1.916-1.846-1.532-1.538-1.779-1.8-1.817-1.932-.1-.34-.416.004 4.708-5.119 5.124-5.124 4.78-4.807 5.12-4.708.133.038.485.377 2.817 2.71 2.332 2.33 2.67 2.684 2.71 2.816.098.338.327.083-3.817 4.234-2.602 2.607-3.816 3.799-3.914 3.845-.134.063-.258.067-1.946.067-1.687 0-1.811-.004-1.945-.067zm4.283-1.93l.857-.857-2.169-2.169-2.168-2.168-1.597 1.597-1.597 1.598 1.427 1.427 1.428 1.428h2.963z" fill="#4d4d4d" stroke-width=".036" transform="translate(-2)"/><path id="path818" d="M4 18v1h18v-1z" fill="#f34f17" stroke="none" stroke-width="1.061" stroke-linecap="butt" stroke-linejoin="miter" stroke-opacity="1" transform="translate(-2)"/></g></svg>