<svg xmlns="http://www.w3.org/2000/svg" width="22" height="22" viewBox="0 0 5.821 5.821" version="1.1"><path style="line-height:normal;font-variant-ligatures:normal;font-variant-position:normal;font-variant-caps:normal;font-variant-numeric:normal;font-variant-alternates:normal;font-feature-settings:normal;text-indent:0;text-align:start;text-decoration-line:none;text-decoration-style:solid;text-decoration-color:#000;text-transform:none;text-orientation:mixed;shape-padding:0;isolation:auto;mix-blend-mode:normal" d="M2.72.794c-.782.204-1.177.453-1.502.709-.325.256-.426.494-.418.77-.008.214-.008.214 0 .635.043.24.268.402.551.436.64.025 2.19-.835 3.25-.444.15.06.27.136.356.219a1.48 1.48 0 0 1-.213.2l-.003.003-.004.002c-.616.561-2.545 1.018-2.979.852.05.475.076.58.124.85 1.062.021 2.025-.291 2.701-.905.357-.282.444-.576.444-.787v-.635c-.068-.265-.332-.511-.642-.635-1.295-.515-2.08.551-3.303.43a.588.588 0 0 1-.177-.049c.042-.044.09-.09.15-.137.29-.228 1.447-.537 1.846-.67-.059-.298-.1-.465-.182-.844z" color="#000" font-style="normal" font-variant="normal" font-weight="400" font-stretch="normal" font-size="medium" font-family="sans-serif" text-decoration="none" letter-spacing="normal" word-spacing="normal" writing-mode="lr-tb" direction="ltr" dominant-baseline="auto" baseline-shift="baseline" text-anchor="start" white-space="normal" clip-rule="nonzero" display="inline" overflow="visible" visibility="visible" opacity="1" color-interpolation="sRGB" color-interpolation-filters="linearRGB" solid-color="#000" solid-opacity="1" vector-effect="none" fill="#4d4d4d" fill-opacity="1" fill-rule="nonzero" stroke="none" stroke-width=".27" stroke-linecap="butt" stroke-linejoin="miter" stroke-miterlimit="4" stroke-dashoffset="0" stroke-opacity="1" color-rendering="auto" image-rendering="auto" shape-rendering="auto" text-rendering="auto"/></svg>