<svg xmlns="http://www.w3.org/2000/svg" viewBox="0 0 22 22" version="1.1" id="svg7" width="22" height="22"><defs id="defs3"><style id="current-color-scheme" type="text/css">.ColorScheme-Text{color:#4d4d4d}</style></defs><path class="ColorScheme-Text" d="M10.5 22c.7-.467.007 0 .738-.484L19 16.092V6.95c-1.085-.745-.21-.143-.708-.496L11.356 1.59c-.846-.591-.008 0-.856-.589-7.578 5.28-5.717 3.98-7.91 5.516-.596.458-.11.094-.59.465v9.112l.531.371 7.231 5.052.384.248c.267.18-1.156-.785.354.236zm.472-1.507v-7.686l.06-.093.206-.124 6.818-4.772v7.717zm-.944 0l-7.084-4.958V7.973l7.084 4.958zm.354-8.522L3.476 7.136 10.5 2.21l6.936 4.834-6.73 4.71z" id="path5-3" color="#4d4d4d" fill="#4d4d4d" stroke-width=".963"/></svg>