<svg xmlns="http://www.w3.org/2000/svg" viewBox="0 0 22 22" version="1.1" id="svg7" width="22" height="22"><defs id="defs3"><style id="current-color-scheme" type="text/css">.ColorScheme-Text{color:#4d4d4d}</style></defs><path class="ColorScheme-Text" d="M18.513 3.008a2 9 45 0 0-7.445 5.097 2 9 45 0 0-3.543 4.114 3.471 3.471 0 0 1 2.258 2.257 2 9 45 0 0 4.113-3.543 2 9 45 0 0 4.95-7.777 2 9 45 0 0-.333-.148zM7 13.664C3 14.736 6 17.268 3 19c4.003 0 6-2.001 6-3.336 0-.665.067-1.89-2-2z" id="path5" color="#4d4d4d" fill="#4d4d4d"/></svg>