<svg width="22" height="22" version="1.1" viewBox="0 0 22 22" xmlns="http://www.w3.org/2000/svg"><defs><style id="current-color-scheme" type="text/css">.ColorScheme-Text{color:#4d4d4d}</style></defs><path class="ColorScheme-Text" d="M11.037 3.002c-4.098.095-7.505 3.582-7.404 7.723.019.793.173 1.557.431 2.275l1.123-.367a6.062 6.062 0 0 1-.377-1.908c-.109-3.503 2.765-6.459 6.227-6.56 3.65-.108 6.725 2.917 6.824 6.56.105 3.828-3.038 7.052-6.824 7.15-3.173.083-5.94-2.008-6.973-4.875L3 13.348c1.171 3.389 4.459 5.725 8.037 5.65 4.4-.092 8.058-3.83 7.96-8.273-.093-4.271-3.687-7.822-7.96-7.723zm-5.85 9.631c.88 2.389 3.199 4.125 5.85 4.035 3.123-.106 5.711-2.78 5.596-5.943-.108-2.962-2.622-5.416-5.596-5.297-2.767.11-5.058 2.49-4.936 5.297a4.76 4.76 0 0 0 .334 1.502l1.397-.455a3.318 3.318 0 0 1-.266-1.047c-.147-2.022 1.49-3.752 3.471-3.877 2.22-.14 4.11 1.677 4.23 3.877.133 2.429-1.842 4.494-4.23 4.611-2.078.102-3.887-1.249-4.602-3.11zm2.645-.861c.528 1.256 1.783 2.153 3.205 2.027 1.531-.135 2.793-1.5 2.621-3.074-.14-1.29-1.301-2.356-2.621-2.162-1.01.148-1.857 1.108-1.627 2.162.036.163.107.322.2.467l1.427-.467c.695 0 .433.82 0 1.011-.558.247-1.124-.07-1.428-.544z" color="#4d4d4d" fill="#4d4d4d"/></svg>