<svg width="22" height="22" version="1.1" viewBox="0 0 22 22" xmlns="http://www.w3.org/2000/svg"><defs><style id="current-color-scheme" type="text/css">.ColorScheme-Text{color:#4d4d4d}</style></defs><path class="ColorScheme-Text" d="M7 3v2.5C7 6.331 6.331 7 5.5 7H3v8h2.5c.831 0 1.5.669 1.5 1.5V19h8v-2.5c0-.831.669-1.5 1.5-1.5H19V7h-2.5c-.831 0-1.5-.669-1.5-1.5V3H8zm1 1h6v1.5C14 6.885 15.115 8 16.5 8H18v6h-1.5a2.495 2.495 0 0 0-2.5 2.5V18H8v-1.5C8 15.115 6.885 14 5.5 14H4V8h1.5C6.885 8 8 6.885 8 5.5z" color="#4d4d4d" fill="#4d4d4d"/></svg>