<svg xmlns="http://www.w3.org/2000/svg" width="22" height="22" version="1.1"><g font-size="33.109" font-weight="500" letter-spacing="0" word-spacing="0" font-family="Ubuntu" text-anchor="middle" fill="#4d4d4d" stroke-width="1.023"><path d="M9.715 4l-.004.002c-.052 0-.12.005-.204.014a1.702 1.78 0 0 0-.282.056.604.632 0 0 0-.223.108.357.373 0 0 0-.117.158.427.447 0 0 0-.035.2c.003.074.021.151.037.237.352 2.056.678 4.12 1.006 6.18l.802-3.128zM11 9.015l-.873 3.406.036.23 1.29 2.165.626 2.443c.084.33.206.616.367.861.16.245.35.44.565.584.217.144.458.236.724.275.26.041.532.021.817-.058.284-.08.53-.206.736-.377a1.817 1.9 0 0 0 .487-.615 2.25 2.25 0 0 0 .218-.803 2.91 2.91 0 0 0-.093-.938 2.593 2.712 0 0 0-.367-.853 2.069 2.164 0 0 0-.572-.582 1.805 1.888 0 0 0-.721-.267 1.86 1.945 0 0 0-.81.056c-.205.064-.402.163-.637.14a.497.52 0 0 1-.225-.08.562.588 0 0 1-.16-.187 1.583 1.656 0 0 1-.102-.3zm0 2.485a.502.525 0 0 1 .501.524.502.525 0 0 1-.501.525.502.525 0 0 1-.502-.525A.502.525 0 0 1 11 11.5zm2.866 3.84a.849.888 0 0 1 .588.204c.228.192.396.495.502.91.107.418.108.773.004 1.064a.87.91 0 0 1-.622.567c-.305.085-.572.03-.802-.168-.235-.196-.406-.503-.513-.923-.106-.414-.104-.764.007-1.05a.864.864 0 0 1 .614-.566 1.06 1.06 0 0 1 .222-.038z"/><path d="M12.285 4v.002h-.001l-.31 1.2h.002l-2.283 8.911a1.587 1.66 0 0 1-.102.301.562.588 0 0 1-.16.187.491.514 0 0 1-.225.08c-.234.023-.432-.077-.638-.14a1.86 1.945 0 0 0-.809-.056 1.804 1.887 0 0 0-.72.267 2.069 2.164 0 0 0-.574.582c-.159.24-.281.524-.365.853a2.662 2.784 0 0 0-.094.938c.028.298.1.565.219.803a1.817 1.9 0 0 0 .487.615c.206.171.45.297.735.376.285.08.557.1.817.06.266-.04.507-.132.724-.277a2 2 0 0 0 .564-.583 2.82 2.82 0 0 0 .368-.86l.626-2.444 1.29-2.166c.458-2.618.789-5.262 1.272-7.875.015-.085.032-.163.035-.237a.492.515 0 0 0-.033-.2.359.375 0 0 0-.118-.158.602.63 0 0 0-.224-.106 1.723 1.802 0 0 0-.283-.056 2.717 2.842 0 0 0-.195-.015zM11 11.5a.502.525 0 0 1 .501.524.502.525 0 0 1-.501.525.502.525 0 0 1-.502-.525A.502.525 0 0 1 11 11.5zm-2.867 3.84c.072.004.145.017.222.038a.864.864 0 0 1 .614.565c.11.287.114.637.007 1.051-.107.42-.278.727-.513.923a.823.823 0 0 1-.802.168.87.91 0 0 1-.622-.567c-.105-.29-.103-.646.004-1.065.106-.414.274-.717.502-.91a.849.888 0 0 1 .588-.203z"/></g></svg>