<svg xmlns="http://www.w3.org/2000/svg" width="22" height="22" version="1.1"><path d="M10 3c-1.099 0-2 .902-2 2H7v.025c-.75.019-1.41.071-1.938.362a1.878 1.878 0 0 0-.84.996C4.058 6.821 4 7.343 4 8v7c0 .658.058 1.179.223 1.617.164.439.463.79.84.998.527.291 1.182.342 1.937.36V19h10V8h-1c0-.658-.06-1.179-.225-1.617a1.875 1.875 0 0 0-.837-.996c-.527-.291-1.189-.343-1.938-.362V5h-1c0-1.098-.901-2-2-2zm0 1c.558 0 1 .442 1 1a.99.99 0 0 1-1 1 .982.982 0 0 1-.922-.61A1.007 1.007 0 0 1 9 5c0-.558.442-1 1-1zM7 6.04V7h6v-.96c.666.031 1.204.084 1.453.222.184.1.29.212.387.472.097.26.16.674.16 1.266H7v8.96c-.672-.03-1.204-.084-1.453-.222-.184-.1-.29-.212-.387-.472C5.063 16.006 5 15.592 5 15V8c0-.592.063-1.006.16-1.266.098-.26.202-.371.385-.472.249-.138.788-.191 1.455-.223zM8 9h8v9H8zm1.008 1v1h6.012v-1zm0 2v1h6.012v-1zM9 14v1h3v-1z" font-weight="400" overflow="visible" color="#000" font-family="sans-serif" fill="#4d4d4d"/></svg>