<svg xmlns="http://www.w3.org/2000/svg" width="22" height="22" version="1.1"><g fill="#4d4d4d"><path d="M7 4v1h1V4zm2 0v1h1V4zm-3 .025c-.736.019-1.388.07-1.908.348l.777.777c.269-.064.668-.097 1.131-.119zM3.373 5.068a2.068 2.068 0 0 0-.148.315C3.06 5.82 3 6.343 3 7h1c0-.535.055-.906.137-1.168zM3 8v1h1V8zm0 2v1h1v-1zM14 4v1h-1V4zm-2 0v1h-1V4zm3 .025c.736.019 1.388.07 1.908.348l-.777.777c-.269-.064-.668-.097-1.131-.119zm2.627 1.043c.057.099.107.204.148.315.165.438.225.96.225 1.617h-1c0-.535-.055-.906-.137-1.168zM18 8v1h-1V8zm0 2v1h-1v-1zM7 19v-1h1v1zm2 0v-1h1v1zm-3-.025c-.736-.019-1.388-.07-1.908-.348l.777-.777c.269.064.668.097 1.131.119zm-2.627-1.043a2.068 2.068 0 0 1-.148-.315C3.06 17.18 3 16.657 3 16h1c0 .535.055.906.137 1.168zM3 15v-1h1v1zm0-2v-1h1v1zM14 19v-1h-1v1zm-2 0v-1h-1v1zm3-.025c.736-.019 1.388-.07 1.908-.348l-.777-.777c-.269.064-.668.097-1.131.119zm2.627-1.043c.057-.099.107-.204.148-.315.165-.438.225-.96.225-1.617h-1c0 .535-.055.906-.137 1.168zM18 15v-1h-1v1zm0-2v-1h-1v1z"/></g><path d="M9 7l-4 4h7l4-4zm0 5l-4 4h7l4-4z" class="ColorScheme-Text" fill="#4d4d4d" stroke-width="1"/></svg>