<svg xmlns="http://www.w3.org/2000/svg" width="22" height="22" version="1.1"><path d="M16.776 3c-.598-.019-1.225.288-1.5.742l-1.727 3.696a1.565 1.565 0 0 0-.133.279l-1.47-.792c-.18.672-.028 1.034-.264 1.759l-.275-.149a.428.428 0 0 0-.565.143l-.302.492a.377.377 0 0 0 .151.533l.036.02C8.807 9.883 6.378 13.47 3 15.024c2.709 2.642 6.702 4.029 8.503 3.974 2.22-2.133 2.861-5.655 2.63-7.426l.509.276a.428.428 0 0 0 .565-.143l.303-.492a.376.376 0 0 0-.152-.532l-.25-.136c.504-.478 1.076-.608 1.584-1.065l-1.524-.82c.063-.072.122-.15.174-.236l2.451-3.256c.367-.605.26-1.698-.441-2.033a1.44 1.44 0 0 0-.575-.135zm-.094.699a.537.505 0 0 1 .514.375.537.505 0 0 1-.38.618.537.505 0 0 1-.658-.357.537.505 0 0 1 .38-.619.537.505 0 0 1 .144-.02z" fill="#4d4d4d" fill-opacity="1" fill-rule="evenodd" stroke-width="1"/></svg>