<svg xmlns="http://www.w3.org/2000/svg" width="22" height="22" version="1.1"><path d="M15.238 4l-.353.36-8.969 9.095-.03.045c-.061.099-.27.45-.583 1.088-.314.638-.7 1.51-1.012 2.492L4 18l.92-.291a18.163 18.163 0 0 0 2.492-1.012c.638-.314.987-.52 1.088-.584l.045-.029L18 6.762zM15 12v1h3v-1zm-8.11 1.89l1.22 1.22-.178.175c.007-.005-.379.227-.961.514-.214.105-.536.222-.834.338l-.274-.274c.116-.298.233-.62.338-.834.287-.582.518-.966.514-.96zM13 14v1h5v-1zm-2 2v1h7v-1z" font-size="15" font-weight="400" letter-spacing="0" word-spacing="0" font-family="Ubuntu" text-anchor="middle" fill="#4d4d4d"/></svg>