<svg xmlns="http://www.w3.org/2000/svg" width="22" height="22" version="1.1"><path d="M10.5 3c-1.1 0-2.145.32-2.145.32L8 3.428V5.11A13.88 13.88 0 0 0 5.002 6L5 7H4v1h1l.004 9c0 .439.04.788.15 1.082.111.294.311.528.563.668.503.28 1.12.25 1.953.25h5.664c.833 0 1.45.03 1.953-.25.252-.14.45-.374.56-.668.11-.294.153-.643.153-1.082l-.002-8h-1L15 17c0 .376-.04.603-.088.729-.034.09-.078.129-.11.146-.173.097-.611.125-1.468.125H7.67c-.857 0-1.295-.028-1.469-.125a.267.267 0 0 1-.113-.146v-.002c-.046-.122-.084-.348-.084-.727v-.002L6 8h11V7h-1.002L16 6a13.855 13.855 0 0 0-3-.89V3.45l-.33-.12S11.757 3 10.5 3zm0 1c.89 0 1.29.155 1.5.22v.739a14.05 14.05 0 0 0-1.498-.084c-.502 0-1.003.032-1.502.086v-.734c.266-.07.772-.227 1.5-.227zM8 9v6h1V9zm2 0v6h1V9zm2 0v6h1V9z" font-size="15" font-weight="400" letter-spacing="0" word-spacing="0" font-family="Ubuntu" text-anchor="middle" fill="#4d4d4d"/></svg>