<svg width="22" height="22" version="1.1" viewBox="0 0 22 22" xmlns="http://www.w3.org/2000/svg"><defs><style id="current-color-scheme" type="text/css">.ColorScheme-Text{color:#4d4d4d}.ColorScheme-Highlight{color:#f34f17}</style></defs><g fill="currentColor"><path class="ColorScheme-Text" d="M3 3v7h8V3zm1 1h6v5H4zm8 .078v3.92h1V5.355A6 6 0 0 1 17 11h1a7 7 0 0 0-6-6.922zM4 11a7 7 0 0 0 6 6.922v-3.924H9v2.647A6 6 0 0 1 5 11z" color="#4d4d4d"/><path class="ColorScheme-Highlight" d="M13 12l-2 2v1.414l1.5-1.5V18h1v-4.086l1.5 1.5V14l-1.793-1.793zm3.5 1v4.086l-1.5-1.5V17l2 2 2-2v-1.414l-1.5 1.5V13z" color="#f34f17"/></g></svg>