<svg xmlns="http://www.w3.org/2000/svg" width="22" height="22" version="1.1"><g font-weight="400" font-family="sans-serif" fill="#4d4d4d"><path d="M6.994 4c-1.258.015-2.179-.029-2.932.387a1.878 1.878 0 0 0-.84.996C3.059 5.82 3 6.343 3 7v8c0 .658.058 1.179.223 1.617.164.439.463.79.84.998.752.416 1.673.37 2.931.385H13v-1H7c-1.26-.015-2.087-.06-2.453-.262-.183-.1-.29-.212-.387-.472C4.063 16.006 4 15.592 4 15v-4c0-.592.064-1.006.162-1.266s.203-.371.387-.472c.367-.203 1.195-.247 2.459-.262h3.435l2.022-2h2.527c1.264.015 2.092.06 2.46.262.183.1.288.212.386.472.098.26.162.674.162 1.266v4h1V9c0-.658-.058-1.179-.223-1.617-.02-.055-.048-.104-.074-.154l-.027-.057a1.838 1.838 0 0 0-.738-.787c-.753-.416-1.674-.37-2.932-.385h-3.039L9.945 4H6.996zm.012 1h2.53L11.3 6.746 10.033 8H6.994c-1.258.014-2.179-.03-2.932.385-.022.012-.04.03-.062.043V7c0-.592.062-1.006.16-1.266s.203-.371.387-.472c.366-.203 1.195-.247 2.459-.262z" overflow="visible"/><path d="M16 14v2h-2v1h2v2h1v-2h2v-1h-2v-2z" overflow="visible"/></g></svg>