<svg width="22" height="22" version="1.1" viewBox="0 0 22 22" xmlns="http://www.w3.org/2000/svg">
<defs>
<style id="current-color-scheme" type="text/css">.ColorScheme-Text { color:#4d4d4d; }</style>
</defs>
<path class="ColorScheme-Text" d="m8.2168 3-5.2168 14h1.6875l1.668-4.4297h5.5625l0.14844 0.42969h1.666l-3.5215-10zm1.0156 1.6113 2.1289 6.6738h-4.4883zm4.7676 8.3887v6h3c1.108 0 2-0.892 2-2 0-0.81094-0.48126-1.5019-1.1719-1.8164 0.10595-0.20585 0.17188-0.43528 0.17188-0.68359 0-0.831-0.669-1.5-1.5-1.5h-1.5zm1 1h1.5c0.277 0 0.5 0.223 0.5 0.5s-0.223 0.5-0.5 0.5h-1.5zm0 2h2c0.554 0 1 0.446 1 1s-0.446 1-1 1h-2z" color="#4d4d4d" fill="currentColor"/>
</svg>
