<svg width="22" height="22" version="1.1" viewBox="0 0 22 22" xmlns="http://www.w3.org/2000/svg"><defs><style id="current-color-scheme" type="text/css">.ColorScheme-Text{color:#4d4d4d}.ColorScheme-NegativeText{color:#da4453}</style></defs><g fill="currentColor"><path class="ColorScheme-Text" d="M15.5 3.002c-1.933 0-3.5 1.791-3.5 4v3c0 2.21 1.567 4 3.5 4s3.5-1.79 3.5-4v-3c0-2.209-1.567-4-3.5-4zm0 1c1.38 0 2.5 1.343 2.5 3v3c0 1.657-1.12 3-2.5 3s-2.5-1.343-2.5-3v-3c0-1.657 1.12-3 2.5-3z" color="#4d4d4d" fill-opacity=".5"/><path class="ColorScheme-Text" d="M7.5 3.002c-1.933 0-3.5 1.791-3.5 4v3c0 2.21 1.567 4 3.5 4s3.5-1.79 3.5-4v-3c0-2.209-1.567-4-3.5-4zm0 1c1.38 0 2.5 1.343 2.5 3v3c0 1.657-1.12 3-2.5 3s-2.5-1.343-2.5-3v-3c0-1.657 1.12-3 2.5-3zm-5.5 9v1h1v-1z" color="#4d4d4d"/><path class="ColorScheme-NegativeText" d="M14.086 15.002l-.707.707 1.414 1.414-1.414 1.414.707.707L15.5 17.83l1.414 1.414.707-.707-1.414-1.414 1.414-1.414-.707-.707-1.414 1.414z" color="#da4453"/></g></svg>