<svg width="22" height="22" version="1.1" viewBox="0 0 22 22" xmlns="http://www.w3.org/2000/svg"><defs><style id="current-color-scheme" type="text/css">.ColorScheme-Text{color:#4d4d4d}.ColorScheme-Highlight{color:#f34f17}</style></defs><g fill="currentColor"><path class="ColorScheme-Text" d="M16 3v1H5.912c.057.16.087.33.088.5 0 .17-.03.34-.088.5H16v1h3V3zm1 1h1v1h-1zM4 5.912V16H3v3h3v-3H5V5.912A1.5 1.5 0 0 1 4.5 6a1.5 1.5 0 0 1-.5-.088zM4 17h1v1H4z" color="#4d4d4d"/><path class="ColorScheme-Highlight" d="M4.5 3A1.5 1.5 0 0 0 3 4.5 1.5 1.5 0 0 0 4.5 6 1.5 1.5 0 0 0 6 4.5 1.5 1.5 0 0 0 4.5 3zm0 1a.5.5 0 0 1 .5.5.5.5 0 0 1-.5.5.5.5 0 0 1-.5-.5.5.5 0 0 1 .5-.5z" color="#f34f17"/></g></svg>