<svg width="22" height="22" version="1.1" viewBox="0 0 22 22" xmlns="http://www.w3.org/2000/svg">
<defs>
<style id="current-color-scheme" type="text/css">.ColorScheme-Text { color:#4d4d4d; } .ColorScheme-Highlight { color:#f34f17; }</style>
</defs>
<g transform="translate(-1.6543)" fill="currentColor">
<path class="ColorScheme-Text" d="m5.8281 8-4.1738 12h1.0078l1.4961-4h5.207l1.4902 4h1.1445l-4.2305-12zm7.1719 0v12h6a3.5 3.5 0 0 0 3.5-3.5 3.5 3.5 0 0 0-2.4336-3.3301 3 3 0 0 0 0.93359-2.1699 3 3 0 0 0-3-3h-4zm1 1h4a2 2 0 0 1 2 2 2 2 0 0 1-2 2h-4zm-7.2324 0.029297 2.2246 5.9707h-4.459zm7.2324 4.9707h5a2.5 2.5 0 0 1 2.5 2.5 2.5 2.5 0 0 1-2.5 2.5h-5z" color="#4d4d4d"/>
<path class="ColorScheme-Highlight" d="m17 3-3 4h6z" color="#f34f17"/>
</g>
</svg>
