<svg width="22" height="22" version="1.1" viewBox="0 0 22 22" xmlns="http://www.w3.org/2000/svg">
<defs>
<style id="current-color-scheme" type="text/css">.ColorScheme-Text { color:#4d4d4d; } .ColorScheme-Highlight { color:#f34f17; }</style>
</defs>
<g transform="translate(-1)" fill="currentColor">
<path class="ColorScheme-Text" d="m6.0352 8-4.0352 12h0.97461l1.4453-4h5.0332l1.4414 4h1.1055l-4.0898-12zm6.9648 0v12h1v-1.3613a4 4 0 0 0 3 1.3613 4 4 0 0 0 4-4 4 4 0 0 0-4-4 4 4 0 0 0-3 1.3613v-5.3613zm-6.0566 1.0293 2.1484 5.9707h-4.3086zm10.057 3.9707a3 3 0 0 1 3 3 3 3 0 0 1-3 3 3 3 0 0 1-3-3 3 3 0 0 1 3-3z" color="#4d4d4d"/>
<path class="ColorScheme-Highlight" d="m7 3-3 4h6z" color="#f34f17"/>
</g>
</svg>
