<svg width="22" height="22" version="1.1" viewBox="0 0 22 22" xmlns="http://www.w3.org/2000/svg"><defs><style id="current-color-scheme" type="text/css">.ColorScheme-Text{color:#4d4d4d}</style></defs><path class="ColorScheme-Text" d="M4.5 3A1.497 1.497 0 0 0 4 5.908V16H3v3h3v-1h7v-1H6v-1H5V5.908c.424-.15.757-.485.908-.908H16v1h1v7h1V6h1V3h-3v1H5.908c-.206-.582-.754-1-1.408-1zm0 1a.499.499 0 1 1 0 1 .499.499 0 1 1 0-1zM17 4h1v1h-1zm-1 10v2h-2v1h2v2h1v-2h2v-1h-2v-2zM4 17h1v1H4z" color="#4d4d4d" fill="currentColor"/></svg>