<svg width="22" height="22" version="1.1" viewBox="0 0 22 22" xmlns="http://www.w3.org/2000/svg"><defs><style id="current-color-scheme" type="text/css">.ColorScheme-Text{color:#4d4d4d}</style></defs><path class="ColorScheme-Text" d="M16.48 3.223l-12 15.998.57.427.356.274.004-.004.11.082 12-16-.47-.352-.457-.351-.004.008zM6.5 4.609a3.5 3.5 0 1 0 0 7 3.5 3.5 0 0 0 0-7zm0 1a2.5 2.5 0 1 1 0 5 2.5 2.5 0 0 1 0-5zm9 7a3.5 3.5 0 1 0 0 7 3.5 3.5 0 0 0 0-7zm0 1a2.5 2.5 0 1 1 0 5 2.5 2.5 0 0 1 0-5z" color="#4d4d4d" fill="currentColor"/></svg>