<svg width="22" height="22" version="1.1" xmlns="http://www.w3.org/2000/svg">
<path d="m19 9h-1.49c-0.525 0.4-1.063 0.836-1.625 1.22-0.71 0.487-1.437 0.944-2.18 1.372a39.31 39.31 0 0 1-2.502 1.285l-0.203 0.096-0.203-0.096a39.208 39.208 0 0 1-2.502-1.285 32.841 32.841 0 0 1-2.18-1.371c-0.562-0.385-1.1-0.821-1.625-1.221h-1.49c0.874 0.69 1.757 1.397 2.656 2.008 1 0.68 1.972 1.288 2.912 1.826 0.868 0.496 1.774 0.87 2.432 1.166 0.658-0.297 1.564-0.67 2.432-1.166a44.797 44.797 0 0 0 2.912-1.826c0.9-0.61 1.782-1.317 2.656-2.008zm-7 8a1 1 0 0 0-1-1 1 1 0 0 0-1 1 1 1 0 0 0 1 1 1 1 0 0 0 1-1z" fill="#4d4d4d"/>
</svg>
