<svg xmlns="http://www.w3.org/2000/svg" width="22" height="22" version="1.1"><g fill="#4d4d4d"><path d="M17.009 9V7h-2.002z" overflow="visible"/><path d="M5.009 11v8h9v-1h-8v-7.667zm11.002-1l-.002 9h1v-8z" font-size="15" font-weight="400" letter-spacing="0" word-spacing="0" font-family="Ubuntu" text-anchor="middle"/><path d="M11.009 12.986a8.47 8.47 0 0 1 .607-.122 5.24 5.24 0 0 1 .872-.064c.295 0 .54.043.735.129.195.08.35.197.465.35.119.147.202.326.25.535.047.21.071.44.071.693V18.2h-3z" font-weight="400" letter-spacing="0" word-spacing="0" font-family="Ubuntu" text-anchor="end"/><path d="M11.009 4.293l-7.854 7.853.708.708 7.146-7.147 7.146 7.147.708-.708z" font-weight="400" overflow="visible" font-family="sans-serif" fill-rule="evenodd"/></g></svg>