<svg xmlns="http://www.w3.org/2000/svg" width="22" height="22" version="1.1"><path d="M13 3c-.69.874-1.397 1.757-2.008 2.656-.679 1-1.287 1.972-1.825 2.912C8.67 9.436 8.297 10.342 8 11c.297.658.67 1.564 1.167 2.432a45.19 45.19 0 0 0 1.825 2.912c.61.9 1.317 1.782 2.008 2.656v-1.49c-.4-.524-.837-1.062-1.222-1.625a32.845 32.845 0 0 1-1.37-2.18 39.196 39.196 0 0 1-1.285-2.5v-.001L9.027 11l.096-.203c.334-.71.852-1.747 1.285-2.501a33.18 33.18 0 0 1 1.37-2.181c.385-.562.822-1.1 1.222-1.625z" fill="#4d4d4d"/></svg>