<svg xmlns="http://www.w3.org/2000/svg" width="22" height="22" version="1.1"><path d="M19 14c-.874-.69-1.757-1.397-2.656-2.008-1-.679-1.972-1.287-2.912-1.825C12.564 9.67 11.658 9.297 11 9c-.658.297-1.564.67-2.432 1.167a44.819 44.819 0 0 0-2.912 1.825c-.9.61-1.782 1.317-2.656 2.008h1.49c.524-.4 1.062-.837 1.625-1.222.71-.486 1.437-.942 2.18-1.37a39.201 39.201 0 0 1 2.5-1.285h.001l.204-.096.203.096c.71.334 1.747.852 2.501 1.285.744.428 1.47.884 2.181 1.37.562.385 1.1.822 1.625 1.222z" fill="#4d4d4d"/></svg>