<svg xmlns="http://www.w3.org/2000/svg" width="22" height="22" version="1.1"><g stroke-width="1" fill="#4d4d4d"><path d="M18.02 19H8.023v-5l9.997 4z"/><path d="M7.998 4.01v10H3l3.999-10z" opacity=".5"/><path d="M10.013 4.992c1.487 0 2.57-.02 3.405.031.835.051 1.484.17 1.937.625.453.456.574 1.1.625 1.938.05.839.03 1.943.03 3.437h-.999c0-1.508.014-2.615-.031-3.375-.045-.759-.171-1.107-.344-1.28-.172-.174-.526-.299-1.28-.345-.755-.045-1.842-.03-3.343-.03z"/><path d="M15.526 12.992l-2.507-3h4.998"/></g></svg>