<svg xmlns="http://www.w3.org/2000/svg" width="22" height="22" version="1.1"><g fill="#4d4d4d"><path d="M16.908 4.306l-3.304 3.307c.732.273 1.5.527 2.306.764.8.231 1.592.436 2.375.612a48.514 48.514 0 0 0-.62-2.366 40.298 40.298 0 0 0-.757-2.316z" overflow="visible" color="#000"/><path d="M15.755 14.655l-.072.084.75.66.091-.103.04-.05.48-.72-.832-.554zm-1.11 1.108l-.34.226.555.832.368-.244.05-.039.422-.37-.658-.75zm-1.353.78l-.676.23.322.947.717-.246.06-.024.218-.11-.442-.896zM10.966 17l.066.996.801-.053-.066-.998z" font-weight="400" overflow="visible" color="#000" font-family="sans-serif"/><path d="M11 9a2 2 0 0 1 2 2 2 2 0 0 1-2 2 2 2 0 0 1-2-2 2 2 0 0 1 2-2zm0 1a1 1 0 0 0-1 1 1 1 0 0 0 1 1 1 1 0 0 0 1-1 1 1 0 0 0-1-1z"/><path d="M10.573 4.013a6.981 6.981 0 0 0-2.347.558 7.005 7.005 0 0 0-4.082 7.844A7.005 7.005 0 0 0 11 18h.5v-1H11a5.996 5.996 0 0 1-5.877-4.787 5.995 5.995 0 0 1 3.5-6.723 5.995 5.995 0 0 1 7.291 2.07l.287.41.82-.575-.287-.41a7.006 7.006 0 0 0-6.16-2.97z" font-weight="400" overflow="visible" color="#000" font-family="sans-serif"/></g></svg>