<svg xmlns="http://www.w3.org/2000/svg" viewBox="0 0 22 22" version="1.1" id="svg7" width="22" height="22"><defs id="defs3"><style id="current-color-scheme" type="text/css">.ColorScheme-Text{color:#4d4d4d}</style></defs><g id="g821"><path id="path828" d="M4 3L1 5h11l3-2z" fill="#4d4d4d" fill-opacity="1" transform="translate(2 2)"/><path id="path826" d="M4 7L1 9h11l3-2z" fill="#4d4d4d" fill-opacity="1" transform="translate(2 2)"/><path id="path7" d="M10.98 10l-.99.99L12 13l-2.01 2.01.99.99 2.01-2.01L15 16l.99-.99L13.98 13l2.01-2.01L15 10l-2.01 2.01z" class="ColorScheme-NegativeText" color="#da4453" fill="#4d4d4d" fill-opacity="1" transform="translate(2 2)"/><path id="path830" d="M4 11l-3 2h9l-2-2zm10.99 0l-.02.02c.01-.004.014-.013.02-.02z" fill="#4d4d4d" fill-opacity="1" transform="translate(2 2)"/></g></svg>