<svg width="22" height="22" version="1.1" viewBox="0 0 22 22" xmlns="http://www.w3.org/2000/svg"><defs><style id="current-color-scheme" type="text/css">.ColorScheme-Text{color:#4d4d4d}</style></defs><g fill="currentColor"><path class="ColorScheme-Text" d="M7.799 3.77c-.84.052-1.809.315-2.967.894l-.336.168.168.336c.728 1.455.893 2.499.807 3.357-.086.859-.432 1.557-.807 2.307s-.78 1.552-.88 2.568.108 2.223.88 3.768l.168.336.336-.168c1.455-.728 2.499-.893 3.357-.807.859.086 1.557.432 2.307.807s1.552.78 2.568.88c1.017.102 2.223-.108 3.768-.88l.336-.168-.168-.336c-.728-1.455-.893-2.499-.807-3.357.086-.86.432-1.557.807-2.307s.78-1.552.88-2.568c.102-1.017-.108-2.223-.88-3.768l-.168-.336-.336.168c-1.455.728-2.499.893-3.357.807-.86-.086-1.557-.432-2.307-.807s-1.552-.78-2.568-.88a4.95 4.95 0 0 0-.801-.015z" color="#4d4d4d" opacity=".3"/><path class="ColorScheme-Text" d="M3 3v3h3V3zm13 0v3h3V3zM3 16v3h3v-3zm13 0v3h3v-3z" color="#4d4d4d"/></g></svg>