<svg width="22" height="22" version="1.1" viewBox="0 0 22 22" xmlns="http://www.w3.org/2000/svg"><defs><style id="current-color-scheme" type="text/css">.ColorScheme-Text{color:#4d4d4d}.ColorScheme-Highlight{color:#f34f17}</style></defs><g fill="currentColor"><path class="ColorScheme-Text" d="M1.002 3L1 3.002v.996L1.002 4h.996L2 3.998v.006c4.313.75 7.625 6.163 7.965 12.789l.93-.93C10.272 9.1 6.645 3.7 2 3h-.002zM10 3v3h1v1h1V6h1V3zm10 0c-.005 7.065-3.394 12.999-7.889 13.869l.303.303-.414.414v.34c5.11-.77 9-7.222 9-14.926zm-9 1h1v1h-1zm0 4v1h1V8zm0 2v1h1v-1zm7 6v1h-1v1h1v1h3v-3zm-3 1v1h1v-1zm4 0h1v1h-1zm-9.01.576c.002.112.01.222.01.334h.324z" color="#4d4d4d"/><path class="ColorScheme-Highlight" d="M11 14.344l-2.828 2.828L11 20l2.828-2.828zm0 1.414l1.414 1.414L11 18.586l-1.414-1.414z" color="#f34f17"/></g></svg>