<svg width="22" height="22" version="1.1" viewBox="0 0 22 22" xmlns="http://www.w3.org/2000/svg"><defs><style id="current-color-scheme" type="text/css">.ColorScheme-Text{color:#4d4d4d}.ColorScheme-Highlight{color:#f34f17}</style></defs><g fill="currentColor"><path class="ColorScheme-Text" d="M3 3v3h3V3H5zm13 0v3h3V3h-2zM4 4h1v1H4zm13 0h1v1h-1zM7 5v1h2V5zm3 0v1h2V5zm3 0v1h2V5zM5 7v2h1V7zm11 0v2h1V7zM5 10v2h1v-2zm11 0v2h1v-2zM5 13v2h1v-2zm-2 3v3h3v-3H4zm4 0v1h2v-1zm3 0v1h2v-1zm-6 1h1v1H4z" color="#4d4d4d"/><path class="ColorScheme-Highlight" d="M13 13v2h1v-1h1v-1zm4 0v1h1v1h1v-2h-1zm-4 4v2h2v-1h-1v-1zm5 0v1h-1v1h2v-2z" color="#f34f17"/></g></svg>