<svg width="22" height="22" version="1.1" viewBox="0 0 22 22" xmlns="http://www.w3.org/2000/svg"><defs><style id="current-color-scheme" type="text/css">.ColorScheme-Text{color:#4d4d4d}.ColorScheme-Highlight{color:#f34f17}</style></defs><g fill="currentColor"><path class="ColorScheme-Text" d="M1 3a10 15 0 0 0 8 14.68v-1.043A9 14 0 0 1 2 3zm19 0a9 14 0 0 1-7 13.633v1.063A10 15 0 0 0 21 3zM1 16v3h3v-1h1v-1H4v-1zm17 0v1h-1v1h1v1h3v-3zM2 17h1v1H2zm4 0v1h1v-1zm9 0v1h1v-1zm4 0h1v1h-1z" color="#4d4d4d"/><path class="ColorScheme-Highlight" d="M11 15a2.5 2.5 0 0 0-2.5 2.5A2.5 2.5 0 0 0 11 20a2.5 2.5 0 0 0 2.5-2.5A2.5 2.5 0 0 0 11 15zm0 1a1.5 1.5 0 0 1 1.5 1.5A1.5 1.5 0 0 1 11 19a1.5 1.5 0 0 1-1.5-1.5A1.5 1.5 0 0 1 11 16z" color="#f34f17"/></g></svg>