<svg width="22" height="22" version="1.1" viewBox="0 0 22 22" xmlns="http://www.w3.org/2000/svg"><defs><style id="current-color-scheme" type="text/css">.ColorScheme-Text{color:#4d4d4d}.ColorScheme-Highlight{color:#f34f17}</style></defs><g fill="currentColor"><path class="ColorScheme-Text" d="M1 3a10 15 0 0 0 9 14.91v-1.004A9 14 0 0 1 2 3zm19 0a9 14 0 0 1-8 13.896v1.03a10 15 0 0 0 9-14.927zM1 16v3h3v-1h1v-1H4v-1zm17 0v1h-1v1h1v1h3v-3zM2 17h1v1H2zm4 0v1h1v-1zm9 0v1h1v-1zm4 0h1v1h-1z" color="#4d4d4d"/><path class="ColorScheme-Highlight" d="M11 14l-3 5h6zm0 2l1 2h-2z" color="#f34f17"/></g></svg>