<svg xmlns="http://www.w3.org/2000/svg" width="22" height="22" version="1.1"><g fill="#4d4d4d"><path d="M5.097 4.306l3.304 3.307c-.732.273-1.5.527-2.306.764-.8.23-1.592.436-2.375.612.183-.776.39-1.565.621-2.366.237-.805.49-1.577.756-2.316z" overflow="visible"/><path d="M6.25 14.655l.072.084-.75.66-.091-.103-.04-.05-.48-.72.832-.554zm1.11 1.108l.34.226-.555.832-.367-.244-.051-.04-.422-.37.658-.75zm1.353.779l.676.23-.322.948-.717-.246-.06-.024-.218-.11.442-.896zm2.326.459l-.066.996-.801-.053.066-.998z" font-weight="400" overflow="visible" font-family="sans-serif"/><path d="M11.006 8.999a2 2 0 0 0-2 2 2 2 0 0 0 2 2 2 2 0 0 0 2-2 2 2 0 0 0-2-2zm0 1a1 1 0 0 1 1 1 1 1 0 0 1-1 1 1 1 0 0 1-1-1 1 1 0 0 1 1-1z"/><path d="M11.432 4.013c.791.047 1.586.23 2.347.558a7.005 7.005 0 0 1 4.083 7.844 7.005 7.005 0 0 1-6.856 5.584h-.5v-1h.5c2.85 0 5.3-1.997 5.877-4.787a5.995 5.995 0 0 0-3.5-6.723 5.995 5.995 0 0 0-7.291 2.07l-.287.41-.82-.574.287-.41a7.006 7.006 0 0 1 6.16-2.971z" font-weight="400" overflow="visible" font-family="sans-serif"/></g></svg>