<svg width="22" height="22" version="1.1" viewBox="0 0 22 22" xmlns="http://www.w3.org/2000/svg"><defs><style id="current-color-scheme" type="text/css">.ColorScheme-Text{color:#4d4d4d}.ColorScheme-Highlight{color:#f34f17}</style></defs><g fill="currentColor"><path class="ColorScheme-Text" d="M18 3c0 3.525-2.61 6.848-6 7.408v1.014c3.945-.559 7-4.343 7-8.422zM7 4L5 5.5 7 7V6h5V5H7zm3 6.578c-3.945.559-7 4.343-7 8.422h1c0-3.525 2.61-6.848 6-7.408zM15 15v1h-5v1h5v1l2-1.5z" color="#4d4d4d"/><path class="ColorScheme-Highlight" d="M9 9v4h4V9zm1 1h2v2h-2z" color="#f34f17"/></g></svg>