<svg width="22" height="22" version="1.1" viewBox="0 0 22 22" xmlns="http://www.w3.org/2000/svg"><defs><style id="current-color-scheme" type="text/css">.ColorScheme-Text{color:#4d4d4d}</style></defs><path class="ColorScheme-Text" d="M17.5 3c-.654 0-1.202.418-1.408 1H3v1c3.6 0 6.5 2.899 6.5 6.5a6.453 6.453 0 0 1-2.121 4.787A1.497 1.497 0 0 0 5 17.5a1.497 1.497 0 0 0 2.908.5H12v1h3v-3h-3v1H8.088a7.461 7.461 0 0 0 2.412-5.5A7.478 7.478 0 0 0 6.742 5h9.35A1.497 1.497 0 0 0 19 4.5c0-.831-.67-1.5-1.5-1.5zm0 1a.499.499 0 1 1 0 1 .499.499 0 0 1-.46-.695A.499.499 0 0 1 17.5 4zm-11 13a.499.499 0 1 1 0 1 .499.499 0 1 1 0-1zm6.5 0h1v1h-1z" color="#4d4d4d" fill="currentColor"/></svg>