<svg xmlns="http://www.w3.org/2000/svg" height="22" version="1.1" width="22"><path d="M10 3C8.237 3 8 4 8 4.5s0 1 .25 1.5H4v5.5s1-.5 2-.5c.5 0 1 .5 1 1s-.5 1-1 1c-1 0-2-.5-2-.5V18h5.5S9 17 9 16c0-.5.5-1 1-1s1 .5 1 1c0 1-.5 2-.5 2H16v-4.25c.5.25 1 .25 1.5.25.546 0 1.5-.233 1.5-2 0-1.763-1-2-1.5-2s-1 0-1.5.25V6h-4.25C12 5.5 12 5 12 4.5c0-.546-.233-1.5-2-1.5zm0 1c.5 0 1 .5 1 1 0 1-.5 2-.5 2h.5v.031l4-.002V11.5s1-.5 2-.5c.5 0 1 .5 1 1s-.5 1-1 1c-1 0-2-.5-2-.5v4.465h-3.236c.232-.488.236-.977.236-1.465 0-.546-.233-1.5-2-1.5-1.763 0-2 1-2 1.5 0 .488.004.977.236 1.465H5.023V13.76c.493.238.985.24 1.477.24.546 0 1.5-.233 1.5-2 0-1.763-1-2-1.5-2-.492 0-.984.002-1.477.24V7.033L9 7.031V7h.5S9 6 9 5c0-.5.5-1 1-1z" opacity="1" vector-effect="none" fill="#4d4d4d" fill-opacity="1" stroke="none" stroke-width="1" stroke-linecap="round" stroke-linejoin="round" stroke-miterlimit="4" stroke-dashoffset="0" stroke-opacity=".881"/></svg>