<svg width="22" height="22" version="1.1" viewBox="0 0 22 22" xmlns="http://www.w3.org/2000/svg">
<defs>
<style id="current-color-scheme" type="text/css">.ColorScheme-Text { color:#4d4d4d; } .ColorScheme-Highlight { color:#f34f17; }</style>
</defs>
<g transform="translate(-1,-1)" fill="currentColor">
<path class="ColorScheme-Text" d="m4 4v1h1v-1zm15.293 0-6 6h0.70703v0.70703l6-6zm-13.293 2v1h1v-1zm2 2v1h1v-1zm2 5.293-6 6 0.70703 0.70703 6-6h-0.70703zm5 1.707v1h1v-1zm2 2v1h1v-1zm2 2v1h1v-1z" color="#4d4d4d"/>
<path class="ColorScheme-Highlight" d="m10 10v4h4v-4zm1 1h2v2h-2z" color="#f34f17"/>
</g>
</svg>
