<svg width="22" height="22" version="1.1" viewBox="0 0 22 22" xmlns="http://www.w3.org/2000/svg">
<defs>
<style id="current-color-scheme" type="text/css">.ColorScheme-Text { color:#4d4d4d; } .ColorScheme-Highlight { color:#f34f17; }</style>
</defs>
<g transform="translate(-1,-1)" fill="currentColor">
<path class="ColorScheme-Text" d="m12 5a8 7 0 0 0-8 7 8 7 0 0 0 8 7 8 7 0 0 0 8-7 8 7 0 0 0-8-7zm0 1a7 6 0 0 1 7 6 7 6 0 0 1-7 6 7 6 0 0 1-7-6 7 6 0 0 1 7-6z" color="#4d4d4d"/>
<path class="ColorScheme-Highlight" d="m12 10a2 2 0 0 0-2 2 2 2 0 0 0 2 2 2 2 0 0 0 2-2 2 2 0 0 0-2-2zm0 1a1 1 0 0 1 1 1 1 1 0 0 1-1 1 1 1 0 0 1-1-1 1 1 0 0 1 1-1z" color="#f34f17"/>
</g>
</svg>
