<svg width="22" height="22" version="1.1" viewBox="0 0 22 22" xmlns="http://www.w3.org/2000/svg"><defs><style id="current-color-scheme" type="text/css">.ColorScheme-Text{color:#4d4d4d}.ColorScheme-Highlight{color:#f34f17}</style></defs><g fill="currentColor"><path class="ColorScheme-Text" d="M10.6 4.05l-.707.708 2.293 2.293H9v1h3.186l-2.293 2.293.707.707 3.5-3.5-.207-.207zm-3.1 3a.499.499 0 1 0 0 1 .499.499 0 1 0 0-1zm-3 2a.499.499 0 1 0 0 1 .499.499 0 1 0 0-1zm-1 3a.499.499 0 1 0 0 1 .499.499 0 1 0 0-1zm1 3a.499.499 0 1 0 0 1 .499.499 0 1 0 0-1zm3 2a.499.499 0 1 0 0 1 .499.499 0 1 0 0-1z" color="#4d4d4d"/><path class="ColorScheme-Highlight" d="M15 11a4 4 0 0 0-4 4 4 4 0 0 0 4 4 4 4 0 0 0 4-4 4 4 0 0 0-4-4zm0 1a3 3 0 0 1 3 3 3 3 0 0 1-3 3 3 3 0 0 1-3-3 3 3 0 0 1 3-3z" color="#f34f17"/></g></svg>