<svg width="22" height="22" version="1.1" viewBox="0 0 22 22" xmlns="http://www.w3.org/2000/svg"><defs><style id="current-color-scheme" type="text/css">.ColorScheme-Text{color:#4d4d4d}.ColorScheme-Highlight{color:#f34f17}</style></defs><g fill="currentColor"><path class="ColorScheme-Text" d="M9 4.295A7 7 0 0 0 4.299 9H5.35A6 6 0 0 1 9 5.35zm4 .004v1.053A6 6 0 0 1 16.65 9h1.055A7 7 0 0 0 13 4.299zM4.295 13A7 7 0 0 0 9 17.701V16.65A6 6 0 0 1 5.35 13zm12.354 0A6 6 0 0 1 13 16.65v1.055A7 7 0 0 0 17.702 13z" color="#4d4d4d"/><path class="ColorScheme-Highlight" d="M9 2v4h4V2zm1 1h2v2h-2zM2 9v4h4V9zm14 0v4h4V9zM3 10h2v2H3zm14 0h2v2h-2zm-8 6v4h4v-4zm1 1h2v2h-2z" color="#f34f17"/></g></svg>