<svg width="22" height="22" version="1.1" viewBox="0 0 22 22" xmlns="http://www.w3.org/2000/svg"><defs><style id="current-color-scheme" type="text/css">.ColorScheme-Text{color:#4d4d4d}.ColorScheme-Highlight{color:#f34f17}</style></defs><g fill="currentColor"><path class="ColorScheme-Text" d="M3 3v3h1v1h1V6h1V5h1V4H6V3zm13 0v1h-1v1h1v1h1v1h1V6h1V3zM4 4h1v1H4zm5 0v1h1V4zm3 0v1h1V4zm5 0h1v1h-1zM4 9v1h1V9zm13 0v1h1V9zM4 12v1h1v-1zm13 0v1h1v-1zM4 15v1H3v3h3v-1h1v-1H6v-1H5v-1zm13 0v1h-1v1h-1v1h1v1h3v-3h-1v-1zM4 17h1v1H4zm13 0h1v1h-1z" color="#4d4d4d"/><path class="ColorScheme-Highlight" d="M11 12a2 2 0 0 0-2 2 2 2 0 0 0 2 2 2 2 0 0 0 2-2 2 2 0 0 0-2-2zm0 4a2 2 0 0 0-2 2 2 2 0 0 0 2 2 2 2 0 0 0 2-2 2 2 0 0 0-2-2zm0-3a1 1 0 0 1 1 1 1 1 0 0 1-1 1 1 1 0 0 1-1-1 1 1 0 0 1 1-1zm0 4a1 1 0 0 1 1 1 1 1 0 0 1-1 1 1 1 0 0 1-1-1 1 1 0 0 1 1-1z" color="#f34f17"/></g></svg>