<svg width="22" height="22" version="1.1" viewBox="0 0 22 22" xmlns="http://www.w3.org/2000/svg"><defs><style id="current-color-scheme" type="text/css">.ColorScheme-Text{color:#4d4d4d}.ColorScheme-Highlight{color:#f34f17}</style></defs><g fill="currentColor"><path class="ColorScheme-Text" d="M10.037 3v9h1V3zm-3 1v4l2-2zm7 0l-2 2 2 2zm3.967 3.252l-.006.002v.002zm-.006.004L11.105 12h.432v.92l7-4.813zM9.537 13.08l-6.7 4.611.583.809L9.965 14h-.428zm-6.7 4.611l-.001-.003v.005zm7.2-3.691v5h1v-5z" color="#4d4d4d"/><path class="ColorScheme-Highlight" d="M8.537 11v4h4v-4zm1 1h2v2h-2z" color="#f34f17"/></g></svg>