<svg width="22" height="22" version="1.1" viewBox="0 0 22 22" xmlns="http://www.w3.org/2000/svg">
<defs>
<style id="current-color-scheme" type="text/css">.ColorScheme-Text { color:#4d4d4d; } .ColorScheme-Highlight { color:#f34f17; }</style>
</defs>
<g transform="translate(-1,-1)" fill="currentColor">
<path class="ColorScheme-Text" d="m7 5v1h10v-1zm-2 2v10h1v-10zm13 0v10h1v-10zm-11 11v1h10v-1z" color="#4d4d4d"/>
<path class="ColorScheme-Highlight" d="m3 3v4h4v-4zm14 0v4h4v-4zm-13 1h2v2h-2zm14 0h2v2h-2zm-15 13v4h4v-4zm14 0v4h4v-4zm-13 1h2v2h-2zm14 0h2v2h-2z" color="#f34f17"/>
</g>
</svg>
