<svg width="22" height="22" version="1.1" viewBox="0 0 22 22" xmlns="http://www.w3.org/2000/svg"><defs><style id="current-color-scheme" type="text/css">.ColorScheme-Text{color:#4d4d4d}.ColorScheme-Highlight{color:#f34f17}</style></defs><g fill="currentColor"><path class="ColorScheme-Text" d="M15 4.5A10.5 10.5 0 0 0 4.5 15h1A9.5 9.5 0 0 1 15 5.5zm1.5 9.5a2.5 2.5 0 0 0-2.5 2.5 2.5 2.5 0 0 0 .416 1.377l.732-.732A1.5 1.5 0 0 1 15 16.5a1.5 1.5 0 0 1 1.5-1.5 1.5 1.5 0 0 1 .645.148l.732-.732A2.5 2.5 0 0 0 16.5 14zm2.084 1.123l-.732.732A1.5 1.5 0 0 1 18 16.5a1.5 1.5 0 0 1-1.5 1.5 1.5 1.5 0 0 1-.645-.148l-.732.732A2.5 2.5 0 0 0 16.5 19a2.5 2.5 0 0 0 2.5-2.5 2.5 2.5 0 0 0-.416-1.377z" color="#4d4d4d"/><path class="ColorScheme-Text" d="M15 5.5A9.5 9.5 0 0 0 5.5 15H7v3h6v-1.5a3.5 3.5 0 0 1 3.5-3.5H18V7h-3z" color="#4d4d4d" fill-opacity=".5"/><path class="ColorScheme-Highlight" d="M15 3v4h4V3zm1 1h2v2h-2zM3 15v4h4v-4zm1 1h2v2H4z" color="#f34f17"/></g></svg>