<svg xmlns="http://www.w3.org/2000/svg" width="22" height="22" version="1.1"><g fill="#4d4d4d"><path overflow="visible" font-weight="400" d="M8.615 8.76a4.806 4.811 0 0 0-4.296 2.403 4.828 4.828 0 0 0 1.767 6.582 4.81 4.81 0 0 0 6.574-1.756 4.832 4.832 0 0 0-1.767-6.585 4.799 4.804 0 0 0-2.278-.645zm-.125.685a4.125 4.13 0 0 1 4.125 4.13 4.125 4.13 0 0 1-4.125 4.13 4.125 4.13 0 0 1-4.125-4.13 4.125 4.13 0 0 1 4.125-4.13z"/><path overflow="visible" d="M9.399 8.013l-1.81.271v.932a4.465 4.455 58.94 0 1 1.81.003V8.014zm-3.703.82l-1.379 1.173.68.811a4.465 4.455 58.94 0 1 1.386-1.164zm5.588.009l-.682.814a4.465 4.455 58.94 0 1 .117.062 4.465 4.455 58.94 0 1 1.268 1.104l.692-.825zm-7.981 2.902L3 13.531l1.042.183a4.465 4.455 58.94 0 1 .312-1.784zm10.371.003l-1.047.184a4.465 4.455 58.94 0 1 .32 1.783L14 13.53zm-9.407 3.23l-.929.537.915 1.564.92-.532a4.465 4.455 58.94 0 1-.906-1.569zm8.457.003a4.465 4.455 58.94 0 1-.367.836 4.465 4.455 58.94 0 1-.532.736l.92.532.895-1.575zm-6.57 2.39l-.368 1.01 1.705.609.361-.995a4.465 4.455 58.94 0 1-1.583-.55 4.465 4.455 58.94 0 1-.115-.075zm4.684.01a4.465 4.455 58.94 0 1-1.701.618L9.5 19l1.697-.63z"/><path overflow="visible" font-weight="400" d="M8.248 10.143A3.43 3.434 0 0 0 5.51 11.85a3.446 3.45 0 0 0 1.262 4.704 3.439 3.443 0 0 0 4.696-1.257 3.444 3.448 0 0 0-1.262-4.702 3.421 3.425 0 0 0-1.958-.453zm.242.678a2.75 2.753 0 0 1 2.75 2.754 2.75 2.753 0 0 1-2.75 2.753 2.75 2.753 0 0 1-2.75-2.753 2.75 2.753 0 0 1 2.75-2.754z"/><g><path overflow="visible" font-weight="400" d="M15.083 3.543A3.495 3.5 0 0 0 11.96 5.29a3.511 3.511 0 0 0 1.285 4.787A3.498 3.498 0 0 0 18.025 8.8a3.514 3.514 0 0 0-1.285-4.79 3.49 3.494 0 0 0-1.657-.468zm-.09.498a3 3.004 0 0 1 3 3.004 3 3.004 0 0 1-3 3.003 3 3.004 0 0 1-3-3.003 3 3.004 0 0 1 3-3.004z"/><path overflow="visible" d="M15.653 3l-1.316.197v.678a3.247 3.24 58.94 0 1 1.316.002v-.876zm-2.692.596l-1.003.854.494.59a3.247 3.24 58.94 0 1 1.008-.847zm4.064.007l-.497.592a3.247 3.24 58.94 0 1 .085.045 3.247 3.24 58.94 0 1 .923.803l.503-.6zm-5.805 2.11l-.22 1.3.757.133a3.247 3.24 58.94 0 1 .228-1.297zm7.543.002l-.762.134a3.247 3.24 58.94 0 1 .232 1.297L19 7.011zm-6.842 2.35l-.675.39.665 1.138.67-.387a3.247 3.24 58.94 0 1-.66-1.141zm6.151.002a3.247 3.24 58.94 0 1-.267.608 3.247 3.24 58.94 0 1-.387.535l.669.387.651-1.146zm-4.779 1.738l-.267.735 1.24.442.263-.723a3.247 3.24 58.94 0 1-1.152-.4 3.247 3.24 58.94 0 1-.084-.054zm3.407.007a3.247 3.24 58.94 0 1-1.237.45l.265.728 1.234-.458z"/><path overflow="visible" font-weight="400" d="M14.816 4.549a2.494 2.497 0 0 0-1.99 1.242 2.506 2.51 0 0 0 .917 3.421 2.501 2.504 0 0 0 3.415-.914 2.505 2.508 0 0 0-.918-3.42 2.488 2.491 0 0 0-1.424-.33zm.176.493a2 2.002 0 0 1 2 2.003 2 2.002 0 0 1-2 2.002 2 2.002 0 0 1-2-2.002 2 2.002 0 0 1 2-2.003z"/></g></g></svg>