<svg xmlns="http://www.w3.org/2000/svg" width="22" height="22" version="1.1"><g font-weight="400" font-family="sans-serif" fill="#4d4d4d"><path d="M7.994 6c-1.258.015-2.179-.03-2.932.385a1.88 1.88 0 0 0-.837.998C4.06 7.82 4 8.343 4 9v7H3v1h2V9c0-.592.063-1.006.16-1.266.098-.26.202-.371.385-.472C5.91 7.06 6.74 7.015 8 7h5c1.259.015 2.087.06 2.453.262.184.1.29.212.387.472.097.26.16.674.16 1.266v8h2v-1h-1V9c0-.658-.06-1.179-.225-1.617a1.88 1.88 0 0 0-.838-.998c-.752-.416-1.673-.37-2.931-.385H7.998z" overflow="visible"/><path d="M11.914 10.757L10.5 12.172l-1.414-1.415-.707.707 1.414 1.415-1.414 1.414.707.707 1.414-1.414L11.914 15l.707-.707-1.414-1.414 1.414-1.415z" overflow="visible"/></g></svg>