<svg width="22" height="22" version="1.1" xmlns="http://www.w3.org/2000/svg"><path d="M7.081 4.056c-4.3 0-4.136-.164-4.136 4.137 0 2.3.037 2.974.17 3.224.189.356 7.144 7.311 7.51 7.51.417.227.937.151 1.417-.205.537-.4 5.436-5.33 5.717-5.754.222-.336.248-.844.062-1.211-.184-.365-7.132-7.33-7.513-7.533-.25-.133-.925-.168-3.227-.168zM5.52 5.586a1.086 1.086 0 0 1 1.055 1.532 1.19 1.19 0 0 1-.473.52c-1.16.6-2.208-.796-1.29-1.715.217-.216.466-.32.708-.338zm5.51 4.35h1v2h2v1h-2v2h-1v-2h-2v-1h2z" fill="#4d4d4d"/></svg>