<svg width="22" height="22" version="1.1" viewBox="0 0 22 22" xmlns="http://www.w3.org/2000/svg"><defs><style id="current-color-scheme" type="text/css">.ColorScheme-Text{color:#4d4d4d}.ColorScheme-NegativeText{color:#da4453}</style></defs><g fill="currentColor"><path class="ColorScheme-Text" d="M2 3s4.134 14.017 4.139 14c.01.007.353.002.61 0h.386c.366.003.815.01.83 0 .005.017 4.139-14 4.139-14H11L7.28 15h-.464L3.104 3zm11.379 0L9.043 16.863 9 17h1.137l1.564-5h6.344l-3.517-9zm.51 2h.258l2.345 6h-4.48z" color="#4d4d4d"/><path class="ColorScheme-NegativeText" d="M14.99 13l-.99.99L16.01 16 14 18.01l.99.99L17 16.99 19.01 19l.99-.99L17.99 16 20 13.99l-.99-.99L17 15.01z" color="#da4453"/></g></svg>