<svg width="22" height="22" version="1.1" viewBox="0 0 22 22" xmlns="http://www.w3.org/2000/svg">
<defs>
<style id="current-color-scheme" type="text/css">.ColorScheme-Text { color:#4d4d4d; } .ColorScheme-Highlight { color:#f34f17; }</style>
</defs>
<g transform="translate(-1,-1)" fill="currentColor">
<path class="ColorScheme-Text" d="m4 12v8h1v-8zm2 0v8h1v-7h1a2 2 0 0 1 2 2v5h1v-5a3 3 0 0 0-3-3h-1zm8 0v8h1v-8zm2 0v8h1v-4a3 3 0 0 1 3-3v-1a4 4 0 0 0-3 1.3613v-1.3613z" color="#4d4d4d"/>
<path class="ColorScheme-Highlight" d="m11 4-4 3 4 3zm3 0v6l4-3z" color="#f34f17"/>
</g>
</svg>
