<svg width="22" height="22" version="1.1" viewBox="0 0 22 22" xmlns="http://www.w3.org/2000/svg"><defs><style id="current-color-scheme" type="text/css">.ColorScheme-Text{color:#4d4d4d}.ColorScheme-Highlight{color:#f34f17}</style></defs><g fill="currentColor"><path class="ColorScheme-Text" d="M14.666 6.894l-1.332 3.772L12 14.438l.943.333.453-1.283a4 4 0 0 0 2.375 2.283 4 4 0 0 0 5.104-2.437 4 4 0 0 0-2.438-5.106 4 4 0 0 0-3.28.284l.452-1.284zM5 7.447a4 4 0 0 0-4 4 4 4 0 0 0 4 4 4 4 0 0 0 3-1.361v1.361h1v-8H8V8.81a4 4 0 0 0-3-1.362zm0 1a3 3 0 0 1 3 3 3 3 0 0 1-3 3 3 3 0 0 1-3-3 3 3 0 0 1 3-3zm12.012.555a3 3 0 0 1 1.094.17A3 3 0 0 1 19.934 13a3 3 0 0 1-3.828 1.828A3 3 0 0 1 14.276 11a3 3 0 0 1 2.736-1.998z" color="#4d4d4d"/><path class="ColorScheme-Highlight" d="M10 3v16h1v-2.42l9.36 2.106.232-1.028L11 15.5V3z" color="#f34f17"/></g></svg>