<svg width="22" height="22" version="1.1" viewBox="0 0 22 22" xmlns="http://www.w3.org/2000/svg"><defs><style id="current-color-scheme" type="text/css">.ColorScheme-Text{color:#4d4d4d}</style></defs><path class="ColorScheme-Text" d="M3 3v6h3c1.108 0 2-.892 2-2 0-.81-.481-1.502-1.172-1.816C6.934 4.978 7 4.748 7 4.5 7 3.669 6.331 3 5.5 3H4zm11 0v6h3c1.108 0 2-.892 2-2V5c0-1.108-.892-2-2-2h-1zM4 4h1.5a.499.499 0 1 1 0 1H4zm11 0h2c.554 0 1 .446 1 1v2c0 .554-.446 1-1 1h-2zM4 6h2c.554 0 1 .446 1 1s-.446 1-1 1H4zm6 0v1h2V6zm-6 6v1h2v-1zm4 0v1h2v-1zm4 0v1h2v-1zm4 0v1h2v-1zM5 15l-2 2 2 2zm12 0v4l2-2zm-6 1c-.554 0-1 .446-1 1s.446 1 1 1 1-.446 1-1-.446-1-1-1z" color="#4d4d4d" fill="currentColor"/></svg>