<svg width="22" height="22" version="1.1" viewBox="0 0 22 22" xmlns="http://www.w3.org/2000/svg"><defs><style id="current-color-scheme" type="text/css">.ColorScheme-Text{color:#4d4d4d}</style></defs><g fill="#4d4d4d"><path d="M7.417 10.969c-.473-1.242-.62-1.61-.638-1.6-.012.007-.344.242-.736.523-.557.399-.713.503-.712.478.008-.107.65-4.453.659-4.457.009-.003 3.381 2.813 3.458 2.888.018.017-.142.04-.726.103l-.898.097-.15.017.617 1.62.618 1.622-.431.164a9.98 9.98 0 0 1-.439.162c-.004-.002-.284-.73-.622-1.617z" stroke-width=".016"/><path class="ColorScheme-Text" d="M4.5 3A1.497 1.497 0 0 0 4 5.908V16H3v3h3v-3H5V5.908c.424-.15.757-.485.908-.908H16v1h3V3h-3v1H5.908c-.206-.582-.754-1-1.408-1zm0 1a.499.499 0 1 1 0 1 .499.499 0 1 1 0-1zM17 4h1v1h-1zM4 17h1v1H4z" color="#4d4d4d"/></g></svg>