<svg width="22" height="22" version="1.1" xmlns="http://www.w3.org/2000/svg">
<g transform="translate(-28.878 -217.4)">
<path d="m41.705 221.44c-1.2157-0.0398-2.3832 0.43997-3.2323 1.5226-0.47805 0.60959-0.72777 1.2483-0.82811 1.8966-0.03775 0.24395-0.06462 0.47822-0.05343 0.72126 0.0029 0.0635-0.0062 0.1237 0 0.18699 0.30585 1.435 0.40013 2.9728-0.32905 4.1099-1.435 1.8173-2.786 3.7018-4.262 5.4864h4.26l2.8154-3.7194c0.4438-0.85573 1.6562-1.1479 3.0453-1.2822 1.1042-0.0295 2.1375-0.50863 2.9118-1.496 0.87276-1.1129 1.0578-2.368 0.72126-3.5529l-3.0453 2.2172c-2.0146-0.28705-3.3527-1.1194-2.6179-3.8467l2.8049-1.6562c-0.70435-0.35757-1.4611-0.5638-2.1905-0.58769z" fill="#4d4d4d"/>
</g>
</svg>
