<svg width="22" height="22" version="1.1" viewBox="0 0 22 22" xmlns="http://www.w3.org/2000/svg"><defs><style id="current-color-scheme" type="text/css">.ColorScheme-Text{color:#4d4d4d}</style></defs><path class="ColorScheme-Text" d="M13.007 3.997c-1.694-.04-2.94.896-3.772 2.192-.83 1.296-1.33 2.96-1.747 4.607-.417 1.646-.746 3.28-1.159 4.457-.206.589-.437 1.059-.67 1.348-.232.289-.419.391-.672.396h-1.99v1h2.01c.58-.011 1.079-.33 1.432-.77.352-.438.608-1 .834-1.644.452-1.29.777-2.929 1.185-4.543.409-1.614.903-3.195 1.62-4.312.716-1.118 1.57-1.763 2.907-1.73h.008c2.713.021 3.864 1.138 4.455 2.251.39.733.329 1.05.362 1.465-1.7-.755-3.136-.951-4.145-.418-1.202.636-1.747 1.98-1.836 3.385-.088 1.405.257 2.927.955 4.146.7 1.22 1.81 2.17 3.213 2.17 1.549.015 3.006 0 3.006 0l-.012-1s-1.45.015-2.99 0h-.004c-.951 0-1.758-.643-2.345-1.668-.588-1.025-.9-2.395-.825-3.586.075-1.19.514-2.146 1.305-2.564.791-.418 2.097-.392 4.12.754l.71.402.035-.816s.065-1.363-.666-2.739c-.73-1.374-2.326-2.756-5.322-2.783z" color="#4d4d4d" fill="#4d4d4d"/></svg>