<svg xmlns="http://www.w3.org/2000/svg" width="22" height="22" version="1.1"><g font-weight="400" color="#000" font-family="sans-serif" fill="#4d4d4d"><path d="M6.994 10c-1.258.015-2.179-.03-2.932.385a1.88 1.88 0 0 0-.837.998C3.06 11.82 3 12.343 3 13v2c0 .658.06 1.179.225 1.617.164.439.461.79.837.998.753.416 1.674.37 2.932.385h2.012c1.258-.015 2.179.03 2.932-.385a1.88 1.88 0 0 0 .838-.998c.164-.437.224-.96.224-1.617v-2c0-.658-.06-1.179-.225-1.617a1.88 1.88 0 0 0-.837-.998c-.753-.416-1.674-.37-2.932-.385H6.998zM7 11h2c1.259.015 2.087.06 2.453.262.184.1.29.212.387.472.097.26.16.674.16 1.266v2c0 .592-.063 1.006-.16 1.266-.098.26-.202.371-.385.472-.365.202-1.195.247-2.455.262H7c-1.259-.015-2.09-.06-2.455-.262-.183-.1-.287-.212-.385-.472C4.063 16.006 4 15.592 4 15v-2c0-.592.063-1.006.16-1.266.098-.26.202-.371.385-.472C4.91 11.06 5.74 11.015 7 11z" overflow="visible" opacity=".5"/><path d="M9.994 5c-1.258.015-2.179-.03-2.932.385a1.88 1.88 0 0 0-.837.998C6.06 6.82 6 7.343 6 8v1h1V8c0-.592.063-1.006.16-1.266.098-.26.202-.371.385-.472C7.91 6.06 8.74 6.015 10 6h5c1.259.015 2.087.06 2.453.262.184.1.29.212.387.472.097.26.16.674.16 1.266v4c0 .592-.063 1.006-.16 1.266-.098.26-.202.371-.385.472-.367.203-1.197.247-2.46.262H14v1h1.006c1.258-.015 2.179.03 2.932-.385a1.88 1.88 0 0 0 .837-.998c.165-.437.225-.96.225-1.617V8c0-.658-.06-1.179-.225-1.617a1.88 1.88 0 0 0-.838-.998c-.752-.416-1.673-.37-2.931-.385H9.998z" overflow="visible"/></g></svg>