<svg xmlns="http://www.w3.org/2000/svg" width="22" height="22" version="1.1"><g fill="#4d4d4d"><path d="M16.909 4.308l-3.304 3.307c.732.273 1.5.527 2.306.764.8.23 1.592.436 2.375.612a48.514 48.514 0 0 0-.621-2.366 40.298 40.298 0 0 0-.756-2.316z" overflow="visible"/><path d="M11.102 4A7.003 7.003 0 0 0 4 11a7.003 7.003 0 0 0 4.895 6.677 7.005 7.005 0 0 0 7.84-2.66l.287-.41-.82-.575-.288.41a5.996 5.996 0 0 1-6.719 2.282A5.996 5.996 0 0 1 5 11a5.996 5.996 0 0 1 4.195-5.723 5.996 5.996 0 0 1 6.72 2.282l.286.41.82-.574-.287-.41A7.006 7.006 0 0 0 11.102 4z" font-weight="400" overflow="visible" font-family="sans-serif"/></g></svg>