<svg xmlns="http://www.w3.org/2000/svg" width="22" height="22" version="1.1"><g fill="#4d4d4d"><path d="M4.586 3.967C3.716 3.967 3 4.668 3 5.523v11.918C3 18.297 3.715 19 4.586 19h12.828c.87 0 1.586-.703 1.586-1.559V5.523c0-.855-.717-1.556-1.588-1.556zm-.602 3.031c3.595.015 11.002.01 14.012 0l.004 6.42h.01l-.004 4.023c0 .367-.207.563-.58.563H4.574c-.373 0-.58-.196-.58-.563z"/><path d="M9.999 9.998v2H16v1h-6v2a43.07 43.07 0 0 1-2.324-1.18 51.85 51.85 0 0 1-2.258-1.32 44.055 44.055 0 0 1 2.258-1.334c.788-.43 1.561-.818 2.322-1.166z"/></g></svg>