<svg xmlns="http://www.w3.org/2000/svg" width="22" height="22" version="1.1"><g font-weight="400" font-family="sans-serif" fill="#4d4d4d"><path d="M10.5 3.987a6.508 6.508 0 0 0-6.5 6.5c0 3.584 2.916 6.5 6.5 6.5s6.5-2.916 6.5-6.5-2.916-6.5-6.5-6.5zm0 1.04a5.452 5.452 0 0 1 5.46 5.46 5.452 5.452 0 0 1-5.46 5.46 5.454 5.454 0 0 1-5.461-5.46c0-3.022 2.44-5.46 5.461-5.46z" overflow="visible"/><path d="M14.853 14.133l-.707.708 3.5 3.5.707-.708z" overflow="visible" fill-rule="evenodd"/><path d="M10 7.987v2H8v1h2v2h1v-2h2v-1h-2v-2z" overflow="visible"/></g></svg>