<svg xmlns="http://www.w3.org/2000/svg" width="22" height="22" version="1.1"><path d="M8.994 5c-1.258.015-2.179-.03-2.932.385a1.88 1.88 0 0 0-.837.998C5.06 6.82 5 7.343 5 8v2h1V8c0-.592.063-1.006.16-1.266.098-.26.201-.371.385-.472C6.91 6.06 7.74 6.015 9 6h1V5H8.998zM12 5v1h1c1.258.015 2.087.06 2.453.262.183.1.29.212.387.472.097.26.16.674.16 1.266v2h1V8c0-.658-.06-1.179-.225-1.617a1.88 1.88 0 0 0-.838-.998c-.752-.416-1.673-.37-2.931-.385h-.004zm-7 7v2c0 .658.06 1.179.225 1.617.164.439.461.79.837.998.753.416 1.674.37 2.932.385H10v-1H9c-1.259-.015-2.09-.06-2.455-.262-.184-.1-.287-.212-.385-.472C6.063 15.006 6 14.592 6 14v-2zm11 0v2c0 .592-.063 1.006-.16 1.266-.098.26-.202.371-.385.472-.366.202-1.197.247-2.455.262h-1v1h1.006c1.258-.015 2.179.03 2.932-.385a1.88 1.88 0 0 0 .837-.998c.165-.438.225-.96.225-1.617v-2z" font-weight="400" overflow="visible" color="#000" font-family="sans-serif" fill="#4d4d4d"/></svg>