<svg xmlns="http://www.w3.org/2000/svg" width="22" height="22" version="1.1"><g fill="#4d4d4d"><path d="M8.994 5c-1.258.015-2.179-.03-2.932.385a1.88 1.88 0 0 0-.837.998C5.06 6.82 5 7.343 5 8v6c0 .658.06 1.179.225 1.617.164.439.461.79.837.998.753.416 1.674.37 2.932.385h4.012c1.258-.015 2.179.03 2.932-.385a1.88 1.88 0 0 0 .838-.998c.164-.438.224-.96.224-1.617V8c0-.658-.06-1.179-.225-1.617a1.88 1.88 0 0 0-.838-.998c-.752-.416-1.673-.37-2.931-.385H8.998zM9 6h4c1.259.015 2.087.06 2.453.262.184.1.29.212.387.472.097.26.16.674.16 1.266v6c0 .592-.063 1.006-.16 1.266-.098.26-.202.371-.385.472-.366.202-1.197.247-2.455.262H9c-1.259-.015-2.09-.06-2.455-.262-.184-.1-.287-.212-.385-.472C6.063 15.006 6 14.592 6 14V8c0-.592.063-1.006.16-1.266.098-.26.201-.371.385-.472C6.91 6.06 7.74 6.015 9 6z" font-weight="400" overflow="visible" color="#000" font-family="sans-serif"/><path d="M9.117 9.247c.167-.07.34-.147.52-.234.184-.092.363-.19.536-.294a8.2 8.2 0 0 0 .494-.338c.161-.121.306-.248.433-.381h.9v6h-1V9.348c-.448.347-1.012.566-1.494.762z" font-weight="700" letter-spacing="0" word-spacing="0" font-family="Ubuntu" text-anchor="middle"/></g></svg>